<svg width="56" height="56" viewBox="0 0 56 56" fill="none" xmlns="http://www.w3.org/2000/svg">
<path d="M27.5987 12.5685L28.6122 10.8211C28.7613 10.5623 28.96 10.3353 29.1968 10.1533C29.4336 9.97122 29.704 9.83759 29.9925 9.76001C30.2809 9.68244 30.5818 9.66244 30.878 9.70116C31.1742 9.73988 31.4599 9.83657 31.7187 9.98569C31.9775 10.1348 32.2045 10.3335 32.3865 10.5703C32.5686 10.8071 32.7022 11.0775 32.7798 11.3659C32.8574 11.6544 32.8774 11.9553 32.8386 12.2515C32.7999 12.5477 32.7032 12.8334 32.5541 13.0922L22.8125 29.9588H29.8591C32.1409 29.9588 33.4216 32.6414 32.4312 34.501H11.7794C10.5218 34.501 9.50831 33.4875 9.50831 32.2299C9.50831 30.9724 10.5218 29.9588 11.7794 29.9588H17.5685L24.982 17.1107L22.6664 13.0922C22.3931 12.5713 22.332 11.9649 22.4959 11.4C22.6598 10.8351 23.036 10.3555 23.5457 10.0619C24.0554 9.76823 24.6589 9.68327 25.2299 9.8248C25.8008 9.96634 26.2948 10.3234 26.6083 10.8211L27.5987 12.5685ZM18.8367 36.838L16.6547 40.6232C16.5056 40.882 16.3069 41.1089 16.0701 41.291C15.8333 41.4731 15.5629 41.6067 15.2745 41.6843C14.986 41.7618 14.6851 41.7818 14.3889 41.7431C14.0927 41.7044 13.807 41.6077 13.5482 41.4586C13.2894 41.3095 13.0624 41.1108 12.8804 40.874C12.6983 40.6372 12.5647 40.3668 12.4871 40.0784C12.4095 39.7899 12.3895 39.489 12.4283 39.1928C12.467 38.8966 12.5637 38.6109 12.7128 38.3521L14.3391 35.5466C16.1648 34.9784 17.6575 35.413 18.8367 36.838ZM37.6396 29.9695H43.5516C44.8091 29.9695 45.8227 30.9831 45.8227 32.2406C45.8227 33.4982 44.8091 34.5117 43.5516 34.5117H40.2669L42.4828 38.3521C42.7562 38.8729 42.8173 39.4794 42.6533 40.0443C42.4894 40.6092 42.1132 41.0888 41.6035 41.3824C41.0938 41.6761 40.4903 41.761 39.9193 41.6195C39.3484 41.4779 38.8544 41.1209 38.5409 40.6232C34.811 34.1555 32.0055 29.3123 30.1477 26.0846C28.2435 22.8 29.6026 19.5047 30.9492 18.3914C32.4401 20.9528 34.6667 24.8146 37.6396 29.9695ZM27.6094 0C12.3565 0 0 12.3583 0 27.6094C0 42.8604 12.3583 55.2188 27.6094 55.2188C42.8622 55.2188 55.2188 42.8604 55.2188 27.6094C55.2188 12.3583 42.8604 0 27.6094 0ZM51.6562 27.6094C51.6562 40.8245 40.9581 51.6562 27.6094 51.6562C14.3943 51.6562 3.5625 40.9581 3.5625 27.6094C3.5625 14.3943 14.2607 3.5625 27.6094 3.5625C40.8245 3.5625 51.6562 14.2607 51.6562 27.6094Z" fill="#FEFEFE"/>
</svg>
