<svg width="182" height="128" viewBox="0 0 182 128" fill="none" xmlns="http://www.w3.org/2000/svg">
<path d="M166.06 0.38855H15.1075C12.325 0.38855 10.0693 2.64424 10.0693 5.42678V98.4612C10.0693 101.244 12.325 103.499 15.1075 103.499H166.06C168.842 103.499 171.098 101.244 171.098 98.4612V5.42678C171.098 2.64424 168.842 0.38855 166.06 0.38855Z" fill="white"/>
<path d="M166.053 103.859H15.1075C13.6758 103.859 12.3028 103.291 11.2905 102.278C10.2781 101.266 9.70941 99.893 9.70941 98.4613V5.3981C9.71132 3.96702 10.2807 2.5951 11.2926 1.58317C12.3045 0.571244 13.6764 0.0019043 15.1075 0H166.053C167.484 0.0019043 168.856 0.571244 169.868 1.58317C170.88 2.5951 171.449 3.96702 171.451 5.3981V98.4613C171.451 99.893 170.882 101.266 169.87 102.278C168.857 103.291 167.484 103.859 166.053 103.859ZM15.1075 0.748537C13.8673 0.750441 12.6785 1.24395 11.8015 2.12089C10.9246 2.99784 10.4311 4.1867 10.4292 5.42689V98.4613C10.4311 99.7015 10.9246 100.89 11.8015 101.767C12.6785 102.644 13.8673 103.138 15.1075 103.14H166.053C167.293 103.138 168.482 102.644 169.359 101.767C170.236 100.89 170.729 99.7015 170.731 98.4613V5.3981C170.729 4.15791 170.236 2.96906 169.359 2.09211C168.482 1.21516 167.293 0.72165 166.053 0.719747L15.1075 0.748537Z" fill="#231F20"/>
<path d="M171.091 87.5499H10.0693C9.97384 87.5499 9.88231 87.512 9.81482 87.4445C9.74733 87.3771 9.70941 87.2855 9.70941 87.1901C9.70941 87.0946 9.74733 87.0031 9.81482 86.9356C9.88231 86.8681 9.97384 86.8302 10.0693 86.8302H171.091C171.186 86.8302 171.278 86.8681 171.345 86.9356C171.413 87.0031 171.451 87.0946 171.451 87.1901C171.451 87.2855 171.413 87.3771 171.345 87.4445C171.278 87.512 171.186 87.5499 171.091 87.5499Z" fill="#231F20"/>
<path d="M111.158 123.43H70.0026L77.5887 103.5H103.572L111.158 123.43Z" fill="white"/>
<path d="M111.165 123.789H69.9954C69.938 123.788 69.8814 123.774 69.8302 123.748C69.7791 123.722 69.7346 123.684 69.7004 123.638C69.6681 123.59 69.648 123.534 69.6418 123.477C69.6355 123.419 69.6432 123.361 69.6644 123.307L77.2505 103.37C77.2776 103.302 77.3243 103.244 77.3846 103.203C77.4448 103.162 77.5159 103.14 77.5888 103.14H103.572C103.645 103.14 103.716 103.162 103.776 103.203C103.836 103.244 103.883 103.302 103.91 103.37L111.496 123.307C111.517 123.361 111.525 123.419 111.519 123.477C111.512 123.534 111.492 123.59 111.46 123.638C111.426 123.684 111.381 123.722 111.33 123.748C111.279 123.774 111.222 123.788 111.165 123.789ZM70.5209 123.069H110.64L103.327 103.859H77.8335L70.5209 123.069Z" fill="#231F20"/>
<path d="M115.987 122.264H65.166C63.8343 122.264 62.7548 123.343 62.7548 124.675V125.229C62.7548 126.561 63.8343 127.64 65.166 127.64H115.987C117.319 127.64 118.398 126.561 118.398 125.229V124.675C118.398 123.343 117.319 122.264 115.987 122.264Z" fill="white"/>
<path d="M115.987 128H65.1731C64.4375 128 63.7319 127.708 63.2111 127.189C62.6903 126.669 62.3967 125.965 62.3948 125.229V124.675C62.3967 123.939 62.6903 123.234 63.2111 122.715C63.7319 122.196 64.4375 121.904 65.1731 121.904H115.987C116.723 121.904 117.428 122.196 117.949 122.715C118.47 123.234 118.763 123.939 118.765 124.675V125.229C118.763 125.965 118.47 126.669 117.949 127.189C117.428 127.708 116.723 128 115.987 128ZM65.1731 122.624C64.6284 122.624 64.1059 122.839 63.72 123.224C63.3342 123.608 63.1165 124.13 63.1146 124.675V125.229C63.1165 125.774 63.3342 126.295 63.72 126.68C64.1059 127.064 64.6284 127.28 65.1731 127.28H115.987C116.532 127.28 117.054 127.064 117.44 126.68C117.826 126.295 118.044 125.774 118.046 125.229V124.675C118.044 124.13 117.826 123.608 117.44 123.224C117.054 122.839 116.532 122.624 115.987 122.624H65.1731Z" fill="#231F20"/>
<path d="M165.34 5.24731H15.8129V80.8783H165.34V5.24731Z" fill="#FF5C64"/>
<path d="M165.34 5.24731H15.8129V80.8783H165.34V5.24731Z" fill="#231F20"/>
<path d="M91.4438 5.24731H15.8129V80.8783H91.4438V5.24731Z" fill="#FF5C64"/>
<path d="M73.8316 112.605L104.478 106.652L103.284 103.5H77.3008L73.8316 112.605Z" fill="#231F20"/>
<path d="M73.8318 112.964C73.7795 112.964 73.7278 112.953 73.6805 112.93C73.6331 112.908 73.5914 112.875 73.5583 112.835C73.517 112.785 73.4893 112.726 73.4779 112.663C73.4665 112.6 73.4719 112.535 73.4935 112.475L76.9627 103.37C76.989 103.302 77.0355 103.243 77.0959 103.202C77.1564 103.161 77.2279 103.139 77.301 103.14H103.284C103.356 103.14 103.426 103.163 103.485 103.204C103.544 103.245 103.589 103.303 103.615 103.37L104.817 106.522C104.836 106.571 104.844 106.624 104.84 106.676C104.836 106.729 104.821 106.78 104.796 106.825C104.771 106.871 104.736 106.911 104.693 106.942C104.651 106.973 104.602 106.994 104.551 107.005L73.9038 112.957L73.8318 112.964ZM77.5457 103.859L74.4004 112.129L103.989 106.371L103.032 103.852L77.5457 103.859Z" fill="#231F20"/>
<path d="M106.415 16.2808H97.3026C97.2071 16.2808 97.1156 16.2429 97.0481 16.1754C96.9806 16.1079 96.9427 16.0164 96.9427 15.9209C96.9427 15.8255 96.9806 15.7339 97.0481 15.6664C97.1156 15.599 97.2071 15.561 97.3026 15.561H106.415C106.51 15.561 106.602 15.599 106.669 15.6664C106.737 15.7339 106.774 15.8255 106.774 15.9209C106.774 16.0164 106.737 16.1079 106.669 16.1754C106.602 16.2429 106.51 16.2808 106.415 16.2808Z" fill="#FF5C64"/>
<path d="M129.266 16.2808H111.157C111.062 16.2808 110.97 16.2429 110.903 16.1754C110.835 16.1079 110.797 16.0164 110.797 15.9209C110.797 15.8255 110.835 15.7339 110.903 15.6664C110.97 15.599 111.062 15.561 111.157 15.561H129.266C129.362 15.561 129.453 15.599 129.521 15.6664C129.588 15.7339 129.626 15.8255 129.626 15.9209C129.626 16.0164 129.588 16.1079 129.521 16.1754C129.453 16.2429 129.362 16.2808 129.266 16.2808Z" fill="white"/>
<path d="M134.715 23.2914H116.606C116.511 23.2914 116.419 23.2535 116.352 23.186C116.284 23.1185 116.246 23.027 116.246 22.9315C116.246 22.8361 116.284 22.7445 116.352 22.6771C116.419 22.6096 116.511 22.5717 116.606 22.5717H134.715C134.81 22.5717 134.902 22.6096 134.97 22.6771C135.037 22.7445 135.075 22.8361 135.075 22.9315C135.075 23.027 135.037 23.1185 134.97 23.186C134.902 23.2535 134.81 23.2914 134.715 23.2914Z" fill="white"/>
<path d="M108.509 23.2914H99.4331C99.3377 23.2914 99.2461 23.2535 99.1786 23.186C99.1112 23.1185 99.0732 23.027 99.0732 22.9315C99.0732 22.8361 99.1112 22.7445 99.1786 22.6771C99.2461 22.6096 99.3377 22.5717 99.4331 22.5717H108.509C108.605 22.5717 108.696 22.6096 108.764 22.6771C108.831 22.7445 108.869 22.8361 108.869 22.9315C108.869 23.027 108.831 23.1185 108.764 23.186C108.696 23.2535 108.605 23.2914 108.509 23.2914Z" fill="#FF5C64"/>
<path d="M108.855 30.3014H101.563C101.468 30.3014 101.377 30.2635 101.309 30.196C101.242 30.1285 101.204 30.037 101.204 29.9415C101.204 29.8461 101.242 29.7546 101.309 29.6871C101.377 29.6196 101.468 29.5817 101.563 29.5817H108.855C108.949 29.5835 109.04 29.622 109.107 29.6891C109.174 29.7562 109.213 29.8467 109.214 29.9415C109.214 30.037 109.176 30.1285 109.109 30.196C109.042 30.2635 108.95 30.3014 108.855 30.3014Z" fill="#FF5C64"/>
<path d="M137.954 30.3014H115.289C115.194 30.3014 115.102 30.2635 115.035 30.196C114.967 30.1285 114.929 30.037 114.929 29.9415C114.929 29.8461 114.967 29.7546 115.035 29.6871C115.102 29.6196 115.194 29.5817 115.289 29.5817H137.954C138.049 29.5817 138.141 29.6196 138.208 29.6871C138.276 29.7546 138.314 29.8461 138.314 29.9415C138.314 30.037 138.276 30.1285 138.208 30.196C138.141 30.2635 138.049 30.3014 137.954 30.3014Z" fill="white"/>
<path d="M112.77 37.3191H103.694C103.598 37.3191 103.507 37.2812 103.439 37.2137C103.372 37.1462 103.334 37.0547 103.334 36.9592C103.334 36.8638 103.372 36.7723 103.439 36.7048C103.507 36.6373 103.598 36.5994 103.694 36.5994H112.77C112.865 36.5994 112.957 36.6373 113.024 36.7048C113.092 36.7723 113.13 36.8638 113.13 36.9592C113.128 37.0541 113.089 37.1446 113.022 37.2117C112.955 37.2788 112.865 37.3173 112.77 37.3191Z" fill="#FF5C64"/>
<path d="M142.639 37.3191H115.692C115.596 37.3191 115.505 37.2812 115.437 37.2137C115.37 37.1462 115.332 37.0547 115.332 36.9592C115.332 36.8638 115.37 36.7723 115.437 36.7048C115.505 36.6373 115.596 36.5994 115.692 36.5994H142.639C142.735 36.5994 142.826 36.6373 142.894 36.7048C142.961 36.7723 142.999 36.8638 142.999 36.9592C142.999 37.0547 142.961 37.1462 142.894 37.2137C142.826 37.2812 142.735 37.3191 142.639 37.3191Z" fill="white"/>
<path d="M110.359 44.329H101.283C101.187 44.329 101.096 44.2911 101.028 44.2236C100.961 44.1561 100.923 44.0646 100.923 43.9691C100.923 43.8737 100.961 43.7822 101.028 43.7147C101.096 43.6472 101.187 43.6093 101.283 43.6093H110.359C110.454 43.6093 110.546 43.6472 110.613 43.7147C110.681 43.7822 110.719 43.8737 110.719 43.9691C110.719 44.0646 110.681 44.1561 110.613 44.2236C110.546 44.2911 110.454 44.329 110.359 44.329Z" fill="#FF5C64"/>
<path d="M128.453 44.329H113.835C113.74 44.329 113.648 44.2911 113.581 44.2236C113.513 44.1561 113.475 44.0646 113.475 43.9691C113.475 43.8737 113.513 43.7822 113.581 43.7147C113.648 43.6472 113.74 43.6093 113.835 43.6093H128.453C128.549 43.6093 128.64 43.6472 128.708 43.7147C128.775 43.7822 128.813 43.8737 128.813 43.9691C128.813 44.0646 128.775 44.1561 128.708 44.2236C128.64 44.2911 128.549 44.329 128.453 44.329Z" fill="white"/>
<path d="M148.649 44.329H134.031C133.936 44.329 133.844 44.2911 133.777 44.2236C133.709 44.1561 133.671 44.0646 133.671 43.9691C133.671 43.8737 133.709 43.7822 133.777 43.7147C133.844 43.6472 133.936 43.6093 134.031 43.6093H148.649C148.745 43.6093 148.836 43.6472 148.904 43.7147C148.971 43.7822 149.009 43.8737 149.009 43.9691C149.009 44.0646 148.971 44.1561 148.904 44.2236C148.836 44.2911 148.745 44.329 148.649 44.329Z" fill="#FF5C64"/>
<path d="M104.414 51.3394H101.283C101.187 51.3394 101.096 51.3015 101.028 51.234C100.961 51.1665 100.923 51.0749 100.923 50.9795C100.925 50.8846 100.963 50.7942 101.03 50.7271C101.097 50.66 101.188 50.6215 101.283 50.6196H104.414C104.508 50.6215 104.599 50.66 104.666 50.7271C104.733 50.7942 104.772 50.8846 104.774 50.9795C104.774 51.0749 104.736 51.1665 104.668 51.234C104.601 51.3015 104.509 51.3394 104.414 51.3394Z" fill="#FF5C64"/>
<path d="M128.453 51.3394H109.74C109.644 51.3394 109.553 51.3015 109.485 51.234C109.418 51.1665 109.38 51.0749 109.38 50.9795C109.382 50.8846 109.42 50.7942 109.487 50.7271C109.554 50.66 109.645 50.6215 109.74 50.6196H128.453C128.548 50.6215 128.639 50.66 128.706 50.7271C128.773 50.7942 128.811 50.8846 128.813 50.9795C128.813 51.0749 128.775 51.1665 128.708 51.234C128.64 51.3015 128.549 51.3394 128.453 51.3394Z" fill="white"/>
<path d="M135.823 51.3394H130.605C130.51 51.3394 130.418 51.3015 130.351 51.234C130.283 51.1665 130.245 51.0749 130.245 50.9795C130.245 50.8841 130.283 50.7925 130.351 50.725C130.418 50.6575 130.51 50.6196 130.605 50.6196H135.823C135.919 50.6196 136.01 50.6575 136.078 50.725C136.145 50.7925 136.183 50.8841 136.183 50.9795C136.183 51.0749 136.145 51.1665 136.078 51.234C136.01 51.3015 135.919 51.3394 135.823 51.3394Z" fill="#FF5C64"/>
<path d="M106.199 58.3568H101.283C101.188 58.355 101.097 58.3165 101.03 58.2494C100.963 58.1823 100.925 58.0918 100.923 57.997C100.923 57.9015 100.961 57.81 101.028 57.7425C101.096 57.675 101.187 57.6371 101.283 57.6371H106.199C106.294 57.6371 106.386 57.675 106.453 57.7425C106.521 57.81 106.558 57.9015 106.558 57.997C106.557 58.0918 106.518 58.1823 106.451 58.2494C106.384 58.3165 106.293 58.355 106.199 58.3568Z" fill="#FF5C64"/>
<path d="M133.045 58.3568H110.819C110.724 58.355 110.634 58.3165 110.567 58.2494C110.5 58.1823 110.461 58.0918 110.459 57.997C110.459 57.9015 110.497 57.81 110.565 57.7425C110.632 57.675 110.724 57.6371 110.819 57.6371H133.045C133.141 57.6371 133.232 57.675 133.3 57.7425C133.367 57.81 133.405 57.9015 133.405 57.997C133.405 58.0924 133.367 58.1839 133.3 58.2514C133.232 58.3189 133.141 58.3568 133.045 58.3568Z" fill="white"/>
<path d="M144.302 58.3568H135.204C135.109 58.3568 135.017 58.3189 134.95 58.2514C134.882 58.1839 134.844 58.0924 134.844 57.997C134.844 57.9015 134.882 57.81 134.95 57.7425C135.017 57.675 135.109 57.6371 135.204 57.6371H144.28C144.376 57.6371 144.467 57.675 144.535 57.7425C144.602 57.81 144.64 57.9015 144.64 57.997C144.64 58.0888 144.605 58.1772 144.543 58.2441C144.48 58.311 144.394 58.3513 144.302 58.3568Z" fill="#FF5C64"/>
<path d="M103.967 65.3677H99.1524C99.0569 65.3677 98.9654 65.3298 98.8979 65.2623C98.8304 65.1948 98.7925 65.1033 98.7925 65.0078C98.7925 64.9124 98.8304 64.8208 98.8979 64.7533C98.9654 64.6859 99.0569 64.6479 99.1524 64.6479H103.967C104.063 64.6479 104.154 64.6859 104.222 64.7533C104.289 64.8208 104.327 64.9124 104.327 65.0078C104.327 65.1033 104.289 65.1948 104.222 65.2623C104.154 65.3298 104.063 65.3677 103.967 65.3677Z" fill="#FF5C64"/>
<path d="M130.605 65.3677H109.574C109.479 65.3677 109.387 65.3298 109.32 65.2623C109.252 65.1948 109.214 65.1033 109.214 65.0078C109.214 64.9124 109.252 64.8208 109.32 64.7533C109.387 64.6859 109.479 64.6479 109.574 64.6479H130.605C130.701 64.6479 130.792 64.6859 130.86 64.7533C130.927 64.8208 130.965 64.9124 130.965 65.0078C130.965 65.1033 130.927 65.1948 130.86 65.2623C130.792 65.3298 130.701 65.3677 130.605 65.3677Z" fill="white"/>
<path d="M108.228 72.3777H99.1524C99.0569 72.3777 98.9654 72.3398 98.8979 72.2723C98.8304 72.2048 98.7925 72.1133 98.7925 72.0178C98.7943 71.923 98.8328 71.8325 98.8999 71.7654C98.967 71.6983 99.0575 71.6598 99.1524 71.658H108.228C108.324 71.658 108.415 71.6959 108.483 71.7634C108.55 71.8309 108.588 71.9224 108.588 72.0178C108.588 72.1133 108.55 72.2048 108.483 72.2723C108.415 72.3398 108.324 72.3777 108.228 72.3777Z" fill="#FF5C64"/>
<path d="M158.575 37.3191H146.303C146.208 37.3173 146.118 37.2788 146.05 37.2117C145.983 37.1446 145.945 37.0541 145.943 36.9592C145.943 36.8638 145.981 36.7723 146.048 36.7048C146.116 36.6373 146.207 36.5994 146.303 36.5994H158.575C158.67 36.5994 158.762 36.6373 158.829 36.7048C158.897 36.7723 158.934 36.8638 158.934 36.9592C158.934 37.0547 158.897 37.1462 158.829 37.2137C158.762 37.2812 158.67 37.3191 158.575 37.3191Z" fill="#FF5C64"/>
<path d="M140.243 16.3166C136.14 16.3166 134.017 16.3166 133.909 16.2663C133.813 16.2443 133.731 16.1853 133.679 16.1023C133.627 16.0193 133.61 15.9191 133.632 15.8236C133.654 15.7282 133.713 15.6454 133.796 15.5934C133.879 15.5414 133.979 15.5246 134.074 15.5465C134.751 15.6041 149.067 15.5465 154.544 15.5465C154.639 15.5465 154.731 15.5844 154.798 15.6519C154.866 15.7194 154.904 15.8109 154.904 15.9064C154.904 16.0018 154.866 16.0934 154.798 16.1608C154.731 16.2283 154.639 16.2663 154.544 16.2663C148.448 16.3022 143.669 16.3166 140.243 16.3166Z" fill="#FF5C64"/>
<path d="M142.215 65.3677H133.045C132.95 65.3677 132.858 65.3298 132.791 65.2623C132.723 65.1948 132.685 65.1033 132.685 65.0078C132.685 64.9124 132.723 64.8208 132.791 64.7533C132.858 64.6859 132.95 64.6479 133.045 64.6479H142.229C142.324 64.6479 142.416 64.6859 142.483 64.7533C142.551 64.8208 142.589 64.9124 142.589 65.0078C142.589 65.1033 142.551 65.1948 142.483 65.2623C142.416 65.3298 142.324 65.3677 142.229 65.3677H142.215Z" fill="#FF5C64"/>
<path d="M121.141 72.3777H114.389C114.294 72.3777 114.202 72.3398 114.135 72.2723C114.067 72.2048 114.03 72.1133 114.03 72.0178C114.031 71.923 114.07 71.8325 114.137 71.7654C114.204 71.6983 114.295 71.6598 114.389 71.658H121.141C121.236 71.658 121.328 71.6959 121.395 71.7634C121.463 71.8309 121.501 71.9224 121.501 72.0178C121.501 72.1133 121.463 72.2048 121.395 72.2723C121.328 72.3398 121.236 72.3777 121.141 72.3777Z" fill="white"/>
<path d="M139.76 72.3777H123.688C123.593 72.3777 123.502 72.3398 123.434 72.2723C123.367 72.2048 123.329 72.1133 123.329 72.0178C123.33 71.923 123.369 71.8325 123.436 71.7654C123.503 71.6983 123.594 71.6598 123.688 71.658H139.739C139.834 71.658 139.926 71.6959 139.993 71.7634C140.061 71.8309 140.099 71.9224 140.099 72.0178C140.099 72.1097 140.064 72.1981 140.001 72.265C139.938 72.3319 139.852 72.3722 139.76 72.3777Z" fill="#FF5C64"/>
<path d="M112.64 13.2434H15.8128C15.7179 13.2416 15.6274 13.2031 15.5603 13.136C15.4932 13.0689 15.4547 12.9784 15.4529 12.8836C15.4529 12.7881 15.4908 12.6966 15.5583 12.6291C15.6258 12.5616 15.7173 12.5237 15.8128 12.5237H112.64C112.736 12.5237 112.827 12.5616 112.895 12.6291C112.962 12.6966 113 12.7881 113 12.8836C113 12.979 112.962 13.0705 112.895 13.138C112.827 13.2055 112.736 13.2434 112.64 13.2434Z" fill="#231F20"/>
<path d="M22.053 10.6522C22.9474 10.6522 23.6725 9.92715 23.6725 9.03276C23.6725 8.13837 22.9474 7.41333 22.053 7.41333C21.1586 7.41333 20.4336 8.13837 20.4336 9.03276C20.4336 9.92715 21.1586 10.6522 22.053 10.6522Z" fill="white"/>
<path d="M28.2718 10.6522C29.1662 10.6522 29.8912 9.92715 29.8912 9.03276C29.8912 8.13837 29.1662 7.41333 28.2718 7.41333C27.3774 7.41333 26.6523 8.13837 26.6523 9.03276C26.6523 9.92715 27.3774 10.6522 28.2718 10.6522Z" fill="white"/>
<path d="M34.483 10.6522C35.3774 10.6522 36.1024 9.92715 36.1024 9.03276C36.1024 8.13837 35.3774 7.41333 34.483 7.41333C33.5886 7.41333 32.8636 8.13837 32.8636 9.03276C32.8636 9.92715 33.5886 10.6522 34.483 10.6522Z" fill="white"/>
<path d="M84.5631 17.5116H22.4777V43.0626H84.5631V17.5116Z" fill="white"/>
<path d="M22.4777 43.4225C22.4082 43.4231 22.3401 43.4036 22.2815 43.3663C22.2228 43.329 22.1763 43.2756 22.1473 43.2124C22.1184 43.1493 22.1084 43.0791 22.1185 43.0103C22.1286 42.9416 22.1584 42.8773 22.2042 42.8251L44.8906 22.4635C44.956 22.4022 45.0422 22.3682 45.1317 22.3682C45.2213 22.3682 45.3075 22.4022 45.3729 22.4635L64.4461 40.0397C64.5125 40.1082 64.5497 40.1998 64.5497 40.2952C64.5497 40.3906 64.5125 40.4822 64.4461 40.5507C64.4127 40.5844 64.3729 40.6112 64.329 40.6295C64.2852 40.6477 64.2381 40.6571 64.1906 40.6571C64.1431 40.6571 64.0961 40.6477 64.0522 40.6295C64.0084 40.6112 63.9686 40.5844 63.9351 40.5507L45.1569 23.1904L22.7152 43.3433C22.6495 43.3998 22.5642 43.4282 22.4777 43.4225Z" fill="#FF5C64"/>
<path d="M60.7248 37.4126C60.6758 37.4138 60.6271 37.4041 60.5823 37.3842C60.5375 37.3643 60.4977 37.3347 60.4657 37.2975C60.4322 37.2646 60.4056 37.2255 60.3874 37.1822C60.3692 37.1389 60.3599 37.0925 60.3599 37.0456C60.3599 36.9987 60.3692 36.9522 60.3874 36.9089C60.4056 36.8657 60.4322 36.8265 60.4657 36.7937L72.6582 25.4361C72.7252 25.3723 72.8141 25.3367 72.9065 25.3367C72.999 25.3367 73.0879 25.3723 73.1548 25.4361L84.8219 36.7937C84.8883 36.8622 84.9255 36.9538 84.9255 37.0492C84.9255 37.1446 84.8883 37.2362 84.8219 37.3047C84.7885 37.3384 84.7487 37.3652 84.7048 37.3835C84.661 37.4017 84.6139 37.4111 84.5664 37.4111C84.5189 37.4111 84.4719 37.4017 84.428 37.3835C84.3842 37.3652 84.3444 37.3384 84.3109 37.3047L72.9173 26.1918L60.9695 37.3191C60.9034 37.3812 60.8155 37.4148 60.7248 37.4126Z" fill="#FF5C64"/>
<path d="M61.891 28.4806C61.267 28.561 60.6333 28.4494 60.0743 28.1606C59.5154 27.8717 59.0577 27.4194 58.7624 26.8639C58.467 26.3083 58.348 25.6759 58.4212 25.051C58.4944 24.4261 58.7563 23.8384 59.1721 23.3661C59.5878 22.8939 60.1376 22.5595 60.7481 22.4077C61.3587 22.2558 62.0011 22.2936 62.5896 22.5161C63.1781 22.7386 63.6848 23.1352 64.0422 23.653C64.3996 24.1708 64.5907 24.7853 64.59 25.4144C64.6154 25.7933 64.5656 26.1734 64.4435 26.5328C64.3213 26.8923 64.1293 27.2241 63.8785 27.5091C63.6276 27.7941 63.3229 28.0266 62.9818 28.1933C62.6407 28.3601 62.27 28.4577 61.891 28.4806ZM61.891 23.0609C61.4098 22.9783 60.9149 23.0455 60.4732 23.2535C60.0315 23.4614 59.6643 23.8 59.4214 24.2235C59.1785 24.647 59.0715 25.1349 59.115 25.6212C59.1585 26.1074 59.3504 26.5686 59.6646 26.9423C59.9789 27.3159 60.4003 27.584 60.8719 27.7102C61.3435 27.8365 61.8425 27.8148 62.3014 27.6481C62.7602 27.4814 63.1568 27.1777 63.4374 26.7782C63.718 26.3787 63.8691 25.9026 63.8703 25.4144C63.9144 24.8411 63.7317 24.2733 63.3616 23.8332C62.9915 23.393 62.4634 23.1157 61.891 23.0609Z" fill="#FF5C64"/>
<path d="M84.1026 48.367H22.4779C22.3824 48.367 22.2909 48.3291 22.2234 48.2616C22.1559 48.1941 22.118 48.1025 22.118 48.0071C22.118 47.9116 22.1559 47.8201 22.2234 47.7526C22.2909 47.6851 22.3824 47.6472 22.4779 47.6472H84.1026C84.198 47.6472 84.2895 47.6851 84.357 47.7526C84.4245 47.8201 84.4624 47.9116 84.4624 48.0071C84.4624 48.1025 84.4245 48.1941 84.357 48.2616C84.2895 48.3291 84.198 48.367 84.1026 48.367Z" fill="white"/>
<path d="M84.1026 53.405H22.4779C22.3824 53.405 22.2909 53.3671 22.2234 53.2997C22.1559 53.2322 22.118 53.1406 22.118 53.0452C22.118 52.9497 22.1559 52.8582 22.2234 52.7907C22.2909 52.7232 22.3824 52.6853 22.4779 52.6853H84.1026C84.198 52.6853 84.2895 52.7232 84.357 52.7907C84.4245 52.8582 84.4624 52.9497 84.4624 53.0452C84.4606 53.14 84.4221 53.2305 84.355 53.2976C84.2879 53.3647 84.1974 53.4032 84.1026 53.405Z" fill="white"/>
<path d="M75.5592 58.4363H22.4779C22.3824 58.4363 22.2909 58.3984 22.2234 58.3309C22.1559 58.2634 22.118 58.1719 22.118 58.0764C22.118 57.981 22.1559 57.8894 22.2234 57.822C22.2909 57.7545 22.3824 57.7166 22.4779 57.7166H75.5592C75.654 57.7184 75.7445 57.7569 75.8116 57.824C75.8787 57.8911 75.9172 57.9816 75.919 58.0764C75.919 58.1719 75.8811 58.2634 75.8136 58.3309C75.7462 58.3984 75.6546 58.4363 75.5592 58.4363Z" fill="white"/>
<path d="M40.0541 74.7456H22.4779C22.3824 74.7456 22.2909 74.7077 22.2234 74.6402C22.1559 74.5727 22.118 74.4812 22.118 74.3857V62.15C22.118 62.0546 22.1559 61.963 22.2234 61.8956C22.2909 61.8281 22.3824 61.7902 22.4779 61.7902H40.0541C40.1489 61.792 40.2394 61.8305 40.3065 61.8976C40.3736 61.9647 40.4121 62.0552 40.4139 62.15V74.3857C40.4121 74.4806 40.3736 74.5711 40.3065 74.6381C40.2394 74.7052 40.1489 74.7438 40.0541 74.7456ZM22.8377 74.0259H39.6942V62.5099H22.8377V74.0259Z" fill="white"/>
<path d="M62.0854 74.7456H44.5164C44.4215 74.7438 44.331 74.7052 44.2639 74.6381C44.1968 74.5711 44.1583 74.4806 44.1565 74.3857V62.15C44.1583 62.0552 44.1968 61.9647 44.2639 61.8976C44.331 61.8305 44.4215 61.792 44.5164 61.7902H62.0926C62.188 61.7902 62.2796 61.8281 62.3471 61.8956C62.4145 61.963 62.4525 62.0546 62.4525 62.15V74.3857C62.4525 74.4336 62.4429 74.481 62.4244 74.5251C62.4059 74.5693 62.3787 74.6093 62.3445 74.6428C62.3103 74.6763 62.2698 74.7026 62.2253 74.7203C62.1808 74.738 62.1332 74.7466 62.0854 74.7456ZM44.869 74.0259H61.7255V62.5099H44.869V74.0259Z" fill="white"/>
<path d="M84.1022 74.7456H66.5476C66.4522 74.7456 66.3606 74.7077 66.2931 74.6402C66.2257 74.5727 66.1877 74.4812 66.1877 74.3857V62.15C66.1877 62.0546 66.2257 61.963 66.2931 61.8956C66.3606 61.8281 66.4522 61.7902 66.5476 61.7902H84.1022C84.1971 61.792 84.2876 61.8305 84.3547 61.8976C84.4218 61.9647 84.4603 62.0552 84.4621 62.15V74.3857C84.4603 74.4806 84.4218 74.5711 84.3547 74.6381C84.2876 74.7052 84.1971 74.7438 84.1022 74.7456ZM66.8859 74.0259H83.7424V62.5099H66.9075L66.8859 74.0259Z" fill="white"/>
<path d="M180.8 128H0.359873C0.264429 128 0.172894 127.962 0.105404 127.895C0.0379148 127.827 0 127.736 0 127.64C0 127.545 0.0379148 127.453 0.105404 127.386C0.172894 127.318 0.264429 127.28 0.359873 127.28H180.8C180.896 127.28 180.987 127.318 181.055 127.386C181.122 127.453 181.16 127.545 181.16 127.64C181.16 127.736 181.122 127.827 181.055 127.895C180.987 127.962 180.896 128 180.8 128Z" fill="#D1D3D4"/>
<path d="M177.051 56.9821H113.115V96.4889H177.051V56.9821Z" fill="white"/>
<path d="M177.05 96.8566H113.115C113.02 96.8548 112.93 96.8163 112.863 96.7492C112.796 96.6821 112.757 96.5916 112.755 96.4968V56.9827C112.757 56.8878 112.796 56.7973 112.863 56.7302C112.93 56.6632 113.02 56.6246 113.115 56.6228H177.05C177.145 56.6246 177.236 56.6632 177.303 56.7302C177.37 56.7973 177.408 56.8878 177.41 56.9827V96.4968C177.408 96.5916 177.37 96.6821 177.303 96.7492C177.236 96.8163 177.145 96.8548 177.05 96.8566ZM113.475 96.1369H176.691V57.3425H113.475V96.1369Z" fill="#D1D3D4"/>
<path d="M177.051 64.2735H113.526C113.43 64.2735 113.339 64.2355 113.271 64.168C113.204 64.1006 113.166 64.009 113.166 63.9136C113.166 63.8181 113.204 63.7266 113.271 63.6591C113.339 63.5916 113.43 63.5537 113.526 63.5537H177.051C177.146 63.5537 177.238 63.5916 177.305 63.6591C177.373 63.7266 177.41 63.8181 177.41 63.9136C177.41 64.009 177.373 64.1006 177.305 64.168C177.238 64.2355 177.146 64.2735 177.051 64.2735Z" fill="#D1D3D4"/>
<path d="M122.58 77.5676V75.9337L128.129 72.0399L129.216 74.1056L125.25 76.7759L129.216 79.4461L128.129 81.519L122.58 77.5676Z" fill="#FF5C64"/>
<path d="M130.166 76.7395C130.166 73.0904 132.39 70.5353 135.507 70.5353C136.664 70.5201 137.787 70.9266 138.667 71.6789C139.546 72.4312 140.122 73.4779 140.286 74.6235L137.932 75.3432C137.601 73.9469 136.759 73.1264 135.507 73.1264C133.822 73.1264 132.707 74.5659 132.707 76.7251C132.707 78.8844 133.822 80.3239 135.507 80.3239C136.773 80.3239 137.666 79.4602 137.983 77.8695L140.372 78.5533C139.926 81.3315 137.983 82.9438 135.507 82.9438C132.383 82.9438 130.166 80.3887 130.166 76.7395Z" fill="#FF5C64"/>
<path d="M140.739 78.6755L143.15 78.1717C143.467 79.8127 144.28 80.5037 145.835 80.5037C147.016 80.5037 147.714 80.0862 147.714 79.3593C147.714 78.6324 147.217 78.3013 144.777 77.6679C142.337 77.0345 141.085 75.9477 141.085 74.1195C141.085 72.0323 142.733 70.5568 145.259 70.5568C146.34 70.4982 147.405 70.8292 148.263 71.4896C149.12 72.1499 149.712 73.0959 149.93 74.1555L147.527 74.7817C147.427 74.2612 147.142 73.7941 146.726 73.4662C146.309 73.1384 145.789 72.9717 145.259 72.9967C144.266 72.9967 143.618 73.4358 143.618 74.0908C143.618 74.6306 144.093 74.8969 146.404 75.5303C148.944 76.25 150.254 77.3152 150.254 79.3305C150.254 81.5473 148.513 82.9796 145.821 82.9796C142.949 82.9436 141.106 81.3962 140.739 78.6755Z" fill="#FF5C64"/>
<path d="M150.629 78.6758L153.04 78.172C153.356 79.813 154.17 80.504 155.724 80.504C156.912 80.504 157.61 80.0865 157.61 79.3596C157.61 78.6326 157.106 78.3015 154.666 77.6682C152.226 77.0348 150.974 75.948 150.974 74.1198C150.974 72.0325 152.63 70.5571 155.156 70.5571C156.236 70.4973 157.301 70.8279 158.157 71.4886C159.014 72.1494 159.604 73.096 159.82 74.1558L157.423 74.782C157.322 74.2621 157.037 73.7959 156.621 73.4683C156.205 73.1407 155.685 72.9734 155.156 72.997C154.155 72.997 153.515 73.4361 153.515 74.091C153.515 74.6308 153.983 74.8971 156.293 75.5305C158.834 76.2503 160.151 77.3155 160.151 79.3308C160.151 81.5476 158.409 82.9799 155.71 82.9799C152.845 82.9439 151.039 81.3965 150.629 78.6758Z" fill="#FF5C64"/>
<path d="M160.95 79.4099L164.916 76.7396L160.95 74.0693L162.037 72.0037L167.593 75.9335V77.6033L162.044 81.5187L160.95 79.4099Z" fill="#FF5C64"/>
<path d="M28.2357 37.2904H4.23218V58.7173H28.2357V37.2904Z" fill="white"/>
<path d="M28.2355 59.0842H4.2104C4.11495 59.0842 4.02342 59.0463 3.95593 58.9788C3.88844 58.9113 3.85052 58.8198 3.85052 58.7243V37.2903C3.85052 37.1948 3.88844 37.1033 3.95593 37.0358C4.02342 36.9683 4.11495 36.9304 4.2104 36.9304H28.2139C28.3088 36.9323 28.3993 36.9708 28.4664 37.0379C28.5335 37.105 28.572 37.1954 28.5738 37.2903V58.7243C28.5723 58.8157 28.5368 58.9031 28.4743 58.9697C28.4117 59.0362 28.3266 59.0771 28.2355 59.0842ZM4.59186 58.3645H27.8757V37.6502H4.59186V58.3645Z" fill="#D1D3D4"/>
<path d="M28.2355 40.5362H4.2104C4.11495 40.5362 4.02342 40.4982 3.95593 40.4307C3.88844 40.3633 3.85052 40.2717 3.85052 40.1763C3.85052 40.0808 3.88844 39.9893 3.95593 39.9218C4.02342 39.8543 4.11495 39.8164 4.2104 39.8164H28.2139C28.3094 39.8164 28.4009 39.8543 28.4684 39.9218C28.5359 39.9893 28.5738 40.0808 28.5738 40.1763C28.5723 40.2676 28.5368 40.3551 28.4743 40.4216C28.4117 40.4882 28.3266 40.529 28.2355 40.5362Z" fill="#D1D3D4"/>
<path d="M7.62933 49.461V48.5397L11.9046 45.9702L12.6244 47.1362L9.41431 49.0003L12.6244 50.8789L11.9046 52.0377L7.62933 49.461Z" fill="#FF5C64"/>
<path d="M13.2217 53.024L18.2599 44.3871L19.2172 44.9917L14.1789 53.6286L13.2217 53.024Z" fill="#FF5C64"/>
<path d="M19.8291 50.8791L23.0392 49.0006L19.8291 47.1437L20.5488 45.9777L24.8241 48.5472V49.4684L20.5488 52.0451L19.8291 50.8791Z" fill="#FF5C64"/>
</svg>
