<svg width="41" height="31" viewBox="0 0 41 31" fill="none" xmlns="http://www.w3.org/2000/svg">
<path d="M3.6399 28.3277C1.27155 25.8481 0 23.067 0 18.5587C0 10.6257 5.64954 3.51546 13.8652 0L15.9185 3.12335C8.25013 7.21225 6.75094 12.5183 6.1531 15.8638C7.38786 15.2337 9.00432 15.0138 10.5886 15.1589C14.7366 15.5374 18.0063 18.8942 18.0063 23.067C18.0063 25.1709 17.1584 27.1887 15.6492 28.6765C14.1399 30.1642 12.093 31 9.95856 31C8.77819 30.9898 7.61167 30.7483 6.52689 30.2896C5.44211 29.8308 4.46074 29.1639 3.6399 28.3277ZM26.6336 28.3277C24.2652 25.8481 22.9937 23.067 22.9937 18.5587C22.9937 10.6257 28.6432 3.51546 36.8588 0L38.9122 3.12335C31.2438 7.21225 29.7446 12.5183 29.1468 15.8638C30.3815 15.2337 31.998 15.0138 33.5822 15.1589C37.7303 15.5374 41 18.8942 41 23.067C41 25.1709 40.1521 27.1887 38.6429 28.6765C37.1336 30.1642 35.0866 31 32.9522 31C31.7719 30.9898 30.6053 30.7483 29.5206 30.2896C28.4358 29.8308 27.4544 29.1639 26.6336 28.3277Z" fill="#FEFEFE"/>
</svg>
