<svg width="145" height="128" viewBox="0 0 145 128" fill="none" xmlns="http://www.w3.org/2000/svg">
<path d="M144.719 115.618H0.280725C0.206272 115.618 0.134868 115.589 0.0822222 115.536C0.0295761 115.483 0 115.412 0 115.338C0 115.263 0.0295761 115.192 0.0822222 115.139C0.134868 115.086 0.206272 115.057 0.280725 115.057H144.719C144.794 115.057 144.865 115.086 144.918 115.139C144.97 115.192 145 115.263 145 115.338C145 115.412 144.97 115.483 144.918 115.536C144.865 115.589 144.794 115.618 144.719 115.618Z" fill="#D1D3D4"/>
<path d="M132.626 66.3792H100.382V121.738H132.626V66.3792Z" fill="white"/>
<path d="M132.626 122.019H100.382C100.307 122.019 100.236 121.989 100.183 121.937C100.13 121.884 100.101 121.813 100.101 121.738V66.3792C100.101 66.3048 100.13 66.2334 100.183 66.1807C100.236 66.1281 100.307 66.0985 100.382 66.0985H132.626C132.7 66.0985 132.772 66.1281 132.824 66.1807C132.877 66.2334 132.906 66.3048 132.906 66.3792V121.727C132.908 121.765 132.902 121.802 132.888 121.838C132.875 121.873 132.854 121.905 132.828 121.933C132.802 121.96 132.771 121.982 132.736 121.997C132.701 122.011 132.663 122.019 132.626 122.019ZM100.662 121.457H132.345V66.66H100.662V121.457Z" fill="#231F20"/>
<path d="M43.7931 66.3792H11.5491V121.738H43.7931V66.3792Z" fill="white"/>
<path d="M43.793 122.019H11.549C11.4745 122.019 11.4031 121.989 11.3505 121.937C11.2978 121.884 11.2682 121.813 11.2682 121.738V66.3792C11.2682 66.3048 11.2978 66.2334 11.3505 66.1807C11.4031 66.1281 11.4745 66.0985 11.549 66.0985H43.793C43.8675 66.0985 43.9389 66.1281 43.9915 66.1807C44.0442 66.2334 44.0737 66.3048 44.0737 66.3792V121.727C44.0753 121.765 44.0691 121.802 44.0557 121.838C44.0423 121.873 44.0218 121.905 43.9956 121.933C43.9694 121.96 43.9379 121.982 43.9031 121.997C43.8683 122.011 43.8309 122.019 43.793 122.019ZM11.8297 121.457H43.5123V66.66H11.8297V121.457Z" fill="#231F20"/>
<path d="M106.384 50.3274L112.767 63.1453H95.5027L106.384 50.3274Z" fill="#231F20"/>
<path d="M112.767 63.4259H95.5193C95.4653 63.4259 95.4124 63.4106 95.3667 63.3818C95.321 63.353 95.2844 63.3118 95.2611 63.2631C95.2388 63.2145 95.2313 63.1605 95.2392 63.1076C95.2472 63.0548 95.2704 63.0054 95.306 62.9655L106.187 50.1476C106.216 50.1114 106.254 50.0834 106.298 50.0667C106.341 50.0499 106.388 50.0449 106.434 50.0522C106.48 50.0574 106.524 50.0739 106.563 50.1004C106.601 50.1268 106.632 50.1624 106.653 50.2038L113.031 63.0217C113.055 63.0627 113.067 63.1091 113.067 63.1564C113.067 63.2037 113.055 63.2502 113.031 63.2912C113.004 63.3365 112.965 63.3732 112.919 63.3971C112.872 63.421 112.819 63.431 112.767 63.4259ZM96.1089 62.8645H112.312L106.322 50.8382L96.1089 62.8645Z" fill="#231F20"/>
<path d="M57.3519 63.1452H98.4557L113.368 41.2936H74.566L57.3519 63.1452Z" fill="#231F20"/>
<path d="M98.4558 63.426H57.3409C57.2883 63.4258 57.2368 63.4107 57.1923 63.3826C57.1478 63.3545 57.1121 63.3145 57.0892 63.2671C57.0664 63.2197 57.0574 63.1668 57.0632 63.1145C57.0689 63.0622 57.0893 63.0125 57.1219 62.9712L74.336 41.1196C74.3618 41.0862 74.395 41.0592 74.433 41.0407C74.471 41.0222 74.5127 41.0127 74.5549 41.0129H113.357C113.408 41.0145 113.457 41.0293 113.5 41.0559C113.544 41.0825 113.579 41.1199 113.604 41.1645C113.631 41.2083 113.646 41.2589 113.646 41.3105C113.646 41.3621 113.631 41.4127 113.604 41.4565L98.6917 63.3025C98.666 63.3414 98.6309 63.3731 98.5897 63.3947C98.5485 63.4163 98.5024 63.4271 98.4558 63.426ZM57.9304 62.8646H98.3267L112.857 41.5744H74.7009L57.9304 62.8646Z" fill="#231F20"/>
<path d="M75.8013 43.4159L63.5168 59.333H94.0203L105.564 43.4159H75.8013Z" fill="white"/>
<path d="M94.0203 59.6137H63.5168C63.4642 59.6138 63.4126 59.5991 63.3679 59.5713C63.3232 59.5436 63.2873 59.5038 63.2641 59.4565C63.238 59.4113 63.2242 59.36 63.2242 59.3077C63.2242 59.2555 63.238 59.2042 63.2641 59.1589L75.5542 43.2418C75.5801 43.2085 75.6133 43.1815 75.6513 43.163C75.6892 43.1445 75.731 43.135 75.7732 43.1352H105.53C105.581 43.1343 105.632 43.1481 105.676 43.1749C105.719 43.2018 105.755 43.2406 105.777 43.2868C105.804 43.3305 105.819 43.3811 105.819 43.4327C105.819 43.4844 105.804 43.535 105.777 43.5787L94.2337 59.4958C94.2096 59.5305 94.1778 59.5592 94.1408 59.5797C94.1038 59.6001 94.0626 59.6118 94.0203 59.6137ZM64.0894 59.0523H93.8463L105.014 43.6854H75.9416L64.0894 59.0523Z" fill="#231F20"/>
<path d="M84.5375 56.4359C84.4792 56.4355 84.4224 56.4169 84.3751 56.3827C84.3278 56.3485 84.2923 56.3004 84.2737 56.245C82.797 51.8938 80.7421 47.1215 79.9954 47.0092C79.1027 47.0092 73.3759 51.7422 68.2892 56.3686C68.2341 56.4192 68.1611 56.4459 68.0864 56.4427C68.0116 56.4395 67.9412 56.4068 67.8905 56.3517C67.8399 56.2966 67.8133 56.2237 67.8164 56.1489C67.8196 56.0742 67.8523 56.0037 67.9074 55.9531C69.6703 54.353 78.4346 46.4534 80.0459 46.4534H80.1077C81.545 46.6723 84.0884 53.8645 84.8351 56.0654C84.8473 56.1004 84.8523 56.1375 84.8498 56.1744C84.8473 56.2114 84.8374 56.2475 84.8206 56.2805C84.8038 56.3135 84.7805 56.3428 84.7522 56.3667C84.7238 56.3905 84.6909 56.4083 84.6554 56.4191C84.6183 56.435 84.5776 56.4408 84.5375 56.4359Z" fill="#D1D3D4"/>
<path d="M93.7003 57.0198C93.6388 57.0194 93.5791 56.9989 93.5304 56.9614C93.4818 56.9239 93.4467 56.8714 93.4308 56.812C92.4426 53.303 91.0334 49.5581 90.3709 49.3616C89.7083 49.1651 86.6316 51.9443 84.1275 54.6168C84.0762 54.6711 84.0053 54.7028 83.9306 54.7049C83.8558 54.707 83.7833 54.6794 83.7289 54.628C83.6746 54.5766 83.6428 54.5058 83.6407 54.431C83.6386 54.3563 83.6663 54.2837 83.7177 54.2294C84.9978 52.865 89.2648 48.4464 90.5337 48.8282C91.8026 49.21 93.6217 55.4196 93.9698 56.6885C93.9906 56.76 93.9822 56.8368 93.9464 56.9021C93.9106 56.9674 93.8503 57.0158 93.7789 57.0366L93.7003 57.0198Z" fill="#D1D3D4"/>
<path d="M102.723 52.1071C102.032 52.1071 101.488 51.7758 101.488 51.3548C101.488 50.9337 102.049 50.608 102.723 50.608C103.397 50.608 103.958 50.9337 103.958 51.3548C103.958 51.7758 103.413 52.1071 102.723 52.1071ZM102.723 50.7484C102.128 50.7484 101.6 51.0235 101.6 51.3548C101.6 51.686 102.1 51.9667 102.723 51.9667C103.346 51.9667 103.818 51.686 103.818 51.3548C103.818 51.0235 103.318 50.7652 102.723 50.7652V50.7484Z" fill="#A7A9AC"/>
<path d="M107.63 45.7402H105.137C105.12 45.7389 105.103 45.7314 105.091 45.719C105.079 45.7067 105.071 45.6903 105.07 45.6728C105.07 45.6544 105.077 45.6367 105.089 45.6231C105.102 45.6096 105.119 45.6013 105.137 45.5999H107.63C107.639 45.5998 107.649 45.6017 107.657 45.6055C107.666 45.6092 107.673 45.6147 107.68 45.6215C107.686 45.6284 107.691 45.6365 107.694 45.6453C107.697 45.6542 107.698 45.6635 107.697 45.6728C107.697 45.6907 107.69 45.7078 107.678 45.7205C107.665 45.7331 107.648 45.7402 107.63 45.7402Z" fill="#A7A9AC"/>
<path d="M98.4559 63.4261C98.3959 63.4266 98.3372 63.409 98.2875 63.3755C98.2282 63.3308 98.1887 63.2648 98.1772 63.1915C98.1657 63.1182 98.1831 63.0433 98.2257 62.9825L106.187 52.0567C106.209 52.0268 106.236 52.0014 106.268 51.9821C106.299 51.9628 106.334 51.9499 106.371 51.9442C106.407 51.9385 106.445 51.94 106.48 51.9487C106.516 51.9574 106.55 51.9731 106.58 51.995C106.639 52.0397 106.679 52.1057 106.69 52.179C106.702 52.2523 106.684 52.3272 106.642 52.388L98.6805 63.3362C98.6519 63.3667 98.6169 63.3905 98.5781 63.406C98.5393 63.4216 98.4976 63.4284 98.4559 63.4261Z" fill="white"/>
<path d="M84.5376 47.4695C84.2933 47.4695 84.0545 47.3971 83.8514 47.2614C83.6483 47.1256 83.4899 46.9327 83.3965 46.707C83.303 46.4813 83.2785 46.233 83.3262 45.9934C83.3738 45.7538 83.4915 45.5337 83.6642 45.3609C83.837 45.1882 84.057 45.0705 84.2966 45.0229C84.5362 44.9752 84.7846 44.9997 85.0103 45.0932C85.236 45.1867 85.4289 45.345 85.5646 45.5481C85.7004 45.7512 85.7728 45.99 85.7728 46.2343C85.7728 46.5619 85.6427 46.8761 85.411 47.1077C85.1794 47.3394 84.8652 47.4695 84.5376 47.4695ZM84.5376 45.5606C84.4044 45.5606 84.2741 45.6001 84.1633 45.6741C84.0525 45.7482 83.9662 45.8534 83.9152 45.9765C83.8642 46.0996 83.8508 46.2351 83.8768 46.3658C83.9028 46.4965 83.967 46.6165 84.0612 46.7107C84.1554 46.805 84.2755 46.8691 84.4062 46.8951C84.5369 46.9211 84.6723 46.9078 84.7954 46.8568C84.9186 46.8058 85.0238 46.7194 85.0978 46.6086C85.1718 46.4979 85.2114 46.3676 85.2114 46.2343C85.2121 46.1457 85.1952 46.0577 85.1616 45.9756C85.128 45.8935 85.0784 45.819 85.0157 45.7563C84.953 45.6935 84.8784 45.644 84.7963 45.6104C84.7142 45.5768 84.6263 45.5598 84.5376 45.5606Z" fill="#D1D3D4"/>
<path d="M133.995 63.6224H7.26508V68.9955H133.995V63.6224Z" fill="white"/>
<path d="M134.001 69.2763H7.26516C7.19071 69.2763 7.1193 69.2467 7.06666 69.194C7.01401 69.1414 6.98444 69.07 6.98444 68.9955V63.6225C6.98587 63.5485 7.01591 63.4779 7.06825 63.4256C7.12059 63.3732 7.19116 63.3432 7.26516 63.3417H134.001C134.075 63.3432 134.146 63.3732 134.198 63.4256C134.25 63.4779 134.28 63.5485 134.282 63.6225V68.9955C134.282 69.07 134.252 69.1414 134.2 69.194C134.147 69.2467 134.076 69.2763 134.001 69.2763ZM7.54589 68.7148H133.698V63.8976H7.54589V68.7148Z" fill="#231F20"/>
<path d="M54.9323 92.6887C55.0502 93.0873 47.959 118.543 47.959 118.543L57.8686 120.138L69.5805 84.9688L54.9323 92.6887Z" fill="white"/>
<path d="M57.8686 120.419H57.8237L47.9141 118.824C47.8745 118.818 47.8366 118.804 47.8027 118.783C47.7689 118.762 47.7399 118.734 47.7176 118.701C47.6784 118.631 47.6664 118.549 47.6839 118.47C50.4518 108.555 54.5729 93.5589 54.6515 92.7167C54.6476 92.6619 54.6599 92.6071 54.6868 92.5592C54.7138 92.5113 54.7542 92.4724 54.8031 92.4472L69.4513 84.7273C69.5014 84.7021 69.5577 84.6919 69.6134 84.6979C69.6692 84.7039 69.7221 84.7258 69.7657 84.761C69.8067 84.7986 69.8363 84.8469 69.8511 84.9005C69.866 84.9541 69.8656 85.0108 69.8499 85.0642L58.1325 120.233C58.1136 120.288 58.0779 120.335 58.0305 120.369C57.9831 120.402 57.9265 120.419 57.8686 120.419ZM48.3239 118.313L57.6889 119.824L69.1088 85.547L55.1848 92.8795C54.876 94.4909 52.5685 103.031 48.3127 118.313H48.3239Z" fill="#231F20"/>
<path d="M47.3582 117.443L45.8479 122.193L69.5804 124.029C68.4659 121.784 66.5388 120.048 64.1905 119.172C61.7257 118.308 59.07 117.275 59.07 117.275L57.8685 120.138L47.3582 117.443Z" fill="#231F20"/>
<path d="M69.5804 124.309L45.8479 122.474C45.8056 122.47 45.7646 122.458 45.7279 122.437C45.6912 122.415 45.6597 122.386 45.636 122.351C45.6122 122.316 45.5967 122.276 45.5906 122.234C45.5845 122.192 45.588 122.149 45.6009 122.109L47.1112 117.359C47.1332 117.291 47.1803 117.234 47.2429 117.199C47.3055 117.165 47.3789 117.156 47.4481 117.173L57.7226 119.807L58.8455 117.168C58.859 117.134 58.8791 117.104 58.9045 117.078C58.93 117.052 58.9603 117.031 58.9936 117.017C59.027 117.003 59.0629 116.996 59.0991 116.996C59.1353 116.996 59.1713 117.003 59.2048 117.016C59.2329 117.016 61.8829 118.055 64.3196 118.908C66.7428 119.806 68.7298 121.599 69.8724 123.916C69.896 123.958 69.9084 124.006 69.9084 124.054C69.9084 124.102 69.896 124.15 69.8724 124.192C69.8422 124.239 69.7978 124.276 69.7454 124.298C69.693 124.319 69.6353 124.323 69.5804 124.309ZM46.2185 121.94L69.0975 123.714C67.9858 121.746 66.2169 120.231 64.1006 119.436C62.0963 118.734 59.9459 117.915 59.2217 117.639L58.1268 120.245C58.1007 120.307 58.0529 120.359 57.9922 120.39C57.9315 120.421 57.8618 120.429 57.7956 120.413L47.5435 117.797L46.2185 121.94Z" fill="#231F20"/>
<path d="M30.7 93.0256L29.0156 119.84C29.0156 119.84 23.3225 120.037 21.8965 121.036C20.4704 122.036 19.3082 126.561 19.3082 126.561H21.0823C21.0823 126.561 22.1154 123.192 23.2495 122.788C24.3837 122.384 30.8291 122.227 30.8291 122.227C30.8291 122.227 33.9395 123.428 34.4392 125.489C34.8323 127.111 34.72 127.487 34.72 127.487H36.685C36.6803 126.564 36.548 125.646 36.292 124.759C35.899 123.636 34.4224 122.294 34.4224 122.294C34.4224 122.294 37.6732 122.361 38.7568 122.361C39.8404 122.361 40.9689 124.427 40.9689 124.427H43.0856C43.0856 124.427 40.8734 120.699 39.4417 120.436C38.0101 120.172 34.3382 119.532 34.3382 119.532L33.3388 94.5471L30.7 93.0256Z" fill="#231F20"/>
<path d="M36.7075 127.774H34.7424C34.6982 127.773 34.6546 127.763 34.6149 127.743C34.5751 127.724 34.5401 127.696 34.5122 127.662C34.4869 127.625 34.4702 127.584 34.4634 127.54C34.4566 127.496 34.4599 127.451 34.4729 127.409C34.4754 126.782 34.3788 126.158 34.1866 125.562C33.7655 123.804 31.1884 122.676 30.8179 122.519C28.9932 122.558 24.2657 122.726 23.3843 123.08C22.6544 123.35 21.7729 125.427 21.3911 126.668C21.3733 126.726 21.3377 126.776 21.2892 126.813C21.2408 126.849 21.1821 126.869 21.1216 126.87H19.3306C19.288 126.869 19.2463 126.858 19.2084 126.838C19.1705 126.819 19.1374 126.791 19.1116 126.757C19.0858 126.723 19.0679 126.684 19.0591 126.642C19.0504 126.601 19.0511 126.558 19.0611 126.516C19.106 126.331 20.2626 121.879 21.7561 120.834C23.0755 119.914 27.6288 119.65 28.7742 119.599L30.4249 93.0313C30.4286 92.984 30.4439 92.9383 30.4693 92.8982C30.4948 92.858 30.5296 92.8247 30.5708 92.8011C30.6123 92.779 30.6586 92.7675 30.7056 92.7675C30.7526 92.7675 30.7989 92.779 30.8403 92.8011L33.5016 94.3339C33.5428 94.357 33.5773 94.3903 33.6019 94.4306C33.6265 94.4709 33.6403 94.5169 33.642 94.5641L34.6357 119.324C35.4554 119.464 38.3076 119.958 39.5203 120.189C41.025 120.469 43.1192 123.917 43.3494 124.31C43.3741 124.352 43.387 124.401 43.387 124.45C43.387 124.499 43.3741 124.548 43.3494 124.59C43.3247 124.634 43.2889 124.671 43.2455 124.697C43.2021 124.722 43.1528 124.736 43.1024 124.736H40.9857C40.9353 124.736 40.886 124.722 40.8426 124.697C40.7992 124.671 40.7634 124.634 40.7387 124.59C40.3344 123.849 39.4361 122.67 38.7736 122.67C38.01 122.67 36.1573 122.637 35.1354 122.62C35.7455 123.21 36.2338 123.914 36.5727 124.691C36.8421 125.603 36.9801 126.548 36.9826 127.499C36.9812 127.571 36.9517 127.64 36.9004 127.692C36.8491 127.743 36.78 127.772 36.7075 127.774ZM35.0231 127.212H36.4099C36.3913 126.413 36.2667 125.62 36.0393 124.854C35.6744 123.804 34.2596 122.524 34.2427 122.507C34.2015 122.469 34.1725 122.419 34.1595 122.364C34.1465 122.309 34.1501 122.252 34.1697 122.199C34.1931 122.146 34.2308 122.102 34.2785 122.07C34.3262 122.038 34.3819 122.02 34.4392 122.019C34.4729 122.019 37.6956 122.086 38.768 122.086C39.8404 122.086 40.8397 123.63 41.1429 124.152H42.5915C41.8391 122.968 40.3457 120.89 39.4024 120.716C37.9932 120.453 34.3494 119.824 34.3045 119.818C34.2399 119.808 34.1811 119.775 34.138 119.726C34.095 119.677 34.0704 119.614 34.0687 119.549L33.0861 94.7213L30.9526 93.4917L29.3188 119.88C29.3147 119.949 29.2848 120.015 29.235 120.064C29.1852 120.113 29.119 120.141 29.0493 120.144C27.4885 120.2 23.1934 120.509 22.0817 121.267C21.0711 121.974 20.0942 124.854 19.6955 126.28H20.8971C21.1553 125.489 22.0761 122.912 23.1428 122.524C24.2096 122.137 30.554 121.963 30.8179 121.963H30.9245C31.0593 122.013 34.181 123.237 34.7087 125.416C34.8757 126.003 34.9848 126.604 35.0344 127.212H35.0231Z" fill="#231F20"/>
<path d="M63.163 75.924C63.163 75.924 85.5873 77.1198 87.0022 80.3145C88.417 83.5091 78.019 118.639 78.019 118.639C78.019 118.639 88.9953 122.434 87.1987 123.232C85.402 124.029 67.4356 122.434 67.4356 122.434L75.9528 89.8704L53.7643 88.3769L63.163 75.924Z" fill="white"/>
<path d="M84.3746 123.737C79.1082 123.737 68.873 122.844 67.4301 122.715C67.389 122.711 67.3492 122.699 67.3133 122.679C67.2775 122.658 67.2465 122.63 67.2224 122.597C67.1992 122.563 67.1837 122.524 67.1769 122.483C67.1701 122.443 67.1722 122.401 67.1831 122.361L75.6048 90.1509L53.7532 88.6799C53.7035 88.6743 53.656 88.6565 53.6148 88.6281C53.5737 88.5997 53.5402 88.5615 53.5174 88.517C53.496 88.4709 53.4878 88.4197 53.4937 88.3691C53.4997 88.3186 53.5195 88.2706 53.5511 88.2307L62.9553 75.7553C62.9797 75.7159 63.0149 75.6844 63.0568 75.6645C63.0986 75.6446 63.1452 75.6371 63.1912 75.643C63.2473 75.643 68.873 75.9462 74.5998 76.6424C86.3285 78.0572 87.0415 79.6686 87.2773 80.202C88.6641 83.3405 79.417 115.012 78.3952 118.465C81.3765 119.503 87.6647 121.833 87.7097 122.984C87.7112 123.097 87.6766 123.206 87.6109 123.298C87.5451 123.389 87.4518 123.456 87.3447 123.49C86.3718 123.715 85.3714 123.798 84.3746 123.737ZM67.8063 122.182C73.0165 122.642 85.7165 123.591 87.1033 122.973C86.7327 122.294 82.1176 120.357 77.9292 118.914C77.8608 118.89 77.8045 118.84 77.7721 118.775C77.7396 118.71 77.7336 118.635 77.7552 118.566C80.6298 108.825 87.8613 82.9755 86.7383 80.4322C85.6155 77.8888 69.5917 76.5582 63.2922 76.2157L54.309 88.1577L75.981 89.6231C76.0226 89.6252 76.0632 89.6363 76.1 89.6557C76.1369 89.6751 76.1691 89.7023 76.1943 89.7354C76.2393 89.8052 76.2554 89.8897 76.2392 89.9712L67.8063 122.182Z" fill="#231F20"/>
<path d="M55.5554 55.9586C55.5554 55.9586 67.0764 70.3317 72.0003 69.9331C76.9242 69.5345 91.0278 51.8151 91.0278 51.8151C93.5768 48.772 96.429 44.9093 94.6042 40.7152C94.4246 40.311 94.1102 39.8787 93.6722 39.9124C93.488 39.9407 93.313 40.0118 93.1613 40.1201L91.5893 41.0858C91.6398 40.6535 91.0896 40.3447 90.6685 40.4626C90.2587 40.6229 89.9173 40.9206 89.7028 41.3048C88.069 43.6292 87.0134 45.8413 87.1033 48.7047L70.6191 57.1264L64.0782 49.8893" fill="white"/>
<path d="M71.8037 70.2195C66.6889 70.2195 55.8024 56.7447 55.3364 56.1327C55.2975 56.0741 55.282 56.0031 55.2929 55.9336C55.3039 55.8641 55.3405 55.8013 55.3955 55.7575C55.4506 55.7138 55.5201 55.6923 55.5902 55.6973C55.6604 55.7023 55.7261 55.7335 55.7744 55.7846C55.8867 55.925 66.9584 69.6636 71.7869 69.6636H71.9778C76.7277 69.2819 90.6572 51.8264 90.792 51.6467C93.4252 48.5138 96.0808 44.842 94.3347 40.8388C94.2673 40.6816 94.0315 40.1819 93.6834 40.2044C93.5431 40.2299 93.4105 40.2876 93.296 40.3728L91.7128 41.3329C91.668 41.3606 91.6164 41.3751 91.5638 41.3749C91.5112 41.3746 91.4597 41.3596 91.4152 41.3315C91.3707 41.3034 91.335 41.2634 91.3122 41.216C91.2893 41.1686 91.2803 41.1157 91.2861 41.0634C91.2896 41.0229 91.2821 40.9821 91.2643 40.9455C91.2465 40.9089 91.2191 40.8779 91.185 40.8557C91.1211 40.8045 91.0468 40.768 90.9672 40.7486C90.8877 40.7292 90.8049 40.7274 90.7246 40.7434C90.3788 40.8908 90.0922 41.1497 89.9105 41.4789C88.5293 43.4439 87.2661 45.6785 87.3615 48.7103C87.3632 48.7633 87.3499 48.8157 87.323 48.8614C87.2962 48.9071 87.257 48.9443 87.2099 48.9686L70.7258 57.3904C70.6707 57.4187 70.6078 57.428 70.5468 57.4168C70.4859 57.4056 70.4304 57.3746 70.3889 57.3286L63.8536 50.0803C63.8273 50.0542 63.8064 50.0231 63.7922 49.9889C63.7779 49.9547 63.7706 49.918 63.7706 49.881C63.7706 49.8439 63.7779 49.8072 63.7922 49.773C63.8064 49.7388 63.8273 49.7077 63.8536 49.6817C63.907 49.6299 63.9785 49.6009 64.0529 49.6009C64.1273 49.6009 64.1988 49.6299 64.2522 49.6817L70.6415 56.7447L86.7832 48.5195C86.7327 45.4146 88.024 43.1295 89.4333 41.1252C89.686 40.6868 90.0828 40.3495 90.5562 40.1707C90.7265 40.1297 90.9041 40.1292 91.0747 40.1692C91.2454 40.2092 91.4043 40.2885 91.5387 40.4009C91.6144 40.4668 91.6789 40.5445 91.7296 40.6311L92.9872 39.8619C93.1774 39.7289 93.3971 39.6441 93.6273 39.6149C94.1158 39.5756 94.5481 39.9349 94.8288 40.5862C96.8613 45.2462 93.1894 49.6255 91.2131 51.978C90.6516 52.6966 76.9972 69.7928 72.0059 70.197L71.8037 70.2195Z" fill="#231F20"/>
<path d="M17.8429 53.505C17.8429 53.505 11.9084 66.9518 14.1093 68.3891C16.3102 69.8264 29.7064 68.3891 29.7064 68.3891L28.5442 50.9841" fill="white"/>
<path d="M19.2016 69.2762C16.8042 69.2762 14.71 69.1078 13.9464 68.6025C13.5646 68.3554 12.3968 67.5975 14.884 60.3155C16.0799 56.8064 17.5678 53.4265 17.5846 53.3928C17.5964 53.3552 17.6161 53.3204 17.6422 53.2909C17.6684 53.2614 17.7005 53.2377 17.7364 53.2214C17.7723 53.2051 17.8113 53.1966 17.8507 53.1963C17.8902 53.1961 17.9292 53.2042 17.9654 53.22C18.0015 53.2359 18.0338 53.2592 18.0603 53.2885C18.0868 53.3177 18.1069 53.3522 18.1192 53.3896C18.1314 53.4271 18.1357 53.4668 18.1316 53.506C18.1275 53.5453 18.1152 53.5832 18.0955 53.6174C15.8497 58.7322 12.8067 67.1932 14.2552 68.1308C15.9396 69.2537 25.4842 68.5126 29.4144 68.1308L28.2915 51.001C28.2889 50.9641 28.2936 50.9271 28.3053 50.8921C28.317 50.857 28.3355 50.8246 28.3598 50.7968C28.4087 50.7404 28.4781 50.7059 28.5525 50.7006C28.627 50.6954 28.7005 50.72 28.7568 50.769C28.8131 50.8179 28.8477 50.8873 28.8529 50.9617L30.0151 68.3667C30.0198 68.4393 29.9961 68.511 29.949 68.5665C29.9018 68.6221 29.8349 68.6571 29.7624 68.6642C29.3694 68.6867 23.71 69.2762 19.2016 69.2762Z" fill="#231F20"/>
<path d="M22.6769 76.2943C22.6769 76.2943 19.7742 82.7397 22.8678 86.8046C25.9613 90.8695 68.9066 91.358 68.9066 91.358L71.989 75.9237L54.0226 73.4758L52.9783 68.1364L22.6769 76.2943Z" fill="white"/>
<path d="M68.9179 91.6388C68.8113 91.6388 58.0483 91.5096 47.0214 90.8864C32.1711 90.0443 23.9627 88.7249 22.6264 86.9563C19.4711 82.8128 22.2783 76.4347 22.4018 76.1652C22.4186 76.1266 22.4441 76.0923 22.4762 76.0651C22.5083 76.0378 22.5463 76.0183 22.5871 76.008L52.9054 67.8502C52.943 67.8387 52.9826 67.8358 53.0215 67.8416C53.0604 67.8474 53.0974 67.8619 53.13 67.8838C53.1617 67.9038 53.1891 67.93 53.2103 67.9609C53.2315 67.9918 53.2462 68.0267 53.2535 68.0635L54.2585 73.212L72.0059 75.6262C72.0443 75.631 72.0813 75.644 72.1142 75.6644C72.1472 75.6847 72.1753 75.7119 72.1968 75.7441C72.2191 75.7745 72.2346 75.8092 72.2423 75.846C72.2501 75.8828 72.2499 75.9208 72.2417 75.9575L69.1931 91.4086C69.1813 91.473 69.1473 91.5313 69.0971 91.5734C69.0468 91.6154 68.9835 91.6385 68.9179 91.6388ZM22.8791 76.5302C22.5141 77.4229 20.3638 83.0542 23.0924 86.6363C25.4617 89.7467 53.815 90.9033 68.6878 91.0829L71.6691 76.1652L54.0171 73.7622C53.9593 73.754 53.9055 73.7279 53.8633 73.6876C53.821 73.6474 53.7924 73.5949 53.7813 73.5376L52.7987 68.4846L22.8791 76.5302Z" fill="#231F20"/>
<path d="M40.2727 21.9965C39.8345 21.7335 39.4528 21.3862 39.1498 20.9746C38.7293 20.3717 38.4247 19.6958 38.2515 18.9815C36.73 13.4793 36.7187 6.43306 41.6202 2.66573C43.0659 1.561 44.7553 0.818815 46.5468 0.501337C48.3384 0.18386 50.1799 0.30034 51.9172 0.841023C54.2977 1.61582 56.319 4.88908 57.3801 7.01697C58.2503 8.74062 58.8399 10.6159 59.8729 12.2441C60.906 13.8723 62.5511 15.2984 64.4824 15.3938C63.7175 15.8218 62.8656 16.0714 61.9906 16.1239C61.1156 16.1764 60.2401 16.0305 59.4294 15.697C59.8073 16.2043 60.3233 16.5921 60.9156 16.8141C61.508 17.0361 62.1518 17.0829 62.77 16.949C61.6471 17.8417 60.0414 17.808 58.6265 17.5105C57.2117 17.2129 55.8193 16.7637 54.3651 16.949C52.1193 17.2017 50.6595 18.8523 48.9022 20.0482C46.6733 21.508 42.8217 23.4731 40.2727 21.9965Z" fill="white"/>
<path d="M42.3894 22.8051C41.6041 22.8219 40.8286 22.628 40.1436 22.2436C39.664 21.9578 39.2491 21.5754 38.9253 21.1207C38.4824 20.4818 38.1625 19.7658 37.982 19.0097C37.2409 16.3147 35.2871 7.14061 41.4349 2.40197C42.9163 1.26631 44.6491 0.503603 46.4872 0.178209C48.3252 -0.147186 50.2146 -0.0257244 51.9958 0.532344C54.5448 1.35768 56.6165 4.82743 57.6103 6.82058C57.9472 7.49432 58.2504 8.19613 58.5367 8.87549C58.969 9.96658 59.4872 11.0217 60.0863 12.0308C60.6477 12.9011 62.1749 14.9335 64.4712 15.0458C64.5317 15.048 64.5899 15.0701 64.6366 15.1087C64.6833 15.1472 64.7159 15.2001 64.7295 15.2592C64.7455 15.3183 64.7408 15.3811 64.7163 15.4372C64.6918 15.4933 64.6489 15.5395 64.5947 15.568C63.3485 16.2625 61.8985 16.4988 60.4962 16.2361C61.1539 16.6405 61.9431 16.7733 62.697 16.6066C62.7596 16.5906 62.8258 16.5966 62.8845 16.6237C62.9432 16.6508 62.9907 16.6972 63.0191 16.7553C63.0475 16.8134 63.0549 16.8794 63.0402 16.9424C63.0256 17.0053 62.9896 17.0612 62.9385 17.1007C61.9335 17.8924 60.4625 18.1057 58.5648 17.7408C58.2279 17.679 57.891 17.6004 57.5542 17.5218C56.5282 17.2252 55.4596 17.1037 54.3932 17.1625C52.8043 17.3421 51.6252 18.2854 50.3732 19.2342C49.9465 19.5655 49.5086 19.9024 49.0538 20.2168C47.7456 21.1263 44.9384 22.8051 42.3894 22.8051ZM48.5373 0.577261C46.0898 0.575843 43.7101 1.38092 41.7662 2.86797C35.899 7.39887 37.7911 16.2698 38.5154 18.8861C38.6796 19.5741 38.9709 20.2253 39.3744 20.8063C39.6561 21.1908 40.0134 21.5137 40.4243 21.7551C43.1305 23.3272 47.4817 20.6322 48.7506 19.7732C49.1886 19.4757 49.6209 19.1388 50.0364 18.8131C51.294 17.8362 52.5966 16.8256 54.3427 16.6291C55.4785 16.558 56.6181 16.6834 57.7114 16.9997C58.0426 17.0727 58.3739 17.1513 58.7051 17.213C59.6396 17.4307 60.6116 17.4307 61.5461 17.213C60.62 17.0646 59.7882 16.5611 59.2273 15.8094C59.1908 15.7608 59.1711 15.7017 59.1711 15.641C59.1711 15.5802 59.1908 15.5211 59.2273 15.4725C59.264 15.4236 59.3162 15.3887 59.3754 15.3734C59.4345 15.3581 59.4971 15.3633 59.5529 15.3883C60.8193 15.9011 62.2298 15.9311 63.5168 15.4725C61.8771 14.9537 60.4923 13.8374 59.6371 12.3452C59.0186 11.3124 58.4854 10.2308 58.0426 9.11129C57.7563 8.44317 57.4812 7.74697 57.1275 7.09008C56.3527 5.54609 54.2809 1.87421 51.833 1.08256C50.7677 0.742427 49.6555 0.571911 48.5373 0.577261Z" fill="#231F20"/>
<path d="M55.488 17.999C55.488 17.999 57.0208 22.7938 56.2179 23.4732C55.4151 24.1525 53.7476 23.0858 53.7476 23.0858" fill="white"/>
<path d="M55.5385 23.984C54.8518 23.9252 54.1903 23.6977 53.6128 23.3215C53.5797 23.3026 53.5507 23.2772 53.5278 23.2468C53.5048 23.2164 53.4883 23.1816 53.4792 23.1446C53.4701 23.1075 53.4687 23.0691 53.475 23.0315C53.4812 22.9939 53.4951 22.9579 53.5157 22.9259C53.5363 22.8938 53.5633 22.8663 53.5948 22.845C53.6264 22.8237 53.6621 22.809 53.6995 22.8019C53.737 22.7948 53.7755 22.7954 53.8127 22.8036C53.8499 22.8119 53.885 22.8276 53.9159 22.8499C54.309 23.0969 55.5385 23.7089 56.0495 23.2598C56.4369 22.9285 55.9372 20.3178 55.2185 18.0888C55.1973 18.0173 55.2047 17.9404 55.2393 17.8743C55.2739 17.8083 55.3329 17.7583 55.4038 17.7351C55.4745 17.7121 55.5515 17.7181 55.6178 17.7518C55.6841 17.7854 55.7344 17.8441 55.7575 17.9148C56.1281 19.0826 57.279 22.9678 56.4144 23.6865C56.1697 23.8914 55.8574 23.9975 55.5385 23.984Z" fill="#231F20"/>
<path d="M56.4201 12.5024C57.7283 14.3664 56.4201 17.1624 55.8586 19.0657C55.0838 21.7457 54.2473 24.4051 53.349 27.0439C52.7875 28.7283 48.3633 27.51 47.7345 26.7857L46.533 33.6971L37.2297 30.48L40.2223 22.0976C40.2223 22.0976 43.2148 22.9622 45.9098 19.9809C48.6047 16.9996 50.48 9.39758 50.48 9.39758C50.48 9.39758 55.1456 10.6777 56.4201 12.5024Z" fill="white"/>
<path d="M46.5273 33.978H46.4375L37.1287 30.7721C37.0934 30.7612 37.0607 30.743 37.0327 30.7189C37.0046 30.6947 36.9819 30.6651 36.9659 30.6318C36.9406 30.561 36.9406 30.4836 36.9659 30.4128L39.9359 22.0023C39.959 21.9356 40.0069 21.8803 40.0696 21.848C40.1323 21.8156 40.205 21.8085 40.2728 21.8282C40.3907 21.8563 43.1418 22.5974 45.6795 19.7902C48.2173 16.9829 50.1711 9.40897 50.1711 9.33036C50.1795 9.29399 50.1952 9.25974 50.2175 9.22978C50.2397 9.19982 50.2679 9.17481 50.3003 9.15631C50.3686 9.12823 50.4453 9.12823 50.5136 9.15631C50.7101 9.21246 55.2972 10.4869 56.6166 12.3678C57.7844 14.0522 57.0321 16.2979 56.4201 18.1507C56.3022 18.5101 56.1899 18.8525 56.0944 19.1726C55.3196 21.8395 54.4775 24.5288 53.5791 27.162C53.4692 27.4207 53.2909 27.6447 53.0635 27.8098C52.836 27.975 52.5679 28.0752 52.2878 28.0996C50.7772 28.2672 49.2509 27.9819 47.9029 27.2799L46.78 33.7478C46.7737 33.7878 46.7583 33.8259 46.7349 33.859C46.7115 33.8921 46.6809 33.9194 46.6452 33.9387C46.6098 33.9614 46.5693 33.9749 46.5273 33.978ZM37.5834 30.3061L46.3084 33.3267L47.4313 26.7353C47.4406 26.6831 47.4644 26.6346 47.5001 26.5954C47.5358 26.5562 47.5819 26.528 47.633 26.5139C47.6841 26.4998 47.7382 26.5004 47.7889 26.5158C47.8396 26.5311 47.885 26.5605 47.9197 26.6006C48.324 27.0666 50.7551 27.8301 52.1811 27.5494C52.664 27.454 52.9559 27.2518 53.057 26.9487C53.9497 24.3267 54.7975 21.6486 55.5667 18.9873C55.6621 18.6617 55.78 18.3136 55.8979 17.943C56.4594 16.2306 57.178 14.0971 56.1674 12.6598C55.1568 11.2224 51.6758 10.0546 50.654 9.75145C50.2778 11.1831 48.5373 17.4602 46.0894 20.1663C43.7369 22.7659 41.188 22.5693 40.3739 22.4121L37.5834 30.3061Z" fill="#231F20"/>
<path d="M53.8486 25.0228C53.8486 25.0228 51.4063 25.719 50.9066 23.2543L53.8486 25.0228Z" fill="white"/>
<path d="M53.102 25.3933C52.6203 25.4057 52.1444 25.2852 51.7265 25.0452C51.4271 24.8521 51.1722 24.5975 50.9786 24.2985C50.785 23.9994 50.6572 23.6626 50.6036 23.3104C50.5903 23.2366 50.6065 23.1605 50.6487 23.0986C50.6909 23.0366 50.7557 22.9937 50.8292 22.979C50.9028 22.9642 50.9791 22.979 51.0419 23.0199C51.1047 23.0609 51.1489 23.1249 51.165 23.1981C51.2023 23.4717 51.2965 23.7345 51.4415 23.9695C51.5866 24.2045 51.7793 24.4065 52.0072 24.5624C52.5472 24.8343 53.1673 24.9021 53.7533 24.7533C53.7902 24.7433 53.8286 24.7407 53.8665 24.7457C53.9044 24.7506 53.9409 24.7629 53.974 24.7819C54.0071 24.8009 54.0361 24.8263 54.0595 24.8566C54.0828 24.8868 54.0999 24.9214 54.1098 24.9582C54.1198 24.9951 54.1224 25.0336 54.1175 25.0714C54.1126 25.1093 54.1002 25.1458 54.0812 25.1789C54.0622 25.212 54.0368 25.2411 54.0066 25.2644C53.9763 25.2877 53.9418 25.3048 53.9049 25.3147C53.6415 25.3736 53.3719 25.4 53.102 25.3933Z" fill="#231F20"/>
<path d="M49.8567 18.2742C49.9708 17.5811 49.8911 16.87 49.6265 16.2193C49.4896 15.6939 49.2779 15.1909 48.9977 14.7259C48.852 14.4965 48.6579 14.3018 48.429 14.1554C48.2001 14.0089 47.942 13.9143 47.6727 13.8781C47.4306 13.8738 47.1905 13.9217 46.9686 14.0186C46.7467 14.1155 46.5483 14.259 46.387 14.4395C46.0592 14.7913 45.8171 15.214 45.6795 15.6747C45.3548 16.6687 45.2964 17.7304 45.5102 18.754C45.724 19.7776 46.2025 20.7273 46.8979 21.5082L46.7912 21.3061" fill="white"/>
<path d="M46.8979 21.7888C46.859 21.7884 46.8206 21.7803 46.7849 21.7649C46.7493 21.7494 46.717 21.727 46.6901 21.699C45.9601 20.8766 45.4579 19.8775 45.2334 18.801C45.0088 17.7245 45.0697 16.608 45.41 15.5623C45.5605 15.0609 45.8258 14.6015 46.1848 14.2205C46.3783 14.0158 46.6129 13.8544 46.8732 13.747C47.1335 13.6396 47.4136 13.5886 47.6951 13.5973C48.0074 13.6327 48.3077 13.7385 48.5732 13.9067C48.8387 14.075 49.0625 14.3013 49.2279 14.5686C49.5261 15.0552 49.7512 15.583 49.896 16.135C50.1774 16.8345 50.2591 17.5984 50.1318 18.3415C50.1121 18.4142 50.0644 18.4762 49.9993 18.5141C49.9341 18.5519 49.8567 18.5625 49.7837 18.5436C49.7125 18.5239 49.6519 18.4769 49.6151 18.4128C49.5783 18.3487 49.5683 18.2726 49.5872 18.2012C49.6813 17.5594 49.6018 16.9041 49.357 16.3035C49.2311 15.8045 49.0304 15.3275 48.7619 14.8886C48.6415 14.6904 48.4781 14.5219 48.2837 14.3956C48.0893 14.2692 47.8689 14.1883 47.639 14.1587C47.4391 14.1549 47.2407 14.1934 47.0569 14.2718C46.873 14.3502 46.7078 14.4666 46.5722 14.6135C46.2736 14.9332 46.0526 15.3174 45.9266 15.7364C45.6359 16.6257 45.5674 17.5726 45.7269 18.4945C45.8864 19.4165 46.2692 20.2853 46.8417 21.0252C46.8808 21.036 46.9173 21.0544 46.9491 21.0795C46.981 21.1046 47.0074 21.1357 47.027 21.1712L47.1281 21.3733C47.1605 21.4337 47.1693 21.5039 47.1527 21.5704C47.1361 21.6368 47.0952 21.6947 47.0382 21.7327C46.9979 21.7647 46.9491 21.7842 46.8979 21.7888Z" fill="#231F20"/>
<path d="M55.665 15.7703C55.7848 15.2347 55.7102 14.7621 55.4984 14.7147C55.2866 14.6673 55.0177 15.0631 54.8979 15.5987C54.7781 16.1343 54.8527 16.6069 55.0645 16.6543C55.2763 16.7017 55.5452 16.3059 55.665 15.7703Z" fill="#231F20"/>
<path d="M47.7288 26.7857C46.509 25.9941 45.3407 25.1259 44.231 24.1862C44.231 24.1862 43.6695 29.0483 46.9989 30.1656L47.7288 26.7857Z" fill="#231F20"/>
<path d="M46.9988 30.4465C46.9691 30.4518 46.9387 30.4518 46.909 30.4465C43.4168 29.273 43.9277 24.3772 43.9502 24.1695C43.9562 24.1191 43.9755 24.0713 44.0061 24.0308C44.0367 23.9904 44.0774 23.9588 44.1242 23.9393C44.1717 23.9212 44.2231 23.9158 44.2734 23.9237C44.3236 23.9316 44.3709 23.9524 44.4106 23.9842C45.5125 24.9162 46.6713 25.7787 47.8803 26.5669C47.9274 26.598 47.9642 26.6422 47.9862 26.6942C48.0081 26.7461 48.0143 26.8034 48.0038 26.8588L47.274 30.2275C47.2655 30.266 47.2491 30.3023 47.2259 30.3342C47.2027 30.3661 47.1732 30.3928 47.1392 30.4128C47.0957 30.435 47.0476 30.4465 46.9988 30.4465ZM44.4836 24.759C44.4836 25.9605 44.6408 28.8295 46.7967 29.784L47.4143 26.915C46.4005 26.2478 45.4223 25.5282 44.4836 24.759Z" fill="#231F20"/>
<path d="M20.9364 78.4222C20.9364 78.4222 21.4417 44.0615 26.5958 36.1506C31.7499 28.2398 45.1237 26.4544 51.5017 31.1706C57.8798 35.8868 54.8087 71.9318 54.8087 71.9318C54.8087 71.9318 34.473 78.4222 20.9364 78.4222Z" fill="#FF5C64"/>
<path d="M47.0494 29.1494C50.442 30.5276 53.6128 32.3986 56.4593 34.7022C60.8723 38.3684 70.1868 54.1339 70.1868 54.1339L57.9022 61.5731L46.8754 47.9748L47.0494 29.1494Z" fill="#FF5C64"/>
<path d="M31.9071 31.2886C31.9071 31.2886 25.4785 32.0128 22.0762 39.0703C20.2346 42.8994 15.5184 55.2625 15.5184 55.2625L29.7006 56.8963L31.9071 31.2886Z" fill="#FF5C64"/>
<path d="M56.9816 60.714C56.9375 60.7138 56.894 60.703 56.8549 60.6825C56.8158 60.662 56.7823 60.6324 56.757 60.5961L45.8032 45.6784C45.781 45.6489 45.7649 45.6154 45.7558 45.5796C45.7466 45.5439 45.7446 45.5068 45.7498 45.4703C45.755 45.4338 45.7674 45.3987 45.7862 45.3669C45.805 45.3352 45.8298 45.3075 45.8593 45.2854C45.92 45.2427 45.995 45.2253 46.0683 45.2369C46.1416 45.2484 46.2076 45.2879 46.2523 45.3472L57.2062 60.2649C57.2375 60.3066 57.2565 60.3562 57.2612 60.4081C57.2659 60.46 57.256 60.5122 57.2327 60.5588C57.2094 60.6055 57.1735 60.6447 57.1292 60.6721C57.0849 60.6995 57.0337 60.714 56.9816 60.714Z" fill="#231F20"/>
<path d="M89.6804 43.8539L92.4202 35.3479L93.2736 35.5949L91.55 43.983C91.55 43.983 90.3373 45.1508 89.6804 43.8539Z" fill="#231F20"/>
<path d="M90.5225 44.7465H90.3316C90.131 44.7043 89.9438 44.6136 89.7863 44.4825C89.6287 44.3514 89.5056 44.1837 89.4277 43.9942C89.3996 43.9258 89.3996 43.8492 89.4277 43.7808L92.1507 35.2636C92.1751 35.1948 92.2243 35.1376 92.2887 35.1033C92.3532 35.069 92.4281 35.0601 92.4988 35.0783L93.3522 35.3254C93.4199 35.3451 93.4776 35.3895 93.514 35.4498C93.5504 35.5102 93.5628 35.582 93.5487 35.651L91.8251 44.0728C91.8138 44.1265 91.7863 44.1754 91.7465 44.2131C91.4124 44.5271 90.9799 44.7156 90.5225 44.7465ZM89.9611 43.8201C90.0039 43.909 90.0658 43.9874 90.1425 44.0495C90.2192 44.1117 90.3087 44.156 90.4046 44.1794C90.7264 44.1823 91.0366 44.0594 91.2692 43.837L92.9255 35.7914L92.583 35.6959L89.9611 43.8201Z" fill="#231F20"/>
<path d="M37.8698 24.596C32.8168 23.4731 27.2023 24.2591 23.1205 27.4032C21.3907 28.6658 20.0911 30.4299 19.3981 32.4563C19.0697 33.4744 18.9932 34.5569 19.1751 35.6111C19.357 36.6652 19.7919 37.6595 20.4424 38.5087C24.3164 43.1631 32.8224 43.1407 38.0832 41.6191C41.6708 40.5861 52.2934 35.5442 49.3683 30.5923C47.2629 27.0495 41.6596 25.4101 37.8698 24.596Z" fill="#FF5C64"/>
<path d="M31.4354 42.0404C28.0874 41.9433 24.818 41.0028 21.9301 39.3061C21.8981 39.2872 21.8703 39.2619 21.8484 39.2319C21.8264 39.2019 21.8108 39.1678 21.8024 39.1316C21.794 39.0954 21.793 39.0579 21.7995 39.0213C21.806 38.9847 21.8199 38.9498 21.8403 38.9187C21.8805 38.8563 21.9439 38.8123 22.0166 38.7965C22.0892 38.7807 22.1651 38.7944 22.2277 38.8345C22.295 38.8794 29.2402 43.197 35.8148 40.7041C38.9701 39.5082 40.8678 37.3859 42.6813 35.3367C44.6857 33.0909 46.5777 30.9686 49.8454 30.671C49.8823 30.6679 49.9194 30.6722 49.9546 30.6835C49.9899 30.6949 50.0225 30.7131 50.0507 30.7371C50.0789 30.7611 50.102 30.7904 50.1188 30.8234C50.1356 30.8564 50.1457 30.8924 50.1486 30.9293C50.1524 30.9659 50.1489 31.0029 50.1382 31.0381C50.1275 31.0733 50.1099 31.106 50.0863 31.1343C50.0628 31.1625 50.0338 31.1858 50.0011 31.2027C49.9684 31.2195 49.9326 31.2297 49.8959 31.2325C46.8529 31.5076 45.1124 33.4783 43.1024 35.7241C41.317 37.7284 39.2957 39.9967 36.0113 41.2431C34.5467 41.7832 32.9964 42.0534 31.4354 42.0404Z" fill="#231F20"/>
<path d="M21.4418 66.1434C21.4049 66.1419 21.3687 66.1332 21.3352 66.1178C21.3017 66.1023 21.2715 66.0804 21.2465 66.0533C21.2215 66.0261 21.202 65.9944 21.1893 65.9597C21.1766 65.9251 21.1708 65.8883 21.1723 65.8514C21.5821 56.9637 23.4181 44.1738 23.4181 44.0447C23.4305 43.9716 23.4708 43.9062 23.5305 43.8622C23.5902 43.8182 23.6646 43.7991 23.7381 43.8089C23.8108 43.82 23.8761 43.8592 23.9202 43.918C23.9643 43.9767 23.9836 44.0505 23.9739 44.1233C23.9739 44.2524 22.1155 57.0367 21.7281 65.8739C21.7252 65.9473 21.6936 66.0167 21.64 66.0671C21.5865 66.1175 21.5153 66.1449 21.4418 66.1434Z" fill="#231F20"/>
<path d="M64.4993 121.833H76.4301C76.4301 121.833 77.727 118.942 80.5231 118.543C80.5231 118.543 91.404 123.142 89.8038 124.085C88.2037 125.028 63.6571 124.927 63.6571 124.927L64.4993 121.833Z" fill="#231F20"/>
<path d="M66.1611 125.213H63.6514C63.6092 125.214 63.5675 125.204 63.5295 125.186C63.4915 125.167 63.4583 125.14 63.4325 125.107C63.4053 125.072 63.3867 125.032 63.3779 124.989C63.3691 124.946 63.3705 124.902 63.3819 124.86L64.2241 121.766C64.2403 121.706 64.2762 121.653 64.326 121.615C64.3758 121.577 64.4368 121.558 64.4992 121.558H76.256C76.5872 120.913 77.9403 118.633 80.4837 118.268C80.5313 118.254 80.582 118.254 80.6297 118.268C82.8754 119.212 90.1743 122.401 90.2473 123.793C90.2512 123.898 90.2253 124.003 90.1727 124.094C90.1201 124.185 90.0428 124.26 89.9497 124.31C88.5854 125.129 72.6683 125.213 66.1611 125.213ZM64.022 124.652C73.8642 124.68 88.5517 124.5 89.6634 123.844C89.6634 123.147 84.9079 120.705 80.4837 118.83C77.9347 119.245 76.6995 121.923 76.6883 121.951C76.6655 122.001 76.629 122.042 76.5832 122.071C76.5374 122.1 76.4842 122.115 76.43 122.114H64.7126L64.022 124.652Z" fill="#231F20"/>
<path d="M55.4824 94.2158C63.0789 92.6157 68.1712 89.0617 65.1843 84.2669C62.1974 79.4721 40.7444 82.5825 36.5504 79.0286C32.3563 75.4746 33.8554 56.6267 29.2515 53.3984C24.6476 50.1701 4.91267 46.908 2.70618 50.9842C0.499679 55.0603 2.70617 84.7217 9.13477 91.3075C15.5634 97.8933 48.0713 95.7429 55.4824 94.2158Z" fill="#231F20"/>
<path d="M33.1987 96.0967H31.9298C23.3958 96.0237 12.4756 95.1647 8.91036 91.5265C2.55475 84.9687 0.073148 55.2961 2.45931 50.8663C2.86917 50.1083 3.80679 49.5525 5.26656 49.1819C11.3695 47.7334 25.4787 50.3722 29.4089 53.1121C31.8849 54.847 32.6541 60.759 33.4008 66.4746C34.0802 71.6961 34.782 77.0916 36.7414 78.7591C38.6054 80.3424 44.3322 80.5726 49.8737 80.7972C56.6953 81.0723 63.7528 81.3586 65.4427 84.0648C66.4196 85.6369 66.6105 87.1528 66.0042 88.5564C64.8813 91.1503 61.1869 93.2333 55.5556 94.4179C51.6872 95.2713 42.2324 96.0967 33.1987 96.0967ZM9.53357 49.3672C8.1386 49.3424 6.74517 49.4723 5.37885 49.7546C4.09874 50.0578 3.27902 50.5238 2.95338 51.1358C0.774959 55.1614 3.14989 84.7722 9.33707 91.1278C15.6309 97.5901 47.9704 95.4791 55.4209 93.9351C60.7939 92.8122 64.4546 90.791 65.4708 88.3992C65.9986 87.164 65.8245 85.8221 64.9487 84.4129C63.4159 81.9538 56.5269 81.6786 49.8344 81.4092C43.9392 81.1733 38.3696 80.9488 36.3596 79.2363C34.2374 77.4285 33.5524 72.1677 32.8281 66.5981C32.1038 61.0285 31.3459 55.2119 29.0664 53.623C26.0346 51.4839 16.2654 49.3672 9.53357 49.3672Z" fill="#231F20"/>
<path d="M69.5804 78.7029H69.5354L51.4343 75.5364C51.3598 75.5237 51.2935 75.482 51.2498 75.4204C51.2061 75.3588 51.1886 75.2824 51.2013 75.2079C51.214 75.1335 51.2557 75.0671 51.3173 75.0234C51.3789 74.9797 51.4553 74.9623 51.5297 74.9749L69.6309 78.1415C69.7053 78.1482 69.7741 78.1842 69.822 78.2416C69.8699 78.299 69.893 78.373 69.8863 78.4475C69.8796 78.5219 69.8436 78.5907 69.7863 78.6386C69.7289 78.6865 69.6548 78.7096 69.5804 78.7029Z" fill="#D1D3D4"/>
<path d="M121.767 115.551L121.206 115.489C121.206 115.326 122.974 99.0724 117.349 91.8522L117.792 91.5097C120.218 94.6201 121.627 99.617 121.969 106.36C122.125 109.425 122.057 112.496 121.767 115.551Z" fill="#231F20"/>
<path d="M119.83 117.623C119.821 117.434 119.84 117.245 119.886 117.061C121.228 108.555 118.954 104.591 116.81 102.761L117.175 102.334C119.42 104.255 121.823 108.387 120.442 117.151C120.409 117.364 120.386 117.505 120.386 117.561L119.83 117.623Z" fill="#231F20"/>
<path d="M116.916 99.1509C116.462 98.8847 115.949 98.7343 115.423 98.713C114.956 98.6461 114.48 98.6758 114.025 98.8004C113.571 98.925 113.146 99.1418 112.778 99.4373C112.593 99.6169 112.43 99.9201 112.599 100.117C112.699 100.208 112.824 100.267 112.958 100.285C113.326 100.39 113.66 100.587 113.93 100.857C114.201 101.127 114.397 101.462 114.502 101.829C114.115 101.543 113.783 101.178 113.379 100.891C113.005 100.578 112.524 100.421 112.037 100.453C111.51 100.578 111.045 100.889 110.729 101.329C110.367 101.717 110.065 102.158 109.836 102.638C109.597 103.119 109.526 103.666 109.634 104.193C110.147 104.045 110.684 104.009 111.212 104.086C111.587 104.12 111.944 104.267 112.234 104.507C112.321 104.575 112.384 104.67 112.413 104.777C112.423 104.886 112.392 104.994 112.327 105.082C112.262 105.17 112.167 105.231 112.06 105.254C111.846 105.304 111.623 105.304 111.408 105.254C110.951 105.16 110.488 105.094 110.022 105.057C109.847 105.035 109.67 105.046 109.5 105.091C109.299 105.203 109.137 105.374 109.037 105.581C108.937 105.788 108.902 106.021 108.938 106.248C108.934 106.342 108.949 106.436 108.983 106.524C109.017 106.611 109.068 106.691 109.135 106.759C109.365 106.938 109.696 106.809 109.966 106.697C110.436 106.5 110.938 106.394 111.448 106.382C111.505 106.377 111.563 106.387 111.616 106.41C111.645 106.43 111.669 106.456 111.687 106.486C111.704 106.515 111.716 106.548 111.72 106.583C111.724 106.617 111.721 106.652 111.711 106.685C111.701 106.719 111.684 106.749 111.661 106.775C111.566 106.881 111.441 106.954 111.302 106.983C110.917 107.105 110.522 107.197 110.123 107.258C109.893 107.292 109.623 107.342 109.511 107.55C109.467 107.641 109.446 107.741 109.449 107.842C109.427 108.604 109.647 109.353 110.078 109.981C110.148 110.095 110.239 110.194 110.347 110.273C110.502 110.355 110.672 110.401 110.847 110.408C112.183 110.546 113.533 110.353 114.777 109.847C114.842 109.824 114.899 109.783 114.94 109.729C115.013 109.599 114.889 109.448 114.794 109.336C114.379 108.825 114.474 108.089 114.592 107.444C114.601 107.318 114.653 107.199 114.738 107.107C114.817 107.054 114.912 107.032 115.006 107.047C115.1 107.061 115.184 107.111 115.243 107.185C115.357 107.339 115.421 107.522 115.428 107.713C115.511 108.377 115.458 109.052 115.271 109.695C115.918 109.544 116.548 109.33 117.152 109.055C117.641 108.865 118.102 108.61 118.522 108.297C118.944 107.978 119.241 107.521 119.359 107.006C119.384 106.91 119.374 106.808 119.331 106.719C119.287 106.658 119.229 106.608 119.162 106.573C118.577 106.194 118.116 105.652 117.837 105.012C117.781 104.878 117.753 104.692 117.876 104.625C117.929 104.608 117.986 104.608 118.039 104.625C118.747 104.743 119.106 105.535 119.69 105.956C119.736 105.994 119.793 106.018 119.853 106.023C119.889 106.023 119.924 106.016 119.957 106.001C119.99 105.987 120.019 105.965 120.044 105.939C120.278 105.721 120.438 105.434 120.498 105.119C120.668 104.501 120.632 103.845 120.397 103.249C120.276 102.955 120.09 102.691 119.853 102.478C119.616 102.265 119.334 102.108 119.027 102.02C118.74 101.954 118.443 101.94 118.151 101.981C118.05 101.981 117.511 102.172 117.438 102.104C117.365 102.037 117.652 101.633 117.719 101.498C118.084 100.667 117.596 99.6001 116.916 99.1509Z" fill="#231F20"/>
<path d="M125.4 94.0699C124.959 94.0661 124.524 94.17 124.133 94.3726C123.741 94.5751 123.405 94.8702 123.154 95.2321C122.814 95.8192 122.676 96.5016 122.761 97.1747C122.849 97.8401 123.011 98.4936 123.244 99.123C123.461 98.7332 123.77 98.4023 124.143 98.1587C124.517 97.9151 124.944 97.7662 125.389 97.725C126.304 97.6464 125.237 98.5278 125.08 98.7131C124.563 99.3195 124.069 99.9427 123.581 100.572C123.438 100.729 123.342 100.924 123.306 101.133C123.304 101.359 123.371 101.58 123.497 101.767C123.877 102.609 124.455 103.347 125.181 103.918C125.279 104.004 125.4 104.061 125.529 104.082C125.658 104.102 125.79 104.087 125.911 104.036C126.024 103.941 126.11 103.816 126.158 103.676C126.426 103.112 126.776 102.59 127.196 102.127C127.298 102.009 127.46 101.891 127.589 101.975C127.719 102.059 127.696 102.188 127.685 102.312L127.567 103.564C127.489 104.015 127.516 104.478 127.646 104.917C127.943 105.714 128.842 106.113 129.678 106.27C129.906 106.332 130.146 106.332 130.374 106.27C130.823 106.113 131.009 105.58 131.087 105.108C131.176 104.49 131.43 103.908 131.823 103.424C131.925 104.239 132.186 105.027 132.592 105.742C132.795 106.127 133.076 106.466 133.417 106.736C133.78 106.994 134.197 107.167 134.636 107.242C135.376 107.375 136.131 107.416 136.882 107.365C137.401 107.371 137.919 107.305 138.42 107.169C138.925 107.027 139.358 106.7 139.633 106.253C140.076 105.456 139.734 104.429 139.161 103.721C138.588 103.014 137.813 102.486 137.218 101.795C137.961 102 138.652 102.359 139.245 102.851C139.315 102.931 139.401 102.996 139.498 103.04C139.595 103.085 139.7 103.108 139.807 103.109C139.906 103.088 139.996 103.037 140.065 102.963C140.952 102.076 139.93 100.577 139.459 99.7799C139.208 99.2126 138.761 98.7544 138.201 98.4885C137.869 98.4044 137.522 98.4044 137.19 98.4885C136.685 98.5727 134.181 99.7125 135.248 98.2134C135.535 97.8814 135.893 97.6177 136.295 97.4419C136.697 97.2661 137.133 97.1824 137.572 97.1972C138.004 97.2365 138.661 97.5846 138.65 96.7761C138.62 96.4864 138.507 96.2116 138.324 95.9845C137.977 95.4649 137.602 94.9645 137.202 94.4854C137.102 94.3386 136.952 94.233 136.78 94.1878C136.631 94.1824 136.484 94.2236 136.359 94.3057C135.335 94.926 134.204 95.3488 133.024 95.5522C132.755 95.5522 132.379 95.4679 132.424 95.204C132.45 95.108 132.513 95.0257 132.598 94.9739C133.311 94.4124 134.377 94.6538 135.107 94.1373C135.216 94.0682 135.308 93.976 135.377 93.8673C135.446 93.7587 135.49 93.6361 135.506 93.5085C135.506 93.1323 135.197 92.8347 134.894 92.6045C134.136 91.9467 133.208 91.5166 132.216 91.3637C130.739 91.2458 129.409 92.2171 128.415 93.3232C128.084 93.6994 127.853 94.6763 127.342 94.6145C127.02 94.5007 126.705 94.3675 126.399 94.2159C126.076 94.1149 125.739 94.0657 125.4 94.0699Z" fill="#231F20"/>
<path d="M118.247 86.2995C118.184 85.7311 117.923 85.2027 117.511 84.8061C116.759 84.1211 115.631 84.0874 114.626 84.2446C113.872 84.4055 113.132 84.6252 112.413 84.9015C111.689 85.1093 111.476 85.2721 112.121 85.8616C112.576 86.2715 113.806 87.7368 113.244 88.4387C112.683 89.1405 111.74 87.3494 111.375 87.0519C110.898 86.5871 110.266 86.3168 109.601 86.2939C109.018 86.3935 108.483 86.6769 108.073 87.1024C107.636 87.4894 107.22 87.8998 106.827 88.332C106.763 88.3937 106.714 88.4684 106.681 88.5509C106.591 88.8766 107.035 89.0675 107.366 89.1124C108.315 89.2864 109.376 89.7805 109.567 90.7238C108.59 90.9652 107.669 89.977 106.67 90.0837C106.307 90.171 105.971 90.3462 105.692 90.594C105.413 90.8417 105.199 91.1543 105.07 91.5042C104.8 92.1357 104.716 92.8311 104.828 93.5086C105.672 93.2159 106.575 93.1387 107.456 93.284C107.566 93.2903 107.669 93.3362 107.748 93.4131C107.788 93.4885 107.797 93.5766 107.773 93.6585C107.749 93.7404 107.693 93.8096 107.619 93.851C107.466 93.9273 107.294 93.9566 107.125 93.9352H105.496C105.337 93.9183 105.177 93.9559 105.042 94.0419C104.932 94.1553 104.868 94.3053 104.862 94.463C104.757 95.2073 104.747 95.9621 104.834 96.7088C104.847 97.1726 105.029 97.6156 105.345 97.9552C105.599 98.1471 105.895 98.2743 106.209 98.3258C107.032 98.5232 107.873 98.6286 108.719 98.6402C108.534 98.3807 108.414 98.0803 108.37 97.7645C108.326 97.4487 108.359 97.127 108.466 96.8267C108.803 96.0407 109.376 96.4955 109.404 97.2085C109.404 97.5454 109.342 97.8766 109.331 98.2135C109.325 98.2772 109.337 98.3412 109.365 98.3988C109.399 98.4426 109.443 98.4773 109.494 98.4998C109.94 98.7411 110.46 98.809 110.954 98.6907C111.094 98.6631 111.227 98.6036 111.341 98.5167C111.47 98.3633 111.558 98.1806 111.599 97.9847C111.641 97.7889 111.633 97.5859 111.577 97.3938L111.347 95.3669C111.334 95.3199 111.333 95.2705 111.342 95.2228C111.352 95.175 111.373 95.1302 111.403 95.0918C111.504 94.9908 111.684 95.0918 111.79 95.1704C111.997 95.3543 112.159 95.5828 112.264 95.8387C112.369 96.0946 112.414 96.371 112.397 96.6471C112.397 96.9671 112.262 97.2759 112.239 97.5903C112.216 97.7487 112.236 97.9104 112.295 98.0591C112.354 98.2079 112.451 98.3386 112.576 98.4381C112.71 98.5024 112.856 98.5395 113.004 98.5472C113.152 98.5549 113.301 98.5331 113.441 98.483C113.817 98.4283 114.163 98.2483 114.423 97.9721C114.534 97.7969 114.607 97.6008 114.639 97.3961C114.671 97.1914 114.661 96.9823 114.609 96.7818C114.497 96.3829 114.418 95.9754 114.373 95.5634C114.373 94.7325 115.226 93.5422 115.367 95.002C115.372 95.4787 115.344 95.9553 115.282 96.4281C115.268 96.4891 115.268 96.5524 115.282 96.6134C115.32 96.6626 115.368 96.7021 115.424 96.7285C115.48 96.7549 115.541 96.7674 115.602 96.765C116.263 96.8227 116.926 96.6943 117.517 96.3944C117.924 96.1965 118.282 95.9085 118.561 95.5522C118.769 95.2596 118.944 94.9452 119.083 94.6146C119.763 93.1717 120.846 92.0432 119.583 90.4992C119.151 89.9714 118.348 89.831 117.944 89.2921C117.466 88.652 118.202 87.6358 118.23 86.8329C118.249 86.6558 118.255 86.4775 118.247 86.2995Z" fill="#231F20"/>
<path d="M114.199 113.867H128.516L127.393 124.613C127.312 125.402 126.941 126.133 126.352 126.664C125.763 127.195 124.997 127.489 124.204 127.487H118.483C117.69 127.487 116.926 127.193 116.338 126.662C115.75 126.131 115.38 125.401 115.299 124.613L114.199 113.867Z" fill="white"/>
<path d="M124.226 127.785H118.483C117.617 127.786 116.782 127.466 116.14 126.886C115.497 126.306 115.094 125.508 115.007 124.646L113.884 113.9C113.879 113.821 113.905 113.742 113.957 113.681C113.985 113.651 114.019 113.627 114.057 113.61C114.094 113.594 114.135 113.585 114.176 113.586H128.493C128.534 113.585 128.574 113.593 128.611 113.61C128.647 113.626 128.68 113.651 128.707 113.681C128.735 113.71 128.756 113.744 128.768 113.782C128.781 113.82 128.785 113.861 128.78 113.9L127.657 124.646C127.572 125.5 127.175 126.293 126.542 126.872C125.909 127.452 125.084 127.777 124.226 127.785ZM114.519 114.164L115.586 124.59C115.658 125.308 115.995 125.973 116.53 126.457C117.065 126.94 117.761 127.207 118.483 127.207H124.226C124.948 127.207 125.644 126.94 126.179 126.457C126.714 125.973 127.051 125.308 127.123 124.59L128.196 114.164H114.519Z" fill="#231F20"/>
<path d="M123.345 114.063C123.345 113.962 122.222 103.676 127.275 95.3893L127.758 95.6813C122.811 103.8 123.912 113.895 123.923 113.996L123.345 114.063Z" fill="#231F20"/>
<path d="M110.342 94.5527C110.271 94.5512 110.202 94.5232 110.151 94.4741C110.125 94.448 110.104 94.417 110.089 94.3828C110.075 94.3486 110.068 94.3119 110.068 94.2748C110.068 94.2378 110.075 94.2011 110.089 94.1669C110.104 94.1327 110.125 94.1016 110.151 94.0755C113.082 90.9875 117.697 89.1067 117.893 89.0225C117.962 88.9949 118.04 88.996 118.108 89.0255C118.177 89.055 118.231 89.1104 118.258 89.1797C118.286 89.2489 118.285 89.3263 118.255 89.3947C118.226 89.4631 118.17 89.5171 118.101 89.5446C118.056 89.5446 113.402 91.4535 110.555 94.4573C110.528 94.4876 110.496 94.5118 110.459 94.5283C110.422 94.5448 110.382 94.5531 110.342 94.5527Z" fill="white"/>
<path d="M112.318 108.859C112.27 108.858 112.223 108.845 112.181 108.822C112.139 108.798 112.105 108.764 112.08 108.723C112.055 108.682 112.041 108.635 112.04 108.587C112.038 108.539 112.049 108.491 112.071 108.449C113.136 106.448 114.486 104.614 116.08 103.003C116.105 102.976 116.136 102.956 116.17 102.942C116.203 102.927 116.24 102.92 116.276 102.92C116.313 102.92 116.349 102.927 116.383 102.942C116.417 102.956 116.447 102.976 116.473 103.003C116.524 103.055 116.553 103.126 116.553 103.199C116.553 103.273 116.524 103.343 116.473 103.396C114.926 104.968 113.613 106.755 112.576 108.701C112.552 108.749 112.515 108.789 112.47 108.817C112.424 108.845 112.371 108.859 112.318 108.859Z" fill="white"/>
<path d="M136.191 104.883C136.145 104.883 136.099 104.872 136.058 104.85C136.017 104.829 135.982 104.798 135.955 104.76C135.82 104.552 132.586 99.7069 128.752 96.8435C128.692 96.7988 128.653 96.7323 128.642 96.6586C128.632 96.5849 128.651 96.51 128.696 96.4505C128.741 96.3921 128.807 96.3537 128.881 96.3432C128.954 96.3327 129.029 96.3511 129.089 96.3943C132.918 99.2858 136.073 103.929 136.421 104.445C136.462 104.507 136.476 104.583 136.462 104.655C136.447 104.728 136.404 104.792 136.342 104.833C136.299 104.865 136.246 104.883 136.191 104.883Z" fill="white"/>
<path d="M134.703 7.3595H100.617V31.2885H134.703V7.3595Z" fill="white"/>
<path d="M134.697 31.5693H100.617C100.543 31.5693 100.472 31.5397 100.419 31.4871C100.366 31.4344 100.337 31.363 100.337 31.2886V7.35958C100.337 7.28513 100.366 7.21373 100.419 7.16108C100.472 7.10843 100.543 7.07886 100.617 7.07886H134.697C134.772 7.07886 134.843 7.10843 134.896 7.16108C134.949 7.21373 134.978 7.28513 134.978 7.35958V31.2886C134.978 31.363 134.949 31.4344 134.896 31.4871C134.843 31.5397 134.772 31.5693 134.697 31.5693ZM100.898 31.0078H134.417V7.64031H100.898V31.0078Z" fill="#D1D3D4"/>
<path d="M122.615 54.0047C122.548 54.0044 122.483 53.9807 122.432 53.9376C122.381 53.8945 122.346 53.8348 122.334 53.7689L120.953 44.8081L118.539 45.8749C118.505 45.8898 118.468 45.8978 118.431 45.8985C118.394 45.8992 118.358 45.8926 118.323 45.879C118.289 45.8654 118.257 45.8452 118.231 45.8194C118.204 45.7937 118.183 45.7629 118.168 45.7289C118.154 45.6954 118.146 45.6593 118.145 45.6227C118.144 45.5861 118.151 45.5498 118.165 45.5158C118.178 45.4818 118.198 45.4508 118.224 45.4248C118.25 45.3987 118.28 45.378 118.314 45.364L121.071 44.1737C121.109 44.1544 121.152 44.1444 121.194 44.1444C121.237 44.1444 121.28 44.1544 121.318 44.1737C121.356 44.1942 121.389 44.223 121.414 44.258C121.439 44.293 121.456 44.3333 121.464 44.3758L122.901 53.6678C122.908 53.7044 122.907 53.7419 122.898 53.7781C122.89 53.8142 122.874 53.8483 122.852 53.8782C122.83 53.9081 122.802 53.9332 122.77 53.9521C122.738 53.9709 122.702 53.9831 122.665 53.9878L122.615 54.0047Z" fill="#231F20"/>
<path d="M127.376 63.6225H120.347L119.965 48.4915H127.758L127.376 63.6225Z" fill="white"/>
<path d="M127.376 63.8975H120.347C120.274 63.8975 120.205 63.8695 120.152 63.8193C120.1 63.769 120.069 63.7005 120.066 63.628L119.662 48.5025C119.661 48.4275 119.689 48.3549 119.74 48.3004C119.793 48.2451 119.866 48.2128 119.943 48.2106H127.735C127.811 48.2148 127.881 48.2473 127.933 48.3014C127.985 48.3556 128.015 48.4274 128.016 48.5025L127.634 63.6617C127.624 63.7244 127.593 63.7819 127.547 63.8247C127.5 63.8675 127.44 63.8932 127.376 63.8975ZM120.639 63.336H127.118L127.483 48.7664H120.251L120.639 63.336Z" fill="#231F20"/>
<path d="M128.471 46.9586H119.252V48.4914H128.471V46.9586Z" fill="white"/>
<path d="M128.471 48.7721H119.252C119.177 48.7721 119.106 48.7425 119.053 48.6898C119.001 48.6372 118.971 48.5658 118.971 48.4913V46.9586C118.971 46.8841 119.001 46.8127 119.053 46.7601C119.106 46.7074 119.177 46.6779 119.252 46.6779H128.471C128.545 46.6779 128.617 46.7074 128.669 46.7601C128.722 46.8127 128.752 46.8841 128.752 46.9586V48.4913C128.752 48.5658 128.722 48.6372 128.669 48.6898C128.617 48.7425 128.545 48.7721 128.471 48.7721ZM119.533 48.2106H128.19V47.2393H119.533V48.2106Z" fill="#231F20"/>
<path d="M124.013 58.5131C123.338 58.5707 122.66 58.4231 122.07 58.0897C121.48 57.7563 121.004 57.2526 120.704 56.6443C120.405 56.036 120.296 55.3516 120.392 54.6804C120.488 54.0093 120.784 53.3827 121.241 52.8825C121.699 52.3823 122.297 52.0319 122.957 51.877C123.617 51.722 124.308 51.7699 124.941 52.0142C125.573 52.2586 126.117 52.6881 126.502 53.2465C126.886 53.805 127.093 54.4664 127.095 55.1444C127.132 55.9995 126.828 56.8342 126.25 57.4656C125.673 58.0971 124.868 58.4737 124.013 58.5131ZM124.013 52.3652C123.449 52.3074 122.881 52.4216 122.383 52.6929C121.886 52.9641 121.482 53.3797 121.225 53.8849C120.968 54.39 120.87 54.9612 120.943 55.5232C121.017 56.0852 121.259 56.6117 121.638 57.0334C122.017 57.4552 122.514 57.7524 123.065 57.886C123.616 58.0195 124.194 57.9833 124.724 57.7819C125.254 57.5805 125.71 57.2234 126.034 56.7576C126.357 56.2919 126.531 55.7392 126.534 55.1724C126.571 54.4662 126.326 53.7741 125.853 53.248C125.381 52.7218 124.719 52.4043 124.013 52.3652Z" fill="#D1D3D4"/>
<path d="M110.623 26.55C109.934 26.5457 109.251 26.4281 108.601 26.2019C107.751 25.9347 106.93 25.585 106.148 25.1576C105.957 25.0509 105.772 24.9274 105.586 24.8039C105.117 24.5007 104.716 24.1047 104.406 23.6402C104.096 23.1757 103.884 22.6527 103.784 22.1033C103.711 21.7 103.779 21.284 103.975 20.9243C104.286 20.4977 104.716 20.1717 105.21 19.9866C105.539 19.8506 105.842 19.6609 106.108 19.4252C106.67 18.8244 106.451 17.9486 106.226 17.0222C106.165 16.7864 106.108 16.5562 106.064 16.3316C105.922 15.614 105.945 14.8736 106.129 14.1659C106.314 13.4581 106.656 12.8012 107.13 12.2443C107.649 11.6649 108.297 11.216 109.022 10.9341C109.747 10.6522 110.528 10.5451 111.302 10.6217C113.48 10.8687 115.198 11.9186 116.018 13.4963C116.376 14.2332 116.543 15.0486 116.503 15.867C116.463 16.6855 116.217 17.4806 115.788 18.1788C115.484 18.6067 115.313 19.1142 115.294 19.6385C115.408 20.1011 115.651 20.5217 115.996 20.8513C116.395 21.2574 116.678 21.7635 116.815 22.3167C116.95 23.2374 116.344 24.1189 114.963 25.0116C113.699 25.941 112.189 26.4762 110.623 26.55ZM106.428 24.6635C107.178 25.0753 107.966 25.412 108.781 25.6685C111.15 26.477 113.009 25.5955 114.665 24.5456C115.844 23.7764 116.349 23.0802 116.265 22.4009C116.14 21.9507 115.9 21.5406 115.569 21.2106C115.153 20.7979 114.866 20.2731 114.744 19.7003C114.736 19.0753 114.923 18.4634 115.277 17.9486C115.669 17.3272 115.897 16.6167 115.94 15.8834C115.983 15.15 115.84 14.4176 115.524 13.7546C114.794 12.3453 113.233 11.4077 111.246 11.1775C110.561 11.1092 109.87 11.2038 109.229 11.4536C108.588 11.7034 108.015 12.1013 107.557 12.6148C107.14 13.1076 106.839 13.688 106.676 14.3129C106.514 14.9379 106.495 15.5914 106.619 16.2249C106.664 16.4383 106.72 16.6629 106.777 16.8874C107.018 17.87 107.293 18.9873 106.524 19.807C106.214 20.0997 105.855 20.3354 105.463 20.5032C105.069 20.6465 104.722 20.8974 104.463 21.2274C104.333 21.4795 104.291 21.7684 104.346 22.0472C104.439 22.519 104.627 22.9671 104.899 23.3646C105.17 23.762 105.518 24.1007 105.923 24.3603C106.086 24.4792 106.255 24.5897 106.428 24.6916V24.6635Z" fill="#D1D3D4"/>
<path d="M125.911 26.3872C124.47 26.3678 123.046 26.0724 121.717 25.5169L121.436 25.4046C120.85 25.0699 120.183 24.9061 119.509 24.9319C118.835 24.9577 118.182 25.1721 117.624 25.5506C117.01 25.8676 116.351 26.0891 115.67 26.2075C114.909 26.2742 114.143 26.15 113.442 25.846C112.741 25.5421 112.127 25.0681 111.655 24.467C110.842 23.5578 110.307 22.4329 110.117 21.2275C110.003 20.5022 110.125 19.7595 110.463 19.108C110.801 18.4564 111.339 17.9302 111.998 17.6061C113.301 17.0447 114.687 17.4321 116.035 17.8138C117.001 18.1595 118.025 18.3158 119.05 18.2742C119.836 18.1425 120.595 17.8807 121.296 17.4994C121.755 17.2709 122.227 17.0703 122.71 16.8987C124.956 16.1519 129.296 16.8987 131.003 18.7739C131.463 19.256 131.791 19.8494 131.953 20.496C132.116 21.1425 132.107 21.8202 131.929 22.4626C131.674 23.3027 131.219 24.0679 130.601 24.692C129.984 25.3162 129.224 25.7805 128.387 26.0447C127.585 26.2884 126.749 26.404 125.911 26.3872ZM119.695 24.366H119.83C120.464 24.4284 121.081 24.6014 121.655 24.8769L121.924 24.9892C123.887 25.8754 126.097 26.0482 128.173 25.4776C128.921 25.2439 129.601 24.832 130.155 24.2775C130.708 23.723 131.119 23.0424 131.351 22.2942C131.502 21.7411 131.508 21.1583 131.367 20.6025C131.226 20.0466 130.944 19.5366 130.548 19.122C129.01 17.4377 124.906 16.7134 122.851 17.404C122.389 17.5632 121.937 17.7507 121.498 17.9654C120.751 18.3788 119.941 18.6653 119.1 18.8132C118.001 18.8622 116.903 18.6983 115.866 18.3304C114.564 17.9598 113.329 17.6061 112.211 18.1002C111.669 18.3808 111.228 18.8254 110.953 19.3708C110.678 19.9162 110.582 20.5344 110.679 21.1376C110.859 22.2405 111.355 23.2678 112.105 24.0965C112.7 24.7646 113.946 25.865 115.631 25.6517C116.253 25.5372 116.854 25.3309 117.416 25.0397C118.119 24.6539 118.896 24.4241 119.695 24.366Z" fill="#D1D3D4"/>
<path d="M125.114 22.1819C124.739 22.2056 124.365 22.1424 124.019 21.9973C123.673 21.8522 123.366 21.629 123.12 21.3453C122.847 21.0719 122.532 20.8428 122.188 20.6659C121.777 20.4714 121.334 20.3517 120.88 20.3122C120.476 20.301 120.079 20.2053 119.715 20.0312C119.35 19.8571 119.026 19.6086 118.764 19.3016C118.471 18.922 118.264 18.4837 118.156 18.0166C118.049 17.5496 118.043 17.0648 118.14 16.5954C118.259 15.9802 118.505 15.3966 118.863 14.8822C119.221 14.3678 119.682 13.934 120.218 13.6085C123.177 11.868 128.668 13.6815 130.459 16.253C131.093 17.1625 131.817 18.9648 129.56 20.7895C128.374 21.6693 126.944 22.1597 125.467 22.1931L125.114 22.1819ZM123.092 13.4569C122.191 13.4274 121.298 13.6366 120.504 14.0633C120.038 14.3481 119.637 14.7269 119.326 15.1754C119.015 15.624 118.8 16.1324 118.696 16.6684C118.612 17.0574 118.614 17.46 118.703 17.848C118.791 18.236 118.963 18.6 119.207 18.9142C119.426 19.1649 119.695 19.3665 119.997 19.5058C120.298 19.6452 120.626 19.7191 120.959 19.7227C121.933 19.7831 122.846 20.2176 123.508 20.9354C123.74 21.2089 124.041 21.4151 124.379 21.5326C124.718 21.6501 125.082 21.6746 125.434 21.6036C126.79 21.5645 128.104 21.1206 129.207 20.3291C130.638 19.1669 130.891 17.8587 129.998 16.5505C128.797 14.8213 125.709 13.4569 123.092 13.4569Z" fill="#D1D3D4"/>
<path d="M39.4306 20.1382C39.4306 20.1382 41.2441 18.6672 39.4306 16.7695H36.5054C36.5054 16.7695 37.1343 19.2231 36.5054 20.1382H39.4306Z" fill="#231F20"/>
<path d="M39.4305 20.4188H36.5054C36.4536 20.4182 36.4029 20.4039 36.3585 20.3772C36.3141 20.3506 36.2776 20.3126 36.2527 20.2672C36.2265 20.223 36.2127 20.1726 36.2127 20.1212C36.2127 20.0699 36.2265 20.0194 36.2527 19.9753C36.7075 19.3184 36.3763 17.4936 36.2078 16.848C36.1991 16.8055 36.199 16.7617 36.2077 16.7193C36.2164 16.6768 36.2336 16.6366 36.2583 16.6009C36.2854 16.5674 36.3196 16.5404 36.3585 16.522C36.3973 16.5035 36.4399 16.494 36.4829 16.4943H39.4081C39.4835 16.4967 39.5554 16.5267 39.6102 16.5785C39.8934 16.8365 40.1188 17.1514 40.2717 17.5027C40.4245 17.8539 40.5014 18.2335 40.4973 18.6165C40.4265 19.2913 40.1013 19.9137 39.5877 20.357C39.5427 20.393 39.488 20.4145 39.4305 20.4188ZM36.9433 19.8573H39.3182C39.6698 19.5177 39.8888 19.0638 39.9358 18.5772C39.9371 18.2931 39.8805 18.0117 39.7695 17.7501C39.6585 17.4885 39.4954 17.2523 39.2902 17.0557H36.8423C37.0789 17.9712 37.1134 18.9272 36.9433 19.8573Z" fill="#231F20"/>
<path d="M37.8416 19.0266C37.8841 18.6992 37.8488 18.3664 37.7386 18.0552C37.6283 17.744 37.4463 17.4632 37.2072 17.2356C36.9927 16.9565 36.7458 16.704 36.4717 16.4832C35.9452 16.1409 35.3552 15.9079 34.7368 15.7983C33.3725 15.467 31.7779 15.8881 30.3855 15.9162C28.8899 15.9445 27.4039 15.6695 26.0175 15.1077C25.5411 14.9468 25.1139 14.6665 24.7767 14.2936C24.4286 16.3316 24.4735 18.5774 25.6469 20.2899C26.6412 21.5825 28.0157 22.5309 29.5771 23.0017C30.615 23.4204 31.7455 23.5563 32.8532 23.3955C33.9608 23.2348 35.006 22.7831 35.8821 22.0865C36.6828 21.482 37.3007 20.6678 37.6676 19.734C37.7489 19.5046 37.8072 19.2676 37.8416 19.0266Z" fill="white"/>
<path d="M32.0082 23.7315C31.1382 23.7228 30.276 23.5652 29.4592 23.2654C27.8456 22.7777 26.4258 21.7958 25.3999 20.4582C24.35 18.9254 24.0468 16.8425 24.4904 14.2823C24.5002 14.229 24.525 14.1796 24.5617 14.1399C24.5985 14.1001 24.6458 14.0716 24.6981 14.0577C24.7505 14.0446 24.8056 14.0472 24.8565 14.0651C24.9074 14.0831 24.9519 14.1157 24.9845 14.1587C25.2928 14.491 25.6785 14.7417 26.1074 14.8886C27.4732 15.4116 28.9294 15.6578 30.3912 15.6129C30.8516 15.6129 31.3288 15.5511 31.8341 15.495C32.8205 15.3236 33.8291 15.3236 34.8154 15.495C35.4722 15.6116 36.0986 15.8599 36.657 16.2249C36.9435 16.4635 37.205 16.7306 37.4374 17.0221C37.7023 17.2806 37.9027 17.5976 38.0227 17.9477C38.1426 18.2978 38.1787 18.6712 38.128 19.0377C38.086 19.2989 38.0163 19.5548 37.9203 19.8013C37.5329 20.7823 36.8844 21.6386 36.045 22.2773C34.9045 23.208 33.4802 23.7211 32.0082 23.7315ZM24.962 14.8662C24.67 17.0558 24.962 18.7963 25.8659 20.1269C26.8214 21.3735 28.1455 22.2871 29.6501 22.7377C30.6445 23.1374 31.7269 23.2674 32.7877 23.1146C33.8485 22.9618 34.8501 22.5316 35.6913 21.8674C36.4479 21.2872 37.0305 20.5104 37.3757 19.6216C37.4586 19.4111 37.5206 19.193 37.5609 18.9704C37.5969 18.6827 37.5648 18.3906 37.4673 18.1175C37.3698 17.8445 37.2095 17.5981 36.9995 17.3983C36.7913 17.1536 36.558 16.9316 36.3033 16.7358C35.8056 16.4191 35.2504 16.2035 34.6695 16.1014C33.7405 15.9416 32.7911 15.9416 31.8622 16.1014C31.3681 16.1519 30.8516 16.208 30.3688 16.2193C28.8317 16.2439 27.305 15.9634 25.8772 15.3939C25.5521 15.2551 25.2449 15.078 24.962 14.8662Z" fill="#231F20"/>
<path d="M96.3392 4.3894H72.5V20.1325H96.3392V4.3894Z" fill="white"/>
<path d="M96.3391 20.419H72.4999C72.4254 20.419 72.354 20.3894 72.3014 20.3368C72.2488 20.2841 72.2192 20.2127 72.2192 20.1383V4.384C72.2192 4.30954 72.2488 4.23814 72.3014 4.18549C72.354 4.13285 72.4254 4.10327 72.4999 4.10327H96.3391C96.4131 4.10471 96.4836 4.13475 96.536 4.18708C96.5883 4.23942 96.6183 4.30999 96.6198 4.384V20.1383C96.6183 20.2123 96.5883 20.2828 96.536 20.3352C96.4836 20.3875 96.4131 20.4176 96.3391 20.419ZM72.7582 19.8575H96.0808V4.67033H72.7806L72.7582 19.8575Z" fill="#D1D3D4"/>
<path d="M96.3392 20.1381H72.5V23.2541H96.3392V20.1381Z" fill="white"/>
<path d="M96.3391 23.5349H72.4999C72.4254 23.5349 72.354 23.5053 72.3014 23.4527C72.2488 23.4001 72.2192 23.3286 72.2192 23.2542V20.1381C72.2192 20.0637 72.2488 19.9923 72.3014 19.9396C72.354 19.887 72.4254 19.8574 72.4999 19.8574H96.3391C96.4135 19.8574 96.4849 19.887 96.5376 19.9396C96.5902 19.9923 96.6198 20.0637 96.6198 20.1381V23.2542C96.6198 23.3286 96.5902 23.4001 96.5376 23.4527C96.4849 23.5053 96.4135 23.5349 96.3391 23.5349ZM72.7582 22.9735H96.0808V20.4189H72.7806L72.7582 22.9735Z" fill="#D1D3D4"/>
<path d="M75.2285 16.472C75.175 16.4741 75.1219 16.4605 75.076 16.4329C75.03 16.4052 74.9931 16.3648 74.9699 16.3164C74.9466 16.2681 74.938 16.2141 74.945 16.1609C74.9521 16.1077 74.9745 16.0578 75.0096 16.0172C75.2791 15.6804 81.747 7.74707 87.7769 8.2243C90.18 8.4152 91.8194 9.67284 92.1675 11.593C92.3245 12.4151 92.2053 13.266 91.8286 14.0133C91.4519 14.7607 90.8387 15.3625 90.0845 15.7253C88.4002 16.5057 86.8393 16.4945 85.7501 15.6916C85.2776 15.3144 84.9192 14.8132 84.715 14.2442C84.5108 13.6751 84.4687 13.0605 84.5935 12.4689C84.6159 11.9581 84.7974 11.4671 85.1124 11.0644C85.4275 10.6618 85.8605 10.3676 86.3509 10.2231C86.859 10.0891 87.3938 10.094 87.8994 10.2372C88.4051 10.3804 88.863 10.6567 89.2255 11.0372C89.392 11.2207 89.4989 11.4505 89.532 11.6961C89.565 11.9418 89.5228 12.1916 89.4108 12.4127C88.9841 13.238 88.4788 13.6704 87.9061 13.6928C86.9909 13.6928 86.3172 12.6541 86.2891 12.6092C86.2697 12.5776 86.2569 12.5424 86.2512 12.5057C86.2455 12.4691 86.2471 12.4316 86.256 12.3956C86.2649 12.3596 86.2808 12.3257 86.3029 12.2959C86.3249 12.266 86.3527 12.2409 86.3845 12.2218C86.4158 12.2026 86.4505 12.1898 86.4867 12.1842C86.523 12.1786 86.56 12.1803 86.5955 12.1892C86.6311 12.1981 86.6645 12.214 86.6939 12.236C86.7232 12.258 86.7478 12.2856 86.7663 12.3173C86.9123 12.5475 87.3783 13.1594 87.8892 13.1314C88.4002 13.1033 88.6865 12.5699 88.9111 12.1545C88.9731 12.0303 88.9945 11.8898 88.9723 11.7528C88.9502 11.6158 88.8855 11.4892 88.7876 11.3909C88.4957 11.0942 88.1308 10.8798 87.7295 10.7694C87.3283 10.659 86.905 10.6564 86.5025 10.7621C86.1193 10.8803 85.7828 11.1155 85.5402 11.4347C85.2975 11.7539 85.1608 12.1411 85.1494 12.5419C85.0415 13.0325 85.0715 13.5434 85.236 14.018C85.4005 14.4926 85.6931 14.9125 86.0814 15.2312C86.9965 15.9105 88.3721 15.9049 89.8487 15.2312C90.4916 14.9169 91.0116 14.3976 91.3267 13.7551C91.6419 13.1127 91.7342 12.3836 91.5892 11.6828C91.2916 10.0378 89.8431 8.95419 87.7096 8.78575C81.9996 8.31414 75.5093 16.2867 75.4475 16.3709C75.4206 16.4027 75.387 16.4282 75.3492 16.4456C75.3114 16.4631 75.2702 16.4721 75.2285 16.472Z" fill="#D1D3D4"/>
<path d="M84.5375 34.7751H75.3522C75.2777 34.7751 75.2063 34.7455 75.1537 34.6929C75.101 34.6402 75.0715 34.5688 75.0715 34.4944V27.1955C75.0715 27.1211 75.101 27.0497 75.1537 26.997C75.2063 26.9444 75.2777 26.9148 75.3522 26.9148H84.5375C84.612 26.9148 84.6834 26.9444 84.736 26.997C84.7887 27.0497 84.8182 27.1211 84.8182 27.1955V34.4944C84.8182 34.5688 84.7887 34.6402 84.736 34.6929C84.6834 34.7455 84.612 34.7751 84.5375 34.7751ZM75.6329 34.2136H84.2568V27.4762H75.6329V34.2136Z" fill="#D1D3D4"/>
<path d="M79.9448 28.5263C79.8703 28.5263 79.7989 28.4967 79.7463 28.4441C79.6936 28.3914 79.6641 28.32 79.6641 28.2456V26.4995C79.6641 26.425 79.6936 26.3536 79.7463 26.301C79.7989 26.2483 79.8703 26.2188 79.9448 26.2188C80.0192 26.2188 80.0906 26.2483 80.1433 26.301C80.1959 26.3536 80.2255 26.425 80.2255 26.4995V28.2344C80.227 28.2722 80.2209 28.3099 80.2075 28.3452C80.194 28.3806 80.1736 28.4129 80.1474 28.4402C80.1212 28.4674 80.0897 28.4891 80.0549 28.5039C80.0201 28.5187 79.9826 28.5263 79.9448 28.5263Z" fill="#D1D3D4"/>
</svg>
