<svg width="207" height="155" viewBox="0 0 207 155" fill="none" xmlns="http://www.w3.org/2000/svg">
<path d="M117.845 129.756C116.543 129.77 115.247 129.596 113.995 129.239C110.693 128.247 107.738 125.483 105.896 121.665C104.245 118.244 103.583 114.478 102.946 110.815C102.94 110.782 102.94 110.748 102.947 110.716C102.954 110.683 102.967 110.652 102.987 110.625C103.006 110.598 103.031 110.575 103.06 110.558C103.088 110.541 103.12 110.53 103.153 110.525C103.186 110.519 103.219 110.52 103.251 110.527C103.283 110.534 103.313 110.547 103.34 110.566C103.367 110.584 103.39 110.608 103.408 110.636C103.425 110.664 103.437 110.694 103.443 110.727C104.074 114.343 104.726 118.074 106.346 121.432C108.132 125.126 110.973 127.787 114.14 128.743C116.443 129.43 118.953 129.26 121.323 128.981C126.399 128.381 129.494 126.811 130.793 124.186C130.84 124.083 130.886 123.99 130.917 123.902C130.105 124.129 129.303 124.418 128.516 124.713C127.864 124.951 127.191 125.193 126.518 125.405C123.244 126.431 119.771 126.658 116.391 126.067C114.761 125.777 113.767 124.992 113.731 123.969C113.695 122.946 114.58 122.13 116.158 121.675C120.483 120.42 125.064 120.336 129.432 121.432C130.674 121.742 131.357 122.259 131.502 123.008C131.517 123.09 131.528 123.173 131.533 123.256C131.73 123.209 131.926 123.168 132.128 123.132C134.229 122.76 136.423 122.972 138.545 123.173C141.557 123.463 144.403 123.736 146.97 122.476C147.03 122.447 147.1 122.444 147.163 122.466C147.226 122.488 147.277 122.535 147.306 122.595C147.321 122.624 147.33 122.656 147.333 122.689C147.335 122.722 147.331 122.755 147.32 122.786C147.31 122.818 147.293 122.847 147.271 122.871C147.249 122.896 147.222 122.916 147.193 122.93C144.496 124.248 141.448 123.964 138.499 123.674C136.429 123.473 134.25 123.266 132.216 123.628C131.968 123.669 131.699 123.726 131.476 123.783C131.415 124.012 131.33 124.233 131.222 124.444C129.846 127.234 126.617 128.893 121.364 129.518C120.197 129.667 119.022 129.746 117.845 129.756ZM123.243 121.158C120.893 121.159 118.555 121.491 116.298 122.145C115.666 122.326 114.197 122.874 114.228 123.943C114.259 125.013 115.951 125.493 116.469 125.56C119.767 126.148 123.157 125.939 126.358 124.951C127.02 124.744 127.688 124.501 128.33 124.269C129.215 123.943 130.115 123.612 131.041 123.37C131.052 123.282 131.052 123.194 131.041 123.106C130.922 122.558 130.358 122.171 129.318 121.907C127.332 121.409 125.291 121.157 123.243 121.158Z" fill="#E6E7E8"/>
<path d="M178.791 50.6849H145.107C143.747 50.6849 142.644 51.786 142.644 53.1443V125.064C142.644 126.423 143.747 127.524 145.107 127.524H178.791C180.152 127.524 181.254 126.423 181.254 125.064V53.1443C181.254 51.786 180.152 50.6849 178.791 50.6849Z" fill="white"/>
<path d="M178.791 127.772H145.107C144.388 127.77 143.699 127.485 143.191 126.977C142.683 126.47 142.397 125.782 142.395 125.064V53.1392C142.397 52.4216 142.683 51.7338 143.191 51.2264C143.699 50.7189 144.388 50.4333 145.107 50.4319H178.791C179.511 50.4319 180.201 50.717 180.71 51.2245C181.22 51.7321 181.507 52.4207 181.508 53.1392V125.064C181.507 125.783 181.22 126.471 180.71 126.979C180.201 127.487 179.511 127.772 178.791 127.772ZM145.107 50.9331C144.521 50.9331 143.959 51.1655 143.544 51.5792C143.13 51.993 142.897 52.5541 142.897 53.1392V125.064C142.897 125.649 143.13 126.211 143.544 126.624C143.959 127.038 144.521 127.271 145.107 127.271H178.791C179.377 127.271 179.939 127.038 180.354 126.624C180.768 126.211 181.001 125.649 181.001 125.064V53.1392C181.001 52.5541 180.768 51.993 180.354 51.5792C179.939 51.1655 179.377 50.9331 178.791 50.9331H145.107Z" fill="#231F20"/>
<path d="M179.226 57.6342H144.672V116.767H179.226V57.6342Z" fill="#FF5C64"/>
<path d="M165.238 119.644H158.66C157.826 119.644 157.149 120.32 157.149 121.153V123.669C157.149 124.503 157.826 125.178 158.66 125.178H165.238C166.072 125.178 166.749 124.503 166.749 123.669V121.153C166.749 120.32 166.072 119.644 165.238 119.644Z" fill="white"/>
<path d="M165.233 125.426H158.666C158.198 125.426 157.749 125.24 157.418 124.91C157.087 124.58 156.901 124.131 156.901 123.664V121.158C156.901 120.691 157.087 120.243 157.418 119.913C157.749 119.582 158.198 119.396 158.666 119.396H165.233C165.465 119.396 165.695 119.441 165.91 119.529C166.124 119.617 166.319 119.747 166.484 119.911C166.648 120.074 166.779 120.269 166.868 120.483C166.957 120.697 167.002 120.927 167.002 121.158V123.664C167.001 124.132 166.814 124.58 166.482 124.91C166.15 125.241 165.701 125.426 165.233 125.426ZM158.666 119.898C158.331 119.898 158.009 120.03 157.773 120.267C157.536 120.503 157.403 120.824 157.403 121.158V123.664C157.403 123.999 157.536 124.319 157.773 124.556C158.009 124.792 158.331 124.925 158.666 124.925H165.233C165.568 124.925 165.889 124.792 166.125 124.556C166.362 124.319 166.495 123.999 166.495 123.664V121.158C166.495 120.824 166.362 120.503 166.125 120.267C165.889 120.03 165.568 119.898 165.233 119.898H158.666Z" fill="#E6E7E8"/>
<path d="M165.44 54.2499H155.607C155.574 54.2506 155.541 54.2447 155.51 54.2326C155.48 54.2204 155.452 54.2023 155.428 54.1792C155.404 54.1561 155.386 54.1285 155.373 54.0981C155.36 54.0676 155.354 54.0349 155.354 54.0019C155.354 53.9348 155.38 53.8704 155.428 53.8229C155.475 53.7755 155.54 53.7488 155.607 53.7488H165.44C165.473 53.7488 165.505 53.7554 165.536 53.7681C165.566 53.7809 165.594 53.7997 165.617 53.8232C165.64 53.8468 165.658 53.8748 165.671 53.9055C165.683 53.9361 165.689 53.9689 165.688 54.0019C165.689 54.0347 165.683 54.0673 165.67 54.0977C165.658 54.1281 165.64 54.1557 165.617 54.1789C165.594 54.202 165.566 54.2203 165.535 54.2325C165.505 54.2447 165.472 54.2506 165.44 54.2499Z" fill="#E6E7E8"/>
<path d="M168.136 54.2499H166.816C166.75 54.2499 166.687 54.2238 166.64 54.1773C166.594 54.1308 166.568 54.0677 166.568 54.0019C166.568 53.9357 166.594 53.8721 166.64 53.8247C166.687 53.7774 166.75 53.7501 166.816 53.7488H168.136C168.203 53.7488 168.267 53.7755 168.315 53.8229C168.363 53.8704 168.389 53.9348 168.389 54.0019C168.389 54.035 168.383 54.0676 168.37 54.0981C168.357 54.1285 168.338 54.1561 168.315 54.1792C168.291 54.2023 168.263 54.2204 168.232 54.2326C168.202 54.2447 168.169 54.2506 168.136 54.2499Z" fill="#E6E7E8"/>
<path d="M174.837 94.7877H149.04C148.527 94.7877 148.034 94.5841 147.671 94.2217C147.308 93.8593 147.105 93.3678 147.105 92.8553V80.135C147.104 79.8808 147.153 79.629 147.25 79.3939C147.347 79.1589 147.49 78.9453 147.67 78.7653C147.849 78.5853 148.063 78.4425 148.298 78.3451C148.533 78.2477 148.785 78.1975 149.04 78.1975H174.817C175.331 78.1975 175.825 78.4016 176.189 78.765C176.553 79.1283 176.757 79.6212 176.757 80.135V92.8553C176.756 93.3647 176.554 93.8531 176.194 94.2148C175.835 94.5764 175.348 94.7822 174.837 94.7877ZM149.04 78.7038C148.66 78.7038 148.295 78.8546 148.026 79.123C147.758 79.3914 147.607 79.7554 147.607 80.135V92.8553C147.607 93.2349 147.758 93.5989 148.026 93.8673C148.295 94.1357 148.66 94.2865 149.04 94.2865H174.817C175.197 94.2865 175.561 94.1357 175.83 93.8673C176.099 93.5989 176.25 93.2349 176.25 92.8553V80.135C176.25 79.7554 176.099 79.3914 175.83 79.123C175.561 78.8546 175.197 78.7038 174.817 78.7038H149.04Z" fill="white"/>
<path d="M147.374 93.3255C147.322 93.3245 147.271 93.3076 147.229 93.2771C147.187 93.2466 147.156 93.2039 147.139 93.1549C147.122 93.1059 147.12 93.0528 147.135 93.0029C147.149 92.953 147.178 92.9087 147.218 92.876L159.99 82.7855C160.04 82.7478 160.101 82.7297 160.163 82.7344C160.225 82.7392 160.284 82.7666 160.327 82.8113L167.949 90.706C167.997 90.7534 168.023 90.8175 168.023 90.8842C168.023 90.951 167.997 91.0151 167.949 91.0625C167.926 91.0856 167.899 91.104 167.869 91.1165C167.839 91.129 167.806 91.1354 167.774 91.1354C167.741 91.1354 167.708 91.129 167.678 91.1165C167.648 91.104 167.621 91.0856 167.598 91.0625L160.135 83.3125L147.539 93.2635C147.494 93.3042 147.435 93.3263 147.374 93.3255Z" fill="white"/>
<path d="M176.524 90.7938C176.489 90.7933 176.454 90.7852 176.422 90.7701C176.39 90.7549 176.361 90.733 176.338 90.706L172.105 85.9165L167.266 89.9516C167.216 89.9941 167.15 90.0147 167.084 90.0089C167.018 90.0031 166.957 89.9713 166.914 89.9206C166.872 89.8699 166.851 89.8044 166.857 89.7385C166.863 89.6727 166.895 89.6118 166.946 89.5693L171.97 85.374C172.017 85.3289 172.079 85.3036 172.144 85.3036C172.209 85.3036 172.271 85.3289 172.317 85.374L176.711 90.3495C176.734 90.3725 176.752 90.3999 176.765 90.43C176.777 90.4602 176.784 90.4925 176.784 90.5251C176.784 90.5578 176.777 90.5901 176.765 90.6202C176.752 90.6504 176.734 90.6777 176.711 90.7008C176.689 90.73 176.661 90.7536 176.629 90.7698C176.596 90.786 176.561 90.7942 176.524 90.7938Z" fill="white"/>
<path d="M167.768 84.9399C167.38 84.941 167 84.8269 166.677 84.6121C166.353 84.3973 166.101 84.0915 165.952 83.7335C165.803 83.3755 165.764 82.9814 165.839 82.601C165.915 82.2207 166.102 81.8713 166.376 81.5972C166.651 81.323 167.001 81.1364 167.382 81.061C167.763 80.9856 168.158 81.0248 168.516 81.1737C168.875 81.3225 169.181 81.5743 169.396 81.8971C169.611 82.2199 169.726 82.5992 169.724 82.9869C169.723 83.5045 169.517 84.0004 169.15 84.3664C168.783 84.7324 168.287 84.9386 167.768 84.9399ZM167.768 81.5299C167.479 81.5289 167.197 81.6135 166.956 81.773C166.715 81.9325 166.528 82.1596 166.416 82.4258C166.305 82.6919 166.275 82.985 166.331 83.268C166.387 83.551 166.526 83.8111 166.729 84.0154C166.933 84.2196 167.193 84.3589 167.477 84.4156C167.76 84.4722 168.053 84.4436 168.32 84.3335C168.587 84.2234 168.816 84.0367 168.976 83.7969C169.137 83.5572 169.223 83.2753 169.223 82.9869C169.223 82.6014 169.069 82.2316 168.797 81.9585C168.524 81.6854 168.154 81.5313 167.768 81.5299Z" fill="white"/>
<path d="M151.048 107.141H149.656C148.678 107.141 147.886 107.932 147.886 108.908V111.078C147.886 112.054 148.678 112.845 149.656 112.845H151.048C152.025 112.845 152.818 112.054 152.818 111.078V108.908C152.818 107.932 152.025 107.141 151.048 107.141Z" fill="white"/>
<path d="M158.779 107.141H157.387C156.41 107.141 155.617 107.932 155.617 108.908V111.078C155.617 112.054 156.41 112.845 157.387 112.845H158.779C159.757 112.845 160.549 112.054 160.549 111.078V108.908C160.549 107.932 159.757 107.141 158.779 107.141Z" fill="white"/>
<path d="M166.511 107.141H165.119C164.141 107.141 163.349 107.932 163.349 108.908V111.078C163.349 112.054 164.141 112.845 165.119 112.845H166.511C167.488 112.845 168.281 112.054 168.281 111.078V108.908C168.281 107.932 167.488 107.141 166.511 107.141Z" fill="white"/>
<path d="M174.242 107.141H172.85C171.873 107.141 171.08 107.932 171.08 108.908V111.078C171.08 112.054 171.873 112.845 172.85 112.845H174.242C175.22 112.845 176.012 112.054 176.012 111.078V108.908C176.012 107.932 175.22 107.141 174.242 107.141Z" fill="white"/>
<path d="M176.157 62.5632H147.741C147.708 62.5639 147.675 62.558 147.644 62.5458C147.614 62.5336 147.586 62.5155 147.562 62.4924C147.538 62.4693 147.52 62.4417 147.507 62.4113C147.494 62.3809 147.487 62.3482 147.487 62.3152C147.487 62.248 147.514 62.1836 147.562 62.1362C147.609 62.0887 147.674 62.062 147.741 62.062H176.157C176.224 62.062 176.289 62.0887 176.336 62.1362C176.384 62.1836 176.411 62.248 176.411 62.3152C176.411 62.3482 176.404 62.3809 176.391 62.4113C176.378 62.4417 176.36 62.4693 176.336 62.4924C176.312 62.5155 176.284 62.5336 176.254 62.5458C176.223 62.558 176.19 62.5639 176.157 62.5632Z" fill="white"/>
<path d="M176.157 66.5622H147.741C147.672 66.5622 147.607 66.535 147.558 66.4865C147.51 66.4381 147.482 66.3724 147.482 66.3039C147.482 66.2353 147.51 66.1696 147.558 66.1212C147.607 66.0727 147.672 66.0455 147.741 66.0455H176.157C176.226 66.0455 176.291 66.0727 176.34 66.1212C176.388 66.1696 176.416 66.2353 176.416 66.3039C176.416 66.3724 176.388 66.4381 176.34 66.4865C176.291 66.535 176.226 66.5622 176.157 66.5622Z" fill="white"/>
<path d="M176.157 70.5611H147.741C147.674 70.5611 147.609 70.5345 147.562 70.487C147.514 70.4395 147.487 70.3751 147.487 70.308C147.487 70.275 147.494 70.2423 147.507 70.2119C147.52 70.1814 147.538 70.1539 147.562 70.1308C147.586 70.1077 147.614 70.0895 147.644 70.0774C147.675 70.0652 147.708 70.0593 147.741 70.06H176.157C176.19 70.0593 176.223 70.0652 176.254 70.0774C176.284 70.0895 176.312 70.1077 176.336 70.1308C176.36 70.1539 176.378 70.1814 176.391 70.2119C176.404 70.2423 176.411 70.275 176.411 70.308C176.411 70.3751 176.384 70.4395 176.336 70.487C176.289 70.5345 176.224 70.5611 176.157 70.5611Z" fill="white"/>
<path d="M176.157 74.5601H147.741C147.672 74.5601 147.607 74.5329 147.558 74.4845C147.51 74.436 147.482 74.3703 147.482 74.3018C147.482 74.2333 147.51 74.1676 147.558 74.1191C147.607 74.0707 147.672 74.0435 147.741 74.0435H176.157C176.226 74.0435 176.291 74.0707 176.34 74.1191C176.388 74.1676 176.416 74.2333 176.416 74.3018C176.416 74.3703 176.388 74.436 176.34 74.4845C176.291 74.5329 176.226 74.5601 176.157 74.5601Z" fill="white"/>
<path d="M176.157 99.3292H147.741C147.672 99.3292 147.607 99.3019 147.558 99.2535C147.51 99.205 147.482 99.1393 147.482 99.0708C147.482 99.0023 147.51 98.9366 147.558 98.8882C147.607 98.8397 147.672 98.8125 147.741 98.8125H176.157C176.226 98.8125 176.291 98.8397 176.34 98.8882C176.388 98.9366 176.416 99.0023 176.416 99.0708C176.416 99.1393 176.388 99.205 176.34 99.2535C176.291 99.3019 176.226 99.3292 176.157 99.3292Z" fill="white"/>
<path d="M176.157 103.333H147.741C147.708 103.334 147.675 103.328 147.644 103.316C147.614 103.304 147.586 103.286 147.562 103.263C147.538 103.239 147.52 103.212 147.507 103.181C147.494 103.151 147.487 103.118 147.487 103.085C147.487 103.018 147.514 102.954 147.562 102.906C147.609 102.859 147.674 102.832 147.741 102.832H176.157C176.224 102.832 176.289 102.859 176.336 102.906C176.384 102.954 176.411 103.018 176.411 103.085C176.411 103.118 176.404 103.151 176.391 103.181C176.378 103.212 176.36 103.239 176.336 103.263C176.312 103.286 176.284 103.304 176.254 103.316C176.223 103.328 176.19 103.334 176.157 103.333Z" fill="white"/>
<path d="M170.863 23.6892C170.863 23.6892 171.499 20.9819 170.91 19.4422C170.736 19.008 170.429 18.6398 170.033 18.3902C169.637 18.1405 169.172 18.0223 168.705 18.0524C168.705 18.0524 164.42 17.1017 163.183 15.9857L163.742 17.9594C162.997 17.9071 162.269 17.7087 161.6 17.3756C161.513 17.713 161.519 18.0673 161.617 18.4017C161.714 18.7361 161.899 19.0383 162.153 19.2769C161.845 19.4245 161.507 19.5011 161.165 19.5011C160.823 19.5011 160.485 19.4245 160.177 19.2769C160.177 19.2769 161.351 22.1547 164.084 21.8602C165.864 21.5967 169.015 24.2834 170.863 23.6892Z" fill="white"/>
<path d="M170.258 24.0302C169.279 24.0302 168.136 23.5135 167.018 22.9968C165.9 22.4802 164.85 21.9635 164.099 22.072C161.206 22.4078 159.959 19.3905 159.928 19.3595C159.91 19.3108 159.907 19.2576 159.92 19.2071C159.933 19.1566 159.961 19.1114 160 19.0775C160.04 19.0436 160.089 19.0227 160.141 19.0177C160.193 19.0127 160.245 19.0238 160.29 19.0495C160.721 19.2739 161.222 19.3221 161.688 19.1838C161.499 18.9171 161.37 18.6128 161.31 18.2917C161.25 17.9707 161.261 17.6405 161.341 17.3238C161.349 17.2885 161.366 17.2556 161.389 17.2278C161.413 17.2 161.442 17.178 161.476 17.1637C161.509 17.1496 161.545 17.1424 161.582 17.1424C161.618 17.1424 161.654 17.1496 161.688 17.1637C162.228 17.4117 162.799 17.5855 163.385 17.6803L162.925 16.058C162.91 16.0053 162.913 15.9493 162.933 15.8983C162.952 15.8472 162.987 15.8036 163.033 15.7738C163.08 15.7454 163.134 15.733 163.189 15.7386C163.243 15.7442 163.294 15.7675 163.333 15.8048C164.451 16.8382 168.296 17.7113 168.71 17.8095C169.228 17.7757 169.743 17.9078 170.181 18.1866C170.618 18.4654 170.955 18.8763 171.142 19.3595C171.758 20.9508 171.142 23.6375 171.106 23.7512C171.098 23.7929 171.079 23.8316 171.051 23.8635C171.023 23.8953 170.986 23.9189 170.946 23.932C170.723 24.0014 170.491 24.0345 170.258 24.0302ZM164.275 21.5398C165.124 21.5398 166.149 22.0203 167.23 22.5215C168.467 23.1002 169.745 23.6943 170.651 23.4877C170.77 22.9193 171.168 20.7855 170.677 19.5352C170.522 19.1471 170.247 18.8183 169.893 18.5963C169.538 18.3743 169.122 18.2707 168.705 18.3003H168.627C168.472 18.2642 165.248 17.546 163.592 16.5902L163.96 17.887C163.97 17.9247 163.972 17.9644 163.964 18.0028C163.957 18.0413 163.941 18.0777 163.918 18.1092C163.894 18.1399 163.864 18.1647 163.829 18.1818C163.794 18.1988 163.755 18.2075 163.716 18.2073C163.044 18.1674 162.385 18.0064 161.771 17.732C161.741 17.9818 161.772 18.2352 161.862 18.4701C161.953 18.705 162.099 18.9145 162.288 19.0805C162.319 19.108 162.343 19.1425 162.359 19.1811C162.374 19.2197 162.38 19.2613 162.376 19.3027C162.372 19.3447 162.357 19.3849 162.332 19.4194C162.308 19.4538 162.275 19.4812 162.236 19.499C161.75 19.7177 161.21 19.7895 160.684 19.7057C161.16 20.4807 162.236 21.7723 164.042 21.5605C164.119 21.5483 164.197 21.5414 164.275 21.5398Z" fill="#231F20"/>
<path d="M174.48 46.345C174.48 46.345 178.217 38.1869 177.761 32.8394C177.306 27.4919 173.797 27.156 172.586 27.0889C171.375 27.0217 164.922 26.1537 162.567 29.0315C160.213 31.9094 160.823 45.7715 160.823 45.7715L174.48 46.345Z" fill="#FF5C64"/>
<path d="M160.549 43.028C157.801 44.283 155.176 45.7913 152.709 47.5333C150.525 49.011 149.288 64.6092 149.288 64.6092C149.288 64.6092 149.739 67.115 152.642 66.7223L160.285 49.3468C160.285 49.3468 163.012 42.9608 160.549 43.028Z" fill="#231F20"/>
<path d="M152.047 67.0014C151.348 67.0192 150.665 66.7923 150.115 66.3602C149.566 65.928 149.186 65.3178 149.04 64.635C149.037 64.6145 149.037 64.5936 149.04 64.5731C149.169 62.9611 150.354 48.8147 152.569 47.3112C155.055 45.5664 157.697 44.0547 160.461 42.7955C160.49 42.7879 160.52 42.7879 160.549 42.7955C160.743 42.7809 160.937 42.8171 161.112 42.9005C161.287 42.9839 161.438 43.1116 161.548 43.2709C162.516 44.6917 160.73 48.9542 160.513 49.4709L152.869 66.8516C152.852 66.8905 152.825 66.9243 152.79 66.9497C152.756 66.975 152.715 66.9911 152.673 66.9962C152.464 67.0122 152.255 67.0139 152.047 67.0014ZM149.557 64.5834C149.614 64.8521 150.111 66.7276 152.487 66.4796L160.073 49.2384C160.591 47.9984 161.833 44.547 161.144 43.555C161.087 43.4716 161.01 43.4041 160.919 43.3589C160.829 43.3137 160.728 43.2923 160.627 43.2967C157.913 44.5501 155.315 46.0404 152.864 47.7504C151.146 48.8819 149.889 60.2434 149.557 64.5834Z" fill="#231F20"/>
<path d="M174.786 44.6296C174.786 44.6296 163.809 44.9448 161.227 44.5676C161.227 44.5676 161.082 44.5986 159.188 48.081C157.294 51.5633 160.016 67.4818 160.016 67.4818C160.016 67.4818 162.511 70.1168 164.482 69.7396L166.816 51.5891C166.816 51.5891 170.796 51.708 173.026 50.127C174.558 49.0161 174.491 46.6446 174.786 44.6296Z" fill="#231F20"/>
<path d="M164.079 70.029C162.102 70.029 159.939 67.7556 159.83 67.6523C159.796 67.6168 159.774 67.5716 159.768 67.5231C159.654 66.8721 157.051 51.5065 158.966 47.9621C160.88 44.4178 161.036 44.3455 161.175 44.3455H161.263C163.794 44.7226 174.672 44.4126 174.78 44.4075C174.818 44.4052 174.855 44.4114 174.889 44.4257C174.923 44.44 174.954 44.462 174.978 44.4899C175.003 44.5179 175.021 44.551 175.03 44.5869C175.04 44.6228 175.041 44.6604 175.034 44.6968C174.982 45.0688 174.936 45.4563 174.894 45.8438C174.703 47.5901 174.506 49.3933 173.15 50.3646C171.184 51.77 167.934 51.8733 167.039 51.8733L164.731 69.75C164.724 69.8027 164.701 69.852 164.665 69.891C164.629 69.9299 164.581 69.9565 164.529 69.967C164.381 70.0009 164.23 70.0217 164.079 70.029ZM160.249 67.363C160.596 67.7143 162.619 69.6673 164.255 69.5175L166.568 51.5581C166.574 51.4955 166.605 51.4379 166.653 51.3974C166.701 51.357 166.764 51.3368 166.826 51.3411C166.868 51.3411 170.744 51.4341 172.861 49.9255C174.03 49.0833 174.216 47.3938 174.413 45.756C174.444 45.4666 174.475 45.1721 174.511 44.888C172.742 44.9345 163.918 45.1515 161.351 44.8311C161.201 45.0481 160.741 45.7766 159.421 48.1998C157.641 51.4496 160.047 66.1591 160.249 67.363Z" fill="#231F20"/>
<path d="M162.562 29.0315C162.562 29.0315 160.824 32.3743 159.799 34.0897C158.819 35.5614 157.731 36.9585 156.544 38.2695C156.544 38.2695 148.652 41.0698 148.605 41.2197C148.559 41.3695 149.351 44.02 149.351 44.02C149.351 44.02 157.631 43.4258 158.997 42.78C160.363 42.1342 163.137 38.9567 163.137 38.9567L162.562 29.0315Z" fill="#FF5C64"/>
<path d="M165.776 27.2386L166.247 30.0906C166.541 30.514 166.98 30.8157 167.481 30.9394C167.982 31.063 168.511 31.0001 168.969 30.7623C170.775 29.9666 170.775 28.6026 170.775 28.6026L169.812 23.3326C169.812 23.3326 168.146 22.6868 167.282 19.4421C167.282 19.4421 163.142 19.7573 163.426 21.3021C163.426 21.3021 163.375 24.211 163.815 25.6266C163.972 26.0427 164.236 26.4103 164.581 26.6931C164.925 26.9758 165.337 27.1639 165.776 27.2386Z" fill="white"/>
<path d="M167.955 31.248C167.576 31.2361 167.206 31.1365 166.873 30.9572C166.54 30.7778 166.253 30.5236 166.035 30.2147C166.018 30.1856 166.006 30.1542 165.998 30.1217L165.553 27.4298C165.099 27.3392 164.676 27.1312 164.328 26.8266C163.979 26.522 163.717 26.1314 163.566 25.6938C163.116 24.2523 163.163 21.4055 163.163 21.2867C163.143 21.1447 163.153 21.0002 163.192 20.8623C163.231 20.7245 163.299 20.5963 163.39 20.4858C164.203 19.4525 166.94 19.2045 167.251 19.1838C167.31 19.1794 167.368 19.1955 167.416 19.2294C167.464 19.2634 167.499 19.313 167.515 19.3698C168.327 22.4233 169.88 23.0847 169.895 23.0898C169.935 23.105 169.97 23.1301 169.997 23.1626C170.024 23.1952 170.043 23.2342 170.051 23.2758L171.013 28.5458C171.013 28.6543 171.013 30.1423 169.072 30.9845C168.722 31.1491 168.342 31.2388 167.955 31.248ZM166.485 29.9925C166.751 30.3534 167.139 30.6067 167.577 30.7063C168.015 30.8059 168.474 30.7451 168.871 30.535C170.475 29.8323 170.516 28.6492 170.516 28.5975L169.58 23.5032C169.155 23.281 167.851 22.3872 167.085 19.7108C166.185 19.8038 164.317 20.1242 163.784 20.8062C163.732 20.8676 163.694 20.9398 163.673 21.0175C163.653 21.0953 163.65 21.1766 163.665 21.2557C163.665 21.3332 163.623 24.1903 164.048 25.5543C164.184 25.9265 164.418 26.2555 164.724 26.5071C165.031 26.7588 165.399 26.9239 165.791 26.9855L165.895 27.0165C165.928 27.0354 165.957 27.0614 165.98 27.0926C166.002 27.1239 166.017 27.1596 166.024 27.1973L166.485 29.9925Z" fill="#231F20"/>
<path d="M168.705 23.436C168.725 23.1691 168.83 22.9157 169.005 22.7127C169.177 22.5302 169.378 22.3782 169.6 22.2632C169.716 22.1896 169.847 22.142 169.983 22.1237C170.081 22.1228 170.177 22.1404 170.268 22.1754C170.48 22.2414 170.662 22.3782 170.785 22.5629C170.866 22.723 170.907 22.9003 170.904 23.0795C170.919 23.2785 170.905 23.4786 170.863 23.6737C170.818 23.8675 170.735 24.0505 170.619 24.2119C170.502 24.3734 170.355 24.5101 170.185 24.614C169.841 24.8193 169.432 24.8841 169.041 24.7949" fill="white"/>
<path d="M169.393 25.1049C169.254 25.1033 169.115 25.0859 168.979 25.0532C168.914 25.0373 168.858 24.9963 168.823 24.9392C168.788 24.882 168.777 24.8134 168.793 24.7484C168.801 24.7163 168.815 24.6861 168.835 24.6596C168.854 24.633 168.879 24.6107 168.908 24.5939C168.936 24.577 168.967 24.566 169 24.5615C169.033 24.557 169.066 24.559 169.098 24.5675C169.425 24.6411 169.767 24.5875 170.056 24.4177C170.339 24.2395 170.542 23.9576 170.62 23.6324C170.654 23.4624 170.666 23.2888 170.656 23.1157C170.661 22.9728 170.63 22.831 170.568 22.7024C170.473 22.564 170.332 22.4635 170.169 22.4182C170.109 22.399 170.046 22.3869 169.983 22.382C169.885 22.4 169.791 22.4388 169.709 22.4957C169.515 22.5942 169.34 22.7253 169.191 22.8832C169.05 23.0444 168.966 23.248 168.953 23.4619C168.948 23.5286 168.917 23.5906 168.867 23.6349C168.817 23.6793 168.751 23.7024 168.684 23.6995C168.651 23.6976 168.619 23.689 168.589 23.6744C168.559 23.6597 168.533 23.6393 168.511 23.6142C168.489 23.5892 168.473 23.5601 168.463 23.5286C168.452 23.4971 168.449 23.4639 168.451 23.4309C168.474 23.1092 168.599 22.8032 168.808 22.5577C168.997 22.3473 169.221 22.1723 169.471 22.041C169.628 21.944 169.805 21.884 169.988 21.8654C170.119 21.865 170.249 21.8878 170.371 21.9325C170.65 22.0162 170.888 22.2003 171.039 22.4492C171.143 22.6486 171.196 22.8703 171.194 23.095C171.207 23.3166 171.191 23.5388 171.148 23.7564C171.056 24.1426 170.836 24.4868 170.525 24.7333C170.213 24.9798 169.827 25.1143 169.429 25.1152L169.393 25.1049Z" fill="#231F20"/>
<path d="M166.086 22.6714C166.086 22.6714 165.31 24.2834 165.569 24.5056C165.828 24.7277 166.475 24.4642 166.475 24.4642" fill="white"/>
<path d="M165.9 24.8414C165.729 24.8499 165.561 24.7988 165.424 24.6967C165.315 24.6089 165 24.3506 165.864 22.5629C165.893 22.5042 165.944 22.459 166.006 22.4368C166.067 22.4146 166.135 22.4172 166.195 22.4441C166.225 22.4579 166.253 22.4777 166.275 22.5022C166.297 22.5267 166.315 22.5555 166.326 22.5868C166.337 22.6182 166.342 22.6514 166.34 22.6846C166.338 22.7177 166.329 22.7502 166.314 22.7799C166.063 23.2668 165.888 23.7897 165.797 24.3299C166.005 24.3549 166.217 24.3209 166.407 24.2317C166.469 24.2073 166.538 24.2076 166.6 24.2326C166.662 24.2576 166.711 24.3054 166.739 24.3661C166.751 24.3969 166.758 24.43 166.757 24.4633C166.757 24.4967 166.75 24.5297 166.737 24.5604C166.724 24.5911 166.706 24.619 166.682 24.6424C166.658 24.6658 166.63 24.6843 166.599 24.6967C166.377 24.7865 166.14 24.8356 165.9 24.8414Z" fill="#231F20"/>
<path d="M167.364 22.6044C167.5 22.5906 167.595 22.4251 167.576 22.2349C167.556 22.0447 167.43 21.9018 167.294 21.9156C167.157 21.9295 167.062 22.0949 167.081 22.2851C167.101 22.4753 167.227 22.6182 167.364 22.6044Z" fill="#231F20"/>
<path d="M165.268 22.9729C165.405 22.96 165.501 22.7953 165.483 22.605C165.465 22.4146 165.34 22.2708 165.203 22.2837C165.066 22.2966 164.97 22.4613 164.988 22.6516C165.006 22.842 165.132 22.9858 165.268 22.9729Z" fill="#231F20"/>
<path d="M166.314 26.1071C165.84 26.0971 165.372 26.0008 164.932 25.8229C164.902 25.81 164.874 25.7912 164.851 25.7674C164.828 25.7437 164.81 25.7156 164.798 25.6848C164.786 25.654 164.78 25.6211 164.781 25.588C164.782 25.555 164.789 25.5224 164.803 25.4923C164.831 25.4326 164.881 25.3859 164.943 25.3619C165.005 25.3379 165.073 25.3383 165.134 25.3631C165.134 25.3631 166.309 25.8798 167.101 25.4303C167.308 25.2959 167.481 25.1155 167.607 24.903C167.733 24.6905 167.807 24.4519 167.825 24.2058C167.836 24.1372 167.874 24.0759 167.93 24.0352C167.987 23.9945 168.057 23.9778 168.125 23.9888C168.194 23.9997 168.255 24.0375 168.296 24.0937C168.337 24.1498 168.354 24.2199 168.343 24.2884C168.314 24.6104 168.21 24.9211 168.039 25.1957C167.869 25.4703 167.636 25.701 167.36 25.8694C167.038 26.0389 166.677 26.1209 166.314 26.1071Z" fill="#231F20"/>
<path d="M165.776 27.2387C165.776 27.2387 167.618 27.3524 168.57 26.5825C168.57 26.5825 167.805 29.1659 166.102 29.1659L165.776 27.2387Z" fill="#231F20"/>
<path d="M166.118 29.45C166.058 29.4505 166 29.4292 165.956 29.3902C165.911 29.3512 165.882 29.2971 165.874 29.2382L165.548 27.2852C165.541 27.2475 165.543 27.2086 165.554 27.1718C165.565 27.135 165.584 27.1013 165.61 27.0734C165.635 27.0452 165.667 27.023 165.702 27.0087C165.737 26.9944 165.774 26.9882 165.812 26.9907C165.812 26.9907 167.572 27.0889 168.431 26.3914C168.473 26.3591 168.524 26.3409 168.577 26.3393C168.63 26.3378 168.683 26.3529 168.727 26.3826C168.771 26.4123 168.804 26.455 168.823 26.5048C168.841 26.5546 168.843 26.6089 168.829 26.66C168.798 26.7685 167.996 29.419 166.123 29.45H166.118ZM166.118 27.5022L166.356 28.9282C167.235 28.7784 167.82 27.8174 168.125 27.156C167.467 27.3934 166.771 27.5089 166.071 27.497L166.118 27.5022Z" fill="#231F20"/>
<path d="M176.012 28.4166C177.487 28.675 183.454 42.4493 181.41 44.02C178.222 46.4741 167.127 44.02 167.127 44.02L168.032 39.7471C168.032 39.7471 175.163 39.9486 175.277 38.4865C175.391 37.0243 171.137 30.256 171.686 29.2433C172.234 28.2306 176.012 28.4166 176.012 28.4166Z" fill="#FF5C64"/>
<path d="M168.798 41.1319C167.614 41.2072 166.425 41.15 165.253 40.9614C164.386 40.751 163.496 40.6486 162.604 40.6566C161.428 40.7125 160.271 40.9766 159.188 41.4367C159.142 41.4512 159.101 41.478 159.069 41.5142C158.966 41.6589 159.214 41.8036 159.395 41.8087C159.865 41.8179 160.334 41.7587 160.787 41.6331C159.666 42.0467 158.606 42.6098 157.636 43.3071C157.522 43.3846 157.403 43.5086 157.455 43.6326C157.506 43.7566 157.734 43.7359 157.879 43.6687L160.425 42.5062C159.764 42.7706 159.152 43.1425 158.614 43.6067C158.541 43.6739 158.453 43.7617 158.479 43.8599C158.505 43.9581 158.769 43.9994 158.929 43.9219C159.705 43.5346 160.446 43.0817 161.144 42.5682L159.592 43.7772C159.592 43.9012 159.711 44.0097 159.84 44.0149C159.97 44.0067 160.095 43.9639 160.202 43.8909L161.957 42.8576L160.865 43.6222C160.689 43.7411 160.492 43.9374 160.58 44.1389C160.668 44.3404 161.015 44.2939 161.243 44.1957C162.143 43.8062 163.083 43.5185 164.047 43.3381C164.383 43.2287 164.731 43.1577 165.082 43.1262C165.625 43.1977 166.16 43.3152 166.682 43.4776C167.479 43.6532 168.27 43.8341 169.062 43.9942" fill="white"/>
<path d="M160.834 44.5263C160.758 44.5278 160.683 44.5156 160.611 44.4902C160.553 44.4688 160.499 44.4358 160.454 44.3932C160.408 44.3505 160.372 44.2992 160.347 44.2422C160.325 44.1918 160.312 44.1373 160.311 44.082C160.168 44.1824 159.999 44.2381 159.825 44.2422C159.754 44.2386 159.685 44.2207 159.622 44.1896C159.559 44.1585 159.503 44.1148 159.457 44.0613C159.428 44.0268 159.404 43.9885 159.385 43.9477C159.276 44.0097 159.162 44.0665 159.048 44.1233C158.962 44.1708 158.867 44.1991 158.768 44.2062C158.67 44.2133 158.571 44.1992 158.479 44.1647C158.426 44.1399 158.38 44.1032 158.344 44.0575C158.308 44.0117 158.284 43.9582 158.272 43.9012C158.262 43.85 158.262 43.7973 158.272 43.7462L157.993 43.8753C157.833 43.9589 157.648 43.9774 157.475 43.927C157.427 43.9095 157.382 43.882 157.345 43.8465C157.307 43.8109 157.278 43.7679 157.258 43.7203C157.211 43.6222 157.154 43.369 157.511 43.1158C158.082 42.7047 158.685 42.3385 159.312 42.0205C159.221 42.0102 159.133 41.9792 159.055 41.93C158.977 41.8808 158.911 41.8146 158.862 41.7363C158.834 41.6789 158.822 41.6149 158.827 41.5512C158.833 41.4874 158.856 41.4264 158.893 41.3747C158.948 41.3041 159.021 41.2504 159.105 41.2197C160.215 40.7484 161.399 40.4789 162.604 40.424C163.403 40.4052 164.201 40.4885 164.979 40.672L165.305 40.7288C166.461 40.9147 167.634 40.9719 168.803 40.8993C168.863 40.8993 168.921 40.9223 168.964 40.9637C169.008 41.0051 169.034 41.0616 169.036 41.1215C169.036 41.1819 169.013 41.2401 168.972 41.2843C168.931 41.3284 168.874 41.3552 168.814 41.3592C167.612 41.4295 166.406 41.3706 165.217 41.1835L164.886 41.1215C164.143 40.9478 163.382 40.8663 162.619 40.8787C161.531 40.9335 160.459 41.1675 159.447 41.571C159.881 41.5803 160.313 41.5246 160.73 41.4057C160.788 41.3865 160.851 41.3909 160.905 41.4181C160.96 41.4452 161.001 41.4928 161.02 41.5503C161.039 41.6079 161.035 41.6707 161.008 41.7249C160.981 41.7792 160.933 41.8205 160.875 41.8397C159.798 42.2363 158.777 42.7712 157.837 43.431L159.737 42.563C159.933 42.4648 160.13 42.3718 160.332 42.2943C160.387 42.2703 160.45 42.2694 160.507 42.2917C160.563 42.314 160.608 42.3577 160.632 42.4132C160.656 42.4686 160.657 42.5314 160.635 42.5876C160.612 42.6438 160.569 42.6888 160.513 42.7128L159.939 42.9763C159.552 43.1774 159.188 43.4181 158.852 43.6945C159.609 43.3162 160.331 42.8718 161.01 42.3667C161.034 42.3485 161.061 42.3352 161.09 42.3277C161.12 42.3202 161.15 42.3186 161.18 42.3229C161.21 42.3272 161.238 42.3375 161.264 42.3529C161.29 42.3684 161.313 42.3889 161.331 42.4132C161.349 42.4368 161.363 42.464 161.371 42.4929C161.379 42.5219 161.381 42.5522 161.377 42.5819C161.373 42.6117 161.363 42.6405 161.348 42.6665C161.333 42.6925 161.313 42.7153 161.289 42.7335L160.037 43.6842H160.068L161.822 42.6508C161.873 42.6279 161.931 42.624 161.984 42.6399C162.038 42.6558 162.084 42.6904 162.114 42.7375C162.144 42.7845 162.156 42.8407 162.148 42.896C162.14 42.9512 162.113 43.0017 162.071 43.0383L160.974 43.803C160.798 43.927 160.761 44.02 160.767 44.0303C160.891 44.0546 161.02 44.0325 161.129 43.9683C162.047 43.5702 163.007 43.2756 163.991 43.09L164.322 43.0022C164.568 42.9231 164.824 42.883 165.082 42.8833C165.478 42.9143 165.869 42.9906 166.247 43.1107C166.412 43.1572 166.573 43.2037 166.728 43.2347L169.109 43.7823C169.138 43.7891 169.165 43.8016 169.19 43.819C169.214 43.8364 169.235 43.8585 169.251 43.8839C169.267 43.9094 169.277 43.9377 169.282 43.9672C169.287 43.9968 169.286 44.027 169.279 44.0562C169.273 44.0853 169.26 44.1129 169.243 44.1372C169.225 44.1616 169.203 44.1823 169.178 44.1981C169.152 44.214 169.124 44.2246 169.094 44.2295C169.065 44.2344 169.034 44.2334 169.005 44.2267C168.213 44.0458 167.422 43.8598 166.625 43.71C166.464 43.6738 166.299 43.6273 166.107 43.5808C165.771 43.4731 165.424 43.4021 165.072 43.369C164.857 43.3725 164.644 43.4109 164.441 43.4827C164.322 43.5137 164.203 43.5498 164.079 43.5705C163.128 43.7558 162.202 44.0451 161.315 44.4333C161.162 44.4955 160.999 44.5271 160.834 44.5263Z" fill="#231F20"/>
<path d="M163.328 30.2405C162.935 30.6383 161.946 36.9003 161.584 39.8556L163.328 30.2405Z" fill="white"/>
<path d="M161.584 40.0882H161.553C161.494 40.0805 161.439 40.0495 161.403 40.0021C161.366 39.9546 161.349 39.8946 161.356 39.835C161.579 37.9957 162.645 30.6125 163.168 30.0804C163.212 30.046 163.267 30.0288 163.323 30.0318C163.379 30.0349 163.432 30.058 163.473 30.097C163.513 30.136 163.538 30.1881 163.543 30.2439C163.547 30.2997 163.532 30.3554 163.499 30.4007C163.163 30.8605 162.21 36.6317 161.812 39.8919C161.803 39.9462 161.776 39.9957 161.734 40.0317C161.692 40.0676 161.639 40.0876 161.584 40.0882Z" fill="#231F20"/>
<path d="M148.445 45.7509L148.621 46.9237L164.86 49.29L164.586 48.081L148.445 45.7509Z" fill="white"/>
<path d="M164.86 49.5432H164.824L148.585 47.1717C148.531 47.1636 148.482 47.1386 148.444 47.1005C148.406 47.0624 148.381 47.0131 148.372 46.9599L148.196 45.7871C148.189 45.7482 148.191 45.708 148.203 45.6702C148.215 45.6324 148.236 45.598 148.264 45.5701C148.293 45.5431 148.327 45.5226 148.364 45.5101C148.402 45.4977 148.442 45.4934 148.481 45.4977L164.622 47.8331C164.672 47.8402 164.718 47.8623 164.755 47.8965C164.792 47.9306 164.818 47.9752 164.829 48.0242L165.083 49.2384C165.093 49.2772 165.093 49.318 165.083 49.357C165.073 49.3959 165.054 49.4316 165.026 49.4606C164.983 49.5084 164.924 49.538 164.86 49.5432ZM148.817 46.7016L164.513 48.9904L164.358 48.3032L148.719 46.0454L148.817 46.7016Z" fill="#231F20"/>
<path d="M148.445 45.7509C148.445 45.7509 152.14 42.5837 152.264 42.6147C152.388 42.6457 168.995 44.6297 168.995 44.6297L164.565 48.0811L148.445 45.7509Z" fill="white"/>
<path d="M164.565 48.3341L148.409 45.9833C148.361 45.9756 148.316 45.9546 148.279 45.9226C148.242 45.8906 148.216 45.849 148.202 45.8025C148.188 45.7566 148.187 45.7075 148.201 45.6616C148.215 45.6156 148.242 45.5747 148.279 45.5441C152.078 42.2891 152.161 42.315 152.321 42.3511C152.569 42.3925 163.359 43.6841 169.026 44.361C169.076 44.3675 169.122 44.3886 169.16 44.4218C169.198 44.4549 169.225 44.4985 169.238 44.547C169.253 44.5946 169.252 44.6456 169.237 44.6929C169.221 44.7402 169.191 44.7813 169.15 44.8105L164.741 48.2618C164.718 48.2848 164.69 48.303 164.66 48.3155C164.63 48.3279 164.598 48.3342 164.565 48.3341ZM149.04 45.5803L164.524 47.8175L168.374 44.8053C163.375 44.206 153.439 43.0176 152.331 42.873C151.959 43.1055 150.277 44.516 149.04 45.5803Z" fill="#231F20"/>
<path d="M164.86 49.29L169.098 45.7508L168.995 44.6296L164.586 48.081L164.86 49.29Z" fill="white"/>
<path d="M164.86 49.5431C164.834 49.548 164.808 49.548 164.782 49.5431C164.741 49.5308 164.704 49.5075 164.674 49.4756C164.645 49.4438 164.625 49.4046 164.617 49.3623L164.342 48.1533C164.331 48.1071 164.333 48.0585 164.348 48.0135C164.364 47.9684 164.393 47.929 164.43 47.9001L168.84 44.4333C168.875 44.4052 168.918 44.3873 168.963 44.3815C169.008 44.3757 169.054 44.382 169.096 44.4C169.138 44.418 169.174 44.4469 169.201 44.4836C169.228 44.5204 169.244 44.5637 169.248 44.6089L169.347 45.7301C169.351 45.7707 169.345 45.8117 169.33 45.8496C169.315 45.8875 169.29 45.9209 169.259 45.9471L165.02 49.4914C164.974 49.5257 164.918 49.5438 164.86 49.5431ZM164.86 48.1791L165.01 48.8353L168.829 45.6422L168.783 45.1256L164.86 48.1791Z" fill="#231F20"/>
<path d="M148.445 45.7508L145.324 35.309L162.443 38.223L164.586 48.081L148.445 45.7508Z" fill="white"/>
<path d="M164.565 48.3341L148.409 45.9833C148.36 45.9769 148.315 45.9563 148.278 45.9241C148.241 45.8919 148.214 45.8496 148.202 45.8025L145.097 35.3658C145.085 35.3247 145.083 35.2813 145.093 35.2396C145.102 35.1979 145.122 35.1593 145.151 35.1273C145.179 35.0953 145.215 35.071 145.255 35.0567C145.296 35.0424 145.339 35.0385 145.381 35.0455L162.495 37.975C162.544 37.9831 162.589 38.0056 162.625 38.0397C162.661 38.0738 162.686 38.1178 162.697 38.1661L164.829 48.05C164.838 48.0892 164.838 48.1302 164.827 48.1691C164.816 48.2079 164.795 48.2434 164.767 48.2721C164.74 48.2966 164.708 48.3149 164.673 48.3256C164.638 48.3363 164.601 48.3392 164.565 48.3341ZM148.616 45.5235L164.244 47.7813L162.231 38.44L145.671 35.6241L148.616 45.5235Z" fill="#231F20"/>
<path d="M172.524 45.508H172.483L169.021 44.9138C168.963 44.9033 168.911 44.8736 168.872 44.8295C168.833 44.7854 168.811 44.7295 168.809 44.671L168.7 40.5377C168.697 40.4741 168.719 40.4119 168.762 40.3646C168.804 40.3173 168.864 40.2885 168.928 40.2845L175.05 39.6542L172.328 30.3077C172.31 30.244 172.318 30.1759 172.35 30.1179C172.382 30.06 172.435 30.0168 172.498 29.9977C172.53 29.9881 172.564 29.985 172.597 29.9884C172.63 29.9918 172.662 30.0017 172.692 30.0176C172.721 30.0334 172.747 30.0548 172.768 30.0807C172.789 30.1065 172.804 30.1363 172.814 30.1682L175.614 39.7833C175.624 39.8179 175.627 39.8544 175.622 39.8902C175.616 39.9259 175.603 39.96 175.583 39.99C175.562 40.0205 175.535 40.0464 175.504 40.066C175.473 40.0855 175.438 40.0984 175.401 40.1037L169.191 40.7392L169.295 44.4437L172.555 45.0017C172.589 45.0047 172.622 45.0144 172.652 45.0302C172.683 45.046 172.709 45.0676 172.731 45.0938C172.753 45.1199 172.77 45.1501 172.78 45.1826C172.79 45.2151 172.794 45.2493 172.791 45.2832C172.788 45.3172 172.778 45.3502 172.762 45.3803C172.746 45.4105 172.725 45.4373 172.698 45.4591C172.672 45.4809 172.642 45.4974 172.609 45.5076C172.577 45.5177 172.543 45.5214 172.509 45.5183L172.524 45.508Z" fill="#231F20"/>
<path d="M149.811 61.8244C149.526 61.561 149.227 61.3127 148.916 61.0804C148.243 60.5637 146.799 59.8352 146.385 61.0235C146.126 61.7572 146.525 62.7337 146.799 63.4105C147.341 64.7049 148.167 65.8614 149.216 66.7947C150.132 67.6214 153.051 68.8149 152.838 66.5105C152.782 66.0935 152.649 65.6905 152.445 65.3222C151.787 64.0065 150.894 62.8213 149.811 61.8244Z" fill="white"/>
<path d="M151.762 68.0811C150.768 68.0008 149.825 67.6104 149.066 66.9651C147.99 66.0091 147.143 64.8244 146.587 63.4983C146.308 62.8059 145.883 61.7674 146.168 60.9459C146.219 60.7737 146.311 60.6165 146.436 60.4878C146.561 60.359 146.716 60.2627 146.887 60.2071C147.731 59.9539 148.843 60.7238 149.056 60.8994C149.372 61.1352 149.676 61.387 149.966 61.6538C151.073 62.6686 151.985 63.8768 152.657 65.2188C152.873 65.6131 153.014 66.0441 153.071 66.4898C153.154 67.3888 152.782 67.7763 152.45 67.9365C152.236 68.0388 152 68.0884 151.762 68.0811ZM147.249 60.6153C147.172 60.6144 147.096 60.6248 147.022 60.6463C146.919 60.6802 146.826 60.7398 146.753 60.8193C146.68 60.8989 146.628 60.9958 146.603 61.1009C146.375 61.7519 146.758 62.6974 147.011 63.3226C147.541 64.5856 148.347 65.7138 149.371 66.6241C150.023 67.2183 151.555 67.8744 152.248 67.5283C152.543 67.3784 152.662 67.0529 152.616 66.5311C152.559 66.1432 152.433 65.7686 152.243 65.4254C151.601 64.1317 150.724 62.9684 149.656 61.9948C149.376 61.7364 149.081 61.4781 148.781 61.2663C148.344 60.9074 147.812 60.6815 147.249 60.6153Z" fill="#231F20"/>
<path d="M159.669 63.1109C159.47 62.9715 159.229 62.9041 158.986 62.9197C158.834 62.9559 158.695 63.0327 158.583 63.1419C158.374 63.3564 158.217 63.6149 158.122 63.8984C158.027 64.1819 157.997 64.4831 158.034 64.7797C158.109 65.3717 158.293 65.9446 158.578 66.4692C159.369 68.1122 160.441 69.7035 162.029 70.6025C162.314 70.7715 162.626 70.892 162.95 70.959C165.776 71.4757 164.606 68.6754 163.913 67.4095C162.93 65.6078 161.46 64.1183 159.669 63.1109Z" fill="white"/>
<path d="M163.556 71.238C163.339 71.236 163.122 71.2152 162.909 71.176C162.56 71.1045 162.226 70.9753 161.921 70.7937C160.523 70.0084 159.364 68.6289 158.371 66.5725C158.076 66.0205 157.884 65.4203 157.801 64.8004C157.76 64.4688 157.795 64.1323 157.904 63.8163C158.012 63.5003 158.191 63.2132 158.427 62.9765C158.569 62.8355 158.749 62.7386 158.945 62.6975C159.239 62.6695 159.533 62.7444 159.778 62.9094C161.603 63.9377 163.104 65.453 164.115 67.2855C164.632 68.2052 165.372 69.8689 164.751 70.742C164.608 70.9166 164.424 71.0532 164.216 71.1397C164.007 71.2262 163.781 71.26 163.556 71.238ZM159.085 63.1419H159.023C158.914 63.1699 158.816 63.2271 158.738 63.3072C158.554 63.4966 158.416 63.7252 158.333 63.9758C158.251 64.2264 158.226 64.4925 158.262 64.7539C158.332 65.3187 158.508 65.8655 158.779 66.3659C159.726 68.3395 160.849 69.6519 162.133 70.3855C162.395 70.5437 162.682 70.6555 162.981 70.7162C163.69 70.8454 164.156 70.7575 164.363 70.4682C164.767 69.905 164.286 68.5669 163.701 67.5025C162.738 65.747 161.305 64.2941 159.561 63.3072C159.418 63.2149 159.254 63.1582 159.085 63.1419Z" fill="#231F20"/>
<path d="M158.536 54.25C158.474 54.2502 158.413 54.2269 158.367 54.1848C158.321 54.1427 158.293 54.0848 158.288 54.0226C158.288 53.909 158.003 51.1345 158.479 49.5535C158.488 49.5219 158.504 49.4925 158.524 49.4668C158.545 49.4412 158.57 49.4198 158.599 49.404C158.628 49.3882 158.66 49.3782 158.692 49.3746C158.725 49.371 158.758 49.3738 158.79 49.383C158.821 49.3921 158.851 49.4074 158.876 49.4279C158.902 49.4485 158.924 49.4739 158.939 49.5027C158.955 49.5314 158.965 49.5631 158.969 49.5957C158.972 49.6284 158.97 49.6614 158.96 49.693C158.515 51.181 158.779 53.9503 158.785 53.9761C158.79 54.0425 158.77 54.1085 158.727 54.1597C158.684 54.211 158.623 54.2434 158.557 54.25H158.536Z" fill="white"/>
<path d="M128.226 34.7769H25.4196C23.2617 34.7769 21.5125 36.5233 21.5125 38.6777V109.105C21.5125 111.259 23.2617 113.005 25.4196 113.005H128.226C130.384 113.005 132.133 111.259 132.133 109.105V38.6777C132.133 36.5233 130.384 34.7769 128.226 34.7769Z" fill="white"/>
<path d="M128.226 113.258H25.4196C24.3237 113.252 23.2746 112.814 22.4997 112.04C21.7247 111.267 21.2864 110.219 21.2796 109.125V38.6776C21.2796 37.5814 21.7158 36.5301 22.4922 35.7549C23.2686 34.9798 24.3216 34.5443 25.4196 34.5443H128.226C129.324 34.5443 130.377 34.9798 131.154 35.7549C131.93 36.5301 132.366 37.5814 132.366 38.6776V109.11C132.368 109.654 132.263 110.193 132.055 110.696C131.848 111.199 131.544 111.657 131.159 112.042C130.774 112.428 130.317 112.734 129.814 112.942C129.311 113.151 128.771 113.258 128.226 113.258ZM25.4196 35.03C24.4501 35.03 23.5203 35.4141 22.8343 36.098C22.1483 36.782 21.7622 37.7097 21.7609 38.6776V109.11C21.7622 110.078 22.1483 111.005 22.8343 111.689C23.5203 112.373 24.4501 112.757 25.4196 112.757H128.226C129.195 112.756 130.123 112.371 130.808 111.687C131.493 111.004 131.878 110.077 131.88 109.11V38.6776C131.878 37.7106 131.493 36.7836 130.808 36.0999C130.123 35.4161 129.195 35.0313 128.226 35.03H25.4196Z" fill="#231F20"/>
<path d="M128.04 44.8932H25.6007V108.893H128.04V44.8932Z" fill="#231F20"/>
<path d="M128.04 109.151H25.6007C25.5321 109.151 25.4663 109.124 25.4178 109.075C25.3692 109.027 25.342 108.961 25.342 108.893V44.8932C25.342 44.8247 25.3692 44.759 25.4178 44.7106C25.4663 44.6621 25.5321 44.6349 25.6007 44.6349H128.066C128.134 44.6349 128.2 44.6621 128.249 44.7106C128.297 44.759 128.324 44.8247 128.324 44.8932V108.893C128.325 108.929 128.317 108.965 128.303 108.998C128.288 109.031 128.267 109.061 128.24 109.085C128.213 109.11 128.181 109.128 128.147 109.139C128.112 109.151 128.076 109.155 128.04 109.151ZM25.875 108.634H127.822V45.1516H25.875V108.634Z" fill="#231F20"/>
<path d="M128.04 38.8895H25.6007V44.8932H128.04V38.8895Z" fill="#FF5C64"/>
<path d="M128.04 45.1514H25.6007C25.5321 45.1514 25.4663 45.1242 25.4178 45.0758C25.3692 45.0273 25.342 44.9616 25.342 44.8931V38.8894C25.342 38.8209 25.3692 38.7552 25.4178 38.7068C25.4663 38.6583 25.5321 38.6311 25.6007 38.6311H128.066C128.134 38.6311 128.2 38.6583 128.249 38.7068C128.297 38.7552 128.324 38.8209 128.324 38.8894V44.8931C128.325 44.9293 128.317 44.9652 128.303 44.9983C128.288 45.0315 128.267 45.0612 128.24 45.0855C128.213 45.1099 128.181 45.1284 128.147 45.1397C128.112 45.1511 128.076 45.1551 128.04 45.1514ZM25.875 44.6348H127.822V39.1478H25.875V44.6348Z" fill="#FF5C64"/>
<path d="M46.1403 51.2636H37.3428C37.3098 51.2643 37.2769 51.2584 37.2462 51.2462C37.2154 51.2341 37.1874 51.2159 37.1638 51.1928C37.1402 51.1697 37.1214 51.1422 37.1086 51.1117C37.0958 51.0813 37.0892 51.0486 37.0892 51.0156C37.0892 50.9485 37.1159 50.8841 37.1635 50.8366C37.2111 50.7891 37.2756 50.7625 37.3428 50.7625H46.1403C46.1734 50.7624 46.2061 50.769 46.2366 50.7818C46.2671 50.7946 46.2947 50.8133 46.3178 50.8369C46.3409 50.8605 46.3591 50.8884 46.3713 50.9191C46.3835 50.9498 46.3894 50.9826 46.3887 51.0156C46.3894 51.0484 46.3835 51.0809 46.3712 51.1113C46.359 51.1418 46.3407 51.1694 46.3175 51.1925C46.2943 51.2157 46.2667 51.234 46.2362 51.2462C46.2057 51.2584 46.1731 51.2643 46.1403 51.2636Z" fill="white"/>
<path d="M65.9864 51.2636H48.3914C48.3586 51.2643 48.326 51.2584 48.2955 51.2462C48.2651 51.234 48.2374 51.2157 48.2142 51.1925C48.191 51.1694 48.1727 51.1418 48.1605 51.1113C48.1483 51.0809 48.1423 51.0484 48.143 51.0156C48.1423 50.9826 48.1483 50.9498 48.1604 50.9191C48.1726 50.8884 48.1908 50.8605 48.2139 50.8369C48.2371 50.8133 48.2647 50.7946 48.2952 50.7818C48.3256 50.769 48.3584 50.7624 48.3914 50.7625H65.9864C66.0537 50.7625 66.1182 50.7891 66.1657 50.8366C66.2133 50.8841 66.24 50.9485 66.24 51.0156C66.24 51.0486 66.2334 51.0813 66.2206 51.1117C66.2078 51.1422 66.1891 51.1697 66.1654 51.1928C66.1418 51.2159 66.1138 51.2341 66.0831 51.2462C66.0523 51.2584 66.0195 51.2643 65.9864 51.2636Z" fill="#FF5C64"/>
<path d="M72.067 54.9423H54.472C54.4034 54.9423 54.3376 54.9151 54.2891 54.8667C54.2405 54.8182 54.2133 54.7525 54.2133 54.684C54.2133 54.6155 54.2405 54.5498 54.2891 54.5013C54.3376 54.4529 54.4034 54.4257 54.472 54.4257H72.067C72.1357 54.4257 72.2015 54.4529 72.25 54.5013C72.2985 54.5498 72.3258 54.6155 72.3258 54.684C72.3258 54.7525 72.2985 54.8182 72.25 54.8667C72.2015 54.9151 72.1357 54.9423 72.067 54.9423Z" fill="#FF5C64"/>
<path d="M48.2051 54.9423H39.4076C39.339 54.9423 39.2732 54.9151 39.2247 54.8667C39.1761 54.8182 39.1489 54.7525 39.1489 54.684C39.1489 54.6155 39.1761 54.5498 39.2247 54.5013C39.2732 54.4529 39.339 54.4257 39.4076 54.4257H48.2051C48.2737 54.4257 48.3396 54.4529 48.3881 54.5013C48.4366 54.5498 48.4639 54.6155 48.4639 54.684C48.4639 54.7525 48.4366 54.8182 48.3881 54.8667C48.3396 54.9151 48.2737 54.9423 48.2051 54.9423Z" fill="white"/>
<path d="M50.2751 58.6158H41.4776C41.4104 58.6158 41.3459 58.5892 41.2983 58.5417C41.2508 58.4942 41.2241 58.4298 41.2241 58.3627C41.2241 58.3297 41.2306 58.297 41.2434 58.2666C41.2563 58.2361 41.275 58.2086 41.2986 58.1855C41.3223 58.1624 41.3502 58.1442 41.381 58.1321C41.4117 58.1199 41.4446 58.114 41.4776 58.1147H50.2751C50.3079 58.114 50.3406 58.1199 50.371 58.1321C50.4015 58.1443 50.4291 58.1626 50.4523 58.1857C50.4756 58.2089 50.4938 58.2365 50.5061 58.2669C50.5183 58.2974 50.5242 58.3299 50.5235 58.3627C50.5242 58.3957 50.5183 58.4285 50.5061 58.4592C50.494 58.4899 50.4758 58.5178 50.4526 58.5414C50.4295 58.565 50.4019 58.5837 50.3714 58.5965C50.3409 58.6093 50.3082 58.6158 50.2751 58.6158Z" fill="white"/>
<path d="M75.2083 58.6158H53.2094C53.1763 58.6158 53.1436 58.6093 53.1131 58.5965C53.0826 58.5837 53.055 58.565 53.0319 58.5414C53.0087 58.5178 52.9905 58.4899 52.9784 58.4592C52.9662 58.4285 52.9603 58.3957 52.961 58.3627C52.9603 58.3299 52.9662 58.2974 52.9784 58.2669C52.9907 58.2365 53.0089 58.2089 53.0321 58.1857C53.0554 58.1626 53.083 58.1443 53.1135 58.1321C53.1439 58.1199 53.1766 58.114 53.2094 58.1147H75.2083C75.2413 58.114 75.2742 58.1199 75.3049 58.1321C75.3357 58.1442 75.3637 58.1624 75.3873 58.1855C75.4109 58.2086 75.4297 58.2361 75.4425 58.2666C75.4553 58.297 75.4619 58.3297 75.4619 58.3627C75.4619 58.4298 75.4351 58.4942 75.3876 58.5417C75.34 58.5892 75.2755 58.6158 75.2083 58.6158Z" fill="#FF5C64"/>
<path d="M52.34 62.2893H43.5425C43.4761 62.288 43.4129 62.2607 43.3665 62.2134C43.3201 62.166 43.2941 62.1024 43.2941 62.0361C43.2941 61.9704 43.3202 61.9073 43.3668 61.8608C43.4134 61.8143 43.4766 61.7881 43.5425 61.7881H52.34C52.373 61.7875 52.4059 61.7934 52.4366 61.8055C52.4673 61.8177 52.4953 61.8358 52.519 61.8589C52.5426 61.882 52.5613 61.9096 52.5741 61.94C52.587 61.9705 52.5935 62.0031 52.5935 62.0361C52.5935 62.1033 52.5668 62.1677 52.5193 62.2152C52.4717 62.2626 52.4072 62.2893 52.34 62.2893Z" fill="white"/>
<path d="M79.7571 62.2893H53.6027C53.5354 62.2893 53.4709 62.2626 53.4233 62.2152C53.3758 62.1677 53.3491 62.1033 53.3491 62.0361C53.3491 62.0031 53.3557 61.9705 53.3685 61.94C53.3813 61.9096 53.4 61.882 53.4237 61.8589C53.4473 61.8358 53.4753 61.8177 53.506 61.8055C53.5367 61.7934 53.5696 61.7875 53.6027 61.7881H79.7571C79.7902 61.7875 79.823 61.7934 79.8538 61.8055C79.8845 61.8177 79.9125 61.8358 79.9361 61.8589C79.9597 61.882 79.9785 61.9096 79.9913 61.94C80.0041 61.9705 80.0107 62.0031 80.0107 62.0361C80.0107 62.1033 79.984 62.1677 79.9364 62.2152C79.8888 62.2626 79.8244 62.2893 79.7571 62.2893Z" fill="#FF5C64"/>
<path d="M50.006 65.9628H41.2085C41.1399 65.9628 41.0741 65.9356 41.0256 65.8872C40.977 65.8387 40.9498 65.773 40.9498 65.7045C40.9498 65.636 40.977 65.5703 41.0256 65.5218C41.0741 65.4734 41.1399 65.4462 41.2085 65.4462H50.006C50.0746 65.4462 50.1405 65.4734 50.189 65.5218C50.2375 65.5703 50.2648 65.636 50.2648 65.7045C50.2648 65.773 50.2375 65.8387 50.189 65.8872C50.1405 65.9356 50.0746 65.9628 50.006 65.9628Z" fill="white"/>
<path d="M65.9864 65.9628H51.8017C51.7331 65.9628 51.6673 65.9356 51.6188 65.8872C51.5703 65.8387 51.543 65.773 51.543 65.7045C51.543 65.636 51.5703 65.5703 51.6188 65.5218C51.6673 65.4734 51.7331 65.4462 51.8017 65.4462H65.9864C66.055 65.4462 66.1209 65.4734 66.1694 65.5218C66.2179 65.5703 66.2452 65.636 66.2452 65.7045C66.2452 65.773 66.2179 65.8387 66.1694 65.8872C66.1209 65.9356 66.055 65.9628 65.9864 65.9628Z" fill="#FF5C64"/>
<path d="M85.5893 65.9628H71.415C71.3464 65.9628 71.2806 65.9356 71.232 65.8872C71.1835 65.8387 71.1562 65.773 71.1562 65.7045C71.1562 65.636 71.1835 65.5703 71.232 65.5218C71.2806 65.4734 71.3464 65.4462 71.415 65.4462H85.5997C85.6683 65.4462 85.7341 65.4734 85.7826 65.5218C85.8312 65.5703 85.8584 65.636 85.8584 65.7045C85.8584 65.773 85.8312 65.8387 85.7826 65.8872C85.7341 65.9356 85.6683 65.9628 85.5997 65.9628H85.5893Z" fill="#FF5C64"/>
<path d="M50.006 69.6363H41.2085C41.1399 69.6363 41.0741 69.6091 41.0256 69.5606C40.977 69.5122 40.9498 69.4465 40.9498 69.378C40.9498 69.3094 40.977 69.2437 41.0256 69.1953C41.0741 69.1468 41.1399 69.1196 41.2085 69.1196H50.006C50.0746 69.1196 50.1405 69.1468 50.189 69.1953C50.2375 69.2437 50.2648 69.3094 50.2648 69.378C50.2648 69.4465 50.2375 69.5122 50.189 69.5606C50.1405 69.6091 50.0746 69.6363 50.006 69.6363Z" fill="white"/>
<path d="M65.9864 69.6363H53.6027C53.534 69.6363 53.4682 69.6091 53.4197 69.5606C53.3712 69.5122 53.3439 69.4465 53.3439 69.378C53.3439 69.3094 53.3712 69.2437 53.4197 69.1953C53.4682 69.1468 53.534 69.1196 53.6027 69.1196H65.9864C66.0551 69.1196 66.1209 69.1468 66.1694 69.1953C66.2179 69.2437 66.2452 69.3094 66.2452 69.378C66.2452 69.4465 66.2179 69.5122 66.1694 69.5606C66.1209 69.6091 66.0551 69.6363 65.9864 69.6363Z" fill="#FF5C64"/>
<path d="M73.1383 69.6363H68.0771C68.0085 69.6363 67.9427 69.6091 67.8942 69.5606C67.8456 69.5122 67.8184 69.4465 67.8184 69.378C67.8184 69.3094 67.8456 69.2437 67.8942 69.1953C67.9427 69.1468 68.0085 69.1196 68.0771 69.1196H73.1383C73.2069 69.1196 73.2727 69.1468 73.3212 69.1953C73.3698 69.2437 73.397 69.3094 73.397 69.378C73.397 69.4465 73.3698 69.5122 73.3212 69.5606C73.2727 69.6091 73.2069 69.6363 73.1383 69.6363Z" fill="#FF5C64"/>
<path d="M50.006 73.3099H41.2085C41.1755 73.3106 41.1426 73.3047 41.1119 73.2925C41.0811 73.2803 41.0531 73.2622 41.0295 73.2391C41.0059 73.216 40.9871 73.1884 40.9743 73.158C40.9615 73.1276 40.9549 73.0949 40.9549 73.0619C40.9549 72.9947 40.9817 72.9303 41.0292 72.8829C41.0768 72.8354 41.1413 72.8087 41.2085 72.8087H50.006C50.0391 72.8087 50.0718 72.8153 50.1023 72.8281C50.1328 72.8409 50.1604 72.8596 50.1835 72.8832C50.2067 72.9067 50.2248 72.9347 50.237 72.9654C50.2492 72.9961 50.2551 73.0289 50.2544 73.0619C50.2551 73.0946 50.2492 73.1272 50.2369 73.1576C50.2247 73.188 50.2064 73.2156 50.1832 73.2388C50.16 73.262 50.1324 73.2802 50.1019 73.2924C50.0715 73.3046 50.0388 73.3106 50.006 73.3099Z" fill="white"/>
<path d="M70.4317 73.3099H52.3192C52.2534 73.3099 52.1902 73.2837 52.1436 73.2372C52.097 73.1907 52.0708 73.1277 52.0708 73.0619C52.0708 72.9956 52.0968 72.932 52.1433 72.8847C52.1897 72.8373 52.2529 72.8101 52.3192 72.8087H70.4317C70.499 72.8087 70.5635 72.8354 70.611 72.8829C70.6586 72.9303 70.6853 72.9947 70.6853 73.0619C70.6853 73.0949 70.6787 73.1276 70.6659 73.158C70.6531 73.1884 70.6344 73.216 70.6107 73.2391C70.5871 73.2622 70.5591 73.2803 70.5284 73.2925C70.4977 73.3047 70.4648 73.3106 70.4317 73.3099Z" fill="#FF5C64"/>
<path d="M81.3717 73.3099H72.5742C72.5411 73.3106 72.5083 73.3047 72.4775 73.2925C72.4468 73.2803 72.4188 73.2622 72.3952 73.2391C72.3716 73.216 72.3528 73.1884 72.34 73.158C72.3272 73.1276 72.3206 73.0949 72.3206 73.0619C72.3206 72.9947 72.3473 72.9303 72.3949 72.8829C72.4424 72.8354 72.5069 72.8087 72.5742 72.8087H81.3717C81.438 72.8101 81.5012 72.8373 81.5477 72.8847C81.5941 72.932 81.6201 72.9956 81.6201 73.0619C81.6201 73.1277 81.5939 73.1907 81.5473 73.2372C81.5008 73.2837 81.4376 73.3099 81.3717 73.3099Z" fill="#FF5C64"/>
<path d="M43.8012 76.9833H39.1437C39.0751 76.9833 39.0093 76.9561 38.9607 76.9077C38.9122 76.8592 38.885 76.7935 38.885 76.725C38.885 76.6565 38.9122 76.5908 38.9607 76.5423C39.0093 76.4939 39.0751 76.4667 39.1437 76.4667H43.8012C43.8698 76.4667 43.9357 76.4939 43.9842 76.5423C44.0327 76.5908 44.06 76.6565 44.06 76.725C44.06 76.7935 44.0327 76.8592 43.9842 76.9077C43.9357 76.9561 43.8698 76.9833 43.8012 76.9833Z" fill="white"/>
<path d="M68.0771 76.9833H47.6669C47.5983 76.9833 47.5325 76.9561 47.484 76.9077C47.4354 76.8592 47.4082 76.7935 47.4082 76.725C47.4082 76.6565 47.4354 76.5908 47.484 76.5423C47.5325 76.4939 47.5983 76.4667 47.6669 76.4667H68.0771C68.1458 76.4667 68.2116 76.4939 68.2601 76.5423C68.3086 76.5908 68.3359 76.6565 68.3359 76.725C68.3359 76.7935 68.3086 76.8592 68.2601 76.9077C68.2116 76.9561 68.1458 76.9833 68.0771 76.9833Z" fill="#FF5C64"/>
<path d="M47.936 80.662H39.1385C39.0699 80.662 39.0041 80.6348 38.9556 80.5863C38.9071 80.5379 38.8798 80.4722 38.8798 80.4037C38.8798 80.3351 38.9071 80.2694 38.9556 80.221C39.0041 80.1725 39.0699 80.1453 39.1385 80.1453H47.936C48.0047 80.1453 48.0705 80.1725 48.119 80.221C48.1675 80.2694 48.1948 80.3351 48.1948 80.4037C48.1948 80.4722 48.1675 80.5379 48.119 80.5863C48.0705 80.6348 48.0047 80.662 47.936 80.662Z" fill="white"/>
<path d="M58.0066 84.3355H40.4116C40.3785 84.3355 40.3458 84.3289 40.3153 84.3162C40.2848 84.3034 40.2572 84.2846 40.2341 84.2611C40.2109 84.2375 40.1927 84.2095 40.1806 84.1788C40.1684 84.1482 40.1625 84.1153 40.1632 84.0824C40.1625 84.0496 40.1684 84.017 40.1806 83.9866C40.1929 83.9562 40.2111 83.9286 40.2344 83.9054C40.2576 83.8822 40.2852 83.864 40.3157 83.8518C40.3461 83.8396 40.3788 83.8336 40.4116 83.8343H58.0066C58.0396 83.8337 58.0725 83.8396 58.1032 83.8517C58.134 83.8639 58.162 83.882 58.1856 83.9051C58.2092 83.9282 58.228 83.9558 58.2408 83.9862C58.2536 84.0167 58.2602 84.0493 58.2602 84.0824C58.2602 84.1495 58.2334 84.2139 58.1859 84.2614C58.1383 84.3088 58.0738 84.3355 58.0066 84.3355Z" fill="white"/>
<path d="M73.1383 84.3355H60.9201C60.8871 84.3355 60.8543 84.3289 60.8239 84.3162C60.7934 84.3034 60.7658 84.2846 60.7426 84.2611C60.7195 84.2375 60.7013 84.2095 60.6891 84.1788C60.6769 84.1482 60.671 84.1153 60.6717 84.0824C60.671 84.0496 60.677 84.017 60.6892 83.9866C60.7014 83.9562 60.7197 83.9286 60.7429 83.9054C60.7661 83.8822 60.7938 83.864 60.8242 83.8518C60.8547 83.8396 60.8873 83.8336 60.9201 83.8343H73.1383C73.1714 83.8337 73.2042 83.8396 73.2349 83.8517C73.2657 83.8639 73.2937 83.882 73.3173 83.9051C73.3409 83.9282 73.3597 83.9558 73.3725 83.9862C73.3853 84.0167 73.3919 84.0493 73.3919 84.0824C73.3919 84.1495 73.3652 84.2139 73.3176 84.2614C73.2701 84.3088 73.2056 84.3355 73.1383 84.3355Z" fill="#FF5C64"/>
<path d="M90.014 84.3355H74.8874C74.8544 84.3355 74.8216 84.3289 74.7912 84.3162C74.7607 84.3034 74.7331 84.2846 74.7099 84.2611C74.6868 84.2375 74.6686 84.2095 74.6564 84.1788C74.6443 84.1482 74.6383 84.1153 74.639 84.0824C74.6383 84.0496 74.6443 84.017 74.6565 83.9866C74.6687 83.9562 74.687 83.9286 74.7102 83.9054C74.7334 83.8822 74.7611 83.864 74.7915 83.8518C74.822 83.8396 74.8546 83.8336 74.8874 83.8343H90.014C90.0798 83.8343 90.143 83.8605 90.1896 83.907C90.2362 83.9535 90.2624 84.0166 90.2624 84.0824C90.2624 84.1486 90.2364 84.2122 90.1899 84.2596C90.1435 84.3069 90.0803 84.3342 90.014 84.3355Z" fill="#FF5C64"/>
<path d="M66.8144 88.009H41.1982C41.1309 88.009 41.0664 87.9823 41.0189 87.9348C40.9713 87.8873 40.9446 87.8229 40.9446 87.7558C40.9446 87.7228 40.9512 87.6901 40.964 87.6597C40.9768 87.6293 40.9956 87.6017 41.0192 87.5786C41.0428 87.5555 41.0708 87.5373 41.1015 87.5252C41.1323 87.513 41.1651 87.5071 41.1982 87.5078H66.8144C66.8475 87.5071 66.8803 87.513 66.9111 87.5252C66.9418 87.5373 66.9698 87.5555 66.9934 87.5786C67.017 87.6017 67.0358 87.6293 67.0486 87.6597C67.0614 87.6901 67.068 87.7228 67.068 87.7558C67.068 87.8229 67.0413 87.8873 66.9937 87.9348C66.9462 87.9823 66.8817 88.009 66.8144 88.009Z" fill="white"/>
<path d="M80.0883 88.009H68.5636C68.4963 88.009 68.4318 87.9823 68.3843 87.9348C68.3367 87.8873 68.31 87.8229 68.31 87.7558C68.31 87.7228 68.3166 87.6901 68.3294 87.6597C68.3422 87.6293 68.361 87.6017 68.3846 87.5786C68.4082 87.5555 68.4362 87.5373 68.4669 87.5252C68.4977 87.513 68.5305 87.5071 68.5636 87.5078H80.0883C80.1211 87.5071 80.1537 87.513 80.1842 87.5253C80.2146 87.5375 80.2423 87.5557 80.2655 87.5789C80.2887 87.602 80.307 87.6297 80.3192 87.6601C80.3314 87.6905 80.3374 87.723 80.3367 87.7558C80.3374 87.7888 80.3315 87.8216 80.3193 87.8523C80.3071 87.883 80.2889 87.9109 80.2658 87.9345C80.2427 87.9581 80.215 87.9768 80.1846 87.9896C80.1541 88.0024 80.1213 88.009 80.0883 88.009Z" fill="#FF5C64"/>
<path d="M116.308 88.009H82.0393C81.9729 88.0076 81.9097 87.9803 81.8633 87.933C81.8169 87.8857 81.7909 87.8221 81.7909 87.7558C81.7909 87.69 81.817 87.627 81.8636 87.5804C81.9102 87.5339 81.9734 87.5078 82.0393 87.5078H116.308C116.341 87.5071 116.374 87.513 116.405 87.5252C116.436 87.5373 116.464 87.5555 116.487 87.5786C116.511 87.6017 116.53 87.6293 116.542 87.6597C116.555 87.6901 116.562 87.7228 116.562 87.7558C116.562 87.8229 116.535 87.8873 116.487 87.9348C116.44 87.9823 116.375 88.009 116.308 88.009Z" fill="#FF5C64"/>
<path d="M53.2093 91.6826H41.0947C41.026 91.6826 40.9602 91.6553 40.9117 91.6069C40.8632 91.5585 40.8359 91.4927 40.8359 91.4242C40.8359 91.3557 40.8632 91.29 40.9117 91.2416C40.9602 91.1931 41.026 91.1659 41.0947 91.1659H53.2093C53.278 91.1659 53.3438 91.1931 53.3923 91.2416C53.4408 91.29 53.4681 91.3557 53.4681 91.4242C53.4681 91.4927 53.4408 91.5585 53.3923 91.6069C53.3438 91.6553 53.278 91.6826 53.2093 91.6826Z" fill="white"/>
<path d="M64.5426 91.6826H55.6209C55.5523 91.6826 55.4865 91.6553 55.4379 91.6069C55.3894 91.5585 55.3622 91.4927 55.3622 91.4242C55.3622 91.3557 55.3894 91.29 55.4379 91.2416C55.4865 91.1931 55.5523 91.1659 55.6209 91.1659H64.5426C64.6112 91.1659 64.677 91.1931 64.7256 91.2416C64.7741 91.29 64.8013 91.3557 64.8013 91.4242C64.8013 91.4927 64.7741 91.5585 64.7256 91.6069C64.677 91.6553 64.6112 91.6826 64.5426 91.6826Z" fill="#FF5C64"/>
<path d="M75.8655 91.6826H66.9438C66.8752 91.6826 66.8094 91.6553 66.7608 91.6069C66.7123 91.5585 66.6851 91.4927 66.6851 91.4242C66.6851 91.3557 66.7123 91.29 66.7608 91.2416C66.8094 91.1931 66.8752 91.1659 66.9438 91.1659H75.8655C75.9341 91.1659 75.9999 91.1931 76.0485 91.2416C76.097 91.29 76.1243 91.3557 76.1243 91.4242C76.1243 91.4927 76.097 91.5585 76.0485 91.6069C75.9999 91.6553 75.9341 91.6826 75.8655 91.6826Z" fill="#FF5C64"/>
<path d="M62.514 95.356H41.0947C41.0616 95.3567 41.0288 95.3508 40.998 95.3387C40.9673 95.3265 40.9393 95.3083 40.9157 95.2852C40.8921 95.2621 40.8733 95.2346 40.8605 95.2041C40.8477 95.1737 40.8411 95.141 40.8411 95.108C40.8411 95.0409 40.8678 94.9765 40.9154 94.929C40.9629 94.8815 41.0274 94.8549 41.0947 94.8549H62.514C62.5813 94.8549 62.6458 94.8815 62.6933 94.929C62.7409 94.9765 62.7676 95.0409 62.7676 95.108C62.7676 95.141 62.761 95.1737 62.7482 95.2041C62.7354 95.2346 62.7166 95.2621 62.693 95.2852C62.6694 95.3083 62.6414 95.3265 62.6107 95.3387C62.5799 95.3508 62.5471 95.3567 62.514 95.356Z" fill="white"/>
<path d="M75.8655 95.356H65.1532C65.1204 95.3567 65.0878 95.3508 65.0574 95.3386C65.0269 95.3264 64.9992 95.3081 64.976 95.285C64.9528 95.2618 64.9345 95.2342 64.9223 95.2038C64.9101 95.1734 64.9041 95.1408 64.9048 95.108C64.9042 95.075 64.9101 95.0422 64.9222 95.0115C64.9344 94.9808 64.9526 94.9529 64.9757 94.9293C64.9989 94.9057 65.0265 94.887 65.057 94.8742C65.0875 94.8614 65.1202 94.8549 65.1532 94.8549H75.8655C75.8985 94.8549 75.9313 94.8614 75.9617 94.8742C75.9922 94.887 76.0198 94.9057 76.043 94.9293C76.0661 94.9529 76.0843 94.9808 76.0965 95.0115C76.1087 95.0422 76.1146 95.075 76.1139 95.108C76.1146 95.1408 76.1086 95.1734 76.0964 95.2038C76.0842 95.2342 76.0659 95.2618 76.0427 95.285C76.0195 95.3081 75.9918 95.3264 75.9614 95.3386C75.9309 95.3508 75.8983 95.3567 75.8655 95.356Z" fill="#FF5C64"/>
<path d="M94.806 95.356H78.4944C78.4616 95.3567 78.429 95.3508 78.3985 95.3386C78.3681 95.3264 78.3404 95.3081 78.3172 95.285C78.294 95.2618 78.2757 95.2342 78.2635 95.2038C78.2512 95.1734 78.2453 95.1408 78.246 95.108C78.2453 95.075 78.2512 95.0422 78.2634 95.0115C78.2756 94.9808 78.2938 94.9529 78.3169 94.9293C78.34 94.9057 78.3677 94.887 78.3981 94.8742C78.4286 94.8614 78.4613 94.8549 78.4944 94.8549H94.806C94.8393 94.8549 94.8723 94.8614 94.903 94.8741C94.9338 94.8869 94.9618 94.9055 94.9853 94.929C95.0088 94.9525 95.0275 94.9804 95.0403 95.0111C95.053 95.0419 95.0596 95.0748 95.0596 95.108C95.0596 95.141 95.053 95.1737 95.0402 95.2041C95.0274 95.2346 95.0086 95.2621 94.985 95.2852C94.9614 95.3083 94.9334 95.3265 94.9026 95.3387C94.8719 95.3508 94.839 95.3567 94.806 95.356Z" fill="#FF5C64"/>
<path d="M112.815 95.356H96.5241C96.491 95.3567 96.4582 95.3508 96.4274 95.3387C96.3967 95.3265 96.3687 95.3083 96.3451 95.2852C96.3215 95.2621 96.3027 95.2346 96.2899 95.2041C96.2771 95.1737 96.2705 95.141 96.2705 95.108C96.2705 95.0409 96.2972 94.9765 96.3448 94.929C96.3923 94.8815 96.4568 94.8549 96.5241 94.8549H112.815C112.882 94.8549 112.947 94.8815 112.994 94.929C113.042 94.9765 113.069 95.0409 113.069 95.108C113.069 95.141 113.062 95.1737 113.049 95.2041C113.036 95.2346 113.018 95.2621 112.994 95.2852C112.97 95.3083 112.942 95.3265 112.912 95.3387C112.881 95.3508 112.848 95.3567 112.815 95.356Z" fill="#FF5C64"/>
<path d="M59.29 99.0295H46.5129C46.4798 99.0302 46.447 99.0243 46.4162 99.0121C46.3855 99 46.3575 98.9818 46.3339 98.9587C46.3103 98.9356 46.2915 98.908 46.2787 98.8776C46.2659 98.8472 46.2593 98.8145 46.2593 98.7815C46.2593 98.7482 46.2659 98.7153 46.2786 98.6846C46.2914 98.6539 46.31 98.626 46.3336 98.6025C46.3571 98.579 46.3851 98.5603 46.4159 98.5476C46.4466 98.5349 46.4796 98.5283 46.5129 98.5283H59.29C59.323 98.5283 59.3558 98.5349 59.3863 98.5477C59.4167 98.5605 59.4443 98.5792 59.4675 98.6028C59.4906 98.6264 59.5088 98.6543 59.521 98.685C59.5332 98.7157 59.5391 98.7485 59.5384 98.7815C59.5391 98.8143 59.5331 98.8468 59.5209 98.8772C59.5087 98.9076 59.4904 98.9353 59.4672 98.9584C59.444 98.9816 59.4163 98.9998 59.3859 99.0121C59.3554 99.0243 59.3228 99.0302 59.29 99.0295Z" fill="white"/>
<path d="M74.4631 99.0295H61.686C61.6532 99.0302 61.6206 99.0243 61.5901 99.0121C61.5596 98.9998 61.532 98.9816 61.5088 98.9584C61.4856 98.9353 61.4673 98.9076 61.4551 98.8772C61.4428 98.8468 61.4369 98.8143 61.4376 98.7815C61.4369 98.7485 61.4428 98.7157 61.455 98.685C61.4672 98.6543 61.4853 98.6264 61.5085 98.6028C61.5316 98.5792 61.5592 98.5605 61.5897 98.5477C61.6202 98.5349 61.6529 98.5283 61.686 98.5283H74.4631C74.4964 98.5283 74.5293 98.5349 74.5601 98.5476C74.5909 98.5603 74.6188 98.579 74.6424 98.6025C74.6659 98.626 74.6846 98.6539 74.6973 98.6846C74.7101 98.7153 74.7166 98.7482 74.7166 98.7815C74.7167 98.8145 74.7101 98.8472 74.6973 98.8776C74.6844 98.908 74.6657 98.9356 74.6421 98.9587C74.6185 98.9818 74.5905 99 74.5597 99.0121C74.529 99.0243 74.4961 99.0302 74.4631 99.0295Z" fill="#FF5C64"/>
<path d="M89.7449 99.0295H76.9678C76.9347 99.0302 76.9019 99.0243 76.8711 99.0121C76.8404 99 76.8124 98.9818 76.7888 98.9587C76.7652 98.9356 76.7464 98.908 76.7336 98.8776C76.7208 98.8472 76.7142 98.8145 76.7142 98.7815C76.7142 98.7482 76.7208 98.7153 76.7335 98.6846C76.7462 98.6539 76.7649 98.626 76.7885 98.6025C76.812 98.579 76.84 98.5603 76.8707 98.5476C76.9015 98.5349 76.9345 98.5283 76.9678 98.5283H89.7449C89.7779 98.5283 89.8106 98.5349 89.8411 98.5477C89.8716 98.5605 89.8992 98.5792 89.9224 98.6028C89.9455 98.6264 89.9637 98.6543 89.9759 98.685C89.988 98.7157 89.9939 98.7485 89.9933 98.7815C89.994 98.8143 89.988 98.8468 89.9758 98.8772C89.9636 98.9076 89.9453 98.9353 89.9221 98.9584C89.8989 98.9816 89.8712 98.9998 89.8407 99.0121C89.8103 99.0243 89.7777 99.0302 89.7449 99.0295Z" fill="#FF5C64"/>
<path d="M105.57 99.4428H92.7877C92.7191 99.4428 92.6533 99.4156 92.6048 99.3671C92.5562 99.3187 92.529 99.253 92.529 99.1845C92.529 99.116 92.5562 99.0503 92.6048 99.0018C92.6533 98.9534 92.7191 98.9261 92.7877 98.9261H105.57C105.639 98.9261 105.704 98.9534 105.753 99.0018C105.801 99.0503 105.829 99.116 105.829 99.1845C105.829 99.253 105.801 99.3187 105.753 99.3671C105.704 99.4156 105.639 99.4428 105.57 99.4428Z" fill="#FF5C64"/>
<path d="M57.22 102.703H48.4225C48.3897 102.704 48.357 102.698 48.3266 102.686C48.2961 102.673 48.2685 102.655 48.2453 102.632C48.222 102.609 48.2038 102.581 48.1915 102.551C48.1793 102.52 48.1734 102.488 48.1741 102.455C48.1734 102.422 48.1793 102.389 48.1915 102.359C48.2036 102.328 48.2218 102.3 48.245 102.276C48.2681 102.253 48.2957 102.234 48.3262 102.221C48.3567 102.208 48.3894 102.202 48.4225 102.202H57.22C57.2872 102.202 57.3517 102.229 57.3993 102.276C57.4468 102.323 57.4735 102.388 57.4735 102.455C57.4735 102.488 57.4669 102.521 57.4541 102.551C57.4413 102.582 57.4226 102.609 57.399 102.632C57.3753 102.655 57.3473 102.673 57.3166 102.686C57.2859 102.698 57.253 102.704 57.22 102.703Z" fill="white"/>
<path d="M68.0978 102.703H59.3003C59.2673 102.704 59.2344 102.698 59.2037 102.686C59.1729 102.673 59.1449 102.655 59.1213 102.632C59.0977 102.609 59.0789 102.582 59.0661 102.551C59.0533 102.521 59.0467 102.488 59.0467 102.455C59.0467 102.388 59.0735 102.323 59.121 102.276C59.1686 102.229 59.2331 102.202 59.3003 102.202H68.0978C68.1309 102.202 68.1636 102.208 68.1941 102.221C68.2246 102.234 68.2522 102.253 68.2753 102.276C68.2984 102.3 68.3166 102.328 68.3288 102.359C68.341 102.389 68.3469 102.422 68.3462 102.455C68.3469 102.488 68.341 102.52 68.3287 102.551C68.3165 102.581 68.2982 102.609 68.275 102.632C68.2518 102.655 68.2242 102.673 68.1937 102.686C68.1632 102.698 68.1306 102.704 68.0978 102.703Z" fill="#FF5C64"/>
<path d="M88.4356 103.075L70.2506 102.703C70.2176 102.703 70.1848 102.696 70.1544 102.684C70.1239 102.671 70.0963 102.652 70.0731 102.629C70.05 102.605 70.0318 102.577 70.0196 102.546C70.0075 102.516 70.0015 102.483 70.0022 102.45C70.0014 102.416 70.0077 102.383 70.0205 102.352C70.0334 102.32 70.0526 102.292 70.0769 102.269C70.1013 102.246 70.1302 102.228 70.1619 102.216C70.1936 102.205 70.2273 102.2 70.261 102.202L88.446 102.574C88.5146 102.574 88.5804 102.601 88.6289 102.65C88.6774 102.698 88.7047 102.764 88.7047 102.832C88.7047 102.901 88.6774 102.966 88.6289 103.015C88.5804 103.063 88.5146 103.091 88.446 103.091L88.4356 103.075Z" fill="#FF5C64"/>
<path d="M95.22 62.2893H83.3175C83.2845 62.2893 83.2517 62.2827 83.2212 62.2699C83.1908 62.2572 83.1631 62.2384 83.14 62.2149C83.1169 62.1913 83.0987 62.1633 83.0865 62.1326C83.0743 62.1019 83.0684 62.0691 83.0691 62.0361C83.0684 62.0034 83.0744 61.9708 83.0866 61.9404C83.0988 61.91 83.1171 61.8824 83.1403 61.8592C83.1635 61.836 83.1912 61.8178 83.2216 61.8056C83.2521 61.7934 83.2847 61.7874 83.3175 61.7881H95.22C95.2531 61.7875 95.2859 61.7934 95.3167 61.8055C95.3474 61.8177 95.3754 61.8358 95.399 61.8589C95.4226 61.882 95.4414 61.9096 95.4542 61.94C95.467 61.9705 95.4736 62.0031 95.4736 62.0361C95.4736 62.1033 95.4469 62.1677 95.3993 62.2152C95.3518 62.2626 95.2873 62.2893 95.22 62.2893Z" fill="#FF5C64"/>
<path d="M104.017 62.3254C101.689 62.3254 99.9603 62.3254 99.8775 62.2738C99.8459 62.265 99.8163 62.25 99.7905 62.2298C99.7647 62.2096 99.7431 62.1845 99.727 62.1559C99.6945 62.0983 99.6863 62.0301 99.7041 61.9664C99.722 61.9026 99.7644 61.8486 99.8222 61.8161C99.8799 61.7837 99.9482 61.7755 100.012 61.7933C100.467 61.8501 108.323 61.8191 113.519 61.7933C113.552 61.7926 113.585 61.7985 113.615 61.8106C113.646 61.8228 113.674 61.841 113.698 61.8641C113.721 61.8872 113.74 61.9147 113.753 61.9452C113.766 61.9756 113.772 62.0083 113.772 62.0413C113.772 62.1084 113.746 62.1728 113.698 62.2203C113.651 62.2678 113.586 62.2944 113.519 62.2944C110.745 62.3048 106.915 62.3254 104.017 62.3254Z" fill="#FF5C64"/>
<path d="M93.3208 54.9423H76.0363C75.9677 54.9423 75.9018 54.9151 75.8533 54.8667C75.8048 54.8182 75.7775 54.7525 75.7775 54.684C75.7775 54.6155 75.8048 54.5498 75.8533 54.5013C75.9018 54.4529 75.9677 54.4257 76.0363 54.4257H93.3208C93.3894 54.4257 93.4552 54.4529 93.5037 54.5013C93.5523 54.5498 93.5795 54.6155 93.5795 54.684C93.5795 54.7525 93.5523 54.8182 93.5037 54.8667C93.4552 54.9151 93.3894 54.9423 93.3208 54.9423Z" fill="#FF5C64"/>
<path d="M113.995 54.9423H96.7725C96.7039 54.9423 96.638 54.9151 96.5895 54.8667C96.541 54.8182 96.5137 54.7525 96.5137 54.684C96.5137 54.6155 96.541 54.5498 96.5895 54.5013C96.638 54.4529 96.7039 54.4257 96.7725 54.4257H113.974C114.043 54.4257 114.109 54.4529 114.157 54.5013C114.206 54.5498 114.233 54.6155 114.233 54.684C114.233 54.7525 114.206 54.8182 114.157 54.8667C114.109 54.9151 114.043 54.9423 113.974 54.9423H113.995Z" fill="#FF5C64"/>
<path d="M77.1075 51.2844C73.9145 51.2844 71.4823 51.2844 71.3839 51.2844C71.3183 51.273 71.2597 51.2362 71.221 51.1821C71.1823 51.1279 71.1664 51.0607 71.1769 50.995C71.1872 50.9309 71.2221 50.8734 71.2744 50.8347C71.3266 50.7961 71.392 50.7794 71.4564 50.7884C71.8963 50.8194 84.6578 50.7884 91.3543 50.7884C91.4215 50.7884 91.486 50.815 91.5336 50.8625C91.5811 50.91 91.6078 50.9744 91.6078 51.0415C91.6078 51.0745 91.6013 51.1072 91.5884 51.1376C91.5756 51.1681 91.5569 51.1956 91.5333 51.2187C91.5097 51.2418 91.4817 51.26 91.4509 51.2722C91.4202 51.2843 91.3873 51.2902 91.3543 51.2895C88.5442 51.274 81.9409 51.2844 77.1075 51.2844Z" fill="#FF5C64"/>
<path d="M96.017 51.2792C95.9707 51.2782 95.9257 51.2641 95.8872 51.2385C95.8487 51.2128 95.8183 51.1768 95.7996 51.1345C95.7744 51.0705 95.7742 50.9993 95.7991 50.9352C95.8241 50.8711 95.8723 50.8186 95.9342 50.7884C96.136 50.6902 100.157 50.6799 107.878 50.7884C107.944 50.791 108.006 50.8187 108.053 50.8657C108.099 50.9128 108.125 50.9757 108.126 51.0415C108.126 51.0745 108.12 51.1072 108.107 51.1376C108.094 51.1681 108.076 51.1956 108.052 51.2187C108.028 51.2418 108 51.26 107.97 51.2722C107.939 51.2843 107.906 51.2902 107.873 51.2895C103.376 51.243 96.5396 51.2017 96.1153 51.2895C96.0822 51.2955 96.0481 51.292 96.017 51.2792Z" fill="white"/>
<path d="M79.3431 76.9833H70.4318C70.3631 76.9833 70.2973 76.9561 70.2488 76.9077C70.2003 76.8592 70.173 76.7935 70.173 76.725C70.173 76.6565 70.2003 76.5908 70.2488 76.5423C70.2973 76.4939 70.3631 76.4667 70.4318 76.4667H79.3431C79.4117 76.4667 79.4775 76.4939 79.5261 76.5423C79.5746 76.5908 79.6019 76.6565 79.6019 76.725C79.6019 76.7935 79.5746 76.8592 79.5261 76.9077C79.4775 76.9561 79.4117 76.9833 79.3431 76.9833Z" fill="#FF5C64"/>
<path d="M58.8967 80.662H52.3399C52.2713 80.662 52.2055 80.6348 52.157 80.5863C52.1084 80.5379 52.0812 80.4722 52.0812 80.4037C52.0812 80.3351 52.1084 80.2694 52.157 80.221C52.2055 80.1725 52.2713 80.1453 52.3399 80.1453H58.8967C58.9653 80.1453 59.0311 80.1725 59.0796 80.221C59.1281 80.2694 59.1554 80.3351 59.1554 80.4037C59.1554 80.4722 59.1281 80.5379 59.0796 80.5863C59.0311 80.6348 58.9653 80.662 58.8967 80.662Z" fill="#FF5C64"/>
<path d="M76.9678 80.662H61.3859C61.3172 80.662 61.2514 80.6348 61.2029 80.5863C61.1544 80.5379 61.1271 80.4722 61.1271 80.4037C61.1271 80.3351 61.1544 80.2694 61.2029 80.221C61.2514 80.1725 61.3172 80.1453 61.3859 80.1453H76.9678C77.0364 80.1453 77.1022 80.1725 77.1507 80.221C77.1993 80.2694 77.2265 80.3351 77.2265 80.4037C77.2265 80.4722 77.1993 80.5379 77.1507 80.5863C77.1022 80.6348 77.0364 80.662 76.9678 80.662Z" fill="white"/>
<path d="M110.274 80.662H80.0883C80.0197 80.662 79.9539 80.6348 79.9053 80.5863C79.8568 80.5379 79.8295 80.4722 79.8295 80.4037C79.8295 80.3351 79.8568 80.2694 79.9053 80.221C79.9539 80.1725 80.0197 80.1453 80.0883 80.1453H110.274C110.343 80.1453 110.409 80.1725 110.457 80.221C110.506 80.2694 110.533 80.3351 110.533 80.4037C110.533 80.4722 110.506 80.5379 110.457 80.5863C110.409 80.6348 110.343 80.662 110.274 80.662Z" fill="#FF5C64"/>
<path d="M29.4975 42.7697C29.9834 42.7697 30.3772 42.3765 30.3772 41.8914C30.3772 41.4063 29.9834 41.0131 29.4975 41.0131C29.0116 41.0131 28.6177 41.4063 28.6177 41.8914C28.6177 42.3765 29.0116 42.7697 29.4975 42.7697Z" fill="#231F20"/>
<path d="M32.5818 42.7697C33.0677 42.7697 33.4616 42.3765 33.4616 41.8914C33.4616 41.4063 33.0677 41.0131 32.5818 41.0131C32.0959 41.0131 31.702 41.4063 31.702 41.8914C31.702 42.3765 32.0959 42.7697 32.5818 42.7697Z" fill="white"/>
<path d="M35.6661 42.7697C36.152 42.7697 36.5459 42.3765 36.5459 41.8914C36.5459 41.4063 36.152 41.0131 35.6661 41.0131C35.1802 41.0131 34.7864 41.4063 34.7864 41.8914C34.7864 42.3765 35.1802 42.7697 35.6661 42.7697Z" fill="white"/>
<path d="M93.2794 124.331H60.3612L64.082 113.005H89.5585L93.2794 124.331Z" fill="white"/>
<path d="M93.2794 124.589H60.3612C60.3201 124.59 60.2792 124.582 60.2421 124.564C60.205 124.546 60.1729 124.519 60.1484 124.486C60.124 124.453 60.108 124.415 60.1017 124.374C60.0955 124.334 60.0993 124.292 60.1128 124.253L63.8336 112.928C63.8502 112.875 63.8833 112.829 63.928 112.797C63.9727 112.764 64.0267 112.747 64.082 112.747H89.5585C89.6139 112.747 89.6679 112.764 89.7126 112.797C89.7573 112.829 89.7903 112.875 89.8069 112.928L93.5278 124.253C93.5412 124.292 93.545 124.334 93.5388 124.374C93.5326 124.415 93.5166 124.453 93.4921 124.486C93.4677 124.519 93.4355 124.546 93.3985 124.564C93.3614 124.582 93.3205 124.59 93.2794 124.589ZM60.7183 124.072H92.9223L89.3722 113.264H64.2683L60.7183 124.072Z" fill="#231F20"/>
<path d="M95.9962 124.331H57.6443C56.7612 124.331 56.0452 125.044 56.0452 125.925C56.0452 126.805 56.7612 127.519 57.6443 127.519H95.9962C96.8794 127.519 97.5953 126.805 97.5953 125.925C97.5953 125.044 96.8794 124.331 95.9962 124.331Z" fill="white"/>
<path d="M96.0014 127.782H57.6443C57.1516 127.782 56.6791 127.587 56.3306 127.239C55.9822 126.891 55.7865 126.419 55.7865 125.927C55.7865 125.435 55.9822 124.963 56.3306 124.616C56.6791 124.268 57.1516 124.072 57.6443 124.072H96.0014C96.4941 124.072 96.9667 124.268 97.3151 124.616C97.6635 124.963 97.8593 125.435 97.8593 125.927C97.8593 126.419 97.6635 126.891 97.3151 127.239C96.9667 127.587 96.4941 127.782 96.0014 127.782ZM57.6443 124.589C57.2888 124.589 56.9479 124.73 56.6966 124.981C56.4452 125.232 56.304 125.572 56.304 125.927C56.304 126.282 56.4452 126.622 56.6966 126.873C56.9479 127.124 57.2888 127.265 57.6443 127.265H96.0014C96.3569 127.265 96.6978 127.124 96.9492 126.873C97.2005 126.622 97.3418 126.282 97.3418 125.927C97.3418 125.572 97.2005 125.232 96.9492 124.981C96.6978 124.73 96.3569 124.589 96.0014 124.589H57.6443Z" fill="#231F20"/>
<path d="M61.3496 121.329C61.8671 121.05 90.3814 115.852 90.3814 115.852L89.4447 113.005H63.9682L61.3496 121.329Z" fill="#231F20"/>
<path d="M61.3444 121.587C61.2852 121.587 61.2281 121.565 61.184 121.525C61.1464 121.493 61.1194 121.45 61.1065 121.402C61.0936 121.354 61.0954 121.303 61.1116 121.257L63.7301 112.933C63.7449 112.882 63.7763 112.837 63.8193 112.805C63.8623 112.773 63.9147 112.756 63.9682 112.757H89.4447C89.4975 112.756 89.5494 112.772 89.5923 112.803C89.6353 112.834 89.667 112.877 89.6827 112.928L90.6194 115.77C90.6294 115.804 90.6322 115.84 90.6276 115.875C90.623 115.911 90.6111 115.945 90.5926 115.975C90.5741 116.006 90.5495 116.032 90.5203 116.053C90.491 116.074 90.4578 116.088 90.4228 116.095C82.6085 117.521 62.1621 121.288 61.4428 121.561C61.4119 121.576 61.3785 121.585 61.3444 121.587ZM64.17 113.259L61.7377 120.983C65.1636 120.208 85.1184 116.56 90.0657 115.656L89.2791 113.259H64.17Z" fill="#231F20"/>
</svg>
