<svg width="41" height="41" viewBox="0 0 41 41" fill="none" xmlns="http://www.w3.org/2000/svg">
<path d="M20.5 0C15.0631 0 9.84881 2.15982 6.00431 6.00431C2.15982 9.84881 0 15.0631 0 20.5C0 25.9369 2.15982 31.1512 6.00431 34.9957C9.84881 38.8402 15.0631 41 20.5 41C25.9369 41 31.1512 38.8402 34.9957 34.9957C38.8402 31.1512 41 25.9369 41 20.5C41 15.0631 38.8402 9.84881 34.9957 6.00431C31.1512 2.15982 25.9369 0 20.5 0ZM25.9045 37.2131H25.7443C25.6249 37.2195 25.5055 37.2015 25.3933 37.1602C25.2812 37.1189 25.1786 37.0551 25.092 36.9727C25.0119 36.8883 24.9494 36.7888 24.9082 36.68C24.8669 36.5712 24.8477 36.4553 24.8516 36.339V33.935C24.8628 33.1373 24.8702 32.3322 24.8702 31.5178C24.8672 30.9227 24.78 30.3311 24.6112 29.7604C24.4522 29.1841 24.1314 28.6655 23.6868 28.2658C24.8775 28.1508 26.0479 27.8801 27.1681 27.4607C28.1131 27.1016 28.9681 26.5399 29.6728 25.8151C30.368 25.0845 30.8842 24.2049 31.1824 23.2414C31.5476 22.0636 31.721 20.8373 31.6967 19.6036C31.7022 18.7429 31.5507 17.8884 31.2495 17.0821C30.9452 16.2696 30.485 15.5244 29.8946 14.8886C30.0213 14.568 30.1145 14.2345 30.1704 13.8934C30.3003 13.1125 30.2775 12.3138 30.1033 11.5415C30.01 11.0978 29.8835 10.6617 29.725 10.237C29.6644 10.2136 29.5998 10.2022 29.5349 10.2034H29.3485C28.9572 10.2071 28.5677 10.2724 28.1968 10.3935C27.7868 10.5128 27.3843 10.6619 26.9948 10.8389C26.6075 11.0123 26.2304 11.2077 25.8654 11.4241C25.5329 11.6201 25.2066 11.8265 24.887 12.0428C22.0134 11.242 18.9755 11.242 16.1018 12.0428C15.7809 11.8284 15.4547 11.6221 15.1234 11.4241C14.7533 11.2052 14.3699 11.0098 13.9754 10.8389C13.5872 10.6573 13.1845 10.5083 12.7715 10.3935C12.4063 10.2727 12.0248 10.2086 11.6403 10.2034H11.4539C11.3901 10.2031 11.3268 10.2151 11.2675 10.2388C11.1057 10.6635 10.9731 11.0987 10.8706 11.5415C10.7089 12.3157 10.6919 13.113 10.8203 13.8934C10.8762 14.2345 10.9675 14.568 11.0942 14.8886C10.5044 15.5244 10.0447 16.2696 9.74123 17.0821C9.44003 17.8884 9.28845 18.7429 9.29395 19.6036C9.2693 20.8285 9.43657 22.0496 9.78968 23.2228C10.1009 24.1863 10.6153 25.0715 11.3011 25.8151C12.0093 26.5345 12.8628 27.0954 13.8058 27.4607C14.9203 27.8893 16.0888 28.1633 17.2778 28.2751C16.946 28.5751 16.6814 28.946 16.5062 29.356C16.3385 29.7641 16.2211 30.1909 16.1633 30.627C15.5366 30.9274 14.8512 31.0853 14.1562 31.0892C13.5107 31.1144 12.8739 30.9343 12.3373 30.5748C11.8217 30.1934 11.385 29.7155 11.0514 29.1678C10.9022 28.9381 10.7358 28.7201 10.5538 28.5155C10.3614 28.301 10.1493 28.105 9.92014 27.9303C9.69311 27.7609 9.44424 27.623 9.18027 27.5203C8.92122 27.4064 8.64139 27.3474 8.35841 27.347C8.28977 27.3492 8.22132 27.3554 8.15341 27.3656C8.06023 27.3656 7.96705 27.3768 7.87759 27.3992C7.79758 27.4199 7.72187 27.4546 7.65395 27.5017C7.62392 27.5188 7.59885 27.5434 7.5812 27.5732C7.56356 27.6029 7.55395 27.6367 7.55332 27.6713C7.56078 27.7536 7.58617 27.8333 7.6277 27.9048C7.66923 27.9762 7.7259 28.0378 7.79373 28.085C7.95027 28.2117 8.08259 28.3086 8.18882 28.3776L8.23727 28.413C8.4665 28.5882 8.68455 28.7783 8.88955 28.9814C9.08336 29.1491 9.25668 29.3392 9.40391 29.5461C9.55859 29.7474 9.69091 29.9673 9.799 30.1965C9.92386 30.4257 10.0562 30.6885 10.1941 30.9867C10.5146 31.7955 11.0849 32.4813 11.8229 32.9435C12.5963 33.3591 13.4666 33.566 14.3444 33.5436C14.6426 33.5436 14.9408 33.525 15.239 33.4914C15.5297 33.4448 15.8223 33.3945 16.1149 33.3367V36.3148C16.1198 36.4346 16.0995 36.5542 16.0553 36.6656C16.011 36.7771 15.9439 36.878 15.8581 36.9618C15.7724 37.0457 15.6699 37.1105 15.5575 37.1522C15.445 37.1939 15.3251 37.2115 15.2054 37.2038H15.0992C11.1158 35.9168 7.72286 33.25 5.53119 29.6835C3.33953 26.117 2.4932 21.8853 3.14461 17.7502C3.79602 13.6151 5.90236 9.84845 9.08434 7.12849C12.2663 4.40854 16.3149 2.914 20.5009 2.914C24.687 2.914 28.7355 4.40854 31.9175 7.12849C35.0995 9.84845 37.2058 13.6151 37.8573 17.7502C38.5087 21.8853 37.6623 26.117 35.4707 29.6835C33.279 33.25 29.886 35.9168 25.9027 37.2038V37.2131H25.9045Z" fill="#00027A"/>
</svg>
