<svg width="28" height="33" viewBox="0 0 28 33" fill="none" xmlns="http://www.w3.org/2000/svg">
<path d="M13.9653 0C6.25253 0 0 6.19889 0 13.8458C0 21.4927 6.25253 27.6917 13.9653 27.6917L13.995 32.9042C21.1706 28.7631 27.995 23.2354 27.995 13.8458C27.995 6.199 21.6781 0 13.9653 0Z" fill="url(#paint0_linear)"/>
<g filter="url(#filter0_i)">
<path d="M13.9653 0C6.25253 0 0 6.19889 0 13.8458C0 21.4927 6.25253 27.6917 13.9653 27.6917L13.995 32.9042C21.1706 28.7631 27.995 23.2354 27.995 13.8458C27.995 6.199 21.6781 0 13.9653 0Z" fill="black"/>
</g>
<g filter="url(#filter1_i)">
<path d="M13.9653 0C6.25253 0 0 6.19889 0 13.8458C0 21.4927 6.25253 27.6917 13.9653 27.6917L13.995 32.9042C21.1706 28.7631 27.995 23.2354 27.995 13.8458C27.995 6.199 21.6781 0 13.9653 0Z" fill="#001A4B"/>
</g>
<mask id="mask0" mask-type="alpha" maskUnits="userSpaceOnUse" x="0" y="0" width="28" height="33">
<path d="M13.9653 0C6.25253 0 0 6.19889 0 13.8458C0 21.4927 6.25253 27.6917 13.9653 27.6917L13.995 32.9042C21.1706 28.7631 27.995 23.2354 27.995 13.8458C27.995 6.199 21.6781 0 13.9653 0Z" fill="white"/>
</mask>
<g mask="url(#mask0)">
<path d="M6.37866 18.7289L18.3046 31.2538L34.1136 19.5131L22.689 9.07757L20.2462 13.3301L6.37866 18.7289Z" fill="url(#paint1_linear)" fill-opacity="0.21"/>
<g filter="url(#filter2_d)">
<path d="M6.07898 14.2339V18.0382C6.07898 19.0425 6.88792 19.8643 7.87656 19.8643H17.1752C18.1638 19.8643 18.9726 19.0425 18.9726 18.0382V15.6357L22.6542 19.3757V14.2339H6.07898Z" fill="black"/>
</g>
<path d="M6.07898 14.2339V18.0382C6.07898 19.0425 6.88792 19.8643 7.87656 19.8643H17.1752C18.1638 19.8643 18.9726 19.0425 18.9726 18.0382V15.6357L22.6542 19.3757V14.2339H6.07898Z" fill="#F6F6F6"/>
<path d="M22.6542 14.2339V9.07779L18.9726 12.8097V10.4297C18.9726 9.42534 18.1638 8.60368 17.1752 8.60368H7.87656C6.88781 8.60368 6.07898 9.42534 6.07898 10.4298V14.234H22.6542V14.2339Z" fill="#E2E2E2"/>
</g>
<defs>
<filter id="filter0_i" x="0" y="0" width="27.995" height="34.9042" filterUnits="userSpaceOnUse" color-interpolation-filters="sRGB">
<feFlood flood-opacity="0" result="BackgroundImageFix"/>
<feBlend mode="normal" in="SourceGraphic" in2="BackgroundImageFix" result="shape"/>
<feColorMatrix in="SourceAlpha" type="matrix" values="0 0 0 0 0 0 0 0 0 0 0 0 0 0 0 0 0 0 127 0" result="hardAlpha"/>
<feOffset dy="2"/>
<feGaussianBlur stdDeviation="2"/>
<feComposite in2="hardAlpha" operator="arithmetic" k2="-1" k3="1"/>
<feColorMatrix type="matrix" values="0 0 0 0 1 0 0 0 0 1 0 0 0 0 1 0 0 0 0.2 0"/>
<feBlend mode="normal" in2="shape" result="effect1_innerShadow"/>
</filter>
<filter id="filter1_i" x="0" y="-2" width="27.995" height="34.9042" filterUnits="userSpaceOnUse" color-interpolation-filters="sRGB">
<feFlood flood-opacity="0" result="BackgroundImageFix"/>
<feBlend mode="normal" in="SourceGraphic" in2="BackgroundImageFix" result="shape"/>
<feColorMatrix in="SourceAlpha" type="matrix" values="0 0 0 0 0 0 0 0 0 0 0 0 0 0 0 0 0 0 127 0" result="hardAlpha"/>
<feOffset dy="-2"/>
<feGaussianBlur stdDeviation="2"/>
<feComposite in2="hardAlpha" operator="arithmetic" k2="-1" k3="1"/>
<feColorMatrix type="matrix" values="0 0 0 0 0 0 0 0 0 0 0 0 0 0 0 0 0 0 0.1 0"/>
<feBlend mode="normal" in2="shape" result="effect1_innerShadow"/>
</filter>
<filter id="filter2_d" x="3.07898" y="13.2339" width="24.5752" height="13.6304" filterUnits="userSpaceOnUse" color-interpolation-filters="sRGB">
<feFlood flood-opacity="0" result="BackgroundImageFix"/>
<feColorMatrix in="SourceAlpha" type="matrix" values="0 0 0 0 0 0 0 0 0 0 0 0 0 0 0 0 0 0 127 0"/>
<feOffset dx="1" dy="3"/>
<feGaussianBlur stdDeviation="2"/>
<feColorMatrix type="matrix" values="0 0 0 0 0 0 0 0 0 0 0 0 0 0 0 0 0 0 0.1 0"/>
<feBlend mode="normal" in2="BackgroundImageFix" result="effect1_dropShadow"/>
<feBlend mode="normal" in="SourceGraphic" in2="effect1_dropShadow" result="shape"/>
</filter>
<linearGradient id="paint0_linear" x1="7.29829" y1="22.3887" x2="23.1678" y2="8.91891" gradientUnits="userSpaceOnUse">
<stop stop-color="#058D80"/>
<stop offset="1" stop-color="#058D7F"/>
</linearGradient>
<linearGradient id="paint1_linear" x1="14.7125" y1="15.1321" x2="25.6978" y2="30.3129" gradientUnits="userSpaceOnUse">
<stop/>
<stop offset="1" stop-color="#D8D8D8" stop-opacity="0"/>
</linearGradient>
</defs>
</svg>
