<svg width="41" height="41" viewBox="0 0 41 41" fill="none" xmlns="http://www.w3.org/2000/svg">
<circle cx="20.5" cy="20.5" r="19" stroke="#00027A" stroke-width="3"/>
<path d="M15 14C15 15.062 14.29 15.976 12.999 15.976C11.784 15.976 11 15.114 11 14.052C11 12.962 11.76 12 13 12C14.24 12 14.976 12.91 15 14ZM11 29.9999L11 17L15 17L15 29.9999L11 29.9999Z" fill="#00027A"/>
<path d="M17.0002 21.444C17.0002 19.899 16.9492 18.6081 16.8982 17.4931L20.4922 17.4931L20.6702 19.216L20.7462 19.216C21.2522 18.4051 22.4922 17.2161 24.5682 17.2161C27.1001 17.2161 29.0001 18.9111 29.0001 22.558L29.0001 30L25.0001 30L25.0001 23.139C25.0001 21.545 24.3932 20.329 23.0002 20.329C21.9382 20.329 21.4062 21.189 21.1272 21.898C21.0252 22.152 21.0002 22.506 21.0002 22.861L21.0002 30L17.0002 30L17.0002 21.444Z" fill="#00027A"/>
</svg>
