<svg width="47" height="52" viewBox="0 0 47 52" fill="none" xmlns="http://www.w3.org/2000/svg">
<path d="M25.6327 24.8696L34.0978 16.3205L6.756 0.800944C4.9439 -0.187823 3.24631 -0.326597 1.7577 0.754687L25.6327 24.8696ZM35.5406 34.8787L44.3405 29.88C46.0582 28.9085 47 27.5324 47 26.0058C47 24.4822 46.0582 23.1031 44.3434 22.1317L36.3765 17.6129L27.4076 26.6679L35.5406 34.8787ZM0.286271 2.85654C0.103057 3.42609 0 4.06214 0 4.7589V47.273C0 48.3745 0.240468 49.3228 0.6756 50.0774L23.855 26.665L0.286271 2.85654ZM25.6327 28.4575L2.58217 51.7398C3.02302 51.9104 3.49823 52 3.99921 52C4.89237 52 5.82275 51.734 6.77031 51.2021L33.2647 36.1768L25.6327 28.4575Z" fill="#FEFEFE"/>
</svg>
