<svg width="510" height="346" viewBox="0 0 510 346" fill="none" xmlns="http://www.w3.org/2000/svg">
<path d="M258.681 153.353C279.959 153.353 297.208 133.304 297.208 108.573C297.208 83.8411 279.959 63.7922 258.681 63.7922C237.403 63.7922 220.154 83.8411 220.154 108.573C220.154 133.304 237.403 153.353 258.681 153.353Z" fill="white"/>
<path d="M258.681 154.191C236.978 154.191 219.317 133.728 219.317 108.573V105.976C219.317 91.9634 219.317 79.8532 227.158 71.9356C233.163 65.8886 243.483 62.9537 258.681 62.9537C273.879 62.9537 284.199 65.8886 290.221 71.9356C298.11 79.8532 298.078 91.9634 298.045 105.976V108.556C298.045 133.728 280.384 154.191 258.681 154.191ZM258.681 64.6308C243.95 64.6308 234.016 67.4044 228.333 73.1128C220.927 80.5305 220.959 92.3182 220.975 105.976V108.556C220.975 132.745 237.88 152.514 258.665 152.514C279.45 152.514 296.387 132.745 296.387 108.556V105.976C296.387 92.3182 296.387 80.5305 289.046 73.1128C283.362 67.4044 273.429 64.6308 258.681 64.6308Z" fill="#231F20"/>
<path d="M349.726 295.354C349.726 267.312 338.037 217.952 328.796 206.132C316.479 190.458 282.927 173.881 227.286 182.121C227.286 182.121 198.387 190.941 180.983 210.05C167.62 224.692 160.745 285.195 158.266 295.354H349.726Z" fill="#FF5C64"/>
<path d="M233.581 130.31C231.697 118.522 212.152 115.603 213.118 129.503C213.269 134.331 215.116 138.951 218.335 142.549C221.683 145.968 227.077 147.58 231.44 145.629" fill="white"/>
<path d="M227.366 147.258C225.562 147.235 223.78 146.855 222.122 146.141C220.465 145.427 218.964 144.393 217.706 143.097C214.358 139.351 212.432 134.545 212.264 129.52C211.798 122.763 215.903 119.844 219.896 119.409C225.949 118.732 233.21 122.86 234.386 130.116C234.406 130.226 234.405 130.338 234.381 130.447C234.357 130.555 234.311 130.658 234.246 130.748C234.182 130.839 234.099 130.915 234.004 130.973C233.909 131.031 233.803 131.068 233.693 131.084C233.476 131.116 233.254 131.062 233.077 130.932C232.899 130.802 232.779 130.608 232.743 130.39C231.745 124.15 225.257 120.473 220.105 121.07C218.093 121.296 213.456 122.57 213.939 129.407C214.081 134.033 215.842 138.462 218.914 141.92C220.429 143.554 222.394 144.702 224.56 145.219C226.727 145.735 228.997 145.597 231.085 144.823C231.286 144.733 231.514 144.727 231.719 144.805C231.925 144.884 232.09 145.041 232.18 145.242C232.27 145.443 232.276 145.671 232.197 145.877C232.119 146.083 231.962 146.249 231.761 146.338C230.376 146.949 228.879 147.262 227.366 147.258Z" fill="#231F20"/>
<path d="M282.266 130.31C284.15 118.522 303.695 115.603 302.729 129.503C302.578 134.331 300.731 138.951 297.513 142.549C295.879 144.306 293.761 145.536 291.428 146.084C289.094 146.633 286.651 146.474 284.408 145.629" fill="white"/>
<path d="M288.498 147.258C286.974 147.265 285.466 146.951 284.071 146.338C283.959 146.301 283.856 146.241 283.769 146.162C283.682 146.083 283.613 145.986 283.566 145.878C283.519 145.77 283.495 145.653 283.496 145.535C283.497 145.417 283.523 145.301 283.572 145.193C283.621 145.086 283.692 144.99 283.78 144.913C283.868 144.835 283.972 144.776 284.085 144.741C284.197 144.706 284.316 144.696 284.432 144.71C284.549 144.724 284.662 144.762 284.763 144.823C286.851 145.597 289.122 145.735 291.288 145.219C293.454 144.702 295.419 143.554 296.935 141.92C300.003 138.461 301.758 134.032 301.893 129.407C302.376 122.57 297.756 121.344 295.743 121.07C290.559 120.473 284.087 124.15 283.089 130.39C283.053 130.608 282.933 130.802 282.756 130.932C282.578 131.062 282.356 131.116 282.139 131.084C281.92 131.044 281.726 130.921 281.597 130.741C281.467 130.56 281.414 130.336 281.446 130.116C282.606 122.86 289.899 118.732 295.936 119.409C299.929 119.877 303.986 122.763 303.552 129.52C303.387 134.545 301.46 139.352 298.11 143.097C295.579 145.699 292.125 147.195 288.498 147.258Z" fill="#231F20"/>
<path d="M280.561 189.232H238.187L258.118 290.177L280.561 189.232Z" fill="#231F20"/>
<path d="M258.117 290.984C257.935 290.977 257.76 290.91 257.621 290.794C257.481 290.677 257.384 290.517 257.344 290.339L237.413 189.377C237.39 189.261 237.394 189.141 237.424 189.026C237.455 188.911 237.512 188.805 237.59 188.716C237.664 188.625 237.757 188.552 237.863 188.502C237.969 188.452 238.085 188.426 238.202 188.426H280.577C280.698 188.425 280.817 188.452 280.926 188.506C281.035 188.559 281.13 188.636 281.204 188.732C281.278 188.827 281.331 188.936 281.358 189.053C281.386 189.17 281.389 189.292 281.365 189.409L258.922 290.355C258.879 290.535 258.775 290.696 258.629 290.81C258.483 290.924 258.303 290.985 258.117 290.984ZM239.168 190.038L258.23 286.275L279.627 190.038H239.168Z" fill="#231F20"/>
<path d="M252.789 264.602L258.118 290.177L263.801 264.602C262.32 245.252 260.935 210.727 260.935 210.727L263.463 205.229L258.729 200.391L254.028 205.229L257.554 211.195L252.789 264.602Z" fill="white"/>
<path d="M258.117 291C257.926 291.003 257.74 290.938 257.593 290.817C257.446 290.696 257.346 290.526 257.312 290.338L251.966 264.764C251.958 264.683 251.958 264.602 251.966 264.522L256.796 211.308L253.399 205.567C253.312 205.408 253.278 205.226 253.301 205.046C253.324 204.866 253.404 204.699 253.528 204.567L258.213 199.73C258.371 199.57 258.585 199.477 258.809 199.472C258.92 199.473 259.03 199.496 259.133 199.54C259.235 199.585 259.327 199.649 259.405 199.73L264.138 204.567C264.257 204.685 264.336 204.836 264.365 205.001C264.394 205.166 264.371 205.335 264.299 205.486L261.852 210.808C261.964 213.662 263.301 246.139 264.718 264.457C264.726 264.538 264.726 264.619 264.718 264.699L259.018 290.274C259.008 290.382 258.977 290.486 258.926 290.581C258.875 290.676 258.805 290.76 258.721 290.828C258.637 290.896 258.54 290.946 258.436 290.975C258.332 291.005 258.224 291.013 258.117 291ZM253.625 264.554L258.229 286.226L263.059 264.538C261.594 245.397 260.226 211.098 260.21 210.759C260.179 210.632 260.179 210.5 260.21 210.372L262.496 205.39L258.761 201.536L255.009 205.309L258.229 210.727C258.321 210.871 258.361 211.042 258.342 211.211L253.625 264.554Z" fill="#231F20"/>
<path d="M280.561 189.184C280.561 189.184 275.28 200.714 259.856 200.714C255.555 200.833 251.296 199.834 247.495 197.813C243.694 195.792 240.481 192.819 238.17 189.184L238.83 180.944L240.343 161.787L241.776 143.887H276.971L278.146 158.513L278.5 163.27L280.561 189.184Z" fill="white"/>
<path d="M259.84 201.584C255.394 201.678 250.999 200.628 247.074 198.533C243.15 196.438 239.829 193.368 237.429 189.619C237.344 189.49 237.3 189.338 237.3 189.184L240.89 143.871C240.91 143.663 241.007 143.47 241.162 143.33C241.317 143.19 241.519 143.112 241.728 143.113H276.922C277.129 143.113 277.329 143.19 277.481 143.331C277.633 143.471 277.727 143.664 277.743 143.871L281.349 189.184C281.381 189.322 281.381 189.465 281.349 189.603C281.269 189.684 275.618 201.584 259.84 201.584ZM239.007 189.022C241.28 192.451 244.382 195.248 248.025 197.154C251.667 199.06 255.731 200.012 259.84 199.923C273.509 199.923 278.95 190.49 279.707 189.055L276.181 144.742H242.533L239.007 189.022Z" fill="#231F20"/>
<path d="M280.883 157.191C280.494 159.364 279.684 161.44 278.5 163.302C275.544 167.593 271.572 171.083 266.94 173.461C259.357 177.654 248.023 182.379 238.83 180.976L240.343 161.819C247.077 162.654 253.885 162.697 260.629 161.948C266.57 161.416 272.688 160.851 278.146 158.545C279.081 158.143 279.995 157.69 280.883 157.191Z" fill="#231F20"/>
<path d="M242.323 182.024C241.111 182.028 239.9 181.941 238.7 181.766C238.5 181.738 238.318 181.633 238.192 181.474C238.066 181.315 238.006 181.114 238.024 180.911L239.538 161.754C239.545 161.646 239.575 161.539 239.625 161.442C239.675 161.345 239.744 161.26 239.827 161.19C240.006 161.051 240.231 160.988 240.455 161.013C247.129 161.859 253.88 161.902 260.564 161.142C266.102 160.658 272.398 160.11 277.823 157.82C278.821 157.368 279.691 156.933 280.48 156.497C280.607 156.416 280.755 156.372 280.906 156.372C281.058 156.372 281.206 156.416 281.333 156.497C281.458 156.584 281.556 156.704 281.616 156.844C281.676 156.983 281.695 157.137 281.671 157.288C281.273 159.582 280.425 161.774 279.176 163.738C276.168 168.158 272.092 171.741 267.326 174.155C261.739 177.251 251.613 182.024 242.323 182.024ZM239.683 180.283C249.214 181.379 260.612 176.074 266.553 172.752C271.078 170.463 274.954 167.069 277.823 162.883C278.649 161.589 279.283 160.182 279.707 158.707L278.467 159.287C272.784 161.69 266.36 162.254 260.757 162.738C254.231 163.478 247.642 163.478 241.115 162.738L239.683 180.283Z" fill="#231F20"/>
<path d="M260.388 166.334H257.168C250.014 166.33 243.155 163.48 238.098 158.412C233.041 153.344 230.2 146.473 230.2 139.308V96.5267H287.371V139.308C287.371 142.857 286.673 146.371 285.317 149.65C283.961 152.929 281.974 155.908 279.468 158.418C276.962 160.928 273.988 162.918 270.714 164.277C267.44 165.635 263.931 166.334 260.388 166.334Z" fill="white"/>
<path d="M260.388 167.156H257.168C249.796 167.148 242.729 164.211 237.516 158.99C232.304 153.769 229.372 146.691 229.363 139.308V96.5268C229.361 96.4174 229.381 96.3087 229.421 96.2071C229.461 96.1054 229.521 96.0129 229.598 95.9348C229.674 95.8567 229.766 95.7947 229.866 95.7523C229.967 95.71 230.075 95.6882 230.184 95.6882H287.371C287.593 95.6882 287.806 95.7766 287.963 95.9338C288.12 96.0911 288.208 96.3044 288.208 96.5268V139.308C288.195 146.692 285.26 153.771 280.045 158.991C274.83 164.211 267.761 167.148 260.388 167.156ZM231.102 97.3492V139.275C231.11 146.218 233.868 152.874 238.769 157.783C243.671 162.693 250.316 165.455 257.248 165.463H260.468C267.401 165.455 274.049 162.693 278.953 157.784C283.857 152.876 286.618 146.22 286.63 139.275V97.3492H231.102Z" fill="#231F20"/>
<path d="M262.931 139.388C261.543 139.393 260.157 139.317 258.777 139.163C258.561 139.134 258.364 139.022 258.228 138.851C258.093 138.679 258.03 138.461 258.053 138.243C258.081 138.023 258.195 137.823 258.37 137.687C258.545 137.551 258.767 137.49 258.987 137.518C261.518 137.788 264.071 137.788 266.602 137.518C266.602 137.518 266.699 137.518 266.763 137.389C267.938 135.421 264.863 125.133 262.303 118.457C262.224 118.244 262.233 118.007 262.328 117.8C262.424 117.593 262.597 117.432 262.81 117.353C263.024 117.274 263.26 117.283 263.467 117.378C263.674 117.473 263.834 117.647 263.913 117.861C264.992 120.667 270.273 134.873 268.244 138.243C268.107 138.496 267.912 138.712 267.673 138.872C267.435 139.032 267.161 139.132 266.876 139.163C265.567 139.324 264.25 139.4 262.931 139.388Z" fill="#231F20"/>
<path d="M261.594 154.917C257.409 154.907 253.236 154.448 249.149 153.546C249.042 153.52 248.942 153.473 248.853 153.407C248.764 153.342 248.69 153.26 248.633 153.166C248.576 153.071 248.538 152.967 248.522 152.858C248.505 152.749 248.511 152.638 248.537 152.531C248.59 152.318 248.725 152.135 248.911 152.02C249.098 151.906 249.322 151.869 249.535 151.918C249.664 151.918 261.932 154.869 271.85 151.918C272.063 151.856 272.293 151.881 272.487 151.989C272.682 152.096 272.826 152.276 272.888 152.49C272.95 152.704 272.925 152.934 272.817 153.129C272.71 153.324 272.53 153.468 272.317 153.53C268.826 154.5 265.216 154.967 261.594 154.917Z" fill="#231F20"/>
<path d="M436.408 296.16H71.6487C71.4352 296.16 71.2305 296.075 71.0795 295.924C70.9286 295.772 70.8438 295.567 70.8438 295.353V55.3424C70.8438 55.1286 70.9286 54.9235 71.0795 54.7723C71.2305 54.6211 71.4352 54.5361 71.6487 54.5361H436.408C436.621 54.5361 436.826 54.6211 436.977 54.7723C437.128 54.9235 437.213 55.1286 437.213 55.3424V295.353C437.213 295.567 437.128 295.772 436.977 295.924C436.826 296.075 436.621 296.16 436.408 296.16ZM72.4537 294.547H435.603V56.1003H72.4537V294.547Z" fill="#D1D3D4"/>
<path d="M436.408 333.926H71.6487C71.4352 333.926 71.2305 333.841 71.0795 333.69C70.9286 333.539 70.8438 333.333 70.8438 333.12V295.354C70.8438 295.14 70.9286 294.935 71.0795 294.784C71.2305 294.633 71.4352 294.548 71.6487 294.548H436.408C436.621 294.548 436.826 294.633 436.977 294.784C437.128 294.935 437.213 295.14 437.213 295.354V333.12C437.213 333.333 437.128 333.539 436.977 333.69C436.826 333.841 436.621 333.926 436.408 333.926ZM72.4537 332.313H435.603V296.16H72.4537V332.313Z" fill="#D1D3D4"/>
<path d="M149.732 254.326L141.274 245.854L70.2243 317.016L78.6828 325.488L149.732 254.326Z" fill="#231F20"/>
<path d="M78.6681 326.25C78.4558 326.247 78.2532 326.16 78.1046 326.008L69.6521 317.542C69.5751 317.47 69.5138 317.383 69.4718 317.285C69.4298 317.188 69.4082 317.084 69.4082 316.978C69.4082 316.872 69.4298 316.768 69.4718 316.67C69.5138 316.573 69.5751 316.486 69.6521 316.414L140.701 245.3C140.776 245.225 140.865 245.165 140.963 245.124C141.061 245.083 141.166 245.062 141.273 245.062C141.379 245.062 141.484 245.083 141.582 245.124C141.68 245.165 141.769 245.225 141.844 245.3L150.297 253.766C150.44 253.919 150.52 254.121 150.52 254.331C150.52 254.54 150.44 254.742 150.297 254.895L79.2477 326.057C79.0865 326.193 78.8789 326.263 78.6681 326.25ZM71.3426 316.978L78.6681 324.315L148.59 254.331L141.264 246.994L71.3426 316.978Z" fill="#231F20"/>
<path d="M117.5 281.151L114.494 278.141C110.942 274.583 105.182 274.583 101.63 278.141L56.3202 323.522C52.7678 327.08 52.7678 332.849 56.3202 336.407L59.3257 339.417C62.878 342.975 68.6376 342.975 72.19 339.417L117.5 294.036C121.052 290.478 121.052 284.709 117.5 281.151Z" fill="#FF5C64"/>
<path d="M171.887 285.469C205.96 285.469 233.581 257.803 233.581 223.676C233.581 189.549 205.96 161.883 171.887 161.883C137.814 161.883 110.192 189.549 110.192 223.676C110.192 257.803 137.814 285.469 171.887 285.469Z" fill="white"/>
<path d="M171.887 286.275C157.427 286.275 143.415 281.253 132.238 272.065C121.06 262.878 113.409 250.092 110.588 235.888C107.768 221.684 109.951 206.939 116.768 194.167C123.584 181.394 134.611 171.384 147.97 165.842C161.329 160.3 176.193 159.568 190.03 163.773C203.867 167.977 215.821 176.856 223.854 188.898C231.887 200.94 235.503 215.399 234.086 229.812C232.669 244.225 226.306 257.7 216.081 267.94L215.518 267.36L216.081 267.94C210.291 273.771 203.403 278.394 195.817 281.541C188.232 284.688 180.098 286.297 171.887 286.275ZM171.887 162.673C161.869 162.668 152.004 165.138 143.166 169.865C134.329 174.591 126.792 181.428 121.224 189.77C115.656 198.111 112.228 207.7 111.244 217.685C110.26 227.671 111.751 237.746 115.584 247.016C119.417 256.287 125.474 264.468 133.219 270.833C140.963 277.198 150.156 281.552 159.982 283.508C169.808 285.464 179.964 284.963 189.55 282.047C199.136 279.132 207.857 273.893 214.938 266.796C223.45 258.264 229.245 247.397 231.593 235.568C233.94 223.739 232.734 211.478 228.127 200.336C223.52 189.193 215.718 179.668 205.708 172.964C195.698 166.261 183.928 162.68 171.887 162.673Z" fill="#231F20"/>
<path d="M171.886 275.181C200.287 275.181 223.309 252.121 223.309 223.676C223.309 195.231 200.287 172.172 171.886 172.172C143.486 172.172 120.463 195.231 120.463 223.676C120.463 252.121 143.486 275.181 171.886 275.181Z" fill="white"/>
<path d="M171.887 275.971C159.803 275.974 148.092 271.779 138.75 264.103C129.408 256.427 123.012 245.743 120.653 233.873C118.293 222.003 120.117 209.68 125.812 199.006C131.507 188.331 140.721 179.965 151.885 175.332C163.049 170.7 175.471 170.088 187.034 173.601C198.598 177.114 208.588 184.534 215.301 194.597C222.015 204.66 225.037 216.744 223.852 228.789C222.667 240.833 217.349 252.094 208.804 260.652C203.969 265.525 198.216 269.389 191.879 272.018C185.542 274.648 178.746 275.991 171.887 275.971ZM171.887 172.978C163.561 172.974 155.362 175.028 148.018 178.957C140.674 182.886 134.411 188.569 129.784 195.502C125.157 202.435 122.309 210.404 121.492 218.704C120.676 227.003 121.916 235.376 125.102 243.08C128.289 250.784 133.324 257.582 139.761 262.872C146.198 268.161 153.839 271.778 162.005 273.403C170.172 275.028 178.613 274.609 186.579 272.186C194.546 269.762 201.793 265.407 207.677 259.507C214.722 252.411 219.513 243.387 221.447 233.569C223.381 223.752 222.371 213.581 218.544 204.337C214.717 195.094 208.245 187.191 199.942 181.625C191.639 176.059 181.878 173.078 171.887 173.058V172.978Z" fill="#231F20"/>
<path d="M375.984 154.32V168.495H347.423L375.984 185.813V256.878H501.096V154.32H375.984Z" fill="white"/>
<path d="M501.097 257.685H375.985C375.771 257.685 375.566 257.6 375.416 257.448C375.265 257.297 375.18 257.092 375.18 256.878V186.265L347.005 169.188C346.856 169.096 346.741 168.959 346.677 168.796C346.613 168.633 346.604 168.454 346.651 168.285C346.694 168.113 346.794 167.961 346.934 167.853C347.074 167.745 347.247 167.687 347.424 167.688H375.18V154.32C375.18 154.107 375.265 153.902 375.416 153.75C375.566 153.599 375.771 153.514 375.985 153.514H501.097C501.311 153.514 501.515 153.599 501.666 153.75C501.817 153.902 501.902 154.107 501.902 154.32V256.91C501.894 257.119 501.805 257.316 501.655 257.46C501.505 257.604 501.305 257.685 501.097 257.685ZM376.79 256.072H500.292V155.127H376.79V168.495C376.79 168.709 376.705 168.914 376.554 169.065C376.403 169.216 376.198 169.301 375.985 169.301H350.305L376.387 185.12C376.509 185.19 376.61 185.291 376.681 185.413C376.751 185.535 376.789 185.673 376.79 185.813V256.072Z" fill="#231F20"/>
<path d="M388.671 7.15967V75.4348L362.38 87.9804H388.671V107.96H508.342V7.15967H388.671Z" fill="white"/>
<path d="M508.342 108.766H388.64C388.426 108.766 388.221 108.681 388.071 108.53C387.92 108.379 387.835 108.174 387.835 107.96V88.7866H362.381C362.198 88.7874 362.021 88.726 361.878 88.6126C361.735 88.4991 361.634 88.3403 361.593 88.1623C361.552 87.9842 361.573 87.7974 361.651 87.6325C361.73 87.4676 361.862 87.3344 362.027 87.2547L387.786 74.9349V7.20801C387.786 6.99417 387.871 6.78909 388.022 6.63788C388.173 6.48668 388.378 6.40173 388.591 6.40173H508.262C508.475 6.40173 508.68 6.48668 508.831 6.63788C508.982 6.78909 509.067 6.99417 509.067 7.20801V108.008C509.056 108.2 508.977 108.382 508.845 108.521C508.712 108.66 508.534 108.747 508.342 108.766ZM389.477 107.154H507.537V7.9659H389.477V75.4348C389.477 75.5899 389.433 75.7419 389.35 75.8732C389.268 76.0044 389.15 76.1096 389.01 76.1765L365.939 87.1741H388.64C388.853 87.1741 389.058 87.259 389.209 87.4102C389.36 87.5615 389.445 87.7665 389.445 87.9804L389.477 107.154Z" fill="#231F20"/>
<path d="M207.693 0.806274H117.823V43.0066H183.172L197.501 61.1961V43.0066H207.693V0.806274Z" fill="white"/>
<path d="M197.501 62.0023C197.38 62.0006 197.261 61.9723 197.153 61.9193C197.044 61.8664 196.949 61.7901 196.873 61.6959L182.786 43.8128H117.823C117.609 43.8128 117.404 43.7279 117.253 43.5767C117.102 43.4255 117.018 43.2204 117.018 43.0065V0.806272C117.018 0.592435 117.102 0.387356 117.253 0.236151C117.404 0.0849457 117.609 0 117.823 0H207.692C207.906 0 208.11 0.0849457 208.261 0.236151C208.412 0.387356 208.497 0.592435 208.497 0.806272V43.0065C208.497 43.2204 208.412 43.4255 208.261 43.5767C208.11 43.7279 207.906 43.8128 207.692 43.8128H198.306V61.196C198.306 61.3617 198.255 61.5234 198.16 61.659C198.065 61.7946 197.93 61.8976 197.775 61.9539C197.687 61.9855 197.594 62.0019 197.501 62.0023ZM118.611 42.2003H183.156C183.279 42.1996 183.401 42.2268 183.513 42.2798C183.624 42.3329 183.722 42.4104 183.8 42.5067L196.68 58.874V43.0065C196.684 42.794 196.77 42.5913 196.92 42.441C197.07 42.2907 197.273 42.2044 197.485 42.2003H206.871V1.61254H118.628L118.611 42.2003Z" fill="#231F20"/>
<path d="M141.618 98.1555H118.016V80.74H1.67773V155.562H118.016V109.266L141.618 98.1555Z" fill="white"/>
<path d="M118.016 156.368H1.67829C1.46479 156.368 1.26003 156.283 1.10907 156.132C0.958102 155.981 0.873291 155.776 0.873291 155.562V80.74C0.873291 80.5262 0.958102 80.3211 1.10907 80.1699C1.26003 80.0187 1.46479 79.9338 1.67829 79.9338H118.016C118.23 79.9338 118.434 80.0187 118.585 80.1699C118.736 80.3211 118.821 80.5262 118.821 80.74V97.3493H141.619C141.8 97.3491 141.976 97.4116 142.117 97.5262C142.257 97.6407 142.354 97.8003 142.391 97.9782C142.434 98.1558 142.415 98.3429 142.335 98.5076C142.256 98.6722 142.122 98.8043 141.957 98.8812L118.821 109.766V155.562C118.821 155.776 118.736 155.981 118.585 156.132C118.434 156.283 118.23 156.368 118.016 156.368ZM2.48328 154.756H117.211V109.266C117.211 109.113 117.254 108.963 117.333 108.832C117.413 108.701 117.526 108.595 117.662 108.524L138.012 98.9618H118.016C117.803 98.9618 117.598 98.8769 117.447 98.7257C117.296 98.5745 117.211 98.3694 117.211 98.1555V81.5463H2.48328V154.756Z" fill="#231F20"/>
<path d="M194.136 316.962V324.25H186.569V301.675H196.229C197.366 301.676 198.499 301.8 199.61 302.046C200.674 302.27 201.685 302.697 202.588 303.303C203.466 303.894 204.184 304.691 204.681 305.625C205.253 306.758 205.529 308.017 205.486 309.286C205.529 310.527 205.258 311.758 204.697 312.866C204.209 313.818 203.503 314.641 202.636 315.268C201.741 315.906 200.729 316.361 199.658 316.607C198.538 316.893 197.385 317.034 196.229 317.026L194.136 316.962ZM194.136 307.528V311.173H195.746C196.311 311.184 196.868 311.039 197.356 310.753C197.596 310.596 197.79 310.377 197.918 310.119C198.045 309.861 198.101 309.573 198.08 309.286C198.092 308.984 198.026 308.684 197.887 308.415C197.762 308.193 197.578 308.009 197.356 307.883C197.124 307.756 196.874 307.663 196.615 307.609C196.339 307.558 196.059 307.531 195.778 307.528H194.136Z" fill="#D1D3D4"/>
<path d="M208.401 301.61H218.061C219.17 301.611 220.276 301.724 221.361 301.949C222.41 302.156 223.41 302.561 224.308 303.142C225.174 303.718 225.892 304.492 226.401 305.4C226.965 306.506 227.237 307.739 227.19 308.98C227.213 310.273 226.86 311.544 226.175 312.64C225.461 313.724 224.441 314.572 223.245 315.075L228.977 324.251H220.251L215.92 316.188H215.694V324.251H208.321L208.401 301.61ZM215.727 311.173H217.208C217.486 311.195 217.766 311.195 218.045 311.173C218.345 311.14 218.635 311.047 218.898 310.899C219.165 310.766 219.396 310.573 219.574 310.334C219.764 310.043 219.854 309.698 219.832 309.351C219.852 309.02 219.78 308.691 219.623 308.399C219.484 308.17 219.283 307.985 219.043 307.867C218.806 307.749 218.55 307.672 218.286 307.641H217.53H215.727V311.173Z" fill="#D1D3D4"/>
<path d="M230.184 312.801C230.164 311.14 230.487 309.493 231.134 307.964C231.745 306.551 232.644 305.282 233.774 304.239C234.928 303.197 236.273 302.392 237.735 301.868C239.339 301.31 241.028 301.032 242.726 301.046C244.419 301.03 246.102 301.308 247.701 301.868C249.171 302.396 250.526 303.2 251.694 304.239C252.828 305.282 253.733 306.55 254.35 307.964C254.989 309.495 255.313 311.141 255.3 312.801C255.319 314.504 254.996 316.193 254.35 317.768C253.735 319.21 252.831 320.511 251.694 321.59C250.538 322.659 249.18 323.487 247.701 324.025C246.109 324.616 244.423 324.911 242.726 324.895C241.023 324.91 239.332 324.615 237.735 324.025C236.264 323.491 234.916 322.662 233.774 321.59C232.642 320.51 231.744 319.209 231.134 317.768C230.48 316.195 230.157 314.505 230.184 312.801ZM238.234 312.801C238.225 313.499 238.339 314.192 238.572 314.849C238.77 315.445 239.088 315.994 239.506 316.462C239.894 316.913 240.378 317.271 240.923 317.51C241.486 317.758 242.095 317.884 242.71 317.881C243.32 317.884 243.924 317.758 244.481 317.51C245.023 317.267 245.507 316.91 245.898 316.462C246.321 315.995 246.644 315.446 246.848 314.849C247.075 314.191 247.184 313.498 247.17 312.801C247.183 312.126 247.074 311.454 246.848 310.818C246.65 310.218 246.326 309.668 245.898 309.205C245.494 308.792 245.013 308.463 244.481 308.238C243.922 307.995 243.319 307.874 242.71 307.883C242.096 307.874 241.487 307.995 240.923 308.238C240.389 308.459 239.907 308.788 239.506 309.205C239.083 309.669 238.764 310.219 238.572 310.818C238.346 311.454 238.237 312.126 238.25 312.801H238.234Z" fill="#D1D3D4"/>
<path d="M265.926 310.35H272.833V316.575H265.958V324.25H258.488V301.675H273.75V308.044H265.926V310.35Z" fill="#D1D3D4"/>
<path d="M277.034 301.61H284.698V324.186H277.034V301.61Z" fill="#D1D3D4"/>
<path d="M288.917 301.61H296.581V317.736H304.084V324.283H288.917V301.61Z" fill="#D1D3D4"/>
<path d="M306.434 301.61H321.986V307.948H313.598V309.899H321.471V315.817H313.598V317.929H322.534V324.251H306.434V301.61Z" fill="#D1D3D4"/>
<path d="M436.408 237.56C429.752 237.56 423.245 235.585 417.709 231.884C412.173 228.182 407.856 222.921 405.303 216.765C402.75 210.608 402.075 203.832 403.365 197.292C404.654 190.751 407.849 184.74 412.546 180.017C417.244 175.294 423.233 172.071 429.758 170.755C436.283 169.439 443.051 170.089 449.208 172.622C455.364 175.156 460.633 179.459 464.35 184.99C468.066 190.521 470.063 197.03 470.089 203.697C470.101 208.136 469.24 212.535 467.553 216.641C465.867 220.747 463.388 224.479 460.26 227.624C457.131 230.77 453.414 233.266 449.322 234.971C445.229 236.676 440.84 237.556 436.408 237.56ZM436.408 171.704C430.059 171.704 423.853 173.591 418.577 177.126C413.3 180.662 409.189 185.686 406.766 191.563C404.342 197.44 403.715 203.905 404.963 210.14C406.211 216.374 409.278 222.098 413.776 226.585C418.274 231.072 424.001 234.121 430.23 235.346C436.46 236.571 442.912 235.916 448.77 233.465C454.628 231.014 459.628 226.877 463.136 221.577C466.645 216.278 468.504 210.055 468.479 203.697C468.457 195.19 465.069 187.038 459.058 181.029C453.046 175.02 444.901 171.643 436.408 171.639V171.704Z" fill="#D1D3D4"/>
<path d="M445.954 236.077C445.782 236.078 445.614 236.023 445.475 235.922C445.336 235.82 445.233 235.677 445.182 235.512L435.634 203.987C435.6 203.87 435.592 203.747 435.611 203.627C435.631 203.507 435.677 203.393 435.747 203.294L454.841 176.493C454.902 176.406 454.98 176.332 455.07 176.275C455.16 176.218 455.26 176.179 455.365 176.161C455.47 176.143 455.577 176.146 455.68 176.17C455.784 176.194 455.882 176.238 455.968 176.3C456.141 176.426 456.257 176.614 456.293 176.825C456.33 177.035 456.282 177.252 456.162 177.428L437.293 203.906L446.727 235.045C446.788 235.248 446.766 235.467 446.666 235.654C446.567 235.841 446.398 235.981 446.196 236.044L445.954 236.077Z" fill="#D1D3D4"/>
<path d="M436.407 204.568C436.278 204.568 436.15 204.535 436.037 204.471L406.961 189.071C406.777 188.969 406.639 188.799 406.576 188.598C406.513 188.397 406.53 188.18 406.623 187.991C406.672 187.896 406.739 187.812 406.821 187.744C406.903 187.675 406.997 187.624 407.099 187.592C407.201 187.561 407.308 187.55 407.414 187.56C407.52 187.57 407.623 187.602 407.717 187.652L436.697 203.052C436.791 203.099 436.875 203.165 436.943 203.246C437.011 203.327 437.062 203.42 437.094 203.521C437.125 203.621 437.136 203.727 437.126 203.832C437.116 203.937 437.085 204.039 437.035 204.132C436.975 204.251 436.886 204.353 436.776 204.429C436.666 204.505 436.54 204.553 436.407 204.568Z" fill="#D1D3D4"/>
<path d="M40.7368 145.048H28.855C28.6428 145.044 28.4405 144.958 28.2904 144.808C28.1403 144.657 28.0542 144.455 28.05 144.242V89.7543C28.05 89.5405 28.1349 89.3354 28.2858 89.1842C28.4368 89.033 28.6415 88.9481 28.855 88.9481H40.7368C40.9503 88.9481 41.155 89.033 41.306 89.1842C41.4569 89.3354 41.5418 89.5405 41.5418 89.7543V144.242C41.5376 144.455 41.4515 144.657 41.3014 144.808C41.1513 144.958 40.949 145.044 40.7368 145.048ZM29.66 143.436H39.9318V90.5606H29.6117L29.66 143.436Z" fill="#D1D3D4"/>
<path d="M66.6414 145.048H54.8079C54.5944 145.048 54.3897 144.963 54.2387 144.812C54.0877 144.661 54.0029 144.456 54.0029 144.242V106.492C54.0029 106.279 54.0877 106.074 54.2387 105.922C54.3897 105.771 54.5944 105.686 54.8079 105.686H66.6414C66.8549 105.686 67.0596 105.771 67.2106 105.922C67.3615 106.074 67.4464 106.279 67.4464 106.492V144.242C67.4464 144.456 67.3615 144.661 67.2106 144.812C67.0596 144.963 66.8549 145.048 66.6414 145.048ZM55.5807 143.436H65.8364V107.299H55.6129L55.5807 143.436Z" fill="#D1D3D4"/>
<path d="M92.6262 145.048H80.7606C80.5471 145.048 80.3423 144.963 80.1913 144.812C80.0404 144.661 79.9556 144.456 79.9556 144.242V120.054C79.9556 119.84 80.0404 119.635 80.1913 119.484C80.3423 119.332 80.5471 119.247 80.7606 119.247H92.6262C92.8397 119.247 93.0444 119.332 93.1954 119.484C93.3464 119.635 93.4312 119.84 93.4312 120.054V144.242C93.4312 144.456 93.3464 144.661 93.1954 144.812C93.0444 144.963 92.8397 145.048 92.6262 145.048ZM81.5656 143.436H91.8212V120.86H81.5656V143.436Z" fill="#D1D3D4"/>
<path d="M102.431 145.048H17.3113C17.0978 145.048 16.8931 144.963 16.7421 144.812C16.5912 144.661 16.5063 144.456 16.5063 144.242C16.5063 144.028 16.5912 143.823 16.7421 143.672C16.8931 143.521 17.0978 143.436 17.3113 143.436H102.431C102.645 143.436 102.85 143.521 103.001 143.672C103.152 143.823 103.236 144.028 103.236 144.242C103.236 144.456 103.152 144.661 103.001 144.812C102.85 144.963 102.645 145.048 102.431 145.048Z" fill="#D1D3D4"/>
<path d="M491.791 190.038H478.429C478.215 190.038 478.01 189.953 477.859 189.802C477.708 189.651 477.624 189.446 477.624 189.232C477.624 189.018 477.708 188.813 477.859 188.662C478.01 188.511 478.215 188.426 478.429 188.426H491.791C492.005 188.426 492.21 188.511 492.361 188.662C492.512 188.813 492.596 189.018 492.596 189.232C492.596 189.446 492.512 189.651 492.361 189.802C492.21 189.953 492.005 190.038 491.791 190.038Z" fill="#D1D3D4"/>
<path d="M491.791 197.246H478.429C478.215 197.246 478.01 197.161 477.859 197.01C477.708 196.859 477.624 196.654 477.624 196.44C477.624 196.226 477.708 196.021 477.859 195.87C478.01 195.719 478.215 195.634 478.429 195.634H491.791C492.005 195.634 492.21 195.719 492.361 195.87C492.512 196.021 492.596 196.226 492.596 196.44C492.596 196.654 492.512 196.859 492.361 197.01C492.21 197.161 492.005 197.246 491.791 197.246Z" fill="#D1D3D4"/>
<path d="M484.997 204.567H478.429C478.215 204.567 478.01 204.482 477.859 204.331C477.708 204.18 477.624 203.975 477.624 203.761C477.624 203.547 477.708 203.342 477.859 203.191C478.01 203.04 478.215 202.955 478.429 202.955H484.997C485.211 202.955 485.416 203.04 485.567 203.191C485.717 203.342 485.802 203.547 485.802 203.761C485.802 203.975 485.717 204.18 485.567 204.331C485.416 204.482 485.211 204.567 484.997 204.567Z" fill="#D1D3D4"/>
<path d="M402.485 225.224H387.029C386.816 225.224 386.611 225.139 386.46 224.988C386.309 224.837 386.224 224.632 386.224 224.418C386.224 224.204 386.309 223.999 386.46 223.848C386.611 223.697 386.816 223.612 387.029 223.612H402.437C402.65 223.612 402.855 223.697 403.006 223.848C403.157 223.999 403.242 224.204 403.242 224.418C403.242 224.632 403.157 224.837 403.006 224.988C402.855 225.139 402.65 225.224 402.437 225.224H402.485Z" fill="#D1D3D4"/>
<path d="M397.059 231.352H387.029C386.816 231.352 386.611 231.267 386.46 231.116C386.309 230.964 386.224 230.759 386.224 230.545C386.224 230.332 386.309 230.126 386.46 229.975C386.611 229.824 386.816 229.739 387.029 229.739H397.011C397.225 229.739 397.429 229.824 397.58 229.975C397.731 230.126 397.816 230.332 397.816 230.545C397.816 230.759 397.731 230.964 397.58 231.116C397.429 231.267 397.225 231.352 397.011 231.352H397.059Z" fill="#D1D3D4"/>
<path d="M408.62 74.3545C408.495 74.3533 408.372 74.3236 408.26 74.2677C408.149 74.2118 408.051 74.1312 407.976 74.032C407.846 73.8629 407.788 73.6492 407.815 73.4376C407.842 73.2261 407.952 73.0339 408.12 72.9032L434.862 52.2304C435.028 52.1054 435.234 52.0476 435.44 52.0686C435.646 52.0895 435.836 52.1876 435.973 52.3432L451.3 69.8555L489.232 36.3952C489.305 36.3201 489.393 36.2604 489.49 36.2197C489.586 36.179 489.69 36.158 489.795 36.158C489.9 36.158 490.004 36.179 490.101 36.2197C490.198 36.2604 490.285 36.3201 490.359 36.3952C490.436 36.4676 490.497 36.555 490.539 36.6521C490.581 36.7491 490.603 36.8538 490.603 36.9596C490.603 37.0653 490.581 37.17 490.539 37.2671C490.497 37.3641 490.436 37.4516 490.359 37.524L451.767 71.6293C451.6 71.7688 451.389 71.8432 451.172 71.8389C450.961 71.8216 450.765 71.7234 450.624 71.5648L435.329 53.9719L409.103 74.1771C408.966 74.2897 408.796 74.3523 408.62 74.3545Z" fill="#D1D3D4"/>
<path d="M494.898 81.2239H403.515C403.302 81.2239 403.097 81.1389 402.946 80.9877C402.795 80.8365 402.71 80.6314 402.71 80.4176V27.6067C402.71 27.3929 402.795 27.1878 402.946 27.0366C403.097 26.8854 403.302 26.8005 403.515 26.8005C403.729 26.8005 403.933 26.8854 404.084 27.0366C404.235 27.1878 404.32 27.3929 404.32 27.6067V79.6113H494.898C495.112 79.6113 495.316 79.6963 495.467 79.8475C495.618 79.9987 495.703 80.2038 495.703 80.4176C495.703 80.6314 495.618 80.8365 495.467 80.9877C495.316 81.1389 495.112 81.2239 494.898 81.2239Z" fill="#D1D3D4"/>
<path d="M445.15 28.413H411.775C411.562 28.413 411.357 28.3281 411.206 28.1769C411.055 28.0257 410.97 27.8206 410.97 27.6067C410.97 27.3929 411.055 27.1878 411.206 27.0366C411.357 26.8854 411.562 26.8005 411.775 26.8005H445.15C445.364 26.8005 445.569 26.8854 445.72 27.0366C445.87 27.1878 445.955 27.3929 445.955 27.6067C445.955 27.8206 445.87 28.0257 445.72 28.1769C445.569 28.3281 445.364 28.413 445.15 28.413Z" fill="#D1D3D4"/>
<path d="M445.15 34.5728H411.775C411.562 34.5728 411.357 34.4878 411.206 34.3366C411.055 34.1854 410.97 33.9803 410.97 33.7665C410.97 33.5526 411.055 33.3476 411.206 33.1964C411.357 33.0452 411.562 32.9602 411.775 32.9602H445.15C445.364 32.9602 445.569 33.0452 445.72 33.1964C445.87 33.3476 445.955 33.5526 445.955 33.7665C445.955 33.9803 445.87 34.1854 445.72 34.3366C445.569 34.4878 445.364 34.5728 445.15 34.5728Z" fill="#D1D3D4"/>
<path d="M427.392 40.733H411.775C411.562 40.733 411.357 40.648 411.206 40.4968C411.055 40.3456 410.97 40.1405 410.97 39.9267C410.97 39.7129 411.055 39.5078 411.206 39.3566C411.357 39.2054 411.562 39.1204 411.775 39.1204H427.392C427.606 39.1204 427.81 39.2054 427.961 39.3566C428.112 39.5078 428.197 39.7129 428.197 39.9267C428.193 40.1392 428.107 40.3419 427.957 40.4922C427.807 40.6426 427.604 40.7288 427.392 40.733Z" fill="#D1D3D4"/>
<path d="M142.97 38.9913C142.757 38.9913 142.552 38.9064 142.401 38.7552C142.25 38.604 142.165 38.3989 142.165 38.185V6.56305C142.165 6.34921 142.25 6.14413 142.401 5.99293C142.552 5.84172 142.757 5.75677 142.97 5.75677C143.184 5.75677 143.389 5.84172 143.539 5.99293C143.69 6.14413 143.775 6.34921 143.775 6.56305V38.185C143.775 38.3989 143.69 38.604 143.539 38.7552C143.389 38.9064 143.184 38.9913 142.97 38.9913Z" fill="#D1D3D4"/>
<path d="M195.264 12.9648H126.662C126.448 12.9648 126.244 12.8798 126.093 12.7286C125.942 12.5774 125.857 12.3723 125.857 12.1585C125.857 11.9447 125.942 11.7396 126.093 11.5884C126.244 11.4372 126.448 11.3522 126.662 11.3522H195.264C195.477 11.3522 195.682 11.4372 195.833 11.5884C195.984 11.7396 196.069 11.9447 196.069 12.1585C196.069 12.3723 195.984 12.5774 195.833 12.7286C195.682 12.8798 195.477 12.9648 195.264 12.9648Z" fill="#D1D3D4"/>
<path d="M195.264 23.0916H126.662C126.448 23.0916 126.244 23.0067 126.093 22.8555C125.942 22.7043 125.857 22.4992 125.857 22.2853C125.857 22.0715 125.942 21.8664 126.093 21.7152C126.244 21.564 126.448 21.4791 126.662 21.4791H195.264C195.477 21.4791 195.682 21.564 195.833 21.7152C195.984 21.8664 196.069 22.0715 196.069 22.2853C196.064 22.4979 195.978 22.7006 195.828 22.8509C195.678 23.0012 195.476 23.0875 195.264 23.0916Z" fill="#D1D3D4"/>
<path d="M195.264 33.2506H126.662C126.448 33.2506 126.244 33.1657 126.093 33.0145C125.942 32.8633 125.857 32.6582 125.857 32.4443C125.857 32.2305 125.942 32.0254 126.093 31.8742C126.244 31.723 126.448 31.6381 126.662 31.6381H195.264C195.477 31.6381 195.682 31.723 195.833 31.8742C195.984 32.0254 196.069 32.2305 196.069 32.4443C196.064 32.6569 195.978 32.8596 195.828 33.0099C195.678 33.1602 195.476 33.2465 195.264 33.2506Z" fill="#D1D3D4"/>
<path d="M152.663 227.82C155.739 227.82 158.233 225.322 158.233 222.241C158.233 219.16 155.739 216.662 152.663 216.662C149.586 216.662 147.092 219.16 147.092 222.241C147.092 225.322 149.586 227.82 152.663 227.82Z" fill="#FF5C64"/>
<path d="M172.563 227.82C175.64 227.82 178.134 225.322 178.134 222.241C178.134 219.16 175.64 216.662 172.563 216.662C169.486 216.662 166.992 219.16 166.992 222.241C166.992 225.322 169.486 227.82 172.563 227.82Z" fill="#FF5C64"/>
<path d="M192.462 227.82C195.539 227.82 198.033 225.322 198.033 222.241C198.033 219.16 195.539 216.662 192.462 216.662C189.386 216.662 186.892 219.16 186.892 222.241C186.892 225.322 189.386 227.82 192.462 227.82Z" fill="#FF5C64"/>
</svg>
