<svg width="345" height="282" viewBox="0 0 345 282" fill="none" xmlns="http://www.w3.org/2000/svg">
<path d="M343.57 238.217H16.0075C15.8519 238.217 15.7026 238.155 15.5925 238.045C15.4825 237.935 15.4207 237.785 15.4207 237.629C15.4207 237.473 15.4825 237.324 15.5925 237.214C15.7026 237.103 15.8519 237.042 16.0075 237.042H343.57C343.725 237.042 343.874 237.103 343.984 237.214C344.095 237.324 344.156 237.473 344.156 237.629C344.156 237.785 344.095 237.935 343.984 238.045C343.874 238.155 343.725 238.217 343.57 238.217Z" fill="#FEFEFE"/>
<path d="M85.5181 129.73C132.063 129.73 169.794 100.818 169.794 65.1533C169.794 29.4883 132.063 0.576172 85.5181 0.576172C38.9737 0.576172 1.24194 29.4883 1.24194 65.1533C1.24194 100.818 38.9737 129.73 85.5181 129.73Z" fill="white"/>
<path d="M85.5532 130.318C38.767 130.318 0.701904 101.092 0.701904 65.1532C0.701904 29.2143 38.7318 0 85.5532 0C132.375 0 170.416 29.2261 170.416 65.1532C170.416 101.08 132.316 130.318 85.5532 130.318ZM85.5532 1.17563C39.4126 1.17563 1.87567 29.8727 1.87567 65.1532C1.87567 100.434 39.4361 129.143 85.5532 129.143C131.67 129.143 169.243 100.446 169.243 65.1532C169.243 29.8609 131.67 1.17563 85.5532 1.17563Z" fill="#D1D3D4"/>
<path d="M179.173 37.3732C178.776 37.385 178.383 37.4402 177.999 37.5378C173.597 38.7134 172.365 44.7561 177.306 46.3785C177.989 46.5638 178.703 46.6027 179.401 46.4927C180.1 46.3826 180.767 46.1261 181.36 45.74C181.953 45.3538 182.457 44.8466 182.841 44.2517C183.224 43.6567 183.478 42.9873 183.586 42.2873C183.665 41.665 183.61 41.0327 183.423 40.4338C183.237 39.8349 182.923 39.2834 182.504 38.8169C182.085 38.3504 181.571 37.9799 180.996 37.7308C180.421 37.4816 179.799 37.3597 179.173 37.3732Z" fill="white"/>
<path d="M178.609 47.1779C178.099 47.1773 177.592 47.098 177.107 46.9428C176.054 46.676 175.123 46.0577 174.468 45.1901C173.813 44.3224 173.473 43.2571 173.503 42.1697C173.572 40.9512 174.03 39.7871 174.81 38.8493C175.59 37.9115 176.65 37.2498 177.834 36.9617C178.271 36.8492 178.721 36.7939 179.172 36.7971C179.879 36.783 180.58 36.9215 181.229 37.2033C181.877 37.4852 182.457 37.9036 182.929 38.4302C183.402 38.9568 183.755 39.5792 183.966 40.2549C184.176 40.9307 184.239 41.6439 184.149 42.3461C184.052 43.14 183.778 43.9019 183.347 44.5755C182.917 45.249 182.34 45.817 181.661 46.2374C180.755 46.8391 179.696 47.1657 178.609 47.1779ZM179.172 37.9728C178.82 37.9693 178.469 38.0128 178.128 38.1021C177.189 38.3247 176.347 38.8438 175.726 39.5826C175.104 40.3214 174.737 41.2408 174.677 42.205C174.657 43.0379 174.924 43.8522 175.433 44.5114C175.941 45.1706 176.661 45.6347 177.47 45.8259C178.069 45.983 178.694 46.0128 179.306 45.9134C179.917 45.814 180.5 45.5876 181.019 45.2487C181.537 44.9099 181.979 44.4662 182.316 43.946C182.653 43.4259 182.878 42.8408 182.975 42.2285C183.046 41.6917 183.001 41.1459 182.842 40.6283C182.683 40.1107 182.414 39.6336 182.055 39.2295C181.695 38.8255 181.252 38.504 180.756 38.2871C180.261 38.0702 179.725 37.963 179.184 37.9728H179.172Z" fill="#D1D3D4"/>
<path d="M281.712 157.793L305.974 151.633C305.058 149.893 290.316 105.583 276.794 96.966C265.186 87.3024 241.875 86.3854 215.477 85.3273C207.027 84.8321 198.552 85.6611 190.358 87.7844C159.57 96.3077 137.938 140.041 137.938 140.041L168.268 146.048C168.268 146.048 163.444 191.216 159.218 246.282C159.218 246.282 207.554 257.18 283.074 252.936C283.074 252.936 280.996 165.623 281.712 157.793Z" fill="#FF5C64"/>
<path d="M207.883 100.692L182.788 251.63L233.788 255.322L244.844 92.051L207.883 100.692Z" fill="#231F20"/>
<path d="M233.788 255.91L182.8 252.219C182.718 252.212 182.638 252.189 182.566 252.15C182.493 252.112 182.429 252.059 182.377 251.996C182.28 251.864 182.238 251.699 182.26 251.537L207.355 100.598C207.371 100.485 207.421 100.38 207.499 100.296C207.576 100.212 207.677 100.153 207.789 100.128L244.763 91.4756C244.851 91.4528 244.943 91.4526 245.031 91.4752C245.12 91.4979 245.201 91.5425 245.267 91.6049C245.338 91.6627 245.394 91.7365 245.431 91.8203C245.468 91.9041 245.484 91.9955 245.478 92.0869L234.422 255.358C234.417 255.434 234.396 255.509 234.362 255.578C234.328 255.647 234.28 255.708 234.222 255.758C234.163 255.811 234.095 255.851 234.02 255.878C233.946 255.904 233.867 255.915 233.788 255.91ZM183.48 251.149L233.248 254.758L244.211 92.8511L208.388 101.233L183.48 251.149Z" fill="#231F20"/>
<path d="M211.24 78.6379L206.545 98.3531C206.545 98.3531 210.571 111.649 223.916 110.627C227.864 110.291 231.687 109.078 235.108 107.077C238.529 105.076 241.462 102.337 243.694 99.0585L249.434 62.7316C249.434 62.7316 240.736 56.0894 246.899 35.8333C235.656 38.6435 223.866 38.3715 212.766 35.0457C212.766 35.0457 203.293 56.5596 203.223 66.7876C203.152 77.0155 211.24 78.6379 211.24 78.6379Z" fill="white"/>
<path d="M222.52 111.25C210.019 111.25 206.087 98.6352 206.005 98.4941C205.981 98.3936 205.981 98.289 206.005 98.1885L210.559 79.014C208.622 78.3909 202.613 75.687 202.671 66.7522C202.742 56.5243 211.874 35.6687 212.273 34.7869C212.328 34.6564 212.428 34.5507 212.556 34.49C212.684 34.4292 212.83 34.4178 212.965 34.4578C223.963 37.7238 235.632 37.9957 246.77 35.2454C246.872 35.2175 246.98 35.2169 247.083 35.2437C247.186 35.2705 247.28 35.3238 247.356 35.3983C247.432 35.4736 247.485 35.5684 247.51 35.6722C247.535 35.776 247.531 35.8847 247.497 35.9861C244.387 46.2258 245.15 52.8328 246.417 56.5713C247.036 58.7504 248.233 60.7209 249.88 62.2731C249.963 62.3369 250.027 62.4218 250.067 62.5189C250.106 62.6161 250.118 62.722 250.103 62.8256L244.352 99.1525C244.344 99.2292 244.316 99.3024 244.269 99.3641C241.979 102.726 238.971 105.537 235.463 107.592C231.956 109.648 228.036 110.897 223.987 111.25C223.482 111.25 222.989 111.25 222.52 111.25ZM207.179 98.3178C207.672 99.8108 211.768 110.944 223.905 110.074C227.735 109.732 231.444 108.553 234.77 106.619C238.096 104.685 240.958 102.044 243.154 98.8821L248.835 63.002C247.356 61.6618 240.948 54.5727 246.065 36.7032C235.182 39.1558 223.86 38.8405 213.13 35.7862C211.745 38.9957 203.892 57.6646 203.833 66.8228C203.763 76.4041 211.052 78.0265 211.357 78.097C211.436 78.1076 211.511 78.1365 211.576 78.1814C211.641 78.2264 211.695 78.286 211.733 78.3556C211.777 78.42 211.808 78.4931 211.822 78.5702C211.836 78.6472 211.834 78.7263 211.815 78.8024L207.179 98.3178Z" fill="#231F20"/>
<path d="M242.039 60.8736C242.75 59.1854 243.984 57.7713 245.56 56.8412C247.085 56.057 248.733 55.5401 250.432 55.3129C251.351 55.1016 252.306 55.1016 253.225 55.3129C253.855 55.5166 254.437 55.8444 254.939 56.2769C256.219 57.1813 257.131 58.5166 257.509 60.0389C257.669 61.2865 257.52 62.5542 257.075 63.7304C256.704 65.0507 256.159 66.3157 255.455 67.4924C254.724 68.6477 253.771 69.6461 252.652 70.4293C251.532 71.2126 250.269 71.7653 248.934 72.0551C247.6 72.345 246.221 72.3663 244.878 72.1179C243.535 71.8694 242.255 71.3561 241.112 70.6078" fill="white"/>
<path d="M246.817 72.8181C244.697 72.8212 242.622 72.2086 240.842 71.0546C240.713 70.9684 240.624 70.8349 240.593 70.6829C240.562 70.531 240.593 70.373 240.678 70.2435C240.718 70.1775 240.772 70.1204 240.835 70.0756C240.898 70.0308 240.97 69.9992 241.045 69.9827C241.121 69.9662 241.199 69.9652 241.275 69.9797C241.351 69.9942 241.423 70.024 241.488 70.0671C242.566 70.772 243.773 71.2554 245.039 71.4892C246.304 71.723 247.604 71.7026 248.862 71.4292C250.12 71.1557 251.311 70.6347 252.367 69.8964C253.422 69.158 254.32 68.217 255.009 67.128C255.686 65.999 256.211 64.7854 256.571 63.5189C256.978 62.4276 257.119 61.2547 256.981 60.0978C256.622 58.7207 255.791 57.5139 254.634 56.6885C254.189 56.3069 253.675 56.0154 253.12 55.8303C252.289 55.6435 251.427 55.6435 250.596 55.8303C248.959 56.0496 247.371 56.5465 245.901 57.2998C244.413 58.1515 243.246 59.4691 242.579 61.0501C242.517 61.1935 242.4 61.3063 242.255 61.3636C242.11 61.4209 241.948 61.4181 241.805 61.3557C241.661 61.2934 241.549 61.1766 241.492 61.0311C241.434 60.8856 241.437 60.7232 241.499 60.5798C242.275 58.7678 243.618 57.2576 245.326 56.277C246.906 55.4523 248.618 54.9112 250.385 54.6782C251.388 54.437 252.434 54.437 253.437 54.6782C254.14 54.9028 254.79 55.2666 255.35 55.748C256.734 56.7451 257.71 58.2113 258.097 59.8744C258.275 61.2194 258.122 62.5878 257.65 63.8598C257.278 65.2264 256.722 66.5356 255.995 67.7511C255.221 68.9707 254.213 70.0253 253.031 70.8544C251.849 71.6835 250.515 72.2709 249.105 72.583C248.353 72.7431 247.586 72.8219 246.817 72.8181Z" fill="#231F20"/>
<path d="M209.385 88.5013C211.712 89.1567 214.153 89.3049 216.542 88.9358C218.931 88.5667 221.214 87.689 223.236 86.3617C229.785 81.8237 229.809 78.5673 229.809 78.5673C229.809 78.5673 219.867 82.0941 211.721 79.0258L209.385 88.5013Z" fill="#231F20"/>
<path d="M214.08 89.7351C212.429 89.7487 210.784 89.523 209.198 89.065C209.058 89.0189 208.941 88.9221 208.869 88.7937C208.797 88.6653 208.776 88.5146 208.81 88.3714L211.158 78.8841C211.207 78.7238 211.316 78.5889 211.463 78.5079C211.537 78.4762 211.617 78.4599 211.698 78.4599C211.778 78.4599 211.858 78.4762 211.932 78.5079C219.785 81.4587 229.539 78.0729 229.621 78.0377C229.711 78.0075 229.807 77.9992 229.901 78.0135C229.995 78.0278 230.084 78.0643 230.161 78.1199C230.239 78.1729 230.301 78.2452 230.342 78.3298C230.383 78.4143 230.402 78.5081 230.396 78.602C230.396 78.743 230.29 82.1994 223.576 86.8313C220.786 88.7567 217.469 89.771 214.08 89.7351ZM210.09 88.0892C212.26 88.616 214.515 88.6917 216.715 88.3116C218.916 87.9314 221.015 87.1036 222.884 85.8791C227.062 82.987 228.482 80.6475 228.964 79.4484C226.264 80.2361 218.775 82.023 212.12 79.8011L210.09 88.0892Z" fill="#231F20"/>
<path d="M225.383 50.1171C225.383 50.1171 216.709 58.7814 217.953 60.8388C219.198 62.8961 223.822 62.6257 223.822 62.6257" fill="white"/>
<path d="M223.271 63.1662C221.85 63.1662 218.576 62.9546 217.402 61.0854C216.029 58.8047 222.813 51.7509 224.926 49.6348C225.036 49.5241 225.186 49.4619 225.342 49.4619C225.499 49.4619 225.649 49.5241 225.759 49.6348C225.87 49.7455 225.932 49.8956 225.932 50.0521C225.932 50.2087 225.87 50.3588 225.759 50.4695C221.228 54.9956 217.86 59.5688 218.411 60.474C219.28 61.9083 222.59 62.0494 223.787 61.9788C223.864 61.9741 223.942 61.9846 224.015 62.0098C224.088 62.035 224.155 62.0744 224.213 62.1257C224.271 62.1771 224.318 62.2393 224.351 62.309C224.385 62.3786 224.405 62.4542 224.409 62.5314C224.416 62.609 224.406 62.687 224.382 62.7609C224.357 62.8347 224.318 62.9028 224.266 62.961C224.215 63.0193 224.152 63.0664 224.082 63.0997C224.011 63.1329 223.935 63.1516 223.858 63.1545L223.271 63.1662Z" fill="#231F20"/>
<path d="M235.237 51.1377C235.383 49.8343 234.749 48.6933 233.821 48.5893C232.893 48.4852 232.023 49.4575 231.877 50.7608C231.732 52.0642 232.366 53.2052 233.293 53.3093C234.221 53.4133 235.091 52.4411 235.237 51.1377Z" fill="#231F20"/>
<path d="M219.48 48.6132C220.003 47.4107 219.733 46.1333 218.877 45.7601C218.021 45.3868 216.904 46.059 216.381 47.2615C215.858 48.464 216.128 49.7414 216.984 50.1147C217.84 50.488 218.958 49.8157 219.48 48.6132Z" fill="#231F20"/>
<path d="M231.934 73.2767C231.781 73.2753 231.634 73.2165 231.523 73.1121C226.311 68.104 212.226 65.0239 212.085 64.9886C212.01 64.9733 211.939 64.943 211.875 64.8997C211.812 64.8563 211.758 64.8006 211.716 64.736C211.675 64.6713 211.646 64.599 211.633 64.5233C211.62 64.4475 211.622 64.3699 211.639 64.295C211.655 64.2193 211.685 64.1474 211.728 64.0834C211.771 64.0195 211.826 63.9646 211.891 63.922C211.955 63.8795 212.027 63.85 212.103 63.8353C212.178 63.8206 212.256 63.821 212.332 63.8365C212.919 63.9658 226.875 67.0224 232.286 72.2657C232.369 72.3465 232.427 72.4505 232.452 72.5643C232.477 72.6781 232.467 72.7968 232.424 72.9051C232.381 73.0134 232.307 73.1066 232.212 73.1728C232.116 73.2389 232.003 73.2751 231.887 73.2767H231.934Z" fill="#231F20"/>
<path d="M304.812 199.668C304.685 199.669 304.561 199.628 304.46 199.551L287.147 186.242C287.024 186.145 286.943 186.004 286.921 185.849C286.9 185.693 286.938 185.535 287.029 185.408C287.126 185.287 287.266 185.209 287.419 185.189C287.572 185.17 287.727 185.21 287.851 185.302L305.176 198.622C305.27 198.698 305.339 198.801 305.373 198.918C305.406 199.035 305.403 199.159 305.363 199.274C305.323 199.388 305.249 199.488 305.15 199.558C305.051 199.629 304.933 199.667 304.812 199.668Z" fill="#231F20"/>
<path d="M257.122 53.4909H256.97C256.821 53.4496 256.694 53.3511 256.617 53.2169C256.54 53.0826 256.519 52.9234 256.559 52.7737C258.308 46.2608 260.01 39.6302 261.618 33.0467L261.794 32.3531C262.603 29.5854 263.053 26.7246 263.132 23.8416C263.062 21.7725 262.123 21.4903 259.165 21.4903C259.087 21.493 259.009 21.4798 258.937 21.4515C258.864 21.4232 258.798 21.3804 258.742 21.3257C258.633 21.2165 258.57 21.0691 258.566 20.9143C258.542 19.4653 258.186 18.0412 257.527 16.7513C256.868 15.4613 255.922 14.3397 254.763 13.4726C250.843 10.5923 245.103 9.94568 238.999 11.862L238.694 11.956C232.614 13.8135 227.367 15.4123 220.724 15.6592C219.445 15.6592 218.118 15.6592 216.839 15.6592C213.951 15.5315 211.057 15.7247 208.212 16.2353C206.436 16.6762 204.691 17.2338 202.988 17.9047C201.527 18.3434 200.156 19.0401 198.939 19.962C197.726 21.1436 196.785 22.5759 196.181 24.159C195.494 25.5426 195 27.0141 194.713 28.5323C194.033 33.2348 197.061 37.3613 198.974 39.4421C200.148 40.7353 201.932 42.1813 203.669 41.7111C203.746 41.6903 203.827 41.6848 203.906 41.6951C203.985 41.7054 204.061 41.7312 204.131 41.771C204.2 41.8109 204.26 41.864 204.309 41.9273C204.358 41.9907 204.394 42.063 204.415 42.1402C204.435 42.2174 204.441 42.2979 204.43 42.3772C204.42 42.4565 204.394 42.533 204.355 42.6023C204.315 42.6716 204.262 42.7324 204.199 42.7812C204.135 42.83 204.063 42.8659 203.986 42.8867C202.155 43.3922 200.124 42.487 198.117 40.2768C196.11 38.0667 192.812 33.5405 193.575 28.403C193.872 26.7697 194.397 25.1866 195.136 23.7005C195.826 21.9558 196.883 20.3802 198.235 19.0803C199.557 18.0709 201.047 17.3028 202.636 16.8113C204.386 16.1183 206.183 15.5487 208.012 15.1067C210.945 14.5688 213.93 14.3638 216.909 14.4954C218.177 14.4954 219.48 14.4954 220.747 14.4954C227.227 14.2485 232.415 12.6731 238.413 10.8392L238.718 10.7451C245.173 8.78181 251.289 9.44016 255.514 12.5321C256.738 13.4523 257.751 14.6238 258.486 15.968C259.221 17.3122 259.66 18.7982 259.775 20.3265C261.888 20.3265 264.259 20.5616 264.364 23.8533C264.292 26.8436 263.83 29.8116 262.991 32.6823L262.815 33.3759C261.207 39.9594 259.493 46.6017 257.744 53.1264C257.696 53.2478 257.609 53.3496 257.496 53.4156C257.383 53.4816 257.252 53.5081 257.122 53.4909Z" fill="#FEFEFE"/>
<path d="M237.802 102.444C237.802 102.444 231.17 96.072 229.409 88.2776C227.649 80.4832 228.329 78.802 227.12 78.5316C225.912 78.2612 223.869 79.0842 222.355 81.7411C220.841 84.398 221.252 93.7442 223.717 97.5062C226.181 101.268 237.802 102.444 237.802 102.444Z" fill="white"/>
<path d="M237.802 103.02H237.743C237.262 102.961 225.818 101.762 223.224 97.8121C220.63 93.8619 220.184 84.3276 221.851 81.4356C223.517 78.5435 225.724 77.6148 227.238 77.9087C228.33 78.1438 228.412 79.0843 228.729 81.0711C228.928 82.5289 229.222 84.7391 229.985 88.1249C231.687 95.6489 238.142 101.939 238.201 101.997C238.285 102.084 238.343 102.194 238.365 102.313C238.388 102.432 238.376 102.555 238.33 102.667C238.284 102.77 238.21 102.857 238.117 102.92C238.023 102.982 237.914 103.017 237.802 103.02ZM226.675 79.0726C225.724 79.0726 224.128 79.8015 222.86 82.0116C221.592 84.2218 221.804 93.5093 224.21 97.1655C225.83 99.646 232.426 101.08 236.241 101.645C234.222 99.4109 230.184 94.344 228.846 88.3953C228.072 84.986 227.766 82.7405 227.567 81.2592C227.332 79.5546 227.25 79.1549 226.992 79.0961C226.887 79.0796 226.781 79.0756 226.675 79.0843V79.0726Z" fill="#231F20"/>
<path d="M139.781 140.864C139.781 140.864 110.296 213.529 121.353 235.631C132.41 257.733 241.159 267.608 241.159 267.608C241.159 267.608 254.986 273.486 259.282 274.379C263.578 275.273 279.87 276.225 279.87 276.225C279.87 276.225 273.719 277.401 275.867 279.293C278.015 281.186 289.952 281.139 291.232 276.836C292.511 272.534 289.084 255.299 285.363 252.524C281.642 249.75 239.891 239.593 236.828 239.299C233.764 239.005 164.947 215.093 164.947 215.093L173.855 147.612" fill="white"/>
<path d="M281.748 281.081C279.013 281.081 276.489 280.622 275.492 279.764C275.245 279.597 275.054 279.36 274.943 279.084C274.833 278.807 274.807 278.504 274.87 278.212C275.04 277.843 275.284 277.513 275.587 277.242C275.89 276.971 276.245 276.765 276.63 276.637C271.642 276.319 262.322 275.649 259.165 274.967C254.986 274.074 242.286 268.737 241.018 268.208C235.408 267.69 131.858 257.956 120.825 235.89C116.13 226.567 117.867 207.675 125.86 179.777C131.729 159.063 139.171 140.829 139.241 140.64C139.3 140.495 139.415 140.38 139.559 140.319C139.703 140.259 139.865 140.258 140.01 140.317C140.155 140.376 140.27 140.491 140.331 140.635C140.391 140.78 140.392 140.942 140.333 141.087C140.039 141.816 111.071 213.706 121.881 235.372C132.692 257.039 240.126 266.95 241.218 267.044C241.272 267.032 241.328 267.032 241.382 267.044C241.523 267.103 255.209 272.922 259.411 273.78C263.613 274.638 279.741 275.602 279.905 275.614C280.047 275.622 280.181 275.681 280.282 275.781C280.384 275.88 280.446 276.013 280.457 276.155C280.463 276.297 280.42 276.437 280.334 276.551C280.249 276.665 280.126 276.745 279.987 276.778C278.215 277.131 276.149 277.954 276.008 278.471C276.008 278.553 276.114 278.706 276.255 278.824C277.428 279.835 283.063 280.399 287.265 279.141C288.603 278.729 290.293 277.965 290.669 276.649C291.913 272.299 288.321 255.487 285.046 252.972C281.771 250.456 240.525 240.228 236.805 239.863C233.694 239.546 167.553 216.598 164.782 215.622C164.656 215.579 164.548 215.494 164.477 215.38C164.406 215.266 164.377 215.132 164.395 214.999L173.304 147.506C173.314 147.429 173.339 147.354 173.378 147.287C173.417 147.22 173.468 147.16 173.53 147.113C173.591 147.065 173.662 147.031 173.737 147.01C173.812 146.99 173.89 146.985 173.967 146.995C174.044 147.005 174.119 147.03 174.186 147.069C174.253 147.108 174.312 147.159 174.36 147.221C174.407 147.283 174.442 147.353 174.462 147.428C174.482 147.503 174.488 147.582 174.478 147.659L165.628 214.67C189.537 222.97 234.574 238.453 236.934 238.688C239.293 238.923 281.736 249.01 285.762 252.031C289.788 255.052 293.063 272.569 291.807 276.978C291.396 278.424 289.941 279.564 287.617 280.27C285.708 280.813 283.732 281.086 281.748 281.081Z" fill="#231F20"/>
<path d="M264.505 162.095C264.505 162.095 244.703 111.308 239.14 102.95C233.576 94.5909 209.162 74.182 206.122 76.2158C203.082 78.2497 203.974 80.5186 205.242 82.094C206.509 83.6693 213.587 88.5482 213.587 88.5482C213.587 88.5482 205.617 84.8802 205.371 89.7238C205.124 94.5674 211.24 97.4594 211.24 97.4594C211.24 97.4594 204.537 92.51 204.279 97.8356C204.246 99.3887 204.674 100.917 205.51 102.225C206.346 103.533 207.552 104.563 208.974 105.183C208.974 105.183 201.838 99.117 202.518 105.442C203.692 115.834 224.538 128.249 224.538 128.249L233.388 214.622C233.388 214.622 236.558 264.716 268.472 263.199C309.425 261.248 321.291 202.067 300.821 152.02" fill="white"/>
<path d="M266.994 263.74C236.194 263.74 232.767 215.069 232.731 214.576L223.917 128.52C221.405 126.991 202.977 115.47 201.873 105.419C201.685 103.702 202.038 102.597 202.918 102.127C203.453 101.871 204.062 101.821 204.632 101.986C203.892 100.695 203.546 99.2157 203.634 97.7301C203.592 97.1745 203.708 96.6183 203.967 96.1255C204.227 95.6327 204.62 95.2231 205.101 94.9439C205.622 94.7183 206.196 94.6449 206.756 94.7323C205.446 93.3569 204.733 91.5184 204.772 89.6183C204.769 89.1163 204.892 88.6216 205.13 88.1798C205.368 87.738 205.713 87.3634 206.134 87.0907C207.393 86.514 208.815 86.4016 210.148 86.7733C208.251 85.4636 206.458 84.0094 204.784 82.4235C204.296 81.9689 203.926 81.4017 203.706 80.7713C203.486 80.1409 203.423 79.4663 203.522 78.806C203.622 78.1457 203.881 77.5196 204.276 76.9823C204.672 76.4449 205.193 76.0124 205.794 75.7224C208.024 74.2293 216.944 81.0362 222.05 85.2332C228.635 90.6293 236.617 98.1063 239.657 102.621C245.185 110.944 264.306 159.803 265.08 161.884C265.134 162.029 265.128 162.189 265.064 162.33C265.001 162.471 264.884 162.581 264.74 162.636C264.669 162.667 264.593 162.682 264.517 162.681C264.44 162.681 264.364 162.665 264.293 162.634C264.223 162.603 264.16 162.558 264.107 162.502C264.055 162.446 264.015 162.38 263.989 162.307C263.789 161.802 244.14 111.497 238.671 103.279C236.124 99.4465 229.163 92.5573 221.334 86.1384C211.862 78.3675 207.249 76.2161 206.474 76.7334C206.034 76.9679 205.648 77.2936 205.342 77.6888C205.037 78.084 204.818 78.5398 204.702 79.0259C204.682 79.5159 204.761 80.005 204.934 80.4637C205.108 80.9223 205.372 81.341 205.711 81.6946C206.709 82.8702 211.991 86.6792 213.928 88.0429C214.047 88.1284 214.13 88.2554 214.16 88.399C214.191 88.5425 214.166 88.6923 214.092 88.8189C214.022 88.9484 213.905 89.0462 213.766 89.0921C213.626 89.138 213.474 89.1286 213.341 89.0657C212.05 88.4662 208.352 87.1495 206.744 88.1252C206.487 88.2969 206.279 88.532 206.139 88.808C205.999 89.084 205.933 89.3914 205.946 89.7006C205.805 92.428 207.942 94.5206 209.597 95.7315C210.271 96.0736 210.919 96.4666 211.533 96.9072C211.645 96.9959 211.72 97.1222 211.745 97.2624C211.77 97.4025 211.744 97.5472 211.671 97.6693C211.598 97.7915 211.483 97.8829 211.347 97.9265C211.212 97.9701 211.065 97.963 210.935 97.9064C210.243 97.5681 209.58 97.1749 208.951 96.7308C207.777 96.1077 206.381 95.6845 205.606 96.049C205.125 96.2723 204.855 96.8719 204.808 97.8242C204.752 98.7505 204.892 99.6783 205.217 100.547C205.543 101.416 206.047 102.207 206.697 102.868C207.611 103.402 208.479 104.011 209.291 104.69C209.397 104.781 209.467 104.907 209.488 105.044C209.51 105.182 209.482 105.323 209.409 105.442C209.336 105.562 209.222 105.652 209.088 105.695C208.955 105.738 208.81 105.732 208.681 105.677C207.713 105.237 206.831 104.628 206.075 103.879C205.007 103.279 203.998 102.915 203.47 103.197C202.941 103.479 202.906 104.173 203.035 105.325C204.127 115.306 224.562 127.567 224.762 127.662C224.842 127.708 224.91 127.773 224.961 127.85C225.012 127.928 225.044 128.016 225.055 128.108L233.905 214.482C233.905 214.999 237.356 264.034 268.367 262.529C281.22 261.918 291.901 255.476 299.284 243.86C313.275 221.864 313.651 185.009 300.211 152.162C300.156 152.018 300.158 151.858 300.217 151.716C300.276 151.574 300.387 151.46 300.528 151.397C300.673 151.341 300.834 151.343 300.978 151.402C301.122 151.461 301.238 151.573 301.303 151.715C314.871 184.903 314.461 222.182 300.27 244.495C292.687 256.428 281.666 263.07 268.426 263.705L266.994 263.74Z" fill="#231F20"/>
<path d="M263.484 160.144C263.484 160.144 279.459 203.642 283.555 217.985L263.484 160.144Z" fill="white"/>
<path d="M283.555 218.572C283.428 218.574 283.303 218.534 283.201 218.457C283.099 218.38 283.026 218.272 282.992 218.149C278.942 203.983 263.097 160.778 262.932 160.343C262.903 160.27 262.89 160.192 262.892 160.114C262.893 160.035 262.911 159.958 262.943 159.886C262.976 159.814 263.022 159.75 263.08 159.696C263.137 159.643 263.205 159.602 263.279 159.575C263.352 159.548 263.431 159.537 263.509 159.541C263.588 159.545 263.664 159.565 263.735 159.599C263.805 159.634 263.868 159.682 263.92 159.741C263.972 159.8 264.011 159.869 264.036 159.944C264.188 160.379 280.057 203.618 284.119 217.831C284.159 217.981 284.14 218.141 284.066 218.276C283.991 218.412 283.867 218.514 283.72 218.56L283.555 218.572Z" fill="#231F20"/>
<path d="M176.449 118.303C176.449 119.538 173.985 142.509 173.985 142.509L176.449 118.303Z" fill="#231F20"/>
<path d="M173.984 143.085H173.926C173.772 143.067 173.631 142.989 173.535 142.868C173.438 142.747 173.393 142.593 173.409 142.439C174.09 136.067 175.863 119.29 175.863 118.303C175.863 118.147 175.924 117.997 176.034 117.887C176.144 117.777 176.294 117.715 176.449 117.715C176.605 117.715 176.754 117.777 176.864 117.887C176.974 117.997 177.036 118.147 177.036 118.303C177.036 119.549 174.689 141.627 174.583 142.568C174.566 142.713 174.495 142.847 174.384 142.943C174.273 143.038 174.131 143.089 173.984 143.085Z" fill="#231F20"/>
<path d="M70.8579 74.7348C70.1771 65.9529 73.628 60.1806 83.3585 53.1973C92.1265 47.0135 94.6266 43.7923 94.251 38.89C93.7932 33.0118 88.4878 29.7789 80.5767 30.3902C70.7992 31.1543 65.2591 37.9495 65.4116 49.2002L44.014 49.2707C43.0749 27.7685 57.0779 12.6265 79.2268 10.9101C98.9226 9.38175 114.217 20.2093 115.473 36.4799C116.247 46.414 111.951 53.8439 100.953 61.7912C92.0678 68.4217 90.1076 71.0316 90.495 76.075L90.8823 81.1185L71.4683 82.6585L70.8579 74.7348ZM70.8579 92.6984L93.7698 90.9114L95.4952 113.248L72.5247 115.012L70.8579 92.6984Z" fill="#FF5C64"/>
<path d="M191.016 51.845C194.385 52.5268 194.749 46.7545 191.192 47.4011C190.666 47.4715 190.182 47.7255 189.825 48.1184C189.467 48.5113 189.26 49.0179 189.239 49.5489C189.218 50.0799 189.385 50.6014 189.71 51.0214C190.035 51.4414 190.497 51.733 191.016 51.845Z" fill="white"/>
<path d="M191.556 52.4684C191.335 52.4675 191.114 52.4439 190.898 52.3978C190.257 52.2957 189.674 51.9644 189.258 51.4651C188.841 50.9659 188.619 50.3325 188.633 49.6821C188.637 48.9895 188.886 48.3206 189.335 47.7937C189.784 47.2667 190.404 46.9154 191.086 46.8018C191.595 46.6713 192.131 46.7005 192.622 46.8856C193.113 47.0706 193.536 47.4026 193.833 47.8364C194.161 48.3697 194.327 48.9874 194.311 49.6138C194.294 50.2403 194.095 50.8483 193.739 51.3633C193.496 51.7154 193.169 52.001 192.788 52.194C192.406 52.3871 191.983 52.4814 191.556 52.4684ZM191.192 51.2927C191.494 51.3808 191.816 51.3701 192.111 51.2623C192.407 51.1545 192.66 50.9551 192.835 50.6932C193.043 50.3715 193.16 49.9988 193.173 49.6155C193.185 49.2322 193.093 48.8528 192.905 48.5182C192.733 48.2815 192.491 48.1044 192.213 48.0117C191.936 47.919 191.636 47.9153 191.356 48.001C190.944 48.072 190.57 48.2846 190.298 48.6022C190.026 48.9198 189.873 49.3225 189.865 49.7409C189.854 50.1186 189.983 50.487 190.229 50.774C190.474 51.0611 190.817 51.246 191.192 51.2927Z" fill="#D1D3D4"/>
<path d="M76.0693 201.773C76.2187 199.788 75.7425 197.806 74.7078 196.106C73.6928 194.956 72.7369 193.756 71.8438 192.509C70.67 190.157 71.4799 187.489 71.1982 184.961C70.9158 182.783 69.852 180.781 68.2051 179.33C66.7145 177.99 64.8012 177.073 63.3692 175.674C61.0217 173.393 60.3644 170.172 59.038 167.315C57.0221 163.146 53.7332 159.729 49.648 157.557C52.195 162.107 46.3966 167.891 49.0259 172.406C49.8592 173.828 51.4438 174.874 52.0542 176.391C53.5331 180.047 48.6268 184.009 50.1879 187.642C50.9743 189.452 53.1692 190.498 54.1787 192.215C55.552 194.566 54.4721 197.341 54.5895 199.962C54.7421 203.571 57.2187 206.793 60.1531 209.297C61.9842 210.848 64.0148 212.2 66.0219 213.599C68.3695 215.281 69.3906 217.056 71.4682 214.352C74.3024 210.758 75.9146 206.35 76.0693 201.773Z" fill="#444BFF"/>
<path d="M81.3512 203.478C80.5883 200.68 80.0483 197.658 81.3512 195.025C82.8067 192.039 86.4101 189.934 86.8327 186.713C87.1144 184.597 85.9054 182.457 86.3749 180.376C86.8444 178.296 88.7224 176.85 90.354 175.333C93.9247 171.93 96.1114 167.323 96.4928 162.401C98.9051 164.921 100.888 167.82 102.362 170.983C103.061 172.536 103.349 174.243 103.199 175.939C103.049 177.636 102.466 179.265 101.505 180.67C100.909 181.311 100.411 182.036 100.026 182.822C99.3098 184.879 101.293 186.795 102.373 188.7C102.979 189.8 103.235 191.06 103.107 192.309C102.979 193.559 102.473 194.741 101.657 195.695C99.5798 198.046 95.5772 198.893 94.6147 201.691C94.3581 202.733 94.2358 203.803 94.2509 204.877C93.9467 206.821 93.0617 208.628 91.7124 210.059C90.3631 211.49 88.6128 212.479 86.6918 212.894C84.2269 213.412 84.3443 212.553 83.8396 210.719C83.0884 208.321 82.032 205.935 81.3512 203.478Z" fill="#444BFF"/>
<path d="M73.5339 183.398C71.785 178.037 71.0808 172.429 69.2497 167.092C67.6686 162.895 65.7571 158.83 63.5334 154.936L71.0221 157.734C73.3696 158.639 76.0223 159.697 77.1609 161.778C79.1328 165.411 75.588 170.066 77.6538 173.652C78.558 174.828 79.5508 175.932 80.6235 176.956C82.8301 179.706 82.4897 183.492 81.2808 186.69C80.7643 188.065 78.4872 195.189 76.4566 193.214C75.6467 192.415 75.5763 189.464 75.2828 188.383C74.7194 186.713 74.0739 185.067 73.5339 183.398Z" fill="#444BFF"/>
<path d="M72.4539 233.009C71.1392 223.31 70.0007 214.892 69.989 214.751L68.8152 214.904C68.8152 215.045 69.989 223.369 71.2566 233.009H72.4539Z" fill="#FEFEFE"/>
<path d="M82.5722 233.009C84.1802 220.477 85.847 211.178 86.786 210.143L85.9174 209.355C84.6145 210.79 82.8539 221.664 81.3984 233.009H82.5722Z" fill="#FEFEFE"/>
<path d="M81.1399 233.009C79.8605 210.355 77.6186 187.877 77.6186 187.583L76.4448 187.701C76.4448 187.994 78.7924 210.414 79.9661 233.009H81.1399Z" fill="#FEFEFE"/>
<path d="M60.8103 219.548H94.0043L91.6568 244.542C91.2577 248.868 86.4218 252.231 80.5999 252.231H74.1795C68.3106 252.231 63.5217 248.868 63.1109 244.542L60.8103 219.548Z" fill="#FEFEFE"/>
</svg>
