<svg  viewBox="0 0 520 449" fill="none" xmlns="http://www.w3.org/2000/svg">
<path d="M417.07 203.612C473.365 203.612 519.001 158.238 519.001 102.266C519.001 46.2943 473.365 0.920166 417.07 0.920166C360.775 0.920166 315.139 46.2943 315.139 102.266C315.139 158.238 360.775 203.612 417.07 203.612Z" fill="white"/>
<path d="M417.143 204.532C396.8 204.532 376.914 198.535 359.999 187.297C343.085 176.06 329.901 160.088 322.116 141.402C314.331 122.715 312.294 102.153 316.263 82.315C320.232 62.4774 330.028 44.2553 344.413 29.9531C358.798 15.6509 377.125 5.91102 397.077 1.96506C417.029 -1.9809 437.71 0.0443108 456.505 7.78459C475.299 15.5249 491.363 28.6326 502.665 45.4502C513.967 62.2677 520 82.0399 520 102.266C519.971 129.38 509.124 155.375 489.841 174.547C470.558 193.719 444.414 204.503 417.143 204.532ZM417.143 1.84036C397.166 1.84036 377.638 7.73023 361.028 18.7652C344.417 29.8001 331.471 45.4845 323.826 63.8349C316.181 82.1853 314.181 102.378 318.079 121.858C321.976 141.339 331.596 159.233 345.722 173.278C359.847 187.323 377.845 196.887 397.438 200.762C417.031 204.637 437.34 202.649 455.796 195.048C474.253 187.447 490.028 174.575 501.126 158.06C512.225 141.545 518.149 122.129 518.149 102.266C518.12 75.6406 507.468 50.1138 488.533 31.2867C469.597 12.4595 443.923 1.86958 417.143 1.84036Z" fill="#231F20"/>
<path d="M417.069 179.982C460.239 179.982 495.235 145.187 495.235 102.266C495.235 59.3441 460.239 24.5493 417.069 24.5493C373.9 24.5493 338.904 59.3441 338.904 102.266C338.904 145.187 373.9 179.982 417.069 179.982Z" fill="#FF5C64"/>
<path d="M417.07 157.218C447.594 157.218 472.339 132.615 472.339 102.266C472.339 71.9172 447.594 47.3145 417.07 47.3145C386.545 47.3145 361.801 71.9172 361.801 102.266C361.801 132.615 386.545 157.218 417.07 157.218Z" fill="white"/>
<path d="M417.07 138.447C437.167 138.447 453.459 122.248 453.459 102.266C453.459 82.2845 437.167 66.0859 417.07 66.0859C396.972 66.0859 380.68 82.2845 380.68 102.266C380.68 122.248 396.972 138.447 417.07 138.447Z" fill="#FF5C64"/>
<path d="M0.960693 313.424V337.606L171.895 448.024C171.895 448.024 264.312 379.675 322.672 296.769C381.032 213.863 405.02 144.023 405.02 144.023H431.84V135.687L396.339 124.166L343.939 131.896V140.379L376.09 141.944C376.09 141.944 327.207 251.166 217.927 301.904C108.648 352.641 0.960693 313.424 0.960693 313.424Z" fill="#D1D3D4"/>
<path d="M171.894 448.999C171.716 449.007 171.54 448.956 171.395 448.852L0.442052 338.433C0.315148 338.348 0.211515 338.233 0.140445 338.098C0.0693745 337.963 0.0330951 337.813 0.0348509 337.66V313.424C0.036993 313.277 0.0731694 313.132 0.140579 313.001C0.207988 312.87 0.304816 312.757 0.423546 312.669C0.547757 312.588 0.688959 312.535 0.836466 312.516C0.983974 312.497 1.13392 312.512 1.27497 312.559C2.34852 312.964 109.888 351.205 217.538 301.222C319.044 254.092 368.871 155.083 374.683 142.955L343.883 141.465C343.648 141.451 343.426 141.348 343.265 141.177C343.103 141.005 343.013 140.779 343.013 140.545V132.042C343.015 131.82 343.096 131.606 343.242 131.437C343.387 131.269 343.589 131.157 343.809 131.122L396.191 123.411C396.331 123.383 396.476 123.383 396.617 123.411L432.117 134.932C432.303 134.99 432.466 135.105 432.582 135.26C432.699 135.415 432.763 135.603 432.765 135.797V144.133C432.76 144.374 432.661 144.603 432.488 144.772C432.315 144.941 432.082 145.035 431.84 145.035H405.668C403.113 152.175 378.311 219.384 323.431 297.339C265.644 379.417 173.357 448.098 172.431 448.797C172.278 448.919 172.09 448.99 171.894 448.999ZM1.86727 337.108L171.857 446.975C179.354 441.325 266.551 374.964 321.913 296.327C379.532 214.488 403.909 144.557 404.15 143.857C404.212 143.678 404.33 143.523 404.486 143.414C404.642 143.305 404.829 143.247 405.02 143.25H430.933V136.496L396.265 125.252L344.957 132.834V139.661L376.238 141.17C376.387 141.182 376.532 141.227 376.661 141.304C376.789 141.381 376.898 141.486 376.978 141.612C377.042 141.744 377.075 141.889 377.075 142.035C377.075 142.182 377.042 142.327 376.978 142.459C376.478 143.563 326.688 252.583 218.353 302.897C116.2 350.303 14.213 318.816 1.86727 314.712V337.108Z" fill="#231F20"/>
<path d="M431.84 135.834H402.336C384.109 176.656 361.988 215.646 336.276 252.27C270.957 343.679 173.394 416.353 173.394 416.353L120.439 384.754L68.9456 354.021L0.9422 313.424C0.9422 313.424 112.868 322.865 247.913 238.394C326.189 189.442 372.073 132.043 372.073 132.043H343.939L417.866 97.9785L431.84 135.834Z" fill="white"/>
<path d="M173.412 417.272C173.243 417.276 173.076 417.231 172.931 417.144L0.460781 314.215C0.278041 314.11 0.137112 313.945 0.0614176 313.749C-0.0142769 313.553 -0.0201818 313.337 0.0446907 313.137C0.109563 312.937 0.241303 312.765 0.418014 312.65C0.594725 312.535 0.805767 312.483 1.01606 312.504C2.14513 312.596 114.219 320.932 247.431 237.621C317.767 193.675 362.3 142.311 370.111 132.963H343.939C343.818 132.988 343.692 132.989 343.57 132.967C343.448 132.944 343.332 132.897 343.228 132.83C343.124 132.762 343.034 132.675 342.964 132.573C342.894 132.471 342.845 132.357 342.819 132.236C342.794 132.115 342.792 131.99 342.815 131.869C342.838 131.748 342.885 131.632 342.953 131.528C343.021 131.425 343.109 131.336 343.211 131.266C343.314 131.197 343.429 131.148 343.55 131.122L417.477 96.9846C417.593 96.9304 417.719 96.9023 417.847 96.9023C417.975 96.9023 418.101 96.9304 418.217 96.9846C418.336 97.0329 418.444 97.1053 418.533 97.1972C418.622 97.2891 418.691 97.3984 418.735 97.5183L432.71 135.447C432.761 135.586 432.777 135.735 432.757 135.881C432.737 136.028 432.683 136.167 432.597 136.288C432.512 136.409 432.399 136.508 432.267 136.576C432.135 136.644 431.989 136.68 431.84 136.68H402.91C400.189 142.9 375.146 199.343 336.998 252.73C272.345 343.2 174.949 416.279 173.968 417.015C173.82 417.165 173.623 417.256 173.412 417.272ZM4.60688 314.528L173.357 415.248C180.964 409.488 273.307 338.636 335.48 251.736C375.609 195.588 401.189 136.073 401.448 135.465C401.522 135.302 401.641 135.164 401.792 135.066C401.943 134.968 402.119 134.915 402.299 134.913H430.526L417.347 99.1561L348.141 131.104H372.073C372.247 131.104 372.417 131.152 372.564 131.243C372.711 131.334 372.83 131.464 372.906 131.619C372.984 131.775 373.016 131.95 372.996 132.123C372.976 132.296 372.906 132.46 372.795 132.595C372.332 133.165 325.929 190.675 248.412 239.149C178.521 282.875 114.96 300.983 73.9615 308.473C38.7752 314.914 13.6394 314.841 4.60688 314.528Z" fill="#231F20"/>
<path d="M198.382 334.605C193.44 336.667 145.482 368.228 121.29 384.202L69.8525 353.634C86.4184 346.273 114.516 334.182 124.289 333.225C138.263 331.845 177.54 324.024 191.959 316.92C206.378 309.816 253.04 278.034 262.294 282.322C271.549 286.61 204.989 331.845 198.382 334.605Z" fill="#E6E7E8"/>
<path d="M221.463 88.2805C221.463 88.2805 228.089 94.6112 227.404 96.3779C226.719 98.1446 223.11 97.8869 223.11 97.8869" fill="white"/>
<path d="M223.628 98.825H223.036C222.915 98.8166 222.796 98.7844 222.687 98.7304C222.578 98.6763 222.481 98.6014 222.401 98.51C222.239 98.3253 222.158 98.0845 222.175 97.8405C222.193 97.5964 222.307 97.3692 222.492 97.2087C222.678 97.0482 222.92 96.9676 223.166 96.9847C224.369 96.9847 226.257 96.8375 226.534 96.0646C226.812 95.2916 223.925 91.9423 220.815 88.9794C220.728 88.8938 220.659 88.7921 220.612 88.6799C220.565 88.5678 220.541 88.4475 220.541 88.3261C220.541 88.2046 220.565 88.0843 220.612 87.9722C220.659 87.8601 220.728 87.7583 220.815 87.6728C220.899 87.5871 221 87.519 221.111 87.4725C221.223 87.426 221.342 87.4021 221.463 87.4021C221.583 87.4021 221.703 87.426 221.814 87.4725C221.925 87.519 222.026 87.5871 222.111 87.6728C224.758 90.194 229.07 94.7211 228.293 96.7639C227.515 98.8066 224.869 98.825 223.628 98.825Z" fill="#231F20"/>
<path d="M218.168 78.7103C221.87 80.5506 222.203 86.0716 222.98 89.7522C224.054 94.7027 225.035 99.6715 225.886 104.659C226.423 107.824 218.279 109.72 216.631 109.094L220.722 121.166L202.213 118.479L200.584 108.027C200.584 108.027 197.215 97.684 198.955 90.5988C200.167 86.1221 202.609 82.0694 206.007 78.8944C206.007 78.8944 214.54 76.9068 218.168 78.7103Z" fill="white"/>
<path d="M220.722 121.994H220.574L202.065 119.289C201.871 119.264 201.69 119.176 201.55 119.04C201.41 118.904 201.318 118.727 201.287 118.535L199.659 108.155C199.566 107.861 196.29 97.6287 198.067 90.3778C199.335 85.7062 201.901 81.4841 205.471 78.195C205.59 78.0988 205.729 78.0297 205.878 77.9925C206.248 77.9925 214.855 75.9498 218.742 77.8821C222.24 79.7224 223.036 84.0288 223.665 87.5806C223.795 88.2431 223.906 88.8872 224.035 89.4209C225.109 94.3345 226.09 99.377 226.941 104.346C227.021 104.933 226.933 105.531 226.687 106.071C226.442 106.611 226.049 107.072 225.553 107.401C223.37 108.918 220.808 109.809 218.15 109.977L221.851 120.725C221.898 120.862 221.911 121.009 221.89 121.153C221.869 121.297 221.813 121.434 221.728 121.553C221.644 121.671 221.532 121.768 221.402 121.835C221.272 121.903 221.128 121.938 220.981 121.939L220.722 121.994ZM202.935 117.578L219.353 119.952L215.762 109.296C215.709 109.13 215.703 108.953 215.745 108.784C215.788 108.615 215.877 108.461 216.002 108.339C216.129 108.222 216.287 108.143 216.457 108.11C216.627 108.078 216.803 108.093 216.965 108.155C219.547 108.223 222.085 107.483 224.221 106.039C224.794 105.579 225.035 105.137 224.961 104.714C224.11 99.7634 223.11 94.7578 222.073 89.8625C221.944 89.2552 221.814 88.5927 221.703 87.8934C221.13 84.7649 220.445 80.8634 217.761 79.5384C215.077 78.2134 208.876 79.1887 206.378 79.7408C203.223 82.7656 200.946 86.58 199.788 90.7827C198.122 97.5366 201.361 107.622 201.38 107.714L202.935 117.578Z" fill="#231F20"/>
<path d="M224.924 100.905C224.517 101.336 224.021 101.674 223.47 101.897C222.919 102.12 222.326 102.221 221.732 102.195C221.138 102.169 220.556 102.015 220.027 101.745C219.499 101.475 219.035 101.094 218.668 100.629" fill="white"/>
<path d="M221.759 103.187H221.537C220.836 103.135 220.154 102.934 219.537 102.598C218.921 102.261 218.384 101.797 217.964 101.236C217.87 101.147 217.795 101.039 217.745 100.919C217.695 100.799 217.672 100.67 217.675 100.541C217.679 100.411 217.71 100.284 217.767 100.167C217.824 100.051 217.905 99.947 218.004 99.8635C218.104 99.7801 218.22 99.7184 218.346 99.6828C218.471 99.6471 218.602 99.6381 218.732 99.6565C218.861 99.6749 218.984 99.7201 219.095 99.7894C219.205 99.8586 219.299 99.9501 219.371 100.058C219.635 100.416 219.97 100.717 220.355 100.941C220.74 101.166 221.168 101.31 221.611 101.365C222.602 101.317 223.544 100.926 224.276 100.261C224.362 100.174 224.465 100.106 224.577 100.059C224.69 100.012 224.811 99.9884 224.933 99.9884C225.055 99.9884 225.176 100.012 225.289 100.059C225.402 100.106 225.504 100.174 225.59 100.261C225.677 100.344 225.745 100.445 225.792 100.555C225.838 100.666 225.863 100.785 225.863 100.905C225.863 101.025 225.838 101.143 225.792 101.254C225.745 101.365 225.677 101.465 225.59 101.549C224.55 102.532 223.192 103.112 221.759 103.187Z" fill="#231F20"/>
<path d="M218.573 88.6517C218.957 88.5436 219.046 87.6791 218.773 86.7208C218.5 85.7625 217.968 85.0732 217.584 85.1813C217.2 85.2894 217.111 86.1538 217.384 87.1121C217.657 88.0705 218.189 88.7597 218.573 88.6517Z" fill="#231F20"/>
<path d="M199.363 122.215L199.585 116.436L222.018 115.111L226.682 124.533C217.511 125.087 208.307 124.305 199.363 122.215Z" fill="white"/>
<path d="M221.463 125.583C213.956 125.58 206.474 124.734 199.159 123.062C198.948 123.019 198.76 122.902 198.628 122.734C198.496 122.565 198.428 122.356 198.437 122.142L198.733 116.382C198.738 116.152 198.83 115.933 198.992 115.769C199.154 115.604 199.372 115.508 199.603 115.498L222.036 114.173C222.219 114.165 222.4 114.209 222.557 114.3C222.715 114.392 222.843 114.527 222.925 114.689L227.589 124.111C227.662 124.24 227.7 124.386 227.7 124.534C227.7 124.683 227.662 124.828 227.589 124.958C227.518 125.089 227.414 125.2 227.288 125.28C227.162 125.36 227.017 125.408 226.867 125.418C226.867 125.418 224.757 125.583 221.463 125.583ZM200.306 121.443C208.489 123.274 216.875 124.047 225.257 123.743L221.463 116.106L200.473 117.339L200.306 121.443Z" fill="#231F20"/>
<path d="M276.065 142.145C277.844 139.591 279.44 136.916 280.841 134.14C280.944 132.13 281.292 130.14 281.877 128.214C282.784 126.374 285.32 124.533 286.653 127.018C286.653 127.018 287.116 122.711 290.096 124.938C291.405 125.836 292.406 127.111 292.965 128.591C293.524 130.072 293.615 131.687 293.224 133.22C292.631 136.514 281.433 153.574 281.433 153.574" fill="white"/>
<path d="M281.433 154.512C281.254 154.518 281.079 154.466 280.933 154.365C280.727 154.233 280.582 154.025 280.53 153.787C280.478 153.549 280.523 153.3 280.655 153.095C285.116 146.305 291.909 135.355 292.316 133.091C292.673 131.729 292.597 130.291 292.1 128.973C291.603 127.656 290.709 126.523 289.54 125.73C289.04 125.362 288.633 125.215 288.411 125.307C288.188 125.399 287.652 126.503 287.578 127.147C287.557 127.343 287.473 127.528 287.339 127.673C287.204 127.819 287.026 127.917 286.831 127.954C286.636 127.992 286.434 127.965 286.255 127.88C286.076 127.794 285.93 127.653 285.838 127.478C285.431 126.724 285.023 126.724 284.894 126.724C284.415 126.845 283.971 127.074 283.595 127.393C283.22 127.712 282.923 128.113 282.728 128.564C282.254 129.819 281.998 131.144 281.969 132.484C281.935 133.101 281.861 133.716 281.747 134.324C280.347 137.231 278.7 140.014 276.824 142.642C276.679 142.821 276.473 142.939 276.245 142.975C276.017 143.01 275.784 142.959 275.592 142.832C275.4 142.706 275.262 142.512 275.205 142.29C275.149 142.068 275.178 141.832 275.287 141.63C277.032 139.182 278.585 136.604 279.933 133.919C280.025 133.396 280.087 132.867 280.118 132.337C280.161 130.786 280.474 129.254 281.044 127.81C281.363 127.029 281.881 126.344 282.546 125.822C283.211 125.299 284.001 124.957 284.838 124.828C285.313 124.814 285.782 124.935 286.189 125.178C286.455 124.464 286.984 123.878 287.67 123.54C288.178 123.364 288.726 123.332 289.251 123.445C289.777 123.559 290.261 123.815 290.65 124.184C292.103 125.184 293.215 126.6 293.836 128.244C294.458 129.888 294.561 131.682 294.13 133.386C293.519 136.772 283.358 152.322 282.21 154.089C282.124 154.216 282.008 154.321 281.873 154.395C281.738 154.469 281.587 154.509 281.433 154.512Z" fill="#231F20"/>
<path d="M138.615 177.112C138.615 177.112 136.135 181.197 134.709 184.308C133.616 187.284 132.846 190.369 132.414 193.509C131.692 192.479 130.415 192.129 129.638 191.209C129.417 192.546 128.979 193.839 128.342 195.037C128.008 195.627 127.532 196.125 126.958 196.488C126.383 196.851 125.727 197.067 125.047 197.116C124.32 197.085 123.608 196.903 122.956 196.582C120.55 195.57 116.589 193.748 116.33 190.73C116.321 189.565 116.648 188.422 117.273 187.436C119.55 183.24 129.008 172.603 130.545 170.873" fill="white"/>
<path d="M125.029 197.888C124.182 197.85 123.351 197.643 122.586 197.281C120.531 196.416 115.737 194.391 115.404 190.656C115.376 189.317 115.743 187.999 116.459 186.865C118.995 182.172 129.749 170.302 129.86 170.118C129.941 170.027 130.04 169.953 130.15 169.901C130.26 169.848 130.379 169.817 130.501 169.81C130.623 169.803 130.746 169.821 130.861 169.861C130.976 169.901 131.083 169.963 131.174 170.044C131.265 170.125 131.339 170.223 131.392 170.333C131.445 170.442 131.476 170.561 131.483 170.682C131.49 170.804 131.473 170.925 131.432 171.04C131.392 171.154 131.329 171.26 131.248 171.351C128.471 174.406 120.142 183.957 118.106 187.73C117.557 188.554 117.262 189.52 117.255 190.508C117.458 192.827 120.605 194.447 123.326 195.588C123.855 195.857 124.435 196.013 125.029 196.048C125.551 196.001 126.054 195.827 126.493 195.541C126.932 195.255 127.293 194.867 127.546 194.41C128.139 193.307 128.54 192.112 128.731 190.876C128.767 190.708 128.851 190.553 128.972 190.429C129.093 190.305 129.247 190.218 129.415 190.177C129.582 190.129 129.759 190.131 129.923 190.184C130.088 190.236 130.234 190.337 130.341 190.472C130.668 190.805 131.042 191.09 131.451 191.318L131.766 191.539C132.2 188.909 132.907 186.331 133.876 183.846C135.301 180.718 137.708 176.706 137.819 176.485C137.88 176.381 137.961 176.291 138.058 176.219C138.154 176.147 138.265 176.095 138.382 176.065C138.499 176.036 138.621 176.031 138.74 176.049C138.86 176.067 138.974 176.109 139.077 176.172C139.184 176.231 139.277 176.311 139.351 176.407C139.425 176.503 139.478 176.613 139.508 176.73C139.537 176.848 139.542 176.97 139.522 177.089C139.502 177.208 139.458 177.322 139.392 177.424C139.392 177.424 136.93 181.528 135.561 184.546C134.512 187.425 133.761 190.403 133.321 193.434C133.291 193.614 133.209 193.781 133.084 193.914C132.958 194.047 132.796 194.14 132.618 194.182C132.44 194.223 132.253 194.211 132.081 194.147C131.91 194.082 131.762 193.969 131.655 193.821C131.316 193.41 130.902 193.066 130.433 192.809L130.193 192.662C129.969 193.593 129.608 194.486 129.119 195.312C128.708 196.038 128.119 196.649 127.407 197.09C126.696 197.53 125.884 197.786 125.047 197.833L125.029 197.888Z" fill="#231F20"/>
<path d="M246.598 277.905C246.598 277.905 244.747 290.603 250.041 292.48C255.335 294.358 282.47 272.863 280.582 268.096C278.694 263.33 269.476 261.692 261.147 268.096C256.532 271.697 251.67 274.974 246.598 277.905Z" fill="#231F20"/>
<path d="M250.763 293.493C250.416 293.499 250.071 293.443 249.745 293.327C243.914 291.284 245.488 279.157 245.691 277.776C245.711 277.635 245.764 277.501 245.844 277.383C245.924 277.265 246.03 277.167 246.154 277.095C251.185 274.19 256.009 270.943 260.591 267.379C262.691 265.586 265.176 264.297 267.856 263.611C270.535 262.925 273.338 262.86 276.047 263.422C277.227 263.674 278.331 264.198 279.27 264.953C280.209 265.707 280.956 266.671 281.451 267.765C281.692 268.391 282.451 270.323 276.583 276.341C270.42 282.672 256.371 293.493 250.763 293.493ZM247.45 278.476C247.006 282.156 246.765 290.346 250.356 291.615C253.262 292.628 267.014 283.518 275.251 275.053C279.249 270.967 279.952 268.943 279.73 268.409C279.333 267.584 278.748 266.862 278.022 266.3C277.296 265.738 276.449 265.351 275.547 265.17C273.112 264.702 270.603 264.79 268.207 265.428C265.812 266.065 263.594 267.236 261.72 268.851C257.179 272.364 252.412 275.579 247.45 278.476Z" fill="#231F20"/>
<path d="M191.959 220.396C191.959 220.396 224.313 229.027 248.468 224.628L246.284 277.85C246.284 277.85 255.446 281.163 265.423 268.354C265.423 268.354 275.066 202.968 268.828 199.821C262.591 196.674 205.415 200.391 205.415 200.391L191.959 220.396Z" fill="white"/>
<path d="M249.19 279.194C248.1 279.212 247.013 279.063 245.969 278.752C245.778 278.682 245.614 278.553 245.5 278.385C245.387 278.216 245.331 278.016 245.34 277.813L247.468 225.769C223.406 229.671 191.94 221.408 191.7 221.316C191.553 221.279 191.418 221.206 191.308 221.103C191.198 221 191.116 220.87 191.07 220.727C191.002 220.593 190.966 220.445 190.966 220.294C190.966 220.144 191.002 219.996 191.07 219.862L204.527 199.858C204.611 199.737 204.721 199.637 204.849 199.564C204.977 199.49 205.12 199.446 205.267 199.435C211.134 199.066 262.868 195.754 269.161 198.974C275.454 202.195 267.903 257.46 266.274 268.483C266.243 268.641 266.18 268.792 266.089 268.925C259.37 277.666 252.91 279.194 249.19 279.194ZM247.339 277.132C249.504 277.556 256.593 278.016 264.571 267.931C269.235 236.186 271.975 202.397 268.439 200.631C263.571 198.183 222.166 200.226 206.007 201.275L193.55 219.678C199.825 221.205 227.404 227.389 248.357 223.579C248.497 223.549 248.643 223.554 248.782 223.592C248.921 223.631 249.048 223.702 249.153 223.8C249.264 223.891 249.353 224.006 249.411 224.137C249.469 224.269 249.495 224.412 249.486 224.555L247.339 277.132Z" fill="#231F20"/>
<path d="M174.079 211.121C174.079 211.121 165.546 263.183 163.88 264.011C162.214 264.839 115.756 304.921 115.756 304.921L129.471 316.92C129.471 316.92 181.297 285.745 184.24 276.525C187.183 267.305 210.283 211.121 210.283 211.121H174.079Z" fill="white"/>
<path d="M129.49 317.859C129.257 317.86 129.032 317.775 128.86 317.619L115.145 305.639C115.04 305.551 114.955 305.441 114.897 305.317C114.839 305.193 114.809 305.058 114.809 304.921C114.809 304.785 114.839 304.649 114.897 304.525C114.955 304.401 115.04 304.292 115.145 304.204C122.715 297.689 159.697 265.796 163.269 263.312C164.676 260.699 170.062 229.947 173.172 210.973C173.207 210.749 173.321 210.544 173.494 210.396C173.667 210.248 173.887 210.165 174.116 210.164H210.339C210.493 210.164 210.646 210.203 210.782 210.277C210.917 210.351 211.032 210.457 211.116 210.587C211.207 210.714 211.263 210.862 211.279 211.016C211.295 211.171 211.271 211.328 211.209 211.47C210.986 212.041 188.072 267.747 185.203 276.82C182.223 286.26 132.155 316.442 130.026 317.73C129.864 317.824 129.677 317.869 129.49 317.859ZM117.218 304.976L129.601 315.779C144.408 306.872 181.075 283.463 183.278 276.286C185.943 267.821 205.23 220.801 208.802 212.114H174.875C166.397 263.864 164.88 264.618 164.306 264.894C162.769 265.778 135.635 289.058 117.292 304.94L117.218 304.976Z" fill="#231F20"/>
<path d="M154.94 260.22C154.94 260.22 184.407 280.188 201.621 276.783C251.207 266.754 276.528 198.644 276.528 198.644C276.528 198.644 243.211 194.208 225.516 189.81L174.079 206.189L154.94 260.22Z" fill="#231F20"/>
<path d="M197.252 278.034C179.817 278.034 155.532 261.729 154.422 260.974C154.253 260.86 154.127 260.693 154.063 260.5C153.999 260.307 154.002 260.098 154.07 259.907L173.209 205.801C173.255 205.669 173.33 205.549 173.429 205.45C173.529 205.352 173.65 205.276 173.783 205.231L225.239 188.871C225.402 188.824 225.575 188.824 225.738 188.871C243.174 193.214 276.324 197.63 276.658 197.667C276.795 197.687 276.926 197.736 277.041 197.813C277.157 197.889 277.253 197.99 277.324 198.109C277.378 198.234 277.407 198.369 277.407 198.505C277.407 198.641 277.378 198.775 277.324 198.9C277.065 199.581 251.244 267.618 201.732 277.61C200.256 277.898 198.756 278.04 197.252 278.034ZM156.051 259.925C160.271 262.667 186.128 278.972 201.436 275.881C246.561 266.771 271.771 208.065 275.251 199.379C269.217 198.569 241.268 194.649 225.553 190.766L174.782 206.906L156.051 259.925Z" fill="#231F20"/>
<path d="M238.88 133.588C238.88 133.588 236.196 122.841 203.971 119.418C196.184 118.5 188.29 119.524 181.001 122.399C180.168 127.368 172.542 189.165 169.211 206.115C169.211 206.115 212.634 215.537 230.144 190.969C230.199 190.969 236.4 138.962 238.88 133.588Z" fill="#FF5C64"/>
<path d="M201.621 131.104C201.621 131.104 168.822 134.785 160.493 138.815C152.163 142.846 124.288 173.653 124.288 173.653L137.041 185.817C137.041 185.817 158.623 164.966 164.62 162.261C170.617 159.556 195.383 164.929 195.383 164.929L201.621 131.104Z" fill="#FF5C64"/>
<path d="M238.88 133.587L256.945 163.511L276.472 138.703L286.727 149.966C286.727 149.966 269.476 183.681 261.128 183.515C243.026 183.165 218.871 159.223 218.871 159.223L238.88 133.587Z" fill="#FF5C64"/>
<path d="M129.49 316.975C128.509 304.682 122.845 301.038 118.791 302.381C114.738 303.725 111.98 304.111 113.128 316.055C114.275 327.999 120.772 345.187 127.306 343.66C133.84 342.132 130.471 329.195 129.49 316.975Z" fill="#231F20"/>
<path d="M126.547 344.581C125.364 344.549 124.223 344.143 123.289 343.421C117.903 339.593 113.257 326.196 112.183 316.074C111.073 304.443 113.553 303.045 118.014 301.591L118.495 301.444C119.442 301.141 120.447 301.061 121.43 301.211C122.413 301.361 123.347 301.737 124.159 302.309C127.602 304.572 129.823 309.67 130.396 316.829C130.6 319.424 130.915 322.074 131.229 324.632C132.433 334.514 133.451 343.035 127.528 344.452C127.205 344.526 126.877 344.569 126.547 344.581ZM120.494 302.953C120.041 302.953 119.59 303.027 119.161 303.174L118.68 303.339C115.182 304.462 113.127 305.18 114.108 315.909C115.034 325.423 119.457 338.434 124.344 341.931C124.732 342.254 125.187 342.487 125.677 342.615C126.166 342.742 126.678 342.76 127.176 342.667C131.526 341.636 130.582 333.852 129.49 324.834C129.175 322.276 128.86 319.608 128.657 316.976C127.935 308.179 124.955 304.959 123.233 303.836C122.408 303.266 121.425 302.964 120.42 302.971L120.494 302.953Z" fill="#231F20"/>
<path d="M213.54 69.7291C204.688 68.1027 195.548 69.9995 188.09 75.0108C185.673 76.615 183.639 78.7255 182.13 81.1943C177.873 88.5555 180.797 97.6098 178.169 105.45C175.54 113.289 166.619 119.27 160.826 124.736C154.162 131.012 147.684 137.747 143.686 145.973C137.041 159.684 140.761 172.234 150.22 183.35C151.497 184.913 152.979 186.299 154.625 187.472C157.94 189.446 161.673 190.625 165.527 190.914C172.653 191.852 182.926 192.552 189.219 188.227C193.717 185.117 197.159 177.866 197.4 172.584C197.641 167.302 195.457 161.542 196.974 156.279C199.232 148.458 208.746 144.427 211.004 136.624C212.615 130.993 209.968 125.049 206.655 120.227C204.1 116.547 200.954 112.24 202.324 107.952C203.138 105.413 205.378 103.628 207.025 101.548C209.083 98.9042 210.261 95.6875 210.394 92.3466C210.542 89.3837 209.061 86.66 209.172 83.8075C211.689 84.9485 214.725 83.8075 217.242 83.5499C220.444 83.2002 223.646 82.7769 226.848 82.2985C226.177 78.9326 224.344 75.9058 221.666 73.741C219.302 71.8022 216.522 70.4296 213.54 69.7291Z" fill="white"/>
<path d="M175.115 192.552C171.87 192.518 168.631 192.279 165.417 191.834C161.427 191.51 157.565 190.282 154.126 188.246C152.405 187.025 150.861 185.576 149.535 183.939C138.856 171.388 136.579 158.488 142.872 145.587C146.944 137.214 153.608 130.294 160.215 124.055C161.567 122.786 163.066 121.497 164.658 120.154C169.674 115.848 175.375 110.952 177.318 105.155C178.247 101.769 178.677 98.2668 178.595 94.7577C178.706 90.0281 178.836 85.1329 181.353 80.7345C182.938 78.1409 185.081 75.9285 187.628 74.2567C195.286 69.0748 204.685 67.092 213.8 68.7357C216.927 69.4699 219.84 70.9121 222.314 72.95C225.217 75.2541 227.188 78.5206 227.867 82.1516C227.905 82.3974 227.845 82.6482 227.701 82.8509C227.549 83.0442 227.332 83.1753 227.09 83.219C223.888 83.6975 220.63 84.1207 217.446 84.4704C216.799 84.4704 216.132 84.6728 215.447 84.8016C213.753 85.2168 211.994 85.3104 210.265 85.0777C210.387 85.9822 210.56 86.8792 210.783 87.7645C211.227 89.2703 211.445 90.833 211.431 92.4021C211.284 95.9227 210.043 99.3114 207.877 102.101C207.377 102.745 206.822 103.334 206.285 103.941C205.005 105.147 203.996 106.608 203.324 108.229C202.139 111.909 204.804 115.756 207.155 119.271L207.525 119.786C211.931 126.209 213.43 131.987 212.005 136.974C210.801 141.097 207.729 144.189 204.767 147.188C201.806 150.188 199.048 152.948 197.974 156.611C197.335 159.707 197.335 162.9 197.974 165.996C198.339 168.216 198.5 170.464 198.456 172.713C198.215 177.903 194.865 185.596 189.867 189.074C185.777 191.834 180.372 192.552 175.115 192.552ZM207.599 70.0055C200.86 70.0289 194.279 72.0329 188.683 75.7657C186.376 77.2816 184.436 79.2864 183 81.6363C180.705 85.6298 180.594 90.0833 180.483 94.7945C180.582 98.5224 180.12 102.244 179.113 105.836C177.022 112.13 171.099 117.173 165.898 121.626C164.324 122.97 162.844 124.24 161.53 125.491C155.051 131.601 148.573 138.373 144.575 146.47C138.671 158.653 140.873 170.891 150.979 182.853C152.2 184.356 153.619 185.687 155.199 186.81C158.402 188.684 161.99 189.81 165.694 190.104C169.711 190.62 181.964 192.239 188.738 187.565C193.125 184.547 196.309 177.406 196.531 172.64C196.56 170.496 196.405 168.353 196.068 166.235C195.365 162.898 195.365 159.451 196.068 156.114C197.271 151.991 200.344 148.881 203.305 145.9C206.267 142.919 209.025 140.14 210.098 136.459C211.357 132.024 209.95 126.779 205.878 120.835L205.508 120.301C202.917 116.621 199.955 112.278 201.436 107.769C202.172 105.888 203.316 104.192 204.786 102.8C205.304 102.229 205.822 101.659 206.285 101.07C208.211 98.5727 209.316 95.5462 209.45 92.4021C209.46 91.0064 209.26 89.617 208.858 88.2798C208.451 86.8421 208.239 85.3567 208.229 83.8631C208.231 83.7105 208.273 83.5609 208.349 83.4285C208.425 83.2961 208.534 83.1852 208.666 83.1061C208.797 83.027 208.946 82.9824 209.1 82.9764C209.253 82.9704 209.406 83.0032 209.543 83.0718C211.317 83.6061 213.211 83.6061 214.985 83.0718C215.706 82.9429 216.428 82.8141 217.113 82.7405C219.964 82.4092 222.851 82.0412 225.72 81.6363C224.933 78.8546 223.305 76.3809 221.056 74.5511C218.804 72.695 216.149 71.3846 213.3 70.7233C211.433 70.2699 209.521 70.0291 207.599 70.0055Z" fill="#231F20"/>
<path d="M214.059 93.9849C213.876 92.7243 213.344 91.5391 212.522 90.5619C212.023 89.7251 211.399 88.9682 210.671 88.3168C210.297 87.9962 209.854 87.7636 209.377 87.6362C208.899 87.5088 208.399 87.4898 207.914 87.5806C207.492 87.6964 207.1 87.9009 206.765 88.1803C206.43 88.4598 206.158 88.8075 205.97 89.2001C205.595 89.9885 205.399 90.8493 205.396 91.7213C205.368 93.6277 205.846 95.5077 206.782 97.1717C207.718 98.8357 209.079 100.225 210.727 101.199L210.431 100.904" fill="white"/>
<path d="M210.672 102.119C210.508 102.122 210.347 102.078 210.209 101.99C208.422 100.93 206.946 99.4219 205.929 97.6165C204.913 95.8112 204.391 93.772 204.416 91.703C204.42 90.691 204.648 89.6923 205.082 88.7769C205.331 88.2653 205.688 87.8131 206.129 87.4511C206.57 87.089 207.084 86.8257 207.636 86.679C208.26 86.5562 208.904 86.5752 209.519 86.7345C210.134 86.8939 210.706 87.1894 211.19 87.5991C212.012 88.3059 212.723 89.1309 213.3 90.0467C214.222 91.1623 214.806 92.5153 214.984 93.9482C214.989 94.069 214.97 94.1897 214.928 94.3032C214.886 94.4168 214.822 94.5209 214.74 94.6098C214.657 94.6987 214.558 94.7705 214.447 94.8212C214.337 94.8719 214.217 94.9004 214.096 94.9052C213.852 94.9103 213.615 94.8212 213.436 94.6565C213.256 94.4917 213.148 94.2642 213.133 94.0218C212.961 92.9327 212.487 91.913 211.764 91.0773C211.297 90.3196 210.716 89.637 210.042 89.053C209.778 88.8135 209.462 88.6363 209.12 88.5344C208.777 88.4324 208.415 88.4084 208.062 88.4641C207.773 88.5581 207.505 88.7092 207.276 88.9085C207.047 89.1077 206.861 89.3509 206.729 89.6235C206.418 90.2921 206.26 91.0213 206.266 91.7582C206.252 93.3658 206.629 94.953 207.363 96.3851C208.098 97.8172 209.17 99.0519 210.487 99.9844C210.695 100.019 210.889 100.115 211.042 100.26L211.338 100.555C211.486 100.723 211.568 100.939 211.568 101.162C211.568 101.386 211.486 101.602 211.338 101.77C211.259 101.872 211.158 101.956 211.043 102.016C210.928 102.077 210.801 102.112 210.672 102.119Z" fill="#231F20"/>
<path d="M257.537 184.473H257.371C239.028 181.069 219.075 157.899 218.223 156.868C218.129 156.779 218.054 156.671 218.004 156.552C217.954 156.432 217.93 156.303 217.934 156.173C217.938 156.044 217.969 155.917 218.026 155.8C218.082 155.683 218.163 155.58 218.263 155.496C218.363 155.413 218.479 155.351 218.604 155.315C218.73 155.28 218.861 155.271 218.99 155.289C219.119 155.307 219.243 155.353 219.353 155.422C219.464 155.491 219.558 155.583 219.63 155.691C219.834 155.912 239.99 179.357 257.704 182.614C257.949 182.636 258.176 182.754 258.334 182.943C258.492 183.131 258.568 183.373 258.546 183.617C258.524 183.861 258.405 184.087 258.216 184.244C258.027 184.401 257.783 184.477 257.537 184.455V184.473Z" fill="#231F20"/>
<path d="M216.632 109.02L207.877 106.866C208.888 109.053 210.683 110.785 212.911 111.725C216.335 113.4 217.927 112.847 217.927 112.847L216.632 109.02Z" fill="#231F20"/>
<path d="M217.243 113.841C215.119 113.665 213.073 112.961 211.294 111.794C209.515 110.627 208.06 109.034 207.062 107.161C207.006 107.004 206.995 106.835 207.031 106.672C207.067 106.509 207.148 106.36 207.266 106.241C207.378 106.118 207.522 106.027 207.681 105.979C207.841 105.93 208.011 105.925 208.173 105.965L216.928 108.118C217.079 108.154 217.219 108.227 217.335 108.329C217.452 108.432 217.541 108.562 217.594 108.707L218.89 112.535C218.967 112.764 218.95 113.014 218.842 113.231C218.735 113.448 218.546 113.615 218.316 113.694C217.97 113.805 217.606 113.855 217.243 113.841ZM209.839 108.32C210.819 109.387 212.001 110.25 213.319 110.86C214.362 111.416 215.496 111.784 216.669 111.946L215.928 109.756L209.839 108.32Z" fill="#231F20"/>
<path d="M171.894 448.999C171.774 448.994 171.655 448.966 171.546 448.915C171.436 448.864 171.338 448.792 171.257 448.703C171.176 448.613 171.113 448.509 171.074 448.396C171.034 448.282 171.017 448.162 171.024 448.042L172.561 416.315C172.575 416.074 172.684 415.849 172.864 415.687C173.044 415.525 173.281 415.44 173.523 415.45C173.644 415.455 173.763 415.483 173.872 415.534C173.982 415.585 174.08 415.657 174.161 415.746C174.242 415.836 174.304 415.94 174.344 416.053C174.384 416.167 174.401 416.287 174.393 416.407L172.82 448.134C172.81 448.37 172.708 448.593 172.535 448.754C172.362 448.916 172.132 449.004 171.894 448.999Z" fill="#231F20"/>
<path d="M405.02 145.072C404.825 145.074 404.633 145.015 404.474 144.903C404.314 144.79 404.194 144.63 404.132 144.446L401.429 136.11C401.392 135.996 401.378 135.876 401.387 135.757C401.397 135.638 401.43 135.522 401.486 135.416C401.541 135.31 401.616 135.216 401.708 135.139C401.8 135.062 401.907 135.004 402.022 134.969C402.255 134.893 402.509 134.913 402.727 135.023C402.946 135.134 403.112 135.326 403.188 135.557L405.89 143.876C405.966 144.107 405.946 144.36 405.835 144.577C405.724 144.795 405.531 144.959 405.298 145.035C405.209 145.065 405.114 145.078 405.02 145.072Z" fill="#231F20"/>
</svg>
