<svg width="154" height="130" viewBox="0 0 154 130" fill="none" xmlns="http://www.w3.org/2000/svg">
<path d="M1.27543 53.9031H0.41041C0.333937 53.9031 0.260597 53.8727 0.206523 53.8185C0.152449 53.7643 0.12207 53.6909 0.12207 53.6143C0.123547 53.5382 0.154402 53.4656 0.208159 53.4117C0.261917 53.3579 0.334399 53.327 0.41041 53.3255H1.27543C1.3519 53.3255 1.42524 53.3559 1.47931 53.4101C1.53339 53.4642 1.56377 53.5377 1.56377 53.6143C1.56377 53.6909 1.53339 53.7643 1.47931 53.8185C1.42524 53.8727 1.3519 53.9031 1.27543 53.9031Z" fill="#D1D3D4"/>
<path d="M127.712 53.9031H125.982C125.906 53.9031 125.832 53.8727 125.778 53.8185C125.724 53.7643 125.694 53.6909 125.694 53.6143C125.695 53.5382 125.726 53.4656 125.78 53.4117C125.834 53.3579 125.906 53.327 125.982 53.3255H127.712C127.788 53.327 127.861 53.3579 127.915 53.4117C127.968 53.4656 127.999 53.5382 128.001 53.6143C128.001 53.6909 127.97 53.7643 127.916 53.8185C127.862 53.8727 127.789 53.9031 127.712 53.9031ZM124.293 53.9031H122.563C122.486 53.9031 122.413 53.8727 122.359 53.8185C122.305 53.7643 122.274 53.6909 122.274 53.6143C122.274 53.5377 122.305 53.4642 122.359 53.4101C122.413 53.3559 122.486 53.3255 122.563 53.3255H124.293C124.369 53.3255 124.442 53.3559 124.496 53.4101C124.551 53.4642 124.581 53.5377 124.581 53.6143C124.581 53.6909 124.551 53.7643 124.496 53.8185C124.442 53.8727 124.369 53.9031 124.293 53.9031ZM120.879 53.9031H119.149C119.072 53.9031 118.999 53.8727 118.945 53.8185C118.891 53.7643 118.86 53.6909 118.86 53.6143C118.862 53.5382 118.893 53.4656 118.946 53.4117C119 53.3579 119.073 53.327 119.149 53.3255H120.879C120.955 53.327 121.027 53.3579 121.081 53.4117C121.135 53.4656 121.165 53.5382 121.167 53.6143C121.167 53.6909 121.137 53.7643 121.083 53.8185C121.028 53.8727 120.955 53.9031 120.879 53.9031ZM117.459 53.9031H115.729C115.652 53.9031 115.579 53.8727 115.525 53.8185C115.471 53.7643 115.441 53.6909 115.441 53.6143C115.441 53.5377 115.471 53.4642 115.525 53.4101C115.579 53.3559 115.652 53.3255 115.729 53.3255H117.459C117.535 53.3255 117.609 53.3559 117.663 53.4101C117.717 53.4642 117.747 53.5377 117.747 53.6143C117.747 53.6909 117.717 53.7643 117.663 53.8185C117.609 53.8727 117.535 53.9031 117.459 53.9031ZM114.039 53.9031H112.309C112.233 53.9031 112.159 53.8727 112.105 53.8185C112.051 53.7643 112.021 53.6909 112.021 53.6143C112.022 53.5382 112.053 53.4656 112.107 53.4117C112.161 53.3579 112.233 53.327 112.309 53.3255H114.039C114.116 53.3255 114.189 53.3559 114.243 53.4101C114.297 53.4642 114.328 53.5377 114.328 53.6143C114.328 53.6909 114.297 53.7643 114.243 53.8185C114.189 53.8727 114.116 53.9031 114.039 53.9031ZM110.625 53.9031H108.895C108.819 53.9031 108.745 53.8727 108.691 53.8185C108.637 53.7643 108.607 53.6909 108.607 53.6143C108.607 53.5377 108.637 53.4642 108.691 53.4101C108.745 53.3559 108.819 53.3255 108.895 53.3255H110.625C110.702 53.3255 110.775 53.3559 110.829 53.4101C110.883 53.4642 110.914 53.5377 110.914 53.6143C110.914 53.6909 110.883 53.7643 110.829 53.8185C110.775 53.8727 110.702 53.9031 110.625 53.9031ZM107.206 53.9031H105.476C105.399 53.9031 105.326 53.8727 105.272 53.8185C105.218 53.7643 105.187 53.6909 105.187 53.6143C105.187 53.5377 105.218 53.4642 105.272 53.4101C105.326 53.3559 105.399 53.3255 105.476 53.3255H107.206C107.282 53.3255 107.355 53.3559 107.409 53.4101C107.464 53.4642 107.494 53.5377 107.494 53.6143C107.494 53.6871 107.467 53.7572 107.418 53.8108C107.369 53.8643 107.301 53.8973 107.229 53.9031H107.206ZM103.792 53.9031H102.062C101.985 53.9031 101.912 53.8727 101.858 53.8185C101.804 53.7643 101.773 53.6909 101.773 53.6143C101.773 53.5377 101.804 53.4642 101.858 53.4101C101.912 53.3559 101.985 53.3255 102.062 53.3255H103.792C103.868 53.327 103.94 53.3579 103.994 53.4117C104.048 53.4656 104.079 53.5382 104.08 53.6143C104.08 53.6542 104.072 53.6938 104.056 53.7304C104.04 53.7671 104.017 53.8 103.988 53.8271C103.958 53.8543 103.924 53.875 103.886 53.8881C103.848 53.9012 103.808 53.9063 103.769 53.9031H103.792ZM100.372 53.9031H98.6419C98.5655 53.9031 98.4921 53.8727 98.438 53.8185C98.384 53.7643 98.3536 53.6909 98.3536 53.6143C98.3536 53.5377 98.384 53.4642 98.438 53.4101C98.4921 53.3559 98.5655 53.3255 98.6419 53.3255H100.372C100.448 53.3255 100.522 53.3559 100.576 53.4101C100.63 53.4642 100.66 53.5377 100.66 53.6143C100.66 53.6909 100.63 53.7643 100.576 53.8185C100.522 53.8727 100.448 53.9031 100.372 53.9031ZM96.958 53.9031H95.228C95.1515 53.9031 95.0782 53.8727 95.0241 53.8185C94.97 53.7643 94.9397 53.6909 94.9397 53.6143C94.9411 53.5382 94.972 53.4656 95.0257 53.4117C95.0795 53.3579 95.152 53.327 95.228 53.3255H96.958C97.034 53.327 97.1065 53.3579 97.1603 53.4117C97.2141 53.4656 97.2449 53.5382 97.2464 53.6143C97.2464 53.6909 97.216 53.7643 97.1619 53.8185C97.1078 53.8727 97.0345 53.9031 96.958 53.9031ZM93.5383 53.9031H91.8083C91.7318 53.9031 91.6585 53.8727 91.6044 53.8185C91.5503 53.7643 91.52 53.6909 91.52 53.6143C91.52 53.5377 91.5503 53.4642 91.6044 53.4101C91.6585 53.3559 91.7318 53.3255 91.8083 53.3255H93.5383C93.6148 53.3255 93.6882 53.3559 93.7422 53.4101C93.7963 53.4642 93.8267 53.5377 93.8267 53.6143C93.8267 53.6909 93.7963 53.7643 93.7422 53.8185C93.6882 53.8727 93.6148 53.9031 93.5383 53.9031ZM90.1244 53.9031H88.3944C88.3179 53.9031 88.2446 53.8727 88.1905 53.8185C88.1364 53.7643 88.106 53.6909 88.106 53.6143C88.1075 53.5382 88.1384 53.4656 88.1921 53.4117C88.2459 53.3579 88.3184 53.327 88.3944 53.3255H90.1244C90.2004 53.327 90.2729 53.3579 90.3267 53.4117C90.3804 53.4656 90.4113 53.5382 90.4127 53.6143C90.4127 53.6909 90.3824 53.7643 90.3283 53.8185C90.2742 53.8727 90.2009 53.9031 90.1244 53.9031ZM86.7047 53.9031H84.9747C84.8982 53.9031 84.8249 53.8727 84.7708 53.8185C84.7167 53.7643 84.6863 53.6909 84.6863 53.6143C84.6863 53.5377 84.7167 53.4642 84.7708 53.4101C84.8249 53.3559 84.8982 53.3255 84.9747 53.3255H86.7047C86.7812 53.3255 86.8545 53.3559 86.9086 53.4101C86.9627 53.4642 86.993 53.5377 86.993 53.6143C86.993 53.6909 86.9627 53.7643 86.9086 53.8185C86.8545 53.8727 86.7812 53.9031 86.7047 53.9031ZM83.285 53.9031H81.555C81.4785 53.9031 81.4052 53.8727 81.3511 53.8185C81.297 53.7643 81.2666 53.6909 81.2666 53.6143C81.2681 53.5382 81.299 53.4656 81.3527 53.4117C81.4065 53.3579 81.479 53.327 81.555 53.3255H83.285C83.3615 53.3255 83.4348 53.3559 83.4889 53.4101C83.543 53.4642 83.5733 53.5377 83.5733 53.6143C83.5733 53.6909 83.543 53.7643 83.4889 53.8185C83.4348 53.8727 83.3615 53.9031 83.285 53.9031ZM79.8711 53.9031H78.141C78.0646 53.9031 77.9912 53.8727 77.9372 53.8185C77.8831 53.7643 77.8527 53.6909 77.8527 53.6143C77.8527 53.5377 77.8831 53.4642 77.9372 53.4101C77.9912 53.3559 78.0646 53.3255 78.141 53.3255H79.8711C79.9475 53.3255 80.0209 53.3559 80.075 53.4101C80.129 53.4642 80.1594 53.5377 80.1594 53.6143C80.1594 53.6909 80.129 53.7643 80.075 53.8185C80.0209 53.8727 79.9475 53.9031 79.8711 53.9031ZM76.4514 53.9031H74.7214C74.6449 53.9031 74.5715 53.8727 74.5175 53.8185C74.4634 53.7643 74.433 53.6909 74.433 53.6143C74.433 53.5377 74.4634 53.4642 74.5175 53.4101C74.5715 53.3559 74.6449 53.3255 74.7214 53.3255H76.4514C76.5279 53.3255 76.6012 53.3559 76.6553 53.4101C76.7093 53.4642 76.7397 53.5377 76.7397 53.6143C76.7397 53.6909 76.7093 53.7643 76.6553 53.8185C76.6012 53.8727 76.5279 53.9031 76.4514 53.9031ZM73.0375 53.9031H71.3074C71.2309 53.9031 71.1576 53.8727 71.1035 53.8185C71.0495 53.7643 71.0191 53.6909 71.0191 53.6143C71.0191 53.5377 71.0495 53.4642 71.1035 53.4101C71.1576 53.3559 71.2309 53.3255 71.3074 53.3255H73.0375C73.1135 53.327 73.1859 53.3579 73.2397 53.4117C73.2935 53.4656 73.3243 53.5382 73.3258 53.6143C73.3258 53.6909 73.2954 53.7643 73.2413 53.8185C73.1873 53.8727 73.1139 53.9031 73.0375 53.9031ZM69.6177 53.9031H67.8877C67.8112 53.9031 67.7379 53.8727 67.6838 53.8185C67.6298 53.7643 67.5994 53.6909 67.5994 53.6143C67.5994 53.5377 67.6298 53.4642 67.6838 53.4101C67.7379 53.3559 67.8112 53.3255 67.8877 53.3255H69.6177C69.6942 53.3255 69.7676 53.3559 69.8216 53.4101C69.8757 53.4642 69.9061 53.5377 69.9061 53.6143C69.9061 53.6909 69.8757 53.7643 69.8216 53.8185C69.7676 53.8727 69.6942 53.9031 69.6177 53.9031ZM66.2038 53.9031H64.4738C64.3973 53.9031 64.324 53.8727 64.2699 53.8185C64.2158 53.7643 64.1854 53.6909 64.1854 53.6143C64.1869 53.5382 64.2178 53.4656 64.2715 53.4117C64.3253 53.3579 64.3978 53.327 64.4738 53.3255H66.2038C66.2798 53.327 66.3523 53.3579 66.4061 53.4117C66.4598 53.4656 66.4907 53.5382 66.4922 53.6143C66.4922 53.6909 66.4618 53.7643 66.4077 53.8185C66.3536 53.8727 66.2803 53.9031 66.2038 53.9031ZM62.7841 53.9031H61.0541C60.9776 53.9031 60.9043 53.8727 60.8502 53.8185C60.7961 53.7643 60.7657 53.6909 60.7657 53.6143C60.7657 53.5377 60.7961 53.4642 60.8502 53.4101C60.9043 53.3559 60.9776 53.3255 61.0541 53.3255H62.7841C62.8606 53.3255 62.9339 53.3559 62.988 53.4101C63.0421 53.4642 63.0725 53.5377 63.0725 53.6143C63.0725 53.6909 63.0421 53.7643 62.988 53.8185C62.9339 53.8727 62.8606 53.9031 62.7841 53.9031ZM59.3702 53.9031H57.6402C57.5637 53.9031 57.4903 53.8727 57.4363 53.8185C57.3822 53.7643 57.3518 53.6909 57.3518 53.6143C57.3533 53.5382 57.3841 53.4656 57.4379 53.4117C57.4917 53.3579 57.5641 53.327 57.6402 53.3255H59.3702C59.4462 53.327 59.5187 53.3579 59.5724 53.4117C59.6262 53.4656 59.657 53.5382 59.6585 53.6143C59.6585 53.6527 59.6509 53.6907 59.636 53.7262C59.6212 53.7616 59.5994 53.7937 59.572 53.8206C59.5447 53.8475 59.5122 53.8686 59.4765 53.8828C59.4409 53.897 59.4028 53.9039 59.3644 53.9031H59.3702ZM55.9505 53.9031H54.2205C54.144 53.9031 54.0706 53.8727 54.0166 53.8185C53.9625 53.7643 53.9321 53.6909 53.9321 53.6143C53.9321 53.5377 53.9625 53.4642 54.0166 53.4101C54.0706 53.3559 54.144 53.3255 54.2205 53.3255H55.9505C56.027 53.3255 56.1003 53.3559 56.1544 53.4101C56.2084 53.4642 56.2388 53.5377 56.2388 53.6143C56.2388 53.6909 56.2084 53.7643 56.1544 53.8185C56.1003 53.8727 56.027 53.9031 55.9505 53.9031ZM52.5308 53.9031H50.8008C50.7243 53.9031 50.6509 53.8727 50.5969 53.8185C50.5428 53.7643 50.5124 53.6909 50.5124 53.6143C50.5139 53.5382 50.5448 53.4656 50.5985 53.4117C50.6523 53.3579 50.7247 53.327 50.8008 53.3255H52.5308C52.6073 53.3255 52.6806 53.3559 52.7347 53.4101C52.7887 53.4642 52.8191 53.5377 52.8191 53.6143C52.8191 53.6909 52.7887 53.7643 52.7347 53.8185C52.6806 53.8727 52.6073 53.9031 52.5308 53.9031ZM49.1169 53.9031H47.3868C47.3103 53.9031 47.237 53.8727 47.1829 53.8185C47.1289 53.7643 47.0985 53.6909 47.0985 53.6143C47.0985 53.5377 47.1289 53.4642 47.1829 53.4101C47.237 53.3559 47.3103 53.3255 47.3868 53.3255H49.1169C49.1933 53.3255 49.2667 53.3559 49.3207 53.4101C49.3748 53.4642 49.4052 53.5377 49.4052 53.6143C49.4052 53.6909 49.3748 53.7643 49.3207 53.8185C49.2667 53.8727 49.1933 53.9031 49.1169 53.9031ZM45.6972 53.9031H43.9671C43.8907 53.9031 43.8173 53.8727 43.7632 53.8185C43.7092 53.7643 43.6788 53.6909 43.6788 53.6143C43.6788 53.5377 43.7092 53.4642 43.7632 53.4101C43.8173 53.3559 43.8907 53.3255 43.9671 53.3255H45.6972C45.7736 53.3255 45.847 53.3559 45.901 53.4101C45.9551 53.4642 45.9855 53.5377 45.9855 53.6143C45.9855 53.6909 45.9551 53.7643 45.901 53.8185C45.847 53.8727 45.7736 53.9031 45.6972 53.9031ZM42.2832 53.9031H40.5532C40.4767 53.9031 40.4034 53.8727 40.3493 53.8185C40.2952 53.7643 40.2649 53.6909 40.2649 53.6143C40.2649 53.5377 40.2952 53.4642 40.3493 53.4101C40.4034 53.3559 40.4767 53.3255 40.5532 53.3255H42.2832C42.3592 53.327 42.4317 53.3579 42.4855 53.4117C42.5392 53.4656 42.5701 53.5382 42.5716 53.6143C42.5716 53.6909 42.5412 53.7643 42.4871 53.8185C42.433 53.8727 42.3597 53.9031 42.2832 53.9031ZM38.8635 53.9031H37.1335C37.057 53.9031 36.9837 53.8727 36.9296 53.8185C36.8755 53.7643 36.8452 53.6909 36.8452 53.6143C36.8452 53.5377 36.8755 53.4642 36.9296 53.4101C36.9837 53.3559 37.057 53.3255 37.1335 53.3255H38.8635C38.94 53.3255 39.0133 53.3559 39.0674 53.4101C39.1215 53.4642 39.1519 53.5377 39.1519 53.6143C39.1519 53.6909 39.1215 53.7643 39.0674 53.8185C39.0133 53.8727 38.94 53.9031 38.8635 53.9031ZM35.4496 53.9031H33.7196C33.6431 53.9031 33.5697 53.8727 33.5157 53.8185C33.4616 53.7643 33.4312 53.6909 33.4312 53.6143C33.4327 53.5382 33.4636 53.4656 33.5173 53.4117C33.5711 53.3579 33.6436 53.327 33.7196 53.3255H35.4496C35.5256 53.327 35.5981 53.3579 35.6519 53.4117C35.7056 53.4656 35.7365 53.5382 35.7379 53.6143C35.7379 53.6909 35.7076 53.7643 35.6535 53.8185C35.5994 53.8727 35.5261 53.9031 35.4496 53.9031ZM32.0299 53.9031H30.2999C30.2234 53.9031 30.1501 53.8727 30.096 53.8185C30.0419 53.7643 30.0115 53.6909 30.0115 53.6143C30.0115 53.5377 30.0419 53.4642 30.096 53.4101C30.1501 53.3559 30.2234 53.3255 30.2999 53.3255H32.0299C32.1064 53.3255 32.1797 53.3559 32.2338 53.4101C32.2879 53.4642 32.3182 53.5377 32.3182 53.6143C32.3182 53.6909 32.2879 53.7643 32.2338 53.8185C32.1797 53.8727 32.1064 53.9031 32.0299 53.9031ZM28.616 53.9031H26.8859C26.8095 53.9031 26.7361 53.8727 26.682 53.8185C26.628 53.7643 26.5976 53.6909 26.5976 53.6143C26.5991 53.5382 26.6299 53.4656 26.6837 53.4117C26.7374 53.3579 26.8099 53.327 26.8859 53.3255H28.616C28.692 53.327 28.7645 53.3579 28.8182 53.4117C28.872 53.4656 28.9028 53.5382 28.9043 53.6143C28.9043 53.6909 28.8739 53.7643 28.8199 53.8185C28.7658 53.8727 28.6924 53.9031 28.616 53.9031ZM25.1963 53.9031H23.4662C23.3898 53.9031 23.3164 53.8727 23.2623 53.8185C23.2083 53.7643 23.1779 53.6909 23.1779 53.6143C23.1779 53.5377 23.2083 53.4642 23.2623 53.4101C23.3164 53.3559 23.3898 53.3255 23.4662 53.3255H25.1963C25.2727 53.3255 25.3461 53.3559 25.4002 53.4101C25.4542 53.4642 25.4846 53.5377 25.4846 53.6143C25.4846 53.6909 25.4542 53.7643 25.4002 53.8185C25.3461 53.8727 25.2727 53.9031 25.1963 53.9031ZM21.7823 53.9031H20.0523C19.9758 53.9031 19.9025 53.8727 19.8484 53.8185C19.7943 53.7643 19.764 53.6909 19.764 53.6143C19.7654 53.5382 19.7963 53.4656 19.85 53.4117C19.9038 53.3579 19.9763 53.327 20.0523 53.3255H21.7823C21.8583 53.327 21.9308 53.3579 21.9846 53.4117C22.0383 53.4656 22.0692 53.5382 22.0707 53.6143C22.0707 53.6909 22.0403 53.7643 21.9862 53.8185C21.9321 53.8727 21.8588 53.9031 21.7823 53.9031ZM18.3626 53.9031H16.6326C16.5561 53.9031 16.4828 53.8727 16.4287 53.8185C16.3746 53.7643 16.3443 53.6909 16.3443 53.6143C16.3443 53.5377 16.3746 53.4642 16.4287 53.4101C16.4828 53.3559 16.5561 53.3255 16.6326 53.3255H18.3626C18.4391 53.3255 18.5125 53.3559 18.5665 53.4101C18.6206 53.4642 18.651 53.5377 18.651 53.6143C18.651 53.6909 18.6206 53.7643 18.5665 53.8185C18.5125 53.8727 18.4391 53.9031 18.3626 53.9031ZM14.9429 53.9031H13.2302C13.1537 53.9031 13.0804 53.8727 13.0263 53.8185C12.9722 53.7643 12.9419 53.6909 12.9419 53.6143C12.9419 53.5377 12.9722 53.4642 13.0263 53.4101C13.0804 53.3559 13.1537 53.3255 13.2302 53.3255H14.9602C15.0367 53.3255 15.1101 53.3559 15.1641 53.4101C15.2182 53.4642 15.2486 53.5377 15.2486 53.6143C15.2486 53.6909 15.2182 53.7643 15.1641 53.8185C15.1101 53.8727 15.0367 53.9031 14.9602 53.9031H14.9429ZM11.529 53.9031H9.79897C9.7225 53.9031 9.64916 53.8727 9.59509 53.8185C9.54101 53.7643 9.51064 53.6909 9.51064 53.6143C9.51064 53.5377 9.54101 53.4642 9.59509 53.4101C9.64916 53.3559 9.7225 53.3255 9.79897 53.3255H11.529C11.6055 53.3255 11.6788 53.3559 11.7329 53.4101C11.787 53.4642 11.8173 53.5377 11.8173 53.6143C11.8173 53.6909 11.787 53.7643 11.7329 53.8185C11.6788 53.8727 11.6055 53.9031 11.529 53.9031ZM8.10931 53.9031H6.37928C6.3028 53.9031 6.22946 53.8727 6.17539 53.8185C6.12132 53.7643 6.09094 53.6909 6.09094 53.6143C6.09094 53.5377 6.12132 53.4642 6.17539 53.4101C6.22946 53.3559 6.3028 53.3255 6.37928 53.3255H8.10931C8.18578 53.3255 8.25912 53.3559 8.3132 53.4101C8.36727 53.4642 8.39765 53.5377 8.39765 53.6143C8.39765 53.6909 8.36727 53.7643 8.3132 53.8185C8.25912 53.8727 8.18578 53.9031 8.10931 53.9031ZM4.69537 53.9031H2.96534C2.88887 53.9031 2.81553 53.8727 2.76145 53.8185C2.70738 53.7643 2.677 53.6909 2.677 53.6143C2.67848 53.5382 2.70933 53.4656 2.76309 53.4117C2.81685 53.3579 2.88933 53.327 2.96534 53.3255H4.69537C4.77138 53.327 4.84387 53.3579 4.89763 53.4117C4.95139 53.4656 4.98224 53.5382 4.98371 53.6143C4.98371 53.6909 4.95333 53.7643 4.89926 53.8185C4.84519 53.8727 4.77185 53.9031 4.69537 53.9031Z" fill="#D1D3D4"/>
<path d="M130.295 53.9031H129.43C129.354 53.9031 129.281 53.8727 129.227 53.8185C129.172 53.7643 129.142 53.6909 129.142 53.6143C129.142 53.5377 129.172 53.4642 129.227 53.4101C129.281 53.3559 129.354 53.3255 129.43 53.3255H130.295C130.372 53.3255 130.445 53.3559 130.499 53.4101C130.553 53.4642 130.584 53.5377 130.584 53.6143C130.584 53.6909 130.553 53.7643 130.499 53.8185C130.445 53.8727 130.372 53.9031 130.295 53.9031Z" fill="#D1D3D4"/>
<path d="M135.382 7.07777C135.382 7.07777 141.281 5.00998 140.572 4.22446C139.863 3.43893 137.521 4.22446 137.521 4.22446C137.521 4.22446 141.195 1.6715 140.676 0.481655C140.157 -0.708186 133.438 4.52481 133.438 4.52481" fill="white"/>
<path d="M135.382 7.36641C135.305 7.37943 135.227 7.36149 135.163 7.31654C135.1 7.27159 135.057 7.2033 135.044 7.12671C135.031 7.05012 135.049 6.97149 135.094 6.90812C135.139 6.84475 135.207 6.80184 135.284 6.78882C137.59 5.98596 140.122 4.83655 140.347 4.3687C139.909 3.94128 138.461 4.20698 137.637 4.47845C137.57 4.50252 137.498 4.50106 137.433 4.47436C137.368 4.44766 137.315 4.39763 137.285 4.33405C137.254 4.27233 137.247 4.20176 137.264 4.13504C137.281 4.06832 137.321 4.00985 137.377 3.97016C138.773 2.99403 140.693 1.23815 140.387 0.585467C139.943 0.319774 136.823 2.20273 133.588 4.73259C133.527 4.77772 133.451 4.79751 133.376 4.78783C133.301 4.77814 133.232 4.73972 133.185 4.6806C133.138 4.62004 133.117 4.54349 133.127 4.46771C133.137 4.39193 133.176 4.3231 133.236 4.27629C134.217 3.50809 139.176 -0.304026 140.508 0.0194263C140.596 0.0381616 140.678 0.077158 140.748 0.13331C140.818 0.189463 140.875 0.261222 140.912 0.342879C141.345 1.27858 139.909 2.69946 138.79 3.61783C139.534 3.51964 140.387 3.53119 140.808 4.01637C140.865 4.0787 140.904 4.15432 140.923 4.23614C140.942 4.31797 140.941 4.40332 140.918 4.48422C140.664 5.4488 136.685 6.91011 135.474 7.33753C135.445 7.35299 135.414 7.3628 135.382 7.36641Z" fill="#231F20"/>
<path d="M78.2503 32.1799C78.2503 32.1799 74.3577 34.5942 74.2655 34.0917C74.1732 33.5892 75.4188 32.1799 75.4188 32.1799C75.4188 32.1799 70.6958 33.0693 70.1019 32.6246C69.5079 32.1799 70.8977 30.8514 71.9069 30.551C72.916 30.2507 78.7636 28.7778 78.7636 28.7778" fill="white"/>
<path d="M74.3581 34.4439C74.3005 34.4444 74.2435 34.4326 74.1908 34.4092C74.1368 34.3827 74.0898 34.3438 74.0537 34.2956C74.0177 34.2474 73.9935 34.1913 73.9832 34.132C73.9313 33.745 74.3292 33.1154 74.7214 32.6072C73.0663 32.8902 70.4943 33.2541 69.9695 32.8555C69.866 32.7802 69.7872 32.6757 69.743 32.5554C69.6989 32.435 69.6914 32.3043 69.7216 32.1797C69.8542 31.4404 70.996 30.5163 71.8322 30.2795C72.8587 29.9849 78.464 28.5467 78.7004 28.5005C78.7383 28.491 78.7777 28.4891 78.8163 28.4948C78.8549 28.5006 78.892 28.5139 78.9254 28.534C78.9589 28.5541 78.9881 28.5806 79.0113 28.612C79.0346 28.6435 79.0514 28.6791 79.0609 28.7171C79.0703 28.755 79.0722 28.7944 79.0665 28.8331C79.0608 28.8717 79.0475 28.9089 79.0274 28.9424C79.0073 28.9759 78.9808 29.0052 78.9495 29.0284C78.9181 29.0517 78.8825 29.0686 78.8446 29.0781C78.7869 29.0781 73.0086 30.5567 71.9879 30.8513C71.6228 30.9648 71.2838 31.1499 70.9908 31.3958C70.6977 31.6417 70.4564 31.9435 70.2809 32.2837C70.2809 32.3646 70.2809 32.3819 70.2809 32.3934C70.6327 32.6072 73.1932 32.3068 75.3672 31.8967C75.4262 31.8876 75.4866 31.8967 75.5403 31.9228C75.5941 31.9488 75.6386 31.9907 75.668 32.0427C75.6974 32.0947 75.7103 32.1545 75.705 32.214C75.6997 32.2736 75.6764 32.3301 75.6383 32.3761C75.2344 32.8121 74.884 33.295 74.5945 33.8143C75.7925 33.2749 76.949 32.6475 78.0546 31.9371C78.086 31.9163 78.1214 31.9021 78.1586 31.8955C78.1957 31.8889 78.2338 31.8899 78.2705 31.8986C78.3073 31.9072 78.3418 31.9233 78.3721 31.9458C78.4024 31.9684 78.4278 31.9969 78.4467 32.0296C78.4676 32.0615 78.4818 32.0974 78.4885 32.1351C78.4952 32.1727 78.4942 32.2113 78.4856 32.2486C78.477 32.2858 78.4609 32.3209 78.4384 32.3518C78.4158 32.3826 78.3873 32.4086 78.3544 32.4281C75.5633 34.1782 74.6752 34.4439 74.3581 34.4439Z" fill="#231F20"/>
<path d="M0.4104 129.354L41.6544 89.6733L71.0188 92.2725L89.9281 77.7287L77.7313 63.5372L134.672 54.5383L109.985 104.662L99.449 91.7757L71.2322 109.41L41.4352 105.413L0.4104 129.354Z" fill="#FF5C64"/>
<path d="M115.988 37.2107C115.988 37.2107 127.551 46.1865 127.874 48.9763C128.196 51.766 126.259 65.299 126.259 65.299L118.479 66.5871C118.479 66.5871 121.005 51.1134 120.256 50.53C119.506 49.9466 111.144 44.1765 111.144 44.1765C111.144 44.1765 109.028 55.9189 107.684 58.882C106.767 60.9498 99.155 70.0238 99.155 70.0238L92.0964 68.9494C92.0964 68.9494 98.6302 57.4611 99.3856 55.0872C100.141 52.7133 100.66 40.0698 100.66 40.0698L115.988 37.2107Z" fill="#231F20"/>
<path d="M99.1551 70.3126H99.1148L92.0216 69.2498C91.9761 69.2432 91.9328 69.2255 91.8956 69.1983C91.8584 69.1712 91.8284 69.1353 91.8082 69.0939C91.787 69.0518 91.7759 69.0053 91.7759 68.9581C91.7759 68.911 91.787 68.8645 91.8082 68.8224C91.8774 68.7069 98.342 57.3341 99.0744 55.0295C99.8068 52.7249 100.332 40.1969 100.337 40.0756C100.339 40.0099 100.364 39.9468 100.407 39.8973C100.45 39.8478 100.509 39.8148 100.574 39.8041L115.936 36.9046C115.976 36.8968 116.018 36.8974 116.057 36.9064C116.097 36.9153 116.134 36.9324 116.167 36.9566C116.64 37.3262 127.828 46.0421 128.156 48.9185C128.485 51.7949 126.628 64.7619 126.547 65.3164C126.539 65.377 126.512 65.4334 126.469 65.4771C126.427 65.5208 126.371 65.5495 126.311 65.559L118.532 66.847C118.487 66.8531 118.441 66.849 118.398 66.835C118.355 66.821 118.316 66.7975 118.284 66.7662C118.25 66.7352 118.225 66.6961 118.211 66.6526C118.196 66.6091 118.194 66.5627 118.203 66.5178C119.356 59.3672 120.411 51.3964 120.048 50.6917C119.437 50.2239 112.972 45.736 111.352 44.6097C110.948 46.8045 109.16 56.2771 107.967 58.9513C107.027 61.0538 99.6626 69.8158 99.3454 70.1855C99.3243 70.2188 99.2965 70.2473 99.2637 70.2692C99.2309 70.2911 99.1939 70.3059 99.1551 70.3126ZM92.5233 68.73L99.011 69.7177C99.9279 68.626 106.594 60.6379 107.442 58.7434C108.74 55.8554 110.844 44.2169 110.867 44.1014C110.875 44.0538 110.895 44.009 110.926 43.9715C110.956 43.9341 110.996 43.9052 111.04 43.8877C111.082 43.8639 111.128 43.8513 111.176 43.8513C111.224 43.8513 111.27 43.8639 111.311 43.8877C111.652 44.1245 119.691 49.6983 120.44 50.2759C121.19 50.8535 119.789 60.3318 118.831 66.2174L126.011 65.0276C126.253 63.2948 127.879 51.5235 127.585 48.9878C127.337 46.8161 119.177 40.0352 115.913 37.4937L100.92 40.2835C100.845 42.0625 100.343 52.9386 99.6395 55.1623C98.936 57.386 93.6594 66.72 92.5233 68.73Z" fill="#231F20"/>
<path d="M115.988 37.2107L100.631 40.0987L104.449 17.3762C104.449 17.3762 112.176 17.0874 113.555 17.8845C114.933 18.6815 115.988 37.2107 115.988 37.2107Z" fill="white"/>
<path d="M100.631 40.37C100.593 40.3705 100.556 40.363 100.521 40.3481C100.486 40.3332 100.455 40.3111 100.429 40.2834C100.395 40.2512 100.37 40.2111 100.356 40.1667C100.342 40.1223 100.339 40.075 100.348 40.0292L104.166 17.3125C104.178 17.2475 104.211 17.1882 104.26 17.1442C104.309 17.1003 104.371 17.0741 104.437 17.0699C105.239 17.0699 112.286 16.8042 113.699 17.6475C114.05 17.8497 115.29 19.8655 116.276 37.2337C116.28 37.304 116.258 37.3734 116.215 37.4287C116.171 37.484 116.109 37.5215 116.04 37.534L100.683 40.422L100.631 40.37ZM104.697 17.6417L100.983 39.7173L115.688 36.9853C115.169 28.0846 114.183 18.6583 113.381 18.1154C112.372 17.5089 106.98 17.5551 104.697 17.6302V17.6417Z" fill="#231F20"/>
<path d="M107.672 15.4353C107.424 15.5566 107.672 18.9009 107.672 19.2243C107.672 22.0314 107.77 24.9078 107.672 27.6976C107.465 33.2252 103.497 38.6026 100.527 42.9923C100.199 43.621 99.666 44.1184 99.0165 44.4016C98.522 44.5163 98.0058 44.4943 97.5229 44.3381C95.4448 43.8318 93.4972 42.8909 91.808 41.5772C91.5679 41.4203 91.3778 41.1978 91.2601 40.936C91.2231 40.7104 91.2343 40.4794 91.2929 40.2583C91.3516 40.0373 91.4564 39.8313 91.6004 39.6538C94.6649 34.6208 96.9952 29.1748 98.5205 23.4812C99.7315 18.9066 103.716 17.3298 107.672 15.4353Z" fill="#FF5C64"/>
<path d="M117.678 13.3387C117.77 13.3387 118.139 22.9614 118.174 23.3483C118.416 26.2363 117.176 32.5205 115.763 35.0157C115.838 31.8505 114.206 27.7669 112.839 24.9656C112.17 23.6025 112.032 20.6625 111.882 19.155C111.882 19.0106 111.467 15.6895 111.392 15.6895C111.317 15.6895 115.233 12.8708 117.678 13.3387Z" fill="#FF5C64"/>
<path d="M111.225 14.7885L111.836 17.792C111.836 17.792 111.726 19.2475 109.622 19.1898C107.517 19.132 106.928 17.844 106.928 17.844L105.989 12.1951C105.989 12.1951 107.067 11.0746 105.942 7.93824C108.032 8.08405 110.13 7.83922 112.13 7.21625C112.529 8.9466 112.833 10.6974 113.041 12.4608C113.128 14.0376 111.225 14.7885 111.225 14.7885Z" fill="white"/>
<path d="M109.742 19.4786H109.616C107.355 19.4151 106.692 17.9942 106.669 17.9364C106.666 17.9115 106.666 17.8862 106.669 17.8613L105.729 12.2125C105.721 12.1681 105.724 12.1225 105.737 12.0794C105.75 12.0363 105.773 11.9968 105.804 11.9641C105.804 11.9641 106.726 10.8956 105.694 8.00759C105.678 7.96157 105.673 7.91227 105.68 7.86397C105.687 7.81566 105.706 7.76979 105.735 7.73035C105.765 7.69338 105.804 7.66417 105.848 7.64511C105.892 7.62604 105.94 7.61765 105.988 7.6206C108.039 7.76245 110.097 7.52355 112.061 6.91594C112.097 6.89895 112.136 6.89014 112.176 6.89014C112.216 6.89014 112.255 6.89895 112.291 6.91594C112.328 6.93525 112.36 6.96232 112.385 6.99524C112.409 7.02817 112.427 7.06616 112.436 7.10655C112.84 8.85349 113.146 10.6218 113.353 12.4031C113.433 13.8586 112.118 14.6672 111.576 14.9387L112.153 17.7169C112.159 17.7436 112.159 17.7711 112.153 17.7978C112.153 17.7978 111.974 19.4786 109.742 19.4786ZM107.205 17.7458C107.303 17.9306 107.891 18.901 109.633 18.901C111.253 18.953 111.513 18.0057 111.547 17.8036L110.942 14.8463C110.928 14.7791 110.938 14.709 110.971 14.6487C111.004 14.5884 111.057 14.5417 111.121 14.5171C111.121 14.5171 112.851 13.824 112.753 12.4493C112.567 10.8058 112.288 9.17433 111.917 7.56285C110.111 8.08913 108.23 8.31164 106.352 8.2213C107.124 10.6761 106.542 11.8775 106.294 12.2645L107.205 17.7458Z" fill="#231F20"/>
<path d="M106.9 11.8022C106.773 11.5538 106.571 11.3517 106.323 11.2246C106.077 11.1143 105.814 11.046 105.545 11.0224C105.401 10.9876 105.25 10.9876 105.106 11.0224C105.008 11.0572 104.917 11.1123 104.841 11.1842C104.648 11.3372 104.515 11.5542 104.466 11.7964C104.453 11.994 104.486 12.192 104.564 12.374C104.635 12.5772 104.73 12.7711 104.847 12.9516C104.972 13.1306 105.131 13.2829 105.315 13.3993C105.499 13.5157 105.705 13.594 105.92 13.6296C106.135 13.6651 106.355 13.6571 106.567 13.6062C106.779 13.5552 106.978 13.4623 107.154 13.3328" fill="white"/>
<path d="M106.156 13.9163C106.054 13.9222 105.952 13.9222 105.85 13.9163C105.347 13.8272 104.898 13.5455 104.599 13.1308C104.466 12.9292 104.36 12.7119 104.282 12.4839C104.185 12.2582 104.148 12.0118 104.172 11.7676C104.229 11.4568 104.395 11.1764 104.639 10.9763C104.747 10.8835 104.87 10.8093 105.002 10.7569C105.192 10.7123 105.389 10.7123 105.579 10.7569C105.881 10.7814 106.176 10.8596 106.45 10.9879C106.764 11.1494 107.017 11.4089 107.171 11.7272C107.197 11.7952 107.197 11.8707 107.171 11.9387C107.144 12.0066 107.092 12.0619 107.027 12.0934C106.961 12.1249 106.886 12.1302 106.816 12.1083C106.746 12.0865 106.688 12.0391 106.652 11.9756C106.553 11.7718 106.391 11.6056 106.19 11.502C105.973 11.4072 105.741 11.3487 105.504 11.3287C105.404 11.3055 105.299 11.3055 105.198 11.3287C105.137 11.3559 105.081 11.393 105.031 11.4384C104.891 11.5457 104.793 11.6991 104.754 11.8716C104.746 12.0223 104.774 12.1728 104.835 12.3106C104.896 12.49 104.979 12.6609 105.083 12.8189C105.286 13.1188 105.599 13.3264 105.954 13.3965C106.128 13.4246 106.305 13.4182 106.476 13.3776C106.647 13.3369 106.809 13.2629 106.952 13.1596C107.014 13.1158 107.091 13.0979 107.166 13.1097C107.242 13.1216 107.309 13.1623 107.355 13.2232C107.378 13.2536 107.395 13.2884 107.405 13.3255C107.414 13.3625 107.416 13.4011 107.41 13.4389C107.404 13.4767 107.39 13.5129 107.37 13.5453C107.35 13.5777 107.323 13.6057 107.292 13.6275C106.953 13.8407 106.555 13.9417 106.156 13.9163Z" fill="#231F20"/>
<path d="M110.031 9.85596C110.031 9.85596 111.455 11.1498 111.265 11.4905C111.075 11.8313 110.348 11.8198 110.348 11.8198" fill="white"/>
<path d="M110.371 12.0969C110.295 12.0969 110.221 12.0665 110.167 12.0123C110.113 11.9582 110.083 11.8847 110.083 11.8081C110.084 11.731 110.116 11.6575 110.171 11.6035C110.226 11.5495 110.3 11.5193 110.377 11.5193C110.594 11.5282 110.809 11.4783 111 11.3749C110.683 10.8846 110.294 10.4446 109.847 10.0696C109.82 10.0427 109.798 10.0108 109.783 9.97558C109.769 9.94039 109.761 9.90264 109.761 9.86452C109.761 9.82639 109.769 9.78864 109.783 9.75345C109.798 9.71826 109.82 9.68632 109.847 9.65947C109.873 9.63258 109.904 9.61121 109.939 9.59662C109.974 9.58204 110.011 9.57452 110.048 9.57452C110.086 9.57452 110.123 9.58204 110.158 9.59662C110.192 9.61121 110.224 9.63258 110.25 9.65947C111.848 11.1035 111.64 11.4904 111.559 11.6348C111.265 12.068 110.544 12.0969 110.371 12.0969Z" fill="#231F20"/>
<path d="M111.225 14.7884C110.442 14.9439 109.637 14.9439 108.854 14.7884C109.14 15.2774 109.532 15.6956 110.001 16.0117C110.47 16.3277 111.005 16.5335 111.565 16.6136L111.225 14.7884Z" fill="#231F20"/>
<path d="M111.565 16.8909C110.957 16.8072 110.376 16.5858 109.867 16.2435C109.357 15.9012 108.932 15.447 108.624 14.9155C108.596 14.864 108.584 14.8051 108.59 14.7467C108.596 14.6883 108.62 14.6331 108.658 14.5885C108.696 14.5439 108.747 14.5121 108.804 14.4973C108.861 14.4824 108.921 14.4853 108.976 14.5054C109.708 14.6533 110.463 14.6533 111.196 14.5054C111.233 14.498 111.271 14.498 111.308 14.5057C111.346 14.5133 111.381 14.5284 111.412 14.5499C111.443 14.5715 111.47 14.5991 111.49 14.6312C111.51 14.6632 111.524 14.699 111.53 14.7365L111.871 16.5501C111.877 16.5915 111.875 16.6339 111.864 16.6743C111.853 16.7148 111.833 16.7524 111.806 16.7846C111.78 16.8169 111.746 16.8431 111.709 16.8614C111.671 16.8797 111.63 16.8898 111.588 16.8909H111.565ZM109.512 15.1581C109.955 15.6789 110.547 16.0517 111.207 16.2267L110.994 15.0715C110.512 15.1548 110.024 15.1935 109.535 15.187L109.512 15.1581Z" fill="#231F20"/>
<path d="M103.867 10.9129C103.809 10.9138 103.752 10.8965 103.704 10.8633C103.657 10.8301 103.621 10.7828 103.601 10.7281C103.338 10.0495 103.271 9.31032 103.407 8.59525C103.544 7.88018 103.879 7.21813 104.374 6.68493L104.42 6.63295C104.492 6.57025 104.552 6.49607 104.599 6.41346C104.629 6.34733 104.651 6.27738 104.662 6.20553V6.13044C104.8 5.66334 105.035 5.23056 105.351 4.86034C105.667 4.49012 106.057 4.19076 106.496 3.9818C107.322 3.58908 108.214 3.35589 109.126 3.29446C109.84 3.19688 110.565 3.2341 111.265 3.4042C111.645 3.49284 111.998 3.66831 112.298 3.91684C112.599 4.16538 112.837 4.48021 112.995 4.83663C113.153 5.22178 113.167 5.65085 113.034 6.04539C112.902 6.43992 112.632 6.77355 112.274 6.98528C112.206 7.01975 112.126 7.02542 112.053 7.00105C111.98 6.97668 111.92 6.92425 111.885 6.85532C111.851 6.78639 111.845 6.70658 111.869 6.63347C111.894 6.56035 111.946 6.49991 112.015 6.46545C112.244 6.31908 112.415 6.09621 112.496 5.83621C112.577 5.57622 112.564 5.29582 112.459 5.04457C112.332 4.77395 112.145 4.53597 111.912 4.34878C111.679 4.1616 111.407 4.03015 111.115 3.96447C110.481 3.82424 109.825 3.80464 109.184 3.90671C108.343 3.9673 107.521 4.17859 106.756 4.53051C106.397 4.69897 106.076 4.93979 105.814 5.23794C105.552 5.53608 105.354 5.88514 105.233 6.26329V6.32682C105.211 6.44263 105.174 6.55517 105.124 6.66183C105.05 6.79647 104.957 6.91917 104.847 7.02571L104.807 7.06614C104.387 7.52582 104.103 8.09313 103.985 8.70495C103.868 9.31678 103.923 9.94914 104.143 10.5317C104.158 10.5665 104.166 10.604 104.166 10.6419C104.167 10.6798 104.159 10.7174 104.145 10.7524C104.13 10.7875 104.109 10.8192 104.082 10.8458C104.055 10.8723 104.023 10.8932 103.988 10.9071C103.948 10.915 103.907 10.9169 103.867 10.9129Z" fill="#231F20"/>
<path d="M107.805 9.65358C107.856 9.53861 107.937 9.43902 108.038 9.36453C108.14 9.29005 108.259 9.24324 108.384 9.22869C108.509 9.21413 108.636 9.23233 108.751 9.2815C108.867 9.33067 108.968 9.40912 109.045 9.50919" fill="white"/>
<path d="M107.805 9.94239C107.764 9.95315 107.72 9.95315 107.678 9.94239C107.644 9.92585 107.614 9.90257 107.589 9.87397C107.564 9.84536 107.545 9.812 107.533 9.77588C107.521 9.73976 107.517 9.70163 107.52 9.66375C107.523 9.62587 107.534 9.58902 107.552 9.55541C107.62 9.39801 107.728 9.2609 107.864 9.15729C108.001 9.05367 108.162 8.98705 108.331 8.96383C108.501 8.94062 108.674 8.9616 108.833 9.02474C108.993 9.08789 109.133 9.19108 109.241 9.32437C109.293 9.37693 109.322 9.44721 109.324 9.52083C109.325 9.59446 109.298 9.66586 109.249 9.72044C109.2 9.77503 109.131 9.80868 109.058 9.8145C108.985 9.82033 108.912 9.79789 108.855 9.75179C108.728 9.64205 108.543 9.5092 108.388 9.54385C108.25 9.59028 108.134 9.68725 108.065 9.81532C108.036 9.85749 107.998 9.89144 107.952 9.91375C107.906 9.93606 107.856 9.94594 107.805 9.94239Z" fill="#231F20"/>
<path d="M110.717 9.54404C110.717 9.54404 110.936 8.45239 111.813 9.1455L110.717 9.54404Z" fill="white"/>
<path d="M110.717 9.83269H110.688C110.652 9.82578 110.616 9.81159 110.585 9.79094C110.554 9.77029 110.527 9.74359 110.506 9.71241C110.485 9.68122 110.47 9.64618 110.463 9.60931C110.456 9.57244 110.456 9.5345 110.464 9.49768C110.495 9.32367 110.566 9.15922 110.671 9.01702C110.776 8.87482 110.912 8.75867 111.069 8.6775C111.235 8.62947 111.411 8.62718 111.579 8.67089C111.746 8.71459 111.899 8.80267 112.021 8.92587C112.051 8.94899 112.076 8.97793 112.094 9.01098C112.113 9.04403 112.125 9.0805 112.129 9.11822C112.134 9.15595 112.13 9.19415 112.119 9.23057C112.109 9.26698 112.091 9.30086 112.067 9.33018C112.019 9.38968 111.95 9.42794 111.874 9.43659C111.799 9.44525 111.723 9.42361 111.663 9.37639C111.496 9.24354 111.352 9.18578 111.271 9.21466C111.19 9.24354 111.057 9.47458 111.029 9.60743C111.013 9.67673 110.973 9.73801 110.916 9.77956C110.858 9.8211 110.788 9.84002 110.717 9.83269Z" fill="#231F20"/>
<path d="M112.176 11.8081C112.176 11.8081 110.152 15.0946 108.514 12.0276L112.176 11.8081Z" fill="white"/>
<path d="M110.112 13.6275H110.066C109.368 13.6275 108.762 13.1134 108.255 12.1661C108.219 12.0985 108.212 12.0197 108.233 11.9464C108.255 11.8731 108.304 11.8111 108.37 11.7734C108.404 11.7553 108.441 11.7441 108.479 11.7404C108.517 11.7367 108.555 11.7406 108.591 11.7519C108.628 11.7632 108.662 11.7816 108.691 11.8061C108.72 11.8307 108.745 11.8607 108.762 11.8947C109.166 12.6455 109.61 13.0499 110.083 13.0499H110.112C110.896 13.0499 111.686 12.0506 111.928 11.6579C111.948 11.6258 111.973 11.5979 112.004 11.5758C112.034 11.5538 112.068 11.538 112.105 11.5294C112.141 11.5208 112.179 11.5195 112.216 11.5257C112.253 11.5319 112.289 11.5454 112.32 11.5654C112.353 11.585 112.382 11.6109 112.404 11.6416C112.427 11.6723 112.443 11.7072 112.452 11.7442C112.461 11.7813 112.463 11.8198 112.457 11.8575C112.451 11.8952 112.438 11.9314 112.418 11.964C112.378 12.0333 111.38 13.6275 110.112 13.6275Z" fill="#231F20"/>
<path d="M104.449 17.3473L77.293 28.6335V32.925L100.631 27.8191L104.449 17.3473Z" fill="#FF5C64"/>
<path d="M110.21 19.6981L109.056 20.8532L110.002 21.5059C110.002 21.5059 108.993 28.9107 105.498 29.9734C102.004 31.0362 100.637 30.6666 100.637 30.6666L98.7051 33.1733C98.7051 33.1733 101.71 34.0339 101.923 34.1032C102.136 34.1725 108.497 32.6939 109.5 28.7432C110.091 26.4172 110.477 24.0439 110.654 21.6503L111.288 20.8532L110.21 19.6981Z" fill="#231F20"/>
<path d="M106.329 27.3337C106.284 27.3341 106.24 27.3239 106.2 27.3038C106.159 27.2837 106.125 27.2544 106.098 27.2182L103.14 23.175C103.096 23.1236 103.071 23.058 103.071 22.9902C103.071 22.9223 103.096 22.8567 103.14 22.8054L104.824 21.0726L102.736 20.5296C102.688 20.5159 102.644 20.4901 102.609 20.4547C102.574 20.4194 102.548 20.3756 102.534 20.3275C102.52 20.2797 102.518 20.2291 102.53 20.1805C102.541 20.1319 102.564 20.087 102.598 20.0502L105.308 17.1623C105.335 17.1352 105.367 17.1137 105.402 17.0991C105.437 17.0844 105.475 17.0768 105.513 17.0768C105.551 17.0768 105.589 17.0844 105.624 17.0991C105.659 17.1137 105.691 17.1352 105.717 17.1623C105.744 17.1886 105.766 17.2201 105.78 17.2548C105.795 17.2895 105.802 17.3268 105.802 17.3644C105.802 17.4021 105.795 17.4394 105.78 17.4741C105.766 17.5088 105.744 17.5402 105.717 17.5666L103.342 20.1195L105.435 20.6683C105.483 20.6813 105.528 20.7068 105.563 20.7422C105.599 20.7775 105.625 20.8216 105.638 20.87C105.651 20.9184 105.652 20.9695 105.64 21.0182C105.627 21.0669 105.602 21.1115 105.568 21.1477L103.768 23.0422L106.583 26.8774C106.628 26.9387 106.648 27.0157 106.637 27.0915C106.626 27.1673 106.586 27.2357 106.525 27.2817C106.467 27.3201 106.398 27.3383 106.329 27.3337Z" fill="#231F20"/>
<path d="M95.6259 39.7462C95.588 39.7511 95.5495 39.7485 95.5127 39.7386C95.4758 39.7286 95.4413 39.7115 95.411 39.6882C95.3499 39.641 95.31 39.5715 95.3 39.495C95.2901 39.4184 95.3109 39.3409 95.358 39.2797C95.405 39.2185 95.4744 39.1786 95.5509 39.1686C97.3847 38.6719 100.741 37.6726 100.741 37.6669C100.817 37.6454 100.899 37.6553 100.969 37.6943C101.038 37.7333 101.089 37.7982 101.11 37.8748C101.131 37.9514 101.122 38.0334 101.083 38.1027C101.044 38.172 100.979 38.223 100.902 38.2445C100.868 38.2445 97.5231 39.2495 95.6778 39.7462H95.6259Z" fill="#231F20"/>
<path d="M97.004 28.5871H96.9348C96.8608 28.5693 96.7968 28.5229 96.7568 28.4579C96.7168 28.393 96.7041 28.3149 96.7214 28.2406C96.7214 28.1944 97.7652 23.8509 98.4226 21.5636C98.4453 21.4909 98.4953 21.4299 98.5619 21.3933C98.6286 21.3567 98.7068 21.3473 98.7802 21.3672C98.817 21.3772 98.8514 21.3944 98.8813 21.418C98.9112 21.4416 98.9361 21.471 98.9544 21.5044C98.9727 21.5379 98.9841 21.5747 98.9879 21.6126C98.9916 21.6506 98.9877 21.6889 98.9763 21.7253C98.3246 24.0011 97.2924 28.333 97.2808 28.3734C97.2644 28.4345 97.2284 28.4885 97.1784 28.5271C97.1284 28.5657 97.0672 28.5868 97.004 28.5871Z" fill="#231F20"/>
<path d="M112.84 14.7653L133.433 3.53693L137.054 7.18731L115.988 20.8474L112.84 14.7653Z" fill="#FF5C64"/>
<path d="M118.093 21.9217C118.018 21.913 117.948 21.876 117.899 21.8181C117.85 21.7602 117.824 21.6858 117.828 21.6098C117.828 21.5578 118.237 16.6656 117.136 14.9328C117.113 14.901 117.097 14.8649 117.088 14.8266C117.08 14.7883 117.079 14.7487 117.086 14.7102C117.094 14.6716 117.109 14.635 117.131 14.6025C117.153 14.57 117.181 14.5423 117.214 14.5211C117.247 14.4999 117.284 14.4856 117.322 14.4792C117.361 14.4727 117.4 14.4742 117.438 14.4835C117.476 14.4929 117.512 14.5099 117.543 14.5335C117.575 14.5571 117.601 14.5869 117.62 14.6209C118.825 16.5154 118.422 21.4481 118.404 21.656C118.401 21.694 118.391 21.731 118.374 21.7649C118.357 21.7989 118.333 21.829 118.304 21.8537C118.275 21.8784 118.241 21.8971 118.205 21.9088C118.169 21.9205 118.131 21.9249 118.093 21.9217Z" fill="#231F20"/>
<path d="M114.212 24.44C114.18 24.446 114.147 24.446 114.114 24.44C114.078 24.4278 114.045 24.4084 114.017 24.383C113.988 24.3576 113.965 24.3267 113.949 24.2921C113.933 24.2576 113.924 24.2202 113.922 24.1821C113.921 24.144 113.928 24.106 113.941 24.0704L115.608 19.415L113.572 18.9067C113.528 18.8962 113.486 18.8752 113.451 18.8455C113.417 18.8158 113.389 18.7783 113.372 18.736C113.354 18.6937 113.347 18.6478 113.351 18.6022C113.355 18.5565 113.369 18.5124 113.393 18.4735L114.725 16.3191L112.995 15.9725C112.919 15.9572 112.852 15.9121 112.808 15.8471C112.765 15.7821 112.749 15.7026 112.765 15.626C112.78 15.5494 112.825 15.482 112.89 15.4387C112.955 15.3954 113.034 15.3796 113.111 15.3949L115.279 15.8281C115.325 15.8368 115.368 15.8566 115.404 15.8858C115.44 15.915 115.468 15.9528 115.487 15.9956C115.509 16.0362 115.521 16.082 115.521 16.1285C115.521 16.175 115.509 16.2208 115.487 16.2613L114.097 18.4215L116.058 18.8952C116.097 18.9031 116.135 18.9202 116.167 18.9453C116.199 18.9704 116.225 19.0027 116.242 19.0396C116.259 19.0757 116.268 19.1151 116.268 19.1551C116.268 19.195 116.259 19.2345 116.242 19.2706L114.466 24.2321C114.448 24.2877 114.415 24.337 114.37 24.3739C114.325 24.4108 114.27 24.4338 114.212 24.44Z" fill="#231F20"/>
<path d="M110.688 36.9045C110.651 36.9038 110.613 36.8955 110.578 36.8803C110.544 36.8651 110.512 36.8432 110.486 36.8159C110.46 36.7885 110.439 36.7562 110.426 36.7209C110.412 36.6856 110.405 36.6479 110.406 36.6099C110.406 36.5349 110.544 28.9857 110.463 24.9945C110.463 24.918 110.494 24.8445 110.548 24.7903C110.602 24.7362 110.675 24.7057 110.752 24.7057C110.828 24.7057 110.902 24.7362 110.956 24.7903C111.01 24.8445 111.04 24.918 111.04 24.9945C111.121 28.9973 110.988 36.5464 110.983 36.633C110.981 36.6702 110.972 36.7067 110.957 36.7405C110.941 36.7743 110.919 36.8046 110.892 36.8299C110.864 36.8551 110.832 36.8746 110.797 36.8875C110.763 36.9003 110.726 36.9061 110.688 36.9045Z" fill="#D1D3D4"/>
<path d="M92.0676 68.9493L89.8301 72.9925C89.8301 72.9925 103.209 76.3425 102.915 74.6675C102.621 72.9925 99.1261 70.0468 99.1261 70.0468L92.0676 68.9493Z" fill="white"/>
<path d="M101.617 75.407C98.4688 75.407 91.4102 73.6742 89.7609 73.2756C89.719 73.2651 89.68 73.245 89.647 73.217C89.614 73.1889 89.5879 73.1537 89.5706 73.1139C89.5494 73.0749 89.5383 73.0312 89.5383 72.9868C89.5383 72.9424 89.5494 72.8988 89.5706 72.8598L91.8024 68.8166C91.829 68.7637 91.8721 68.721 91.9252 68.6949C91.9783 68.6688 92.0384 68.6609 92.0965 68.6722L99.155 69.7408C99.2083 69.7472 99.2585 69.7693 99.2992 69.8043C99.4434 69.9256 102.875 72.8655 103.18 74.6214C103.199 74.7125 103.193 74.8069 103.164 74.895C103.134 74.9832 103.082 75.0621 103.013 75.1239C102.589 75.3633 102.101 75.4624 101.617 75.407ZM90.2684 72.8078C95.9083 74.1998 102.148 75.3088 102.638 74.7023C102.413 73.4605 99.997 71.1501 99.0051 70.2953L92.2349 69.2498L90.2684 72.8078Z" fill="#231F20"/>
<path d="M118.485 66.5869L117.764 70.8264C117.764 70.8264 130.855 68.4814 130.267 66.5869C129.678 64.6923 126.264 65.2988 126.264 65.2988" fill="white"/>
<path d="M117.764 71.1153C117.689 71.1158 117.617 71.0868 117.562 71.0345C117.529 71.0017 117.504 70.9617 117.489 70.9176C117.474 70.8735 117.47 70.8265 117.476 70.7803L118.197 66.5408C118.203 66.5032 118.217 66.4672 118.237 66.4349C118.257 66.4025 118.284 66.3746 118.315 66.3526C118.346 66.3305 118.381 66.3149 118.418 66.3066C118.455 66.2982 118.494 66.2974 118.531 66.304C118.569 66.3096 118.604 66.3226 118.637 66.3423C118.669 66.362 118.697 66.3879 118.719 66.4186C118.741 66.4493 118.756 66.4841 118.765 66.521C118.773 66.5578 118.774 66.596 118.768 66.6332L118.116 70.4742C122.626 69.6367 129.223 68.0425 129.949 66.8354C130.007 66.743 129.996 66.691 129.99 66.6736C129.482 65.0448 126.345 65.5762 126.316 65.582C126.241 65.5955 126.164 65.5788 126.102 65.5355C126.039 65.4922 125.996 65.4259 125.982 65.351C125.974 65.3137 125.974 65.2754 125.982 65.2382C125.99 65.201 126.005 65.1657 126.026 65.1345C126.048 65.1032 126.075 65.0766 126.107 65.0562C126.139 65.0359 126.175 65.0222 126.213 65.0159C126.362 65.0159 129.88 64.3864 130.538 66.5004C130.571 66.6065 130.579 66.7186 130.563 66.8285C130.547 66.9384 130.507 67.0434 130.445 67.1357C129.292 69.0013 118.987 70.9016 117.81 71.1153H117.764Z" fill="#231F20"/>
<path d="M41.5449 129.678C41.4685 129.678 41.3951 129.647 41.341 129.593C41.287 129.539 41.2566 129.465 41.2566 129.389V127.656C41.2566 127.579 41.287 127.506 41.341 127.452C41.3951 127.398 41.4685 127.367 41.5449 127.367C41.6214 127.367 41.6947 127.398 41.7488 127.452C41.8029 127.506 41.8333 127.579 41.8333 127.656V129.389C41.8333 129.465 41.8029 129.539 41.7488 129.593C41.6947 129.647 41.6214 129.678 41.5449 129.678ZM41.5449 126.212C41.4685 126.212 41.3951 126.182 41.341 126.127C41.287 126.073 41.2566 126 41.2566 125.923V124.19C41.2566 124.114 41.287 124.04 41.341 123.986C41.3951 123.932 41.4685 123.902 41.5449 123.902C41.6214 123.902 41.6947 123.932 41.7488 123.986C41.8029 124.04 41.8333 124.114 41.8333 124.19V125.923C41.8333 126 41.8029 126.073 41.7488 126.127C41.6947 126.182 41.6214 126.212 41.5449 126.212ZM41.5449 122.746C41.4685 122.746 41.3951 122.716 41.341 122.662C41.287 122.608 41.2566 122.534 41.2566 122.458V120.725C41.2566 120.648 41.287 120.575 41.341 120.521C41.3951 120.467 41.4685 120.436 41.5449 120.436C41.6214 120.436 41.6947 120.467 41.7488 120.521C41.8029 120.575 41.8333 120.648 41.8333 120.725V122.458C41.8333 122.534 41.8029 122.608 41.7488 122.662C41.6947 122.716 41.6214 122.746 41.5449 122.746ZM41.5449 119.281C41.4685 119.281 41.3951 119.251 41.341 119.196C41.287 119.142 41.2566 119.069 41.2566 118.992V117.259C41.2566 117.183 41.287 117.109 41.341 117.055C41.3951 117.001 41.4685 116.971 41.5449 116.971C41.6214 116.971 41.6947 117.001 41.7488 117.055C41.8029 117.109 41.8333 117.183 41.8333 117.259V118.992C41.8333 119.069 41.8029 119.142 41.7488 119.196C41.6947 119.251 41.6214 119.281 41.5449 119.281ZM41.5449 115.815C41.4685 115.815 41.3951 115.785 41.341 115.731C41.287 115.677 41.2566 115.603 41.2566 115.527V113.794C41.2566 113.717 41.287 113.644 41.341 113.59C41.3951 113.535 41.4685 113.505 41.5449 113.505C41.6214 113.505 41.6947 113.535 41.7488 113.59C41.8029 113.644 41.8333 113.717 41.8333 113.794V115.527C41.8333 115.603 41.8029 115.677 41.7488 115.731C41.6947 115.785 41.6214 115.815 41.5449 115.815Z" fill="#D1D3D4"/>
<path d="M71.1226 129.643C71.0461 129.643 70.9728 129.612 70.9187 129.558C70.8646 129.504 70.8342 129.431 70.8342 129.354C70.8356 129.277 70.8663 129.204 70.9199 129.149C70.9735 129.094 71.046 129.062 71.1226 129.059C71.1602 129.059 71.1975 129.065 71.2325 129.079C71.2674 129.093 71.2993 129.114 71.3261 129.14C71.353 129.167 71.3743 129.198 71.3889 129.233C71.4034 129.267 71.4109 129.305 71.4109 129.342C71.4125 129.381 71.4061 129.42 71.3924 129.456C71.3786 129.493 71.3576 129.526 71.3306 129.554C71.3037 129.582 71.2714 129.604 71.2356 129.62C71.1999 129.635 71.1614 129.643 71.1226 129.643ZM71.1226 127.91C71.0461 127.91 70.9728 127.88 70.9187 127.825C70.8646 127.771 70.8342 127.698 70.8342 127.621V125.888C70.8357 125.812 70.8666 125.74 70.9203 125.686C70.9741 125.632 71.0466 125.601 71.1226 125.6C71.199 125.6 71.2724 125.63 71.3265 125.684C71.3805 125.738 71.4109 125.812 71.4109 125.888V127.621C71.4079 127.696 71.3762 127.766 71.3225 127.818C71.2687 127.87 71.1971 127.898 71.1226 127.898V127.91ZM71.1226 124.444C71.0461 124.444 70.9728 124.414 70.9187 124.36C70.8646 124.306 70.8342 124.232 70.8342 124.156V122.423C70.8357 122.347 70.8666 122.274 70.9203 122.22C70.9741 122.166 71.0466 122.136 71.1226 122.134C71.199 122.134 71.2724 122.164 71.3265 122.219C71.3805 122.273 71.4109 122.346 71.4109 122.423V124.156C71.4079 124.23 71.3762 124.301 71.3225 124.352C71.2687 124.404 71.1971 124.433 71.1226 124.433V124.444ZM71.1226 120.979C71.0461 120.979 70.9728 120.948 70.9187 120.894C70.8646 120.84 70.8342 120.767 70.8342 120.69V118.957C70.8357 118.881 70.8666 118.809 70.9203 118.755C70.9741 118.701 71.0466 118.67 71.1226 118.668C71.199 118.668 71.2724 118.699 71.3265 118.753C71.3805 118.807 71.4109 118.881 71.4109 118.957V120.69C71.4079 120.765 71.3762 120.835 71.3225 120.887C71.2687 120.939 71.1971 120.967 71.1226 120.967V120.979ZM71.1226 117.513C71.0461 117.513 70.9728 117.483 70.9187 117.429C70.8646 117.375 70.8342 117.301 70.8342 117.225V115.492C70.8357 115.416 70.8666 115.343 70.9203 115.289C70.9741 115.235 71.0466 115.204 71.1226 115.203C71.199 115.203 71.2724 115.233 71.3265 115.288C71.3805 115.342 71.4109 115.415 71.4109 115.492V117.225C71.4079 117.299 71.3762 117.37 71.3225 117.421C71.2687 117.473 71.1971 117.502 71.1226 117.502V117.513Z" fill="#D1D3D4"/>
<path d="M100.706 129.643C100.63 129.643 100.556 129.612 100.502 129.558C100.448 129.504 100.418 129.431 100.418 129.354V128.776C100.418 128.7 100.448 128.626 100.502 128.572C100.556 128.518 100.63 128.488 100.706 128.488C100.782 128.489 100.855 128.52 100.908 128.574C100.962 128.628 100.993 128.7 100.994 128.776V129.354C100.994 129.431 100.964 129.504 100.91 129.558C100.856 129.612 100.783 129.643 100.706 129.643ZM100.706 127.332C100.63 127.332 100.556 127.302 100.502 127.248C100.448 127.194 100.418 127.12 100.418 127.044V125.311C100.418 125.234 100.448 125.161 100.502 125.107C100.556 125.052 100.63 125.022 100.706 125.022C100.782 125.024 100.855 125.054 100.908 125.108C100.962 125.162 100.993 125.235 100.994 125.311V127.044C100.998 127.083 100.992 127.124 100.979 127.161C100.966 127.199 100.946 127.234 100.919 127.263C100.891 127.292 100.859 127.316 100.822 127.332C100.785 127.348 100.746 127.356 100.706 127.356V127.332ZM100.706 123.867C100.63 123.867 100.556 123.836 100.502 123.782C100.448 123.728 100.418 123.655 100.418 123.578V121.845C100.418 121.769 100.448 121.695 100.502 121.641C100.556 121.587 100.63 121.557 100.706 121.557C100.782 121.558 100.855 121.589 100.908 121.643C100.962 121.697 100.993 121.769 100.994 121.845V123.578C100.998 123.618 100.992 123.658 100.979 123.696C100.966 123.733 100.946 123.768 100.919 123.797C100.891 123.827 100.859 123.85 100.822 123.866C100.785 123.882 100.746 123.89 100.706 123.89V123.867ZM100.706 120.401C100.63 120.401 100.556 120.371 100.502 120.317C100.448 120.263 100.418 120.189 100.418 120.113V118.38C100.418 118.303 100.448 118.23 100.502 118.176C100.556 118.121 100.63 118.091 100.706 118.091C100.782 118.092 100.855 118.123 100.908 118.177C100.962 118.231 100.993 118.304 100.994 118.38V120.113C100.998 120.152 100.992 120.192 100.979 120.23C100.966 120.268 100.946 120.303 100.919 120.332C100.891 120.361 100.859 120.385 100.822 120.4C100.785 120.416 100.746 120.425 100.706 120.424V120.401ZM100.706 116.936C100.63 116.936 100.556 116.905 100.502 116.851C100.448 116.797 100.418 116.724 100.418 116.647V114.914C100.418 114.838 100.448 114.764 100.502 114.71C100.556 114.656 100.63 114.625 100.706 114.625C100.782 114.627 100.855 114.658 100.908 114.712C100.962 114.765 100.993 114.838 100.994 114.914V116.647C100.998 116.687 100.992 116.727 100.979 116.765C100.966 116.802 100.946 116.837 100.919 116.866C100.891 116.896 100.859 116.919 100.822 116.935C100.785 116.951 100.746 116.959 100.706 116.959V116.936ZM100.706 113.47C100.63 113.47 100.556 113.44 100.502 113.386C100.448 113.331 100.418 113.258 100.418 113.181V111.449C100.418 111.372 100.448 111.299 100.502 111.244C100.556 111.19 100.63 111.16 100.706 111.16C100.782 111.161 100.855 111.192 100.908 111.246C100.962 111.3 100.993 111.373 100.994 111.449V113.181C100.998 113.221 100.992 113.261 100.979 113.299C100.966 113.337 100.946 113.371 100.919 113.401C100.891 113.43 100.859 113.453 100.822 113.469C100.785 113.485 100.746 113.493 100.706 113.493V113.47ZM100.706 110.005C100.63 110.005 100.556 109.974 100.502 109.92C100.448 109.866 100.418 109.792 100.418 109.716V107.983C100.418 107.906 100.448 107.833 100.502 107.779C100.556 107.725 100.63 107.694 100.706 107.694C100.782 107.696 100.855 107.727 100.908 107.78C100.962 107.834 100.993 107.907 100.994 107.983V109.716C100.998 109.756 100.992 109.796 100.979 109.833C100.966 109.871 100.946 109.906 100.919 109.935C100.891 109.964 100.859 109.988 100.822 110.004C100.785 110.02 100.746 110.028 100.706 110.028V110.005ZM100.706 106.539C100.63 106.539 100.556 106.509 100.502 106.455C100.448 106.4 100.418 106.327 100.418 106.25V104.518C100.418 104.441 100.448 104.367 100.502 104.313C100.556 104.259 100.63 104.229 100.706 104.229C100.782 104.23 100.855 104.261 100.908 104.315C100.962 104.369 100.993 104.441 100.994 104.518V106.25C100.998 106.29 100.992 106.33 100.979 106.368C100.966 106.406 100.946 106.44 100.919 106.47C100.891 106.499 100.859 106.522 100.822 106.538C100.785 106.554 100.746 106.562 100.706 106.562V106.539ZM100.706 103.074C100.63 103.074 100.556 103.043 100.502 102.989C100.448 102.935 100.418 102.861 100.418 102.785V101.052C100.418 100.975 100.448 100.902 100.502 100.848C100.556 100.794 100.63 100.763 100.706 100.763C100.782 100.765 100.855 100.796 100.908 100.849C100.962 100.903 100.993 100.976 100.994 101.052V102.785C100.998 102.825 100.992 102.865 100.979 102.902C100.966 102.94 100.946 102.975 100.919 103.004C100.891 103.033 100.859 103.057 100.822 103.073C100.785 103.089 100.746 103.097 100.706 103.097V103.074ZM100.706 99.608C100.63 99.608 100.556 99.5776 100.502 99.5234C100.448 99.4692 100.418 99.3958 100.418 99.3192V97.5864C100.418 97.5098 100.448 97.4364 100.502 97.3822C100.556 97.328 100.63 97.2976 100.706 97.2976C100.782 97.2991 100.855 97.33 100.908 97.3838C100.962 97.4377 100.993 97.5103 100.994 97.5864V99.3192C100.998 99.359 100.992 99.3991 100.979 99.4368C100.966 99.4746 100.946 99.5092 100.919 99.5385C100.891 99.5678 100.859 99.5912 100.822 99.6071C100.785 99.6231 100.746 99.6312 100.706 99.6311V99.608Z" fill="#D1D3D4"/>
<path d="M130.296 129.643C130.219 129.643 130.146 129.612 130.092 129.558C130.038 129.504 130.007 129.431 130.007 129.354V128.43C130.007 128.353 130.038 128.28 130.092 128.226C130.146 128.171 130.219 128.141 130.296 128.141C130.372 128.141 130.445 128.171 130.5 128.226C130.554 128.28 130.584 128.353 130.584 128.43V129.354C130.584 129.431 130.554 129.504 130.5 129.558C130.445 129.612 130.372 129.643 130.296 129.643ZM130.296 126.986C130.219 126.986 130.146 126.955 130.092 126.901C130.038 126.847 130.007 126.774 130.007 126.697V124.964C130.007 124.888 130.038 124.814 130.092 124.76C130.146 124.706 130.219 124.675 130.296 124.675C130.372 124.675 130.445 124.706 130.5 124.76C130.554 124.814 130.584 124.888 130.584 124.964V126.697C130.587 126.737 130.582 126.777 130.569 126.815C130.556 126.852 130.535 126.887 130.508 126.916C130.481 126.946 130.448 126.969 130.412 126.985C130.375 127.001 130.336 127.009 130.296 127.009V126.986ZM130.296 123.52C130.219 123.52 130.146 123.49 130.092 123.436C130.038 123.381 130.007 123.308 130.007 123.231V121.499C130.007 121.422 130.038 121.349 130.092 121.294C130.146 121.24 130.219 121.21 130.296 121.21C130.372 121.21 130.445 121.24 130.5 121.294C130.554 121.349 130.584 121.422 130.584 121.499V123.231C130.587 123.271 130.582 123.311 130.569 123.349C130.556 123.387 130.535 123.421 130.508 123.451C130.481 123.48 130.448 123.503 130.412 123.519C130.375 123.535 130.336 123.543 130.296 123.543V123.52ZM130.296 120.055C130.219 120.055 130.146 120.024 130.092 119.97C130.038 119.916 130.007 119.842 130.007 119.766V118.033C130.007 117.956 130.038 117.883 130.092 117.829C130.146 117.775 130.219 117.744 130.296 117.744C130.372 117.744 130.445 117.775 130.5 117.829C130.554 117.883 130.584 117.956 130.584 118.033V119.766C130.587 119.806 130.582 119.846 130.569 119.883C130.556 119.921 130.535 119.956 130.508 119.985C130.481 120.014 130.448 120.038 130.412 120.054C130.375 120.07 130.336 120.078 130.296 120.078V120.055ZM130.296 116.589C130.219 116.589 130.146 116.559 130.092 116.505C130.038 116.45 130.007 116.377 130.007 116.3V114.568C130.007 114.491 130.038 114.417 130.092 114.363C130.146 114.309 130.219 114.279 130.296 114.279C130.372 114.279 130.445 114.309 130.5 114.363C130.554 114.417 130.584 114.491 130.584 114.568V116.3C130.587 116.34 130.582 116.38 130.569 116.418C130.556 116.456 130.535 116.49 130.508 116.52C130.481 116.549 130.448 116.572 130.412 116.588C130.375 116.604 130.336 116.612 130.296 116.612V116.589ZM130.296 113.124C130.219 113.124 130.146 113.093 130.092 113.039C130.038 112.985 130.007 112.911 130.007 112.835V111.102C130.007 111.025 130.038 110.952 130.092 110.898C130.146 110.844 130.219 110.813 130.296 110.813C130.372 110.813 130.445 110.844 130.5 110.898C130.554 110.952 130.584 111.025 130.584 111.102V112.835C130.587 112.875 130.582 112.915 130.569 112.952C130.556 112.99 130.535 113.025 130.508 113.054C130.481 113.083 130.448 113.107 130.412 113.123C130.375 113.139 130.336 113.147 130.296 113.147V113.124ZM130.296 109.658C130.219 109.658 130.146 109.628 130.092 109.573C130.038 109.519 130.007 109.446 130.007 109.369V107.636C130.007 107.56 130.038 107.486 130.092 107.432C130.146 107.378 130.219 107.348 130.296 107.348C130.372 107.348 130.445 107.378 130.5 107.432C130.554 107.486 130.584 107.56 130.584 107.636V109.369C130.587 109.409 130.582 109.449 130.569 109.487C130.556 109.525 130.535 109.559 130.508 109.589C130.481 109.618 130.448 109.641 130.412 109.657C130.375 109.673 130.336 109.681 130.296 109.681V109.658ZM130.296 106.192C130.219 106.192 130.146 106.162 130.092 106.108C130.038 106.054 130.007 105.98 130.007 105.904V104.171C130.007 104.094 130.038 104.021 130.092 103.967C130.146 103.912 130.219 103.882 130.296 103.882C130.372 103.882 130.445 103.912 130.5 103.967C130.554 104.021 130.584 104.094 130.584 104.171V105.904C130.587 105.943 130.582 105.984 130.569 106.021C130.556 106.059 130.535 106.094 130.508 106.123C130.481 106.152 130.448 106.176 130.412 106.192C130.375 106.207 130.336 106.216 130.296 106.216V106.192ZM130.296 102.727C130.219 102.727 130.146 102.696 130.092 102.642C130.038 102.588 130.007 102.515 130.007 102.438V100.705C130.007 100.629 130.038 100.555 130.092 100.501C130.146 100.447 130.219 100.417 130.296 100.417C130.372 100.417 130.445 100.447 130.5 100.501C130.554 100.555 130.584 100.629 130.584 100.705V102.438C130.587 102.478 130.582 102.518 130.569 102.556C130.556 102.593 130.535 102.628 130.508 102.657C130.481 102.687 130.448 102.71 130.412 102.726C130.375 102.742 130.336 102.75 130.296 102.75V102.727ZM130.296 99.2613C130.219 99.2613 130.146 99.2309 130.092 99.1767C130.038 99.1226 130.007 99.0491 130.007 98.9725V97.2397C130.007 97.1631 130.038 97.0897 130.092 97.0355C130.146 96.9814 130.219 96.9509 130.296 96.9509C130.372 96.9509 130.445 96.9814 130.5 97.0355C130.554 97.0897 130.584 97.1631 130.584 97.2397V98.9725C130.587 99.0123 130.582 99.0524 130.569 99.0901C130.556 99.1279 130.535 99.1625 130.508 99.1918C130.481 99.2211 130.448 99.2445 130.412 99.2604C130.375 99.2764 130.336 99.2845 130.296 99.2844V99.2613ZM130.296 95.7958C130.219 95.7958 130.146 95.7653 130.092 95.7112C130.038 95.657 130.007 95.5836 130.007 95.507V93.7742C130.007 93.6976 130.038 93.6241 130.092 93.57C130.146 93.5158 130.219 93.4854 130.296 93.4854C130.372 93.4854 130.445 93.5158 130.5 93.57C130.554 93.6241 130.584 93.6976 130.584 93.7742V95.507C130.587 95.5468 130.582 95.5868 130.569 95.6246C130.556 95.6623 130.535 95.697 130.508 95.7263C130.481 95.7556 130.448 95.7789 130.412 95.7949C130.375 95.8108 130.336 95.819 130.296 95.8189V95.7958ZM130.296 92.3302C130.219 92.3302 130.146 92.2998 130.092 92.2456C130.038 92.1914 130.007 92.118 130.007 92.0414V90.3086C130.007 90.232 130.038 90.1586 130.092 90.1044C130.146 90.0502 130.219 90.0198 130.296 90.0198C130.372 90.0198 130.445 90.0502 130.5 90.1044C130.554 90.1586 130.584 90.232 130.584 90.3086V92.0414C130.587 92.0812 130.582 92.1213 130.569 92.159C130.556 92.1968 130.535 92.2314 130.508 92.2607C130.481 92.29 130.448 92.3134 130.412 92.3293C130.375 92.3453 130.336 92.3534 130.296 92.3533V92.3302ZM130.296 88.8646C130.219 88.8646 130.146 88.8342 130.092 88.78C130.038 88.7259 130.007 88.6524 130.007 88.5758V86.8431C130.007 86.7665 130.038 86.693 130.092 86.6388C130.146 86.5847 130.219 86.5543 130.296 86.5543C130.372 86.5543 130.445 86.5847 130.5 86.6388C130.554 86.693 130.584 86.7665 130.584 86.8431V88.5758C130.587 88.6157 130.582 88.6557 130.569 88.6935C130.556 88.7312 130.535 88.7658 130.508 88.7952C130.481 88.8245 130.448 88.8478 130.412 88.8638C130.375 88.8797 130.336 88.8879 130.296 88.8877V88.8646ZM130.296 85.3991C130.219 85.3991 130.146 85.3687 130.092 85.3145C130.038 85.2603 130.007 85.1869 130.007 85.1103V83.3775C130.007 83.3009 130.038 83.2275 130.092 83.1733C130.146 83.1191 130.219 83.0887 130.296 83.0887C130.372 83.0887 130.445 83.1191 130.5 83.1733C130.554 83.2275 130.584 83.3009 130.584 83.3775V85.1103C130.587 85.1501 130.582 85.1902 130.569 85.2279C130.556 85.2657 130.535 85.3003 130.508 85.3296C130.481 85.3589 130.448 85.3823 130.412 85.3982C130.375 85.4141 130.336 85.4223 130.296 85.4222V85.3991ZM130.296 81.9335C130.219 81.9335 130.146 81.9031 130.092 81.8489C130.038 81.7948 130.007 81.7213 130.007 81.6447V79.9119C130.007 79.8354 130.038 79.7619 130.092 79.7077C130.146 79.6536 130.219 79.6232 130.296 79.6232C130.372 79.6232 130.445 79.6536 130.5 79.7077C130.554 79.7619 130.584 79.8354 130.584 79.9119V81.6447C130.587 81.6845 130.582 81.7246 130.569 81.7623C130.556 81.8001 130.535 81.8347 130.508 81.864C130.481 81.8934 130.448 81.9167 130.412 81.9327C130.375 81.9486 130.336 81.9568 130.296 81.9566V81.9335ZM130.296 78.468C130.219 78.468 130.146 78.4375 130.092 78.3834C130.038 78.3292 130.007 78.2558 130.007 78.1792V76.4464C130.007 76.3698 130.038 76.2963 130.092 76.2422C130.146 76.188 130.219 76.1576 130.296 76.1576C130.372 76.1576 130.445 76.188 130.5 76.2422C130.554 76.2963 130.584 76.3698 130.584 76.4464V78.1792C130.587 78.219 130.582 78.259 130.569 78.2968C130.556 78.3345 130.535 78.3692 130.508 78.3985C130.481 78.4278 130.448 78.4512 130.412 78.4671C130.375 78.483 130.336 78.4912 130.296 78.4911V78.468Z" fill="#D1D3D4"/>
<path d="M78.3945 76.7583H76.6644C76.588 76.7583 76.5146 76.7279 76.4605 76.6737C76.4065 76.6196 76.3761 76.5461 76.3761 76.4695C76.3761 76.3929 76.4065 76.3195 76.4605 76.2653C76.5146 76.2112 76.588 76.1807 76.6644 76.1807H78.3945C78.4709 76.1807 78.5443 76.2112 78.5983 76.2653C78.6524 76.3195 78.6828 76.3929 78.6828 76.4695C78.6828 76.5461 78.6524 76.6196 78.5983 76.6737C78.5443 76.7279 78.4709 76.7583 78.3945 76.7583ZM74.9344 76.7583H73.2044C73.1279 76.7583 73.0546 76.7279 73.0005 76.6737C72.9464 76.6196 72.916 76.5461 72.916 76.4695C72.916 76.3929 72.9464 76.3195 73.0005 76.2653C73.0546 76.2112 73.1279 76.1807 73.2044 76.1807H74.9344C75.0109 76.1807 75.0842 76.2112 75.1383 76.2653C75.1923 76.3195 75.2227 76.3929 75.2227 76.4695C75.2227 76.5461 75.1923 76.6196 75.1383 76.6737C75.0842 76.7279 75.0109 76.7583 74.9344 76.7583ZM71.4743 76.7583H69.7443C69.6678 76.7583 69.5945 76.7279 69.5404 76.6737C69.4863 76.6196 69.456 76.5461 69.456 76.4695C69.456 76.3929 69.4863 76.3195 69.5404 76.2653C69.5945 76.2112 69.6678 76.1807 69.7443 76.1807H71.4743C71.5508 76.1807 71.6241 76.2112 71.6782 76.2653C71.7323 76.3195 71.7627 76.3929 71.7627 76.4695C71.7627 76.5461 71.7323 76.6196 71.6782 76.6737C71.6241 76.7279 71.5508 76.7583 71.4743 76.7583ZM68.0143 76.7583H66.2842C66.2078 76.7583 66.1344 76.7279 66.0803 76.6737C66.0263 76.6196 65.9959 76.5461 65.9959 76.4695C65.9959 76.3929 66.0263 76.3195 66.0803 76.2653C66.1344 76.2112 66.2078 76.1807 66.2842 76.1807H68.0143C68.0907 76.1807 68.1641 76.2112 68.2181 76.2653C68.2722 76.3195 68.3026 76.3929 68.3026 76.4695C68.3026 76.5461 68.2722 76.6196 68.2181 76.6737C68.1641 76.7279 68.0907 76.7583 68.0143 76.7583ZM64.5542 76.7583H62.8242C62.7477 76.7583 62.6744 76.7279 62.6203 76.6737C62.5662 76.6196 62.5358 76.5461 62.5358 76.4695C62.5358 76.3929 62.5662 76.3195 62.6203 76.2653C62.6744 76.2112 62.7477 76.1807 62.8242 76.1807H64.5542C64.6307 76.1807 64.704 76.2112 64.7581 76.2653C64.8121 76.3195 64.8425 76.3929 64.8425 76.4695C64.8425 76.5461 64.8121 76.6196 64.7581 76.6737C64.704 76.7279 64.6307 76.7583 64.5542 76.7583ZM61.0941 76.7583H59.3641C59.2876 76.7583 59.2143 76.7279 59.1602 76.6737C59.1061 76.6196 59.0758 76.5461 59.0758 76.4695C59.0758 76.3929 59.1061 76.3195 59.1602 76.2653C59.2143 76.2112 59.2876 76.1807 59.3641 76.1807H61.0941C61.1706 76.1807 61.2439 76.2112 61.298 76.2653C61.3521 76.3195 61.3825 76.3929 61.3825 76.4695C61.3825 76.5461 61.3521 76.6196 61.298 76.6737C61.2439 76.7279 61.1706 76.7583 61.0941 76.7583ZM57.6341 76.7583H55.904C55.8276 76.7583 55.7542 76.7279 55.7001 76.6737C55.6461 76.6196 55.6157 76.5461 55.6157 76.4695C55.6157 76.3929 55.6461 76.3195 55.7001 76.2653C55.7542 76.2112 55.8276 76.1807 55.904 76.1807H57.6341C57.7105 76.1807 57.7839 76.2112 57.8379 76.2653C57.892 76.3195 57.9224 76.3929 57.9224 76.4695C57.9224 76.5461 57.892 76.6196 57.8379 76.6737C57.7839 76.7279 57.7105 76.7583 57.6341 76.7583ZM54.174 76.7583H52.444C52.3675 76.7583 52.2942 76.7279 52.2401 76.6737C52.186 76.6196 52.1556 76.5461 52.1556 76.4695C52.1556 76.3929 52.186 76.3195 52.2401 76.2653C52.2942 76.2112 52.3675 76.1807 52.444 76.1807H54.174C54.2505 76.1807 54.3238 76.2112 54.3779 76.2653C54.432 76.3195 54.4623 76.3929 54.4623 76.4695C54.4623 76.5461 54.432 76.6196 54.3779 76.6737C54.3238 76.7279 54.2505 76.7583 54.174 76.7583ZM50.7139 76.7583H48.9839C48.9074 76.7583 48.8341 76.7279 48.78 76.6737C48.7259 76.6196 48.6956 76.5461 48.6956 76.4695C48.6956 76.3929 48.7259 76.3195 48.78 76.2653C48.8341 76.2112 48.9074 76.1807 48.9839 76.1807H50.7139C50.7904 76.1807 50.8637 76.2112 50.9178 76.2653C50.9719 76.3195 51.0023 76.3929 51.0023 76.4695C51.0023 76.5461 50.9719 76.6196 50.9178 76.6737C50.8637 76.7279 50.7904 76.7583 50.7139 76.7583ZM47.2539 76.7583H45.5238C45.4474 76.7583 45.374 76.7279 45.32 76.6737C45.2659 76.6196 45.2355 76.5461 45.2355 76.4695C45.2355 76.3929 45.2659 76.3195 45.32 76.2653C45.374 76.2112 45.4474 76.1807 45.5238 76.1807H47.2539C47.3303 76.1807 47.4037 76.2112 47.4577 76.2653C47.5118 76.3195 47.5422 76.3929 47.5422 76.4695C47.5422 76.5461 47.5118 76.6196 47.4577 76.6737C47.4037 76.7279 47.3303 76.7583 47.2539 76.7583ZM43.7938 76.7583H42.0638C41.9873 76.7583 41.914 76.7279 41.8599 76.6737C41.8058 76.6196 41.7754 76.5461 41.7754 76.4695C41.7754 76.3929 41.8058 76.3195 41.8599 76.2653C41.914 76.2112 41.9873 76.1807 42.0638 76.1807H43.7938C43.8703 76.1807 43.9436 76.2112 43.9977 76.2653C44.0518 76.3195 44.0821 76.3929 44.0821 76.4695C44.0821 76.5461 44.0518 76.6196 43.9977 76.6737C43.9436 76.7279 43.8703 76.7583 43.7938 76.7583ZM40.3337 76.7583H38.6037C38.5272 76.7583 38.4539 76.7279 38.3998 76.6737C38.3457 76.6196 38.3154 76.5461 38.3154 76.4695C38.3154 76.3929 38.3457 76.3195 38.3998 76.2653C38.4539 76.2112 38.5272 76.1807 38.6037 76.1807H40.3337C40.4102 76.1807 40.4835 76.2112 40.5376 76.2653C40.5917 76.3195 40.6221 76.3929 40.6221 76.4695C40.6221 76.5461 40.5917 76.6196 40.5376 76.6737C40.4835 76.7279 40.4102 76.7583 40.3337 76.7583ZM36.8737 76.7583H35.1436C35.0672 76.7583 34.9938 76.7279 34.9398 76.6737C34.8857 76.6196 34.8553 76.5461 34.8553 76.4695C34.8553 76.3929 34.8857 76.3195 34.9398 76.2653C34.9938 76.2112 35.0672 76.1807 35.1436 76.1807H36.8737C36.9501 76.1807 37.0235 76.2112 37.0775 76.2653C37.1316 76.3195 37.162 76.3929 37.162 76.4695C37.162 76.5461 37.1316 76.6196 37.0775 76.6737C37.0235 76.7279 36.9501 76.7583 36.8737 76.7583ZM33.4136 76.7583H31.6836C31.6071 76.7583 31.5338 76.7279 31.4797 76.6737C31.4256 76.6196 31.3952 76.5461 31.3952 76.4695C31.3952 76.3929 31.4256 76.3195 31.4797 76.2653C31.5338 76.2112 31.6071 76.1807 31.6836 76.1807H33.4136C33.4901 76.1807 33.5634 76.2112 33.6175 76.2653C33.6716 76.3195 33.7019 76.3929 33.7019 76.4695C33.7019 76.5461 33.6716 76.6196 33.6175 76.6737C33.5634 76.7279 33.4901 76.7583 33.4136 76.7583ZM29.9535 76.7583H28.2235C28.147 76.7583 28.0737 76.7279 28.0196 76.6737C27.9655 76.6196 27.9352 76.5461 27.9352 76.4695C27.9352 76.3929 27.9655 76.3195 28.0196 76.2653C28.0737 76.2112 28.147 76.1807 28.2235 76.1807H29.9535C30.03 76.1807 30.1033 76.2112 30.1574 76.2653C30.2115 76.3195 30.2419 76.3929 30.2419 76.4695C30.2419 76.5461 30.2115 76.6196 30.1574 76.6737C30.1033 76.7279 30.03 76.7583 29.9535 76.7583ZM26.4935 76.7583H24.7634C24.687 76.7583 24.6136 76.7279 24.5596 76.6737C24.5055 76.6196 24.4751 76.5461 24.4751 76.4695C24.4751 76.3929 24.5055 76.3195 24.5596 76.2653C24.6136 76.2112 24.687 76.1807 24.7634 76.1807H26.4935C26.5699 76.1807 26.6433 76.2112 26.6974 76.2653C26.7514 76.3195 26.7818 76.3929 26.7818 76.4695C26.7818 76.5461 26.7514 76.6196 26.6974 76.6737C26.6433 76.7279 26.5699 76.7583 26.4935 76.7583ZM23.0334 76.7583H21.3034C21.2269 76.7583 21.1536 76.7279 21.0995 76.6737C21.0454 76.6196 21.015 76.5461 21.015 76.4695C21.015 76.3929 21.0454 76.3195 21.0995 76.2653C21.1536 76.2112 21.2269 76.1807 21.3034 76.1807H23.0334C23.1099 76.1807 23.1832 76.2112 23.2373 76.2653C23.2914 76.3195 23.3217 76.3929 23.3217 76.4695C23.3217 76.5461 23.2914 76.6196 23.2373 76.6737C23.1832 76.7279 23.1099 76.7583 23.0334 76.7583ZM19.5733 76.7583H17.8433C17.7668 76.7583 17.6935 76.7279 17.6394 76.6737C17.5853 76.6196 17.555 76.5461 17.555 76.4695C17.555 76.3929 17.5853 76.3195 17.6394 76.2653C17.6935 76.2112 17.7668 76.1807 17.8433 76.1807H19.5733C19.6498 76.1807 19.7232 76.2112 19.7772 76.2653C19.8313 76.3195 19.8617 76.3929 19.8617 76.4695C19.8617 76.5461 19.8313 76.6196 19.7772 76.6737C19.7232 76.7279 19.6498 76.7583 19.5733 76.7583ZM16.1133 76.7583H14.3832C14.3068 76.7583 14.2334 76.7279 14.1794 76.6737C14.1253 76.6196 14.0949 76.5461 14.0949 76.4695C14.0949 76.3929 14.1253 76.3195 14.1794 76.2653C14.2334 76.2112 14.3068 76.1807 14.3832 76.1807H16.1133C16.1897 76.1807 16.2631 76.2112 16.3172 76.2653C16.3712 76.3195 16.4016 76.3929 16.4016 76.4695C16.4016 76.5461 16.3712 76.6196 16.3172 76.6737C16.2631 76.7279 16.1897 76.7583 16.1133 76.7583ZM12.6532 76.7583H10.9232C10.8467 76.7583 10.7734 76.7279 10.7193 76.6737C10.6652 76.6196 10.6348 76.5461 10.6348 76.4695C10.6348 76.3929 10.6652 76.3195 10.7193 76.2653C10.7734 76.2112 10.8467 76.1807 10.9232 76.1807H12.6532C12.7297 76.1807 12.803 76.2112 12.8571 76.2653C12.9112 76.3195 12.9415 76.3929 12.9415 76.4695C12.9415 76.5461 12.9112 76.6196 12.8571 76.6737C12.803 76.7279 12.7297 76.7583 12.6532 76.7583ZM9.19314 76.7583H7.46311C7.38664 76.7583 7.3133 76.7279 7.25922 76.6737C7.20515 76.6196 7.17477 76.5461 7.17477 76.4695C7.17477 76.3929 7.20515 76.3195 7.25922 76.2653C7.3133 76.2112 7.38664 76.1807 7.46311 76.1807H9.19314C9.26961 76.1807 9.34295 76.2112 9.39703 76.2653C9.4511 76.3195 9.48148 76.3929 9.48148 76.4695C9.48148 76.5461 9.4511 76.6196 9.39703 76.6737C9.34295 76.7279 9.26961 76.7583 9.19314 76.7583ZM5.73308 76.7583H4.00304C3.92657 76.7583 3.85323 76.7279 3.79916 76.6737C3.74508 76.6196 3.7147 76.5461 3.7147 76.4695C3.7147 76.3929 3.74508 76.3195 3.79916 76.2653C3.85323 76.2112 3.92657 76.1807 4.00304 76.1807H5.73308C5.80955 76.1807 5.88289 76.2112 5.93696 76.2653C5.99104 76.3195 6.02141 76.3929 6.02141 76.4695C6.02141 76.5461 5.99104 76.6196 5.93696 76.6737C5.88289 76.7279 5.80955 76.7583 5.73308 76.7583ZM2.27301 76.7583H0.542977C0.466505 76.7583 0.393165 76.7279 0.339091 76.6737C0.285017 76.6196 0.254639 76.5461 0.254639 76.4695C0.254639 76.3929 0.285017 76.3195 0.339091 76.2653C0.393165 76.2112 0.466505 76.1807 0.542977 76.1807H2.27301C2.34948 76.1807 2.42282 76.2112 2.4769 76.2653C2.53097 76.3195 2.56135 76.3929 2.56135 76.4695C2.56135 76.5461 2.53097 76.6196 2.4769 76.6737C2.42282 76.7279 2.34948 76.7583 2.27301 76.7583Z" fill="#D1D3D4"/>
<path d="M152.065 129.62H0.398816C0.328923 129.618 0.262304 129.59 0.212872 129.54C0.163439 129.491 0.135017 129.424 0.133545 129.354V28.2985C0.133545 28.228 0.161491 28.1604 0.211239 28.1106C0.260987 28.0608 0.328462 28.0328 0.398816 28.0328C0.46917 28.0328 0.536645 28.0608 0.586393 28.1106C0.636141 28.1604 0.664087 28.228 0.664087 28.2985V129.094H152.065C152.134 129.094 152.201 129.121 152.251 129.17C152.3 129.219 152.329 129.285 152.33 129.354C152.329 129.424 152.3 129.491 152.251 129.54C152.202 129.59 152.135 129.618 152.065 129.62Z" fill="#231F20"/>
<path d="M144.626 101.814C144.685 100.975 144.507 100.137 144.112 99.3944C143.725 98.9029 143.364 98.3921 143.028 97.8637C142.567 96.8818 142.89 95.7209 142.78 94.6408C142.681 93.733 142.274 92.8868 141.627 92.2438C141.05 91.6662 140.341 91.2792 139.799 90.6843C138.917 89.7081 138.646 88.3334 138.161 87.1147C137.449 85.3925 136.214 83.9379 134.632 82.9561C135.595 84.8968 133.404 87.3631 134.395 89.3096C134.713 89.9218 135.312 90.3608 135.549 91.0077C136.126 92.573 134.251 94.2596 134.845 95.8075C135.139 96.5815 135.964 97.0262 136.35 97.7598C136.869 98.7532 136.46 99.9488 136.506 101.064C136.564 102.606 137.498 103.98 138.611 105.049C139.303 105.713 140.07 106.285 140.82 106.886C141.714 107.602 142.088 108.359 142.878 107.203C143.972 105.616 144.58 103.743 144.626 101.814Z" fill="#231F20"/>
<path d="M145.624 102.698C145.335 101.508 145.133 100.215 145.624 99.0882C146.171 97.8175 147.538 96.9222 147.694 95.5476C147.798 94.6465 147.342 93.7339 147.521 92.8444C147.7 91.9549 148.426 91.3485 149.026 90.69C150.398 89.1718 151.212 87.2299 151.333 85.1855C152.256 86.284 153.003 87.5193 153.547 88.8475C153.811 89.5159 153.92 90.236 153.864 90.9527C153.808 91.6695 153.589 92.3639 153.224 92.9831C152.987 93.2561 152.792 93.5639 152.648 93.8957C152.377 94.7736 153.126 95.5938 153.513 96.4255C153.745 96.9004 153.842 97.43 153.794 97.9566C153.746 98.4831 153.555 98.9865 153.242 99.4117C152.457 100.388 150.935 100.775 150.554 101.97C150.458 102.414 150.413 102.868 150.422 103.322C150.338 104.116 150.018 104.866 149.504 105.475C148.99 106.085 148.305 106.526 147.538 106.741C146.61 106.967 146.627 106.597 146.46 105.817C146.281 104.766 145.866 103.749 145.624 102.698Z" fill="#231F20"/>
<path d="M142.665 94.1324C142.008 91.822 141.743 89.4539 141.045 87.2013C140.455 85.4169 139.732 83.6792 138.882 82.0029L141.72 83.1985C142.625 83.5798 143.611 84.0361 144.026 84.9313C144.77 86.4793 143.45 88.4604 144.217 89.991C144.555 90.4893 144.929 90.9622 145.335 91.4061C146.172 92.5613 146.045 94.1901 145.583 95.5533C145.387 96.1308 144.528 99.1805 143.761 98.3373C143.455 97.9965 143.427 96.7373 143.3 96.2752C143.115 95.5475 142.873 94.8428 142.665 94.1324Z" fill="#231F20"/>
<path d="M144.17 124.531C143.594 120.794 141.835 107.613 141.818 107.481L142.394 107.405C142.394 107.538 144.182 120.69 144.747 124.45L144.17 124.531Z" fill="#231F20"/>
<path d="M144.92 128.06H144.343C144.378 123.619 146.235 106.626 147.302 105.453L147.728 105.846C146.915 106.73 144.955 123.128 144.92 128.06Z" fill="#231F20"/>
<path d="M145.866 127.217L145.289 127.188C145.71 117.617 143.686 97.5171 143.663 97.315L144.24 97.2572C144.274 97.4594 146.304 117.6 145.866 127.217Z" fill="#231F20"/>
<path d="M139.361 113.811H149.902L149.164 125.808C149.037 127.887 147.498 129.498 145.647 129.498H143.605C141.754 129.498 140.22 127.887 140.093 125.808L139.361 113.811Z" fill="white"/>
<path d="M145.652 129.793H143.611C141.61 129.793 139.938 128.06 139.799 125.825L139.061 113.828C139.059 113.788 139.065 113.747 139.079 113.709C139.093 113.671 139.115 113.636 139.143 113.607C139.171 113.577 139.205 113.554 139.242 113.539C139.28 113.523 139.32 113.516 139.361 113.517H149.903C149.943 113.515 149.983 113.523 150.02 113.539C150.057 113.555 150.089 113.579 150.116 113.609C150.144 113.638 150.166 113.672 150.18 113.71C150.194 113.748 150.2 113.788 150.197 113.828L149.464 125.854C149.326 128.055 147.654 129.793 145.652 129.793ZM139.678 114.111L140.393 125.79C140.514 127.702 141.927 129.198 143.611 129.198H145.652C147.342 129.198 148.755 127.702 148.87 125.79L149.591 114.111H139.678Z" fill="#231F20"/>
<path d="M27.5432 96.1425H26.3264C26.2499 96.1425 26.1766 96.1121 26.1225 96.058C26.0685 96.0038 26.0381 95.9303 26.0381 95.8537C26.0396 95.7776 26.0704 95.705 26.1242 95.6512C26.1779 95.5973 26.2504 95.5664 26.3264 95.5649H27.5432C27.6197 95.5649 27.693 95.5954 27.7471 95.6495C27.8012 95.7037 27.8315 95.7771 27.8315 95.8537C27.8315 95.9303 27.8012 96.0038 27.7471 96.058C27.693 96.1121 27.6197 96.1425 27.5432 96.1425ZM24.5964 96.1425H22.8664C22.7899 96.1425 22.7165 96.1121 22.6625 96.058C22.6084 96.0038 22.578 95.9303 22.578 95.8537C22.5795 95.7776 22.6103 95.705 22.6641 95.6512C22.7179 95.5973 22.7903 95.5664 22.8664 95.5649H24.5964C24.6729 95.5649 24.7462 95.5954 24.8003 95.6495C24.8543 95.7037 24.8847 95.7771 24.8847 95.8537C24.8847 95.9303 24.8543 96.0038 24.8003 96.058C24.7462 96.1121 24.6729 96.1425 24.5964 96.1425ZM21.1363 96.1425H19.4063C19.3298 96.1425 19.2565 96.1121 19.2024 96.058C19.1483 96.0038 19.118 95.9303 19.118 95.8537C19.1194 95.7776 19.1503 95.705 19.204 95.6512C19.2578 95.5973 19.3303 95.5664 19.4063 95.5649H21.1363C21.2128 95.5649 21.2861 95.5954 21.3402 95.6495C21.3943 95.7037 21.4247 95.7771 21.4247 95.8537C21.4247 95.9303 21.3943 96.0038 21.3402 96.058C21.2861 96.1121 21.2128 96.1425 21.1363 96.1425ZM17.6763 96.1425H15.9462C15.8698 96.1425 15.7964 96.1121 15.7423 96.058C15.6883 96.0038 15.6579 95.9303 15.6579 95.8537C15.6594 95.7776 15.6902 95.705 15.744 95.6512C15.7977 95.5973 15.8702 95.5664 15.9462 95.5649H17.6763C17.7527 95.5649 17.8261 95.5954 17.8801 95.6495C17.9342 95.7037 17.9646 95.7771 17.9646 95.8537C17.9646 95.9303 17.9342 96.0038 17.8801 96.058C17.8261 96.1121 17.7527 96.1425 17.6763 96.1425ZM14.2162 96.1425H12.4862C12.4097 96.1425 12.3363 96.1121 12.2823 96.058C12.2282 96.0038 12.1978 95.9303 12.1978 95.8537C12.1993 95.7776 12.2301 95.705 12.2839 95.6512C12.3377 95.5973 12.4102 95.5664 12.4862 95.5649H14.2162C14.2927 95.5649 14.366 95.5954 14.4201 95.6495C14.4742 95.7037 14.5045 95.7771 14.5045 95.8537C14.5045 95.9303 14.4742 96.0038 14.4201 96.058C14.366 96.1121 14.2927 96.1425 14.2162 96.1425ZM10.7561 96.1425H9.0261C8.94962 96.1425 8.87628 96.1121 8.82221 96.058C8.76814 96.0038 8.73776 95.9303 8.73776 95.8537C8.73923 95.7776 8.77008 95.705 8.82384 95.6512C8.8776 95.5973 8.95009 95.5664 9.0261 95.5649H10.7561C10.8326 95.5649 10.9059 95.5954 10.96 95.6495C11.0141 95.7037 11.0445 95.7771 11.0445 95.8537C11.0445 95.9303 11.0141 96.0038 10.96 96.058C10.9059 96.1121 10.8326 96.1425 10.7561 96.1425ZM7.29606 96.1425H5.56603C5.48956 96.1425 5.41622 96.1121 5.36214 96.058C5.30807 96.0038 5.27769 95.9303 5.27769 95.8537C5.27917 95.7776 5.31002 95.705 5.36378 95.6512C5.41753 95.5973 5.49002 95.5664 5.56603 95.5649H7.29606C7.37254 95.5649 7.44588 95.5954 7.49995 95.6495C7.55402 95.7037 7.5844 95.7771 7.5844 95.8537C7.5844 95.9303 7.55402 96.0038 7.49995 96.058C7.44588 96.1121 7.37254 96.1425 7.29606 96.1425ZM3.836 96.1425H2.10597C2.02949 96.1425 1.95615 96.1121 1.90208 96.058C1.84801 96.0038 1.81763 95.9303 1.81763 95.8537C1.8191 95.7776 1.84995 95.705 1.90371 95.6512C1.95747 95.5973 2.02996 95.5664 2.10597 95.5649H3.836C3.91247 95.5649 3.98581 95.5954 4.03988 95.6495C4.09396 95.7037 4.12434 95.7771 4.12434 95.8537C4.12434 95.9303 4.09396 96.0038 4.03988 96.058C3.98581 96.1121 3.91247 96.1425 3.836 96.1425Z" fill="#D1D3D4"/>
<path d="M71.9819 68.2158C71.9455 68.2159 71.9094 68.2088 71.8758 68.1949C71.8421 68.181 71.8116 68.1607 71.7858 68.1349C71.5537 67.8896 71.2749 67.6932 70.966 67.5573C70.657 67.4214 70.324 67.3488 69.9866 67.3436C69.9368 67.3443 69.888 67.3306 69.8458 67.3043C69.8036 67.2779 69.7698 67.2399 69.7485 67.1949C69.7273 67.1498 69.7194 67.0996 69.7258 67.0502C69.7322 67.0008 69.7527 66.9543 69.7847 66.9162L73.5158 62.2955C73.5377 62.268 73.5648 62.2452 73.5955 62.2283C73.6262 62.2114 73.66 62.2007 73.6948 62.197C73.7297 62.1932 73.7649 62.1964 73.7986 62.2064C73.8322 62.2163 73.8635 62.2329 73.8907 62.2551C73.935 62.2919 73.9656 62.3429 73.9772 62.3994C74.3587 62.5629 74.7797 62.6111 75.1882 62.5381C75.2388 62.5295 75.2908 62.5359 75.3379 62.5564C75.385 62.5769 75.4251 62.6107 75.4535 62.6536C75.4806 62.6969 75.495 62.7469 75.495 62.798C75.495 62.8491 75.4806 62.8991 75.4535 62.9424L72.201 68.0945C72.1806 68.1291 72.152 68.1582 72.1179 68.1794C72.0837 68.2005 72.045 68.213 72.0049 68.2158H71.9819ZM70.4998 66.8642C71.0264 66.9632 71.5188 67.1959 71.93 67.54L74.7384 63.0983C74.3905 63.0856 74.0481 63.0072 73.7292 62.8673L70.4998 66.8642Z" fill="#231F20"/>
<path d="M33.754 68.3603C33.7008 68.359 33.6489 68.343 33.6041 68.3141C33.5685 68.2896 33.5394 68.2569 33.5193 68.2186C33.4992 68.1804 33.4887 68.1378 33.4888 68.0946V66.8008C33.4887 66.7624 33.4969 66.7244 33.5128 66.6895C33.5287 66.6546 33.552 66.6236 33.581 66.5986C35.2534 65.1488 38.4713 64.9525 38.6097 64.9409C38.6457 64.9394 38.6817 64.9453 38.7154 64.9582C38.7491 64.9711 38.7799 64.9908 38.8057 65.016C38.8318 65.0403 38.8524 65.0699 38.8664 65.1027C38.8803 65.1355 38.8871 65.1709 38.8865 65.2066V67.3379C38.8866 67.3763 38.8784 67.4142 38.8625 67.4491C38.8465 67.484 38.8232 67.515 38.7942 67.5401C38.7658 67.5644 38.7328 67.5826 38.697 67.5936C38.6613 67.6045 38.6237 67.6079 38.5866 67.6036C36.4125 67.2917 33.8751 68.3256 33.8521 68.3372C33.8216 68.3524 33.7881 68.3603 33.754 68.3603ZM33.9905 66.9394V67.7307C35.3802 67.2169 36.859 66.989 38.3386 67.0607V65.4954C37.5716 65.5705 35.2995 65.8824 33.9905 66.9394Z" fill="#231F20"/>
<path d="M45.8758 40.9477H45.8181C43.3326 40.3701 42.0063 37.2395 41.9486 37.1067C41.9297 37.0567 41.9256 37.0023 41.9369 36.95C41.9481 36.8978 41.9742 36.8499 42.0121 36.8121L43.7421 35.1891C43.7759 35.1584 43.8167 35.1365 43.861 35.1254C43.9053 35.1143 43.9516 35.1144 43.9958 35.1255C44.0405 35.1391 44.0807 35.1646 44.1122 35.1991C44.1436 35.2337 44.1652 35.2761 44.1746 35.3219C44.5783 37.0201 46.7466 38.2099 47.1791 38.3947C47.2423 38.4297 47.2898 38.4875 47.3117 38.5565C47.326 38.5892 47.3334 38.6246 47.3334 38.6604C47.3334 38.6962 47.326 38.7316 47.3117 38.7644L46.1007 40.8033C46.0798 40.8455 46.0478 40.8813 46.0082 40.9067C45.9686 40.9321 45.9228 40.9463 45.8758 40.9477ZM42.5138 37.0605C42.8021 37.6727 43.9382 39.8387 45.7489 40.3759L46.6774 38.7182C45.9104 38.2965 44.3707 37.2973 43.794 35.8302L42.5138 37.0605Z" fill="#231F20"/>
<path d="M20.0003 90.6206C17.6474 90.6206 16.3499 87.4959 16.298 87.363C16.2786 87.3195 16.272 87.2713 16.2792 87.2242C16.2863 87.1771 16.3069 87.133 16.3384 87.0973L17.5263 85.636C17.5575 85.5943 17.6011 85.5635 17.6507 85.5479C17.7004 85.5324 17.7537 85.5329 17.8031 85.5494C17.8534 85.5621 17.8987 85.5899 17.9327 85.6292C17.9667 85.6684 17.9879 85.7172 17.9934 85.7689C18.2068 87.3977 19.5793 87.8482 20.4847 88.1485C20.9229 88.2929 21.2113 88.3911 21.3208 88.6106C21.342 88.6496 21.3532 88.6933 21.3532 88.7377C21.3532 88.7821 21.342 88.8258 21.3208 88.8647L20.3463 90.4878C20.3241 90.5251 20.293 90.5563 20.2557 90.5785C20.2185 90.6007 20.1762 90.6132 20.1329 90.6149L20.0003 90.6206ZM16.8458 87.3052C17.1169 87.8828 18.2414 90.0604 19.9599 90.095L20.7384 88.7954C20.6231 88.7492 20.4616 88.6972 20.3232 88.651C19.5043 88.3796 18.0626 87.9059 17.5897 86.3926L16.8458 87.3052Z" fill="#231F20"/>
<path d="M55.1081 86.2368C55.0694 86.2358 55.0313 86.2265 54.9965 86.2096C54.9617 86.1927 54.9309 86.1685 54.9062 86.1386L54.0239 85.0354C53.9977 85.0004 53.9803 84.9594 53.9732 84.9162C53.9662 84.8729 53.9697 84.8286 53.9835 84.787C54.3295 83.7416 56.3767 82.2861 56.6074 82.1243C56.639 82.1001 56.6761 82.0842 56.7154 82.0781C56.7547 82.0721 56.795 82.076 56.8323 82.0897C56.8702 82.0993 56.9052 82.118 56.9344 82.1442C56.9635 82.1703 56.9859 82.2032 56.9996 82.2399L57.5474 83.5568C57.5617 83.5896 57.5691 83.625 57.5691 83.6607C57.5691 83.6965 57.5617 83.7319 57.5474 83.7647C57.5344 83.7982 57.5142 83.8285 57.4883 83.8534C57.4624 83.8783 57.4314 83.8974 57.3975 83.9091C56.3018 84.3076 55.3503 86.0751 55.3445 86.0924C55.3242 86.1316 55.2947 86.1652 55.2585 86.1903C55.2223 86.2155 55.1806 86.2314 55.1369 86.2368H55.1081ZM54.5314 84.8275L55.0735 85.5033C55.5333 84.6983 56.1827 84.0182 56.965 83.5221L56.642 82.7481C55.9846 83.2449 54.8543 84.1748 54.5314 84.8448V84.8275Z" fill="#231F20"/>
</svg>
