<svg width="188" height="160" viewBox="0 0 188 160" fill="none" xmlns="http://www.w3.org/2000/svg">
<g filter="url(#filter0_d)">
<path d="M48.4542 34.0042L48.3766 29.0702H52.8835L53.5107 35.1526L48.4542 34.0042Z" fill="white"/>
<path d="M53.5105 35.4685H53.4329L48.3764 34.3202C48.3063 34.3044 48.2438 34.2659 48.1991 34.2108C48.1545 34.1558 48.1303 34.0875 48.1307 34.0173L48.0531 29.0832C48.0535 28.9992 48.0858 28.9183 48.1436 28.8561C48.2061 28.7968 48.2893 28.763 48.3764 28.7615H52.9027C52.982 28.7626 53.0581 28.7922 53.1165 28.8445C53.175 28.8969 53.2116 28.9684 53.2195 29.0454L53.8661 35.1278C53.8696 35.1782 53.8615 35.2286 53.8425 35.2755C53.8235 35.3225 53.794 35.3647 53.7562 35.3991C53.7223 35.4264 53.683 35.4466 53.6407 35.4585C53.5985 35.4705 53.5542 35.4739 53.5105 35.4685ZM48.7579 33.7271L53.129 34.724L52.5729 29.3609H48.6932L48.7579 33.7271Z" fill="#231F20"/>
<path d="M52.8832 29.0705L53.5298 25.9599C53.5298 25.9599 43.3715 22.8051 43.9082 24.2878C44.4449 25.7706 48.3957 29.0705 48.3957 29.0705H52.8832Z" fill="#231F20"/>
<path d="M52.8834 29.3856H48.3571C48.2789 29.3864 48.2031 29.3595 48.1437 29.3099C47.9821 29.1711 44.1283 25.928 43.5722 24.3947C43.5322 24.3003 43.5207 24.1967 43.539 24.0961C43.5573 23.9955 43.6047 23.9021 43.6756 23.8269C44.5227 22.9751 50.8854 24.8238 53.5882 25.663C53.6644 25.6851 53.7293 25.7343 53.77 25.8009C53.8108 25.8675 53.8243 25.9467 53.8081 26.0226L53.1614 29.1332C53.1493 29.199 53.1156 29.2591 53.0655 29.3046C53.0153 29.3501 52.9515 29.3785 52.8834 29.3856ZM48.4929 28.7546H52.6377L53.155 26.174C49.3012 25.0005 44.9753 23.9783 44.2317 24.2622C44.7037 25.3853 47.3742 27.8082 48.4929 28.7546Z" fill="#231F20"/>
<path d="M46.0492 54.5859C46.0492 54.1127 47.8274 32.8116 47.8274 32.8116C47.8274 32.8116 54.4552 32.4961 54.2935 32.8116C54.1319 33.127 55.9101 54.5859 55.9101 54.5859H46.0492Z" fill="#231F20"/>
<path d="M55.9099 54.9019H46.049C45.9633 54.9019 45.881 54.8686 45.8204 54.8095C45.7598 54.7503 45.7257 54.6701 45.7257 54.5864C45.7257 54.1069 47.4328 33.6576 47.5039 32.7868C47.5115 32.7102 47.547 32.6388 47.604 32.5856C47.6609 32.5323 47.7355 32.5008 47.8143 32.4966C54.2804 32.1874 54.4485 32.4461 54.5649 32.6165C54.6133 32.6962 54.6294 32.7907 54.6102 32.8815C54.5391 33.5882 55.5413 46.2199 56.2332 54.5612C56.2362 54.6046 56.2303 54.6481 56.2158 54.6893C56.2014 54.7304 56.1787 54.7684 56.1491 54.8009C56.1184 54.8327 56.0813 54.8581 56.0401 54.8754C55.999 54.8928 55.9547 54.9018 55.9099 54.9019ZM46.3917 54.2709H55.5607C54.2157 37.9544 53.9894 34.0172 53.983 33.0266C53.2652 32.9383 50.6141 33.0266 48.1246 33.1086C47.5556 39.9545 46.5404 52.132 46.3917 54.2709Z" fill="#231F20"/>
<path d="M114.59 39.7967C114.59 39.7967 111.002 34.5787 111.655 33.0581C112.308 31.5375 112.786 28.7739 113.594 29.0389C114.403 29.3039 117.215 37.9039 117.215 37.9039L114.59 39.7967Z" fill="white"/>
<path d="M114.59 40.1126H114.532C114.489 40.106 114.448 40.0909 114.411 40.0681C114.374 40.0453 114.343 40.0153 114.318 39.9801C113.943 39.4312 110.658 34.5728 111.357 32.945C111.551 32.497 111.732 31.9165 111.906 31.3613C112.301 30.1309 112.631 29.0709 113.2 28.7933C113.279 28.7505 113.366 28.7245 113.457 28.7169C113.547 28.7093 113.638 28.7203 113.723 28.7491C114.57 29.0267 116.484 34.5476 117.545 37.816C117.567 37.8792 117.568 37.9479 117.547 38.0116C117.526 38.0753 117.484 38.1306 117.428 38.1693L114.79 40.0622C114.732 40.1019 114.661 40.1198 114.59 40.1126ZM113.478 29.3107C113.213 29.3485 112.747 30.8123 112.527 31.519C112.346 32.0932 112.159 32.6863 111.952 33.1595C111.544 34.1059 113.335 37.3301 114.667 39.3303L116.846 37.7655C115.56 33.8472 113.963 29.664 113.478 29.3107Z" fill="#231F20"/>
<path d="M31.5579 36.4781L28.8421 32.3895L25.0077 35.1279L27.2902 39.5446L31.5579 36.4781Z" fill="white"/>
<path d="M27.2907 39.8595H27.2131C27.1672 39.8474 27.1244 39.826 27.0877 39.7966C27.0509 39.7672 27.0209 39.7306 26.9997 39.6891L24.7171 35.2724C24.6836 35.2054 24.675 35.1292 24.6927 35.0567C24.7104 34.9842 24.7533 34.92 24.8141 34.8749L28.6486 32.1429C28.6841 32.1169 28.7247 32.0984 28.7679 32.0885C28.8111 32.0785 28.8559 32.0774 28.8996 32.0851C28.9433 32.0927 28.9849 32.1091 29.0218 32.1332C29.0587 32.1572 29.0901 32.1885 29.1141 32.2249L31.8299 36.3135C31.8756 36.38 31.8931 36.4613 31.8786 36.5401C31.8641 36.619 31.8188 36.6893 31.7523 36.7362L27.4782 39.8027C27.4243 39.8422 27.358 39.8623 27.2907 39.8595ZM25.422 35.2219L27.4071 39.0708L31.1251 36.4018L28.7585 32.8432L25.422 35.2219Z" fill="#231F20"/>
<path d="M28.8426 32.3887C28.8426 32.3887 26.6635 28.8364 26.573 29.0699C26.4824 29.3033 18.4515 34.597 18.5549 35.127C18.6584 35.657 25.0211 35.127 25.0211 35.127L28.8426 32.3887Z" fill="#231F20"/>
<path d="M20.4686 35.6767C18.3412 35.6767 18.2765 35.3802 18.2377 35.1846C18.1602 34.7871 18.6128 34.3075 24.0573 30.5029C25.0854 29.7836 26.1458 29.0391 26.3075 28.8876C26.3349 28.8492 26.3704 28.8169 26.4117 28.7929C26.453 28.769 26.499 28.7539 26.5467 28.7488C26.7795 28.7488 26.9541 28.7488 29.1332 32.2317C29.1759 32.2975 29.191 32.3768 29.1754 32.4532C29.1597 32.5296 29.1145 32.5971 29.0491 32.6418L25.2147 35.3802C25.1665 35.4119 25.1109 35.4315 25.0531 35.437C22.8934 35.6199 21.4708 35.6767 20.4686 35.6767ZM19.0137 34.989C20.9683 35.0702 22.9263 35.0112 24.872 34.8123L28.396 32.2885C27.6783 31.1275 26.8959 29.9224 26.5532 29.4744C26.2622 29.7016 25.6673 30.1054 24.4194 30.995C22.7705 32.1749 19.809 34.2444 19.0137 34.989Z" fill="#231F20"/>
<path d="M107.956 37.1727C108.667 37.4061 114.655 49.5142 116.485 48.8895C118.315 48.2649 112.902 39.3495 112.902 39.3495L117.765 35.9486C117.765 35.9486 130.173 53.8488 125.427 57.7418C120.681 61.6348 102.667 48.8012 102.667 48.8012L107.956 37.1727Z" fill="#FF5C64"/>
<path d="M106.048 34.4587C106.048 34.4587 99.8468 29.5435 93.5941 33.5943C87.3413 37.645 77.4675 44.7496 77.4675 44.7496L81.3925 59.7411C81.3925 59.7411 90.93 63.8613 102.213 58.4792C112.113 53.7533 112.624 46.1629 111.337 43.0082C110.05 39.8534 106.048 34.4587 106.048 34.4587Z" fill="#FF5C64"/>
<path d="M101.606 57.1156C101.553 57.1157 101.502 57.1031 101.455 57.0789C101.409 57.0546 101.37 57.0196 101.341 56.9768C101.316 56.9425 101.299 56.9038 101.29 56.863C101.281 56.8221 101.28 56.7799 101.288 56.7388C101.296 56.6977 101.312 56.6585 101.335 56.6236C101.359 56.5886 101.389 56.5585 101.425 56.5351C101.515 56.4783 110.206 50.7303 111.706 44.6731C111.726 44.5921 111.778 44.5221 111.851 44.4783C111.923 44.4346 112.011 44.4207 112.094 44.4397C112.177 44.4606 112.249 44.5126 112.294 44.5845C112.339 44.6565 112.353 44.7426 112.333 44.8246C110.775 51.1341 102.155 56.8127 101.787 57.0588C101.734 57.0954 101.671 57.1152 101.606 57.1156Z" fill="#231F20"/>
<path d="M105.557 19.6247C104.608 18.8492 103.509 18.2696 102.324 17.9211C100.281 17.2901 97.8945 17.1009 96.1293 18.2871C94.7067 19.2524 93.9631 20.9245 93.4976 22.5586C93.032 24.1928 92.7281 25.9027 91.9069 27.417C91.0857 28.9313 89.5338 30.1869 87.7944 30.0859C89.5725 30.8009 91.4565 31.2333 93.3747 31.3668C94.5043 31.4523 95.6256 31.1213 96.5173 30.4393C97.1613 29.7862 97.6357 28.9922 97.901 28.1237C98.2948 26.8402 98.9115 25.6322 99.7245 24.5525C100.139 24.0185 100.694 23.604 101.33 23.353C101.967 23.1019 102.661 23.0237 103.339 23.1265C104.503 23.3978 106.908 25.7134 107.865 24.0161C108.531 22.6911 106.462 20.4071 105.557 19.6247Z" fill="white"/>
<path d="M93.5105 31.6821H93.3747C91.4237 31.5453 89.5084 31.0999 87.7039 30.3634C87.6181 30.3466 87.5427 30.2974 87.4942 30.2264C87.4457 30.1554 87.4281 30.0685 87.4452 29.9848C87.4624 29.9011 87.5129 29.8275 87.5857 29.7802C87.6584 29.7329 87.7475 29.7157 87.8332 29.7324C89.5726 29.8208 90.9693 28.4705 91.6418 27.2086C92.1866 26.0976 92.5905 24.9259 92.8445 23.7194C92.9544 23.2904 93.0578 22.8613 93.1807 22.4575C93.8273 20.2744 94.6809 18.861 95.9417 18.0092C98.1014 16.5517 100.927 17.1259 102.408 17.5991C103.647 17.9558 104.796 18.5595 105.783 19.3721C106.714 20.1734 108.952 22.6026 108.105 24.1485C108.02 24.3269 107.897 24.4857 107.744 24.6141C107.591 24.7425 107.412 24.8376 107.219 24.893C106.372 25.1264 105.344 24.5333 104.438 24.016C104.062 23.7748 103.659 23.5778 103.236 23.4292C101.91 23.12 100.649 23.9465 99.9378 24.7542C99.1849 25.7517 98.608 26.8648 98.2308 28.0478L98.1661 28.2181C97.8937 29.1334 97.3991 29.971 96.7241 30.6599C95.8192 31.3766 94.6744 31.7407 93.5105 31.6821ZM89.1652 30.1993C90.5134 30.6912 91.9309 30.9784 93.3682 31.0511C94.4163 31.1337 95.4583 30.8322 96.2909 30.2056C96.8946 29.5844 97.338 28.8317 97.5841 28.0099L97.6488 27.8459C98.0423 26.5867 98.6571 25.404 99.4658 24.3504C99.9171 23.7694 100.522 23.3196 101.216 23.0494C101.91 22.7792 102.666 22.6989 103.404 22.8171C103.892 22.9802 104.357 23.2028 104.787 23.4796C105.544 23.9087 106.482 24.4513 107.063 24.2873C107.169 24.2548 107.266 24.2009 107.348 24.1291C107.431 24.0573 107.497 23.9693 107.542 23.8708C108.13 22.7919 106.288 20.6656 105.356 19.8643C104.438 19.1081 103.367 18.5473 102.214 18.2175C100.837 17.7821 98.2437 17.2395 96.3103 18.5456C95.1787 19.309 94.3705 20.6151 93.8015 22.6405C93.6851 23.0611 93.5751 23.4817 93.4717 23.9024C93.1967 25.1635 92.7623 26.3864 92.1785 27.543C91.5401 28.7577 90.4683 29.7026 89.1652 30.1993Z" fill="#231F20"/>
<path d="M106.352 20.9502C105.567 21.1734 104.884 21.6493 104.412 22.3004C104.057 22.7106 103.832 23.2127 103.765 23.7453C103.756 24.0685 103.823 24.3895 103.962 24.6829C104.101 24.9763 104.308 25.2342 104.567 25.4363C104.785 25.6341 105.071 25.7445 105.369 25.7455C105.615 25.7094 105.849 25.614 106.048 25.4678C107.496 24.5025 110.186 20.029 106.352 20.9502Z" fill="#231F20"/>
<path d="M105.337 26.0609C104.98 26.0452 104.639 25.9092 104.373 25.6761C104.076 25.4427 103.839 25.1449 103.681 24.8065C103.523 24.468 103.448 24.0982 103.461 23.7264C103.516 23.1323 103.755 22.5687 104.147 22.1112C104.674 21.3949 105.436 20.8761 106.307 20.641C107.8 20.2814 108.356 20.7357 108.563 21.1773C109.132 22.4393 107.373 24.9631 106.274 25.7265C106.028 25.9068 105.739 26.022 105.434 26.0609H105.337ZM106.429 21.2531C105.712 21.4676 105.09 21.9123 104.664 22.515C104.357 22.8745 104.162 23.3124 104.102 23.7769C104.096 24.05 104.155 24.3206 104.274 24.5679C104.393 24.8152 104.568 25.0324 104.787 25.2028C104.944 25.3461 105.148 25.4309 105.363 25.4426C105.55 25.411 105.726 25.3328 105.873 25.2155C106.837 24.5845 108.318 22.2752 107.936 21.4297C107.742 21.0007 106.908 21.1332 106.429 21.2468V21.2531Z" fill="#231F20"/>
<path d="M106.676 36.2816C105.906 36.3574 105.137 36.086 104.309 35.1396C103.651 34.3366 103.207 33.3872 103.016 32.376C102.626 30.4322 102.799 28.4209 103.515 26.5676C104.231 24.7143 105.462 23.0922 107.07 21.8832C110.368 19.4856 116.084 19.3594 118.159 23.3975C118.504 24.0821 118.693 24.8319 118.71 25.5947C118.728 26.3575 118.576 27.1149 118.263 27.8142C118.544 27.9422 118.781 28.1478 118.944 28.4057C119.108 28.6636 119.19 28.9625 119.181 29.2654C119.226 30.8176 118.36 31.6378 116.989 32.1804C114.745 33.0701 112.404 33.7389 110.2 34.7043C108.926 35.31 107.801 36.1681 106.676 36.2816Z" fill="white"/>
<path d="M106.437 36.6104C105.969 36.5869 105.514 36.4613 105.103 36.2429C104.692 36.0245 104.337 35.7188 104.063 35.3485C103.371 34.5138 102.906 33.5219 102.712 32.465C102.3 30.4625 102.474 28.3874 103.212 26.4763C103.951 24.5653 105.225 22.8953 106.889 21.6567C107.938 20.91 109.137 20.3871 110.407 20.1218C111.677 19.8566 112.99 19.855 114.261 20.1172C115.159 20.3012 116.003 20.6804 116.731 21.2265C117.459 21.7727 118.051 22.4718 118.464 23.272C118.81 23.9537 119.008 24.6975 119.047 25.4574C119.086 26.2172 118.965 26.9767 118.69 27.6887C118.946 27.8738 119.154 28.1143 119.299 28.3913C119.444 28.6682 119.521 28.9741 119.524 29.285C119.569 31.2914 118.179 32.0801 117.125 32.4966C116.2 32.8625 115.243 33.2032 114.319 33.525C113.025 33.9856 111.635 34.4652 110.349 35.0393C109.935 35.2286 109.527 35.4494 109.139 35.6703C108.402 36.1433 107.575 36.4692 106.708 36.6293L106.437 36.6104ZM112.385 20.5084C110.55 20.5128 108.763 21.0801 107.277 22.1299C105.725 23.3073 104.537 24.8802 103.843 26.675C103.149 28.4698 102.977 30.4168 103.346 32.301C103.518 33.2624 103.934 34.1667 104.555 34.9321C105.447 35.9542 106.171 36.0047 106.643 35.9605C107.422 35.8084 108.163 35.5083 108.823 35.0772C109.223 34.8627 109.637 34.6355 110.077 34.4462C111.37 33.8594 112.767 33.3799 114.099 32.913C115.017 32.5912 115.968 32.282 116.886 31.8908C118.308 31.3293 118.903 30.5469 118.877 29.2787C118.884 29.0393 118.821 28.8029 118.695 28.5974C118.569 28.3918 118.385 28.2254 118.166 28.1177C118.124 28.1026 118.086 28.0791 118.053 28.0486C118.021 28.0182 117.996 27.9816 117.979 27.9411C117.961 27.9012 117.952 27.8582 117.952 27.8149C117.952 27.7715 117.961 27.7286 117.979 27.6887C118.275 27.0342 118.42 26.324 118.403 25.6086C118.386 24.8932 118.208 24.1902 117.882 23.5496C117.511 22.831 116.98 22.2029 116.328 21.7114C115.675 21.22 114.918 20.8778 114.112 20.7103C113.546 20.5812 112.967 20.5156 112.385 20.5147V20.5084Z" fill="#231F20"/>
<path d="M115.489 31.834C115.489 31.834 115.844 35.2033 115.217 35.5377C114.59 35.8721 113.607 34.9446 113.607 34.9446" fill="white"/>
<path d="M114.913 35.9539C114.33 35.8732 113.79 35.6045 113.381 35.1904C113.351 35.1616 113.327 35.1273 113.311 35.0894C113.294 35.0514 113.286 35.0107 113.286 34.9696C113.286 34.9285 113.294 34.8877 113.311 34.8498C113.327 34.8119 113.351 34.7775 113.381 34.7488C113.411 34.7192 113.447 34.6957 113.486 34.6797C113.525 34.6637 113.568 34.6554 113.61 34.6554C113.653 34.6554 113.695 34.6637 113.735 34.6797C113.774 34.6957 113.81 34.7192 113.84 34.7488C114.17 35.0579 114.784 35.4491 115.069 35.2977C115.353 35.1463 115.347 33.5058 115.178 31.8968C115.17 31.8132 115.196 31.7296 115.25 31.6645C115.305 31.5994 115.384 31.5582 115.469 31.5498C115.555 31.5414 115.641 31.5667 115.708 31.6199C115.774 31.6731 115.816 31.7501 115.825 31.8337C115.967 33.1714 116.097 35.4617 115.385 35.8466C115.241 35.923 115.078 35.96 114.913 35.9539Z" fill="#231F20"/>
<path d="M106.061 43.5259C103.766 41.6898 102.181 36.1752 102.181 36.068C103.119 34.3459 104.146 32.6717 105.259 31.0519C105.259 31.0519 107.096 32.0046 109.339 30.4209C111.583 28.8372 113.685 30.2316 116.866 28.3766C117.513 29.7837 116.219 31.4368 115.573 32.6103C114.713 34.2698 113.743 35.8976 112.773 37.5129C112.126 38.535 109.346 37.1343 109.023 36.5664C108.285 38.27 108.285 38.27 106.061 43.5259Z" fill="white"/>
<path d="M106.061 43.8218C105.988 43.8209 105.917 43.7965 105.86 43.7524C103.571 41.9289 101.728 36.3008 101.922 35.9159C102.864 34.1817 103.898 32.4968 105.02 30.8682C105.064 30.8025 105.131 30.7556 105.209 30.7368C105.288 30.7181 105.37 30.729 105.44 30.7673C105.511 30.7988 107.141 31.6001 109.177 30.1363C110.2 29.4723 111.409 29.133 112.637 29.1647C114.075 29.161 115.487 28.7866 116.73 28.0794C116.769 28.0548 116.814 28.0389 116.86 28.0329C116.906 28.027 116.953 28.0311 116.998 28.0449C117.042 28.0588 117.083 28.0821 117.117 28.1131C117.151 28.1442 117.178 28.1822 117.195 28.2245C117.771 29.5432 116.924 30.9692 116.239 32.1112C116.109 32.3321 115.98 32.5403 115.876 32.7422C114.971 34.4016 114.014 36.0484 113.044 37.651C112.922 37.8296 112.752 37.9722 112.552 38.0634C112.353 38.1546 112.132 38.1909 111.913 38.1684C110.901 38.0695 109.937 37.7006 109.126 37.1021L106.365 43.6262C106.346 43.6721 106.316 43.7131 106.278 43.746C106.239 43.7788 106.194 43.8026 106.145 43.8155L106.061 43.8218ZM102.55 36.0989C102.692 36.7298 104.024 41.096 105.938 42.97C107.988 38.1242 108.007 38.0801 108.718 36.427C108.741 36.3718 108.779 36.324 108.828 36.2893C108.877 36.2546 108.936 36.2345 108.996 36.2314C109.056 36.2259 109.117 36.238 109.17 36.2661C109.223 36.2942 109.266 36.337 109.294 36.3891C110.026 37.0318 110.947 37.4335 111.926 37.5375C112.03 37.5547 112.137 37.5445 112.236 37.5079C112.335 37.4713 112.422 37.4096 112.488 37.3292C113.458 35.7392 114.428 34.0924 115.301 32.4456L115.676 31.8147C116.226 30.8998 116.885 29.7893 116.711 28.8366C115.463 29.4626 114.084 29.7974 112.682 29.8145C111.569 29.7779 110.471 30.0776 109.54 30.6726C108.97 31.1292 108.292 31.439 107.568 31.5735C106.844 31.708 106.096 31.6629 105.395 31.4424C104.916 32.1806 103.293 34.6287 102.55 36.1178V36.0989Z" fill="#231F20"/>
<path d="M113.419 36.2503C113.196 36.274 112.97 36.2506 112.758 36.1817C112.545 36.1128 112.349 36 112.185 35.851C112.021 35.702 111.891 35.5202 111.805 35.3181C111.719 35.1159 111.678 34.898 111.686 34.6793" fill="white"/>
<path d="M113.316 36.5721C112.789 36.5796 112.276 36.4003 111.874 36.0673C111.689 35.8861 111.545 35.6688 111.451 35.4297C111.357 35.1905 111.317 34.9348 111.331 34.6792C111.333 34.596 111.367 34.5167 111.427 34.4579C111.488 34.3991 111.569 34.3653 111.654 34.3637C111.741 34.3654 111.823 34.4 111.883 34.4602C111.944 34.5203 111.978 34.6012 111.978 34.6855C111.965 34.8534 111.988 35.0221 112.046 35.1807C112.104 35.3393 112.195 35.4844 112.314 35.6067C112.613 35.8366 112.987 35.9531 113.368 35.9348C113.454 35.9289 113.538 35.9566 113.603 36.0116C113.668 36.0666 113.708 36.1445 113.714 36.2282C113.72 36.3119 113.691 36.3944 113.635 36.4577C113.579 36.521 113.499 36.5599 113.413 36.5657L113.316 36.5721Z" fill="#231F20"/>
<path d="M109.017 36.5665C108.624 36.3378 108.283 36.0327 108.016 35.6702C107.749 35.3076 107.561 34.8954 107.465 34.4591C107.465 34.4591 106.171 37.046 108.014 38.9136L109.017 36.5665Z" fill="#231F20"/>
<path d="M108.014 39.2292C107.926 39.2266 107.842 39.1904 107.781 39.1283C105.841 37.1281 107.135 34.4339 107.167 34.3204C107.198 34.2582 107.249 34.2075 107.312 34.1757C107.375 34.1439 107.446 34.1326 107.516 34.1437C107.585 34.1556 107.649 34.1892 107.696 34.2393C107.744 34.2893 107.774 34.3532 107.781 34.4213C107.871 34.8126 108.041 35.182 108.281 35.5074C108.521 35.8327 108.826 36.1072 109.178 36.3142C109.244 36.3535 109.294 36.4142 109.319 36.4857C109.344 36.5572 109.342 36.635 109.314 36.7054L108.318 39.0525C108.297 39.1007 108.264 39.1431 108.222 39.1761C108.181 39.2091 108.131 39.2317 108.079 39.2418L108.014 39.2292ZM107.464 35.4435C107.333 35.9238 107.306 36.4256 107.386 36.9167C107.465 37.4078 107.648 37.8774 107.924 38.2954L108.615 36.6738C108.15 36.3499 107.758 35.9353 107.464 35.4561V35.4435Z" fill="#231F20"/>
<path d="M115.584 30.9035C115.782 30.5887 115.84 30.2713 115.712 30.1944C115.584 30.1176 115.319 30.3104 115.12 30.6251C114.922 30.9399 114.865 31.2573 114.992 31.3342C115.12 31.411 115.385 31.2182 115.584 30.9035Z" fill="#231F20"/>
<path d="M111.564 30.9442C111.742 30.5031 111.789 30.0221 111.7 29.5561C111.682 29.1919 111.608 28.8323 111.48 28.4898C111.416 28.3186 111.314 28.1635 111.181 28.0358C111.047 27.9081 110.887 27.811 110.71 27.7516C110.55 27.7132 110.382 27.7086 110.22 27.738C110.057 27.7673 109.902 27.83 109.766 27.9219C109.499 28.1119 109.278 28.3576 109.12 28.6412C108.759 29.2524 108.569 29.9454 108.569 30.6508C108.569 31.3562 108.759 32.0492 109.12 32.6604L109.081 32.509" fill="white"/>
<path d="M109.107 32.9754C109.05 32.9745 108.995 32.9595 108.946 32.9319C108.898 32.9043 108.857 32.865 108.828 32.8177C108.441 32.157 108.236 31.4087 108.236 30.6472C108.236 29.8857 108.441 29.1375 108.828 28.4767C109.013 28.1538 109.269 27.8755 109.579 27.6628C109.753 27.5426 109.952 27.4611 110.162 27.424C110.372 27.387 110.588 27.3952 110.794 27.4483C111.018 27.5191 111.222 27.6389 111.392 27.7986C111.561 27.9582 111.69 28.1535 111.771 28.3695C111.913 28.7415 111.994 29.1335 112.01 29.5304C112.106 30.0529 112.048 30.5913 111.842 31.0826C111.803 31.1569 111.736 31.2132 111.654 31.2392C111.573 31.2652 111.485 31.2588 111.408 31.2214C111.37 31.2033 111.336 31.1779 111.308 31.1466C111.28 31.1154 111.259 31.0789 111.245 31.0395C111.232 31 111.227 30.9584 111.231 30.917C111.234 30.8756 111.246 30.8354 111.266 30.7986C111.411 30.411 111.445 29.9921 111.363 29.5872C111.348 29.2542 111.285 28.925 111.176 28.6092C111.13 28.4819 111.055 28.3661 110.958 28.2701C110.861 28.1741 110.743 28.1003 110.613 28.054C110.502 28.0327 110.387 28.0334 110.276 28.0562C110.165 28.0789 110.06 28.1233 109.967 28.1865C109.733 28.3518 109.543 28.5679 109.41 28.8174C109.102 29.3395 108.927 29.9269 108.903 30.5292C108.878 31.1314 109.003 31.7306 109.268 32.2751C109.33 32.3146 109.374 32.3755 109.391 32.4454L109.436 32.5969C109.455 32.6705 109.447 32.7483 109.412 32.8164C109.378 32.8845 109.32 32.9386 109.249 32.9691C109.202 32.9791 109.154 32.9813 109.107 32.9754Z" fill="#231F20"/>
<path d="M77.4677 44.7494C74.4545 43.5316 67.2642 45.0144 62.7314 46.4845C58.1986 47.9547 43.2554 51.9549 43.2554 51.9549L32.3535 35.1273C32.3535 35.1273 24.5941 37.8593 25.0274 38.4903C25.4606 39.1213 32.7867 56.195 40.1193 59.6526C47.4519 63.1102 82.2139 59.9428 82.2139 59.9428L77.4677 44.7494Z" fill="#231F20"/>
<path d="M55.4896 61.5899C48.7261 61.5899 42.635 61.1861 39.9709 59.9368C35.6774 57.9114 30.7179 51.1034 25.2346 39.6452C25.0018 39.1594 24.7949 38.7366 24.7496 38.6672C24.7137 38.6126 24.691 38.5507 24.6831 38.4862C24.6753 38.4217 24.6825 38.3563 24.7044 38.295C24.9759 37.4937 29.541 35.7711 32.2374 34.831C32.3061 34.8056 32.3818 34.8043 32.4514 34.8273C32.5209 34.8504 32.5802 34.8963 32.6189 34.9572L43.398 51.5892C45.299 51.0782 58.4641 47.5385 62.6282 46.1882C66.3139 44.9894 74.1832 43.0839 77.5909 44.4594C77.6344 44.478 77.6732 44.5058 77.7045 44.5407C77.7358 44.5756 77.7588 44.6168 77.7719 44.6613L82.5181 59.8548C82.5311 59.8991 82.5343 59.9456 82.5276 59.9913C82.521 60.037 82.5045 60.0807 82.4793 60.1198C82.4529 60.1591 82.4176 60.1921 82.3761 60.2162C82.3347 60.2402 82.2881 60.2547 82.24 60.2586C81.3412 60.3406 67.3809 61.5899 55.4896 61.5899ZM25.3639 38.4464C25.448 38.6041 25.5837 38.8881 25.823 39.3802C31.2416 50.687 36.0977 57.4067 40.2554 59.3689C47.0125 62.5237 77.9336 59.9999 81.7939 59.6655L77.2094 44.9894C74.1315 43.8789 66.967 45.4437 62.8352 46.7813C58.3477 48.2452 43.4949 52.2202 43.3398 52.258C43.2737 52.2755 43.2037 52.2721 43.1398 52.2483C43.0759 52.2245 43.0214 52.1815 42.9841 52.1255L32.2245 35.5061C29.1401 36.604 25.8877 37.9416 25.3639 38.4464Z" fill="#231F20"/>
<path d="M107.056 59.8792V57.2733H124.651L131.88 39.7958H157.428L149.041 57.1913V59.8792H107.056Z" fill="white"/>
<path d="M149.041 60.2278H107.057C106.971 60.2262 106.89 60.1924 106.83 60.1336C106.77 60.0748 106.735 59.9955 106.733 59.9123V57.3064C106.733 57.2228 106.767 57.1425 106.828 57.0834C106.889 57.0242 106.971 56.991 107.057 56.991H124.412L131.525 39.7091C131.548 39.6509 131.589 39.6011 131.642 39.5662C131.695 39.5313 131.758 39.5129 131.822 39.5135H157.37C157.424 39.5135 157.477 39.5269 157.524 39.5522C157.572 39.5776 157.612 39.6141 157.641 39.6586C157.667 39.7052 157.68 39.7572 157.68 39.81C157.68 39.8628 157.667 39.9148 157.641 39.9614L149.365 57.2623V59.8807C149.369 59.9247 149.364 59.9692 149.35 60.0112C149.336 60.0532 149.313 60.0918 149.282 60.1245C149.252 60.1572 149.214 60.1833 149.173 60.2011C149.132 60.2189 149.087 60.228 149.041 60.2278ZM107.38 59.5968H148.718V57.2244C148.719 57.1764 148.73 57.1291 148.75 57.0856L156.917 40.1444H132.1L124.987 57.4263C124.961 57.4839 124.919 57.533 124.865 57.5677C124.811 57.6024 124.748 57.6212 124.683 57.6219H107.38V59.5968Z" fill="#231F20"/>
<path d="M89.2753 37.5123C89.2753 37.5123 92.1915 59.3939 94.2348 59.9239C96.2781 60.4539 117.06 56.2076 117.06 56.2076L115.644 49.1156C115.644 49.1156 100.727 51.7025 100.973 49.1156C101.218 46.5287 99.3042 36.7804 99.3042 36.7804L89.2753 37.5123Z" fill="#FF5C64"/>
<path d="M94.3379 59.8872C93.5946 59.9027 92.8516 59.8457 92.12 59.7168C90.6716 59.414 89.6112 57.9754 88.9645 55.4263C88.2015 52.341 88.2015 48.4227 88.2727 46.3469C88.2727 46.2964 88.4731 41.2992 89.068 40.8323C89.1329 40.7892 89.2116 40.7705 89.2895 40.7798C89.3674 40.7892 89.4392 40.8258 89.4914 40.883C89.5436 40.9401 89.5728 41.0139 89.5734 41.0905C89.574 41.1671 89.5461 41.2413 89.4948 41.2992C89.0809 42.0311 88.027 52.1264 90.1414 56.9469C90.691 58.2089 91.3958 58.9155 92.2429 59.0922C97.1442 60.1143 116.782 55.9374 116.982 55.9374C117.024 55.9282 117.066 55.9271 117.108 55.9342C117.15 55.9413 117.189 55.9564 117.225 55.9788C117.26 56.0011 117.291 56.0302 117.315 56.0643C117.339 56.0983 117.355 56.1367 117.364 56.1772C117.373 56.2178 117.375 56.2598 117.367 56.3009C117.36 56.342 117.345 56.3812 117.322 56.4164C117.299 56.4516 117.269 56.4821 117.234 56.506C117.199 56.5299 117.16 56.5468 117.118 56.5557C116.413 56.6819 101.283 59.8872 94.3379 59.8872Z" fill="#231F20"/>
<path d="M102.575 50.6301C102.109 50.6246 101.663 50.4411 101.334 50.119C98.7474 47.7529 98.9673 37.2286 98.9802 36.7806C98.9802 36.6969 99.0143 36.6167 99.0749 36.5575C99.1356 36.4984 99.2178 36.4651 99.3035 36.4651C99.3893 36.4651 99.4715 36.4984 99.5322 36.5575C99.5928 36.6167 99.6268 36.6969 99.6268 36.7806C99.6268 36.8879 99.3941 47.469 101.774 49.6395C101.888 49.7577 102.028 49.8496 102.184 49.9086C102.339 49.9675 102.506 49.992 102.672 49.9802C106.365 49.6584 115.521 48.8003 115.605 48.794C115.647 48.7897 115.689 48.7936 115.73 48.8056C115.771 48.8177 115.808 48.8375 115.841 48.864C115.873 48.8904 115.9 48.923 115.92 48.9598C115.939 48.9965 115.951 49.0367 115.954 49.0779C115.958 49.1191 115.954 49.1606 115.942 49.2002C115.93 49.2398 115.909 49.2765 115.882 49.3083C115.855 49.3401 115.822 49.3662 115.784 49.3852C115.746 49.4041 115.705 49.4155 115.663 49.4187C115.572 49.4187 106.416 50.2894 102.731 50.6049L102.575 50.6301Z" fill="#231F20"/>
<path d="M116.484 50.3141C116.484 50.3141 120.907 47.3738 121.729 48.1184C122.55 48.8629 126.307 53.5888 125.298 53.9421C124.289 54.2954 122.647 52.6045 122.647 52.6045C122.647 52.6045 121.664 54.1188 117.765 53.5888L116.484 50.3141Z" fill="white"/>
<path d="M125 54.3089C124.121 54.3089 123.118 53.4887 122.653 53.047C122.136 53.5013 120.758 54.3089 117.719 53.8862C117.661 53.8791 117.606 53.8565 117.561 53.8208C117.515 53.7852 117.48 53.7379 117.461 53.6843L116.167 50.4096C116.14 50.3439 116.137 50.2711 116.158 50.2033C116.179 50.1356 116.224 50.077 116.284 50.0373C117.68 49.1161 121.017 47.0529 121.929 47.8731C122.459 48.3464 126.015 52.5485 125.757 53.7978C125.739 53.8946 125.696 53.9851 125.631 54.0604C125.566 54.1357 125.483 54.1931 125.388 54.2269C125.264 54.2746 125.133 54.3023 125 54.3089ZM122.646 52.2898C122.69 52.2904 122.733 52.2997 122.773 52.317C122.813 52.3344 122.849 52.3595 122.879 52.3908C123.448 52.9713 124.554 53.8231 125.149 53.6527C125.259 52.9334 122.465 49.1982 121.508 48.3401C121.185 48.0435 119.051 49.0152 116.879 50.4285L117.997 53.2931C121.437 53.7095 122.362 52.4413 122.375 52.4287C122.401 52.3887 122.436 52.355 122.478 52.3299C122.519 52.3048 122.566 52.289 122.614 52.2835L122.646 52.2898Z" fill="#231F20"/>
<path d="M46.0487 50.6301C45.9629 50.6393 45.877 50.6149 45.8097 50.5622C45.7424 50.5096 45.6992 50.433 45.6898 50.3493C45.6804 50.2656 45.7054 50.1817 45.7594 50.1161C45.8133 50.0504 45.8918 50.0083 45.9776 49.9991L55.8707 47.8854C55.9124 47.8771 55.9552 47.8769 55.9969 47.8848C56.0386 47.8927 56.0783 47.9085 56.1137 47.9313C56.1492 47.9542 56.1796 47.9836 56.2034 48.018C56.2272 48.0523 56.2438 48.0909 56.2522 48.1315C56.2696 48.2126 56.2535 48.2971 56.2076 48.3667C56.1616 48.4364 56.0894 48.4856 56.0065 48.5037L46.1457 50.6238L46.0487 50.6301Z" fill="white"/>
<path d="M148.764 57.5897H124.651C124.566 57.5881 124.485 57.5543 124.425 57.4955C124.364 57.4367 124.33 57.3574 124.328 57.2742C124.328 57.1905 124.362 57.1103 124.423 57.0511C124.483 56.9919 124.566 56.9587 124.651 56.9587H148.764C148.849 56.9587 148.932 56.9919 148.992 57.0511C149.053 57.1103 149.087 57.1905 149.087 57.2742C149.087 57.3579 149.053 57.4381 148.992 57.4973C148.932 57.5564 148.849 57.5897 148.764 57.5897Z" fill="#231F20"/>
<path d="M155.307 65.0538H28.532V150.403H155.307V65.0538Z" fill="#231F20"/>
<path d="M155.307 150.713H28.5324C28.4478 150.713 28.3665 150.681 28.3061 150.623C28.2456 150.565 28.2108 150.487 28.2091 150.404V65.0545C28.2091 64.9708 28.2432 64.8906 28.3038 64.8314C28.3644 64.7723 28.4467 64.739 28.5324 64.739H155.307C155.393 64.739 155.475 64.7723 155.536 64.8314C155.597 64.8906 155.631 64.9708 155.631 65.0545V150.404C155.631 150.445 155.622 150.486 155.606 150.524C155.59 150.562 155.566 150.596 155.536 150.625C155.506 150.654 155.47 150.676 155.431 150.691C155.392 150.707 155.35 150.714 155.307 150.713ZM28.8557 150.082H154.991V65.3637H28.8557V150.082Z" fill="#231F20"/>
<path d="M157.596 59.8111H26.2429C22.7182 59.8111 19.8608 62.5992 19.8608 66.0386V80.986C19.8608 84.4254 22.7182 87.2135 26.2429 87.2135H157.596C161.121 87.2135 163.978 84.4254 163.978 80.986V66.0386C163.978 62.5992 161.121 59.8111 157.596 59.8111Z" fill="white"/>
<path d="M157.602 87.5284H26.2429C24.4661 87.5267 22.7626 86.8377 21.5056 85.6124C20.2487 84.387 19.5409 82.7254 19.5375 80.9917V66.038C19.5392 64.3032 20.2462 62.6399 21.5033 61.4132C22.7605 60.1865 24.465 59.4967 26.2429 59.495H157.602C159.38 59.4967 161.085 60.1865 162.342 61.4132C163.599 62.6399 164.306 64.3032 164.308 66.038V80.9917C164.304 82.7254 163.597 84.387 162.34 85.6124C161.083 86.8377 159.379 87.5267 157.602 87.5284ZM26.2429 60.1259C24.6365 60.1276 23.0964 60.751 21.9606 61.8594C20.8247 62.9678 20.1858 64.4705 20.1841 66.038V80.9917C20.1858 82.5586 20.8249 84.0607 21.9609 85.1681C23.097 86.2754 24.6371 86.8974 26.2429 86.8974H157.602C159.208 86.8958 160.747 86.2732 161.882 85.1662C163.018 84.0592 163.658 82.5581 163.661 80.9917V66.038C163.659 64.4705 163.021 62.9678 161.885 61.8594C160.749 60.751 159.209 60.1276 157.602 60.1259H26.2429Z" fill="#231F20"/>
<path d="M157.596 92.0457H26.2429C22.7182 92.0457 19.8608 94.8339 19.8608 98.2733V113.221C19.8608 116.66 22.7182 119.448 26.2429 119.448H157.596C161.121 119.448 163.978 116.66 163.978 113.221V98.2733C163.978 94.8339 161.121 92.0457 157.596 92.0457Z" fill="white"/>
<path d="M157.602 119.763H26.2429C24.4661 119.762 22.7626 119.073 21.5056 117.847C20.2487 116.622 19.5409 114.96 19.5375 113.227V98.2729C19.5392 96.5381 20.2462 94.8748 21.5033 93.6481C22.7605 92.4215 24.465 91.7316 26.2429 91.7299H157.602C159.38 91.7316 161.085 92.4215 162.342 93.6481C163.599 94.8748 164.306 96.5381 164.308 98.2729V113.227C164.304 114.96 163.597 116.622 162.34 117.847C161.083 119.073 159.379 119.762 157.602 119.763ZM26.2429 92.3608C24.6365 92.3625 23.0964 92.9859 21.9606 94.0943C20.8247 95.2027 20.1858 96.7055 20.1841 98.2729V113.227C20.1858 114.793 20.8249 116.296 21.9609 117.403C23.097 118.51 24.6371 119.132 26.2429 119.132H157.602C159.208 119.131 160.747 118.508 161.882 117.401C163.018 116.294 163.658 114.793 163.661 113.227V98.2729C163.658 96.706 163.018 95.2041 161.883 94.0961C160.747 92.9881 159.208 92.3642 157.602 92.3608H26.2429Z" fill="#231F20"/>
<path d="M157.596 124.288H26.2429C22.7182 124.288 19.8608 127.076 19.8608 130.516V145.463C19.8608 148.902 22.7182 151.69 26.2429 151.69H157.596C161.121 151.69 163.978 148.902 163.978 145.463V130.516C163.978 127.076 161.121 124.288 157.596 124.288Z" fill="white"/>
<path d="M157.602 152H26.2429C24.4661 151.998 22.7626 151.309 21.5056 150.084C20.2487 148.859 19.5409 147.197 19.5375 145.463V130.51C19.5358 129.649 19.708 128.797 20.0442 128.002C20.3804 127.207 20.8741 126.484 21.4969 125.875C22.1197 125.266 22.8595 124.783 23.6738 124.453C24.4882 124.124 25.3612 123.954 26.2429 123.954H157.602C159.38 123.954 161.084 124.642 162.342 125.868C163.599 127.094 164.306 128.756 164.308 130.491V145.444C164.309 146.304 164.136 147.156 163.799 147.951C163.463 148.746 162.969 149.469 162.346 150.077C161.724 150.686 160.984 151.169 160.17 151.499C159.356 151.829 158.484 151.999 157.602 152ZM26.2429 124.585C24.6371 124.585 23.097 125.207 21.961 126.314C20.8249 127.422 20.1858 128.924 20.1841 130.491V145.444C20.1858 147.011 20.8249 148.513 21.961 149.621C23.097 150.728 24.6371 151.35 26.2429 151.35H157.602C159.208 151.348 160.747 150.726 161.882 149.619C163.018 148.512 163.658 147.011 163.661 145.444V130.491C163.658 128.924 163.018 127.423 161.882 126.316C160.747 125.209 159.208 124.587 157.602 124.585H26.2429Z" fill="#231F20"/>
<path d="M124.651 72.808H28.9523C28.8654 72.7966 28.7857 72.7548 28.728 72.6904C28.6702 72.626 28.6384 72.5434 28.6384 72.4578C28.6384 72.3723 28.6702 72.2896 28.728 72.2252C28.7857 72.1608 28.8654 72.119 28.9523 72.1076H124.651C124.702 72.1009 124.754 72.105 124.804 72.1195C124.853 72.134 124.899 72.1587 124.938 72.1918C124.977 72.225 125.008 72.2659 125.029 72.3118C125.05 72.3576 125.061 72.4074 125.061 72.4578C125.061 72.5082 125.05 72.558 125.029 72.6039C125.008 72.6497 124.977 72.6906 124.938 72.7238C124.899 72.757 124.853 72.7816 124.804 72.7962C124.754 72.8107 124.702 72.8147 124.651 72.808Z" fill="#D1D3D4"/>
<path d="M133.323 75.1237C132.782 75.1249 132.252 74.9694 131.801 74.6769C131.351 74.3844 130.999 73.968 130.791 73.4804C130.583 72.9929 130.528 72.456 130.633 71.9379C130.738 71.4198 130.998 70.9436 131.38 70.5697C131.762 70.1958 132.25 69.941 132.78 69.8375C133.311 69.734 133.861 69.7865 134.362 69.9883C134.862 70.1901 135.289 70.5322 135.59 70.9713C135.891 71.4103 136.052 71.9266 136.052 72.4547C136.052 73.1615 135.764 73.8394 135.253 74.3397C134.741 74.8401 134.047 75.122 133.323 75.1237ZM133.323 70.4924C132.923 70.4912 132.532 70.6057 132.2 70.8216C131.867 71.0374 131.607 71.3448 131.454 71.7048C131.3 72.0647 131.26 72.4611 131.337 72.8435C131.415 73.226 131.607 73.5773 131.89 73.853C132.172 74.1287 132.532 74.3163 132.924 74.3921C133.316 74.4678 133.722 74.4283 134.091 74.2785C134.46 74.1288 134.775 73.8755 134.996 73.5508C135.218 73.2261 135.335 72.8446 135.334 72.4547C135.332 71.9348 135.12 71.4366 134.743 71.069C134.366 70.7014 133.856 70.4941 133.323 70.4924Z" fill="#D1D3D4"/>
<path d="M143.332 74.7713C144.642 74.7713 145.705 73.7345 145.705 72.4557C145.705 71.1768 144.642 70.14 143.332 70.14C142.021 70.14 140.959 71.1768 140.959 72.4557C140.959 73.7345 142.021 74.7713 143.332 74.7713Z" fill="#231F20"/>
<path d="M143.332 75.0864C142.799 75.0864 142.277 74.9321 141.834 74.643C141.391 74.3539 141.045 73.9429 140.841 73.4622C140.637 72.9814 140.583 72.4524 140.687 71.942C140.791 71.4316 141.048 70.9628 141.425 70.5948C141.802 70.2269 142.283 69.9763 142.806 69.8748C143.329 69.7733 143.871 69.8254 144.364 70.0245C144.857 70.2236 145.278 70.5609 145.574 70.9936C145.87 71.4262 146.028 71.9349 146.028 72.4553C146.028 73.1531 145.744 73.8223 145.239 74.3158C144.733 74.8092 144.047 75.0864 143.332 75.0864ZM143.332 70.4552C142.925 70.4552 142.527 70.573 142.189 70.7938C141.851 71.0145 141.587 71.3283 141.432 71.6952C141.276 72.0622 141.236 72.466 141.316 72.8554C141.396 73.2448 141.592 73.6023 141.88 73.8826C142.169 74.163 142.536 74.3536 142.935 74.4303C143.334 74.507 143.748 74.4663 144.123 74.3135C144.499 74.1607 144.82 73.9025 145.045 73.5717C145.27 73.241 145.39 72.8524 145.388 72.4553C145.388 72.1921 145.335 71.9315 145.232 71.6884C145.128 71.4454 144.977 71.2246 144.786 71.0388C144.595 70.853 144.368 70.7058 144.118 70.6056C143.869 70.5055 143.602 70.4543 143.332 70.4552Z" fill="#231F20"/>
<path d="M153.348 74.7713C154.658 74.7713 155.721 73.7345 155.721 72.4557C155.721 71.1768 154.658 70.14 153.348 70.14C152.037 70.14 150.975 71.1768 150.975 72.4557C150.975 73.7345 152.037 74.7713 153.348 74.7713Z" fill="#FF5C64"/>
<path d="M124.651 105.025H28.9523C28.8654 105.014 28.7857 104.972 28.728 104.907C28.6702 104.843 28.6384 104.76 28.6384 104.675C28.6384 104.589 28.6702 104.507 28.728 104.442C28.7857 104.378 28.8654 104.336 28.9523 104.325H124.651C124.702 104.318 124.754 104.322 124.804 104.336C124.853 104.351 124.899 104.376 124.938 104.409C124.977 104.442 125.008 104.483 125.029 104.529C125.05 104.575 125.061 104.624 125.061 104.675C125.061 104.725 125.05 104.775 125.029 104.821C125.008 104.867 124.977 104.908 124.938 104.941C124.899 104.974 124.853 104.999 124.804 105.013C124.754 105.028 124.702 105.032 124.651 105.025Z" fill="#D1D3D4"/>
<path d="M133.323 107.36C132.781 107.361 132.252 107.205 131.801 106.912C131.35 106.62 130.998 106.203 130.791 105.715C130.583 105.227 130.528 104.69 130.633 104.172C130.739 103.653 130.999 103.177 131.382 102.803C131.765 102.43 132.253 102.175 132.784 102.073C133.316 101.97 133.866 102.023 134.366 102.226C134.866 102.429 135.293 102.772 135.593 103.212C135.893 103.652 136.053 104.169 136.052 104.697C136.05 105.403 135.762 106.079 135.25 106.578C134.739 107.077 134.046 107.358 133.323 107.36ZM133.323 102.728C132.924 102.727 132.533 102.842 132.2 103.057C131.868 103.273 131.608 103.58 131.454 103.939C131.301 104.299 131.26 104.695 131.337 105.077C131.414 105.459 131.606 105.811 131.888 106.087C132.169 106.363 132.529 106.551 132.92 106.627C133.312 106.704 133.718 106.665 134.087 106.516C134.456 106.368 134.771 106.115 134.993 105.791C135.215 105.467 135.334 105.087 135.334 104.697C135.334 104.176 135.122 103.676 134.745 103.307C134.368 102.938 133.857 102.73 133.323 102.728Z" fill="#D1D3D4"/>
<path d="M143.332 107.012C144.642 107.012 145.705 105.976 145.705 104.697C145.705 103.418 144.642 102.381 143.332 102.381C142.021 102.381 140.959 103.418 140.959 104.697C140.959 105.976 142.021 107.012 143.332 107.012Z" fill="#231F20"/>
<path d="M143.332 107.328C142.799 107.328 142.277 107.174 141.834 106.885C141.391 106.596 141.045 106.185 140.841 105.704C140.637 105.223 140.583 104.694 140.687 104.184C140.791 103.673 141.048 103.205 141.425 102.837C141.802 102.469 142.283 102.218 142.806 102.117C143.329 102.015 143.871 102.067 144.364 102.266C144.857 102.465 145.278 102.803 145.574 103.235C145.87 103.668 146.028 104.177 146.028 104.697C146.027 105.394 145.742 106.063 145.237 106.556C144.731 107.049 144.047 107.326 143.332 107.328ZM143.332 102.691C142.925 102.691 142.528 102.808 142.19 103.029C141.851 103.249 141.588 103.563 141.432 103.929C141.277 104.296 141.236 104.699 141.315 105.089C141.395 105.478 141.59 105.835 141.878 106.116C142.166 106.396 142.532 106.588 142.931 106.665C143.33 106.742 143.743 106.703 144.119 106.551C144.495 106.399 144.816 106.142 145.042 105.812C145.268 105.482 145.388 105.094 145.388 104.697C145.388 104.165 145.172 103.655 144.786 103.278C144.4 102.902 143.877 102.691 143.332 102.691Z" fill="#231F20"/>
<path d="M153.348 107.012C154.658 107.012 155.721 105.976 155.721 104.697C155.721 103.418 154.658 102.381 153.348 102.381C152.037 102.381 150.975 103.418 150.975 104.697C150.975 105.976 152.037 107.012 153.348 107.012Z" fill="#FF5C64"/>
<path d="M124.651 137.279H28.9523C28.8654 137.268 28.7857 137.226 28.728 137.162C28.6702 137.097 28.6384 137.015 28.6384 136.929C28.6384 136.844 28.6702 136.761 28.728 136.697C28.7857 136.632 28.8654 136.59 28.9523 136.579H124.651C124.702 136.572 124.754 136.576 124.804 136.591C124.853 136.605 124.899 136.63 124.938 136.663C124.977 136.696 125.008 136.737 125.029 136.783C125.05 136.829 125.061 136.879 125.061 136.929C125.061 136.98 125.05 137.029 125.029 137.075C125.008 137.121 124.977 137.162 124.938 137.195C124.899 137.228 124.853 137.253 124.804 137.268C124.754 137.282 124.702 137.286 124.651 137.279Z" fill="#D1D3D4"/>
<path d="M133.323 139.596C132.781 139.597 132.252 139.441 131.801 139.148C131.35 138.856 130.998 138.439 130.791 137.951C130.583 137.463 130.528 136.926 130.633 136.408C130.739 135.889 130.999 135.413 131.382 135.039C131.765 134.666 132.253 134.411 132.784 134.309C133.316 134.206 133.866 134.259 134.366 134.462C134.866 134.665 135.293 135.008 135.593 135.448C135.893 135.888 136.053 136.405 136.052 136.933C136.05 137.639 135.762 138.315 135.25 138.814C134.739 139.313 134.046 139.594 133.323 139.596ZM133.323 134.964C132.924 134.963 132.533 135.078 132.2 135.293C131.868 135.509 131.608 135.816 131.454 136.175C131.301 136.535 131.26 136.931 131.337 137.313C131.414 137.695 131.606 138.047 131.888 138.323C132.169 138.599 132.529 138.787 132.92 138.863C133.312 138.94 133.718 138.901 134.087 138.752C134.456 138.603 134.771 138.351 134.993 138.027C135.215 137.703 135.334 137.323 135.334 136.933C135.334 136.412 135.122 135.912 134.745 135.543C134.368 135.174 133.857 134.966 133.323 134.964Z" fill="#D1D3D4"/>
<path d="M143.332 139.248C144.642 139.248 145.705 138.212 145.705 136.933C145.705 135.654 144.642 134.617 143.332 134.617C142.021 134.617 140.959 135.654 140.959 136.933C140.959 138.212 142.021 139.248 143.332 139.248Z" fill="#231F20"/>
<path d="M143.332 139.563C142.799 139.563 142.277 139.409 141.834 139.12C141.391 138.831 141.045 138.42 140.841 137.939C140.637 137.458 140.583 136.929 140.687 136.419C140.791 135.909 141.048 135.44 141.425 135.072C141.802 134.704 142.283 134.453 142.806 134.352C143.329 134.25 143.871 134.302 144.364 134.501C144.857 134.701 145.278 135.038 145.574 135.47C145.87 135.903 146.028 136.412 146.028 136.932C146.028 137.63 145.744 138.299 145.239 138.793C144.733 139.286 144.047 139.563 143.332 139.563ZM143.332 134.926C142.925 134.926 142.528 135.043 142.19 135.264C141.851 135.484 141.588 135.798 141.432 136.164C141.277 136.531 141.236 136.934 141.315 137.324C141.395 137.713 141.59 138.07 141.878 138.351C142.166 138.632 142.532 138.823 142.931 138.9C143.33 138.978 143.743 138.938 144.119 138.786C144.495 138.634 144.816 138.377 145.042 138.047C145.268 137.717 145.388 137.329 145.388 136.932C145.388 136.4 145.172 135.89 144.786 135.513C144.4 135.137 143.877 134.926 143.332 134.926Z" fill="#231F20"/>
<path d="M153.348 139.248C154.658 139.248 155.721 138.212 155.721 136.933C155.721 135.654 154.658 134.617 153.348 134.617C152.037 134.617 150.975 135.654 150.975 136.933C150.975 138.212 152.037 139.248 153.348 139.248Z" fill="#FF5C64"/>
<path d="M146.429 17.6439C146.17 17.3979 145.95 17.2086 145.743 17.013C145.277 16.5398 144.673 16.2172 144.013 16.0887C143.353 15.9601 142.668 16.0316 142.051 16.2937C141.43 16.5555 140.909 17.0007 140.561 17.5666C140.213 18.1325 140.056 18.7907 140.111 19.4485C140.111 19.7766 140.027 19.8775 139.723 19.9469C138.532 20.2363 137.492 20.9434 136.8 21.9334C136.109 22.9234 135.815 24.1271 135.975 25.3149C136.135 26.5027 136.737 27.5915 137.667 28.3738C138.597 29.1561 139.789 29.577 141.017 29.5564C147.806 29.5564 154.591 29.5564 161.372 29.5564C161.634 29.5563 161.895 29.5374 162.154 29.4996C163.183 29.3089 164.112 28.7761 164.783 27.9919C165.455 27.2078 165.826 26.2208 165.836 25.1992C165.845 24.1775 165.491 23.1844 164.834 22.3889C164.177 21.5934 163.257 21.0448 162.232 20.8366C161.734 20.7609 161.223 20.7672 160.713 20.7356C161.105 18.9616 160.794 17.1083 159.841 15.5496C158.888 13.9909 157.365 12.843 155.578 12.3376C153.987 11.8863 152.285 11.9866 150.761 12.6215C149.689 13.0726 148.739 13.7613 147.987 14.6332C147.235 15.505 146.701 16.5358 146.429 17.6439Z" fill="white"/>
<path d="M149.035 29.8906H141.024C140.296 29.9031 139.573 29.7687 138.901 29.496C138.228 29.2233 137.621 28.8181 137.117 28.3058C136.612 27.7935 136.222 27.185 135.969 26.5186C135.717 25.8522 135.608 25.1421 135.65 24.4328C135.703 23.3233 136.121 22.2599 136.842 21.4006C137.563 20.5412 138.549 19.9318 139.653 19.6628C139.703 19.6551 139.752 19.6379 139.795 19.6123C139.8 19.5725 139.8 19.5323 139.795 19.4924C139.728 18.7664 139.898 18.0383 140.28 17.4118C140.662 16.7853 141.237 16.2924 141.923 16.0032C142.6 15.7163 143.35 15.6375 144.075 15.7773C144.799 15.917 145.462 16.2688 145.977 16.7856L146.274 17.0758C146.607 16.0263 147.17 15.06 147.923 14.2439C148.677 13.4278 149.604 12.7816 150.639 12.35C152.232 11.6934 154.006 11.5866 155.67 12.0471C159.743 13.1134 161.586 17.0948 161.101 20.4578H161.217C161.567 20.4578 161.929 20.4578 162.284 20.5398C163.415 20.7265 164.44 21.3 165.176 22.1575C165.913 23.015 166.312 24.1004 166.303 25.219C166.293 26.3377 165.876 27.4166 165.126 28.2623C164.375 29.1079 163.34 29.6651 162.207 29.8338C161.933 29.8709 161.656 29.8899 161.379 29.8906H149.035ZM143.352 16.3313C142.948 16.3298 142.55 16.4115 142.181 16.5711C141.619 16.811 141.149 17.2173 140.837 17.7326C140.524 18.2478 140.386 18.8458 140.442 19.4419C140.459 19.5382 140.456 19.6369 140.432 19.7318C140.409 19.8268 140.365 19.9159 140.304 19.9936C140.244 20.0713 140.167 20.1358 140.079 20.1831C139.992 20.2304 139.895 20.2595 139.795 20.2685C138.683 20.5418 137.713 21.2043 137.069 22.13C136.425 23.0557 136.153 24.18 136.303 25.2891C136.453 26.3983 137.015 27.415 137.883 28.1459C138.751 28.8768 139.864 29.2709 141.011 29.2533C147.8 29.2533 154.585 29.2533 161.366 29.2533C161.613 29.2513 161.859 29.2345 162.103 29.2028C163.083 29.0557 163.977 28.5737 164.625 27.8427C165.274 27.1118 165.636 26.1796 165.645 25.2127C165.654 24.2457 165.311 23.3071 164.676 22.5643C164.042 21.8216 163.157 21.3232 162.181 21.1581C161.848 21.1165 161.514 21.0912 161.179 21.0824H160.687C160.642 21.0796 160.597 21.0674 160.557 21.0465C160.516 21.0257 160.481 20.9967 160.453 20.9616C160.425 20.9264 160.405 20.8858 160.394 20.8424C160.383 20.7991 160.382 20.754 160.39 20.7102C160.674 19.493 160.61 18.2231 160.204 17.0392C159.799 15.8552 159.067 14.8029 158.09 13.9972C157.113 13.1916 155.928 12.6636 154.664 12.471C153.4 12.2784 152.106 12.4286 150.923 12.9052C149.894 13.3334 148.982 13.9916 148.261 14.8267C147.54 15.6618 147.03 16.6505 146.772 17.7131C146.758 17.7653 146.729 17.8128 146.689 17.8505C146.649 17.8883 146.6 17.9149 146.546 17.9276C146.492 17.9424 146.435 17.9431 146.38 17.9299C146.326 17.9166 146.276 17.8897 146.235 17.8519L145.996 17.6311L145.55 17.2084C145.262 16.9271 144.919 16.7047 144.541 16.5541C144.164 16.4035 143.759 16.3278 143.352 16.3313Z" fill="#D1D3D4"/>
<path d="M59.3883 5.88907C59.1232 5.643 58.9098 5.4474 58.7029 5.25812C58.2352 4.78645 57.6314 4.46496 56.9718 4.33647C56.3122 4.20797 55.6282 4.27856 55.0108 4.53883C54.3899 4.8006 53.8687 5.24579 53.5208 5.81172C53.1728 6.37766 53.0154 7.03584 53.0709 7.69361C53.0709 8.0154 52.9869 8.11635 52.683 8.19206C51.4916 8.48141 50.451 9.18851 49.7597 10.1785C49.0683 11.1685 48.7746 12.3722 48.9344 13.56C49.0943 14.7478 49.6965 15.8366 50.6264 16.6189C51.5562 17.4012 52.7486 17.8221 53.9762 17.8015H74.3316C74.591 17.7954 74.85 17.7764 75.1075 17.7447C76.1164 17.5379 77.0227 17.0013 77.6765 16.2235C78.3303 15.4458 78.6924 14.4735 78.703 13.4676C78.7135 12.4618 78.3719 11.4825 77.7345 10.6918C77.0972 9.90118 76.2023 9.34651 75.198 9.11957C74.6937 9.04386 74.1828 9.05017 73.6785 9.01862C74.0695 7.2439 73.7565 5.39053 72.8025 3.8321C71.8486 2.27367 70.3246 1.12605 68.5379 0.620583C66.946 0.171287 65.2438 0.273845 63.7206 0.910823C62.6511 1.35416 61.7025 2.0351 60.9504 2.89939C60.1982 3.76368 59.6634 4.78742 59.3883 5.88907Z" fill="white"/>
<path d="M62.2662 18.1295H53.9831C53.2551 18.141 52.5325 18.006 51.8603 17.7331C51.1881 17.4601 50.5807 17.055 50.076 16.543C49.5713 16.0309 49.1801 15.423 48.9267 14.7569C48.6733 14.0909 48.5632 13.3811 48.6032 12.6717C48.6567 11.5609 49.0755 10.4964 49.7976 9.63611C50.5197 8.77579 51.5067 8.16539 52.6123 7.89538C52.6617 7.88447 52.7095 7.86751 52.7545 7.8449C52.7545 7.8449 52.7545 7.8449 52.7545 7.72502C52.6882 6.99985 52.8574 6.27271 53.238 5.64652C53.6187 5.02034 54.1915 4.52682 54.8754 4.23583C55.5529 3.94791 56.3045 3.86915 57.0292 4.01013C57.7539 4.15112 58.4171 4.50509 58.9297 5.02453L59.2336 5.30846C59.5705 4.25702 60.1385 3.28999 60.8979 2.47484C61.6573 1.6597 62.5899 1.01608 63.6305 0.588901C65.2195 -0.0737616 66.9943 -0.180742 68.6547 0.286042C72.7349 1.35236 74.5777 5.3337 74.0863 8.69039H74.2027C74.5619 8.69625 74.9203 8.72364 75.2761 8.77241C76.4091 8.95557 77.4377 9.52767 78.1766 10.3856C78.9155 11.2435 79.3159 12.3308 79.3058 13.4513C79.2957 14.5719 78.8756 15.6521 78.1213 16.4972C77.367 17.3422 76.3281 17.8965 75.192 18.0601C74.9197 18.0958 74.6455 18.1169 74.3708 18.1232L62.2662 18.1295ZM56.3109 4.57024C55.9073 4.57033 55.5083 4.65421 55.1405 4.81631C54.5784 5.05485 54.1074 5.45978 53.7941 5.97383C53.4808 6.48789 53.3411 7.08505 53.3947 7.68086C53.4141 7.77731 53.4124 7.87671 53.3896 7.97246C53.3668 8.06822 53.3233 8.15814 53.2622 8.23629C53.2011 8.31444 53.1236 8.37902 53.035 8.42576C52.9463 8.4725 52.8485 8.50033 52.748 8.50741C51.6297 8.77517 50.652 9.43622 50.0023 10.3639C49.3527 11.2915 49.0767 12.4205 49.2273 13.5345C49.3779 14.6484 49.9445 15.6689 50.8185 16.4004C51.6925 17.1319 52.8125 17.523 53.9637 17.4985H74.3191C74.5657 17.4943 74.8119 17.4754 75.0562 17.4418C76.0355 17.2939 76.929 16.8111 77.5771 16.0797C78.2252 15.3482 78.5858 14.4158 78.5943 13.4489C78.6029 12.482 78.2589 11.5436 77.6238 10.8014C76.9887 10.0592 76.1038 9.56141 75.1273 9.39706C74.7925 9.35713 74.4559 9.33396 74.1186 9.32765H73.6401C73.5939 9.32481 73.5489 9.3127 73.5077 9.29207C73.4665 9.27144 73.4302 9.24274 73.4009 9.20777C73.3742 9.17175 73.3552 9.1308 73.3452 9.08741C73.3352 9.04403 73.3344 8.99911 73.3427 8.95539C73.7284 7.26016 73.4375 5.48521 72.5294 3.99184C71.6212 2.49847 70.164 1.39892 68.4543 0.916998C66.9327 0.489315 65.3064 0.587381 63.8504 1.19462C62.824 1.61697 61.9136 2.26866 61.1926 3.09719C60.4715 3.92571 59.96 4.90791 59.6991 5.96465C59.6827 6.01665 59.6535 6.06395 59.614 6.10243C59.5746 6.14092 59.5261 6.16943 59.4728 6.18549C59.4187 6.19902 59.362 6.19918 59.3078 6.18596C59.2536 6.17274 59.2037 6.14656 59.1624 6.10977L58.9167 5.87632C58.7551 5.7312 58.6128 5.5987 58.477 5.45989C57.9036 4.89601 57.125 4.57622 56.3109 4.57024Z" fill="#D1D3D4"/>
<path d="M13.0399 65.0223C12.7231 64.7258 12.4579 64.486 12.2058 64.2399C11.6366 63.6697 10.9029 63.2821 10.1024 63.1288C9.30192 62.9755 8.47255 63.0638 7.72473 63.3818C6.96793 63.7022 6.33382 64.2471 5.91247 64.9392C5.49111 65.6312 5.30394 66.4352 5.37752 67.237C5.37752 67.6345 5.28053 67.7544 4.90549 67.868C3.46494 68.2252 2.20871 69.0856 1.37482 70.2862C0.540937 71.4868 0.187331 72.9441 0.381004 74.3821C0.574677 75.8201 1.30218 77.1388 2.42565 78.0884C3.54913 79.038 4.99054 79.5525 6.47676 79.5343C14.7146 79.5343 22.9525 79.5343 31.1903 79.5343C31.5063 79.5334 31.8218 79.5102 32.1344 79.4649C33.419 79.2772 34.5928 78.6486 35.4449 77.692C36.2971 76.7355 36.7716 75.5137 36.7833 74.2463C36.795 72.9789 36.3431 71.749 35.5087 70.7776C34.6743 69.8063 33.5123 69.1571 32.2314 68.9469C31.6236 68.8586 31.0028 68.8585 30.3885 68.8207C30.864 66.6661 30.4845 64.4157 29.3265 62.5235C28.1685 60.6312 26.3181 59.2378 24.1487 58.6244C22.2247 58.0879 20.1702 58.2126 18.3292 58.9778C17.0249 59.512 15.867 60.337 14.9485 61.3868C14.0299 62.4365 13.3762 63.6816 13.0399 65.0223Z" fill="white"/>
<path d="M16.5698 79.8181H6.47614C5.60113 79.8334 4.73231 79.6723 3.92399 79.345C3.11568 79.0177 2.38525 78.5312 1.77837 77.9159C1.17149 77.3006 0.701219 76.5698 0.396947 75.7691C0.0926758 74.9684 -0.0390511 74.1151 0.0100039 73.2625C0.0746926 71.9299 0.577522 70.6532 1.44401 69.6213C2.3105 68.5894 3.49457 67.8573 4.82081 67.5334C5.06006 67.4766 5.06006 67.4766 5.04712 67.2558C4.96848 66.3891 5.17086 65.5202 5.62568 64.7719C6.0805 64.0235 6.76477 63.4335 7.58185 63.0852C8.39231 62.7423 9.29062 62.6486 10.157 62.8165C11.0235 62.9845 11.8169 63.4061 12.4314 64.0253C12.5737 64.1641 12.716 64.3029 12.8776 64.448C13.2689 63.1626 13.9457 61.9772 14.8599 60.976C15.7741 59.9749 16.9032 59.1827 18.1669 58.6558C20.0831 57.8571 22.2231 57.7278 24.2257 58.2899C29.1658 59.5518 31.3837 64.4165 30.7629 68.4925H30.9763C31.4089 68.4994 31.8407 68.5309 32.2696 68.5871C33.6248 68.8124 34.8536 69.5011 35.7359 70.5299C36.6182 71.5587 37.0963 72.8604 37.0846 74.2019C37.0729 75.5433 36.5722 76.8369 35.6722 77.851C34.7722 78.865 33.5315 79.5333 32.1726 79.7361C31.8446 79.7798 31.5142 79.803 31.1832 79.8055L16.5698 79.8181ZM9.31477 63.3817C8.81522 63.3794 8.32109 63.4827 7.86636 63.6846C7.17174 63.9807 6.59009 64.4824 6.20369 65.1187C5.81729 65.755 5.64568 66.4938 5.71314 67.2305C5.7354 67.3386 5.73403 67.45 5.70911 67.5575C5.68419 67.665 5.63628 67.7661 5.56852 67.8543C5.50076 67.9424 5.41467 68.0156 5.31591 68.069C5.21714 68.1225 5.10792 68.155 4.99539 68.1644C3.67872 68.5402 2.5432 69.3632 1.79398 70.4845C1.04476 71.6059 0.731233 72.9518 0.910037 74.279C1.08884 75.6062 1.74819 76.8273 2.76896 77.7216C3.78974 78.616 5.10465 79.1246 6.47614 79.1556C14.714 79.1556 22.9519 79.1556 31.1897 79.1556C31.4905 79.1553 31.7908 79.1342 32.0885 79.0925C33.2934 78.9106 34.3928 78.3167 35.1904 77.4168C35.9879 76.517 36.4318 75.3698 36.4427 74.1802C36.4536 72.9905 36.0308 71.8358 35.2497 70.9223C34.4687 70.0087 33.3804 69.3957 32.179 69.1928C31.7716 69.1403 31.3614 69.1108 30.9505 69.1045L30.3685 69.0729C30.3233 69.07 30.2792 69.0578 30.239 69.0372C30.1989 69.0165 30.1637 68.9879 30.1357 68.9531C30.1068 68.9181 30.086 68.8774 30.0749 68.8338C30.0637 68.7902 30.0624 68.7448 30.0711 68.7007C30.5451 66.6235 30.1869 64.4482 29.07 62.6204C27.9531 60.7927 26.1621 59.451 24.064 58.8704C22.2033 58.3453 20.2138 58.4635 18.432 59.2048C15.8456 60.2774 14.1967 62.2018 13.3496 65.0853C13.3328 65.1364 13.3033 65.1827 13.2639 65.2201C13.2244 65.2575 13.1762 65.2848 13.1233 65.2998C13.0692 65.3128 13.0126 65.3127 12.9585 65.2995C12.9044 65.2863 12.8545 65.2604 12.813 65.2241L12.5155 64.9465L11.9788 64.4417C11.2678 63.7609 10.3109 63.3802 9.31477 63.3817Z" fill="#D1D3D4"/>
<path d="M81.6776 33.8462H71.9202C71.3468 33.8445 70.7975 33.6211 70.3927 33.2249C69.9878 32.8286 69.7605 32.292 69.7605 31.7325V26.3125C69.7622 25.7541 69.9903 25.2191 70.3949 24.8242C70.7996 24.4294 71.3479 24.2068 71.9202 24.2052H81.6776C82.251 24.2052 82.801 24.427 83.207 24.822C83.6131 25.217 83.842 25.7531 83.8437 26.3125V31.7325C83.842 32.2925 83.6133 32.8292 83.2074 33.2252C82.8015 33.6213 82.2516 33.8445 81.6776 33.8462ZM71.9202 24.8361C71.7215 24.8361 71.5247 24.8743 71.3412 24.9485C71.1576 25.0227 70.9908 25.1314 70.8503 25.2685C70.7098 25.4056 70.5983 25.5684 70.5223 25.7475C70.4463 25.9267 70.4071 26.1187 70.4071 26.3125V31.7325C70.4071 32.1246 70.5663 32.5008 70.8499 32.7787C71.1335 33.0566 71.5183 33.2135 71.9202 33.2152H81.6776C82.0806 33.2152 82.4671 33.059 82.7521 32.7809C83.037 32.5029 83.1971 32.1257 83.1971 31.7325V26.3125C83.1954 25.9204 83.0346 25.5449 82.7498 25.2682C82.465 24.9915 82.0795 24.8361 81.6776 24.8361H71.9202Z" fill="#D1D3D4"/>
<path d="M74.5579 32.0865C74.4987 32.0878 74.4404 32.0724 74.3898 32.0424C74.343 32.0132 74.3043 31.9731 74.2772 31.9258C74.2501 31.8784 74.2355 31.8253 74.2346 31.7711V26.2754C74.2348 26.2219 74.2492 26.1694 74.2764 26.1229C74.3036 26.0765 74.3427 26.0377 74.3898 26.0104C74.4376 25.9856 74.4909 25.9726 74.545 25.9726C74.5991 25.9726 74.6524 25.9856 74.7002 26.0104L80.5197 28.7614C80.5746 28.7868 80.6209 28.8271 80.653 28.8774C80.6851 28.9278 80.7017 28.986 80.7008 29.0453C80.7001 29.1043 80.6829 29.162 80.651 29.212C80.6191 29.2621 80.5736 29.3027 80.5197 29.3293L74.7002 32.0739C74.6542 32.0876 74.6057 32.0919 74.5579 32.0865ZM74.8812 26.7802V31.2663L79.6144 29.0264L74.8812 26.7802Z" fill="#D1D3D4"/>
<path d="M160.157 84.538C159.937 84.3361 159.756 84.172 159.582 84.0016C159.192 83.6004 158.686 83.325 158.131 83.2122C157.576 83.0995 156.999 83.1547 156.478 83.3707C155.953 83.5916 155.513 83.9685 155.22 84.4477C154.928 84.9269 154.797 85.484 154.848 86.0396C154.848 86.3173 154.777 86.3993 154.525 86.4624C153.521 86.7038 152.644 87.2978 152.06 88.1308C151.477 88.9638 151.229 89.9774 151.363 90.9778C151.498 91.9781 152.005 92.895 152.789 93.5531C153.573 94.2112 154.578 94.5643 155.611 94.5449H172.74C172.956 94.5456 173.173 94.5309 173.387 94.5008C174.273 94.3643 175.08 93.9256 175.666 93.2627C176.252 92.5998 176.577 91.7557 176.585 90.8806C176.593 90.0054 176.282 89.1559 175.708 88.4832C175.135 87.8106 174.335 87.3583 173.451 87.2069C173.031 87.1438 172.604 87.1501 172.158 87.1249C172.488 85.6314 172.225 84.0713 171.423 82.7596C170.62 81.448 169.336 80.4825 167.832 80.0582C166.493 79.6779 165.06 79.7626 163.778 80.2979C162.878 80.6811 162.082 81.2639 161.453 81.9999C160.825 82.736 160.381 83.6051 160.157 84.538Z" fill="white"/>
<path d="M162.808 94.8916H155.611C154.992 94.8993 154.378 94.7831 153.807 94.5501C153.236 94.3172 152.72 93.9724 152.291 93.5372C151.862 93.102 151.529 92.5855 151.313 92.0197C151.096 91.4539 151.001 90.8509 151.033 90.2477C151.082 89.3049 151.439 88.4023 152.053 87.6721C152.666 86.942 153.503 86.4228 154.441 86.1907H154.531C154.527 86.1677 154.527 86.1442 154.531 86.1213C154.474 85.5006 154.619 84.8783 154.945 84.3426C155.271 83.8068 155.762 83.385 156.348 83.1369C156.928 82.8916 157.571 82.8242 158.191 82.9437C158.811 83.0631 159.379 83.3637 159.82 83.8057C159.876 83.8688 159.941 83.9319 160.014 83.995C160.301 83.1205 160.777 82.3165 161.411 81.6381C162.045 80.9597 162.821 80.4228 163.687 80.0641C165.036 79.5096 166.539 79.4184 167.948 79.8054C169.466 80.2399 170.77 81.197 171.619 82.499C172.468 83.8009 172.804 85.3593 172.565 86.8847H172.61C172.913 86.8924 173.215 86.9156 173.516 86.9542C174.478 87.113 175.352 87.6014 175.979 88.3319C176.606 89.0624 176.946 89.987 176.937 90.9398C176.929 91.8927 176.572 92.8114 175.932 93.531C175.292 94.2506 174.41 94.7241 173.444 94.8663C173.213 94.9015 172.98 94.9184 172.746 94.9168L162.808 94.8916ZM157.57 83.4839C157.239 83.4831 156.91 83.5497 156.607 83.6795C156.143 83.8773 155.756 84.2121 155.498 84.6367C155.24 85.0613 155.126 85.5541 155.171 86.0456C155.189 86.1318 155.188 86.2207 155.168 86.3065C155.148 86.3923 155.11 86.4731 155.057 86.5438C155.003 86.6145 154.935 86.6735 154.857 86.717C154.779 86.7605 154.692 86.7876 154.602 86.7964C153.799 86.9947 153.082 87.4384 152.556 88.0629C152.03 88.6873 151.723 89.4596 151.679 90.2667C151.651 90.7848 151.732 91.3032 151.918 91.7895C152.103 92.2758 152.389 92.7197 152.758 93.0936C153.126 93.4676 153.57 93.7636 154.061 93.9632C154.552 94.1629 155.079 94.262 155.611 94.2543H172.74C172.943 94.2548 173.146 94.2401 173.347 94.2102C174.159 94.0887 174.9 93.6896 175.437 93.0842C175.975 92.4788 176.274 91.7066 176.282 90.9055C176.29 90.1045 176.006 89.3268 175.48 88.7116C174.954 88.0964 174.221 87.6837 173.412 87.5473C173.136 87.5098 172.857 87.4887 172.578 87.4842H172.164C172.118 87.4802 172.072 87.4669 172.031 87.4452C171.99 87.4235 171.954 87.3938 171.925 87.358C171.898 87.3221 171.879 87.2812 171.869 87.2377C171.859 87.1943 171.858 87.1493 171.867 87.1056C172.187 85.6917 171.942 84.2119 171.181 82.9687C170.42 81.7255 169.201 80.8129 167.774 80.4174C166.505 80.0593 165.148 80.1395 163.933 80.6446C163.073 81.0009 162.311 81.5498 161.709 82.247C161.106 82.9442 160.681 83.77 160.467 84.6575C160.452 84.7097 160.424 84.7572 160.384 84.7949C160.344 84.8326 160.295 84.8592 160.241 84.872C160.188 84.8868 160.132 84.8877 160.078 84.8744C160.025 84.861 159.976 84.8341 159.937 84.7963L159.73 84.607L159.329 84.2032C158.861 83.7492 158.23 83.4911 157.57 83.4839Z" fill="#D1D3D4"/>
<path d="M173.651 53.223H162.937C162.851 53.223 162.769 53.1898 162.708 53.1306C162.648 53.0715 162.614 52.9912 162.614 52.9076V45.6011C162.614 45.5174 162.648 45.4372 162.708 45.378C162.769 45.3188 162.851 45.2856 162.937 45.2856H173.651C173.737 45.2856 173.819 45.3188 173.88 45.378C173.941 45.4372 173.975 45.5174 173.975 45.6011V52.9076C173.975 52.9912 173.941 53.0715 173.88 53.1306C173.819 53.1898 173.737 53.223 173.651 53.223ZM163.26 52.5921H173.328V45.9166H163.26V52.5921Z" fill="#D1D3D4"/>
<path d="M162.931 53.223C162.863 53.2235 162.797 53.2012 162.744 53.1599C162.676 53.1107 162.631 53.0377 162.617 52.9563C162.604 52.875 162.624 52.7918 162.673 52.7245L166.908 47.1595C166.937 47.1223 166.974 47.0917 167.017 47.0699C167.059 47.0481 167.106 47.0356 167.154 47.0333C167.203 47.0331 167.251 47.0431 167.296 47.0627C167.34 47.0823 167.38 47.111 167.412 47.1468L170.723 50.9767C170.767 51.0413 170.785 51.1194 170.774 51.1961C170.762 51.2728 170.723 51.3428 170.662 51.3927C170.601 51.4426 170.524 51.4689 170.444 51.4667C170.365 51.4645 170.289 51.4338 170.232 51.3806L167.18 47.8598L163.209 53.0968C163.177 53.1382 163.135 53.1713 163.086 53.1933C163.038 53.2153 162.985 53.2255 162.931 53.223Z" fill="#D1D3D4"/>
<path d="M169.565 50.447C169.506 50.4452 169.449 50.4282 169.4 50.3977C169.35 50.3672 169.31 50.3244 169.283 50.2736C169.256 50.2228 169.243 50.166 169.246 50.1088C169.249 50.0517 169.268 49.9964 169.3 49.9486L171.013 47.532C171.041 47.4944 171.077 47.4631 171.118 47.4402C171.159 47.4174 171.205 47.4035 171.253 47.3995C171.301 47.396 171.35 47.4026 171.396 47.4189C171.441 47.4353 171.483 47.4609 171.518 47.4941L173.884 49.9107C173.917 49.9397 173.944 49.9751 173.962 50.0146C173.981 50.0541 173.991 50.0969 173.991 50.1403C173.992 50.1837 173.984 50.2268 173.967 50.2668C173.949 50.3069 173.924 50.343 173.892 50.3731C173.86 50.4031 173.822 50.4263 173.78 50.4413C173.738 50.4563 173.694 50.4628 173.649 50.4602C173.605 50.4577 173.562 50.4462 173.522 50.4266C173.482 50.407 173.447 50.3795 173.419 50.3461L171.324 48.2387L169.837 50.3334C169.803 50.3713 169.761 50.4012 169.714 50.4209C169.667 50.4406 169.616 50.4495 169.565 50.447Z" fill="#D1D3D4"/>
<path d="M169.753 48.0302C169.557 48.0302 169.366 47.9736 169.203 47.8675C169.04 47.7615 168.913 47.6107 168.838 47.4343C168.764 47.2579 168.744 47.0638 168.782 46.8765C168.82 46.6893 168.915 46.5173 169.053 46.3823C169.191 46.2472 169.368 46.1553 169.559 46.1181C169.751 46.0808 169.95 46.0999 170.131 46.173C170.312 46.2461 170.466 46.3698 170.575 46.5285C170.684 46.6873 170.742 46.8739 170.742 47.0649C170.742 47.3209 170.638 47.5664 170.452 47.7475C170.267 47.9285 170.015 48.0302 169.753 48.0302ZM169.753 46.7683C169.663 46.7683 169.578 46.8029 169.515 46.8644C169.452 46.9259 169.416 47.0094 169.416 47.0964C169.415 47.14 169.423 47.1834 169.44 47.2239C169.457 47.2644 169.481 47.3014 169.512 47.3325C169.544 47.3636 169.581 47.3884 169.622 47.4053C169.664 47.4221 169.708 47.4308 169.753 47.4308C169.843 47.4308 169.931 47.3956 169.995 47.3329C170.059 47.2702 170.095 47.1851 170.095 47.0964C170.1 47.0502 170.094 47.0036 170.079 46.9596C170.064 46.9157 170.039 46.8753 170.007 46.8414C169.974 46.8074 169.935 46.7805 169.891 46.7624C169.847 46.7444 169.8 46.7357 169.753 46.7368V46.7683Z" fill="#D1D3D4"/>
<path d="M133.465 15.8019H120.791C120.705 15.8019 120.623 15.7687 120.562 15.7095C120.502 15.6503 120.468 15.5701 120.468 15.4864V8.66579C120.468 8.58212 120.502 8.50188 120.562 8.44271C120.623 8.38355 120.705 8.35031 120.791 8.35031H133.465C133.55 8.35031 133.633 8.38355 133.693 8.44271C133.754 8.50188 133.788 8.58212 133.788 8.66579V15.4864C133.788 15.5701 133.754 15.6503 133.693 15.7095C133.633 15.7687 133.55 15.8019 133.465 15.8019ZM121.095 15.171H133.141V8.98127H121.114L121.095 15.171Z" fill="#D1D3D4"/>
<path d="M127.141 13.2335C127.075 13.2325 127.011 13.2152 126.954 13.1831L120.61 8.92411C120.542 8.87592 120.495 8.80331 120.48 8.7219C120.466 8.64049 120.485 8.55678 120.533 8.48875C120.583 8.4212 120.659 8.37551 120.743 8.36138C120.828 8.34725 120.915 8.36577 120.985 8.41304L127.148 12.5458L133.303 8.41304C133.338 8.38681 133.378 8.36774 133.42 8.35699C133.463 8.34625 133.507 8.34405 133.55 8.35053C133.594 8.35701 133.635 8.37203 133.673 8.39469C133.71 8.41734 133.742 8.44715 133.767 8.4823C133.792 8.51746 133.809 8.55721 133.818 8.59916C133.827 8.6411 133.827 8.68434 133.818 8.72627C133.809 8.76819 133.792 8.80791 133.766 8.84301C133.741 8.8781 133.709 8.90785 133.672 8.93042L127.329 13.1894C127.272 13.221 127.207 13.2363 127.141 13.2335Z" fill="#D1D3D4"/>
<path d="M120.791 15.8016C120.739 15.8012 120.688 15.7883 120.641 15.7642C120.595 15.74 120.556 15.7052 120.526 15.6628C120.502 15.629 120.485 15.5908 120.476 15.5505C120.467 15.5101 120.466 15.4684 120.474 15.4278C120.482 15.3873 120.498 15.3486 120.522 15.3142C120.545 15.2798 120.575 15.2503 120.61 15.2275L125.706 11.814C125.777 11.7674 125.865 11.7499 125.949 11.7652C126.034 11.7805 126.109 11.8274 126.158 11.896C126.183 11.9303 126.2 11.969 126.209 12.0099C126.218 12.0507 126.219 12.0929 126.211 12.134C126.203 12.1751 126.187 12.2143 126.164 12.2492C126.14 12.2842 126.11 12.3143 126.074 12.3377L120.992 15.7448C120.933 15.784 120.863 15.8039 120.791 15.8016Z" fill="#D1D3D4"/>
<path d="M133.465 15.8011C133.4 15.8 133.337 15.7802 133.284 15.7443L128.201 12.3372C128.132 12.2878 128.085 12.2141 128.071 12.1317C128.056 12.0492 128.075 11.9645 128.124 11.8955C128.172 11.8274 128.246 11.7806 128.33 11.7652C128.413 11.7499 128.499 11.7672 128.57 11.8135L133.652 15.227C133.722 15.2742 133.77 15.3463 133.786 15.4278C133.802 15.5093 133.784 15.5935 133.736 15.6623C133.706 15.7048 133.665 15.7396 133.618 15.7637C133.571 15.7878 133.518 15.8007 133.465 15.8011Z" fill="#D1D3D4"/>
<path d="M28.4347 22.7041H28.3506C28.0387 22.6942 27.732 22.6232 27.4487 22.4953C27.1654 22.3674 26.9114 22.1852 26.7018 21.9596C26.4831 21.732 26.3132 21.464 26.2022 21.1715C26.0912 20.8789 26.0412 20.5677 26.0552 20.256C26.0725 19.8992 26.1737 19.551 26.351 19.2385C26.5283 18.926 26.7769 18.6575 27.0776 18.4537C27.3783 18.25 27.723 18.1165 28.085 18.0636C28.447 18.0107 28.8167 18.0398 29.1654 18.1486C29.1654 16.4955 29.1654 14.8487 29.1654 13.1956C29.1469 13.0596 29.1783 12.9217 29.254 12.8062C29.3298 12.6907 29.445 12.6051 29.5792 12.5646C31.2992 12.0157 33.0192 11.4541 34.7521 10.8989L36.4721 10.3184H36.6144C36.711 10.3047 36.8095 10.3248 36.8924 10.3752C36.9685 10.4253 37.0218 10.5022 37.0411 10.5897C37.0411 10.7096 37.0411 10.7601 37.0411 10.8106V12.8485C37.0411 15.0148 37.0411 17.179 37.0411 19.3411C37.0454 19.7243 36.9548 20.1028 36.7769 20.4445C36.599 20.7861 36.3392 21.0808 36.0195 21.3034C35.7126 21.518 35.3568 21.6566 34.9828 21.7071C34.6088 21.7577 34.2278 21.7187 33.8727 21.5936C33.5687 21.4909 33.289 21.3297 33.0502 21.1194C32.8113 20.9091 32.6183 20.6541 32.4825 20.3695C32.3454 20.0906 32.2679 19.7873 32.2545 19.4782C32.2412 19.1691 32.2923 18.8606 32.4049 18.5713C32.616 18.0125 33.039 17.5542 33.5866 17.2912C34.1342 17.0281 34.7644 16.9804 35.347 17.158V12.4132L30.8207 13.8833V16.9624C30.8207 18.1107 30.8207 19.2654 30.8207 20.4137C30.818 20.7204 30.7526 21.0236 30.6282 21.3053C30.5039 21.587 30.3231 21.8416 30.0965 22.0542C29.6485 22.4708 29.0536 22.7035 28.4347 22.7041ZM28.4347 18.666C28.0863 18.6679 27.7463 18.7711 27.4583 18.9625C27.2348 19.1093 27.0495 19.3049 26.9171 19.5339C26.7846 19.7628 26.7087 20.0187 26.6953 20.2812C26.6833 20.5117 26.719 20.7421 26.8001 20.9589C26.8811 21.1757 27.006 21.3744 27.1673 21.5431C27.3194 21.707 27.5036 21.8395 27.7091 21.9327C27.9146 22.0259 28.1371 22.078 28.3636 22.0858C28.6012 22.0956 28.8384 22.0582 29.0607 21.9758C29.2831 21.8933 29.4859 21.7676 29.6568 21.6062C29.823 21.4543 29.9553 21.2705 30.0455 21.0664C30.1356 20.8623 30.1816 20.6423 30.1805 20.42C30.1805 19.2717 30.1805 18.1233 30.1805 16.975V13.6562C30.181 13.5906 30.2025 13.5268 30.2419 13.4736C30.2813 13.4205 30.3367 13.3806 30.4004 13.3596L35.5733 11.675C35.6221 11.6603 35.6736 11.6567 35.724 11.6643C35.7744 11.672 35.8224 11.6907 35.8643 11.7191C35.9058 11.7492 35.9396 11.7881 35.9631 11.833C35.9867 11.8779 35.9993 11.9274 36.0001 11.9778V17.5933C36.0002 17.6446 35.9873 17.6951 35.9624 17.7402C35.9376 17.7854 35.9016 17.8238 35.8578 17.852C35.8107 17.8753 35.7587 17.8874 35.7059 17.8874C35.6531 17.8874 35.601 17.8753 35.5539 17.852L35.3017 17.7511C35.0855 17.6634 34.8537 17.6183 34.6196 17.6183C34.3854 17.6183 34.1536 17.6634 33.9374 17.7511C33.7257 17.8436 33.5353 17.9767 33.3776 18.1426C33.2198 18.3084 33.0979 18.5036 33.0192 18.7164C32.9362 18.9272 32.898 19.1522 32.9069 19.3778C32.9158 19.6034 32.9716 19.8249 33.0709 20.0288C33.1699 20.2362 33.3109 20.422 33.4854 20.5748C33.6598 20.7277 33.8642 20.8446 34.0861 20.9185C34.3447 21.0098 34.6222 21.0386 34.8948 21.0024C35.1673 20.9661 35.4268 20.8659 35.6509 20.7103C35.8865 20.5467 36.0779 20.3298 36.2086 20.0781C36.3392 19.8264 36.4053 19.5475 36.401 19.2654C36.401 17.1033 36.401 14.9412 36.401 12.7791V11.0125L34.9138 11.4857L29.7861 13.1514C29.7861 14.855 29.7861 16.5396 29.7861 18.1991C29.7861 18.2811 29.7861 18.3568 29.7861 18.4451V18.565C29.7849 18.6154 29.7711 18.6647 29.7459 18.7086C29.7207 18.7526 29.6848 18.7899 29.6415 18.8173C29.5981 18.8446 29.5486 18.8612 29.4972 18.8657C29.4458 18.8701 29.394 18.8622 29.3464 18.8426L29.2042 18.7858L28.9973 18.7101C28.8156 18.6659 28.6278 18.6509 28.4412 18.666H28.4347Z" fill="#D1D3D4"/>
<path d="M98.3271 0.81575H98.9737C98.9951 0.819404 99.017 0.819404 99.0384 0.81575C99.9638 0.860092 100.859 1.15265 101.625 1.66123C102.451 2.18541 103.109 2.92651 103.523 3.79934C103.938 4.67216 104.091 5.64129 103.966 6.59531C103.87 7.75869 103.351 8.85049 102.504 9.67438C101.941 10.2595 101.245 10.7079 100.473 10.984C99.7007 11.2601 98.8728 11.3561 98.0556 11.2644C97.1955 11.185 96.3701 10.8941 95.6566 10.4189C95.0246 10.0136 94.4883 9.48157 94.0836 8.85815C93.6788 8.23474 93.4149 7.5343 93.3094 6.80353C93.3094 6.6521 93.2641 6.50067 93.2448 6.34924V5.77507C93.2473 5.73936 93.2473 5.70352 93.2448 5.66781C93.2448 5.44066 93.2965 5.21983 93.3417 4.99899C93.5693 3.94027 94.1261 2.97585 94.9362 2.23734C95.7462 1.49883 96.7701 1.02222 97.868 0.872536L98.3271 0.81575ZM102.562 9.01819C103.176 8.23659 103.526 7.28877 103.565 6.30507H101.437C101.399 6.67734 101.379 7.0496 101.327 7.40925C101.276 7.76889 101.198 8.13485 101.14 8.47556L102.562 9.01819ZM93.6844 6.30507C93.7253 7.28837 94.0752 8.23559 94.6867 9.01819L96.1286 8.47556C95.9443 7.76564 95.8445 7.03733 95.8312 6.30507H93.6844ZM103.558 5.88233C103.52 4.90242 103.169 3.95854 102.556 3.18184L101.133 3.69291C101.318 4.39856 101.418 5.12269 101.431 5.85078L103.558 5.88233ZM96.1286 3.69291L94.6673 3.14398C94.0575 3.9246 93.7097 4.86996 93.6715 5.85078H95.8053C95.8271 5.1217 95.9356 4.39755 96.1286 3.69291ZM98.8444 8.15378C99.1613 8.15378 99.491 8.19794 99.7691 8.22949C100.047 8.26104 100.416 8.31782 100.694 8.36199C100.697 8.33472 100.697 8.30724 100.694 8.27997C100.852 7.66022 100.941 7.02555 100.959 6.3871C100.959 6.29876 100.959 6.27984 100.849 6.27984C100.202 6.27984 99.5557 6.27984 98.9091 6.27984H98.8186L98.8444 8.15378ZM96.258 6.26091C96.2656 6.95952 96.3611 7.65457 96.5425 8.33044L98.3983 8.12854V6.23567L96.258 6.26091ZM100.978 5.83816C100.969 5.14172 100.874 4.44891 100.694 3.77494L98.838 3.97684V5.86971L100.978 5.83816ZM96.5425 3.77494C96.366 4.4496 96.2706 5.14199 96.258 5.83816H98.3983V3.99577L96.5425 3.77494ZM100.564 3.33958C100.415 2.88966 100.197 2.46426 99.9178 2.07766C99.7357 1.79896 99.4872 1.56734 99.1936 1.40254C99.0736 1.34386 98.9505 1.29122 98.825 1.2448V3.54148C99.4121 3.53661 99.9971 3.47319 100.571 3.3522L100.564 3.33958ZM98.838 8.57652V10.848C99.0957 10.7984 99.3335 10.678 99.5234 10.5009C99.9273 10.1197 100.237 9.65357 100.429 9.13807L100.571 8.7658C100.003 8.65142 99.4245 8.59224 98.8444 8.58914L98.838 8.57652ZM98.3983 10.8543V8.58283C97.8137 8.59845 97.2317 8.6639 96.6589 8.77842C96.7623 9.0245 96.8529 9.25795 96.9628 9.47879C97.1434 9.88237 97.4101 10.2437 97.7452 10.5388C97.9318 10.7025 98.1593 10.8157 98.4047 10.8669L98.3983 10.8543ZM96.6459 3.33327C97.2217 3.45642 97.8089 3.52195 98.3983 3.52886V1.26373C98.2205 1.2962 98.0525 1.36737 97.9068 1.47194C97.5559 1.71763 97.2735 2.04518 97.0856 2.42469C96.9304 2.72124 96.8011 3.03041 96.6524 3.34589L96.6459 3.33327ZM102.252 9.32736C101.853 9.1277 101.432 8.97113 100.998 8.86045C100.786 9.54148 100.427 10.1699 99.9437 10.7028C100.829 10.4656 101.631 9.99391 102.259 9.33997L102.252 9.32736ZM97.2861 1.42147C96.397 1.65235 95.5982 2.13544 94.9906 2.80957L96.2192 3.25755C96.3744 2.91684 96.5101 2.62659 96.6653 2.28588C96.8285 1.97232 97.0401 1.68505 97.2925 1.43409L97.2861 1.42147ZM94.9906 9.33997C95.6219 10.0002 96.4273 10.4783 97.3184 10.7218C96.8272 10.191 96.4648 9.55916 96.258 8.87307C95.8192 8.98263 95.3941 9.13922 94.9906 9.33997ZM99.976 1.43409C100.216 1.69372 100.419 1.98463 100.577 2.2985C100.733 2.60767 100.868 2.92946 101.017 3.25124C101.448 3.14445 101.864 2.98991 102.259 2.79065C101.643 2.13851 100.852 1.66842 99.976 1.43409Z" fill="#D1D3D4"/>
<path d="M10.1039 56.832C10.0396 56.8415 9.9742 56.8415 9.9099 56.832C9.77004 56.7938 9.64742 56.7108 9.56179 56.5963C9.47616 56.4819 9.43251 56.3426 9.43788 56.201V54.8003C9.10745 54.6316 8.8308 54.3777 8.63811 54.0662C8.44541 53.7546 8.34406 53.3975 8.3451 53.0336V50.106C8.3451 49.5766 8.56017 49.0688 8.94318 48.6939C9.32618 48.319 9.84589 48.1075 10.3884 48.1058H17.2231C17.7667 48.1058 18.2881 48.3165 18.6725 48.6916C19.0569 49.0667 19.2729 49.5755 19.2729 50.106V53.0336C19.2712 53.563 19.0544 54.0701 18.6702 54.4438C18.286 54.8176 17.7656 55.0274 17.2231 55.0274H11.6558L10.6535 56.548C10.5937 56.6366 10.512 56.7091 10.416 56.7587C10.3199 56.8083 10.2126 56.8335 10.1039 56.832ZM10.3884 48.7242C10.0174 48.7258 9.66215 48.8708 9.4004 49.1274C9.13866 49.384 8.99171 49.7313 8.99171 50.0933V53.021C8.99268 53.2946 9.07841 53.5615 9.23766 53.7867C9.39691 54.0119 9.62223 54.1849 9.88404 54.2829C9.94359 54.3058 9.99463 54.3459 10.0304 54.3977C10.0662 54.4495 10.085 54.5107 10.0845 54.5731V56.1821L11.2031 54.5479C11.2332 54.5042 11.2735 54.4683 11.3208 54.443C11.368 54.4178 11.4208 54.404 11.4747 54.4028H17.2231C17.5941 54.4028 17.95 54.2594 18.213 54.004C18.476 53.7486 18.6245 53.4019 18.6263 53.0399V50.1123C18.6263 49.7491 18.4784 49.4009 18.2153 49.1441C17.9521 48.8873 17.5952 48.7431 17.2231 48.7431L10.3884 48.7242Z" fill="#D1D3D4"/>
</g>
<defs>
<filter id="filter0_d" x="0" y="0" width="187.937" height="160" filterUnits="userSpaceOnUse" color-interpolation-filters="sRGB">
<feFlood flood-opacity="0" result="BackgroundImageFix"/>
<feColorMatrix in="SourceAlpha" type="matrix" values="0 0 0 0 0 0 0 0 0 0 0 0 0 0 0 0 0 0 127 0"/>
<feOffset dx="7" dy="4"/>
<feGaussianBlur stdDeviation="2"/>
<feColorMatrix type="matrix" values="0 0 0 0 0 0 0 0 0 0 0 0 0 0 0 0 0 0 0.11 0"/>
<feBlend mode="normal" in2="BackgroundImageFix" result="effect1_dropShadow"/>
<feBlend mode="normal" in="SourceGraphic" in2="effect1_dropShadow" result="shape"/>
</filter>
</defs>
</svg>
