<svg  viewBox="0 0 452 460" fill="none" xmlns="http://www.w3.org/2000/svg">
<path d="M53.0483 436.507C62.9252 444.769 75.2997 449.439 87.6364 453.202C92.8019 454.79 98.0241 456.227 103.265 457.531H331.474C335.353 457.531 344.719 444.751 346.611 441.158C351.12 431.47 352.899 420.737 351.758 410.114C350.112 397.201 342.184 385.536 341.446 372.567C340.973 364.248 343.489 355.986 343.338 347.648C342.903 329.593 328.334 314.808 312.913 307.113C303.622 302.462 295.316 286.865 292.97 277.279C290.018 265.217 285.666 258.77 277.833 248.579C276.071 246.42 274.483 244.126 273.084 241.716C269.413 235.005 268.826 227.102 266.688 219.766C265.94 216.627 264.454 213.711 262.355 211.259C259.187 208.25 254.976 206.583 250.605 206.608C243.226 206.381 240.709 208.952 234.73 204.717C230.303 201.597 228.562 196.587 222.677 195.264C216.505 193.859 210.102 193.807 203.908 195.111C197.713 196.414 191.875 199.043 186.794 202.815C181.713 206.588 177.51 211.415 174.474 216.965C171.438 222.516 169.641 228.657 169.206 234.967C168.941 238.748 169.206 242.681 167.579 246.122C165.951 249.563 163.113 251.794 161.145 254.932C155.053 264.385 159.48 277.222 155.98 287.923C152.725 297.925 143.17 304.41 133.691 308.966C124.211 313.522 113.937 317.096 106.387 324.431C94.694 335.775 91.08 354.832 76.8891 362.868C59.1031 372.945 39.5385 378.352 37.3437 402.798C36.0759 415.692 43.1714 428.226 53.0483 436.507Z" fill="white"/>
<path d="M331.474 458.476H103.038C97.5699 457.096 92.2908 455.64 87.3524 454.127C75.8672 450.611 62.7548 445.865 52.4427 437.244C41.2413 427.791 35.1865 414.972 36.284 402.797C38.1761 381.905 52.367 374.608 67.3905 366.875C70.3233 365.381 73.3507 363.812 76.3024 362.148C84.2493 357.649 88.7337 349.689 93.4829 341.352C96.9644 335.207 100.541 328.855 105.63 323.92C111.685 318.021 119.519 314.467 127.087 311.083C129.131 310.175 131.155 309.192 133.161 308.285C145.233 302.48 152.366 295.788 154.977 287.809C156.205 283.168 156.721 278.368 156.51 273.573C156.51 267.012 156.604 260.225 160.294 254.667C161.149 253.393 162.091 252.18 163.113 251.037C164.522 249.515 165.718 247.811 166.67 245.97C167.674 243.274 168.155 240.413 168.089 237.538C168.089 236.743 168.089 235.93 168.203 235.136C168.81 227.733 171.208 220.587 175.189 214.314C179.171 208.04 184.617 202.826 191.06 199.12C200.729 193.753 212.036 192.125 222.829 194.545C226.186 195.482 229.132 197.519 231.192 200.33C232.387 201.739 233.739 203.008 235.222 204.111C236.546 205.136 238.084 205.849 239.723 206.196C241.361 206.543 243.056 206.516 244.683 206.115C246.671 205.855 248.676 205.747 250.681 205.794C255.301 205.745 259.753 207.518 263.074 210.728C265.282 213.284 266.846 216.331 267.634 219.614C268.353 222.091 268.902 224.643 269.432 227.177C270.256 232.119 271.779 236.918 273.954 241.432C275.33 243.792 276.886 246.042 278.608 248.163C286.177 257.881 290.869 264.668 293.935 277.222C296.167 286.297 304.379 301.932 313.405 306.432C328.05 313.749 343.868 328.458 344.341 347.799C344.341 351.825 344.025 355.846 343.395 359.823C342.693 364.071 342.395 368.375 342.505 372.679C342.884 379.448 345.344 386.027 347.709 392.398C350.081 398.108 351.789 404.071 352.799 410.17C353.967 420.975 352.155 431.894 347.557 441.744C345.722 444.958 336.034 458.476 331.474 458.476ZM103.379 456.585H331.474C334.559 456.585 343.679 444.807 345.722 440.723C350.153 431.207 351.9 420.662 350.774 410.227C349.769 404.278 348.093 398.462 345.779 392.89C343.357 386.386 340.859 379.656 340.462 372.623C340.353 368.192 340.657 363.762 341.37 359.388C341.991 355.505 342.301 351.579 342.297 347.647C341.843 329.157 326.555 315.015 312.402 307.944C302.752 303.104 294.313 287.147 291.948 277.486C289.072 265.708 284.966 259.525 276.962 249.127C275.177 246.923 273.563 244.584 272.137 242.132C269.863 237.464 268.282 232.49 267.445 227.366C266.915 224.927 266.366 222.394 265.666 219.993C264.947 217.007 263.541 214.23 261.56 211.882C258.58 209.032 254.597 207.47 250.472 207.533C248.575 207.491 246.677 207.599 244.796 207.855C242.957 208.269 241.049 208.273 239.208 207.868C237.367 207.463 235.638 206.658 234.143 205.51C232.534 204.314 231.073 202.93 229.792 201.389C227.978 198.881 225.382 197.046 222.412 196.171C212.075 193.87 201.252 195.43 191.987 200.557C185.817 204.11 180.603 209.106 176.79 215.116C172.977 221.125 170.68 227.969 170.095 235.061C170.095 235.836 170 236.63 169.981 237.424C170.029 240.541 169.49 243.638 168.392 246.556C167.392 248.55 166.118 250.396 164.608 252.039C163.654 253.134 162.763 254.283 161.94 255.48C158.61 260.66 158.572 266.823 158.515 273.459C158.727 278.448 158.178 283.439 156.888 288.263C154.107 296.752 146.652 303.823 134.182 309.854C132.158 310.818 130.114 311.744 128.052 312.671C120.616 316.017 112.915 319.477 107.125 325.13C102.243 329.876 98.7241 336.115 95.3183 342.146C90.6447 350.427 85.8576 358.972 77.4187 363.737C74.4481 365.419 71.4018 366.988 68.4501 368.501C53.8996 376.063 40.0682 383.059 38.3653 402.91C37.3435 414.254 43.2659 426.883 53.8429 435.732C63.8711 444.145 76.7943 448.815 88.1092 452.274C92.7828 453.825 97.9861 455.243 103.379 456.585Z" fill="#231F20"/>
<path d="M224.967 168.058C219.555 167.453 214.144 166.621 208.713 166.281C199.65 165.751 194.466 160.817 193.33 152.233C191.59 138.999 185.762 127.523 178.818 116.312C168.428 100.317 164.783 80.869 168.676 62.2019C176.547 23.5197 210.606 3.36568 250.34 11.7222C308.996 24.0491 318.93 87.1959 283.187 126.313C273.538 136.881 264.266 147.11 259.158 160.779C256.3 168.341 250.132 171.215 242.015 170.005C236.376 169.173 230.662 168.701 224.967 168.058Z" fill="white"/>
<path d="M245.421 171.215C244.243 171.209 243.067 171.12 241.901 170.95C238.117 170.364 234.068 169.967 230.246 169.57L224.872 169.003L219.877 168.341C216.206 167.868 212.309 167.396 208.657 167.169C199.196 166.602 193.52 161.497 192.403 152.29C190.511 138.261 184.097 126.445 178.023 116.727C167.545 100.501 163.856 80.8142 167.749 61.899C171.533 43.5411 181.107 28.8887 195.45 19.4923C210.587 9.54767 230.189 6.44705 250.548 10.7199C276.319 16.1459 294.503 31.5167 301.768 54.0151C309.602 78.3285 302.752 106.234 283.907 126.861C274.73 136.919 265.231 147.298 260.066 161.043C259.081 164.11 257.113 166.767 254.466 168.606C251.819 170.444 248.641 171.361 245.421 171.215ZM225.08 167.112C226.859 167.32 228.657 167.509 230.435 167.679C234.219 168.076 238.269 168.492 242.185 169.078C250.151 170.251 255.714 167.188 258.287 160.457C263.585 146.372 273.197 135.879 282.506 125.67C300.898 105.535 307.596 78.4042 299.971 54.6768C292.932 32.8401 275.241 17.9231 250.17 12.6483C230.284 8.47002 211.23 11.495 196.49 21.1372C182.564 30.25 173.274 44.5053 169.584 62.3528C167.658 71.48 167.552 80.8971 169.273 90.0652C170.994 99.2333 174.508 107.972 179.613 115.782C185.819 125.67 192.403 137.713 194.277 152.101C195.355 160.382 200.237 164.843 208.77 165.335C212.555 165.562 216.339 166.035 220.123 166.507L225.08 167.093V167.112Z" fill="#231F20"/>
<path d="M246.745 170.55L202.968 165.667C199.043 165.229 195.505 168.054 195.067 171.977L194.815 174.232C194.377 178.154 197.204 181.689 201.129 182.127L244.906 187.01C248.832 187.448 252.37 184.623 252.808 180.701L253.06 178.446C253.498 174.523 250.671 170.988 246.745 170.55Z" fill="white"/>
<path d="M245.723 188.023C245.414 188.042 245.105 188.042 244.796 188.023L200.993 183.145C199.939 183.027 198.918 182.703 197.99 182.19C197.061 181.678 196.243 180.987 195.582 180.158C194.911 179.331 194.413 178.377 194.117 177.354C193.821 176.331 193.734 175.26 193.86 174.202L194.106 171.934C194.349 169.802 195.423 167.852 197.096 166.508C197.927 165.844 198.882 165.352 199.905 165.06C200.928 164.768 201.999 164.681 203.056 164.806L246.859 169.684C248.987 169.926 250.933 171.001 252.27 172.674C253.607 174.346 254.226 176.48 253.992 178.607L253.746 180.895C253.628 181.949 253.304 182.969 252.791 183.897C252.277 184.824 251.586 185.642 250.756 186.302C249.325 187.434 247.548 188.041 245.723 188.023ZM245.004 186.132C246.637 186.313 248.275 185.839 249.559 184.815C250.843 183.791 251.668 182.299 251.854 180.668L252.119 178.381C252.209 177.574 252.138 176.758 251.91 175.98C251.683 175.201 251.304 174.475 250.794 173.843C250.29 173.201 249.662 172.667 248.947 172.274C248.231 171.881 247.444 171.637 246.631 171.555L202.848 166.659C202.038 166.564 201.217 166.633 200.434 166.86C199.651 167.087 198.921 167.469 198.288 167.982C197.646 168.482 197.112 169.106 196.718 169.818C196.325 170.53 196.08 171.314 195.998 172.123L195.733 174.41C195.568 176.024 196.041 177.639 197.053 178.907C198.065 180.176 199.534 180.998 201.145 181.198L245.004 186.132Z" fill="#231F20"/>
<path d="M244.909 187.015L201.132 182.132C197.207 181.694 193.669 184.519 193.231 188.441L192.979 190.696C192.54 194.619 195.368 198.153 199.293 198.591L243.07 203.475C246.996 203.912 250.533 201.088 250.972 197.165L251.224 194.91C251.662 190.988 248.835 187.453 244.909 187.015Z" fill="white"/>
<path d="M243.869 204.49C243.567 204.509 243.263 204.509 242.961 204.49L199.253 199.555C197.12 199.313 195.168 198.239 193.822 196.568C193.159 195.737 192.667 194.783 192.375 193.761C192.083 192.739 191.996 191.669 192.119 190.613L192.365 188.344C192.604 186.243 193.656 184.318 195.297 182.983C196.938 181.647 199.037 181.006 201.145 181.198L244.948 186.094C247.079 186.332 249.03 187.405 250.371 189.078C251.712 190.751 252.334 192.887 252.1 195.018L251.835 197.306C251.608 199.276 250.667 201.096 249.188 202.419C247.71 203.743 245.797 204.48 243.812 204.49H243.869ZM200.35 183.05C198.826 183.046 197.354 183.606 196.219 184.622C195.083 185.638 194.364 187.038 194.201 188.552L193.955 190.821C193.774 192.452 194.248 194.089 195.273 195.372C196.298 196.655 197.791 197.48 199.423 197.665L243.226 202.562C244.859 202.742 246.497 202.269 247.781 201.244C249.065 200.22 249.89 198.729 250.075 197.098L250.34 194.81C250.435 194.001 250.368 193.182 250.144 192.399C249.92 191.616 249.543 190.885 249.034 190.249C248.526 189.612 247.896 189.083 247.182 188.691C246.467 188.299 245.682 188.053 244.872 187.966L201.069 183.088C200.812 183.052 200.553 183.039 200.293 183.05H200.35Z" fill="#231F20"/>
<path d="M243.661 203.563C242.961 209.765 232.308 213.678 219.915 212.298C207.521 210.918 197.985 204.736 198.666 198.534L243.661 203.563Z" fill="#231F20"/>
<path d="M224.948 213.527C223.228 213.527 221.509 213.426 219.801 213.224C214.161 212.709 208.709 210.932 203.851 208.025C199.537 205.208 197.361 201.805 197.739 198.44C197.768 198.192 197.893 197.965 198.088 197.809C198.283 197.654 198.531 197.581 198.78 197.608L243.755 202.618C243.882 202.631 244.004 202.669 244.114 202.731C244.225 202.793 244.322 202.876 244.399 202.977C244.477 203.074 244.534 203.187 244.566 203.307C244.599 203.427 244.606 203.553 244.588 203.677C243.945 209.575 235.676 213.527 224.948 213.527ZM199.593 199.593C199.801 201.937 201.637 204.319 204.891 206.437C209.503 209.191 214.677 210.872 220.028 211.353C231.04 212.581 240.936 209.462 242.545 204.395L199.593 199.593Z" fill="#231F20"/>
<path d="M239.668 161.837C239.424 161.838 239.189 161.743 239.013 161.574C238.836 161.405 238.732 161.174 238.722 160.93C238.039 146.708 239.088 132.455 241.844 118.485C235.295 119.498 228.614 119.273 222.147 117.824C222.147 131.058 219.536 144.292 216.982 157.224L216.679 158.831C216.625 159.075 216.478 159.287 216.27 159.425C216.062 159.562 215.808 159.614 215.563 159.569C215.44 159.546 215.323 159.499 215.218 159.43C215.114 159.362 215.025 159.272 214.956 159.168C214.887 159.064 214.84 158.947 214.817 158.824C214.795 158.701 214.797 158.575 214.825 158.453L215.128 156.846C217.701 143.914 220.331 130.623 220.255 117.37C212.149 115.298 204.69 111.236 198.553 105.554C194.869 102.395 192.11 98.2985 190.568 93.6994C189.777 91.3298 189.609 88.797 190.079 86.3438C190.55 83.8906 191.643 81.5993 193.255 79.6899C194.631 78.3924 196.26 77.3917 198.039 76.7501C199.819 76.1084 201.712 75.8395 203.6 75.9601C205.489 76.0807 207.332 76.5882 209.016 77.451C210.699 78.3138 212.187 79.5135 213.387 80.9755C217.077 86.2125 219.744 94.5312 221.315 105.724C221.793 109.095 222.064 112.491 222.128 115.895C228.732 117.437 235.577 117.643 242.261 116.5C242.374 115.99 242.488 115.479 242.62 114.969L242.923 113.627C245.326 103.228 248.315 90.2962 256.717 82.9039C258.079 81.7128 262.885 77.8749 267.275 78.8769C268.32 79.1516 269.282 79.6802 270.074 80.4157C270.867 81.1512 271.465 82.0709 271.816 83.093C272.996 86.2401 273.413 89.622 273.031 92.9612C272.65 96.3003 271.481 99.5015 269.621 102.302C265.898 107.78 260.676 112.073 254.578 114.666C251.149 116.231 247.548 117.392 243.85 118.126C241.013 132.181 239.926 146.533 240.615 160.854C240.62 161.104 240.528 161.346 240.359 161.529C240.19 161.712 239.956 161.823 239.706 161.837H239.668ZM265.799 80.5406C262.847 80.9211 260.098 82.2479 257.965 84.3219C250.018 91.2983 247.105 103.928 244.72 114.061L244.418 115.404C244.418 115.631 244.304 115.876 244.266 116.103C247.526 115.399 250.698 114.34 253.727 112.946C259.502 110.511 264.45 106.46 267.975 101.281C269.673 98.7372 270.742 95.827 271.094 92.7898C271.446 89.7527 271.071 86.6754 269.999 83.8114C269.764 83.0699 269.346 82.3993 268.784 81.8609C268.222 81.3225 267.534 80.9336 266.783 80.7297C266.46 80.6577 266.13 80.6197 265.799 80.6163V80.5406ZM202.621 77.7425C201.145 77.6977 199.675 77.9547 198.302 78.4976C196.929 79.0405 195.682 79.858 194.636 80.8999C193.265 82.5796 192.34 84.5775 191.947 86.7089C191.553 88.8403 191.704 91.0365 192.384 93.0944C193.842 97.3613 196.416 101.161 199.839 104.098C205.611 109.474 212.605 113.367 220.217 115.442C220.149 112.278 219.889 109.121 219.442 105.988C217.909 95.0984 215.355 87.0822 211.873 82.072C210.878 80.7996 209.614 79.7621 208.172 79.0334C206.73 78.3046 205.144 77.9026 203.529 77.8559L202.621 77.7425Z" fill="#D1D3D4"/>
<path d="M123.871 459.497H308.334C310.794 430.665 314.559 395.424 319.914 374.06L398.059 299.531L344.795 248.825C344.795 248.825 226.84 323.769 218.496 323.259C207.862 322.597 79.7654 224.379 79.7654 224.379L56.0571 296.223L124.495 388.429C124.495 412.931 124.23 438.851 123.871 459.497Z" fill="#143561"/>
<path d="M221.561 448.909C221.303 448.902 221.058 448.793 220.88 448.607C220.791 448.519 220.721 448.414 220.673 448.299C220.625 448.184 220.6 448.06 220.6 447.936C220.6 447.811 220.625 447.687 220.673 447.572C220.721 447.457 220.791 447.352 220.88 447.264C246.045 423.197 250.492 410.624 249.773 404.309C249.656 402.997 249.221 401.733 248.506 400.626C247.791 399.519 246.816 398.603 245.667 397.957C245.535 397.877 245.425 397.767 245.346 397.635C245.267 397.503 245.221 397.354 245.213 397.201C245.204 397.051 245.23 396.901 245.289 396.763C245.348 396.626 245.439 396.503 245.553 396.407C246.916 395.291 248.429 394.213 250.019 393.079C254.881 389.619 259.914 386.027 261.504 380.809C263.623 373.889 260.274 364.266 257.568 356.514C256.849 354.416 256.149 352.431 255.676 350.616C255.62 350.493 255.592 350.359 255.592 350.224C255.592 350.089 255.621 349.955 255.678 349.832C255.734 349.709 255.816 349.6 255.918 349.511C256.021 349.423 256.141 349.357 256.27 349.319C256.4 349.281 256.537 349.271 256.671 349.29C256.805 349.309 256.933 349.356 257.047 349.429C257.161 349.502 257.258 349.598 257.332 349.711C257.405 349.825 257.454 349.953 257.474 350.086C258.022 351.845 258.704 353.868 259.366 355.891C262.147 363.907 265.61 373.851 263.32 381.357C261.542 387.199 255.998 391.151 251.116 394.592C249.943 395.423 248.808 396.236 247.748 397.049C248.851 397.883 249.767 398.938 250.438 400.145C251.109 401.353 251.521 402.688 251.646 404.064C252.762 413.857 242.848 428.831 222.185 448.607C222.021 448.78 221.799 448.887 221.561 448.909Z" fill="#231F20"/>
<path d="M180.918 446.263C180.734 446.264 180.553 446.211 180.398 446.11C180.243 446.009 180.122 445.865 180.048 445.696C179.405 444.184 178.572 442.406 177.645 440.402C172.139 428.548 162.905 408.697 168.43 396.786C170.211 393.035 173.41 390.145 177.323 388.751C172.952 386.728 164.078 381.755 164.873 375.327C165.989 366.479 175.128 358.463 181.183 353.131L181.524 352.829C181.716 352.666 181.964 352.585 182.215 352.603C182.466 352.621 182.7 352.736 182.867 352.923C182.949 353.016 183.012 353.124 183.052 353.241C183.092 353.358 183.108 353.482 183.099 353.605C183.09 353.728 183.057 353.849 183.001 353.959C182.945 354.069 182.867 354.167 182.773 354.247L182.432 354.568C176.585 359.692 167.768 367.424 166.746 375.554C166.027 381.226 176.301 386.463 180.313 387.994C180.5 388.063 180.66 388.19 180.769 388.357C180.878 388.524 180.93 388.722 180.918 388.921C180.906 389.12 180.832 389.311 180.707 389.467C180.581 389.623 180.411 389.736 180.218 389.79C178.053 390.232 176.018 391.164 174.27 392.514C172.522 393.865 171.107 395.598 170.133 397.58C164.987 408.697 173.917 428.057 179.367 439.608C180.294 441.612 181.126 443.39 181.789 444.94C181.885 445.171 181.887 445.43 181.795 445.663C181.704 445.896 181.525 446.084 181.297 446.188C181.175 446.231 181.047 446.256 180.918 446.263Z" fill="#231F20"/>
<path d="M243.964 334.773L193.652 336.55L194.787 452.577L243.964 334.773Z" fill="#231F20"/>
<path d="M194.788 453.522H194.598C194.385 453.479 194.193 453.363 194.055 453.194C193.917 453.025 193.841 452.814 193.842 452.596L192.706 336.568C192.704 336.447 192.725 336.326 192.77 336.212C192.814 336.099 192.88 335.996 192.964 335.908C193.049 335.82 193.15 335.75 193.261 335.701C193.373 335.652 193.493 335.626 193.614 335.623L243.926 333.846C244.084 333.837 244.242 333.869 244.385 333.939C244.527 334.008 244.649 334.113 244.74 334.243C244.832 334.373 244.89 334.525 244.907 334.684C244.923 334.843 244.898 335.004 244.834 335.151L195.639 452.955C195.567 453.121 195.448 453.263 195.297 453.364C195.146 453.464 194.969 453.519 194.788 453.522ZM194.598 337.457L195.696 447.964L242.526 335.774L194.598 337.457Z" fill="#231F20"/>
<path d="M197.361 306.149L193.576 336.607C193.576 336.607 198.704 354.209 219.215 351.524C239.725 348.84 243.812 334.83 243.812 334.83L250.624 270.435C250.624 270.435 244.039 268.431 237.265 233.625C237.265 233.625 221.334 243.645 192.006 236.669C192.006 236.669 185.308 268.809 185.592 284.577C185.57 288.874 186.638 293.105 188.696 296.878C190.754 300.65 193.735 303.84 197.361 306.149Z" fill="white"/>
<path d="M215.184 352.677C210.244 352.74 205.411 351.239 201.377 348.39C197.343 345.54 194.314 341.489 192.725 336.814C192.706 336.689 192.706 336.562 192.725 336.436L196.282 306.602C192.683 304.163 189.741 300.876 187.715 297.031C185.689 293.187 184.641 288.903 184.664 284.558C184.381 268.865 191.022 236.763 191.098 236.441C191.117 236.316 191.165 236.196 191.237 236.092C191.309 235.987 191.404 235.9 191.514 235.836C191.62 235.771 191.739 235.727 191.862 235.708C191.985 235.688 192.111 235.693 192.233 235.723C220.785 242.491 236.641 232.887 236.792 232.773C236.924 232.695 237.072 232.649 237.225 232.639C237.378 232.629 237.531 232.656 237.672 232.717C237.812 232.778 237.936 232.871 238.033 232.99C238.13 233.108 238.198 233.248 238.23 233.397C244.645 266.427 250.908 269.47 250.964 269.508C251.168 269.57 251.342 269.704 251.454 269.885C251.566 270.066 251.607 270.282 251.57 270.491L244.929 334.867C244.701 335.623 240.312 349.671 219.423 352.393C218.018 352.587 216.602 352.682 215.184 352.677ZM194.598 336.455C195.222 338.346 200.577 352.941 219.196 350.521C238.798 347.95 242.904 335.037 243.074 334.489L249.64 270.888C247.634 269.452 242.185 263.061 236.622 234.967C232.441 237.103 217.417 243.323 192.744 237.708C191.646 243.134 186.311 270.491 186.556 284.444C186.528 288.539 187.524 292.575 189.454 296.187C191.384 299.799 194.186 302.873 197.607 305.128C197.735 305.21 197.856 305.305 197.966 305.411C198.068 305.511 198.145 305.633 198.191 305.767C198.237 305.902 198.251 306.045 198.231 306.186L194.598 336.455Z" fill="#231F20"/>
<path d="M242.771 271.475C244.474 266.843 248.713 264.045 253.292 262.551C254.783 261.984 256.381 261.749 257.972 261.864C259.564 261.978 261.111 262.438 262.506 263.213C264.22 264.476 265.518 266.221 266.235 268.224C266.953 270.227 267.058 272.399 266.537 274.462C265.917 277.597 264.469 280.509 262.343 282.896C260.217 285.283 257.49 287.058 254.446 288.037C250.33 289.14 245.944 288.576 242.242 286.467" fill="white"/>
<path d="M250.34 289.549C247.365 289.545 244.442 288.763 241.864 287.28C241.674 287.142 241.543 286.939 241.494 286.71C241.446 286.481 241.484 286.243 241.602 286.04C241.72 285.838 241.908 285.687 242.131 285.615C242.355 285.544 242.596 285.558 242.81 285.654C246.286 287.642 250.409 288.172 254.276 287.129C257.14 286.18 259.701 284.488 261.695 282.226C263.69 279.964 265.048 277.212 265.629 274.254C266.348 270.869 265.515 266.2 262.034 264.006C260.751 263.309 259.333 262.898 257.876 262.8C256.42 262.702 254.959 262.92 253.595 263.439C250.037 264.611 245.421 267.031 243.68 271.815C243.638 271.931 243.573 272.038 243.489 272.129C243.405 272.22 243.303 272.293 243.19 272.344C243.077 272.396 242.955 272.424 242.832 272.427C242.708 272.43 242.584 272.408 242.469 272.363C242.233 272.278 242.041 272.102 241.935 271.875C241.828 271.648 241.816 271.389 241.901 271.153C243.907 265.67 249.054 262.948 253.008 261.7C254.634 261.086 256.376 260.837 258.109 260.971C259.842 261.105 261.524 261.618 263.036 262.475C264.912 263.84 266.337 265.733 267.129 267.913C267.921 270.092 268.045 272.458 267.483 274.707C266.822 278.011 265.289 281.077 263.043 283.59C260.798 286.103 257.921 287.971 254.711 289C253.284 289.373 251.815 289.557 250.34 289.549Z" fill="#231F20"/>
<path d="M213.992 254.591C213.992 254.591 201.315 268.657 203.416 271.606C205.516 274.556 212.706 273.875 212.706 273.875" fill="white"/>
<path d="M210.606 275.029C208.108 275.029 204.248 274.613 202.64 272.25C200.369 268.922 209.338 258.354 213.292 253.949C213.373 253.848 213.474 253.765 213.588 253.705C213.702 253.645 213.827 253.608 213.955 253.598C214.084 253.588 214.213 253.604 214.335 253.646C214.457 253.687 214.57 253.753 214.665 253.84C214.761 253.926 214.838 254.031 214.891 254.148C214.945 254.266 214.973 254.393 214.976 254.521C214.979 254.65 214.955 254.778 214.906 254.898C214.857 255.017 214.785 255.125 214.693 255.215C208.203 262.418 203.34 269.868 204.191 271.172C205.648 273.29 210.757 273.233 212.592 273.063C212.716 273.044 212.842 273.051 212.963 273.084C213.084 273.116 213.197 273.173 213.295 273.252C213.392 273.33 213.473 273.427 213.531 273.538C213.589 273.648 213.624 273.77 213.633 273.895C213.66 274.143 213.587 274.391 213.431 274.586C213.275 274.781 213.049 274.906 212.801 274.934C212.498 274.934 211.722 275.029 210.606 275.029Z" fill="#231F20"/>
<path d="M213.009 289.549C203.302 289.549 194.428 282.27 194.087 281.986C193.992 281.908 193.912 281.811 193.855 281.701C193.797 281.592 193.762 281.472 193.751 281.349C193.74 281.225 193.755 281.101 193.793 280.983C193.831 280.865 193.893 280.756 193.974 280.663C194.133 280.471 194.361 280.349 194.609 280.325C194.857 280.3 195.105 280.374 195.298 280.53C195.412 280.53 206.348 289.605 216.528 287.356C221.618 286.24 225.705 282.459 228.713 276.125C228.832 275.918 229.024 275.762 229.253 275.691C229.481 275.619 229.728 275.637 229.943 275.74C230.159 275.843 230.328 276.024 230.416 276.246C230.504 276.469 230.504 276.716 230.416 276.938C227.162 283.82 222.621 287.961 216.925 289.208C215.636 289.466 214.323 289.58 213.009 289.549Z" fill="#231F20"/>
<path d="M194.787 251.131C194.787 251.131 195.279 245.233 200.464 244.552C205.648 243.871 204.57 251.131 204.57 251.131" fill="white"/>
<path d="M204.551 252.077H204.4C204.155 252.039 203.934 251.907 203.786 251.709C203.637 251.511 203.572 251.263 203.605 251.018C203.937 249.305 203.613 247.531 202.697 246.046C202.412 245.793 202.072 245.612 201.703 245.516C201.335 245.421 200.949 245.414 200.577 245.497C196.226 246.064 195.753 251.018 195.734 251.169C195.724 251.293 195.69 251.415 195.633 251.526C195.577 251.637 195.499 251.736 195.404 251.816C195.309 251.897 195.199 251.958 195.08 251.997C194.961 252.035 194.836 252.049 194.712 252.039C194.463 252.015 194.232 251.895 194.07 251.704C193.908 251.514 193.826 251.268 193.842 251.018C194.031 248.711 195.734 244.193 200.332 243.569C201.004 243.425 201.701 243.45 202.362 243.641C203.022 243.833 203.625 244.185 204.116 244.665C206.159 246.745 205.629 250.772 205.554 251.226C205.53 251.47 205.412 251.695 205.225 251.854C205.037 252.013 204.796 252.093 204.551 252.077Z" fill="#231F20"/>
<path d="M219.631 252.625C219.631 252.625 220.123 246.726 225.307 246.046C230.492 245.365 229.394 252.625 229.394 252.625" fill="white"/>
<path d="M229.394 253.571H229.262C229.138 253.555 229.018 253.514 228.91 253.45C228.802 253.387 228.708 253.302 228.634 253.201C228.56 253.101 228.507 252.986 228.478 252.864C228.449 252.743 228.446 252.616 228.467 252.493C228.783 250.784 228.452 249.019 227.54 247.54C227.258 247.283 226.917 247.099 226.548 247.003C226.179 246.908 225.792 246.904 225.421 246.991C221.088 247.558 220.596 252.493 220.577 252.663C220.554 252.914 220.433 253.145 220.24 253.307C220.046 253.468 219.797 253.546 219.546 253.523C219.295 253.501 219.063 253.38 218.902 253.186C218.74 252.993 218.662 252.744 218.685 252.493C218.874 250.186 220.482 245.668 225.175 245.044C225.849 244.909 226.545 244.941 227.205 245.135C227.864 245.329 228.466 245.681 228.959 246.159C230.983 248.239 230.454 252.266 230.378 252.72C230.359 252.962 230.245 253.188 230.061 253.347C229.876 253.506 229.637 253.586 229.394 253.571Z" fill="#231F20"/>
<path d="M197.361 306.148C197.361 306.148 215.752 312.784 227.635 307.736C227.635 307.736 212.233 331.766 194.806 326.983L197.361 306.148Z" fill="#231F20"/>
<path d="M199.518 328.571C197.837 328.573 196.163 328.35 194.541 327.91C194.32 327.848 194.128 327.71 193.999 327.519C193.871 327.328 193.815 327.098 193.841 326.87L196.339 306.073C196.355 305.932 196.403 305.795 196.478 305.675C196.553 305.554 196.654 305.451 196.774 305.374C196.904 305.313 197.047 305.281 197.19 305.281C197.334 305.281 197.476 305.313 197.607 305.374C197.777 305.374 215.809 311.821 227.237 306.981C227.425 306.904 227.632 306.888 227.829 306.936C228.026 306.983 228.203 307.092 228.335 307.245C228.453 307.407 228.517 307.602 228.517 307.803C228.517 308.003 228.453 308.199 228.335 308.361C227.824 309.155 215.185 328.571 199.518 328.571ZM195.828 326.265C208.884 329.176 220.861 315.28 225.137 309.59C214.901 312.35 201.959 308.663 198.08 307.415L195.828 326.265Z" fill="#231F20"/>
<path d="M123.965 451.386C123.841 451.382 123.719 451.352 123.606 451.3C123.493 451.248 123.392 451.174 123.307 451.083C123.223 450.992 123.157 450.885 123.114 450.768C123.072 450.652 123.052 450.528 123.057 450.403C123.776 430.987 123.511 415.71 123.265 400.926C123.095 390.357 122.925 380.375 123.095 369.031C123.095 368.908 123.12 368.786 123.167 368.672C123.215 368.558 123.285 368.455 123.373 368.369C123.461 368.283 123.566 368.215 123.68 368.17C123.795 368.124 123.918 368.102 124.041 368.105C124.292 368.105 124.533 368.204 124.71 368.381C124.887 368.559 124.987 368.799 124.987 369.05C124.817 380.394 124.987 390.338 125.157 400.888C125.403 415.692 125.668 431.006 124.949 450.479C124.944 450.603 124.915 450.725 124.863 450.838C124.811 450.951 124.737 451.052 124.646 451.137C124.554 451.221 124.447 451.286 124.33 451.329C124.214 451.372 124.09 451.392 123.965 451.386Z" fill="#231F20"/>
<path d="M344.795 248.749C331.247 231.91 317.719 215.058 304.209 198.194C297.486 189.825 290.769 181.437 284.058 173.03C281.469 169.36 278.563 165.925 275.373 162.764C272.44 160.341 270.335 157.066 269.348 153.394C268.361 149.722 268.543 145.834 269.867 142.269C271.324 139.252 272.264 136.012 272.648 132.684C272.781 126.369 267.842 120.603 268.618 114.345C268.647 113.88 268.797 113.43 269.053 113.04C269.962 111.83 271.91 112.549 273.084 113.513C275.171 115.231 276.846 117.395 277.984 119.847C284.652 113.439 290.333 106.08 294.843 98.0099C295.732 96.4028 297.057 94.5122 298.873 94.7769C300.69 95.0416 301.484 97.5561 301.276 99.5034C300.765 104.135 297.908 108.106 295.373 112C293.329 115.139 292.875 137.599 294.692 139.547C299.725 145.011 377.945 209.878 398.058 235.004C424.416 268.015 412.344 295.882 398.058 299.456C383.773 303.029 344.795 248.749 344.795 248.749Z" fill="white"/>
<path d="M396.715 300.552C381.067 300.552 345.798 251.755 344.038 249.316C330.516 232.49 316.993 215.651 303.471 198.799C296.748 190.404 290.031 182.01 283.32 173.616C282.62 172.746 281.939 171.857 281.258 170.95C279.338 168.254 277.158 165.752 274.749 163.482C271.677 160.925 269.473 157.48 268.439 153.621C267.406 149.761 267.594 145.677 268.978 141.929L269.602 140.379C270.743 137.948 271.453 135.338 271.702 132.665C271.563 129.784 270.883 126.956 269.697 124.327C268.211 121.176 267.516 117.711 267.672 114.231C267.723 113.601 267.938 112.994 268.297 112.473C268.501 112.195 268.762 111.962 269.062 111.789C269.361 111.617 269.693 111.508 270.037 111.471C271.377 111.423 272.683 111.89 273.689 112.775C275.545 114.303 277.093 116.17 278.249 118.277C284.456 112.12 289.762 105.119 294.01 97.4803C294.635 96.346 296.319 93.3777 299.025 93.6991C301.73 94.0205 302.487 96.9321 302.222 99.371C301.73 103.814 299.252 107.576 296.849 111.225L296.149 112.303C294.256 115.309 294.105 136.881 295.392 138.772C296.678 140.662 303.604 146.164 313.121 154.407C339.611 177.416 384.151 215.928 398.796 234.267C418.474 258.845 415.087 277.903 412.703 284.917C409.998 292.914 404.605 298.643 398.285 300.212C397.779 300.395 397.251 300.509 396.715 300.552ZM270.416 113.38H270.264C270.175 113.384 270.087 113.408 270.009 113.451C269.93 113.493 269.862 113.553 269.81 113.626C269.662 113.886 269.578 114.178 269.564 114.477C269.439 117.654 270.089 120.814 271.456 123.684C272.73 126.536 273.455 129.602 273.594 132.722C273.356 135.626 272.593 138.464 271.343 141.097L270.756 142.628C269.509 146.012 269.343 149.698 270.281 153.18C271.22 156.661 273.218 159.765 275.997 162.064C278.501 164.417 280.764 167.014 282.752 169.816L284.796 172.462C291.494 180.857 298.211 189.245 304.947 197.627C318.457 214.491 331.985 231.336 345.533 248.163C355.883 262.588 384.473 298.643 396.62 298.643C397.042 298.651 397.462 298.6 397.869 298.491C403.546 297.092 408.484 291.704 410.944 284.425C413.233 277.695 416.45 259.488 397.358 235.571C382.827 217.365 336.697 177.416 311.91 155.957C301.995 147.355 295.448 141.683 294.029 140.152C291.948 137.902 292.402 114.836 294.616 111.452L295.316 110.393C297.587 106.915 299.933 103.341 300.368 99.3521C300.519 97.9908 300.122 95.8733 298.779 95.6843C297.814 95.5519 296.886 96.4027 295.713 98.4446C291.157 106.593 285.419 114.021 278.684 120.489C278.574 120.591 278.441 120.666 278.297 120.709C278.152 120.751 278 120.76 277.852 120.735C277.703 120.712 277.562 120.651 277.443 120.558C277.323 120.466 277.23 120.344 277.171 120.206C276.09 117.883 274.499 115.835 272.516 114.212C271.926 113.707 271.191 113.402 270.416 113.343V113.38Z" fill="#231F20"/>
<path d="M114.694 248.749C128.242 231.91 141.77 215.059 155.28 198.194C162.016 189.825 168.733 181.437 175.431 173.03C178.02 169.36 180.926 165.925 184.116 162.764C190.038 157.584 191.533 150.834 189.963 142.931C188.865 137.411 186.178 131.588 188.203 126.426C189.187 124.006 191.098 122.059 191.987 119.62C192.877 117.181 191.987 113.721 189.509 113.23C188.628 113.179 187.751 113.366 186.968 113.772C186.186 114.178 185.527 114.788 185.062 115.536C183.946 117.03 183.17 119.317 181.429 119.979C175.98 110.526 172.498 100.6 167.901 90.75C167.406 89.507 166.659 88.3803 165.706 87.4414C165.221 86.9553 164.605 86.6199 163.934 86.4756C163.262 86.3314 162.563 86.3845 161.921 86.6285C161.335 86.9459 160.847 87.4196 160.513 87.9969C160.179 88.5742 160.012 89.2327 160.029 89.8993C160.062 91.2324 160.325 92.5499 160.805 93.7939C162.916 101.21 164.633 108.733 165.952 116.33C166.973 121.095 170.039 127.352 165.952 131.72C160.9 137.184 79.5383 208.536 61.3172 235.005C38.6117 268.015 47.0316 295.883 61.3172 299.456C75.6027 303.029 114.694 248.749 114.694 248.749Z" fill="white"/>
<path d="M62.7738 300.552C62.2443 300.558 61.7163 300.494 61.2034 300.363C55.773 299.021 51.213 294.389 48.6775 287.677C43.2093 273.195 47.6747 253.305 60.6547 234.475C74.7888 213.942 126.765 166.507 151.742 143.725C158.988 137.108 164.248 132.381 165.365 131.095C168.241 127.976 167.049 123.722 165.876 119.6C165.592 118.542 165.289 117.502 165.081 116.538C164.665 114.515 164.267 112.511 163.87 110.488C162.897 104.958 161.596 99.4902 159.972 94.1148C159.442 92.7641 159.153 91.3305 159.121 89.8798C159.122 89.0308 159.357 88.1985 159.801 87.4747C160.245 86.7508 160.881 86.1634 161.637 85.7772C162.43 85.4758 163.293 85.4065 164.124 85.5773C164.955 85.748 165.72 86.1518 166.33 86.7414C167.378 87.7727 168.202 89.0083 168.752 90.3714C170.341 93.7745 171.817 97.2532 173.255 100.619C175.757 106.78 178.593 112.801 181.751 118.655C182.368 118.022 182.891 117.302 183.302 116.519C183.624 115.989 183.964 115.441 184.305 114.987C184.868 114.064 185.684 113.32 186.656 112.844C187.628 112.369 188.717 112.181 189.792 112.303C190.383 112.424 190.939 112.673 191.423 113.032C191.907 113.391 192.306 113.852 192.592 114.382C193.039 115.232 193.303 116.165 193.368 117.122C193.433 118.079 193.298 119.039 192.971 119.941C192.441 121.277 191.755 122.546 190.927 123.722C190.247 124.696 189.664 125.735 189.187 126.823C187.73 130.415 188.789 134.385 189.925 138.488C190.303 139.887 190.7 141.343 190.984 142.779C192.725 151.571 190.719 158.358 184.835 163.576C182.431 165.851 180.251 168.352 178.326 171.044C177.645 171.952 176.964 172.935 176.263 173.71C169.565 182.104 162.848 190.499 156.112 198.893C142.603 215.745 129.08 232.584 115.545 249.411C113.691 251.755 78.4217 300.552 62.7738 300.552ZM163.056 87.3464C162.804 87.3409 162.553 87.3859 162.319 87.4787C161.895 87.7339 161.545 88.0946 161.303 88.5254C161.061 88.9562 160.935 89.4424 160.937 89.9365C160.976 91.1226 161.219 92.2931 161.656 93.3964C163.318 98.8833 164.651 104.464 165.649 110.109C166.046 112.114 166.443 114.118 166.86 116.122C167.068 117.067 167.333 118.012 167.635 119.071C168.808 123.249 170.265 128.524 166.67 132.305C165.497 133.591 160.502 138.147 152.934 145.048C128.014 167.736 76.1512 215.134 62.1116 235.496C49.4911 253.816 45.0825 273.062 50.3615 286.958C52.6699 293.065 56.7569 297.281 61.5629 298.472C72.7832 301.289 103.095 263.099 113.823 248.144C127.371 231.317 140.9 214.472 154.409 197.608C161.12 189.238 167.837 180.85 174.561 172.443L176.604 169.796C178.598 166.999 180.86 164.403 183.359 162.045C188.695 157.394 190.511 151.193 188.903 143.139C188.638 141.777 188.241 140.359 187.862 138.979C186.708 134.706 185.516 130.301 187.2 126.104C187.725 124.908 188.359 123.763 189.092 122.682C189.856 121.648 190.492 120.524 190.984 119.336C191.219 118.693 191.318 118.008 191.276 117.325C191.234 116.642 191.051 115.975 190.738 115.365C190.59 115.071 190.377 114.814 190.114 114.615C189.852 114.415 189.548 114.277 189.225 114.212C188.524 114.196 187.832 114.362 187.215 114.693C186.598 115.025 186.078 115.51 185.705 116.103C185.383 116.546 185.086 117.006 184.816 117.483C184.138 118.893 183.05 120.066 181.694 120.848C181.481 120.939 181.242 120.949 181.022 120.876C180.803 120.803 180.617 120.652 180.502 120.451C177.086 114.268 174.047 107.885 171.401 101.337C169.982 97.9906 168.506 94.5307 166.916 91.1465C166.501 90.0241 165.857 89.0004 165.024 88.1404C164.504 87.665 163.836 87.3844 163.132 87.3464H163.056Z" fill="#231F20"/>
<path d="M26.4072 179.061C26.2273 179.062 26.0511 179.01 25.8999 178.913C25.7487 178.816 25.6291 178.677 25.5557 178.512C25.5015 178.4 25.4702 178.277 25.4637 178.152C25.4572 178.027 25.4756 177.902 25.5178 177.784C25.5601 177.666 25.6253 177.558 25.7098 177.466C25.7942 177.373 25.8962 177.299 26.0098 177.246L123.568 132.06C123.794 131.956 124.052 131.946 124.285 132.031C124.519 132.116 124.71 132.289 124.817 132.514C124.87 132.625 124.901 132.746 124.908 132.87C124.914 132.993 124.895 133.117 124.853 133.233C124.811 133.35 124.746 133.456 124.661 133.547C124.577 133.638 124.475 133.711 124.362 133.761L26.8045 178.966C26.6798 179.024 26.5447 179.056 26.4072 179.061Z" fill="#D1D3D4"/>
<path d="M124.003 85.91H123.89L0.901392 72.203C0.653395 72.1745 0.426724 72.0492 0.270779 71.8544C0.114835 71.6596 0.0422668 71.4111 0.0688663 71.1631C0.0779076 71.0384 0.112637 70.9169 0.170884 70.8063C0.229131 70.6956 0.30963 70.5982 0.407342 70.5201C0.505053 70.4419 0.617867 70.3849 0.7387 70.3524C0.859534 70.3199 0.985781 70.3127 1.10953 70.3313L124.098 84.0194C124.222 84.0334 124.343 84.072 124.452 84.133C124.562 84.194 124.658 84.2762 124.736 84.3747C124.813 84.4732 124.87 84.5861 124.904 84.7069C124.937 84.8276 124.946 84.9538 124.93 85.0781C124.907 85.3071 124.799 85.5191 124.627 85.6729C124.456 85.8267 124.233 85.9112 124.003 85.91Z" fill="#D1D3D4"/>
<path d="M150.455 32.3105C150.317 32.3109 150.181 32.2785 150.058 32.216L88.8285 1.85254C88.7165 1.7981 88.6164 1.7221 88.5339 1.62891C88.4514 1.53572 88.3881 1.42716 88.3476 1.30948C88.3072 1.19179 88.2904 1.06729 88.2983 0.943106C88.3061 0.818926 88.3384 0.697515 88.3933 0.58583C88.5103 0.366696 88.7074 0.201133 88.9436 0.123647C89.1798 0.0461601 89.4367 0.0627251 89.661 0.169891L150.89 30.5144C151.113 30.6277 151.282 30.8246 151.36 31.0619C151.438 31.2993 151.419 31.5579 151.306 31.7811C151.227 31.9388 151.105 32.0716 150.955 32.165C150.805 32.2584 150.632 32.3087 150.455 32.3105Z" fill="#D1D3D4"/>
<path d="M425.078 179.061C424.947 179.087 424.812 179.087 424.681 179.061L327.085 133.856C326.972 133.805 326.87 133.732 326.786 133.641C326.702 133.551 326.636 133.444 326.594 133.328C326.552 133.211 326.533 133.088 326.54 132.964C326.546 132.841 326.577 132.719 326.631 132.608C326.737 132.384 326.928 132.21 327.162 132.125C327.396 132.04 327.653 132.051 327.879 132.154L425.475 177.34C425.589 177.393 425.691 177.468 425.775 177.56C425.86 177.653 425.925 177.761 425.967 177.879C426.01 177.996 426.028 178.122 426.021 178.247C426.015 178.372 425.984 178.494 425.929 178.607C425.843 178.753 425.718 178.873 425.567 178.953C425.417 179.033 425.248 179.07 425.078 179.061Z" fill="#D1D3D4"/>
<path d="M327.482 79.0665C327.249 79.0673 327.024 78.9801 326.852 78.8224C326.68 78.6647 326.574 78.4481 326.555 78.2157C326.528 77.9677 326.601 77.7192 326.757 77.5245C326.913 77.3297 327.139 77.2044 327.387 77.1759L450.376 63.4688C450.5 63.4558 450.626 63.4675 450.745 63.5033C450.865 63.5391 450.977 63.5982 451.073 63.6773C451.17 63.7565 451.25 63.854 451.309 63.9642C451.368 64.0744 451.404 64.1953 451.416 64.3196C451.443 64.5676 451.37 64.8161 451.214 65.0109C451.058 65.2057 450.832 65.331 450.584 65.3595L327.596 79.0476L327.482 79.0665Z" fill="#D1D3D4"/>
<path d="M315.77 38.3987C315.593 38.3949 315.421 38.3437 315.272 38.2506C315.122 38.1574 315 38.0258 314.918 37.8693C314.864 37.7577 314.831 37.6362 314.823 37.5121C314.816 37.3879 314.832 37.2634 314.873 37.1457C314.913 37.028 314.976 36.9195 315.059 36.8263C315.142 36.7331 315.242 36.6571 315.354 36.6026L376.564 6.35265C376.676 6.29803 376.797 6.26595 376.921 6.25825C377.046 6.25054 377.17 6.26735 377.288 6.30773C377.406 6.34811 377.514 6.41126 377.607 6.49358C377.701 6.5759 377.777 6.67577 377.832 6.78749C377.886 6.89922 377.918 7.02061 377.926 7.14473C377.934 7.26886 377.917 7.39329 377.876 7.51092C377.836 7.62854 377.773 7.73706 377.691 7.83028C377.608 7.9235 377.508 7.99959 377.396 8.05422L316.186 38.3042C316.057 38.3697 315.914 38.4022 315.77 38.3987Z" fill="#D1D3D4"/>
<path d="M62.4709 111.093L65.6686 117.578L72.8208 118.618L67.6364 123.666L68.8663 130.775L62.4709 127.428L56.0566 130.775L57.2865 123.666L52.1021 118.618L59.2732 117.578L62.4709 111.093Z" fill="#D1D3D4"/>
<path d="M398.702 196.341L399.837 200.652L404.056 202.165L400.291 204.585L400.178 209.046L396.696 206.229L392.42 207.496L394.028 203.318L391.493 199.631L395.958 199.877L398.702 196.341Z" fill="#D1D3D4"/>
<path d="M56.0569 26.0339L61.2414 36.5269L72.8212 38.2095L64.4391 46.377L66.4258 57.8909L56.0569 52.4459L45.6881 57.8909L47.6748 46.377L39.2927 38.2095L50.8725 36.5269L56.0569 26.0339Z" fill="#D1D3D4"/>
<path d="M376.28 32.1218L379.478 38.6066L386.649 39.6465L381.464 44.6944L382.675 51.8032L376.28 48.4568L369.884 51.8032L371.095 44.6944L365.93 39.6465L373.082 38.6066L376.28 32.1218Z" fill="#D1D3D4"/>
<path d="M17.5711 202.921L26.6911 212.846L40.0117 210.956L33.4082 222.678L39.3116 234.778L26.1235 232.112L16.4358 241.471L14.8843 228.085L3.00171 221.789L15.2438 216.193L17.5711 202.921Z" fill="#D1D3D4"/>
<path d="M391.909 326.019L393.725 334.129L401.445 337.249L394.293 341.484L393.725 349.784L387.481 344.282L379.402 346.305L382.694 338.667L378.286 331.634L386.573 332.409L391.909 326.019Z" fill="#D1D3D4"/>
<path d="M165.762 0L168.96 6.48484L176.112 7.52468L170.947 12.5726L172.158 19.7003L165.762 16.335L159.348 19.7003L160.578 12.5726L155.394 7.52468L162.565 6.48484L165.762 0Z" fill="#D1D3D4"/>
<path d="M405.343 93.0379L406.913 111.037L422.637 119.96L405.986 127.012L402.372 144.728L390.508 131.077L372.533 133.1L381.861 117.616L374.369 101.168L392.003 105.232L405.343 93.0379Z" fill="#D1D3D4"/>
<path d="M308.996 451.386H308.883C308.635 451.353 308.41 451.223 308.257 451.025C308.104 450.826 308.037 450.575 308.069 450.327L321.674 346.853C321.687 346.73 321.726 346.61 321.787 346.501C321.849 346.393 321.931 346.298 322.03 346.222C322.129 346.146 322.242 346.091 322.363 346.06C322.484 346.028 322.61 346.022 322.733 346.04C322.981 346.073 323.206 346.203 323.359 346.402C323.511 346.6 323.579 346.851 323.547 347.099L309.942 450.554C309.914 450.785 309.803 450.997 309.628 451.15C309.454 451.304 309.229 451.388 308.996 451.386Z" fill="#231F20"/>
</svg>
