<svg  viewBox="0 0 475 314" fill="none" xmlns="http://www.w3.org/2000/svg">
<path d="M473.465 18.3762V295.005C473.465 299.453 471.76 303.718 468.726 306.863C465.692 310.008 461.577 311.774 457.287 311.774H17.713C13.4223 311.774 9.30727 310.008 6.27327 306.863C3.23928 303.718 1.5348 299.453 1.5348 295.005V18.3762C1.53278 16.1727 1.94975 13.9904 2.76188 11.954C3.57401 9.91765 4.76536 8.06714 6.26785 6.50829C7.77033 4.94943 9.55448 3.71279 11.5183 2.86907C13.4821 2.02534 15.5871 1.59106 17.713 1.59106H457.287C459.413 1.59106 461.518 2.02534 463.481 2.86907C465.445 3.71279 467.229 4.94943 468.732 6.50829C470.234 8.06714 471.426 9.91765 472.238 11.954C473.05 13.9904 473.467 16.1727 473.465 18.3762Z" fill="white"/>
<path d="M457.287 1.59101C459.413 1.59101 461.518 2.02528 463.482 2.86901C465.445 3.71274 467.23 4.94938 468.732 6.50823C470.234 8.06708 471.426 9.91759 472.238 11.954C473.05 13.9903 473.467 16.1727 473.465 18.3762V295.005C473.465 299.452 471.761 303.718 468.727 306.863C465.693 310.007 461.578 311.774 457.287 311.774H17.7131C13.4224 311.774 9.30741 310.007 6.27341 306.863C3.23941 303.718 1.53493 299.452 1.53493 295.005V18.3762C1.53291 16.1727 1.94989 13.9903 2.76202 11.954C3.57414 9.91759 4.7655 8.06708 6.26798 6.50823C7.77046 4.94938 9.55461 3.71274 11.5184 2.86901C13.4823 2.02528 15.5873 1.59101 17.7131 1.59101H457.287ZM457.287 0H17.7131C13.0151 0.00842313 8.51214 1.94769 5.1916 5.39252C1.87107 8.83735 0.00405697 13.5065 0 18.3762V295.005C0.00811638 299.872 1.87692 304.537 5.19701 307.978C8.51711 311.42 13.0178 313.357 17.7131 313.365H457.287C461.982 313.357 466.483 311.42 469.803 307.978C473.123 304.537 474.992 299.872 475 295.005V18.3762C474.996 13.5065 473.129 8.83735 469.808 5.39252C466.488 1.94769 461.985 0.00842313 457.287 0Z" fill="#231F20"/>
<path d="M473.465 18.3762V45.5507H1.5348V18.3762C1.53278 16.1727 1.94975 13.9904 2.76188 11.954C3.57401 9.91765 4.76536 8.06714 6.26785 6.50829C7.77033 4.94943 9.55448 3.71279 11.5183 2.86907C13.4821 2.02534 15.5871 1.59106 17.713 1.59106H457.287C459.413 1.59106 461.518 2.02534 463.481 2.86907C465.445 3.71279 467.229 4.94943 468.732 6.50829C470.234 8.06714 471.426 9.91765 472.238 11.954C473.05 13.9904 473.467 16.1727 473.465 18.3762Z" fill="#231F20"/>
<path d="M473.465 45.5505H1.53479V159.196H473.465V45.5505Z" fill="#FF5C64"/>
<path d="M473.465 45.5505V159.196H1.53493V45.5505H473.465ZM473.465 43.9595H1.53493C1.12784 43.9595 0.737425 44.1271 0.44957 44.4255C0.161714 44.7238 0 45.1285 0 45.5505V159.196C0 159.618 0.161714 160.023 0.44957 160.321C0.737425 160.62 1.12784 160.787 1.53493 160.787H473.465C473.872 160.787 474.263 160.62 474.55 160.321C474.838 160.023 475 159.618 475 159.196V45.5505C475 45.1285 474.838 44.7238 474.55 44.4255C474.263 44.1271 473.872 43.9595 473.465 43.9595Z" fill="#231F20"/>
<path d="M172.71 133.645C172.726 143.99 170.53 154.211 166.279 163.571C160.99 175.184 152.749 185.085 142.441 192.21H142.334C141.336 192.91 140.308 193.562 139.264 194.198L139.065 194.326C132.054 198.586 124.358 201.497 116.348 202.917C107.568 204.476 98.5792 204.243 89.8854 202.233C75.5777 198.847 62.7122 190.75 53.2133 179.154C43.7144 167.558 38.0927 153.086 37.189 137.903C36.2854 122.72 40.1484 107.641 48.2003 94.9231C56.2521 82.205 68.06 72.5306 81.8577 67.3472C92.1117 63.5416 103.098 62.3472 113.891 63.8647C124.683 65.3822 134.966 69.5671 143.871 76.0667C152.777 82.5663 160.044 91.1899 165.06 101.211C170.077 111.231 172.695 122.355 172.695 133.645H172.71Z" fill="white"/>
<path d="M104.79 63.2426C119.371 63.2356 133.568 68.0941 145.279 77.0992C156.99 86.1043 165.593 98.7776 169.816 113.244C174.039 127.711 173.657 143.202 168.727 157.426C163.797 171.651 154.581 183.852 142.441 192.226H142.334C141.336 192.926 140.308 193.578 139.264 194.214L139.065 194.342C132.054 198.602 124.358 201.513 116.348 202.933C107.568 204.492 98.5792 204.259 89.8854 202.249C75.5719 198.868 62.6998 190.772 53.1957 179.174C43.6917 167.577 38.0668 153.1 37.163 137.912C36.2592 122.724 40.1251 107.641 48.182 94.9208C56.2389 82.2004 68.0536 72.5266 81.8577 67.3474C89.2112 64.6202 96.9642 63.2315 104.774 63.2426H104.79ZM104.774 61.6515C96.8237 61.6389 88.9308 63.0491 81.4433 65.82H81.3205C69.2316 70.3127 58.5811 78.1916 50.5525 88.5812C42.5238 98.9709 37.4314 111.464 35.8411 124.674C34.2507 137.883 36.2247 151.29 41.5436 163.406C46.8626 175.523 55.3183 185.873 65.9712 193.308C73.1182 198.322 81.1106 201.9 89.5323 203.856C98.4239 205.903 107.614 206.14 116.593 204.556C124.77 203.105 132.627 200.135 139.786 195.79L140.078 195.599C141.29 194.867 142.257 194.23 143.148 193.626L143.362 193.467C153.87 186.183 162.269 176.075 167.66 164.224C172.644 153.247 174.87 141.143 174.131 129.035C173.391 116.928 169.711 105.211 163.432 94.9729C157.152 84.7351 148.478 76.309 138.214 70.4778C127.951 64.6465 116.432 61.5994 104.728 61.6197L104.774 61.6515Z" fill="#231F20"/>
<path d="M440.111 243.918H31.4352C31.2329 243.914 31.0399 243.829 30.8969 243.68C30.7538 243.532 30.6717 243.332 30.6677 243.122C30.6677 242.911 30.7486 242.709 30.8925 242.56C31.0364 242.411 31.2316 242.327 31.4352 242.327H440.111C440.314 242.327 440.51 242.411 440.653 242.56C440.797 242.709 440.878 242.911 440.878 243.122C440.874 243.332 440.792 243.532 440.649 243.68C440.506 243.829 440.313 243.914 440.111 243.918Z" fill="#D1D3D4"/>
<path d="M368.767 263.439H31.4352C31.2316 263.439 31.0364 263.355 30.8925 263.206C30.7486 263.057 30.6677 262.855 30.6677 262.644C30.6717 262.434 30.7538 262.234 30.8969 262.086C31.0399 261.937 31.2329 261.852 31.4352 261.848H368.767C368.971 261.848 369.166 261.932 369.31 262.081C369.454 262.23 369.535 262.433 369.535 262.644C369.535 262.855 369.454 263.057 369.31 263.206C369.166 263.355 368.971 263.439 368.767 263.439Z" fill="#D1D3D4"/>
<path d="M377.348 169.793H314.4C313.697 169.793 313.126 170.384 313.126 171.114V189.967C313.126 190.696 313.697 191.287 314.4 191.287H377.348C378.051 191.287 378.622 190.696 378.622 189.967V171.114C378.622 170.384 378.051 169.793 377.348 169.793Z" fill="#FF5C64"/>
<path d="M444.04 169.793H394.094C393.305 169.793 392.666 170.455 392.666 171.273V189.808C392.666 190.625 393.305 191.287 394.094 191.287H444.04C444.829 191.287 445.468 190.625 445.468 189.808V171.273C445.468 170.455 444.829 169.793 444.04 169.793Z" fill="#D1D3D4"/>
<path d="M251.407 12.6646H84.1606V34.4773H251.407V12.6646Z" fill="white"/>
<path d="M251.422 35.2729H84.1141C83.9106 35.2729 83.7154 35.1891 83.5715 35.0399C83.4275 34.8907 83.3467 34.6884 83.3467 34.4774V12.6646C83.3467 12.4537 83.4275 12.2513 83.5715 12.1021C83.7154 11.953 83.9106 11.8691 84.1141 11.8691H251.422C251.625 11.8691 251.82 11.953 251.964 12.1021C252.108 12.2513 252.189 12.4537 252.189 12.6646V34.4774C252.189 34.6884 252.108 34.8907 251.964 35.0399C251.82 35.1891 251.625 35.2729 251.422 35.2729ZM84.9277 33.6819H250.7V13.492H84.9277V33.6819Z" fill="#231F20"/>
<path d="M368.261 34.4778C374.076 34.4778 378.791 29.5913 378.791 23.5635C378.791 17.5357 374.076 12.6492 368.261 12.6492C362.446 12.6492 357.731 17.5357 357.731 23.5635C357.731 29.5913 362.446 34.4778 368.261 34.4778Z" fill="white"/>
<path d="M368.261 35.2732C366.026 35.2763 363.84 34.5922 361.98 33.3075C360.121 32.0227 358.67 30.195 357.813 28.0555C356.955 25.9161 356.729 23.5612 357.164 21.2886C357.598 19.0161 358.672 16.9281 360.252 15.2889C361.831 13.6496 363.844 12.5328 366.036 12.0797C368.228 11.6266 370.5 11.8575 372.565 12.7434C374.63 13.6292 376.396 15.13 377.638 17.0561C378.88 18.9821 379.543 21.2467 379.543 23.5633C379.539 26.6649 378.349 29.6385 376.235 31.8332C374.12 34.0278 371.253 35.2648 368.261 35.2732ZM368.261 13.4604C366.329 13.4573 364.439 14.0485 362.831 15.1591C361.224 16.2698 359.97 17.85 359.229 19.6996C358.489 21.5492 358.294 23.5851 358.67 25.5494C359.046 27.5138 359.976 29.3182 361.343 30.7343C362.709 32.1504 364.45 33.1145 366.345 33.5044C368.24 33.8943 370.204 33.6926 371.988 32.9248C373.773 32.1569 375.297 30.8575 376.369 29.191C377.44 27.5246 378.011 25.566 378.008 23.5633C377.995 20.8907 376.964 18.3316 375.138 16.4447C373.311 14.5578 370.839 13.4964 368.261 13.4923V13.4604Z" fill="#231F20"/>
<path d="M404.193 34.4778C410.009 34.4778 414.723 29.5913 414.723 23.5635C414.723 17.5357 410.009 12.6492 404.193 12.6492C398.378 12.6492 393.664 17.5357 393.664 23.5635C393.664 29.5913 398.378 34.4778 404.193 34.4778Z" fill="white"/>
<path d="M404.194 35.273C401.962 35.2604 399.784 34.563 397.934 33.2687C396.084 31.9744 394.646 30.1412 393.8 28.0004C392.955 25.8596 392.74 23.5072 393.183 21.2399C393.625 18.9727 394.706 16.8921 396.288 15.2608C397.871 13.6296 399.884 12.5206 402.074 12.0739C404.263 11.6272 406.532 11.8628 408.592 12.7509C410.653 13.6391 412.414 15.1399 413.652 17.0642C414.891 18.9885 415.552 21.2499 415.552 23.5632C415.55 25.1057 415.254 26.6327 414.682 28.0566C414.11 29.4805 413.272 30.7734 412.217 31.8612C411.162 32.9489 409.91 33.8102 408.533 34.3957C407.156 34.9812 405.682 35.2793 404.194 35.273ZM404.194 13.4603C402.265 13.4728 400.383 14.0774 398.785 15.1976C397.188 16.3178 395.946 17.9034 395.217 19.7544C394.488 21.6053 394.304 23.6387 394.689 25.5978C395.074 27.5568 396.01 29.3538 397.379 30.762C398.748 32.1701 400.489 33.1263 402.382 33.5098C404.275 33.8933 406.236 33.687 408.015 32.9168C409.795 32.1467 411.315 30.8473 412.384 29.1826C413.452 27.5178 414.02 25.5625 414.017 23.5632C414.011 22.233 413.752 20.9171 413.255 19.6908C412.758 18.4645 412.032 17.3518 411.12 16.4164C410.207 15.481 409.126 14.7412 407.938 14.2395C406.749 13.7377 405.477 13.4837 404.194 13.4921V13.4603Z" fill="#231F20"/>
<path d="M440.126 34.4778C445.942 34.4778 450.656 29.5913 450.656 23.5635C450.656 17.5357 445.942 12.6492 440.126 12.6492C434.311 12.6492 429.597 17.5357 429.597 23.5635C429.597 29.5913 434.311 34.4778 440.126 34.4778Z" fill="white"/>
<path d="M440.111 35.2732C437.877 35.2732 435.693 34.5864 433.835 33.2997C431.977 32.013 430.529 30.1842 429.674 28.0445C428.819 25.9048 428.596 23.5504 429.031 21.2789C429.467 19.0074 430.543 16.9209 432.123 15.2833C433.703 13.6456 435.716 12.5303 437.907 12.0785C440.099 11.6267 442.37 11.8586 444.435 12.7449C446.499 13.6312 448.263 15.1321 449.505 17.0577C450.746 18.9834 451.408 21.2474 451.408 23.5634C451.404 26.6677 450.213 29.6437 448.095 31.8388C445.977 34.0339 443.106 35.269 440.111 35.2732ZM440.111 13.4923C438.18 13.4923 436.292 14.0861 434.686 15.1987C433.081 16.3113 431.829 17.8926 431.091 19.7425C430.352 21.5924 430.16 23.6277 430.538 25.591C430.916 27.5543 431.847 29.3573 433.214 30.7718C434.581 32.1863 436.322 33.1488 438.216 33.5374C440.111 33.9261 442.074 33.7234 443.858 32.9551C445.641 32.1868 447.165 30.8873 448.236 29.2212C449.307 27.5551 449.877 25.5972 449.874 23.5952C449.869 20.9142 448.839 18.3446 447.009 16.4504C445.179 14.5562 442.698 13.4923 440.111 13.4923Z" fill="#231F20"/>
<path d="M60.0003 11.9167H37.5135V35.225H60.0003V11.9167Z" fill="white"/>
<path d="M59.8316 37.0703H38.3426H38.1277C37.6388 37.0123 37.1804 36.7944 36.8189 36.4483C36.4574 36.1022 36.2115 35.6458 36.1169 35.1452C36.1169 35.0179 36.1169 34.8906 36.1169 34.7634V12.4892C36.1169 12.4892 36.1169 12.3619 36.1169 12.2983C36.1489 11.9106 36.2756 11.5377 36.485 11.2148C36.6945 10.8919 36.9798 10.6297 37.3142 10.4527C37.717 10.2212 38.1742 10.111 38.6342 10.1345H59.5247C60.1053 10.1029 60.679 10.2768 61.1517 10.6277C61.4685 10.8843 61.7205 11.2166 61.8863 11.5962C62.052 11.9758 62.1265 12.3914 62.1033 12.8074V33.8724C62.1033 34.2065 62.1033 34.5247 62.1033 34.8588C62.0575 35.3719 61.8537 35.8562 61.5221 36.2401C61.1904 36.624 60.7484 36.8872 60.2614 36.9908L59.8316 37.0703ZM50.3764 21.4466V20.6352C50.3864 20.533 50.374 20.4299 50.3403 20.3334C50.3066 20.2369 50.2523 20.1495 50.1815 20.0777C50.1108 20.0059 50.0253 19.9515 49.9315 19.9185C49.8377 19.8856 49.738 19.8749 49.6397 19.8874H46.8154C46.707 19.8715 46.5965 19.8819 46.4927 19.9178C46.3888 19.9538 46.2945 20.0143 46.2171 20.0945C46.1397 20.1748 46.0813 20.2726 46.0466 20.3802C46.0119 20.4879 46.0019 20.6024 46.0172 20.7147V33.2201C46.002 33.3345 46.0125 33.4511 46.048 33.5606C46.0834 33.6701 46.1429 33.7696 46.2217 33.8513C46.3006 33.933 46.3966 33.9947 46.5022 34.0315C46.6079 34.0683 46.7203 34.0791 46.8308 34.0633H49.5783C49.6882 34.0798 49.8003 34.0693 49.9055 34.0325C50.0107 33.9957 50.106 33.9337 50.1838 33.8516C50.2615 33.7694 50.3195 33.6694 50.353 33.5597C50.3865 33.45 50.3945 33.3336 50.3764 33.2201V26.856C50.3761 26.1564 50.5283 25.4656 50.8216 24.8354C51.0063 24.418 51.3136 24.0717 51.6995 23.846C52.0854 23.6203 52.5302 23.5267 52.9705 23.5785C53.3982 23.5981 53.8073 23.7653 54.1327 24.0536C54.4581 24.3419 54.6812 24.7347 54.7664 25.1696C54.8875 25.7717 54.9543 26.3842 54.9659 26.9992C54.9659 29.0834 54.9659 31.1677 54.9659 33.2519C54.9659 33.8087 55.2268 34.0633 55.7641 34.0633H58.5883C58.7034 34.0824 58.8212 34.073 58.932 34.0358C59.0429 33.9986 59.1437 33.9347 59.2261 33.8493C59.3085 33.7639 59.3701 33.6594 59.406 33.5445C59.4419 33.4296 59.451 33.3075 59.4325 33.1882C59.4325 30.9927 59.4325 28.7812 59.4325 26.5697C59.4586 25.4718 59.3451 24.3752 59.0949 23.3081C58.9674 22.6277 58.6907 21.9869 58.2862 21.4352C57.8816 20.8834 57.36 20.4355 56.7618 20.1261C55.7926 19.7062 54.7338 19.558 53.6919 19.6965C52.9167 19.7284 52.1662 19.9877 51.5276 20.4443C51.0672 20.8261 50.7295 21.192 50.3764 21.4466ZM39.8008 27.0151V33.236C39.783 33.3558 39.7925 33.4783 39.8283 33.5937C39.8642 33.709 39.9256 33.8142 40.0076 33.9006C40.0895 33.9871 40.1898 34.0526 40.3005 34.0919C40.4111 34.1312 40.5291 34.1432 40.645 34.1269H43.2237C43.899 34.1269 44.16 33.8565 44.16 33.1564V20.842C44.1777 20.7222 44.1683 20.5997 44.1324 20.4843C44.0965 20.369 44.0351 20.2638 43.9532 20.1773C43.8712 20.0908 43.7709 20.0254 43.6603 19.9861C43.5496 19.9468 43.4317 19.9348 43.3158 19.951H40.6296C40.5166 19.9318 40.4008 19.9407 40.2917 19.9771C40.1827 20.0134 40.0835 20.0762 40.0025 20.1602C39.9215 20.2441 39.861 20.3469 39.8259 20.4599C39.7908 20.5729 39.7822 20.693 39.8008 20.8102V27.0151ZM44.774 15.8781C44.776 15.4957 44.7053 15.1167 44.566 14.7626C44.4267 14.4086 44.2215 14.0865 43.9621 13.8146C43.7027 13.5428 43.3942 13.3266 43.0542 13.1783C42.7141 13.0301 42.3493 12.9527 41.9804 12.9506C41.4205 12.9443 40.8715 13.1106 40.403 13.4284C39.9346 13.7462 39.5678 14.2012 39.3493 14.7356C39.1308 15.2699 39.0705 15.8595 39.176 16.4294C39.2815 16.9994 39.548 17.524 39.9417 17.9366C40.3355 18.3492 40.8386 18.6312 41.3873 18.7467C41.936 18.8623 42.5054 18.8062 43.0233 18.5856C43.5411 18.365 43.9841 17.9898 44.2958 17.5077C44.6075 17.0256 44.7739 16.4584 44.774 15.8781Z" fill="#FF5C64"/>
<path d="M94.4443 27.3971C93.6742 27.3983 92.9115 27.2415 92.2002 26.9357C91.4889 26.6298 90.8431 26.181 90.2999 25.6151C89.2105 24.4651 88.6036 22.9153 88.6115 21.3035C88.6122 20.102 88.9565 18.9276 89.6008 17.9288C90.2451 16.9301 91.1606 16.1516 92.2316 15.6919C93.3026 15.2322 94.481 15.1119 95.6179 15.3461C96.7548 15.5803 97.7993 16.1585 98.6193 17.0078C99.168 17.5686 99.6028 18.2376 99.8981 18.9754C100.193 19.7132 100.343 20.5048 100.338 21.3035C100.34 22.103 100.19 22.895 99.8965 23.6342C99.6027 24.3734 99.1712 25.0453 98.6265 25.6113C98.0818 26.1774 97.4347 26.6265 96.7224 26.9329C96.01 27.2393 95.2463 27.3971 94.475 27.3971H94.4443ZM94.4443 16.8169C93.8737 16.8156 93.3086 16.9316 92.7817 17.1583C92.2547 17.385 91.7764 17.7178 91.3744 18.1374C90.9679 18.5533 90.6451 19.0487 90.4247 19.595C90.2044 20.1412 90.091 20.7274 90.091 21.3194C90.091 21.9115 90.2044 22.4976 90.4247 23.0439C90.6451 23.5901 90.9679 24.0855 91.3744 24.5014C92.2021 25.3185 93.3013 25.7742 94.4443 25.7742C95.5873 25.7742 96.6865 25.3185 97.5141 24.5014C98.324 23.6551 98.7784 22.5114 98.7784 21.3194C98.7784 20.1274 98.324 18.9837 97.5141 18.1374C96.7002 17.2928 95.596 16.8178 94.4443 16.8169Z" fill="#D1D3D4"/>
<path d="M103.961 31.9157C103.754 31.9152 103.555 31.8293 103.408 31.6771L97.5604 25.6153C97.4885 25.5414 97.4314 25.4534 97.3924 25.3564C97.3534 25.2595 97.3334 25.1555 97.3334 25.0505C97.3334 24.9455 97.3534 24.8415 97.3924 24.7446C97.4314 24.6476 97.4885 24.5597 97.5604 24.4857C97.6293 24.4096 97.7125 24.3489 97.8049 24.3075C97.8973 24.266 97.9969 24.2446 98.0976 24.2446C98.1983 24.2446 98.2979 24.266 98.3903 24.3075C98.4827 24.3489 98.5659 24.4096 98.6348 24.4857L104.498 30.5474C104.64 30.6988 104.719 30.9014 104.719 31.1122C104.719 31.3231 104.64 31.5257 104.498 31.6771C104.357 31.8269 104.163 31.9127 103.961 31.9157Z" fill="#D1D3D4"/>
<path d="M234.768 207.468H31.4354V223.6H234.768V207.468Z" fill="#E6E7E8"/>
<path d="M445.453 285.475H31.4354V311.775H445.453V285.475Z" fill="white"/>
<path d="M445.468 285.554V311.854H31.4356V285.554H445.468ZM445.468 283.963H31.4356C31.0285 283.963 30.6381 284.131 30.3502 284.429C30.0623 284.728 29.9006 285.132 29.9006 285.554V311.854C29.9006 312.276 30.0623 312.68 30.3502 312.979C30.6381 313.277 31.0285 313.445 31.4356 313.445H445.468C445.875 313.445 446.266 313.277 446.553 312.979C446.841 312.68 447.003 312.276 447.003 311.854V285.554C447.003 285.132 446.841 284.728 446.553 284.429C446.266 284.131 445.875 283.963 445.468 283.963Z" fill="#231F20"/>
<path d="M150.439 134.87V134.997L147.446 151.353C147.354 151.862 147.246 152.403 147.154 152.944L141.736 182.632C141.736 182.632 141.168 185.225 140.447 188.725C140.094 190.428 139.694 192.337 139.295 194.294L139.096 194.421C132.085 198.682 124.389 201.593 116.379 203.013C107.599 204.571 98.6104 204.339 89.9166 202.329C80.3226 200.083 71.3122 195.709 63.5059 189.507C55.6995 183.305 49.2828 175.423 44.6975 166.404C46.2324 152.084 47.9976 140.311 48.6116 139.277C49.4098 137.94 65.4958 130.717 76.3325 125.992L85.9565 121.823L87.077 121.68H87.8905L90.2543 121.537H90.331L92.7255 121.394L98.8652 121.044C101.935 120.885 105.205 120.757 108.075 120.694C110.101 120.694 111.958 120.694 113.478 120.694H114.905C115.151 120.694 115.381 120.694 115.596 120.694C116.117 120.728 116.632 120.824 117.131 120.98L117.423 121.092L118.006 121.314C119.817 122.03 123.393 123.526 127.538 125.228L150.439 134.87Z" fill="#FF5C64"/>
<path d="M89.287 114.044L116.056 114.139L115.58 124.736H96.6854L87.5065 120.185L89.287 114.044Z" fill="#231F20"/>
<path d="M115.581 125.531H96.6855C96.5742 125.555 96.4592 125.555 96.3478 125.531L87.1383 120.981C86.9744 120.895 86.8446 120.753 86.7717 120.578C86.6988 120.404 86.6872 120.208 86.7392 120.026L88.5197 113.901C88.5662 113.735 88.6631 113.59 88.796 113.487C88.9288 113.384 89.0904 113.328 89.2565 113.328L116.026 113.423C116.13 113.423 116.233 113.445 116.328 113.489C116.424 113.533 116.509 113.597 116.578 113.678C116.653 113.751 116.711 113.84 116.748 113.939C116.785 114.038 116.801 114.145 116.793 114.251L116.317 124.847C116.292 125.033 116.204 125.203 116.069 125.328C115.935 125.453 115.761 125.525 115.581 125.531ZM96.8544 123.94H114.859L115.258 114.935L89.8551 114.839L88.4276 119.756L96.8544 123.94Z" fill="#231F20"/>
<path d="M123.025 87.1232C124.452 83.9412 124.851 79.4546 125.388 75.9862C125.803 73.3451 126.923 69.0971 125.741 66.5356C124.974 64.9446 122.395 63.1785 120.86 62.3353C120.093 55.7485 114.122 51.7074 108.12 51.3733C104.488 51.3288 100.878 51.9703 97.468 53.2666C94.0758 54.3962 90.4687 55.9076 88.7036 59.0897C88.376 59.8076 87.9801 60.4898 87.5217 61.1262C86.903 61.7506 86.2061 62.2857 85.4495 62.7172C80.7219 65.8992 81.2284 70.2904 81.8271 75.318C82.4717 80.6478 84.2369 85.93 84.7434 91.2281C90.699 91.6099 96.7005 92.1349 102.702 92.0395C107.476 91.8645 120.477 93.0418 123.025 87.1232Z" fill="white"/>
<path d="M107.583 92.7715H102.717C97.8209 92.7715 92.8784 92.5169 88.1048 92.1828L84.6972 91.9601C84.5143 91.9496 84.3411 91.8717 84.2088 91.7404C84.0765 91.6091 83.9939 91.4331 83.9758 91.2441C83.6294 88.4876 83.1168 85.7564 82.4409 83.0663C81.8398 80.5369 81.3634 77.9773 81.0134 75.3977C80.3994 70.3064 79.8161 65.5016 84.9735 62.0332L85.5261 61.6673C86.0301 61.3975 86.4909 61.0486 86.8922 60.6331C87.1866 60.247 87.434 59.8249 87.629 59.3762L87.9666 58.7239C89.8393 55.3669 93.4924 53.7759 97.1762 52.5508C100.668 51.188 104.374 50.5135 108.105 50.562C114.06 50.8961 120.492 54.8736 121.52 61.8105C122.917 62.6219 125.542 64.3083 126.386 66.1857C127.445 68.5404 126.846 71.9293 126.386 74.6658C126.294 75.1749 126.202 75.6522 126.14 76.0977C126.079 76.5432 125.941 77.4342 125.833 78.1183C125.532 81.3273 124.815 84.4794 123.7 87.4893C121.628 92.2624 113.646 92.7715 107.583 92.7715ZM103.27 91.1805H105.035C110.377 91.1805 120.384 91.3873 122.318 86.8211C123.367 83.9457 124.043 80.9391 124.329 77.8796C124.437 77.1796 124.529 76.4796 124.636 75.8272C124.744 75.1749 124.79 74.8726 124.882 74.3476C125.312 71.977 125.895 68.7313 125.035 66.838C123.848 65.1666 122.261 63.845 120.43 63.0037C120.324 62.9415 120.232 62.8545 120.163 62.7497C120.094 62.6448 120.049 62.5249 120.031 62.3991C119.31 56.0351 113.431 52.4394 108.013 52.1371C104.47 52.0991 100.951 52.7466 97.6367 54.0463C94.2599 55.1759 90.9137 56.6078 89.302 59.5035L88.995 60.0922C88.7461 60.6668 88.4206 61.2024 88.028 61.6832C87.5285 62.2197 86.9542 62.6755 86.3243 63.0355L85.8177 63.3696C81.4585 66.2971 81.9344 70.2269 82.533 75.2067C82.8733 77.7291 83.3447 80.2307 83.9451 82.7004C84.5507 85.2449 85.0272 87.8206 85.3726 90.4168L88.1355 90.6077C92.8938 90.9259 97.8055 91.26 102.625 91.1805H103.27Z" fill="#231F20"/>
<path d="M91.1445 88.0308C90.3309 81.269 79.6018 79.2166 79.878 87.1717C79.86 89.9283 80.7783 92.6036 82.4721 94.729C83.3413 95.761 84.4865 96.5024 85.7626 96.8592C87.0386 97.2161 88.3881 97.1724 89.6402 96.7336" fill="white"/>
<path d="M87.6139 97.9429C86.5413 97.9236 85.4838 97.6765 84.507 97.2167C83.5301 96.757 82.6546 96.0944 81.9347 95.27C80.1083 93.0086 79.1084 90.1528 79.1104 87.2036C79.0093 86.4952 79.0504 85.7729 79.2311 85.0818C79.4118 84.3906 79.7281 83.7456 80.1604 83.187C80.5926 82.6285 81.1314 82.1684 81.7431 81.8357C82.3548 81.5029 83.0262 81.3046 83.7152 81.2532C85.6296 81.113 87.5252 81.7213 89.0283 82.9583C90.5313 84.1952 91.5327 85.971 91.835 87.9354C91.8594 88.1464 91.802 88.3588 91.6753 88.5259C91.5487 88.693 91.3632 88.8011 91.1596 88.8264C90.9561 88.8517 90.7512 88.7922 90.59 88.6609C90.4288 88.5296 90.3245 88.3373 90.3001 88.1264C90.045 86.5729 89.243 85.1727 88.0492 84.1969C86.8555 83.2212 85.3549 82.7391 83.838 82.8442C81.6737 83.0192 80.4765 84.5943 80.5686 87.1399C80.5514 89.7092 81.4042 92.2034 82.9784 94.1881C83.7441 95.1008 84.7522 95.7596 85.8769 96.0822C87.0015 96.4047 88.1929 96.3768 89.3024 96.0019C89.4901 95.9269 89.6984 95.9297 89.8842 96.0097C90.0699 96.0896 90.2189 96.2407 90.3001 96.4314C90.3731 96.6282 90.3709 96.8465 90.2938 97.0417C90.2168 97.2369 90.0708 97.3942 89.8856 97.4815C89.1618 97.7775 88.392 97.9338 87.6139 97.9429Z" fill="#231F20"/>
<path d="M114.491 88.0308C115.319 81.269 126.033 79.2166 125.772 87.1717C125.782 89.9323 124.852 92.608 123.148 94.729C122.278 95.761 121.133 96.5024 119.857 96.8592C118.581 97.2161 117.232 97.1724 115.979 96.7336" fill="white"/>
<path d="M118.021 97.9423C117.222 97.9415 116.431 97.7849 115.688 97.4809C115.594 97.4422 115.509 97.3848 115.436 97.3119C115.364 97.239 115.306 97.1521 115.266 97.0561C115.226 96.96 115.205 96.8568 115.204 96.7523C115.202 96.6477 115.221 96.5439 115.258 96.4467C115.295 96.3496 115.351 96.261 115.421 96.186C115.491 96.1111 115.575 96.0512 115.668 96.0098C115.76 95.9684 115.86 95.9464 115.961 95.9449C116.062 95.9435 116.162 95.9626 116.256 96.0013C117.365 96.3762 118.557 96.4041 119.681 96.0816C120.806 95.759 121.814 95.1002 122.58 94.1875C124.148 92.1984 125.005 89.7083 125.005 87.1393C125.082 84.5937 123.9 83.0186 121.72 82.8436C120.203 82.7385 118.703 83.2205 117.509 84.1963C116.315 85.1721 115.513 86.5723 115.258 88.1258C115.234 88.3367 115.129 88.529 114.968 88.6603C114.807 88.7916 114.602 88.8511 114.398 88.8258C114.195 88.8005 114.009 88.6924 113.883 88.5253C113.756 88.3582 113.699 88.1458 113.723 87.9348C114.025 85.9733 115.024 84.1999 116.524 82.9633C118.024 81.7268 119.916 81.1165 121.827 81.2526C122.525 81.289 123.208 81.4765 123.832 81.803C124.455 82.1295 125.006 82.5878 125.449 83.1483C125.891 83.7089 126.216 84.3592 126.401 85.0576C126.586 85.7559 126.628 86.4867 126.524 87.203C126.512 90.1496 125.514 93.0005 123.7 95.2694C122.979 96.0923 122.103 96.7539 121.127 97.2136C120.15 97.6732 119.093 97.9212 118.021 97.9423Z" fill="#231F20"/>
<path d="M90.3154 121.68C94.568 123.581 99.1458 124.577 103.777 124.608C112.265 124.91 113.692 122.524 113.692 122.524L113.493 117.751L113.017 106.789L112.572 96.5424L93.2164 95.906L92.2955 104.243L92.0039 106.948L90.3154 121.68Z" fill="white"/>
<path d="M105.204 125.451H103.669C98.9162 125.42 94.2181 124.397 89.8546 122.444C89.7173 122.365 89.6051 122.246 89.5315 122.102C89.458 121.958 89.4263 121.795 89.4402 121.633L92.2798 95.8426C92.2993 95.6414 92.3935 95.456 92.5424 95.3253C92.6913 95.1947 92.8834 95.1292 93.078 95.1426L112.495 95.8426C112.688 95.8505 112.871 95.9335 113.007 96.075C113.144 96.2166 113.224 96.4063 113.232 96.6063L114.352 122.54C114.364 122.696 114.327 122.853 114.245 122.985C114.183 123.272 112.633 125.451 105.204 125.451ZM91.144 121.219C95.1811 122.865 99.4698 123.749 103.807 123.828C110.254 124.051 112.387 122.699 112.909 122.237L111.835 97.37L93.8301 96.7177L91.144 121.219Z" fill="#231F20"/>
<path d="M91.942 106.948C93.4732 109.451 95.5837 111.519 98.0817 112.962C102.18 115.523 108.35 118.435 113.431 117.735L112.955 106.773C109.226 107.125 105.47 107.018 101.766 106.455C98.4733 106.206 95.2376 105.433 92.1723 104.164L91.942 106.948Z" fill="#231F20"/>
<path d="M112.05 118.705C106.708 118.705 100.891 115.618 97.729 113.645C95.0924 112.127 92.8734 109.937 91.2823 107.281C91.1935 107.134 91.1556 106.96 91.1748 106.788L91.4665 104.083C91.4809 103.958 91.5231 103.839 91.5897 103.734C91.6563 103.629 91.7455 103.542 91.8502 103.479C91.9603 103.424 92.081 103.395 92.2032 103.395C92.3255 103.395 92.4461 103.424 92.5563 103.479C95.548 104.717 98.7062 105.468 101.919 105.706C105.568 106.267 109.267 106.373 112.94 106.024C113.045 106.014 113.15 106.025 113.251 106.058C113.351 106.091 113.444 106.144 113.523 106.215C113.603 106.286 113.668 106.374 113.713 106.473C113.757 106.571 113.782 106.679 113.784 106.788L114.26 117.75C114.269 117.951 114.205 118.148 114.079 118.301C113.954 118.455 113.777 118.553 113.585 118.577C113.076 118.651 112.564 118.694 112.05 118.705ZM92.7405 106.772C94.2133 109.068 96.1982 110.961 98.5271 112.293C101.06 113.884 107.338 117.4 112.695 117.066L112.295 107.695C108.766 107.952 105.22 107.813 101.72 107.281C98.7064 107.027 95.7359 106.38 92.8786 105.356L92.7405 106.772Z" fill="#231F20"/>
<path d="M119.817 69.7818L119.003 94.2038C118.944 96.2279 118.499 98.22 117.694 100.065C116.89 101.911 115.741 103.573 114.315 104.957C112.889 106.341 111.212 107.419 109.383 108.129C107.553 108.839 105.606 109.168 103.654 109.096H101.919C98.7033 108.98 95.6103 107.787 93.1033 105.696C90.5963 103.605 88.8103 100.728 88.0127 97.4972C87.6562 96.0749 87.5011 94.6064 87.5522 93.1378L88.3658 68.7158C88.3658 68.7158 92.0496 73.7275 102.595 73.632C108.538 73.6697 114.417 72.3554 119.817 69.7818Z" fill="white"/>
<path d="M104.114 109.906H103.577H101.843C99.7803 109.835 97.7519 109.341 95.8745 108.453C93.9971 107.565 92.3077 106.301 90.9038 104.733C89.4998 103.166 88.409 101.325 87.6942 99.3189C86.9794 97.3123 86.6548 95.179 86.739 93.0418L87.5525 68.6198C87.5621 68.4564 87.6183 68.2996 87.714 68.1694C87.8096 68.0391 87.9404 67.9411 88.0897 67.8879C88.2419 67.8414 88.404 67.8438 88.5548 67.895C88.7056 67.9461 88.8378 68.0435 88.9339 68.1743C88.9339 68.1743 92.5871 72.9473 102.533 72.7723C108.351 72.8073 114.109 71.5486 119.418 69.0812C119.533 69.0081 119.666 68.9694 119.801 68.9694C119.937 68.9694 120.07 69.0081 120.185 69.0812C120.3 69.1534 120.394 69.2568 120.456 69.3802C120.518 69.5036 120.546 69.6423 120.538 69.7812L119.725 94.2032C119.585 98.41 117.875 102.396 114.953 105.32C112.032 108.244 108.129 109.877 104.068 109.875L104.114 109.906ZM89.026 70.4495L88.2739 93.0418C88.2303 94.4347 88.375 95.8271 88.7037 97.1784C89.473 100.237 91.1722 102.958 93.5496 104.938C95.9271 106.918 98.8565 108.052 101.904 108.172H103.639C106.88 108.282 110.059 107.237 112.646 105.21C115.233 103.183 117.07 100.297 117.852 97.0352C118.079 96.0761 118.207 95.0948 118.236 94.1078L119.003 70.9745C113.777 73.1732 108.189 74.2972 102.549 74.2838C95.1658 74.4588 90.9447 72.0246 89.026 70.4495Z" fill="#231F20"/>
<path d="M119.187 88.8737C120.63 104.243 110.791 109.35 103.608 109.095H101.873C85.5109 107.839 87.5063 93.1853 87.6752 88.2373C88.3966 92.358 90.3152 98.9607 93.8149 99.7085C95.5647 100.106 97.2071 95.5241 98.8648 94.6013C100.523 93.6786 105.281 94.2513 107.844 94.4422C110.408 94.6332 111.467 99.088 112.787 99.6608C113.6 99.963 117.468 95.906 119.187 88.8737Z" fill="#D1D3D4"/>
<path d="M104.145 109.907H103.577H101.843C85.849 108.666 86.4936 95.1423 86.8467 89.3669C86.8467 88.9532 86.8467 88.5555 86.8467 88.2214C86.8536 88.0265 86.9294 87.8411 87.0595 87.7003C87.1897 87.5595 87.3652 87.4731 87.5527 87.4577C87.7415 87.4463 87.9278 87.506 88.0774 87.6259C88.2269 87.7458 88.3295 87.9178 88.3663 88.11C89.1798 92.7398 91.0984 98.3561 93.8306 98.9607C94.3525 99.0721 95.3656 97.5288 96.0102 96.606C96.6063 95.5468 97.4118 94.6305 98.374 93.9172C99.909 93.0899 102.979 93.2649 106.478 93.5512L107.752 93.6626C109.717 93.7899 110.822 95.7468 111.774 97.306C112.066 97.8772 112.422 98.4112 112.833 98.897C113.693 98.4834 116.87 95.015 118.374 88.7941C118.423 88.6165 118.528 88.4614 118.673 88.3544C118.819 88.2474 118.995 88.1948 119.172 88.2055C119.352 88.2126 119.523 88.2877 119.653 88.4167C119.784 88.5457 119.864 88.7196 119.878 88.9055C120.523 95.6514 119.05 101.204 115.627 104.975C114.129 106.552 112.341 107.802 110.369 108.649C108.397 109.496 106.28 109.924 104.145 109.907ZM88.2895 93.7103C88.4891 99.7244 90.5152 107.361 101.935 108.236H103.639C105.664 108.314 107.682 107.953 109.564 107.174C111.446 106.396 113.15 105.219 114.568 103.718C117.025 100.834 118.422 97.1435 118.512 93.2967C117.534 96.0138 115.831 98.3866 113.601 100.138C113.424 100.245 113.227 100.312 113.023 100.334C112.819 100.356 112.613 100.332 112.419 100.265C111.667 99.9471 111.145 99.0402 110.531 97.9902C109.748 96.6696 108.873 95.1741 107.722 95.1104L106.417 94.9991C104.161 94.8082 100.385 94.4899 99.1568 95.1741C98.4323 95.7995 97.8148 96.5472 97.3303 97.3856C96.2251 98.9766 95.0893 100.695 93.585 100.361C91.037 99.8676 89.3486 96.7333 88.2895 93.7103Z" fill="#231F20"/>
<path d="M103.424 83.4961C103.424 83.4961 108.305 94.6332 106.14 94.8718C104.311 94.8007 102.522 94.3002 100.906 93.4081" fill="white"/>
<path d="M105.772 95.6832C103.945 95.531 102.169 94.9894 100.553 94.0922C100.464 94.0452 100.384 93.9801 100.319 93.9006C100.254 93.8212 100.205 93.7291 100.175 93.6297C100.145 93.5304 100.134 93.4258 100.144 93.3221C100.154 93.2185 100.183 93.1179 100.231 93.0262C100.326 92.8417 100.487 92.7031 100.679 92.6406C100.871 92.5781 101.08 92.5966 101.259 92.6921C102.689 93.4682 104.255 93.9389 105.864 94.0763C106.11 93.0103 104.682 88.4441 102.656 83.7984C102.587 83.609 102.59 83.3994 102.665 83.2123C102.74 83.0253 102.881 82.8748 103.059 82.7917C103.237 82.7085 103.439 82.6988 103.624 82.7647C103.808 82.8305 103.962 82.9669 104.053 83.1461C105.342 86.0735 108.213 93.1058 107.123 94.9991C107.02 95.184 106.876 95.3402 106.702 95.4539C106.528 95.5676 106.33 95.6354 106.125 95.6514L105.772 95.6832Z" fill="#231F20"/>
<path d="M106.478 102.111C103.661 102.036 100.889 101.37 98.3275 100.154C98.2345 100.112 98.1505 100.052 98.08 99.9769C98.0096 99.9015 97.9543 99.8125 97.9172 99.7149C97.8801 99.6173 97.862 99.5131 97.8639 99.4082C97.8658 99.3033 97.8878 99.1999 97.9284 99.1038C98.0094 98.9132 98.1592 98.7631 98.3458 98.6858C98.5323 98.6085 98.7407 98.61 98.9261 98.6902C106.017 101.872 109.809 99.9311 109.855 99.9152C110.034 99.8197 110.243 99.8012 110.435 99.8637C110.628 99.9262 110.789 100.065 110.883 100.249C110.931 100.341 110.96 100.442 110.97 100.545C110.98 100.649 110.969 100.753 110.939 100.853C110.909 100.952 110.86 101.044 110.795 101.124C110.73 101.203 110.651 101.268 110.561 101.315C109.278 101.907 107.88 102.179 106.478 102.111Z" fill="#231F20"/>
<path d="M97.0847 84.1646C97.6526 84.1646 98.1131 83.0962 98.1131 81.7781C98.1131 80.4601 97.6526 79.3916 97.0847 79.3916C96.5167 79.3916 96.0563 80.4601 96.0563 81.7781C96.0563 83.0962 96.5167 84.1646 97.0847 84.1646Z" fill="#231F20"/>
<path d="M110.745 84.1646C111.313 84.1646 111.773 83.0962 111.773 81.7781C111.773 80.4601 111.313 79.3916 110.745 79.3916C110.177 79.3916 109.717 80.4601 109.717 81.7781C109.717 83.0962 110.177 84.1646 110.745 84.1646Z" fill="#231F20"/>
<path d="M86.5853 119.564L104.774 201.947L108.919 181.47L118.527 119.564L103.777 124.624L86.5853 119.564Z" fill="#231F20"/>
<path d="M104.774 202.822C104.602 202.822 104.434 202.76 104.3 202.647C104.165 202.534 104.073 202.377 104.038 202.201L85.8334 119.819C85.8072 119.683 85.813 119.543 85.8504 119.41C85.8878 119.277 85.9557 119.155 86.0483 119.055C86.1461 118.963 86.2653 118.898 86.3944 118.867C86.5235 118.837 86.6581 118.841 86.785 118.88L103.761 123.876L118.297 118.88C118.423 118.839 118.557 118.832 118.686 118.86C118.815 118.888 118.935 118.949 119.034 119.039C119.132 119.13 119.207 119.244 119.253 119.371C119.298 119.499 119.313 119.636 119.295 119.771L109.671 181.677L105.496 202.106C105.464 202.284 105.373 202.445 105.238 202.562C105.104 202.678 104.934 202.742 104.759 202.742L104.774 202.822ZM87.6139 120.774L104.744 198.303L108.167 181.391L117.576 120.805L103.961 125.387C103.811 125.435 103.65 125.435 103.5 125.387L87.6139 120.774Z" fill="#231F20"/>
<path d="M97.3915 127.201L100.431 133.613L97.1613 166.42L105.066 198.876L111.405 166.436L106.432 133.231L108.919 128.204L103.777 124.624L97.3915 127.201Z" fill="#D1D3D4"/>
<path d="M105.066 199.64C104.895 199.641 104.729 199.582 104.595 199.472C104.462 199.362 104.368 199.208 104.329 199.036L96.4245 166.579C96.4086 166.49 96.4086 166.398 96.4245 166.309L99.6479 133.725L96.7161 127.52C96.6743 127.416 96.6528 127.306 96.6528 127.194C96.6528 127.082 96.6743 126.971 96.7161 126.867C96.7564 126.765 96.8168 126.673 96.8935 126.596C96.9701 126.519 97.0613 126.46 97.1613 126.422L103.547 123.844C103.663 123.801 103.788 123.788 103.911 123.804C104.033 123.821 104.151 123.867 104.253 123.94L109.395 127.504C109.552 127.614 109.664 127.781 109.709 127.972C109.754 128.163 109.73 128.365 109.64 128.538L107.276 133.311L112.219 166.245C112.227 166.34 112.227 166.436 112.219 166.531L105.88 198.972C105.842 199.148 105.75 199.306 105.616 199.421C105.483 199.536 105.316 199.602 105.143 199.608L105.066 199.64ZM97.9441 166.324L104.989 195.249L110.623 166.388L105.68 133.327C105.628 133.167 105.628 132.994 105.68 132.834L107.844 128.442L103.608 125.483L98.3739 127.583L101.045 133.231C101.083 133.372 101.083 133.521 101.045 133.661L97.9441 166.324Z" fill="#231F20"/>
<path d="M116.056 114.139C115.688 114.139 103.654 124.624 103.654 124.624L111.099 133.613L118.528 119.565L116.056 114.139Z" fill="white"/>
<path d="M111.099 134.409C110.986 134.413 110.875 134.389 110.774 134.339C110.672 134.289 110.584 134.215 110.515 134.123L103.071 125.15C102.942 124.984 102.882 124.772 102.902 124.561C102.909 124.457 102.935 124.356 102.98 124.263C103.025 124.17 103.087 124.088 103.163 124.02C115.442 113.344 115.703 113.344 116.056 113.344C116.202 113.343 116.345 113.387 116.468 113.469C116.591 113.55 116.688 113.668 116.747 113.806L119.234 119.215C119.287 119.329 119.314 119.454 119.314 119.581C119.314 119.708 119.287 119.833 119.234 119.947L111.805 133.996C111.742 134.107 111.656 134.203 111.552 134.275C111.448 134.346 111.33 134.392 111.206 134.409H111.099ZM104.744 124.72L110.884 132.214L117.591 119.486L115.749 115.317C113.877 116.908 108.566 121.442 104.744 124.72Z" fill="#231F20"/>
<path d="M89.2868 114.044C89.6859 114.044 103.777 124.624 103.777 124.624L95.1809 133.613L86.5853 119.565L89.2868 114.044Z" fill="white"/>
<path d="M95.1813 134.409H95.0892C94.9764 134.395 94.8681 134.355 94.7724 134.292C94.6767 134.228 94.5961 134.143 94.5366 134.043L85.941 119.978C85.8734 119.86 85.8378 119.726 85.8378 119.589C85.8378 119.451 85.8734 119.317 85.941 119.199L88.6118 113.726C88.6764 113.593 88.7751 113.481 88.8969 113.403C89.0187 113.324 89.159 113.282 89.3025 113.28C89.6248 113.28 89.9471 113.28 104.237 124.02C104.328 124.085 104.403 124.171 104.459 124.269C104.514 124.368 104.549 124.478 104.56 124.592C104.57 124.707 104.555 124.823 104.515 124.931C104.475 125.038 104.411 125.135 104.329 125.213L95.7338 134.202C95.6609 134.275 95.574 134.331 95.4788 134.366C95.3836 134.402 95.2822 134.417 95.1813 134.409ZM87.5066 119.517L95.3501 132.341L102.641 124.72C98.1283 121.347 91.6816 116.558 89.6402 115.174L87.5066 119.517Z" fill="#231F20"/>
<path d="M86.5856 119.564C86.5856 119.564 102.273 192.448 105.143 199.799C105.143 199.799 72.1419 141.663 71.9577 140.534C71.7735 139.404 76.6853 134.631 76.6853 134.631L72.6791 132.817L76.3322 125.992L86.5856 119.564Z" fill="#FF5C64"/>
<path d="M105.143 200.595C105.011 200.594 104.881 200.559 104.765 200.492C104.65 200.425 104.553 200.329 104.483 200.213C94.5364 182.712 71.3896 141.823 71.1901 140.661C70.9906 139.5 72.4334 137.766 75.3344 134.87L72.372 133.486C72.2741 133.446 72.1861 133.384 72.1144 133.304C72.0427 133.224 71.9891 133.129 71.9576 133.024C71.9124 132.925 71.889 132.816 71.889 132.706C71.889 132.596 71.9124 132.488 71.9576 132.388L75.5647 125.61C75.6282 125.489 75.7242 125.39 75.8409 125.324L86.125 118.96C86.23 118.897 86.3491 118.864 86.4703 118.864C86.5916 118.864 86.7107 118.897 86.8157 118.96C86.9299 119.008 87.0314 119.083 87.1116 119.18C87.1917 119.277 87.2482 119.392 87.2762 119.517C87.4297 120.249 102.979 192.417 105.787 199.64C105.861 199.824 105.865 200.031 105.796 200.217C105.727 200.404 105.593 200.556 105.419 200.642C105.325 200.647 105.231 200.63 105.143 200.595ZM72.7404 140.423C73.9683 143.127 92.4029 175.759 102.595 193.753C97.99 175.807 87.7981 128.84 86.0636 120.805L76.854 126.565L73.7841 132.388L77.0382 133.979C77.1536 134.036 77.2543 134.12 77.3317 134.225C77.4092 134.33 77.4612 134.453 77.4833 134.584C77.502 134.712 77.4893 134.844 77.4464 134.966C77.4035 135.088 77.3318 135.198 77.2377 135.284C75.5358 136.794 74.0248 138.52 72.7404 140.423Z" fill="#231F20"/>
<path d="M118.528 119.564C118.528 119.564 108.013 192.448 105.143 199.799C105.143 199.799 132.971 141.663 133.155 140.534C133.34 139.404 128.428 134.631 128.428 134.631L132.434 132.77L128.812 125.992L118.528 119.564Z" fill="#FF5C64"/>
<path d="M105.143 200.594C105.036 200.617 104.927 200.617 104.82 200.594C104.64 200.51 104.498 200.358 104.424 200.168C104.35 199.979 104.349 199.766 104.421 199.576C107.23 192.385 117.668 120.232 117.775 119.501C117.796 119.372 117.845 119.25 117.92 119.145C117.995 119.04 118.092 118.955 118.205 118.896C118.316 118.833 118.44 118.801 118.566 118.801C118.692 118.801 118.816 118.833 118.926 118.896L129.21 125.26C129.327 125.326 129.423 125.425 129.487 125.546L133.109 132.324C133.151 132.425 133.173 132.533 133.173 132.642C133.173 132.752 133.151 132.86 133.109 132.961C133.078 133.065 133.024 133.16 132.952 133.24C132.881 133.32 132.793 133.382 132.695 133.422L129.732 134.806C132.633 137.702 134.03 139.659 133.877 140.597C133.723 141.536 112.388 186.434 105.787 200.101C105.733 200.236 105.644 200.353 105.53 200.44C105.417 200.527 105.283 200.58 105.143 200.594ZM119.126 120.853C117.929 129.047 111.313 174.359 107.599 192.862C116.317 174.645 131.421 142.92 132.388 140.359C131.113 138.424 129.607 136.666 127.906 135.124C127.811 135.039 127.739 134.93 127.699 134.807C127.659 134.684 127.65 134.552 127.675 134.424C127.691 134.294 127.738 134.169 127.814 134.063C127.889 133.958 127.989 133.874 128.105 133.82L131.359 132.229L128.289 126.406L119.126 120.853Z" fill="#231F20"/>
<path d="M166.279 163.572C160.99 175.184 152.749 185.085 142.442 192.21C141.72 191.001 141.03 189.807 140.416 188.71L140.247 188.407C139.376 187.023 138.699 185.518 138.236 183.936C138.067 181.566 149.687 137.702 150.408 134.981V134.854C150.408 134.854 151.682 133.724 153.324 136.445C153.984 137.384 160.001 149.093 166.279 163.572Z" fill="#FF5C64"/>
<path d="M116.348 203.013C107.568 204.571 98.5794 204.339 89.8856 202.328C89.6905 200.615 89.7631 198.879 90.1005 197.189C90.8219 194.867 96.6393 194.548 96.6393 194.548C96.6393 194.548 91.4359 193.482 90.9907 190.3C90.7298 188.455 95.4727 189.298 99.924 190.603C100.784 190.841 101.628 191.112 102.426 191.382L102.81 191.51L103.301 191.669C104.483 192.098 105.511 192.496 106.233 192.83L106.57 192.989C106.637 193.008 106.7 193.04 106.754 193.085C106.883 193.135 107.007 193.199 107.123 193.276C107.413 193.467 107.685 193.685 107.936 193.928C110.101 195.901 113.969 200.896 116.348 203.013Z" fill="white"/>
<path d="M104.79 204.827C99.7194 204.832 94.6643 204.256 89.7165 203.108C89.557 203.069 89.4133 202.979 89.3059 202.85C89.1985 202.722 89.1327 202.562 89.1179 202.392C88.9172 200.577 89.0001 198.739 89.3635 196.951C89.8393 195.44 91.6812 194.644 93.431 194.215C92.6424 193.895 91.9402 193.382 91.3843 192.72C90.8283 192.057 90.4352 191.266 90.2384 190.412C90.1895 190.16 90.2064 189.898 90.2874 189.655C90.3683 189.412 90.5104 189.195 90.6989 189.028C91.1133 188.662 92.3259 187.564 100.077 189.823C100.952 190.062 101.812 190.332 102.625 190.603L103.04 190.746L103.316 190.842H103.469C104.851 191.335 105.833 191.733 106.539 192.035L106.877 192.194C106.965 192.223 107.047 192.266 107.123 192.321C107.273 192.379 107.417 192.454 107.552 192.544C107.869 192.76 108.167 193.005 108.443 193.276C109.502 194.246 110.914 195.869 112.418 197.572C113.801 199.25 115.278 200.843 116.839 202.345C116.944 202.446 117.021 202.575 117.061 202.718C117.102 202.86 117.105 203.012 117.069 203.156C117.034 203.304 116.956 203.438 116.847 203.54C116.737 203.642 116.601 203.708 116.455 203.729C112.604 204.436 108.701 204.804 104.79 204.827ZM90.6068 201.645C98.5183 203.402 106.67 203.677 114.675 202.456C113.631 201.374 112.449 200.006 111.282 198.669C109.747 197.078 108.443 195.487 107.445 194.501C107.225 194.29 106.989 194.098 106.739 193.928L106.478 193.785C106.416 193.766 106.358 193.733 106.309 193.689L105.971 193.546C105.311 193.228 104.437 192.862 103.07 192.385L102.196 192.114C101.428 191.844 100.661 191.589 99.7857 191.351C93.9836 189.648 92.111 189.951 91.7887 190.205C92.1264 192.321 95.5646 193.483 96.8693 193.753C97.0534 193.791 97.2177 193.898 97.3308 194.054C97.444 194.209 97.4982 194.402 97.4833 194.596C97.4687 194.788 97.3876 194.968 97.255 195.103C97.1223 195.237 96.9471 195.317 96.7618 195.328C94.5669 195.456 91.2975 196.171 90.9138 197.412C90.5897 198.807 90.4861 200.247 90.6068 201.676V201.645Z" fill="#231F20"/>
<path d="M142.334 193.1C142.208 193.099 142.083 193.067 141.971 193.006C141.859 192.945 141.763 192.858 141.69 192.75L139.725 189.68C139.668 189.592 139.629 189.494 139.609 189.39C139.59 189.287 139.59 189.18 139.61 189.077C139.63 188.973 139.669 188.875 139.726 188.787C139.782 188.7 139.855 188.625 139.94 188.566C140.024 188.508 140.119 188.467 140.219 188.446C140.319 188.426 140.422 188.426 140.521 188.447C140.621 188.467 140.716 188.508 140.801 188.567C140.885 188.626 140.958 188.701 141.014 188.789L142.979 191.859C143.091 192.037 143.131 192.254 143.091 192.462C143.051 192.67 142.933 192.854 142.764 192.973C142.634 193.053 142.486 193.097 142.334 193.1Z" fill="#231F20"/>
<path d="M139.065 195.217H138.911C138.812 195.196 138.719 195.155 138.635 195.097C138.552 195.038 138.48 194.964 138.424 194.876C138.369 194.789 138.33 194.691 138.311 194.589C138.292 194.486 138.292 194.381 138.313 194.278C138.666 192.528 139.065 190.524 139.479 188.344C142.549 172.513 144.928 160.581 146.356 152.88L146.54 151.878L146.647 151.289C146.684 151.078 146.8 150.891 146.97 150.769C147.14 150.646 147.349 150.599 147.553 150.637C147.756 150.675 147.937 150.795 148.055 150.971C148.173 151.147 148.219 151.365 148.182 151.576L148.075 152.18L147.891 153.167C146.463 160.867 144.145 172.8 141.029 188.614C140.6 190.81 140.201 192.831 139.848 194.597C139.808 194.779 139.708 194.941 139.565 195.054C139.422 195.168 139.245 195.225 139.065 195.217Z" fill="#231F20"/>
<path d="M66.8464 192.814C66.6716 192.815 66.5018 192.754 66.365 192.641C66.2283 192.528 66.1327 192.37 66.0943 192.193C63.5924 180.34 53.0474 145.911 52.9399 145.561C52.9097 145.456 52.8996 145.347 52.9102 145.238C52.9209 145.13 52.952 145.025 53.0019 144.928C53.0518 144.832 53.1194 144.748 53.201 144.679C53.2825 144.61 53.3764 144.558 53.4772 144.527C53.5779 144.495 53.6837 144.485 53.7884 144.496C53.8931 144.507 53.9946 144.539 54.0873 144.591C54.1799 144.643 54.2618 144.713 54.3283 144.797C54.3948 144.882 54.4446 144.979 54.4749 145.084C54.5823 145.434 65.1273 179.927 67.6599 191.843C67.6826 191.946 67.6854 192.052 67.6683 192.155C67.6512 192.259 67.6144 192.358 67.5602 192.447C67.506 192.535 67.4353 192.612 67.3523 192.672C67.2693 192.733 67.1756 192.775 67.0766 192.798L66.8464 192.814Z" fill="#231F20"/>
</svg>
