<svg width="460" height="392" viewBox="0 0 460 392" fill="none" xmlns="http://www.w3.org/2000/svg">
<path d="M426.168 367.502H29.1194C28.8836 367.502 28.6575 367.409 28.4908 367.242C28.3241 367.075 28.2305 366.849 28.2305 366.613C28.2305 366.378 28.3241 366.151 28.4908 365.985C28.6575 365.818 28.8836 365.724 29.1194 365.724H426.168C426.404 365.724 426.63 365.818 426.796 365.985C426.963 366.151 427.057 366.378 427.057 366.613C427.057 366.849 426.963 367.075 426.796 367.242C426.63 367.409 426.404 367.502 426.168 367.502Z" fill="#D1D3D4"/>
<path d="M399.804 100.533H55.449C49.0965 100.533 43.9468 105.682 43.9468 112.035V324.266C43.9468 330.618 49.0965 335.768 55.449 335.768H399.804C406.157 335.768 411.306 330.618 411.306 324.266V112.035C411.306 105.682 406.157 100.533 399.804 100.533Z" fill="white"/>
<path d="M399.822 336.658H55.4488C52.1484 336.658 48.9831 335.347 46.6493 333.013C44.3155 330.679 43.0044 327.514 43.0044 324.213V112.018C43.0044 108.717 44.3155 105.552 46.6493 103.218C48.9831 100.885 52.1484 99.5735 55.4488 99.5735H399.822C403.122 99.5735 406.288 100.885 408.621 103.218C410.955 105.552 412.266 108.717 412.266 112.018V324.267C412.252 327.558 410.935 330.709 408.603 333.032C406.27 335.354 403.113 336.658 399.822 336.658ZM55.4488 101.422C52.6199 101.422 49.9068 102.546 47.9064 104.547C45.906 106.547 44.7822 109.26 44.7822 112.089V324.267C44.7822 327.096 45.906 329.809 47.9064 331.809C49.9068 333.809 52.6199 334.933 55.4488 334.933H399.822C402.651 334.933 405.364 333.809 407.364 331.809C409.365 329.809 410.488 327.096 410.488 324.267V112.018C410.488 109.189 409.365 106.476 407.364 104.475C405.364 102.475 402.651 101.351 399.822 101.351L55.4488 101.422Z" fill="#231F20"/>
<path d="M411.342 299.448H43.9465C43.7108 299.448 43.4847 299.355 43.318 299.188C43.1513 299.021 43.0576 298.795 43.0576 298.559C43.0576 298.324 43.1513 298.097 43.318 297.931C43.4847 297.764 43.7108 297.67 43.9465 297.67H411.342C411.577 297.67 411.804 297.764 411.97 297.931C412.137 298.097 412.231 298.324 412.231 298.559C412.231 298.795 412.137 299.021 411.97 299.188C411.804 299.355 411.577 299.448 411.342 299.448Z" fill="#231F20"/>
<path d="M274.578 381.226H180.676L197.991 335.769H257.262L274.578 381.226Z" fill="white"/>
<path d="M274.577 382.115H180.675C180.532 382.118 180.391 382.085 180.264 382.02C180.137 381.955 180.028 381.859 179.946 381.742C179.861 381.626 179.806 381.49 179.787 381.347C179.769 381.204 179.787 381.059 179.839 380.924L197.155 335.449C197.22 335.28 197.335 335.136 197.484 335.034C197.633 334.932 197.81 334.879 197.991 334.88H257.262C257.443 334.876 257.621 334.929 257.77 335.031C257.92 335.133 258.034 335.279 258.097 335.449L275.413 380.924C275.478 381.051 275.512 381.191 275.512 381.333C275.512 381.476 275.478 381.616 275.413 381.742C275.317 381.87 275.19 381.972 275.043 382.037C274.897 382.102 274.737 382.129 274.577 382.115ZM181.955 380.338H273.297L256.675 336.658H198.595L181.955 380.338Z" fill="#231F20"/>
<path d="M285.599 378.56H169.67C166.627 378.56 164.159 381.027 164.159 384.071V385.315C164.159 388.359 166.627 390.826 169.67 390.826H285.599C288.643 390.826 291.11 388.359 291.11 385.315V384.071C291.11 381.027 288.643 378.56 285.599 378.56Z" fill="white"/>
<path d="M285.599 391.734H169.652C167.958 391.729 166.335 391.053 165.138 389.853C163.942 388.653 163.27 387.028 163.27 385.334V384.071C163.27 382.377 163.942 380.752 165.138 379.552C166.335 378.352 167.958 377.676 169.652 377.671H285.599C287.295 377.676 288.92 378.352 290.119 379.551C291.318 380.75 291.994 382.375 291.999 384.071V385.334C291.994 387.03 291.318 388.655 290.119 389.854C288.92 391.053 287.295 391.729 285.599 391.734ZM169.652 379.449C168.429 379.454 167.258 379.943 166.395 380.809C165.532 381.676 165.048 382.849 165.048 384.071V385.334C165.048 386.556 165.532 387.729 166.395 388.596C167.258 389.462 168.429 389.951 169.652 389.956H285.599C286.823 389.951 287.996 389.463 288.862 388.597C289.728 387.731 290.216 386.558 290.221 385.334V384.071C290.216 382.847 289.728 381.674 288.862 380.808C287.996 379.942 286.823 379.454 285.599 379.449H169.652Z" fill="#231F20"/>
<path d="M398.203 111.608H57.0659V284.159H398.203V111.608Z" fill="#FF5C64"/>
<path d="M398.203 111.608H57.0659V284.159H398.203V111.608Z" fill="#231F20"/>
<path d="M189.422 356.533L259.342 342.951L256.604 335.769H197.333L189.422 356.533Z" fill="#231F20"/>
<path d="M189.423 357.422C189.293 357.422 189.166 357.394 189.049 357.338C188.932 357.283 188.829 357.202 188.747 357.102C188.645 356.981 188.577 356.835 188.549 356.679C188.52 356.523 188.534 356.362 188.587 356.213L196.498 335.449C196.561 335.279 196.675 335.133 196.825 335.031C196.975 334.929 197.153 334.876 197.334 334.88H256.676C256.856 334.879 257.033 334.932 257.182 335.034C257.332 335.136 257.446 335.28 257.511 335.449L260.249 342.56C260.302 342.677 260.33 342.805 260.33 342.933C260.33 343.062 260.302 343.189 260.249 343.307C260.182 343.42 260.092 343.518 259.985 343.595C259.878 343.671 259.756 343.725 259.627 343.751L189.707 357.333L189.423 357.422ZM198.009 336.658L190.898 355.36L258.205 342.276L256.071 336.658H198.009Z" fill="#231F20"/>
<path d="M157.262 127.698C156.623 117.067 154.17 106.623 150.009 96.8184C149.387 95.3429 147.964 93.6007 146.56 94.3651C147.378 98.8629 148.195 103.378 149.031 107.876C140.68 102.355 133.443 95.3106 127.698 87.1118C127.201 86.263 126.498 85.5536 125.653 85.0496C125.224 84.82 124.722 84.7639 124.253 84.8929C123.783 85.0219 123.381 85.3261 123.129 85.7429C123.03 86.1355 123.021 86.545 123.101 86.9418C123.181 87.3385 123.348 87.7124 123.591 88.0362C126.054 92.4417 128.923 96.6079 132.16 100.481C128 94.3651 119.395 84.0007 117.387 86.454C115.378 88.9073 120.498 98.3118 124.818 103.894L114.453 92.4273C113.493 91.3784 111.947 90.2407 110.898 91.1473C109.849 92.054 110.524 93.7251 111.307 94.8807L118.507 105.547C114.844 102.347 109.742 94.6318 107.093 96.4273C104.444 98.2229 112.782 108.232 118.133 112.09C123.484 115.947 129.475 119.023 133.849 123.947C136.478 127.164 138.722 130.679 140.533 134.418" fill="white"/>
<path d="M140.408 135.325C140.259 135.325 140.113 135.285 139.985 135.21C139.857 135.135 139.751 135.028 139.679 134.898C137.905 131.215 135.703 127.754 133.119 124.587C129.919 121.303 126.303 118.452 122.363 116.107C120.763 115.058 119.11 113.974 117.528 112.836C112.799 109.405 105.581 101.227 105.634 97.5827C105.615 97.2366 105.686 96.8915 105.838 96.5802C105.991 96.269 106.22 96.0021 106.505 95.805C108.177 94.6672 110.203 95.9649 112.372 98.0805L110.505 95.3072C109.137 93.2627 109.048 91.4494 110.274 90.4716C111.501 89.4938 113.332 89.9916 115.003 91.8583L118.719 96.0005C116.585 91.9116 115.163 87.7872 116.692 85.9739C116.88 85.7488 117.117 85.5705 117.386 85.4532C117.654 85.336 117.946 85.2829 118.239 85.2983C119.889 85.6886 121.382 86.5686 122.523 87.8227C122.326 87.4517 122.207 87.0441 122.173 86.6252C122.14 86.2063 122.192 85.785 122.328 85.3872C122.45 85.1079 122.629 84.8567 122.852 84.6488C123.075 84.4409 123.338 84.2808 123.625 84.1783C124.001 84.041 124.401 83.9797 124.801 83.998C125.2 84.0163 125.593 84.1139 125.954 84.285C126.921 84.8366 127.724 85.6339 128.283 86.5961C133.622 94.1965 140.238 100.813 147.839 106.152C147.128 102.276 146.417 98.4183 145.723 94.5427C145.695 94.3712 145.721 94.1951 145.797 94.0389C145.874 93.8828 145.997 93.7544 146.15 93.6716C146.434 93.5198 146.748 93.4302 147.07 93.4087C147.392 93.3872 147.714 93.4345 148.017 93.5472C149.273 94.1513 150.243 95.2234 150.719 96.5338C154.92 106.422 157.397 116.956 158.043 127.68C158.03 127.878 157.946 128.065 157.805 128.205C157.665 128.345 157.479 128.429 157.281 128.442C157.083 128.455 156.887 128.396 156.73 128.276C156.573 128.155 156.464 127.981 156.425 127.787C155.824 117.251 153.419 106.896 149.314 97.1738C148.991 96.2849 148.36 95.5408 147.537 95.0761C148.307 99.3072 149.083 103.538 149.865 107.769C149.892 107.925 149.872 108.086 149.809 108.231C149.746 108.376 149.642 108.5 149.51 108.587C149.378 108.675 149.224 108.722 149.065 108.722C148.907 108.722 148.753 108.675 148.621 108.587C140.136 103.001 132.769 95.8808 126.897 87.5916C126.461 86.8605 125.85 86.2495 125.119 85.8138C124.78 85.6902 124.409 85.6902 124.07 85.8138C123.9 85.8702 123.759 85.9916 123.679 86.1516C123.501 86.5427 123.803 87.165 124.105 87.7338C125.279 89.8316 126.541 91.8761 127.874 93.8672C129.901 96.3383 131.661 98.7561 132.621 100.178C132.685 100.262 132.732 100.358 132.759 100.46C132.787 100.563 132.793 100.669 132.779 100.774C132.765 100.879 132.731 100.98 132.678 101.071C132.625 101.163 132.554 101.243 132.47 101.307C132.386 101.371 132.29 101.418 132.188 101.446C132.086 101.473 131.979 101.479 131.874 101.465C131.769 101.451 131.668 101.417 131.577 101.364C131.485 101.311 131.405 101.24 131.341 101.156C129.635 99.1101 128.033 96.98 126.541 94.7738C122.985 90.5427 119.519 87.1116 118.025 87.0583C117.848 87.0583 117.848 87.0583 117.812 87.0583C116.443 88.7294 120.141 96.8716 125.261 103.485C125.376 103.652 125.424 103.856 125.397 104.057C125.37 104.258 125.269 104.442 125.114 104.573C124.959 104.704 124.76 104.772 124.558 104.765C124.355 104.758 124.162 104.675 124.017 104.534L113.652 92.9961C113.065 92.3383 111.874 91.2183 111.145 91.7872C110.417 92.3561 111.146 93.6894 111.714 94.4538L118.914 105.12C119.019 105.284 119.062 105.479 119.036 105.671C119.01 105.863 118.916 106.04 118.772 106.169C118.629 106.308 118.438 106.386 118.239 106.386C118.04 106.386 117.848 106.308 117.705 106.169C116.411 104.98 115.189 103.716 114.043 102.383C111.732 99.7872 108.532 96.2672 107.27 97.0494C107.27 97.0494 107.128 97.1383 107.128 97.4583C107.128 100.232 113.67 108 118.328 111.378C119.874 112.498 121.528 113.565 123.11 114.614C127.172 117.027 130.896 119.968 134.185 123.36C136.862 126.636 139.141 130.216 140.977 134.027C141.029 134.12 141.061 134.222 141.072 134.328C141.083 134.434 141.073 134.541 141.041 134.642C141.009 134.744 140.957 134.837 140.888 134.918C140.819 134.999 140.734 135.065 140.639 135.112C140.578 135.198 140.499 135.271 140.408 135.325Z" fill="#231F20"/>
<path d="M333.742 97.4045L327.964 74.2935C321.706 49.209 313.084 23.3246 285.653 15.6268C277.528 13.3157 269.262 14.2402 263.875 21.5824C258.328 16.9246 249.653 19.4313 243.911 23.8402C231.075 33.6891 225.244 49.1201 224.942 64.5512C224.586 82.0623 222.755 100.356 213.457 115.645C209.671 121.867 204.764 127.378 201.493 133.867C198.222 140.356 196.728 148.391 200.16 154.791C202.283 158.316 205.253 161.255 208.8 163.342C226.577 174.951 249.031 176.178 270.168 174.738C291.822 173.262 315.235 168.284 329.031 151.627C334.977 144.274 338.56 135.294 339.306 125.867C340.231 115.129 336.177 107.182 333.742 97.4045Z" fill="white"/>
<path d="M256.854 175.894C241.423 175.894 223.254 173.636 208.356 163.876C204.709 161.687 201.656 158.634 199.467 154.987C196.303 149.103 196.783 141.192 200.783 133.298C202.823 129.504 205.152 125.872 207.751 122.436C209.529 120.036 211.307 117.565 212.765 115.04C222.223 99.5027 223.823 80.6938 224.143 64.3383C224.48 47.2183 231.52 32.1428 243.431 23.005C249.156 18.5961 257.814 15.9828 263.751 20.2494C268.729 13.9917 276.551 12.0006 285.885 14.6495C313.778 22.5606 322.365 48.285 328.765 73.9738L334.542 97.0849C335.218 99.7516 336 102.294 336.765 104.747C338.845 111.467 340.8 117.796 340.142 125.583C339.368 135.172 335.719 144.305 329.671 151.787C318.098 165.832 299.218 173.298 270.24 175.272C266.151 175.68 261.636 175.894 256.854 175.894ZM256.569 19.7517C252.128 19.9607 247.867 21.5658 244.391 24.3383C232.889 33.2272 226.08 47.805 225.76 64.4272C225.44 81.0494 223.787 99.9827 214.151 115.983C212.569 118.578 210.791 121.067 209.049 123.485C206.504 126.864 204.216 130.429 202.205 134.152C200.427 137.707 196.765 146.596 200.889 154.329C202.932 157.741 205.807 160.579 209.245 162.578C228.356 175.023 253.138 175.023 270.116 173.832C298.56 171.894 317.138 164.605 328.391 150.934C334.222 143.683 337.729 134.841 338.454 125.565C339.076 118.098 337.156 111.912 335.129 105.352C334.365 102.88 333.582 100.303 332.907 97.6005L327.111 74.4894C320.836 49.2628 312.427 24.0006 285.369 16.3383C279.04 14.5606 270.276 14.0628 264.48 21.9917C264.416 22.0807 264.334 22.1552 264.239 22.2103C264.144 22.2655 264.038 22.3 263.929 22.3117C263.819 22.3281 263.706 22.3208 263.599 22.2901C263.492 22.2595 263.392 22.2062 263.307 22.1339C261.416 20.5634 259.027 19.7187 256.569 19.7517Z" fill="#231F20"/>
<path d="M225.084 126.738C217.973 133.333 202.222 158.204 187.839 184.267L158.062 121.813L133.866 128.924C133.866 128.924 155.751 244.48 177.351 249.209C198.951 253.938 228.391 202.453 228.391 202.453L261.404 111.787C261.404 111.787 235.662 116.836 225.084 126.738Z" fill="#FF5C64"/>
<path d="M310.239 283.644C307.022 251.928 300.302 176.889 306.488 157.226C314.382 132.071 314.15 125.066 306.488 122.577C298.826 120.089 278.044 106.826 263.822 122.577C263.822 122.577 231.128 140.942 224.799 172.622C220.159 195.822 225.564 254.151 228.799 283.644H310.239Z" fill="white"/>
<path d="M245.636 283.643C248.018 248.657 251.076 221.723 251.894 210.612C253.067 194.612 257.227 148.39 261.547 128.212C267.271 115.626 264.8 111.981 264.8 111.981C264.8 111.981 232.605 107.466 223.023 155.501C220.676 167.341 215.254 226.95 209.494 283.643H245.636Z" fill="#FF5C64"/>
<path d="M261.457 103.431L261.297 128.16C261.297 128.16 263.804 141.973 278.844 137.759C283.286 136.466 287.384 134.2 290.841 131.125C294.297 128.05 297.025 124.243 298.826 119.982L297.049 77.1729C295.076 69.6842 294.243 61.941 294.577 54.204C276.373 54.0263 262.009 40.2307 262.009 40.2307C262.009 40.2307 255.715 49.6707 252.995 52.6751C250.808 54.9131 248.909 57.4154 247.342 60.124C244.8 64.8885 244.906 70.7907 245.013 76.124C245.044 82.3693 245.639 88.5991 246.791 94.7373C249.28 106.346 261.457 103.431 261.457 103.431Z" fill="white"/>
<path d="M273.493 139.431C271.083 139.505 268.701 138.888 266.63 137.653C263.48 135.485 261.284 132.187 260.497 128.444L260.639 104.533C257.342 105.058 253.964 104.43 251.075 102.755C249.73 101.862 248.585 100.699 247.713 99.3406C246.841 97.9819 246.26 96.4569 246.008 94.8621C244.847 88.6712 244.252 82.3876 244.23 76.0888C244.106 71.0221 243.982 64.7288 246.63 59.7333C248.232 56.9611 250.173 54.3992 252.408 52.1066C255.057 49.2088 261.297 39.8755 261.297 39.7866C261.36 39.6857 261.446 39.6011 261.548 39.5393C261.65 39.4776 261.765 39.4405 261.884 39.4311C262 39.4166 262.117 39.4283 262.228 39.4652C262.339 39.5021 262.44 39.5633 262.524 39.6444C262.666 39.7866 276.906 53.2266 294.63 53.511C294.74 53.5101 294.849 53.5317 294.95 53.5746C295.051 53.6174 295.142 53.6805 295.217 53.7599C295.291 53.8338 295.349 53.9229 295.386 54.0211C295.423 54.1193 295.438 54.2242 295.43 54.3288C295.125 61.3349 295.844 68.348 297.564 75.1466C297.775 75.83 297.918 76.5327 297.99 77.2444C297.99 77.2444 297.99 78.0621 299.768 120.053C299.795 120.158 299.795 120.268 299.768 120.373C297.93 124.755 295.131 128.668 291.577 131.823C288.022 134.977 283.804 137.291 279.235 138.595C277.369 139.142 275.436 139.423 273.493 139.431ZM262.115 128.213C262.86 131.435 264.757 134.274 267.448 136.195C270.346 137.973 274.097 138.293 278.577 137.031C282.86 135.774 286.815 133.593 290.164 130.641C293.512 127.689 296.171 124.038 297.955 119.947C297.83 117.031 296.266 77.5999 296.177 77.2799C296.095 76.6792 295.97 76.0851 295.804 75.5021C294.117 68.825 293.404 61.9389 293.688 55.0577C277.688 54.4711 265.119 44.1599 262.008 41.4222C260.426 43.7688 255.75 50.6311 253.439 53.1555C251.297 55.3431 249.44 57.7921 247.91 60.4444C245.439 65.0666 245.582 70.8799 245.688 75.9999C245.708 82.1987 246.304 88.3822 247.466 94.471C247.673 95.8375 248.159 97.1469 248.893 98.3181C249.627 99.4893 250.593 100.497 251.733 101.28C254.588 102.814 257.893 103.293 261.066 102.631C261.186 102.602 261.311 102.602 261.431 102.63C261.552 102.657 261.664 102.713 261.759 102.791C261.854 102.868 261.931 102.966 261.983 103.077C262.036 103.187 262.062 103.308 262.062 103.431L261.919 128.16L262.115 128.213Z" fill="#231F20"/>
<path d="M261.599 115.627C261.599 115.627 271.626 116.053 278.079 109.369C284.533 102.684 283.573 95.9467 283.573 95.9467C283.573 95.9467 272.675 103.218 261.457 103.431L261.599 115.627Z" fill="#231F20"/>
<path d="M262.008 116.409H261.528C261.428 116.407 261.329 116.385 261.237 116.344C261.145 116.303 261.062 116.245 260.993 116.173C260.924 116.1 260.869 116.014 260.833 115.921C260.797 115.827 260.779 115.727 260.782 115.627L260.675 103.431C260.673 103.328 260.691 103.226 260.728 103.13C260.765 103.035 260.82 102.947 260.891 102.873C260.962 102.799 261.047 102.739 261.141 102.697C261.235 102.656 261.337 102.633 261.439 102.631C272.337 102.4 283.039 95.3067 283.146 95.2356C283.261 95.1749 283.389 95.1432 283.519 95.1432C283.65 95.1432 283.778 95.1749 283.893 95.2356C284.015 95.2887 284.121 95.3721 284.202 95.4779C284.283 95.5836 284.336 95.7083 284.355 95.8401C284.355 96.1245 285.279 102.951 278.648 109.92C272.764 116.018 264.177 116.409 262.008 116.409ZM262.204 104.231L262.328 114.898C264.711 114.898 272.337 114.205 277.475 108.889C280.606 105.841 282.505 101.746 282.808 97.3867C279.786 99.1823 271.288 103.787 262.239 104.231H262.204Z" fill="#231F20"/>
<path d="M270.205 67.8752C270.205 67.8752 262.258 79.7686 264.143 81.8308C266.027 83.893 271.254 82.5241 271.254 82.5241" fill="white"/>
<path d="M267.805 83.8747C267.041 83.9383 266.271 83.8484 265.541 83.6103C264.811 83.3722 264.137 82.9906 263.557 82.4881C261.477 80.2125 267.112 71.2881 269.548 67.5725C269.664 67.3965 269.845 67.2734 270.051 67.2302C270.258 67.1869 270.473 67.2269 270.65 67.3414C270.819 67.4632 270.936 67.6452 270.976 67.8501C271.015 68.0551 270.975 68.2674 270.863 68.4436C266.81 74.5059 263.948 80.5681 264.73 81.4214C266.01 82.8259 269.779 82.2214 271.13 81.8836C271.23 81.857 271.335 81.8506 271.438 81.8649C271.541 81.8792 271.64 81.9138 271.729 81.9668C271.819 82.0197 271.896 82.09 271.958 82.1734C272.02 82.2568 272.065 82.3516 272.09 82.4525C272.139 82.6551 272.107 82.8688 272 83.0481C271.894 83.2274 271.722 83.3581 271.521 83.4125C270.303 83.7031 269.057 83.8581 267.805 83.8747Z" fill="#231F20"/>
<path d="M255.695 65.7358C255.751 64.3219 255.184 63.1513 254.428 63.121C253.672 63.0908 253.013 64.2124 252.957 65.6263C252.9 67.0401 253.467 68.2108 254.223 68.241C254.979 68.2713 255.638 67.1496 255.695 65.7358Z" fill="#231F20"/>
<path d="M277.728 64.0098C277.784 62.597 277.216 61.4277 276.461 61.398C275.706 61.3683 275.048 62.4895 274.993 63.9023C274.937 65.3151 275.504 66.4844 276.26 66.5141C277.015 66.5438 277.673 65.4225 277.728 64.0098Z" fill="#231F20"/>
<path d="M264.8 88.8713L271.111 87.2535C271.111 87.2535 272.409 96.498 268.853 97.3157C265.298 98.1335 264.8 88.8713 264.8 88.8713Z" fill="white"/>
<path d="M268.406 98.0982C267.839 98.0893 267.29 97.8958 266.842 97.5471C264.424 95.7693 264.033 89.5649 263.998 88.8538C263.989 88.6707 264.044 88.4904 264.155 88.3442C264.265 88.198 264.423 88.0952 264.602 88.0538L270.913 86.436C271.021 86.4081 271.134 86.4032 271.244 86.4215C271.355 86.4399 271.46 86.4812 271.553 86.5427C271.644 86.6067 271.721 86.6887 271.779 86.7834C271.837 86.8782 271.875 86.9838 271.891 87.0938C272.033 88.1071 273.171 97.0849 269.011 98.0271C268.812 98.0693 268.61 98.0931 268.406 98.0982ZM265.562 89.476C265.775 91.8582 266.469 95.396 267.731 96.3382C267.851 96.4418 267.995 96.5139 268.151 96.548C268.306 96.5822 268.467 96.5773 268.62 96.5338C270.575 96.0893 270.664 91.2004 270.398 88.2315L265.562 89.476Z" fill="#231F20"/>
<path d="M288.855 64.5865C290.526 60.2487 295.966 58.6487 300.233 59.4842C301.614 59.7065 302.898 60.3311 303.926 61.2797C304.954 62.2283 305.679 63.4589 306.011 64.8176C306.34 66.5144 306.34 68.2586 306.011 69.9553C305.518 73.0766 304.477 76.086 302.935 78.8442C302.223 80.2681 301.166 81.4906 299.859 82.3998C299.016 82.9062 298.039 83.1435 297.057 83.08C296.076 83.0164 295.137 82.6551 294.366 82.0442" fill="white"/>
<path d="M297.563 84.0534C296.284 84.0258 295.044 83.6104 294.007 82.8623C293.831 82.7371 293.711 82.5471 293.674 82.3338C293.638 82.1206 293.687 81.9015 293.812 81.7245C293.872 81.6377 293.949 81.5638 294.038 81.5069C294.127 81.45 294.227 81.4114 294.331 81.3932C294.435 81.375 294.542 81.3776 294.645 81.4009C294.748 81.4242 294.846 81.4678 294.932 81.529C295.579 82.0359 296.363 82.3387 297.183 82.3988C298.003 82.459 298.822 82.2738 299.536 81.8668C300.698 80.994 301.631 79.8535 302.256 78.5423C303.768 75.8419 304.779 72.8909 305.243 69.8312C305.557 68.2406 305.557 66.604 305.243 65.0134C304.96 63.7973 304.319 62.6938 303.403 61.8447C302.488 60.9957 301.339 60.4399 300.105 60.249C296.141 59.449 291.216 60.9601 289.652 64.8534C289.572 65.0526 289.418 65.2126 289.222 65.2991C289.026 65.3855 288.803 65.3915 288.603 65.3157C288.503 65.2783 288.411 65.2213 288.333 65.148C288.256 65.0746 288.194 64.9865 288.15 64.8887C288.107 64.791 288.084 64.6856 288.083 64.5787C288.081 64.4719 288.101 64.3658 288.141 64.2668C289.918 59.5734 295.803 57.7246 300.425 58.649C301.964 58.8975 303.394 59.5982 304.534 60.6618C305.674 61.7255 306.471 63.1041 306.825 64.6223C307.186 66.4237 307.186 68.2788 306.825 70.0801C306.331 73.3284 305.253 76.4604 303.643 79.3245C302.879 80.8811 301.728 82.2155 300.301 83.2001C299.486 83.7351 298.537 84.0307 297.563 84.0534Z" fill="#231F20"/>
<path d="M341.581 283.644C341.457 282.595 341.35 281.564 341.261 280.587C338.648 251.289 341.261 151.591 335.021 131.733C332.017 122.258 300.141 115.307 300.141 115.307C300.141 115.307 280.426 220 272.675 283.644H341.581Z" fill="#FF5C64"/>
<path d="M293.778 234.258C286.294 232.978 279.431 229.494 272.445 226.542C269.636 225.351 266.756 224.285 263.84 223.378C260.409 222.311 257.138 220.285 253.458 220.178C251.2 220.178 251.787 223.325 252.623 224.516C253.504 225.569 254.563 226.46 255.751 227.147C257.903 228.622 262.418 231.307 263.183 233.885C260.427 234.685 257.405 234.258 254.56 234.578C251.716 234.898 248.409 235.378 245.369 235.965C242.329 236.551 239.414 237.262 236.48 238.098C233.846 238.563 231.259 239.259 228.747 240.178C228.16 240.462 227.52 240.925 227.485 241.582C227.343 243.894 232.551 243.627 233.867 243.485L257.885 241.067C249.477 241.869 241.152 243.373 232.996 245.565C232.201 245.686 231.479 246.098 230.969 246.72C228.978 249.778 237.511 249.938 238.471 249.956C242.916 250.062 247.348 249.956 251.769 249.636L240.978 251.414C238.56 251.822 236.125 252.214 233.76 252.818C232.433 253.069 231.202 253.684 230.205 254.596C230.07 254.713 229.986 254.879 229.974 255.058C229.974 255.307 230.24 255.467 230.454 255.574C232.49 256.397 234.676 256.784 236.871 256.711C241.369 256.798 245.865 256.5 250.311 255.822L236.978 257.245C235.788 257.233 234.633 257.649 233.725 258.418C233.601 258.804 233.613 259.221 233.758 259.599C233.904 259.977 234.174 260.294 234.525 260.498C235.223 260.908 236.009 261.146 236.818 261.191C241.726 261.502 246.648 261.502 251.556 261.191C256.906 261.217 262.252 260.878 267.556 260.178C278.064 258.866 288.278 255.808 297.778 251.129" fill="white"/>
<path d="M242.081 262.257C240.298 262.271 238.517 262.17 236.747 261.954C235.81 261.904 234.901 261.623 234.098 261.137C233.604 260.819 233.23 260.347 233.033 259.793C232.837 259.24 232.83 258.637 233.014 258.079C233.051 257.996 233.099 257.918 233.156 257.848C233.353 257.634 233.574 257.443 233.814 257.279C232.546 257.142 231.309 256.8 230.152 256.266C229.891 256.18 229.661 256.02 229.491 255.805C229.32 255.59 229.216 255.33 229.192 255.057C229.199 254.654 229.365 254.271 229.654 253.99C230.769 252.983 232.141 252.306 233.618 252.034C235.645 251.519 237.725 251.146 239.769 250.808H238.507C233.689 250.701 230.881 249.919 230.116 248.479C229.941 248.135 229.869 247.748 229.906 247.363C229.944 246.979 230.091 246.614 230.329 246.31C230.945 245.521 231.832 244.989 232.818 244.817L235.023 244.23L233.992 244.337C233.174 244.337 228.978 244.763 227.378 243.234C227.154 243.02 226.979 242.76 226.865 242.471C226.751 242.183 226.702 241.873 226.721 241.563C226.794 241.085 226.999 240.638 227.313 240.27C227.627 239.903 228.038 239.63 228.498 239.483C230.154 238.768 231.892 238.261 233.672 237.972C234.596 237.777 235.449 237.581 236.356 237.35C239.289 236.514 242.294 235.803 245.245 235.217C248.196 234.63 251.432 234.132 254.507 233.794C255.609 233.688 256.729 233.67 257.814 233.652C259.236 233.68 260.658 233.579 262.063 233.35C260.437 231.412 258.488 229.77 256.303 228.497L255.005 227.643C253.856 226.951 252.839 226.06 252.001 225.012C251.555 224.368 251.271 223.627 251.172 222.85C251.073 222.074 251.162 221.285 251.432 220.55C251.625 220.174 251.927 219.865 252.297 219.662C252.668 219.46 253.091 219.372 253.512 219.412C256.052 219.605 258.532 220.281 260.818 221.403C261.956 221.866 263.023 222.292 264.125 222.648C267.069 223.56 269.965 224.622 272.801 225.83L276.658 227.519C282.142 230.204 287.933 232.21 293.903 233.492C294.093 233.55 294.256 233.675 294.361 233.843C294.466 234.012 294.505 234.213 294.473 234.409C294.44 234.605 294.337 234.783 294.183 234.909C294.029 235.034 293.835 235.099 293.636 235.092C287.532 233.791 281.61 231.749 276.001 229.012L272.161 227.234C269.281 226.026 266.418 224.959 263.645 224.106C262.48 223.732 261.335 223.298 260.214 222.808C258.1 221.781 255.817 221.149 253.476 220.941C253.359 220.928 253.24 220.948 253.134 220.998C253.027 221.048 252.936 221.127 252.872 221.226C252.745 221.691 252.721 222.178 252.801 222.654C252.881 223.13 253.063 223.582 253.334 223.981C254.06 224.87 254.939 225.622 255.929 226.203L257.192 227.057C259.609 228.657 263.254 231.074 264.001 233.581C264.081 233.781 264.081 234.004 264.001 234.203C263.951 234.297 263.882 234.38 263.8 234.447C263.717 234.514 263.623 234.564 263.521 234.594C261.683 235.045 259.793 235.242 257.903 235.181C256.818 235.181 255.787 235.181 254.756 235.323C251.716 235.661 248.641 236.123 245.618 236.71C242.596 237.297 239.716 238.008 236.818 238.826C235.912 239.074 235.041 239.27 234.027 239.466C232.377 239.731 230.765 240.197 229.227 240.852C228.729 241.101 228.427 241.368 228.409 241.563C228.402 241.641 228.415 241.719 228.446 241.791C228.477 241.862 228.526 241.925 228.587 241.972C229.316 242.666 231.876 242.826 233.921 242.63L257.867 240.319C258.069 240.321 258.262 240.398 258.41 240.534C258.559 240.67 258.652 240.856 258.672 241.056C258.691 241.256 258.637 241.457 258.518 241.62C258.399 241.782 258.224 241.895 258.027 241.937C249.68 242.733 241.414 244.225 233.316 246.399C232.722 246.49 232.173 246.771 231.752 247.199C231.521 247.554 231.592 247.697 231.609 247.732C231.947 248.372 234.258 249.101 238.561 249.208C242.863 249.314 247.449 249.208 251.805 248.87C252.015 248.85 252.223 248.914 252.387 249.047C252.55 249.18 252.654 249.372 252.676 249.581C252.702 249.79 252.646 250.001 252.52 250.17C252.394 250.339 252.208 250.453 252.001 250.488L241.209 252.266C238.845 252.657 236.409 253.066 234.098 253.67C233.036 253.868 232.033 254.306 231.165 254.95C233.035 255.641 235.021 255.967 237.014 255.91C239.112 255.91 241.209 255.91 243.307 255.786L250.418 255.021C250.63 255.001 250.841 255.064 251.007 255.197C251.173 255.329 251.28 255.521 251.307 255.732C251.333 255.941 251.277 256.152 251.151 256.321C251.026 256.49 250.839 256.604 250.632 256.639C248.267 256.994 245.903 257.243 243.521 257.403L237.121 258.097C236.191 258.106 235.283 258.384 234.507 258.897C234.507 259.094 234.555 259.288 234.648 259.462C234.741 259.635 234.876 259.783 235.041 259.892C235.634 260.212 236.288 260.399 236.961 260.443C240.192 260.764 243.445 260.817 246.685 260.603C248.321 260.603 249.956 260.479 251.609 260.497C256.959 260.516 262.305 260.178 267.609 259.483C278.025 258.207 288.155 255.202 297.583 250.594C297.774 250.501 297.995 250.485 298.197 250.552C298.4 250.618 298.568 250.761 298.667 250.95C298.762 251.144 298.778 251.367 298.711 251.573C298.645 251.778 298.502 251.95 298.312 252.052C288.73 256.779 278.425 259.867 267.823 261.19C262.47 261.881 257.078 262.22 251.681 262.203C250.045 262.203 248.427 262.203 246.809 262.31C245.192 262.417 243.645 262.257 242.081 262.257Z" fill="#231F20"/>
<path d="M335.022 131.734C335.022 131.734 397.706 245.796 375.235 253.476C366.026 256.605 283.626 261.44 283.626 261.44L274.879 225.885L336.675 216.302L335.022 131.734Z" fill="#FF5C64"/>
<path d="M253.974 80.3195C251.119 80.3195 248.328 79.4728 245.954 77.8866C243.58 76.3004 241.73 74.0459 240.637 71.4082C239.544 68.7704 239.258 65.8679 239.815 63.0677C240.372 60.2675 241.747 57.6953 243.766 55.6764C245.785 53.6576 248.357 52.2827 251.157 51.7257C253.958 51.1687 256.86 51.4546 259.498 52.5472C262.136 53.6398 264.39 55.49 265.976 57.864C267.563 60.2379 268.409 63.0288 268.409 65.8839C268.404 69.711 266.882 73.38 264.176 76.0862C261.47 78.7924 257.801 80.3147 253.974 80.3195ZM253.974 53.0661C251.438 53.0626 248.958 53.8114 246.848 55.2177C244.737 56.624 243.092 58.6246 242.119 60.9664C241.146 63.3083 240.89 65.8861 241.382 68.3736C241.875 70.8612 243.094 73.1468 244.886 74.9411C246.678 76.7355 248.962 77.9581 251.449 78.4541C253.936 78.9501 256.514 78.6973 258.857 77.7277C261.2 76.7581 263.203 75.1152 264.612 73.0069C266.021 70.8987 266.774 68.4198 266.774 65.8839C266.778 62.4828 265.433 59.2188 263.033 56.8089C260.633 54.3989 257.375 53.04 253.974 53.0306V53.0661Z" fill="#231F20"/>
<path d="M282.116 77.9379C279.261 77.9379 276.47 77.0912 274.096 75.505C271.722 73.9188 269.872 71.6643 268.779 69.0266C267.686 66.3888 267.401 63.4863 267.958 60.6861C268.515 57.8859 269.889 55.3137 271.908 53.2949C273.927 51.276 276.499 49.9012 279.299 49.3442C282.1 48.7872 285.002 49.073 287.64 50.1656C290.278 51.2582 292.532 53.1085 294.118 55.4824C295.705 57.8563 296.551 60.6472 296.551 63.5023C296.547 67.3294 295.024 70.9984 292.318 73.7046C289.612 76.4108 285.943 77.9332 282.116 77.9379ZM282.116 50.7023C279.579 50.6988 277.098 51.448 274.988 52.8551C272.877 54.2622 271.232 56.2639 270.259 58.6067C269.287 60.9496 269.032 63.5283 269.526 66.0164C270.02 68.5044 271.241 70.7899 273.034 72.5836C274.828 74.3773 277.114 75.5984 279.602 76.0924C282.09 76.5864 284.668 76.3311 287.011 75.3588C289.354 74.3864 291.356 72.7408 292.763 70.6302C294.17 68.5196 294.919 66.0389 294.916 63.5023C294.911 60.109 293.561 56.856 291.161 54.4566C288.762 52.0571 285.509 50.707 282.116 50.7023Z" fill="#231F20"/>
<path d="M274.879 226.666C274.687 226.665 274.503 226.597 274.356 226.473C274.21 226.35 274.112 226.179 274.079 225.991C274.048 225.774 274.103 225.554 274.233 225.378C274.363 225.202 274.556 225.084 274.772 225.049L335.679 215.644L320.994 152.32C320.946 152.11 320.982 151.89 321.096 151.707C321.209 151.524 321.389 151.393 321.599 151.342C321.704 151.316 321.813 151.311 321.92 151.329C322.027 151.346 322.129 151.385 322.221 151.444C322.312 151.502 322.391 151.578 322.452 151.667C322.513 151.757 322.555 151.858 322.576 151.964L337.456 216.124C337.48 216.234 337.48 216.347 337.459 216.457C337.438 216.567 337.394 216.671 337.332 216.764C337.268 216.855 337.186 216.932 337.091 216.99C336.996 217.048 336.891 217.086 336.781 217.102L275.003 226.666H274.879Z" fill="#231F20"/>
<path d="M216.977 215.2C216.763 215.173 216.568 215.063 216.435 214.893C216.302 214.723 216.241 214.507 216.266 214.293C219.022 191.431 224.284 147.982 224.355 147.04H225.155L225.333 146.222C226.08 146.382 226.08 146.382 224.729 157.635L217.866 214.417C217.865 214.529 217.839 214.639 217.793 214.74C217.746 214.841 217.679 214.931 217.595 215.005C217.511 215.079 217.413 215.134 217.307 215.168C217.2 215.201 217.088 215.212 216.977 215.2Z" fill="#231F20"/>
<path d="M199.786 206.542C199.636 206.542 199.488 206.5 199.359 206.422C199.231 206.344 199.126 206.231 199.057 206.097L162.151 132.088C162.057 131.892 162.044 131.667 162.114 131.462C162.184 131.256 162.331 131.085 162.524 130.986C162.718 130.894 162.94 130.881 163.143 130.951C163.346 131.021 163.513 131.167 163.609 131.359L200.515 205.368C200.609 205.56 200.624 205.78 200.558 205.983C200.491 206.185 200.349 206.354 200.16 206.453C200.042 206.507 199.915 206.537 199.786 206.542Z" fill="#231F20"/>
<path d="M295.786 193.316C295.591 193.314 295.403 193.245 295.253 193.12C295.105 192.968 295.022 192.764 295.022 192.551C295.022 192.339 295.105 192.135 295.253 191.983L313.582 170.863L301.137 158.223C300.992 158.061 300.91 157.853 300.906 157.636C300.919 157.419 301.015 157.216 301.173 157.067L313.617 145.458C308.942 138.347 302.115 128.178 301.475 127.485C301.355 127.327 301.297 127.13 301.312 126.932C301.326 126.734 301.412 126.548 301.554 126.409C301.695 126.27 301.882 126.187 302.08 126.175C302.279 126.164 302.474 126.225 302.631 126.347C303.466 127.183 313.297 142.152 315.359 145.138C315.461 145.298 315.505 145.488 315.482 145.676C315.459 145.864 315.372 146.038 315.235 146.169L302.897 157.689L315.217 170.258C315.358 170.407 315.437 170.604 315.437 170.809C315.437 171.014 315.358 171.212 315.217 171.36L296.337 193.031C296.27 193.115 296.187 193.183 296.092 193.232C295.997 193.281 295.893 193.31 295.786 193.316Z" fill="#231F20"/>
<path d="M249.564 188.106C249.434 188.105 249.306 188.072 249.191 188.01C249.077 187.948 248.979 187.859 248.906 187.75L233.564 165.99C233.442 165.822 233.391 165.613 233.421 165.407C233.451 165.201 233.56 165.015 233.724 164.888L249.12 152.639L239.751 142.826C239.674 142.746 239.614 142.651 239.574 142.547C239.535 142.443 239.516 142.333 239.52 142.222C239.533 142.005 239.628 141.802 239.786 141.653L256.711 126.328C256.869 126.184 257.077 126.109 257.291 126.119C257.504 126.129 257.705 126.224 257.849 126.382C257.992 126.54 258.068 126.748 258.058 126.962C258.048 127.175 257.953 127.376 257.795 127.519L241.493 142.293L250.915 152.159C250.992 152.239 251.05 152.335 251.087 152.439C251.124 152.543 251.138 152.654 251.129 152.764C251.121 152.877 251.09 152.987 251.038 153.088C250.986 153.189 250.914 153.278 250.826 153.35L235.342 165.653L250.186 186.79C250.306 186.969 250.353 187.187 250.317 187.399C250.28 187.61 250.164 187.8 249.991 187.928C249.866 188.022 249.719 188.083 249.564 188.106Z" fill="#231F20"/>
<path d="M142.754 118.151C142.552 118.147 142.359 118.069 142.211 117.931C142.063 117.793 141.972 117.605 141.954 117.404C141.403 110.933 148.354 107.306 148.657 107.164C148.75 107.115 148.852 107.084 148.957 107.074C149.062 107.065 149.168 107.076 149.269 107.107C149.37 107.139 149.464 107.19 149.545 107.257C149.626 107.325 149.692 107.408 149.741 107.502C149.842 107.693 149.863 107.916 149.799 108.123C149.736 108.329 149.594 108.502 149.403 108.604C149.403 108.604 143.11 111.893 143.572 117.28C143.587 117.494 143.517 117.705 143.377 117.868C143.238 118.031 143.039 118.133 142.826 118.151H142.754Z" fill="#231F20"/>
<path d="M55.4485 303.076C76.9311 303.076 94.3463 285.661 94.3463 264.178C94.3463 242.696 76.9311 225.281 55.4485 225.281C33.9659 225.281 16.5508 242.696 16.5508 264.178C16.5508 285.661 33.9659 303.076 55.4485 303.076Z" fill="white"/>
<path d="M55.4473 303.964C47.5782 303.964 39.8859 301.631 33.343 297.259C26.8001 292.887 21.7006 286.673 18.6892 279.403C15.6779 272.133 14.89 264.134 16.4252 256.416C17.9603 248.698 21.7496 241.609 27.3139 236.044C32.8782 230.48 39.9675 226.691 47.6853 225.156C55.4031 223.62 63.4029 224.408 70.673 227.42C77.943 230.431 84.1568 235.531 88.5287 242.073C92.9005 248.616 95.2339 256.309 95.2339 264.178C95.2198 274.725 91.0235 284.837 83.5651 292.296C76.1067 299.754 65.995 303.95 55.4473 303.964ZM55.4473 226.169C47.9298 226.169 40.5812 228.398 34.3307 232.575C28.0802 236.751 23.2085 242.687 20.3317 249.632C17.4549 256.578 16.7022 264.22 18.1688 271.593C19.6354 278.966 23.2553 285.738 28.571 291.054C33.8866 296.37 40.6591 299.99 48.0321 301.456C55.4051 302.923 63.0474 302.17 69.9927 299.293C76.9379 296.417 82.874 291.545 87.0505 285.294C91.227 279.044 93.4561 271.695 93.4561 264.178C93.4609 254.089 89.4602 244.411 82.3331 237.271C75.2061 230.131 65.5358 226.112 55.4473 226.098V226.169Z" fill="#FF5C64"/>
<path d="M54.0097 236.604H57.1208C57.2345 236.651 57.3542 236.681 57.4763 236.693C62.1768 236.96 66.717 238.496 70.6141 241.138C74.9036 243.86 78.3363 247.74 80.5161 252.329C82.6959 256.918 83.5341 262.03 82.9341 267.075C82.4285 273.186 79.7699 278.919 75.4319 283.253C72.5432 286.332 68.9747 288.692 65.0113 290.146C61.0479 291.6 56.7994 292.107 52.6052 291.627C48.1863 291.222 43.9448 289.692 40.2852 287.182C37.0404 285.054 34.2868 282.257 32.2083 278.98C30.1298 275.703 28.7742 272.02 28.2319 268.178C28.1075 267.395 28.0364 266.595 27.9297 265.795V262.667L28.0363 262.098C28.1963 260.924 28.2852 259.733 28.5341 258.542C29.6912 252.992 32.5309 247.934 36.6665 244.056C40.802 240.178 46.0324 237.669 51.6452 236.871C52.3385 236.764 53.1563 236.764 54.0097 236.604ZM75.7341 279.555C78.8648 275.454 80.6584 270.489 80.8719 265.333H69.9385C69.7607 267.307 69.6541 269.227 69.3874 271.147C69.1208 273.067 68.7296 274.951 68.4096 276.747L75.7341 279.555ZM30.1697 265.333C30.3894 270.49 32.1892 275.455 35.3252 279.555L42.703 276.693C41.774 272.963 41.2671 269.141 41.1919 265.298L30.1697 265.333ZM80.8185 263.111C81.0496 259.04 78.0807 251.004 75.6807 248.889L68.2319 251.715C69.1758 255.43 69.6829 259.243 69.743 263.075L80.8185 263.111ZM42.7208 251.751L35.343 248.889C32.6763 251.698 29.7608 259.769 30.2408 263.111H41.1919C41.2435 259.267 41.7447 255.443 42.6852 251.715L42.7208 251.751ZM56.623 275.218C58.2585 275.36 59.8408 275.431 61.4052 275.609C62.9697 275.787 64.5519 276.071 66.1519 276.302C66.1519 276.178 66.1519 276.018 66.2763 275.875C67.0816 272.597 67.5346 269.241 67.6274 265.867C67.6274 265.404 67.5208 265.298 67.0763 265.298H57.1208H56.623V275.218ZM43.343 265.298C43.388 268.97 43.8775 272.623 44.8008 276.178L54.3119 275.093V265.298H43.343ZM67.5563 263.075C67.5049 259.411 67.0215 255.765 66.1163 252.213L56.5697 253.298V263.075H67.5563ZM44.8008 252.213C43.8758 255.761 43.3863 259.409 43.343 263.075H54.3119V253.298L44.8008 252.213ZM65.4408 249.938C64.6948 247.544 63.5985 245.273 62.1874 243.2C61.236 241.747 59.9651 240.531 58.4719 239.644C57.8852 239.324 57.2452 239.129 56.5697 238.844V250.987C59.566 250.934 62.5497 250.583 65.4763 249.938H65.4408ZM56.5519 277.458V289.404C57.8855 289.172 59.1218 288.554 60.1074 287.627C62.1659 285.633 63.7514 283.203 64.7474 280.515C64.9963 279.893 65.2096 279.253 65.4763 278.56C62.5652 277.922 59.6016 277.553 56.623 277.458H56.5519ZM54.2941 289.44V277.458C51.3061 277.518 48.3302 277.857 45.4052 278.471C45.9386 279.751 46.383 280.96 46.9519 282.133C47.8793 284.263 49.2559 286.167 50.9874 287.715C51.9365 288.585 53.1039 289.181 54.3652 289.44H54.2941ZM45.4052 249.92C48.331 250.529 51.3064 250.868 54.2941 250.933V238.951C53.3844 239.137 52.5242 239.512 51.7697 240.053C49.9798 241.358 48.5339 243.079 47.5563 245.067C46.8986 246.631 46.1341 248.249 45.3874 249.92H45.4052ZM74.1519 281.422C72.0955 280.374 69.9318 279.551 67.6985 278.969C66.6388 282.539 64.8194 285.838 62.3652 288.64C66.8803 287.369 70.9544 284.87 74.1341 281.422H74.1519ZM48.6763 239.858C45.9386 239.858 38.3297 244.622 36.8897 247.147L43.2008 249.511C44.0008 247.733 44.6941 245.955 45.4941 244.373C46.3151 242.713 47.3886 241.189 48.6763 239.858ZM36.8719 281.422C40.1006 284.897 44.23 287.408 48.8008 288.675C46.2884 285.882 44.4247 282.567 43.343 278.969C41.0952 279.542 38.9186 280.364 36.8541 281.422H36.8719ZM62.4363 239.858C63.6605 241.228 64.7005 242.752 65.5297 244.391C66.3119 246.027 67.0052 247.698 67.7696 249.404C69.9745 248.838 72.1093 248.027 74.1341 246.987C70.9835 243.548 66.9204 241.076 62.4185 239.858H62.4363Z" fill="#D1D3D4"/>
<path d="M428.532 248.248C445.155 248.248 458.63 234.773 458.63 218.151C458.63 201.528 445.155 188.053 428.532 188.053C411.91 188.053 398.435 201.528 398.435 218.151C398.435 234.773 411.91 248.248 428.532 248.248Z" fill="white"/>
<path d="M428.533 249.208C422.403 249.212 416.41 247.397 411.311 243.994C406.213 240.59 402.238 235.751 399.891 230.088C397.543 224.425 396.928 218.193 398.123 212.181C399.318 206.168 402.27 200.646 406.605 196.311C410.939 191.976 416.462 189.025 422.475 187.83C428.487 186.635 434.719 187.25 440.382 189.597C446.045 191.945 450.884 195.919 454.287 201.018C457.691 206.116 459.506 212.109 459.502 218.24C459.493 226.45 456.227 234.322 450.421 240.127C444.615 245.933 436.744 249.199 428.533 249.208ZM428.533 189.031C422.756 189.027 417.107 190.737 412.301 193.945C407.495 197.152 403.749 201.713 401.535 207.049C399.322 212.386 398.741 218.26 399.866 223.927C400.991 229.594 403.771 234.8 407.855 238.887C411.94 242.974 417.144 245.757 422.811 246.886C428.477 248.014 434.351 247.437 439.689 245.227C445.027 243.016 449.59 239.273 452.8 234.469C456.011 229.665 457.724 224.017 457.724 218.24C457.731 214.399 456.982 210.595 455.519 207.044C454.055 203.493 451.907 200.266 449.197 197.545C446.486 194.824 443.266 192.664 439.721 191.188C436.175 189.712 432.374 188.949 428.533 188.942V189.031Z" fill="#FF5C64"/>
<path d="M444.515 234.169H412.515C410.679 234.164 408.92 233.431 407.624 232.132C406.328 230.832 405.6 229.071 405.6 227.235V209.049C405.6 207.213 406.328 205.452 407.624 204.152C408.92 202.853 410.679 202.12 412.515 202.115H444.515C446.351 202.12 448.11 202.853 449.406 204.152C450.703 205.452 451.431 207.213 451.431 209.049V227.235C451.431 229.071 450.703 230.832 449.406 232.132C448.11 233.431 446.351 234.164 444.515 234.169ZM412.515 203.946C411.151 203.951 409.844 204.496 408.881 205.463C407.918 206.429 407.377 207.738 407.377 209.102V227.289C407.377 228.653 407.918 229.962 408.881 230.928C409.844 231.894 411.151 232.44 412.515 232.444H444.515C445.191 232.444 445.861 232.311 446.485 232.051C447.11 231.792 447.677 231.412 448.154 230.933C448.632 230.454 449.01 229.886 449.267 229.26C449.524 228.635 449.655 227.965 449.653 227.289V209.049C449.655 208.373 449.524 207.702 449.267 207.077C449.01 206.452 448.632 205.883 448.154 205.404C447.677 204.925 447.11 204.545 446.485 204.286C445.861 204.027 445.191 203.893 444.515 203.893L412.515 203.946Z" fill="#D1D3D4"/>
<path d="M421.173 228.266C420.94 228.257 420.719 228.161 420.554 227.996C420.389 227.831 420.293 227.61 420.284 227.377V208.906C420.285 208.755 420.324 208.607 420.399 208.477C420.474 208.346 420.581 208.236 420.711 208.16C420.842 208.089 420.989 208.053 421.138 208.053C421.286 208.053 421.433 208.089 421.564 208.16L440.569 217.404C440.72 217.476 440.847 217.589 440.935 217.731C441.023 217.873 441.069 218.037 441.066 218.204C441.065 218.37 441.017 218.533 440.93 218.674C440.842 218.815 440.717 218.929 440.569 219.004L421.564 228.231C421.438 228.269 421.304 228.281 421.173 228.266ZM422.062 210.328V225.955L438.062 218.151L422.062 210.328Z" fill="#D1D3D4"/>
<path d="M55.6428 201.937C85.8638 201.937 110.363 177.438 110.363 147.217C110.363 116.996 85.8638 92.4974 55.6428 92.4974C25.4218 92.4974 0.922852 116.996 0.922852 147.217C0.922852 177.438 25.4218 201.937 55.6428 201.937Z" fill="white"/>
<path d="M55.6444 202.844C44.6418 202.848 33.8852 199.588 24.7351 193.478C15.585 187.368 8.45242 178.682 4.23945 168.517C0.0264765 158.353 -1.07765 147.168 1.06671 136.376C3.21107 125.585 8.50758 115.671 16.2864 107.89C24.0652 100.109 33.9769 94.809 44.7679 92.6612C55.5589 90.5134 66.7444 91.614 76.9099 95.8237C87.0754 100.033 95.7641 107.163 101.877 116.311C107.99 125.459 111.253 136.215 111.253 147.218C111.234 161.962 105.37 176.097 94.9461 186.525C84.522 196.952 70.3886 202.821 55.6444 202.844ZM55.6444 93.3866C44.9926 93.3831 34.579 96.5388 25.7209 102.454C16.8628 108.37 9.9581 116.78 5.88021 126.62C1.80231 136.461 0.734433 147.289 2.81163 157.736C4.88884 168.184 10.0178 177.78 17.5498 185.312C25.0817 192.844 34.6783 197.973 45.1256 200.05C55.5729 202.128 66.4016 201.06 76.2419 196.982C86.0822 192.904 94.4921 185.999 100.408 177.141C106.323 168.283 109.479 157.869 109.475 147.218C109.457 132.947 103.779 119.265 93.6879 109.174C83.5967 99.083 69.9155 93.4055 55.6444 93.3866Z" fill="#FF5C64"/>
<path d="M90.5603 172.498H20.7292C20.4935 172.498 20.2674 172.404 20.1007 172.237C19.934 172.071 19.8403 171.844 19.8403 171.609V122.844C19.8403 122.609 19.934 122.382 20.1007 122.216C20.2674 122.049 20.4935 121.955 20.7292 121.955H90.5603C90.796 121.955 91.0221 122.049 91.1888 122.216C91.3555 122.382 91.4491 122.609 91.4491 122.844V171.609C91.4491 171.844 91.3555 172.071 91.1888 172.237C91.0221 172.404 90.796 172.498 90.5603 172.498ZM21.6181 170.72H89.6714V123.733H21.6181V170.72Z" fill="#D1D3D4"/>
<path d="M20.7275 172.498C20.5345 172.502 20.3461 172.439 20.1942 172.32C20.0067 172.179 19.8815 171.97 19.845 171.738C19.8085 171.505 19.8636 171.268 19.9986 171.076L47.5719 133.956C47.6492 133.848 47.7505 133.76 47.8677 133.698C47.985 133.637 48.115 133.603 48.2475 133.6C48.3825 133.596 48.5168 133.623 48.64 133.678C48.7632 133.734 48.8722 133.816 48.9586 133.92L70.523 159.485C70.5989 159.573 70.6565 159.676 70.6927 159.787C70.7288 159.898 70.7428 160.015 70.7337 160.132C70.7246 160.248 70.6927 160.361 70.6398 160.466C70.5869 160.57 70.514 160.662 70.4252 160.738C70.3365 160.814 70.2337 160.872 70.1227 160.908C70.0117 160.944 69.8947 160.958 69.7783 160.949C69.6619 160.94 69.5485 160.908 69.4444 160.855C69.3404 160.802 69.2478 160.729 69.1719 160.64L48.3186 135.911L21.4386 172.142C21.3549 172.252 21.2473 172.341 21.1241 172.402C21.0009 172.464 20.8653 172.497 20.7275 172.498Z" fill="#D1D3D4"/>
<path d="M63.9286 153.938C63.7506 153.935 63.5774 153.879 63.4308 153.778C63.2388 153.645 63.107 153.441 63.0637 153.212C63.0205 152.982 63.0693 152.745 63.1997 152.551L74.3641 136.409C74.4412 136.301 74.541 136.211 74.6565 136.146C74.7719 136.081 74.9003 136.042 75.0325 136.032C75.1648 136.022 75.2976 136.041 75.4217 136.087C75.5458 136.134 75.6582 136.207 75.7508 136.302L91.1997 152.427C91.3301 152.604 91.3916 152.823 91.3727 153.042C91.3538 153.261 91.2558 153.466 91.0969 153.618C90.9381 153.771 90.7292 153.86 90.5093 153.87C90.2894 153.88 90.0735 153.809 89.9019 153.671L75.2175 138.329L64.6753 153.547C64.5907 153.666 64.4789 153.764 64.3491 153.832C64.2193 153.9 64.0751 153.937 63.9286 153.938Z" fill="#D1D3D4"/>
<path d="M65.1554 137.813C64.1244 137.817 63.1156 137.514 62.2566 136.944C61.3977 136.374 60.7273 135.562 60.3303 134.61C59.9334 133.659 59.8277 132.611 60.0266 131.599C60.2256 130.588 60.7203 129.658 61.4481 128.928C62.1758 128.197 63.1039 127.699 64.1148 127.497C65.1257 127.295 66.174 127.397 67.1268 127.79C68.0796 128.184 68.8942 128.852 69.4674 129.709C70.0405 130.566 70.3465 131.574 70.3465 132.604C70.3465 133.983 69.8001 135.305 68.8271 136.281C67.8541 137.258 66.5338 137.809 65.1554 137.813ZM65.1554 129.173C64.476 129.17 63.8109 129.368 63.2443 129.743C62.6778 130.118 62.2352 130.652 61.9728 131.279C61.7104 131.906 61.6399 132.596 61.7703 133.263C61.9006 133.93 62.226 134.543 62.7051 135.024C63.1843 135.506 63.7956 135.834 64.4617 135.968C65.1277 136.102 65.8185 136.035 66.4465 135.776C67.0745 135.517 67.6114 135.077 67.9892 134.513C68.367 133.948 68.5687 133.284 68.5687 132.604C68.5687 131.698 68.2097 130.828 67.5701 130.185C66.9304 129.542 66.0623 129.178 65.1554 129.173Z" fill="#D1D3D4"/>
<path d="M294.719 262.257C294.525 262.229 294.348 262.131 294.22 261.983C294.092 261.834 294.021 261.645 294.021 261.448C294.021 261.252 294.092 261.063 294.22 260.914C294.348 260.766 294.525 260.668 294.719 260.64L340.07 257.209C340.177 257.196 340.285 257.206 340.388 257.238C340.491 257.269 340.587 257.322 340.669 257.392C340.75 257.462 340.817 257.548 340.864 257.645C340.911 257.742 340.937 257.848 340.941 257.955C340.951 258.062 340.939 258.169 340.907 258.271C340.874 258.373 340.821 258.467 340.752 258.548C340.682 258.63 340.597 258.696 340.501 258.744C340.406 258.792 340.301 258.82 340.195 258.826L294.843 262.257H294.719Z" fill="#231F20"/>
<path d="M408.871 150.773C436.618 150.773 459.111 128.28 459.111 100.533C459.111 72.7865 436.618 50.2933 408.871 50.2933C381.125 50.2933 358.631 72.7865 358.631 100.533C358.631 128.28 381.125 150.773 408.871 150.773Z" fill="white"/>
<path d="M408.872 151.643C398.758 151.643 388.873 148.644 380.464 143.025C372.056 137.407 365.502 129.42 361.633 120.077C357.764 110.733 356.752 100.452 358.726 90.5333C360.701 80.6148 365.572 71.5046 372.724 64.3548C379.877 57.205 388.989 52.3368 398.908 50.366C408.827 48.3952 419.108 49.4103 428.45 53.2828C437.792 57.1554 445.776 63.7114 451.392 72.1219C457.008 80.5323 460.004 90.4193 460 100.532C459.982 114.085 454.588 127.077 445.003 136.659C435.418 146.24 422.424 151.629 408.872 151.643ZM408.872 51.1813C399.111 51.1813 389.569 54.0757 381.454 59.4985C373.338 64.9212 367.012 72.6288 363.277 81.6466C359.542 90.6643 358.564 100.587 360.469 110.16C362.373 119.733 367.073 128.527 373.975 135.429C380.877 142.331 389.67 147.031 399.244 148.935C408.817 150.839 418.74 149.862 427.757 146.127C436.775 142.392 444.483 136.066 449.905 127.95C455.328 119.835 458.223 110.293 458.223 100.532C458.208 87.448 453.004 74.9036 443.752 65.6515C434.5 56.3994 421.956 51.1954 408.872 51.1813Z" fill="#FF5C64"/>
<path d="M441.653 119.431H376.089C375.853 119.431 375.627 119.337 375.461 119.171C375.294 119.004 375.2 118.778 375.2 118.542V82.4712C375.2 82.2354 375.294 82.0093 375.461 81.8426C375.627 81.6759 375.853 81.5823 376.089 81.5823H441.653C441.889 81.5823 442.115 81.6759 442.282 81.8426C442.449 82.0093 442.542 82.2354 442.542 82.4712V118.596C442.529 118.822 442.429 119.035 442.264 119.19C442.099 119.345 441.88 119.432 441.653 119.431ZM376.978 117.653H440.765V83.3601H376.978V117.653Z" fill="#D1D3D4"/>
<path d="M408.89 105.884C408.709 105.881 408.532 105.832 408.375 105.742L375.592 83.1994C375.397 83.0674 375.262 82.8631 375.217 82.6314C375.172 82.3997 375.22 82.1596 375.352 81.9639C375.484 81.7682 375.689 81.633 375.921 81.588C376.152 81.543 376.392 81.5919 376.588 81.7239L408.89 103.928L441.157 81.7239C441.352 81.5919 441.593 81.543 441.824 81.588C442.056 81.633 442.26 81.7682 442.392 81.9639C442.524 82.1596 442.573 82.3997 442.528 82.6314C442.483 82.8631 442.348 83.0674 442.152 83.1994L409.388 105.742C409.236 105.829 409.065 105.878 408.89 105.884Z" fill="#D1D3D4"/>
<path d="M376.089 119.431C375.944 119.431 375.802 119.396 375.675 119.328C375.548 119.259 375.439 119.161 375.36 119.04C375.293 118.943 375.245 118.834 375.22 118.719C375.195 118.604 375.194 118.485 375.215 118.369C375.237 118.254 375.281 118.143 375.345 118.045C375.41 117.946 375.493 117.862 375.591 117.796L401.866 99.8756C402.062 99.7436 402.302 99.6947 402.534 99.7397C402.766 99.7847 402.97 99.9199 403.102 100.116C403.234 100.311 403.283 100.551 403.238 100.783C403.193 101.015 403.058 101.219 402.862 101.351L376.587 119.324C376.436 119.411 376.262 119.448 376.089 119.431Z" fill="#D1D3D4"/>
<path d="M441.653 119.431C441.474 119.433 441.3 119.377 441.155 119.271L414.898 101.263C414.801 101.197 414.718 101.113 414.653 101.016C414.589 100.918 414.544 100.809 414.522 100.694C414.499 100.58 414.5 100.462 414.523 100.347C414.547 100.233 414.592 100.124 414.658 100.027C414.723 99.9301 414.807 99.847 414.904 99.7826C415.002 99.7181 415.111 99.6734 415.226 99.6511C415.34 99.6288 415.458 99.6293 415.573 99.6527C415.687 99.676 415.796 99.7216 415.893 99.787L442.151 117.849C442.248 117.915 442.332 118 442.396 118.098C442.461 118.197 442.505 118.307 442.527 118.423C442.548 118.539 442.546 118.658 442.522 118.773C442.497 118.888 442.449 118.997 442.382 119.094C442.297 119.204 442.186 119.293 442.059 119.352C441.932 119.41 441.793 119.438 441.653 119.431Z" fill="#D1D3D4"/>
<path d="M146.418 83.5551C169.235 83.5551 187.733 65.0575 187.733 42.2396C187.733 19.4217 169.235 0.924072 146.418 0.924072C123.6 0.924072 105.102 19.4217 105.102 42.2396C105.102 65.0575 123.6 83.5551 146.418 83.5551Z" fill="white"/>
<path d="M146.453 84.4444C138.101 84.4444 129.937 81.9676 122.993 77.3274C116.05 72.6872 110.638 66.0919 107.443 58.3758C104.248 50.6597 103.412 42.1693 105.043 33.9785C106.674 25.7877 110.697 18.2645 116.603 12.3603C122.51 6.45615 130.035 2.43628 138.226 0.809139C146.418 -0.818004 154.908 0.0206737 162.623 3.2191C170.337 6.41752 176.93 11.832 181.568 18.7777C186.205 25.7235 188.678 33.8885 188.675 42.24C188.661 53.432 184.207 64.1614 176.292 72.0737C168.376 79.986 157.645 84.435 146.453 84.4444ZM146.453 1.79558C138.454 1.79558 130.634 4.16759 123.983 8.61168C117.332 13.0558 112.148 19.3723 109.087 26.7626C106.026 34.1528 105.225 42.2848 106.785 50.1303C108.346 57.9757 112.198 65.1822 117.854 70.8385C123.51 76.4947 130.717 80.3467 138.562 81.9073C146.408 83.4678 154.54 82.6669 161.93 79.6057C169.32 76.5446 175.637 71.3607 180.081 64.7097C184.525 58.0586 186.897 50.2391 186.897 42.24C186.888 31.5163 182.624 21.2346 175.041 13.6519C167.458 6.0691 157.176 1.80499 146.453 1.79558Z" fill="#FF5C64"/>
<path d="M140.923 48.9061H125.119C123.137 48.9061 121.236 48.12 119.833 46.7202C118.43 45.3205 117.639 43.4213 117.634 41.4394V39.4305C117.639 37.4486 118.43 35.5495 119.833 34.1497C121.236 32.75 123.137 31.9639 125.119 31.9639H140.888C141.123 31.9639 141.349 32.0575 141.516 32.2242C141.683 32.3909 141.776 32.617 141.776 32.8528V48.0172C141.777 48.2469 141.688 48.4678 141.529 48.6335C141.37 48.7992 141.153 48.8969 140.923 48.9061ZM125.119 33.7416C123.608 33.7416 122.159 34.3404 121.09 35.4068C120.02 36.4732 119.417 37.9201 119.412 39.4305V41.4394C119.417 42.9498 120.02 44.3968 121.09 45.4631C122.159 46.5295 123.608 47.1283 125.119 47.1283H139.999V33.7416H125.119Z" fill="#D1D3D4"/>
<path d="M166.363 61.4758C166.227 61.474 166.094 61.4437 165.971 61.3869L140.531 48.818C140.382 48.7447 140.256 48.6308 140.168 48.4894C140.08 48.3479 140.033 48.1846 140.034 48.018V32.4447C140.035 32.2785 140.083 32.116 140.17 31.9749C140.258 31.8338 140.383 31.7196 140.531 31.6447L166.007 19.0936C166.137 19.0187 166.284 18.9792 166.434 18.9792C166.583 18.9792 166.731 19.0187 166.86 19.0936C166.99 19.1705 167.097 19.2797 167.172 19.4106C167.247 19.5415 167.287 19.6895 167.287 19.8402V60.5869C167.278 60.8198 167.182 61.0408 167.017 61.2057C166.852 61.3705 166.631 61.467 166.398 61.4758H166.363ZM141.811 47.4669L165.474 59.1469V21.3158L141.811 32.9958V47.4669Z" fill="#D1D3D4"/>
<path d="M166.364 49.0309C166.129 49.0309 165.903 48.9372 165.736 48.7705C165.569 48.6038 165.476 48.3778 165.476 48.142C165.476 47.9063 165.569 47.6802 165.736 47.5135C165.903 47.3468 166.129 47.2531 166.364 47.2531C167.38 47.4153 168.419 47.3551 169.409 47.0768C170.4 46.7984 171.318 46.3086 172.1 45.641C172.883 44.9734 173.511 44.144 173.942 43.21C174.373 42.2759 174.596 41.2595 174.596 40.2309C174.596 39.2023 174.373 38.1859 173.942 37.2518C173.511 36.3178 172.883 35.4884 172.1 34.8208C171.318 34.1532 170.4 33.6634 169.409 33.385C168.419 33.1067 167.38 33.0466 166.364 33.2087C166.129 33.2087 165.903 33.115 165.736 32.9483C165.569 32.7816 165.476 32.5555 165.476 32.3198C165.476 32.084 165.569 31.858 165.736 31.6913C165.903 31.5246 166.129 31.4309 166.364 31.4309C167.52 31.4309 168.664 31.6585 169.732 32.1008C170.8 32.543 171.77 33.1912 172.587 34.0084C173.404 34.8255 174.052 35.7956 174.495 36.8633C174.937 37.931 175.164 39.0753 175.164 40.2309C175.164 41.3865 174.937 42.5308 174.495 43.5985C174.052 44.6662 173.404 45.6363 172.587 46.4534C171.77 47.2706 170.8 47.9188 169.732 48.361C168.664 48.8033 167.52 49.0309 166.364 49.0309Z" fill="#D1D3D4"/>
<path d="M131.965 65.4762C131.375 65.4785 130.791 65.3643 130.245 65.1403C129.7 64.9162 129.204 64.5865 128.786 64.1703C128.368 63.7541 128.036 63.2594 127.81 62.7147C127.584 62.17 127.467 61.586 127.467 60.9962V48.0184C127.467 47.7827 127.561 47.5566 127.728 47.3899C127.894 47.2232 128.12 47.1295 128.356 47.1295H135.574C135.808 47.1341 136.032 47.2292 136.197 47.3949C136.363 47.5606 136.458 47.7841 136.463 48.0184V60.9962C136.458 62.186 135.982 63.3254 135.139 64.1651C134.296 65.0047 133.155 65.4762 131.965 65.4762ZM129.245 48.9073V60.9962C129.245 61.7175 129.532 62.4094 130.042 62.9195C130.552 63.4296 131.244 63.7162 131.965 63.7162C132.686 63.7162 133.378 63.4296 133.888 62.9195C134.398 62.4094 134.685 61.7175 134.685 60.9962V48.9073H129.245Z" fill="#D1D3D4"/>
<path d="M130.453 38.4888H123.786C123.55 38.4888 123.324 38.3952 123.157 38.2285C122.991 38.0618 122.897 37.8357 122.897 37.5999C122.897 37.3642 122.991 37.1381 123.157 36.9714C123.324 36.8047 123.55 36.7111 123.786 36.7111H130.453C130.688 36.7111 130.914 36.8047 131.081 36.9714C131.248 37.1381 131.341 37.3642 131.341 37.5999C131.341 37.8357 131.248 38.0618 131.081 38.2285C130.914 38.3952 130.688 38.4888 130.453 38.4888Z" fill="#D1D3D4"/>
<path d="M151.2 271.572H105.866C105.631 271.572 105.405 271.478 105.238 271.312C105.071 271.145 104.978 270.919 104.978 270.683C104.978 270.447 105.071 270.221 105.238 270.055C105.405 269.888 105.631 269.794 105.866 269.794H151.2C151.435 269.794 151.662 269.888 151.828 270.055C151.995 270.221 152.089 270.447 152.089 270.683C152.089 270.919 151.995 271.145 151.828 271.312C151.662 271.478 151.435 271.572 151.2 271.572Z" fill="#D1D3D4"/>
<path d="M161.866 260.533H105.866C105.631 260.533 105.405 260.439 105.238 260.272C105.071 260.106 104.978 259.88 104.978 259.644C104.978 259.408 105.071 259.182 105.238 259.015C105.405 258.849 105.631 258.755 105.866 258.755H161.866C162.101 258.759 162.324 258.855 162.49 259.02C162.656 259.186 162.751 259.409 162.755 259.644C162.755 259.88 162.662 260.106 162.495 260.272C162.328 260.439 162.102 260.533 161.866 260.533Z" fill="#D1D3D4"/>
<path d="M159.271 249.654H105.938C105.702 249.654 105.476 249.56 105.309 249.393C105.142 249.227 105.049 249.001 105.049 248.765C105.049 248.529 105.142 248.303 105.309 248.136C105.476 247.97 105.702 247.876 105.938 247.876H159.271C159.507 247.876 159.733 247.97 159.9 248.136C160.066 248.303 160.16 248.529 160.16 248.765C160.16 249.001 160.066 249.227 159.9 249.393C159.733 249.56 159.507 249.654 159.271 249.654Z" fill="#D1D3D4"/>
</svg>
