<svg width="531" height="406" viewBox="0 0 531 406" fill="none" xmlns="http://www.w3.org/2000/svg">
<path d="M8.13672 380.957V404.64H466.874L526.343 322.435V294.043L8.13672 380.957Z" fill="white"/>
<path d="M466.874 405.55H8.13672C7.91458 405.55 7.70154 405.454 7.54446 405.283C7.38738 405.113 7.29913 404.881 7.29913 404.64V380.957C7.29669 380.738 7.36683 380.526 7.49672 380.359C7.62661 380.192 7.80756 380.081 8.00643 380.047L526.213 293.154C526.335 293.135 526.461 293.145 526.58 293.183C526.698 293.221 526.808 293.287 526.901 293.376C526.995 293.46 527.07 293.565 527.121 293.684C527.173 293.802 527.199 293.932 527.199 294.063V322.455C527.203 322.662 527.136 322.863 527.013 323.021L467.544 405.226C467.462 405.331 467.359 405.414 467.243 405.47C467.127 405.526 467.001 405.553 466.874 405.55ZM8.99292 403.711H466.483L525.524 322.112V295.134L8.99292 381.745V403.711Z" fill="#231F20"/>
<path d="M105.613 161.581C102.104 161.705 98.6235 160.861 95.4957 159.13C92.368 157.399 89.695 154.835 87.7261 151.679C85.1765 146.943 83.5781 141.675 83.0356 136.221C81.2673 123.914 79.6294 111.83 81.3232 99.4626C81.6621 95.9344 82.6093 92.5069 84.1151 89.3588C84.8734 87.7802 85.9561 86.4123 87.2794 85.3611C88.6028 84.3098 90.1313 83.6033 91.7465 83.2964C93.027 78.0902 96.0632 73.5966 100.253 70.707C106.538 66.099 114.22 64.3036 121.695 65.6955C120.164 65.7083 118.661 65.2531 117.358 64.382C116.721 63.9295 116.266 63.2307 116.087 62.4275C115.907 61.6243 116.015 60.7769 116.39 60.0575C117.302 58.7238 119.108 58.7844 120.615 59.0269C128.397 60.2571 135.876 63.1559 142.616 67.5546C142.207 64.584 145.203 62.0985 147.977 62.1793C150.752 62.5573 153.352 63.8558 155.422 65.8975C159.332 68.7923 162.668 72.5099 165.231 76.8299C168.06 82.185 167.651 90.551 165.64 96.189C165.088 98.0265 163.996 99.6166 162.532 100.716C161.452 101.584 160.001 101.908 158.94 102.736C156.781 104.393 157.358 103.403 156.427 106.353C154.417 112.719 153.337 118.761 150.21 124.743C147.109 130.453 143.56 135.862 139.601 140.909C133.772 148.844 126.227 155.091 117.637 159.096C113.816 160.766 109.732 161.61 105.613 161.581Z" fill="white"/>
<path d="M105.837 162.592H105.595C101.938 162.712 98.313 161.824 95.0581 160.011C91.8031 158.199 89.0244 155.52 86.9815 152.225C84.3575 147.366 82.7084 141.961 82.1421 136.362C80.5042 125.086 78.6429 112.295 80.4297 99.3212C80.7782 95.6535 81.7567 92.0893 83.3148 88.8131C84.1033 87.2095 85.1962 85.8058 86.5213 84.6946C87.8464 83.5834 89.3736 82.79 91.0019 82.3669C92.4483 77.1915 95.551 72.7479 99.7501 69.8381C104.542 66.3451 110.138 64.3781 115.906 64.1597C115.498 63.5609 115.218 62.8704 115.087 62.1389C115.018 61.6781 115.033 61.207 115.132 60.7526C115.231 60.2983 115.412 59.8697 115.664 59.4917C117.042 57.4709 119.834 57.9155 120.764 58.0569C128.161 59.2603 135.291 61.9319 141.797 65.938C142.002 65.085 142.398 64.3004 142.951 63.6545C143.588 62.8791 144.372 62.2626 145.249 61.8475C146.126 61.4324 147.076 61.2285 148.032 61.2498C151.001 61.6291 153.787 63.0069 155.999 65.1903C160.029 68.1378 163.457 71.9557 166.068 76.4056C169.084 82.1446 168.581 90.9147 166.515 96.6133C165.901 98.6142 164.698 100.34 163.09 101.524C162.447 102.007 161.753 102.407 161.024 102.716C160.477 102.937 159.953 103.222 159.461 103.565L158.437 104.312C157.916 104.676 157.916 104.676 157.637 105.586L157.302 106.677C156.725 108.536 156.203 110.355 155.701 112.173C154.611 116.712 153.043 121.099 151.029 125.248C147.888 131.004 144.301 136.46 140.308 141.555C134.379 149.592 126.704 155.904 117.972 159.924C114.121 161.648 110.002 162.553 105.837 162.592ZM116.725 66.1805C111.04 66.2123 105.49 68.0684 100.774 71.5153C96.7563 74.254 93.8535 78.5547 92.6585 83.5389C92.6181 83.7468 92.5195 83.936 92.3763 84.0807C92.233 84.2254 92.052 84.3185 91.8582 84.3472C90.3937 84.6198 89.0063 85.2534 87.8027 86.1992C86.5992 87.1451 85.6114 88.3781 84.9155 89.8033C83.4713 92.8966 82.5687 96.2541 82.2538 99.7051C80.5228 112.355 82.3469 124.985 83.9662 136.079C84.4971 141.393 86.044 146.527 88.5078 151.154C90.3976 154.162 92.9559 156.604 95.9459 158.254C98.9359 159.903 102.261 160.707 105.613 160.591C109.617 160.58 113.581 159.722 117.284 158.065C125.726 154.179 133.145 148.075 138.875 140.303C142.795 135.292 146.319 129.931 149.41 124.278C151.347 120.25 152.864 116 153.933 111.607C154.435 109.769 154.956 107.93 155.552 106.03L155.868 104.979C156.297 103.565 156.408 103.343 157.432 102.635L158.4 101.928C158.985 101.508 159.608 101.156 160.261 100.877C160.855 100.626 161.423 100.308 161.955 99.9274C163.278 98.9595 164.261 97.5356 164.747 95.8859C166.608 90.6116 167.129 82.5689 164.412 77.3958C161.922 73.1831 158.666 69.5663 154.845 66.7665C152.923 64.8633 150.516 63.6374 147.939 63.2503C147.241 63.224 146.546 63.3642 145.903 63.661C145.259 63.9577 144.684 64.4038 144.217 64.968C143.926 65.2984 143.705 65.694 143.57 66.1269C143.435 66.5597 143.389 67.0195 143.435 67.4738C143.468 67.6645 143.448 67.8615 143.379 68.0403C143.309 68.2191 143.193 68.3719 143.044 68.4795C142.896 68.5872 142.721 68.645 142.542 68.6458C142.364 68.6466 142.189 68.5904 142.039 68.4841C135.4 64.1467 128.037 61.2761 120.373 60.0373C118.624 59.7544 117.526 60.0373 117.042 60.6839C116.834 61.0151 116.754 61.4212 116.818 61.8156C116.932 62.5257 117.292 63.1618 117.823 63.5938C118.298 63.9618 118.836 64.2229 119.405 64.3618C120.187 64.3618 120.988 64.5638 121.769 64.7255C122.016 64.7603 122.24 64.9002 122.392 65.1143C122.544 65.3284 122.611 65.5992 122.579 65.8672C122.547 66.1352 122.418 66.3784 122.221 66.5432C122.024 66.7081 121.774 66.7811 121.527 66.7463C120.714 66.686 119.906 66.5645 119.108 66.3825C118.419 66.2209 117.563 66.1805 116.725 66.1805Z" fill="#231F20"/>
<path d="M161.639 125.147C161.639 125.147 172.49 142.465 170.331 146.122C168.172 149.78 160.838 147.476 160.838 147.476" fill="white"/>
<path d="M165.454 149.194C163.806 149.172 162.167 148.921 160.578 148.446C160.344 148.367 160.147 148.192 160.029 147.958C159.911 147.725 159.881 147.451 159.945 147.193C159.977 147.064 160.032 146.944 160.108 146.839C160.184 146.734 160.279 146.647 160.387 146.583C160.495 146.519 160.613 146.479 160.736 146.466C160.858 146.452 160.982 146.466 161.099 146.506C162.96 147.072 168.097 148.042 169.549 145.577C170.685 143.556 165.92 133.775 160.876 125.713C160.807 125.602 160.759 125.479 160.735 125.349C160.71 125.218 160.71 125.084 160.733 124.954C160.757 124.823 160.803 124.699 160.871 124.588C160.938 124.478 161.025 124.382 161.127 124.308C161.228 124.234 161.342 124.182 161.462 124.155C161.582 124.129 161.706 124.128 161.826 124.154C161.946 124.179 162.06 124.23 162.162 124.303C162.264 124.376 162.352 124.471 162.42 124.581C165.045 128.764 173.439 142.768 171.113 146.668C170.437 147.567 169.566 148.268 168.578 148.71C167.59 149.151 166.517 149.317 165.454 149.194Z" fill="#231F20"/>
<path d="M159.107 102.09C165.938 107.99 164.133 120.701 164.17 128.946C164.17 140.572 163.984 152.178 163.612 163.764C163.332 171.119 145.799 171.524 142.672 169.361L145.966 188.761L105.613 184.032V161.581C105.613 161.581 121.881 159.439 128.563 144.344C135.245 129.249 134.985 101.099 134.985 101.099C134.985 101.099 152.425 96.3304 159.107 102.09Z" fill="white"/>
<path d="M145.966 189.771H145.873L105.502 185.022C105.276 184.997 105.067 184.882 104.916 184.699C104.765 184.516 104.681 184.278 104.683 184.032V161.581C104.677 161.332 104.758 161.089 104.91 160.902C105.062 160.714 105.273 160.596 105.502 160.571C105.651 160.571 121.341 158.308 127.726 143.92C134.11 129.532 134.054 101.483 134.054 101.12C134.049 100.891 134.116 100.668 134.245 100.488C134.374 100.307 134.556 100.181 134.761 100.129C135.487 99.9274 152.723 95.2998 159.684 101.302C165.733 106.515 165.436 116.478 165.268 124.48C165.268 126.056 165.268 127.572 165.268 128.946C165.268 140.525 165.138 152.245 164.71 163.804C164.602 164.97 164.196 166.079 163.538 167.007C162.881 167.936 161.997 168.646 160.987 169.058C156.39 171.685 147.958 171.988 143.993 170.917L146.897 188.619C146.918 188.775 146.907 188.933 146.865 189.083C146.823 189.233 146.752 189.371 146.655 189.488C146.563 189.583 146.455 189.657 146.337 189.705C146.219 189.754 146.093 189.776 145.966 189.771ZM106.544 183.123L144.831 187.609L141.76 169.543C141.724 169.352 141.742 169.153 141.811 168.972C141.881 168.792 141.999 168.639 142.151 168.533C142.304 168.429 142.482 168.374 142.663 168.374C142.844 168.374 143.021 168.429 143.174 168.533C145.185 169.927 155.031 170.129 159.926 167.28C161.639 166.31 162.532 165.118 162.588 163.744C163.016 152.225 163.202 140.525 163.146 128.986C163.146 127.572 163.146 126.036 163.146 124.419C163.37 116.882 163.649 107.485 158.326 102.898C152.742 98.1491 139.005 101.14 135.729 101.928C135.729 106.737 135.338 130.946 129.215 144.809C123.091 158.671 109.82 161.804 106.358 162.47L106.544 183.123Z" fill="#231F20"/>
<path d="M141.239 132.866C140.909 129.964 139.839 127.221 138.149 124.945C137.087 123.004 135.763 121.246 134.221 119.731C133.439 118.984 132.515 118.433 131.514 118.119C130.514 117.804 129.461 117.734 128.433 117.912C127.543 118.172 126.714 118.632 125.999 119.262C125.284 119.892 124.699 120.678 124.282 121.57C123.479 123.374 123.047 125.346 123.016 127.349C122.896 131.716 123.835 136.04 125.74 139.888C127.644 143.737 130.447 146.974 133.868 149.275L133.272 148.588" fill="white"/>
<path d="M133.868 150.225C133.687 150.289 133.491 150.289 133.31 150.225C129.756 147.819 126.843 144.445 124.861 140.44C122.879 136.434 121.897 131.935 122.011 127.39C122.039 125.236 122.51 123.117 123.389 121.186C123.864 120.162 124.535 119.259 125.357 118.538C126.178 117.816 127.132 117.293 128.154 117.003C129.318 116.778 130.515 116.843 131.653 117.193C132.791 117.543 133.841 118.169 134.724 119.024C136.35 120.595 137.744 122.428 138.856 124.46C140.644 126.89 141.766 129.817 142.095 132.906C142.1 133.171 142.009 133.427 141.842 133.62C141.675 133.813 141.445 133.927 141.202 133.937C140.957 133.938 140.722 133.838 140.542 133.658C140.363 133.478 140.252 133.232 140.234 132.967C139.889 130.262 138.879 127.707 137.311 125.571C136.305 123.716 135.051 122.034 133.589 120.58C132.921 119.924 132.126 119.439 131.263 119.159C130.4 118.879 129.49 118.812 128.6 118.963C127.839 119.188 127.131 119.585 126.521 120.128C125.912 120.671 125.415 121.349 125.064 122.115C124.318 123.778 123.924 125.601 123.91 127.45C123.824 131.387 124.628 135.287 126.25 138.81C127.872 142.332 130.264 145.37 133.217 147.658C133.357 147.641 133.498 147.66 133.631 147.712C133.763 147.765 133.883 147.85 133.98 147.961L134.575 148.648C134.723 148.829 134.805 149.063 134.805 149.305C134.805 149.547 134.723 149.781 134.575 149.962C134.482 150.058 134.37 150.132 134.248 150.177C134.126 150.223 133.996 150.239 133.868 150.225Z" fill="#231F20"/>
<path d="M158.642 120.311C159.472 120.25 160.031 118.35 159.89 116.067C159.748 113.785 158.96 111.983 158.129 112.044C157.298 112.105 156.74 114.005 156.881 116.287C157.023 118.57 157.811 120.371 158.642 120.311Z" fill="#231F20"/>
<path d="M96.8093 192.661L99.6571 176.777L151.513 180.213L154.77 191.671C154.77 191.671 126.292 207.675 96.8093 192.661Z" fill="white"/>
<path d="M123.724 200.077C114.298 200.135 104.976 197.941 96.4183 193.651C96.2294 193.556 96.0754 193.394 95.9809 193.193C95.8864 192.991 95.8569 192.761 95.8971 192.54L98.7449 176.636C98.7817 176.393 98.9021 176.174 99.0818 176.024C99.2616 175.874 99.4871 175.804 99.7128 175.828L151.569 179.263C151.759 179.271 151.942 179.344 152.092 179.471C152.242 179.598 152.352 179.772 152.406 179.97L155.645 191.448C155.712 191.675 155.702 191.92 155.617 192.139C155.531 192.357 155.376 192.536 155.18 192.641C145.301 197.52 134.577 200.055 123.724 200.077ZM97.9446 192.135C124.003 204.887 149.242 193.449 153.784 191.206L150.973 181.223L100.569 177.889L97.9446 192.135Z" fill="#231F20"/>
<path d="M163.891 154.589C163.891 154.589 160.987 160.652 151.904 154.589H163.891Z" fill="white"/>
<path d="M159.051 158.308C156.316 158.13 153.677 157.145 151.42 155.458C151.243 155.3 151.126 155.077 151.088 154.832C151.051 154.587 151.097 154.335 151.217 154.123C151.337 153.912 151.524 153.754 151.742 153.68C151.961 153.606 152.197 153.621 152.406 153.72C155.608 155.883 158.418 156.691 160.522 156.085C161.58 155.794 162.494 155.07 163.072 154.064C163.185 153.825 163.381 153.646 163.617 153.564C163.853 153.483 164.108 153.506 164.328 153.629C164.548 153.753 164.713 153.966 164.788 154.222C164.863 154.477 164.842 154.755 164.728 154.994C163.889 156.466 162.553 157.524 161.006 157.944C160.372 158.161 159.715 158.283 159.051 158.308Z" fill="#231F20"/>
<path d="M473.165 364.73H0.840332L64.0503 289.436L530.084 285.152L473.165 364.73Z" fill="white"/>
<path d="M473.165 365.639H0.840318C0.677033 365.644 0.516397 365.594 0.379983 365.496C0.243569 365.399 0.1379 365.258 0.0771757 365.094C0.00730203 364.932 -0.0158652 364.75 0.0107025 364.574C0.0372702 364.397 0.112339 364.233 0.226084 364.103L63.5105 288.83C63.5864 288.734 63.6806 288.657 63.7867 288.604C63.8928 288.552 64.0082 288.525 64.1247 288.526L530.158 284.222C530.316 284.224 530.47 284.272 530.604 284.361C530.738 284.45 530.848 284.576 530.922 284.727C530.986 284.887 531.011 285.062 530.995 285.236C530.979 285.409 530.922 285.575 530.829 285.718L473.928 365.296C473.838 365.418 473.721 365.514 473.588 365.574C473.454 365.634 473.309 365.657 473.165 365.639ZM2.77607 363.8H472.737L528.334 286.081L64.4411 290.365L2.77607 363.8Z" fill="#231F20"/>
<path d="M335.336 350.1L371.501 297.216H203.35L152.965 352.646L335.336 350.1Z" fill="white"/>
<path d="M152.965 353.656C152.783 353.659 152.604 353.603 152.451 353.495C152.299 353.387 152.179 353.232 152.109 353.05C152.037 352.865 152.016 352.661 152.049 352.464C152.082 352.267 152.167 352.084 152.295 351.938L202.699 296.508C202.782 296.411 202.883 296.334 202.995 296.282C203.107 296.23 203.228 296.204 203.35 296.205H371.557C371.729 296.205 371.899 296.258 372.046 296.356C372.193 296.455 372.312 296.596 372.389 296.764C372.466 296.932 372.499 297.12 372.484 297.306C372.468 297.493 372.405 297.672 372.301 297.822L336.08 350.686C335.996 350.811 335.888 350.914 335.762 350.988C335.636 351.061 335.497 351.103 335.354 351.11L152.946 353.656H152.965ZM203.741 298.226L155.217 351.615L334.87 349.089L369.695 298.226H203.741Z" fill="#231F20"/>
<path d="M357.001 305.562L331.911 341.734H169.865L207.762 307.077L357.001 305.562Z" fill="white"/>
<path d="M331.911 342.744H169.865C169.672 342.747 169.482 342.684 169.322 342.564C169.163 342.444 169.042 342.274 168.976 342.075C168.911 341.877 168.904 341.662 168.956 341.459C169.009 341.257 169.119 341.077 169.27 340.945L207.147 306.289C207.319 306.148 207.528 306.07 207.743 306.067L356.982 304.551C357.156 304.544 357.327 304.592 357.476 304.689C357.625 304.786 357.744 304.927 357.82 305.097C357.91 305.258 357.958 305.443 357.958 305.632C357.958 305.821 357.91 306.006 357.82 306.168L332.73 342.34C332.635 342.475 332.51 342.583 332.367 342.654C332.224 342.724 332.067 342.755 331.911 342.744ZM172.415 340.723H331.445L355.121 306.592L208.078 308.067L172.415 340.723Z" fill="#D1D3D4"/>
<path d="M473.147 364.73H0.840332V380.957H473.147V364.73Z" fill="white"/>
<path d="M473.165 381.886H0.840519C0.616682 381.881 0.403653 381.781 0.247088 381.607C0.0905233 381.433 0.0028768 381.2 0.00292971 380.957V364.791C0.0028768 364.547 0.0905233 364.314 0.247088 364.14C0.403653 363.967 0.616682 363.866 0.840519 363.861H473.165C473.389 363.866 473.602 363.967 473.759 364.14C473.915 364.314 474.003 364.547 474.003 364.791V380.957C474.003 381.2 473.915 381.433 473.759 381.607C473.602 381.781 473.389 381.881 473.165 381.886ZM1.69672 380.027H472.309V365.639H1.69672V380.027Z" fill="#231F20"/>
<path d="M289.994 332.781C296.453 334.54 304.885 327.568 308.291 322.435C308.765 321.584 309.44 320.887 310.245 320.414C310.796 320.212 311.378 320.13 311.958 320.172C315.63 320.109 319.288 319.669 322.883 318.858C326.383 318.05 330.329 316.474 331.52 312.796C332.711 309.118 330.813 305.097 328.095 302.692C321.916 297.034 313 297.337 305.052 295.761C301.813 294.792 298.444 294.436 295.094 294.71C291.975 295.449 289.244 297.479 287.481 300.368C285.54 302.765 283.326 304.883 280.892 306.673C277.356 309.691 273.869 312.749 270.432 315.847C276.016 320.96 281.6 327.972 287.891 332.014C288.557 332.372 289.264 332.63 289.994 332.781Z" fill="white"/>
<path d="M292.153 334.115C291.344 334.12 290.537 334.011 289.752 333.792C288.935 333.572 288.152 333.225 287.426 332.761C283.13 329.71 279.149 326.167 275.551 322.193C273.578 320.172 271.828 318.272 269.836 316.555C269.731 316.46 269.646 316.341 269.588 316.206C269.53 316.072 269.5 315.925 269.5 315.777C269.5 315.628 269.53 315.481 269.588 315.347C269.646 315.212 269.731 315.093 269.836 314.999C273.317 311.866 276.835 308.775 280.316 305.824L281.674 304.693C283.553 303.273 285.255 301.596 286.737 299.701C288.639 296.595 291.585 294.419 294.945 293.639C297.789 293.298 300.667 293.531 303.433 294.326L305.294 294.69C307.156 295.054 309.147 295.336 311.064 295.599C317.356 296.448 323.851 297.337 328.765 301.843C331.669 304.47 333.94 308.997 332.488 313.16C331.315 316.454 328.281 318.616 323.181 319.788C319.507 320.621 315.767 321.068 312.014 321.122C311.549 321.085 311.083 321.139 310.636 321.283C310.05 321.663 309.563 322.198 309.222 322.839L309.073 323.062C305.797 327.871 298.612 334.115 292.153 334.115ZM290.292 331.832C296.099 333.428 304.215 326.941 307.621 321.889L307.751 321.687C308.278 320.726 309.046 319.948 309.966 319.444C310.617 319.195 311.306 319.085 311.995 319.121C315.617 319.066 319.226 318.633 322.772 317.828C327.202 316.817 329.808 315.059 330.72 312.452C331.874 309.239 329.957 305.582 327.574 303.399C323.07 299.358 316.853 298.448 310.822 297.62C308.961 297.357 306.876 297.074 304.959 296.69L303.098 296.327C300.537 295.597 297.873 295.392 295.243 295.72C292.345 296.405 289.812 298.3 288.189 300.995C286.61 303.038 284.789 304.846 282.772 306.37L281.451 307.481C278.268 310.169 275.048 312.998 271.865 315.847C273.522 317.403 275.178 319.121 276.798 320.778C280.304 324.647 284.179 328.102 288.356 331.084C288.938 331.45 289.565 331.722 290.218 331.892L290.292 331.832Z" fill="#231F20"/>
<path d="M32.6874 391.667C32.6874 391.667 25.1305 218.163 65.9303 194.682C78.6244 187.366 181.033 182.375 205.212 204.462C229.39 226.549 231.4 316.332 231.4 316.332L276.37 304.773L294.368 340.177C294.368 340.177 228.125 373.237 215.449 379.643C193.783 390.576 32.6874 391.667 32.6874 391.667Z" fill="#FF5C64"/>
<path d="M169.866 316.757C169.743 316.744 169.624 316.705 169.516 316.642C169.407 316.58 169.311 316.494 169.233 316.391C169.155 316.287 169.097 316.168 169.062 316.04C169.027 315.912 169.015 315.778 169.028 315.645L177.311 217.072C177.333 216.804 177.452 216.556 177.643 216.384C177.833 216.211 178.078 216.128 178.325 216.152C178.572 216.176 178.8 216.306 178.959 216.513C179.118 216.719 179.194 216.986 179.172 217.254L170.796 315.928C170.757 316.163 170.641 316.376 170.471 316.528C170.3 316.679 170.086 316.761 169.866 316.757Z" fill="#231F20"/>
<path d="M143.938 223.72H51.0211C44.2456 223.719 37.5482 225.29 31.3774 228.328C25.2065 231.365 19.7048 235.799 15.2406 241.333C10.7765 246.866 7.45292 253.372 5.49264 260.413C3.53235 267.454 2.98056 274.869 3.87423 282.161L18.8764 404.64H207.762L191.01 268.541C189.491 256.149 183.883 244.777 175.226 236.534C166.569 228.291 155.452 223.738 143.938 223.72Z" fill="#231F20"/>
<path d="M241.377 346.785C247.37 346.785 247.37 336.682 241.377 336.682C235.383 336.682 235.383 346.785 241.377 346.785Z" fill="#FF5C64"/>
<path d="M242.717 346.785C248.711 346.785 248.729 336.682 242.717 336.682C236.705 336.682 236.724 346.785 242.717 346.785Z" fill="#FF5C64"/>
<path d="M473.165 380.957L530.084 299.479V285.152L473.165 364.73V380.957Z" fill="white"/>
<path d="M473.165 381.886H472.886C472.716 381.829 472.568 381.714 472.463 381.557C472.359 381.4 472.305 381.211 472.309 381.017V364.851C472.305 364.644 472.372 364.443 472.495 364.285L529.414 284.707C529.516 284.552 529.662 284.437 529.83 284.378C529.998 284.32 530.178 284.322 530.345 284.384C530.515 284.448 530.662 284.568 530.765 284.727C530.869 284.887 530.924 285.078 530.922 285.273V299.6C530.923 299.804 530.864 300.002 530.754 300.166L473.928 381.523C473.839 381.647 473.723 381.746 473.589 381.809C473.456 381.873 473.31 381.899 473.165 381.886ZM474.003 365.033V378.209L529.228 299.176V287.839L474.003 365.033Z" fill="#231F20"/>
<path d="M466.874 405.55C466.65 405.55 466.435 405.455 466.275 405.285C466.115 405.115 466.023 404.883 466.018 404.64V380.957C466.023 380.712 466.114 380.478 466.274 380.305C466.433 380.132 466.648 380.032 466.874 380.027C467.098 380.032 467.311 380.133 467.467 380.306C467.624 380.48 467.712 380.714 467.712 380.957V404.64C467.712 404.881 467.623 405.113 467.466 405.283C467.309 405.454 467.096 405.55 466.874 405.55Z" fill="#231F20"/>
<path d="M229.818 28.6748H528.558V202.199C528.558 204.101 527.862 205.926 526.622 207.271C525.383 208.617 523.703 209.373 521.95 209.373H236.426C234.673 209.373 232.993 208.617 231.753 207.271C230.514 205.926 229.818 204.101 229.818 202.199V28.6748Z" fill="white"/>
<path d="M521.932 210.302H236.426C234.451 210.302 232.558 209.451 231.161 207.935C229.765 206.419 228.981 204.363 228.981 202.219V28.6748C228.981 28.4283 229.071 28.1918 229.231 28.0175C229.392 27.8432 229.61 27.7452 229.837 27.7452H528.577C528.802 27.7504 529.017 27.85 529.177 28.0232C529.336 28.1964 529.428 28.4299 529.433 28.6748V202.199C529.435 203.267 529.243 204.325 528.866 205.312C528.49 206.299 527.936 207.196 527.239 207.949C526.541 208.703 525.713 209.299 524.802 209.702C523.891 210.106 522.916 210.31 521.932 210.302ZM230.656 29.6043V202.199C230.661 203.857 231.271 205.445 232.352 206.615C233.434 207.786 234.899 208.443 236.426 208.443H521.932C523.459 208.443 524.924 207.786 526.005 206.615C527.087 205.445 527.697 203.857 527.702 202.199V29.6043H230.656Z" fill="#231F20"/>
<path d="M236.426 0.88916H521.932C523.684 0.88916 525.365 1.64497 526.604 2.99031C527.843 4.33565 528.539 6.16032 528.539 8.06292V29.1598H229.818V8.08313C229.816 7.13936 229.985 6.20433 230.316 5.33164C230.647 4.45895 231.133 3.66573 231.747 2.99745C232.361 2.32916 233.09 1.79894 233.893 1.43716C234.696 1.07538 235.556 0.889156 236.426 0.88916Z" fill="white"/>
<path d="M528.558 30.0692H229.818C229.707 30.0718 229.596 30.0503 229.492 30.0058C229.388 29.9613 229.294 29.8948 229.214 29.8101C229.134 29.7254 229.071 29.6242 229.027 29.5125C228.984 29.4009 228.962 29.2809 228.962 29.1598V8.08311C228.962 5.93933 229.746 3.88336 231.143 2.36749C232.539 0.851612 234.433 0 236.407 0H521.931C523.906 0 525.8 0.851612 527.196 2.36749C528.592 3.88336 529.377 5.93933 529.377 8.08311V29.1598C529.372 29.396 529.285 29.6214 529.133 29.7903C528.981 29.9592 528.775 30.0589 528.558 30.0692ZM230.749 28.2302H527.702V8.02248C527.702 6.36106 527.094 4.76768 526.012 3.59288C524.929 2.41807 523.462 1.75807 521.931 1.75807H236.426C234.895 1.75807 233.428 2.41807 232.346 3.59288C231.264 4.76768 230.656 6.36106 230.656 8.02248L230.749 28.2302Z" fill="#231F20"/>
<path d="M386.261 51.3883H244.15V152.447H386.261V51.3883Z" fill="white"/>
<path d="M386.242 153.478H244.15C243.903 153.478 243.667 153.372 243.492 153.182C243.318 152.993 243.219 152.736 243.219 152.468V51.4288C243.219 51.1608 243.318 50.9038 243.492 50.7143C243.667 50.5248 243.903 50.4184 244.15 50.4184H386.242C386.489 50.4184 386.726 50.5248 386.9 50.7143C387.075 50.9038 387.173 51.1608 387.173 51.4288V152.468C387.173 152.736 387.075 152.993 386.9 153.182C386.726 153.372 386.489 153.478 386.242 153.478ZM245.081 151.457H385.312V52.4392H245.081V151.457Z" fill="#D1D3D4"/>
<path d="M261.032 93.9257C263.88 93.9257 266.188 91.4196 266.188 88.3281C266.188 85.2367 263.88 82.7306 261.032 82.7306C258.185 82.7306 255.876 85.2367 255.876 88.3281C255.876 91.4196 258.185 93.9257 261.032 93.9257Z" fill="white"/>
<path d="M261.032 94.9159C259.828 94.9159 258.65 94.5278 257.649 93.8008C256.648 93.0738 255.867 92.0406 255.407 90.832C254.947 89.6234 254.828 88.2937 255.064 87.0114C255.3 85.729 255.882 84.5516 256.735 83.6283C257.588 82.7049 258.674 82.0772 259.856 81.8245C261.038 81.5718 262.263 81.7056 263.374 82.2088C264.486 82.7121 265.435 83.5622 266.102 84.6515C266.769 85.7408 267.122 87.0204 267.119 88.3282C267.114 90.0772 266.47 91.7527 265.329 92.9876C264.189 94.2225 262.643 94.9159 261.032 94.9159ZM261.032 83.741C260.197 83.741 259.38 84.01 258.685 84.5141C257.99 85.0181 257.448 85.7345 257.129 86.5727C256.809 87.4109 256.725 88.3333 256.888 89.2231C257.051 90.1129 257.454 90.9303 258.045 91.5718C258.635 92.2133 259.388 92.6502 260.208 92.8272C261.028 93.0042 261.877 92.9133 262.649 92.5661C263.421 92.219 264.081 91.631 264.545 90.8766C265.01 90.1223 265.257 89.2354 265.257 88.3282C265.257 87.1116 264.812 85.9448 264.02 85.0845C263.228 84.2243 262.153 83.741 261.032 83.741Z" fill="#D1D3D4"/>
<path d="M369.695 89.3385H277.002C276.757 89.3334 276.523 89.2252 276.349 89.0369C276.176 88.8485 276.076 88.5945 276.072 88.3281C276.072 88.0602 276.17 87.8032 276.344 87.6137C276.519 87.4242 276.755 87.3177 277.002 87.3177H369.695C369.942 87.3177 370.179 87.4242 370.353 87.6137C370.528 87.8032 370.626 88.0602 370.626 88.3281C370.626 88.5961 370.528 88.8531 370.353 89.0426C370.179 89.2321 369.942 89.3385 369.695 89.3385Z" fill="#D1D3D4"/>
<path d="M261.032 113.729C263.88 113.729 266.188 111.223 266.188 108.132C266.188 105.04 263.88 102.534 261.032 102.534C258.185 102.534 255.876 105.04 255.876 108.132C255.876 111.223 258.185 113.729 261.032 113.729Z" fill="white"/>
<path d="M261.032 114.719C259.828 114.719 258.65 114.331 257.649 113.604C256.648 112.877 255.867 111.844 255.407 110.636C254.947 109.427 254.828 108.097 255.064 106.815C255.3 105.533 255.882 104.355 256.735 103.432C257.588 102.509 258.674 101.881 259.856 101.628C261.038 101.375 262.263 101.509 263.374 102.012C264.486 102.516 265.435 103.366 266.102 104.455C266.769 105.544 267.122 106.824 267.119 108.132C267.114 109.881 266.47 111.556 265.329 112.791C264.189 114.026 262.643 114.719 261.032 114.719ZM261.032 103.545C260.197 103.545 259.38 103.814 258.685 104.318C257.99 104.822 257.448 105.538 257.129 106.376C256.809 107.215 256.725 108.137 256.888 109.027C257.051 109.916 257.454 110.734 258.045 111.375C258.635 112.017 259.388 112.454 260.208 112.631C261.028 112.808 261.877 112.717 262.649 112.37C263.421 112.023 264.081 111.435 264.545 110.68C265.01 109.926 265.257 109.039 265.257 108.132C265.257 106.915 264.812 105.748 264.02 104.888C263.228 104.028 262.153 103.545 261.032 103.545Z" fill="#D1D3D4"/>
<path d="M347.564 109.142H277.058C276.811 109.142 276.575 109.036 276.4 108.846C276.226 108.657 276.127 108.4 276.127 108.132C276.127 107.864 276.226 107.607 276.4 107.417C276.575 107.228 276.811 107.121 277.058 107.121H347.564C347.811 107.121 348.048 107.228 348.222 107.417C348.397 107.607 348.495 107.864 348.495 108.132C348.495 108.4 348.397 108.657 348.222 108.846C348.048 109.036 347.811 109.142 347.564 109.142Z" fill="#D1D3D4"/>
<path d="M261.032 133.533C263.88 133.533 266.188 131.027 266.188 127.935C266.188 124.844 263.88 122.338 261.032 122.338C258.185 122.338 255.876 124.844 255.876 127.935C255.876 131.027 258.185 133.533 261.032 133.533Z" fill="white"/>
<path d="M261.032 134.543C259.828 134.543 258.652 134.156 257.651 133.43C256.65 132.704 255.87 131.672 255.409 130.464C254.948 129.257 254.828 127.928 255.063 126.646C255.298 125.364 255.877 124.187 256.728 123.263C257.58 122.339 258.664 121.709 259.845 121.454C261.026 121.199 262.249 121.33 263.361 121.83C264.474 122.331 265.424 123.178 266.093 124.264C266.762 125.351 267.119 126.628 267.119 127.935C267.114 129.686 266.471 131.364 265.331 132.602C264.19 133.84 262.645 134.538 261.032 134.543ZM261.032 123.348C260.197 123.348 259.38 123.617 258.685 124.121C257.99 124.625 257.449 125.342 257.129 126.18C256.809 127.018 256.725 127.94 256.888 128.83C257.051 129.72 257.454 130.537 258.045 131.179C258.636 131.821 259.388 132.257 260.208 132.434C261.028 132.611 261.877 132.521 262.649 132.173C263.421 131.826 264.081 131.238 264.545 130.484C265.01 129.73 265.257 128.843 265.257 127.935C265.257 126.719 264.812 125.552 264.02 124.692C263.228 123.832 262.153 123.348 261.032 123.348Z" fill="#D1D3D4"/>
<path d="M359.793 128.946H277.058C276.811 128.946 276.575 128.839 276.4 128.65C276.226 128.46 276.127 128.203 276.127 127.935C276.127 127.667 276.226 127.41 276.4 127.221C276.575 127.031 276.811 126.925 277.058 126.925H359.793C360.04 126.925 360.277 127.031 360.451 127.221C360.626 127.41 360.724 127.667 360.724 127.935C360.724 128.203 360.626 128.46 360.451 128.65C360.277 128.839 360.04 128.946 359.793 128.946Z" fill="#D1D3D4"/>
<path d="M304.885 65.6954H255.876V73.9402H304.885V65.6954Z" fill="#D1D3D4"/>
<path d="M348.718 147.153C346.857 144.627 344.698 141.394 342.781 138.908C341.962 126.784 339.449 119.933 338.016 119.064C335.968 117.832 333.623 119.771 331.464 120.741C331.078 120.947 330.642 121.018 330.217 120.944C329.894 120.812 329.602 120.605 329.361 120.337C324.373 115.548 319.943 106.515 316.667 105.525C314.47 104.858 311.511 109.688 316.108 115.184C318.677 118.256 323.833 123.934 323.926 124.298C324.019 124.662 321.674 132.26 321.339 135.251C320.724 140.727 335.615 158.328 338.686 162.47L348.718 147.153Z" fill="white"/>
<path d="M338.686 163.481C338.548 163.483 338.411 163.451 338.285 163.388C338.16 163.325 338.049 163.232 337.96 163.117C337.439 162.41 336.601 161.339 335.54 160.005C327.946 150.386 319.887 139.797 320.427 135.129C320.845 132.617 321.424 130.139 322.158 127.713C322.493 126.521 322.846 125.187 322.977 124.581C322.455 123.934 320.966 122.237 319.626 120.721C318.286 119.206 316.536 117.205 315.42 115.871C312.2 112.032 312.311 108.435 313.558 106.333C313.867 105.672 314.368 105.139 314.984 104.818C315.6 104.496 316.296 104.404 316.965 104.555C319.105 105.181 321.357 108.354 323.982 112.032C325.789 114.74 327.813 117.269 330.031 119.59C330.172 119.745 330.335 119.875 330.515 119.973C330.742 119.968 330.965 119.906 331.166 119.792C331.613 119.59 332.078 119.347 332.562 119.084C334.424 118.094 336.49 117.064 338.518 118.175C340.547 119.286 342.93 126.723 343.73 138.504C344.735 139.818 345.796 141.313 346.838 142.808C347.881 144.304 348.7 145.375 349.5 146.506C349.625 146.683 349.693 146.9 349.693 147.123C349.693 147.346 349.625 147.562 349.5 147.739L339.468 163.056C339.388 163.187 339.28 163.293 339.154 163.367C339.027 163.441 338.886 163.48 338.742 163.481H338.686ZM316.257 106.475C316.009 106.515 315.774 106.618 315.57 106.776C315.366 106.934 315.2 107.143 315.085 107.384C314.303 108.799 314.266 111.426 316.797 114.517C317.914 115.851 319.514 117.67 320.985 119.327C324.708 123.57 324.708 123.651 324.819 124.015C324.931 124.379 324.819 124.884 323.944 128.279C323.252 130.604 322.693 132.972 322.269 135.372C321.804 139.413 332.413 152.953 336.955 158.692L338.63 160.813L347.546 147.193C346.82 146.203 346.057 145.173 345.312 144.041C344.214 142.485 343.097 140.909 342.055 139.555C341.923 139.393 341.851 139.185 341.85 138.969C341.031 126.844 338.481 120.499 337.551 119.953C336.62 119.408 334.908 119.953 333.325 120.903C332.823 121.166 332.32 121.449 331.818 121.671C331.242 121.982 330.584 122.068 329.956 121.913C329.478 121.754 329.044 121.469 328.691 121.085C326.389 118.687 324.29 116.07 322.418 113.265C320.203 110.173 317.932 106.96 316.369 106.495L316.257 106.475Z" fill="#231F20"/>
<path d="M347.36 140.949C347.36 140.949 379.728 172.413 383.06 171.887C388.644 164.067 408.504 131.674 408.504 131.674C413.548 124.46 428.085 118.882 448.875 121.974C448.875 121.974 494.999 123.005 503.933 138.928C509.07 148.103 513.444 172.534 516.292 208.645H362.418C349.873 188.053 328.561 160.591 328.561 160.591L347.36 140.949Z" fill="#FF5C64"/>
<path d="M441.579 129.451L442.603 197.794L470.299 125.712L441.579 129.451Z" fill="#231F20"/>
<path d="M442.603 198.723H442.417C442.206 198.677 442.017 198.553 441.882 198.372C441.746 198.192 441.672 197.966 441.672 197.733L440.648 129.39C440.642 129.141 440.723 128.898 440.875 128.711C441.027 128.523 441.239 128.405 441.467 128.38L470.206 124.722C470.364 124.697 470.526 124.719 470.674 124.787C470.822 124.855 470.95 124.965 471.043 125.106C471.146 125.247 471.212 125.415 471.235 125.592C471.257 125.77 471.236 125.951 471.174 126.117L443.477 198.198C443.393 198.367 443.265 198.506 443.111 198.599C442.956 198.692 442.779 198.735 442.603 198.723ZM442.51 130.279L443.459 192.924L468.81 126.905L442.51 130.279Z" fill="#231F20"/>
<path d="M426.596 54.6822L426.726 54.4195C429.592 49.2463 436.032 44.0529 441.225 41.6078C453.436 35.788 468.828 39.0616 478.731 48.5189C482.456 51.8904 485.069 56.4868 486.176 61.6135C487.33 66.4634 490.066 71.4142 490.922 76.3652C491.555 80.043 490.327 83.8016 490.438 87.5603C490.68 95.6434 496.953 101.888 503.319 106.03C494.012 115.265 480.759 118.155 468.158 118.963C446.104 120.408 424.015 116.829 403.311 108.455C406.493 105.749 409.07 102.297 410.849 98.3561C412.628 94.4157 413.564 90.0895 413.585 85.7011C413.585 83.0135 413.287 80.1036 414.683 77.9009C416.079 75.6983 418.145 75.1325 419.82 73.6371C425.181 68.9085 423.506 60.6031 426.596 54.6822Z" fill="white"/>
<path d="M458.796 120.277C439.767 120.274 420.89 116.592 403.05 109.405C402.894 109.339 402.756 109.23 402.652 109.088C402.547 108.946 402.479 108.776 402.454 108.597C402.434 108.419 402.455 108.238 402.517 108.072C402.579 107.905 402.679 107.759 402.808 107.647C405.875 105.034 408.36 101.704 410.077 97.9042C411.795 94.1046 412.701 89.9335 412.729 85.7011V84.5493C412.445 82.0512 412.895 79.5196 414.013 77.3149C414.935 76.0458 416.096 75.0054 417.419 74.2635C418.065 73.8398 418.687 73.3742 419.281 72.8692C422.166 70.2826 422.798 66.5037 423.468 62.4824C423.809 59.5968 424.582 56.7913 425.758 54.177L426.558 54.6822L425.795 54.1164V53.8941C428.792 48.4784 435.567 43.1638 440.686 40.6782C452.877 34.8584 468.717 37.7683 479.177 47.7712C483.062 51.2661 485.803 56.0287 486.995 61.3508C487.572 63.5724 488.293 65.7469 489.154 67.8577C490.273 70.5308 491.14 73.3202 491.741 76.1833C492.018 78.4411 491.968 80.7321 491.592 82.9731C491.369 84.4763 491.264 85.9973 491.276 87.5198C491.499 95.6029 498.163 101.665 503.709 105.161C503.837 105.238 503.945 105.349 504.023 105.483C504.101 105.618 504.147 105.771 504.156 105.929C504.172 106.086 504.154 106.245 504.102 106.393C504.05 106.54 503.967 106.672 503.858 106.778C495.873 114.699 484.519 118.902 468.121 119.973C465.143 120.176 461.96 120.277 458.796 120.277ZM405.228 108.152C425.387 115.99 446.803 119.304 468.177 117.892C483.496 116.882 494.235 113.123 501.848 106.111C496.152 102.191 489.824 96.0071 489.582 87.5198C489.571 85.8893 489.683 84.2605 489.917 82.6497C490.258 80.6502 490.315 78.6056 490.085 76.5874C489.495 73.8669 488.666 71.2143 487.609 68.666C486.71 66.4707 485.958 64.2084 485.357 61.8964C484.268 56.9625 481.726 52.5493 478.116 49.3271C468.177 39.8295 453.156 37.061 441.598 42.5778C436.721 44.9219 430.318 49.9334 427.526 54.9853L427.433 55.1672L426.595 54.7226L427.396 55.248C426.32 57.6602 425.616 60.2474 425.311 62.9068C424.622 67.0898 423.878 71.4344 420.472 74.4858C419.806 75.0593 419.103 75.5793 418.368 76.0418C417.277 76.6579 416.309 77.5027 415.521 78.5274C414.641 80.3953 414.31 82.5111 414.571 84.5897V85.7819C414.533 90.0053 413.682 94.1732 412.073 98.0186C410.464 101.864 408.132 105.302 405.228 108.112V108.152Z" fill="#231F20"/>
<path d="M435.176 86.7115C434.734 85.0771 433.979 83.5623 432.961 82.2658C432.449 81.6225 431.764 81.1707 431.002 80.9748C430.24 80.7789 429.441 80.8488 428.717 81.1746C428.19 81.485 427.743 81.9347 427.418 82.4821C427.092 83.0295 426.899 83.657 426.856 84.3068C426.786 85.5908 426.983 86.8754 427.433 88.0654C428.087 90.3528 429.243 92.4333 430.802 94.1277C431.577 94.9665 432.502 95.6236 433.52 96.0581C434.538 96.4926 435.628 96.6953 436.721 96.6537" fill="white"/>
<path d="M436.349 97.6844C434.054 97.6218 431.866 96.6182 430.225 94.8755C428.572 93.0718 427.335 90.8701 426.614 88.4494C426.137 87.1116 425.927 85.6787 426 84.2462C426.041 83.4188 426.272 82.6156 426.672 81.9097C427.072 81.2039 427.628 80.6178 428.289 80.2046C429.194 79.7951 430.193 79.6996 431.149 79.9312C432.106 80.1627 432.973 80.71 433.631 81.4979C434.744 82.8884 435.569 84.5215 436.051 86.2872C436.096 86.4118 436.117 86.5449 436.114 86.6787C436.111 86.8124 436.084 86.9442 436.034 87.0664C435.984 87.1886 435.912 87.2988 435.822 87.3905C435.732 87.4822 435.626 87.5537 435.511 87.6007C435.276 87.6871 435.02 87.6724 434.795 87.5596C434.57 87.4468 434.393 87.2445 434.301 86.9945C433.899 85.5137 433.221 84.1382 432.31 82.9529C431.921 82.4775 431.41 82.139 430.843 81.9806C430.276 81.8222 429.679 81.8511 429.127 82.0638C428.759 82.314 428.451 82.6549 428.228 83.0587C428.005 83.4625 427.873 83.9179 427.843 84.3876C427.804 85.528 427.988 86.6643 428.382 87.7219C428.996 89.839 430.068 91.7654 431.509 93.3397C432.182 94.0925 432.99 94.6872 433.884 95.087C434.777 95.4867 435.736 95.683 436.702 95.6636C436.945 95.652 437.183 95.7419 437.366 95.9149C437.55 96.0878 437.665 96.3306 437.689 96.5931C437.699 96.7259 437.685 96.8596 437.647 96.9864C437.61 97.1132 437.549 97.2307 437.47 97.3321C437.39 97.4336 437.293 97.5169 437.184 97.5774C437.074 97.6378 436.955 97.6742 436.833 97.6844H436.349Z" fill="#231F20"/>
<path d="M443.422 109.344L441.56 129.552C441.56 129.552 442.454 141.01 454.031 138.726C457.453 138.019 460.687 136.493 463.497 134.26C466.308 132.026 468.625 129.141 470.28 125.814L472.067 90.7329C472.067 89.2375 467.135 83.0943 468.475 70.323C464.504 69.8787 460.661 68.5426 457.191 66.3997C453.72 64.2567 450.698 61.3537 448.317 57.8751C448.317 57.8751 442.938 65.0892 440.686 67.3121C438.885 68.9661 437.284 70.8604 435.921 72.9501C432.347 78.8103 431.975 86.8934 432.831 93.5822C433.52 99.1595 436.982 109.465 443.422 109.344Z" fill="white"/>
<path d="M451.165 139.939C448.853 140.019 446.584 139.25 444.725 137.756C442.445 135.693 440.985 132.754 440.648 129.552L442.417 110.294C436.219 109.445 432.682 99.887 431.882 93.7236C431.23 88.7929 430.802 79.4569 435.12 72.3842C436.521 70.2228 438.172 68.2667 440.034 66.5643C442.212 64.4021 447.479 57.3092 447.479 57.2486C447.578 57.129 447.698 57.0331 447.833 56.967C447.968 56.9008 448.113 56.866 448.261 56.8646C448.407 56.8777 448.547 56.9262 448.673 57.0067C448.799 57.0872 448.906 57.1975 448.987 57.3294C451.306 60.6905 454.239 63.4965 457.601 65.5722C460.964 67.6479 464.684 68.9487 468.531 69.3934C468.779 69.4296 469.005 69.5668 469.164 69.7774C469.314 69.9907 469.387 70.257 469.368 70.5251C468.576 76.6585 469.558 82.9078 472.179 88.4089C472.599 89.1534 472.865 89.9874 472.961 90.8541L471.211 125.854C471.237 125.98 471.237 126.111 471.211 126.238C469.502 129.716 467.093 132.731 464.164 135.061C461.236 137.391 457.861 138.975 454.292 139.696C453.259 139.887 452.212 139.968 451.165 139.939ZM442.51 129.552C442.631 130.966 443.044 132.332 443.72 133.549C444.395 134.765 445.314 135.8 446.409 136.577C447.504 137.354 448.746 137.853 450.044 138.036C451.341 138.219 452.659 138.082 453.901 137.635C457.137 136.958 460.197 135.523 462.869 133.428C465.54 131.334 467.759 128.632 469.368 125.51C469.517 122.6 471.081 90.9753 471.099 90.7328C470.928 90.2354 470.729 89.7496 470.504 89.2779C467.881 83.731 466.807 77.4731 467.414 71.2728C459.885 70.1763 453.027 65.998 448.243 59.5927C446.66 61.6134 443.068 66.3421 441.281 68.1203C439.557 69.6778 438.019 71.4632 436.702 73.435C432.738 79.9621 433.147 88.7323 433.762 93.3801C434.376 98.0278 437.484 108.273 443.347 108.273H443.478C443.604 108.27 443.73 108.297 443.846 108.353C443.962 108.409 444.065 108.492 444.148 108.597C444.242 108.698 444.312 108.823 444.354 108.96C444.396 109.096 444.408 109.242 444.39 109.385L442.528 129.592L442.51 129.552Z" fill="#231F20"/>
<path d="M451.165 74.7687C451.165 74.7687 444.371 83.842 445.581 85.6607C446.79 87.4794 450.923 86.7721 450.923 86.7721" fill="white"/>
<path d="M449.247 87.924C448.457 88.01 447.659 87.9062 446.909 87.6198C446.16 87.3334 445.477 86.8716 444.911 86.2669C443.477 84.2461 447.144 78.5476 450.495 74.1423C450.648 73.9341 450.871 73.8003 451.115 73.77C451.359 73.7397 451.605 73.8154 451.797 73.9806C451.988 74.1538 452.108 74.4009 452.132 74.6691C452.157 74.9373 452.083 75.2052 451.928 75.4154C448.782 79.6186 446.232 84.1451 446.455 85.1353C447.126 86.0648 449.731 85.984 450.867 85.7819C450.989 85.7607 451.114 85.7658 451.234 85.797C451.355 85.8282 451.468 85.8847 451.569 85.9636C451.669 86.0424 451.754 86.1419 451.819 86.2563C451.883 86.3708 451.927 86.498 451.946 86.6307C451.966 86.7633 451.961 86.8989 451.933 87.0296C451.904 87.1603 451.852 87.2836 451.779 87.3925C451.706 87.5013 451.615 87.5936 451.509 87.6639C451.404 87.7343 451.287 87.7815 451.165 87.8027C450.529 87.8873 449.888 87.9278 449.247 87.924Z" fill="#231F20"/>
<path d="M443.645 77.1923C443.787 76.0418 443.448 75.0433 442.887 74.9619C442.327 74.8805 441.758 75.7471 441.616 76.8975C441.474 78.048 441.814 79.0466 442.374 79.128C442.934 79.2094 443.504 78.3427 443.645 77.1923Z" fill="#231F20"/>
<path d="M460.681 76.5895C460.693 75.4289 460.245 74.4822 459.68 74.475C459.114 74.4678 458.646 75.4029 458.633 76.5635C458.621 77.7241 459.069 78.6707 459.634 78.6779C460.2 78.6851 460.668 77.7501 460.681 76.5895Z" fill="#231F20"/>
<path d="M466.669 83.0337C467.08 81.309 467.787 79.6841 468.754 78.2445C469.301 77.4174 470.023 76.744 470.858 76.2801C471.693 75.8162 472.618 75.5752 473.556 75.577C474.133 75.6069 474.697 75.7767 475.206 76.0739C475.715 76.3711 476.156 76.7883 476.497 77.2947C476.912 78.0235 477.167 78.8464 477.241 79.6994C477.856 84.1855 476.478 90.0054 472.607 92.3091C471.953 92.7603 471.194 93 470.42 93C469.645 93 468.886 92.7603 468.233 92.3091" fill="white"/>
<path d="M470.206 94.047C469.308 94.0677 468.43 93.7618 467.712 93.178C467.607 93.1006 467.517 93.0007 467.449 92.8843C467.381 92.7679 467.335 92.6376 467.315 92.5014C467.295 92.3652 467.301 92.226 467.332 92.0924C467.364 91.9587 467.42 91.8334 467.497 91.7242C467.575 91.6151 467.672 91.5243 467.784 91.4576C467.895 91.3908 468.017 91.3495 468.144 91.3361C468.27 91.3228 468.398 91.3376 468.519 91.3799C468.64 91.4221 468.751 91.4908 468.847 91.5816C469.365 91.8936 469.952 92.0437 470.543 92.0152C471.135 91.9866 471.707 91.7806 472.197 91.42C475.697 89.3992 476.944 84.0239 476.385 79.8409C476.324 79.1284 476.121 78.4388 475.79 77.8201C475.531 77.4429 475.197 77.1329 474.814 76.9127C474.431 76.6925 474.008 76.5676 473.575 76.547C472.783 76.5506 472.003 76.7597 471.3 77.1569C470.598 77.5542 469.993 78.128 469.536 78.8305C468.673 80.1781 468.042 81.6844 467.675 83.2762C467.601 83.5305 467.44 83.744 467.225 83.8721C467.01 84.0002 466.757 84.0329 466.52 83.9633C466.401 83.9263 466.29 83.8637 466.193 83.7793C466.096 83.6948 466.016 83.5902 465.957 83.4716C465.898 83.3529 465.861 83.2227 465.849 83.0885C465.838 82.9543 465.851 82.8189 465.888 82.6902C466.334 80.8468 467.098 79.1119 468.14 77.5776C468.78 76.6245 469.62 75.8519 470.592 75.3245C471.564 74.797 472.638 74.5303 473.724 74.5465C474.455 74.5652 475.172 74.7685 475.818 75.1403C476.464 75.5121 477.022 76.0422 477.446 76.6885C477.932 77.5414 478.237 78.5008 478.34 79.4974C478.991 84.3876 477.446 90.6319 473.221 93.1578C472.304 93.7323 471.265 94.0386 470.206 94.047Z" fill="#231F20"/>
<path d="M408.429 203.088C408.189 203.083 407.959 202.977 407.789 202.792C407.619 202.608 407.522 202.359 407.517 202.098C407.517 200.602 414.534 159.944 415.93 151.801C415.977 151.533 416.12 151.296 416.328 151.142C416.535 150.989 416.791 150.931 417.038 150.982C417.284 151.033 417.503 151.189 417.644 151.414C417.785 151.639 417.838 151.917 417.791 152.185C414.478 171.443 409.49 200.683 409.416 202.118C409.411 202.253 409.381 202.385 409.329 202.507C409.277 202.629 409.202 202.738 409.11 202.828C409.018 202.919 408.911 202.988 408.794 203.033C408.677 203.077 408.553 203.096 408.429 203.088Z" fill="#231F20"/>
<path d="M483.086 206.281C482.839 206.281 482.603 206.174 482.428 205.985C482.254 205.795 482.156 205.538 482.156 205.27V150.022C482.156 149.754 482.254 149.497 482.428 149.308C482.603 149.118 482.839 149.012 483.086 149.012C483.333 149.012 483.57 149.118 483.744 149.308C483.919 149.497 484.017 149.754 484.017 150.022V205.27C484.017 205.538 483.919 205.795 483.744 205.985C483.57 206.174 483.333 206.281 483.086 206.281Z" fill="#231F20"/>
<path d="M457.735 89.379L442.603 90.935C442.603 90.935 442.603 102.655 449.006 101.888C455.409 101.12 457.177 96.6133 457.735 89.379Z" fill="white"/>
<path d="M448.41 102.938C447.125 102.953 445.881 102.441 444.929 101.504C441.728 98.4118 441.672 91.2381 441.672 90.9349C441.666 90.6823 441.75 90.4369 441.906 90.249C442.061 90.0612 442.277 89.9451 442.509 89.9245L457.642 88.3888C457.778 88.3738 457.915 88.3914 458.043 88.4403C458.172 88.4892 458.289 88.5682 458.386 88.6717C458.482 88.7742 458.556 88.8974 458.604 89.0332C458.652 89.1691 458.673 89.3144 458.666 89.4598C458.238 95.8858 456.804 101.968 449.117 102.898L448.41 102.938ZM443.57 91.8443C443.682 93.7438 444.166 98.0683 446.176 99.9274C446.54 100.285 446.973 100.55 447.443 100.704C447.913 100.858 448.408 100.896 448.894 100.817C453.882 100.231 456.06 97.3812 456.711 90.4499L443.57 91.8443Z" fill="#231F20"/>
<path d="M443.422 109.344C449.485 109.481 455.51 108.264 461.123 105.767C461.123 105.767 450.681 119.448 442.603 124.52L443.422 109.344Z" fill="#231F20"/>
<path d="M442.602 125.531C442.475 125.531 442.35 125.503 442.233 125.448C442.116 125.394 442.011 125.314 441.924 125.214C441.837 125.113 441.769 124.995 441.726 124.865C441.683 124.735 441.664 124.597 441.672 124.46L442.509 109.284C442.506 109.149 442.529 109.015 442.578 108.891C442.626 108.767 442.699 108.656 442.791 108.566C442.883 108.475 442.992 108.408 443.111 108.368C443.229 108.328 443.354 108.316 443.477 108.334C449.393 108.44 455.267 107.251 460.75 104.838C460.941 104.734 461.159 104.706 461.367 104.759C461.575 104.812 461.759 104.942 461.887 105.127C462.016 105.312 462.08 105.541 462.07 105.772C462.059 106.003 461.974 106.223 461.83 106.394C461.402 106.96 451.202 120.297 443.068 125.389C442.924 125.473 442.765 125.522 442.602 125.531ZM444.315 110.375L443.626 122.621C448.898 118.372 453.723 113.506 458.014 108.112C453.571 109.576 448.958 110.338 444.315 110.375Z" fill="#231F20"/>
<path d="M435.344 170.432C435.217 170.433 435.092 170.404 434.977 170.349C434.861 170.293 434.758 170.211 434.673 170.109L422.556 156.287C422.466 156.181 422.397 156.055 422.355 155.918C422.313 155.781 422.299 155.636 422.313 155.492C422.327 155.349 422.369 155.21 422.437 155.086C422.505 154.961 422.596 154.854 422.705 154.771L433.743 146.567L422.687 137.655C422.567 137.562 422.47 137.439 422.404 137.296C422.337 137.154 422.302 136.997 422.302 136.837C422.302 136.677 422.337 136.52 422.404 136.377C422.47 136.235 422.567 136.112 422.687 136.018L436.256 125.915C436.355 125.831 436.47 125.77 436.592 125.735C436.714 125.701 436.842 125.694 436.967 125.714C437.091 125.735 437.211 125.783 437.318 125.856C437.425 125.928 437.518 126.024 437.59 126.136C437.662 126.249 437.712 126.376 437.738 126.511C437.763 126.645 437.763 126.784 437.737 126.918C437.712 127.052 437.661 127.179 437.589 127.292C437.516 127.404 437.424 127.499 437.316 127.572L424.809 136.928L435.883 145.86C436.006 145.951 436.105 146.075 436.171 146.22C436.236 146.366 436.265 146.527 436.256 146.688C436.256 146.85 436.219 147.008 436.147 147.15C436.076 147.291 435.972 147.411 435.846 147.496L424.678 155.822L436.032 168.775C436.119 168.869 436.189 168.981 436.236 169.104C436.283 169.227 436.308 169.359 436.308 169.493C436.308 169.626 436.283 169.758 436.236 169.881C436.189 170.004 436.119 170.116 436.032 170.21C435.837 170.377 435.591 170.457 435.344 170.432Z" fill="#231F20"/>
<path d="M458.498 171.362C458.336 171.359 458.177 171.311 458.037 171.222C457.897 171.134 457.78 171.008 457.698 170.857C457.635 170.743 457.593 170.617 457.576 170.486C457.559 170.354 457.566 170.221 457.598 170.093C457.629 169.964 457.683 169.844 457.758 169.74C457.833 169.635 457.926 169.547 458.033 169.483L475.585 158.106L465.981 146.183C465.883 146.068 465.811 145.929 465.772 145.778C465.734 145.627 465.728 145.468 465.757 145.314C465.786 145.157 465.848 145.01 465.939 144.884C466.029 144.757 466.145 144.656 466.278 144.587L478.284 138.524L471.341 130.441C471.254 130.347 471.185 130.235 471.137 130.112C471.09 129.989 471.066 129.857 471.066 129.724C471.066 129.59 471.09 129.458 471.137 129.335C471.185 129.212 471.254 129.1 471.341 129.006C471.518 128.82 471.755 128.716 472.002 128.716C472.249 128.716 472.486 128.82 472.663 129.006L480.462 138.201C480.561 138.319 480.633 138.462 480.672 138.616C480.711 138.771 480.715 138.933 480.685 139.09C480.659 139.246 480.598 139.392 480.507 139.515C480.416 139.639 480.298 139.736 480.164 139.797L468.14 145.86L477.67 157.6C477.761 157.712 477.828 157.844 477.867 157.987C477.905 158.131 477.914 158.281 477.893 158.429C477.872 158.576 477.821 158.715 477.744 158.838C477.666 158.96 477.565 159.062 477.446 159.136L459.038 171.22C458.872 171.317 458.686 171.366 458.498 171.362Z" fill="#231F20"/>
<path d="M334.907 139.05C334.683 139.049 334.466 138.963 334.293 138.807C332.729 137.385 331.723 135.369 331.483 133.169C330.777 134.009 329.884 134.637 328.889 134.991C327.894 135.345 326.832 135.413 325.806 135.19C325.352 135.124 324.924 134.92 324.572 134.602C324.219 134.283 323.957 133.864 323.814 133.391C322.734 129.693 329.398 121.61 330.775 120.034C330.862 119.939 330.965 119.864 331.078 119.813C331.192 119.762 331.313 119.735 331.436 119.735C331.559 119.735 331.681 119.762 331.794 119.813C331.907 119.864 332.01 119.939 332.097 120.034C332.184 120.128 332.253 120.24 332.301 120.363C332.348 120.486 332.372 120.618 332.372 120.751C332.372 120.885 332.348 121.017 332.301 121.14C332.253 121.263 332.184 121.375 332.097 121.469C328.56 125.51 325.061 131.128 325.564 132.846C325.564 132.947 325.657 133.169 326.159 133.27C328.84 133.917 330.794 131.249 331.855 129.229C332.102 128.415 332.446 127.641 332.879 126.925C333.007 126.723 333.199 126.579 333.418 126.52C333.637 126.46 333.869 126.489 334.07 126.602C334.272 126.711 334.431 126.896 334.516 127.123C334.602 127.35 334.608 127.603 334.535 127.834C334.271 128.587 333.954 129.317 333.586 130.017C333.17 131.293 333.126 132.678 333.459 133.982C333.792 135.287 334.486 136.449 335.447 137.312C335.619 137.504 335.715 137.761 335.715 138.029C335.715 138.297 335.619 138.554 335.447 138.746C335.303 138.909 335.113 139.016 334.907 139.05Z" fill="#231F20"/>
<path d="M256.472 19.0155C258.497 19.0155 260.139 17.2332 260.139 15.0346C260.139 12.836 258.497 11.0536 256.472 11.0536C254.447 11.0536 252.805 12.836 252.805 15.0346C252.805 17.2332 254.447 19.0155 256.472 19.0155Z" fill="#D1D3D4"/>
<path d="M273.764 19.0155C275.789 19.0155 277.43 17.2332 277.43 15.0346C277.43 12.836 275.789 11.0536 273.764 11.0536C271.739 11.0536 270.097 12.836 270.097 15.0346C270.097 17.2332 271.739 19.0155 273.764 19.0155Z" fill="#D1D3D4"/>
<path d="M291.055 19.0155C293.08 19.0155 294.722 17.2332 294.722 15.0346C294.722 12.836 293.08 11.0536 291.055 11.0536C289.03 11.0536 287.388 12.836 287.388 15.0346C287.388 17.2332 289.03 19.0155 291.055 19.0155Z" fill="#D1D3D4"/>
</svg>
