<svg width="185" height="113" viewBox="0 0 185 113" fill="none" xmlns="http://www.w3.org/2000/svg">
<path d="M183.957 106.396H1.62086C1.54568 106.396 1.47358 106.366 1.42043 106.313C1.36727 106.26 1.3374 106.188 1.3374 106.112C1.3374 106.037 1.36727 105.965 1.42043 105.912C1.47358 105.858 1.54568 105.828 1.62086 105.828H183.957C184.032 105.828 184.104 105.858 184.157 105.912C184.21 105.965 184.24 106.037 184.24 106.112C184.24 106.188 184.21 106.26 184.157 106.313C184.104 106.366 184.032 106.396 183.957 106.396Z" fill="#D1D3D4"/>
<path d="M175.866 93.3082V7.9549L54.2122 7.9549V93.3082L175.866 93.3082Z" fill="white"/>
<path d="M175.861 93.5923H54.2127C54.1375 93.5923 54.0654 93.5624 54.0122 93.5091C53.9591 93.4559 53.9292 93.3837 53.9292 93.3084V7.94931C53.9292 7.87401 53.9591 7.8018 54.0122 7.74856C54.0654 7.69532 54.1375 7.66541 54.2127 7.66541H175.861C175.936 7.66541 176.008 7.69532 176.061 7.74856C176.114 7.8018 176.144 7.87401 176.144 7.94931V93.3084C176.144 93.3837 176.114 93.4559 176.061 93.5091C176.008 93.5624 175.936 93.5923 175.861 93.5923ZM54.4961 93.0245H175.577V8.23322H54.4961V93.0245Z" fill="#231F20"/>
<path d="M54.2061 0.283753V7.9549L175.86 7.9549V0.283753L54.2061 0.283753Z" fill="white"/>
<path d="M175.861 8.23328H54.2127C54.1375 8.23328 54.0654 8.20337 54.0122 8.15012C53.9591 8.09688 53.9292 8.02467 53.9292 7.94937V0.283906C53.9292 0.208609 53.9591 0.136397 54.0122 0.0831539C54.0654 0.0299112 54.1375 0 54.2127 0H175.861C175.936 0 176.008 0.0299112 176.061 0.0831539C176.114 0.136397 176.144 0.208609 176.144 0.283906V7.94937C176.144 8.02467 176.114 8.09688 176.061 8.15012C176.008 8.20337 175.936 8.23328 175.861 8.23328ZM54.4961 7.66546H175.577V0.562135H54.4961V7.66546Z" fill="#231F20"/>
<path d="M163.235 82.2701H70.3298C70.2547 82.2701 70.1826 82.2402 70.1294 82.1869C70.0763 82.1337 70.0464 82.0615 70.0464 81.9862V21.3666C70.0464 21.2913 70.0763 21.2191 70.1294 21.1659C70.1826 21.1126 70.2547 21.0827 70.3298 21.0827C70.405 21.0827 70.4771 21.1126 70.5303 21.1659C70.5834 21.2191 70.6133 21.2913 70.6133 21.3666V81.7023H163.235C163.31 81.7037 163.381 81.7341 163.434 81.787C163.487 81.84 163.517 81.9113 163.519 81.9862C163.519 82.0615 163.489 82.1337 163.436 82.1869C163.382 82.2402 163.31 82.2701 163.235 82.2701Z" fill="#D1D3D4"/>
<path d="M88.6079 82.2703H80.6712C80.596 82.2703 80.5239 82.2404 80.4707 82.1872C80.4176 82.1339 80.3877 82.0617 80.3877 81.9864V48.548C80.3877 48.4727 80.4176 48.4005 80.4707 48.3473C80.5239 48.294 80.596 48.2641 80.6712 48.2641H88.6079C88.6826 48.2656 88.7539 48.2959 88.8067 48.3489C88.8596 48.4018 88.8899 48.4732 88.8914 48.548V82.0148C88.8843 82.0851 88.8514 82.1502 88.7989 82.1974C88.7465 82.2447 88.6784 82.2707 88.6079 82.2703ZM80.9546 81.7025H88.3244V48.8035H80.9546V81.7025Z" fill="#D1D3D4"/>
<path d="M105.679 82.2701H97.742C97.6668 82.2701 97.5947 82.2402 97.5415 82.187C97.4884 82.1337 97.4585 82.0615 97.4585 81.9862V45.9359C97.4585 45.8606 97.4884 45.7884 97.5415 45.7351C97.5947 45.6819 97.6668 45.652 97.742 45.652H105.679C105.754 45.652 105.826 45.6819 105.879 45.7351C105.932 45.7884 105.962 45.8606 105.962 45.9359V81.9862C105.962 82.0615 105.932 82.1337 105.879 82.187C105.826 82.2402 105.754 82.2701 105.679 82.2701ZM98.0311 81.7023H105.401V46.2198H98.0424L98.0311 81.7023Z" fill="#D1D3D4"/>
<path d="M122.754 82.2703H114.817C114.742 82.2703 114.67 82.2404 114.617 82.1872C114.564 82.1339 114.534 82.0617 114.534 81.9864V60.3528C114.534 60.2775 114.564 60.2052 114.617 60.152C114.67 60.0988 114.742 60.0688 114.817 60.0688H122.754C122.829 60.0688 122.901 60.0988 122.954 60.152C123.007 60.2052 123.037 60.2775 123.037 60.3528V81.9864C123.037 82.0617 123.007 82.1339 122.954 82.1872C122.901 82.2404 122.829 82.2703 122.754 82.2703ZM115.101 81.7025H122.47V60.6367H115.101V81.7025Z" fill="#D1D3D4"/>
<path d="M139.83 82.2701H131.893C131.818 82.2701 131.746 82.2402 131.692 82.187C131.639 82.1337 131.609 82.0615 131.609 81.9862V41.0584C131.609 40.9831 131.639 40.9109 131.692 40.8577C131.746 40.8044 131.818 40.7745 131.893 40.7745H139.83C139.905 40.7745 139.977 40.8044 140.03 40.8577C140.083 40.9109 140.113 40.9831 140.113 41.0584V81.9862C140.113 82.0615 140.083 82.1337 140.03 82.187C139.977 82.2402 139.905 82.2701 139.83 82.2701ZM132.176 81.7023H139.546V41.3423H132.176V81.7023Z" fill="#D1D3D4"/>
<path d="M156.898 82.2703H148.961C148.886 82.2703 148.814 82.2404 148.761 82.1871C148.708 82.1339 148.678 82.0617 148.678 81.9864V30.2701C148.678 30.1948 148.708 30.1226 148.761 30.0694C148.814 30.0161 148.886 29.9862 148.961 29.9862H156.898C156.973 29.9862 157.045 30.0161 157.098 30.0694C157.152 30.1226 157.181 30.1948 157.181 30.2701V81.9864C157.181 82.0617 157.152 82.1339 157.098 82.1871C157.045 82.2404 156.973 82.2703 156.898 82.2703ZM149.245 81.7024H156.614V30.554H149.245V81.7024Z" fill="#D1D3D4"/>
<path d="M118.783 43.7386C118.433 43.7407 118.095 43.611 117.836 43.3752L101.623 28.7144L83.4815 42.1999C83.3326 42.3117 83.1632 42.3931 82.9829 42.4393C82.8026 42.4856 82.615 42.4959 82.4307 42.4695C82.2465 42.4431 82.0692 42.3807 81.9091 42.2857C81.7489 42.1907 81.609 42.0651 81.4973 41.916C81.3857 41.7668 81.3044 41.5971 81.2582 41.4165C81.212 41.236 81.2018 41.048 81.2281 40.8635C81.2544 40.6789 81.3168 40.5014 81.4116 40.341C81.5064 40.1806 81.6319 40.0405 81.7808 39.9286L100.869 25.7333C101.131 25.5374 101.453 25.4388 101.78 25.4544C102.106 25.4699 102.418 25.5986 102.66 25.8185L118.862 40.4737L152.078 15.4049C152.227 15.293 152.396 15.2116 152.576 15.1654C152.757 15.1191 152.944 15.1089 153.129 15.1352C153.313 15.1616 153.49 15.2241 153.65 15.319C153.81 15.414 153.95 15.5396 154.062 15.6888C154.174 15.8379 154.255 16.0076 154.301 16.1882C154.347 16.3688 154.357 16.5567 154.331 16.7412C154.305 16.9258 154.242 17.1033 154.148 17.2637C154.053 17.4241 153.927 17.5643 153.778 17.6761L119.639 43.4377C119.395 43.6296 119.094 43.7354 118.783 43.7386Z" fill="#D1D3D4"/>
<path d="M152.39 21.6676L147.883 15.4671H154.612L152.39 21.6676Z" fill="#D1D3D4"/>
<path d="M152.39 21.9515C152.345 21.952 152.301 21.9419 152.26 21.9222C152.22 21.9025 152.185 21.8737 152.158 21.838L147.651 15.6148C147.623 15.5705 147.608 15.5194 147.608 15.4671C147.608 15.4149 147.623 15.3638 147.651 15.3195C147.675 15.2732 147.712 15.2345 147.757 15.2075C147.802 15.1805 147.853 15.1662 147.906 15.1662H154.635C154.681 15.1662 154.725 15.1772 154.766 15.1982C154.806 15.2193 154.841 15.2497 154.867 15.2871C154.893 15.3244 154.91 15.3674 154.916 15.4126C154.922 15.4578 154.917 15.5038 154.901 15.5466L152.679 21.7471C152.662 21.7961 152.632 21.8395 152.592 21.8725C152.552 21.9056 152.504 21.927 152.452 21.9345L152.39 21.9515ZM148.422 15.751L152.288 21.0657L154.193 15.751H148.422Z" fill="#D1D3D4"/>
<path d="M103.398 19.5896H92.5134C92.4383 19.5896 92.3662 19.5597 92.313 19.5064C92.2598 19.4532 92.23 19.381 92.23 19.3057C92.23 19.2304 92.2598 19.1582 92.313 19.1049C92.3662 19.0517 92.4383 19.0218 92.5134 19.0218H103.398C103.473 19.0218 103.545 19.0517 103.599 19.1049C103.652 19.1582 103.682 19.2304 103.682 19.3057C103.682 19.381 103.652 19.4532 103.599 19.5064C103.545 19.5597 103.473 19.5896 103.398 19.5896Z" fill="#D1D3D4"/>
<path d="M97.9559 21.9515H92.5134C92.4383 21.9515 92.3662 21.9216 92.313 21.8683C92.2598 21.8151 92.23 21.7429 92.23 21.6676C92.23 21.5923 92.2598 21.5201 92.313 21.4668C92.3662 21.4136 92.4383 21.3837 92.5134 21.3837H97.9559C98.0306 21.3851 98.1019 21.4155 98.1547 21.4684C98.2076 21.5214 98.2379 21.5927 98.2394 21.6676C98.2394 21.7429 98.2095 21.8151 98.1564 21.8683C98.1032 21.9216 98.0311 21.9515 97.9559 21.9515Z" fill="#D1D3D4"/>
<path d="M139.828 20.765H128.938C128.863 20.7635 128.792 20.7331 128.739 20.6802C128.686 20.6273 128.656 20.5559 128.654 20.481C128.654 20.4058 128.684 20.3335 128.737 20.2803C128.79 20.2271 128.863 20.1971 128.938 20.1971H139.828C139.903 20.1971 139.975 20.2271 140.029 20.2803C140.082 20.3335 140.112 20.4058 140.112 20.481C140.11 20.5559 140.08 20.6273 140.027 20.6802C139.974 20.7331 139.903 20.7635 139.828 20.765Z" fill="#D1D3D4"/>
<path d="M134.38 23.144H128.938C128.863 23.144 128.79 23.1141 128.737 23.0608C128.684 23.0076 128.654 22.9354 128.654 22.8601C128.654 22.7848 128.684 22.7126 128.737 22.6593C128.79 22.6061 128.863 22.5762 128.938 22.5762H134.38C134.455 22.5762 134.527 22.6061 134.581 22.6593C134.634 22.7126 134.664 22.7848 134.664 22.8601C134.664 22.9354 134.634 23.0076 134.581 23.0608C134.527 23.1141 134.455 23.144 134.38 23.144Z" fill="#D1D3D4"/>
<path d="M138.857 86.6991H133.448C133.373 86.6991 133.301 86.6692 133.248 86.6159C133.195 86.5627 133.165 86.4905 133.165 86.4152C133.165 86.3399 133.195 86.2677 133.248 86.2144C133.301 86.1612 133.373 86.1313 133.448 86.1313H138.857C138.932 86.1313 139.004 86.1612 139.057 86.2144C139.111 86.2677 139.14 86.3399 139.14 86.4152C139.14 86.4905 139.111 86.5627 139.057 86.6159C139.004 86.6692 138.932 86.6991 138.857 86.6991Z" fill="#D1D3D4"/>
<path d="M121.488 86.6991H116.079C116.004 86.6991 115.932 86.6692 115.879 86.6159C115.826 86.5627 115.796 86.4905 115.796 86.4152C115.796 86.3399 115.826 86.2677 115.879 86.2144C115.932 86.1612 116.004 86.1313 116.079 86.1313H121.488C121.563 86.1313 121.635 86.1612 121.688 86.2144C121.741 86.2677 121.771 86.3399 121.771 86.4152C121.771 86.4905 121.741 86.5627 121.688 86.6159C121.635 86.6692 121.563 86.6991 121.488 86.6991Z" fill="#D1D3D4"/>
<path d="M104.418 86.6991H99.0037C98.9285 86.6991 98.8564 86.6692 98.8032 86.6159C98.7501 86.5627 98.7202 86.4905 98.7202 86.4152C98.7217 86.3404 98.752 86.269 98.8048 86.216C98.8577 86.1631 98.9289 86.1327 99.0037 86.1313H104.418C104.492 86.1327 104.564 86.1631 104.616 86.216C104.669 86.269 104.7 86.3404 104.701 86.4152C104.701 86.4905 104.671 86.5627 104.618 86.6159C104.565 86.6692 104.493 86.6991 104.418 86.6991Z" fill="#D1D3D4"/>
<path d="M88.6066 86.6991H83.1926C83.1175 86.6991 83.0454 86.6692 82.9922 86.6159C82.939 86.5627 82.9092 86.4905 82.9092 86.4152C82.9106 86.3404 82.941 86.269 82.9938 86.216C83.0467 86.1631 83.1179 86.1327 83.1926 86.1313H88.6066C88.6813 86.1327 88.7525 86.1631 88.8054 86.216C88.8582 86.269 88.8886 86.3404 88.89 86.4152C88.89 86.4905 88.8601 86.5627 88.807 86.6159C88.7538 86.6692 88.6817 86.6991 88.6066 86.6991Z" fill="#D1D3D4"/>
<path d="M155.634 86.6991H150.225C150.15 86.6991 150.078 86.6692 150.025 86.6159C149.972 86.5627 149.942 86.4905 149.942 86.4152C149.942 86.3399 149.972 86.2677 150.025 86.2144C150.078 86.1612 150.15 86.1313 150.225 86.1313H155.634C155.709 86.1313 155.781 86.1612 155.834 86.2144C155.887 86.2677 155.917 86.3399 155.917 86.4152C155.917 86.4905 155.887 86.5627 155.834 86.6159C155.781 86.6692 155.709 86.6991 155.634 86.6991Z" fill="#D1D3D4"/>
<path d="M24.1326 21.0546C23.7221 20.4373 23.543 19.6944 23.6271 18.9576C23.7111 18.2207 24.0529 17.5374 24.5918 17.0288C25.2468 17.901 25.6099 18.9583 25.6292 20.0495C26.3152 18.0565 28.6338 17.1537 30.7314 16.9493C32.829 16.7449 35.0116 16.9947 36.9674 16.2225C38.9233 15.4503 40.4993 13.0939 39.4788 11.2542C40.2013 11.9783 40.7584 12.8508 41.1118 13.8115C41.4651 14.7722 41.6062 15.7981 41.5254 16.8187C42.9897 15.6886 44.0143 14.0821 44.4223 12.2762C44.3656 12.526 47.3022 14.309 47.3022 20.2994C47.3642 21.6996 47.1381 23.0976 46.6378 24.4065C46.1374 25.7154 45.3737 26.9073 44.394 27.9081C43.2544 29.0592 42.0114 30.1027 40.6807 31.0253L37.9255 33.0695C35.091 35.159 31.1226 37.2315 27.4603 36.1584C22.7323 34.7729 20.9408 26.0343 23.9568 22.6615C22.6326 22.8008 21.3621 23.2607 20.2549 24.0015C20.4513 23.1316 20.948 22.3591 21.6573 21.82C22.3667 21.2809 23.2432 21.0099 24.1326 21.0546Z" fill="white"/>
<path d="M29.542 36.7202C28.8055 36.7223 28.0725 36.619 27.3651 36.4136C25.2505 35.7947 23.4874 33.6654 22.6484 30.7355C21.8094 27.8056 22.0815 24.8756 23.2947 23.0359C22.2513 23.2294 21.258 23.6331 20.3751 24.2227C20.3277 24.253 20.2726 24.2691 20.2163 24.2691C20.1601 24.2691 20.105 24.253 20.0576 24.2227C20.011 24.1919 19.9748 24.1479 19.9535 24.0962C19.9323 24.0446 19.9271 23.9877 19.9386 23.9331C20.1357 23.0827 20.5979 22.3173 21.2584 21.7476C21.9189 21.178 22.7433 20.8337 23.6121 20.7647C23.3081 20.1049 23.219 19.3661 23.3574 18.6528C23.4957 17.9395 23.8546 17.2878 24.3831 16.79C24.4125 16.7645 24.4467 16.7452 24.4838 16.7335C24.5208 16.7218 24.5599 16.7178 24.5986 16.7219C24.6378 16.7256 24.6758 16.7377 24.71 16.7573C24.7442 16.7769 24.7738 16.8035 24.797 16.8354C25.2856 17.4898 25.6243 18.2439 25.7891 19.0442C26.6791 17.7326 28.4252 16.8582 30.6759 16.6481C31.3165 16.5856 31.9741 16.5629 32.6147 16.5459C34.0432 16.5882 35.4683 16.3827 36.8268 15.9383C37.3888 15.7112 37.8984 15.3714 38.3245 14.9398C38.7505 14.5082 39.0839 13.994 39.3042 13.4286C39.4367 13.0985 39.4952 12.7434 39.4756 12.3882C39.456 12.0331 39.3588 11.6865 39.1909 11.3731C39.1582 11.3131 39.1483 11.2433 39.1628 11.1766C39.1774 11.1098 39.2156 11.0506 39.2702 11.0097C39.321 10.9646 39.3866 10.9397 39.4545 10.9397C39.5224 10.9397 39.5879 10.9646 39.6387 11.0097C40.9969 12.3651 41.7704 14.1998 41.793 16.12C42.9501 15.0619 43.7571 13.6752 44.106 12.1453C44.114 12.1087 44.1292 12.074 44.1507 12.0433C44.1722 12.0126 44.1995 11.9865 44.2312 11.9664C44.2628 11.9464 44.2981 11.9328 44.335 11.9265C44.3719 11.9201 44.4096 11.9212 44.4461 11.9296C44.4973 11.9425 44.5442 11.9688 44.582 12.0057C44.6198 12.0426 44.6472 12.0888 44.6616 12.1396C44.7141 12.2057 44.7709 12.2683 44.8316 12.327C45.5006 13.0481 47.5471 15.2342 47.5471 20.231C47.6215 21.677 47.397 23.1228 46.8878 24.4779C46.3786 25.8331 45.5956 27.0684 44.5879 28.1065C43.4321 29.2657 42.1762 30.3203 40.8349 31.2578L38.0797 33.2963C35.8291 34.9486 32.6997 36.7202 29.542 36.7202ZM23.941 22.3602C23.9939 22.3608 24.0458 22.3759 24.0907 22.4039C24.1357 22.432 24.1722 22.4719 24.1961 22.5192C24.2207 22.5704 24.2301 22.6277 24.223 22.6841C24.216 22.7405 24.1928 22.7937 24.1564 22.8372C22.7221 24.4384 22.3366 27.5387 23.2096 30.5708C23.9976 33.3247 25.6133 35.3007 27.5408 35.8685C31.1634 36.9303 35.0921 34.801 37.7452 32.825L40.5004 30.7809C41.8183 29.8656 43.0516 28.8337 44.1854 27.6977C46.1922 25.5513 47.0199 23.3993 47.0199 20.2821C47.0199 15.7396 45.3192 13.7011 44.5539 12.9005C44.0637 14.5491 43.0729 16.0039 41.7193 17.0626C41.6739 17.0926 41.6206 17.1086 41.5662 17.1086C41.5118 17.1086 41.4586 17.0926 41.4132 17.0626C41.3639 17.0359 41.3236 16.9953 41.2974 16.9458C41.2712 16.8963 41.2602 16.8401 41.2658 16.7843C41.4008 15.2415 41.0003 13.6993 40.1319 12.4179C40.1384 12.8343 40.0673 13.2483 39.9222 13.6387C39.6728 14.2779 39.2959 14.8594 38.8143 15.3475C38.3327 15.8357 37.7568 16.2203 37.1216 16.4777C35.7016 16.9465 34.2113 17.1655 32.7167 17.125C32.0875 17.125 31.4412 17.1648 30.8119 17.2216C29.8765 17.3124 26.7698 17.7894 25.9648 20.1287C25.943 20.1916 25.8999 20.2449 25.8429 20.2791C25.7859 20.3134 25.7187 20.3265 25.653 20.3161C25.5864 20.3055 25.5255 20.2719 25.481 20.2211C25.4364 20.1703 25.4111 20.1055 25.4092 20.0379C25.3927 19.1191 25.1176 18.2236 24.6156 17.4544C24.22 17.9252 23.9878 18.512 23.9541 19.1265C23.9203 19.741 24.0868 20.3498 24.4285 20.8612C24.4573 20.9061 24.4726 20.9583 24.4726 21.0117C24.4726 21.0651 24.4573 21.1173 24.4285 21.1622C24.4039 21.2116 24.3644 21.252 24.3155 21.2775C24.2666 21.303 24.2109 21.3123 24.1564 21.3041C23.4597 21.2687 22.7682 21.4414 22.1696 21.8003C21.5711 22.1592 21.0925 22.6881 20.7946 23.3198C21.7748 22.7837 22.8524 22.4497 23.9636 22.3375L23.941 22.3602Z" fill="#231F20"/>
<path d="M16.0371 72.6513L6.43359 70.2153C6.79642 69.5226 12.6356 51.9829 17.9873 48.5761C22.5793 44.749 31.8086 44.3686 42.2568 43.9654C45.6019 43.7698 48.957 44.0993 52.2004 44.9421C64.3947 48.3149 76.7137 61.7152 76.7137 61.7152L61.4071 72.3106C61.4071 72.3106 62.8754 85.8869 64.5477 107.685C64.5477 107.685 45.4145 111.995 15.5212 110.32C15.5042 110.32 16.3205 75.7515 16.0371 72.6513Z" fill="#FF5C64"/>
<path d="M45.0121 49.854L44.7797 73.4919L44.6493 86.3074L39.8532 73.2648L31.083 49.4054L45.0121 49.854Z" fill="#231F20"/>
<path d="M31.0819 49.4051L45.0109 49.8537L44.7785 73.4916L44.6481 86.3071L39.852 73.2475L31.0819 49.3994V49.4051ZM31.0819 48.8316C30.9924 48.8314 30.9042 48.8523 30.8244 48.8928C30.7446 48.9333 30.6755 48.9921 30.6227 49.0644C30.5682 49.1397 30.533 49.2272 30.5201 49.3192C30.5073 49.4113 30.5172 49.5051 30.549 49.5925L39.3191 73.4405L44.1209 86.5002C44.1611 86.608 44.233 86.701 44.3272 86.7669C44.4213 86.8328 44.5332 86.8685 44.6481 86.8693H44.7445C44.8765 86.8451 44.9957 86.7747 45.0809 86.6707C45.166 86.5668 45.2115 86.4359 45.2093 86.3015L45.3397 73.486L45.5778 49.848C45.5778 49.6974 45.5181 49.553 45.4118 49.4465C45.3055 49.34 45.1613 49.2802 45.0109 49.2802L31.0762 48.8316H31.0819Z" fill="#231F20"/>
<path d="M44.7797 73.492L44.6493 86.3075L39.8532 73.2649L39.8305 58.286L38.3735 56.4576L40.2103 53.647L42.7671 56.2646L41.0777 58.2065L44.7797 73.492Z" fill="white"/>
<path d="M43.934 41.3141L45.0168 49.8312C45.0168 49.8312 44.1948 54.3737 38.9055 53.9592C37.3441 53.8259 35.8319 53.346 34.4786 52.5544C33.1254 51.7628 31.9652 50.6793 31.0821 49.3827L28.8145 35C28.8145 35 32.2613 32.371 29.8179 24.3479C34.269 25.463 38.938 25.3551 43.3331 24.0356C43.3331 24.0356 47.086 32.5527 47.1144 36.6012C47.1427 40.6497 43.934 41.3141 43.934 41.3141Z" fill="white"/>
<path d="M39.5524 54.2943C39.3427 54.2943 39.1159 54.2943 38.8835 54.2659C37.2752 54.1362 35.7169 53.6451 34.3241 52.8292C32.9314 52.0133 31.7402 50.8935 30.839 49.5531C30.8209 49.5211 30.8076 49.4867 30.7993 49.4508L28.5317 35.0682C28.5232 35.0172 28.5287 34.9649 28.5477 34.9169C28.5667 34.8689 28.5984 34.827 28.6394 34.7956C28.6678 34.7956 31.8878 32.161 29.5408 24.4558C29.5267 24.4062 29.5262 24.3537 29.5391 24.3038C29.5521 24.2539 29.5781 24.2084 29.6145 24.1719C29.6508 24.1353 29.6965 24.1096 29.7466 24.0976C29.7966 24.0856 29.8491 24.0877 29.898 24.1038C34.2975 25.187 38.9056 25.0773 43.2487 23.7858C43.315 23.7662 43.3862 23.7715 43.4488 23.8008C43.5115 23.8301 43.5613 23.8813 43.5888 23.9448C43.7419 24.2968 47.3645 32.5641 47.3928 36.624C47.3928 40.1615 45.0458 41.2517 44.2521 41.5185L45.3179 49.8199C45.3236 49.848 45.3236 49.877 45.3179 49.9051C45.0271 51.1997 44.2892 52.3499 43.2344 53.1529C42.1797 53.9559 40.8757 54.3601 39.5524 54.2943ZM31.3549 49.3032C32.2202 50.5454 33.3468 51.5826 34.6553 52.3419C35.9638 53.1012 37.4225 53.5641 38.9288 53.6981C43.7079 54.0672 44.632 50.2912 44.7283 49.8483L43.6512 41.3311C43.6438 41.2596 43.6628 41.1878 43.7046 41.1292C43.7463 41.0707 43.808 41.0294 43.878 41.0132C43.997 41.0132 46.8429 40.3545 46.8202 36.6013C46.7919 33.0297 43.7533 25.7561 43.1637 24.382C38.9456 25.5706 34.4998 25.6974 30.2211 24.7511C32.1883 31.7067 29.7336 34.5288 29.0873 35.1136L31.3549 49.3032Z" fill="#231F20"/>
<path d="M31.7467 34.2844C31.4572 33.6141 30.9603 33.0548 30.3294 32.6888C29.726 32.3783 29.0742 32.1728 28.4019 32.0813C28.0289 31.9947 27.6411 31.9947 27.2681 32.0813C27.0203 32.1661 26.7899 32.295 26.5878 32.4617C26.0834 32.8207 25.7235 33.3482 25.573 33.9494C25.5108 34.4462 25.5691 34.9506 25.7431 35.42C25.8914 35.9407 26.1087 36.4392 26.3894 36.902C26.6785 37.3583 27.0552 37.7526 27.4974 38.0622C27.9397 38.3717 28.4389 38.5904 28.9661 38.7055C29.4933 38.8206 30.038 38.8299 30.5688 38.7328C31.0996 38.6357 31.6059 38.4342 32.0585 38.1398" fill="white"/>
<path d="M29.8542 39.0655C29.5454 39.0674 29.2374 39.035 28.9358 38.9689C28.3713 38.8454 27.8367 38.6112 27.3629 38.2798C26.889 37.9485 26.4853 37.5266 26.175 37.0384C25.8745 36.5552 25.64 36.0338 25.4777 35.4882C25.2895 34.9769 25.2291 34.4271 25.3019 33.887C25.4654 33.2144 25.8686 32.6247 26.4357 32.229C26.6654 32.0346 26.9313 31.888 27.2181 31.7975C27.6228 31.7038 28.0435 31.7038 28.4483 31.7975C29.1528 31.8935 29.8356 32.1105 30.4664 32.4391C31.1481 32.8267 31.6868 33.4241 32.0028 34.1425C32.0313 34.2111 32.0319 34.2882 32.0043 34.3572C31.9768 34.4262 31.9233 34.4817 31.8554 34.5116C31.8211 34.5266 31.7843 34.5348 31.7469 34.5355C31.7095 34.5362 31.6724 34.5295 31.6376 34.5158C31.6028 34.502 31.5711 34.4816 31.5443 34.4555C31.5174 34.4295 31.496 34.3984 31.4812 34.364C31.219 33.7487 30.7631 33.2363 30.183 32.9047C29.6079 32.6109 28.9865 32.4188 28.3462 32.3369C28.0253 32.2638 27.6921 32.2638 27.3711 32.3369C27.1622 32.4105 26.9696 32.5243 26.8042 32.6719C26.3545 32.9896 26.0313 33.4561 25.8915 33.9892C25.8362 34.438 25.8886 34.8935 26.0446 35.3179C26.1818 35.8155 26.3879 36.2914 26.6568 36.7318C27.1997 37.595 28.062 38.2075 29.0548 38.4352C30.0468 38.641 31.0799 38.4516 31.9347 37.9071C31.9972 37.866 32.0734 37.8513 32.1467 37.8662C32.2199 37.8811 32.2843 37.9244 32.3259 37.9866C32.347 38.0174 32.3616 38.052 32.3691 38.0886C32.3765 38.1251 32.3765 38.1628 32.3691 38.1994C32.3617 38.2359 32.347 38.2706 32.326 38.3013C32.3049 38.3321 32.2779 38.3583 32.2465 38.3784C31.532 38.8339 30.7011 39.0725 29.8542 39.0655Z" fill="#231F20"/>
<path d="M44.6504 46.1802C42.6996 46.0917 40.8108 45.467 39.191 44.3745C36.6002 42.5746 36.5889 41.2913 36.5889 41.2913C36.5889 41.2913 40.5233 42.6881 43.749 41.473L44.6504 46.1802Z" fill="#231F20"/>
<path d="M44.6496 46.464C42.6411 46.38 40.6956 45.737 39.0315 44.6073C36.3897 42.7789 36.3047 41.4389 36.3047 41.2912C36.3053 41.2459 36.3164 41.2013 36.3371 41.1609C36.3577 41.1206 36.3874 41.0855 36.4237 41.0584C36.4618 41.0333 36.505 41.0172 36.5502 41.0113C36.5954 41.0054 36.6413 41.0099 36.6845 41.0244C36.7185 41.0244 40.5622 42.3701 43.6462 41.2061C43.6833 41.188 43.724 41.1786 43.7653 41.1786C43.8065 41.1786 43.8472 41.188 43.8843 41.2061C43.9208 41.2256 43.9525 41.2531 43.977 41.2865C44.0015 41.3199 44.0183 41.3584 44.026 41.3991L44.9274 46.1063C44.9347 46.1473 44.9329 46.1894 44.9221 46.2296C44.9114 46.2699 44.8919 46.3072 44.8651 46.3391C44.8424 46.3762 44.8108 46.4071 44.7732 46.4289C44.7356 46.4508 44.6931 46.4628 44.6496 46.464ZM37.002 41.7341C37.2231 42.2225 37.8127 43.0912 39.349 44.1587C40.8274 45.1481 42.5321 45.7459 44.3038 45.8962L43.5328 41.8647C40.9817 42.671 38.1472 42.0408 37.002 41.7341Z" fill="#231F20"/>
<path d="M38.3398 30.0031C38.3398 30.0031 41.7413 33.4099 41.2821 34.2446C40.8229 35.0793 38.9351 34.9544 38.9351 34.9544" fill="white"/>
<path d="M39.166 35.244H38.9166C38.8424 35.2396 38.7729 35.2061 38.7231 35.1509C38.6732 35.0957 38.647 35.0231 38.6501 34.9487C38.6559 34.8739 38.6905 34.8043 38.7466 34.7545C38.8026 34.7047 38.8757 34.6787 38.9506 34.6818C39.3871 34.6818 40.708 34.6478 41.0368 34.114C41.2352 33.7847 39.852 31.9279 38.1342 30.2131C38.0823 30.1601 38.0532 30.0887 38.0532 30.0144C38.0532 29.9401 38.0823 29.8687 38.1342 29.8157C38.1606 29.7891 38.192 29.7679 38.2265 29.7535C38.261 29.7391 38.2981 29.7317 38.3355 29.7317C38.3729 29.7317 38.41 29.7391 38.4445 29.7535C38.4791 29.7679 38.5104 29.7891 38.5368 29.8157C39.6139 30.8945 42.0686 33.5008 41.5187 34.4036C41.0595 35.1588 39.7386 35.244 39.166 35.244Z" fill="#231F20"/>
<path d="M35.1946 31.3035C35.5617 31.2623 35.8125 30.8095 35.7546 30.2922C35.6968 29.7749 35.3523 29.3889 34.9851 29.4301C34.618 29.4713 34.3672 29.924 34.425 30.4414C34.4829 30.9587 34.8274 31.3447 35.1946 31.3035Z" fill="#231F20"/>
<path d="M41.6699 30.0133C42.0086 29.8656 42.115 29.3589 41.9075 28.8816C41.7 28.4044 41.2572 28.1372 40.9185 28.2849C40.5798 28.4327 40.4734 28.9393 40.6809 29.4166C40.8884 29.8939 41.3312 30.1611 41.6699 30.0133Z" fill="#231F20"/>
<path d="M41.1235 40.3659H40.7663C39.5753 40.3433 38.4074 40.0319 37.3628 39.4584C36.3182 38.8848 35.428 38.0662 34.7684 37.0726C34.7461 37.0306 34.7344 36.9838 34.7344 36.9363C34.7344 36.8888 34.7461 36.842 34.7684 36.8C34.7922 36.7583 34.8258 36.7231 34.8663 36.6974C34.9069 36.6716 34.953 36.6562 35.0008 36.6524L44.6383 36.1584C44.7126 36.1553 44.7851 36.1815 44.8403 36.2314C44.8954 36.2813 44.9287 36.351 44.9331 36.4253C44.9847 37.5039 44.6123 38.5598 43.8957 39.3665C43.5259 39.7135 43.0893 39.981 42.6126 40.1529C42.1359 40.3247 41.6292 40.3972 41.1235 40.3659ZM35.5451 37.1918C36.1833 37.9781 36.9829 38.6178 37.8897 39.0675C38.7964 39.5171 39.789 39.7663 40.8003 39.7981C41.2814 39.862 41.7706 39.821 42.2345 39.6779C42.6983 39.5348 43.1257 39.293 43.4875 38.9691C44.0331 38.3545 44.3426 37.5655 44.3606 36.7432L35.5451 37.1918Z" fill="#231F20"/>
<path d="M43.5557 33.3703C42.5836 33.3703 41.6333 33.0816 40.825 32.5406C40.0168 31.9997 39.3868 31.2309 39.0148 30.3313C38.6428 29.4318 38.5454 28.4419 38.7351 27.487C38.9247 26.532 39.3928 25.6548 40.0802 24.9664C40.7676 24.2779 41.6434 23.809 42.5968 23.6191C43.5503 23.4291 44.5385 23.5266 45.4367 23.8992C46.3348 24.2718 47.1024 24.9028 47.6425 25.7124C48.1826 26.5219 48.4708 27.4737 48.4708 28.4474C48.4693 29.7526 47.951 31.0039 47.0296 31.9268C46.1081 32.8497 44.8588 33.3688 43.5557 33.3703ZM43.5557 24.098C42.6955 24.098 41.8546 24.3535 41.1394 24.8323C40.4242 25.3111 39.8669 25.9916 39.538 26.7878C39.209 27.5839 39.1233 28.4598 39.2915 29.3048C39.4597 30.1498 39.8744 30.9258 40.4831 31.5346C41.0918 32.1434 41.8671 32.5578 42.7109 32.7252C43.5548 32.8926 44.4292 32.8055 45.2236 32.475C46.0181 32.1445 46.6968 31.5854 47.1739 30.8685C47.651 30.1516 47.905 29.309 47.9039 28.4474C47.9009 27.2938 47.4417 26.1884 46.6267 25.3732C45.8117 24.558 44.7075 24.0995 43.5557 24.098Z" fill="#231F20"/>
<path d="M33.9306 34.6705C32.958 34.6717 32.0069 34.3837 31.1977 33.8432C30.3886 33.3027 29.7577 32.5339 29.385 31.6341C29.0123 30.7344 28.9145 29.7441 29.1039 28.7886C29.2934 27.8331 29.7616 26.9554 30.4494 26.2665C31.1371 25.5777 32.0134 25.1087 32.9674 24.919C33.9214 24.7292 34.9101 24.8272 35.8085 25.2005C36.7069 25.5738 37.4744 26.2056 38.0141 27.0161C38.5537 27.8265 38.8412 28.7791 38.8401 29.7533C38.8386 31.0569 38.3209 32.3068 37.4005 33.2286C36.4801 34.1505 35.2322 34.669 33.9306 34.6705ZM33.9306 25.3981C33.0704 25.397 32.2291 25.6515 31.5133 26.1293C30.7975 26.6072 30.2393 27.287 29.9093 28.0827C29.5793 28.8784 29.4924 29.7542 29.6595 30.5994C29.8267 31.4446 30.2404 32.2211 30.8482 32.8308C31.4561 33.4404 32.2309 33.8558 33.0745 34.0243C33.9182 34.1928 34.7927 34.1069 35.5876 33.7774C36.3825 33.448 37.0619 32.8898 37.54 32.1734C38.018 31.4571 38.2732 30.6149 38.2732 29.7533C38.2717 28.5997 37.8139 27.4936 36.9999 26.6774C36.186 25.8611 35.0824 25.4011 33.9306 25.3981Z" fill="#231F20"/>
<path d="M39.8317 81.566C39.7629 81.5607 39.6984 81.5304 39.6503 81.4808L27.5694 70.1814C27.5216 70.1362 27.491 70.0759 27.4827 70.0106C27.4745 69.9454 27.4891 69.8793 27.524 69.8236L31.7135 63.3108L25.4095 58.7683C25.3572 58.7309 25.3193 58.6768 25.3018 58.6149C25.2842 58.553 25.2882 58.487 25.3131 58.4276L28.5445 50.819C28.5755 50.7505 28.6319 50.6969 28.7017 50.6693C28.7716 50.6418 28.8493 50.6425 28.9186 50.6713C28.9866 50.7013 29.04 50.7567 29.0676 50.8257C29.0952 50.8947 29.0946 50.9718 29.066 51.0404L25.9197 58.422L32.2578 62.9645C32.3161 63.0067 32.3558 63.0699 32.3685 63.1409C32.3812 63.2119 32.3659 63.285 32.3258 63.3449L28.1306 69.9031L40.0358 81.0493C40.0624 81.0757 40.0834 81.1071 40.0978 81.1417C40.1122 81.1763 40.1196 81.2134 40.1196 81.2508C40.1196 81.2883 40.1122 81.3254 40.0978 81.36C40.0834 81.3946 40.0624 81.426 40.0358 81.4524C40.0115 81.4845 39.9808 81.5112 39.9457 81.5308C39.9106 81.5503 39.8717 81.5623 39.8317 81.566Z" fill="#231F20"/>
<path d="M48.1872 79.8799C48.1553 79.8853 48.1227 79.8853 48.0908 79.8799C48.0202 79.8542 47.9626 79.8016 47.9307 79.7334C47.8988 79.6653 47.8952 79.5872 47.9208 79.5165L53.3858 63.8789L49.9843 62.0392C49.942 62.0162 49.9063 61.9827 49.8805 61.9419C49.8547 61.9012 49.8397 61.8546 49.8369 61.8064C49.8344 61.7581 49.8439 61.71 49.8647 61.6663C49.8855 61.6227 49.9169 61.585 49.956 61.5566L53.3574 59.1547L46.8776 49.5417C46.8355 49.4792 46.82 49.4025 46.8343 49.3285C46.8487 49.2545 46.8918 49.1892 46.9542 49.1471C47.0166 49.1049 47.0931 49.0893 47.167 49.1037C47.2409 49.118 47.3061 49.1612 47.3482 49.2237L53.981 59.0696C54.0223 59.1306 54.0377 59.2055 54.0239 59.2779C54.0101 59.3503 53.9682 59.4142 53.9073 59.4557L50.6363 61.7553L53.879 63.4928C53.9372 63.5252 53.9822 63.5771 54.0061 63.6394C54.0299 63.7017 54.0311 63.7704 54.0094 63.8335L48.465 79.6641C48.4488 79.7256 48.4128 79.7801 48.3626 79.8191C48.3124 79.8581 48.2507 79.8795 48.1872 79.8799Z" fill="#231F20"/>
<path d="M62.9316 70.5108C62.9316 70.5108 76.2144 86.4095 82.9493 86.4095C87.3882 86.4095 100.524 72.6799 102.627 70.579C103.476 69.6182 104.385 68.7118 105.348 67.8648C106.822 66.7292 108.676 66.0024 110.286 65.0769C112.062 64.1546 113.598 62.8283 114.77 61.2044C115.242 60.5607 115.496 59.7829 115.496 58.9843C115.377 56.9856 111.816 55.4298 110.104 55.4866C108.16 55.549 100.212 60.2959 98.2502 60.4719C98.2502 60.4719 90.2114 67.1437 83.896 70.948C79.3607 66.61 75.2903 62.0902 75.2903 62.0902" fill="white"/>
<path d="M82.9502 86.6989C76.1472 86.6989 63.2613 71.368 62.7114 70.6923C62.6654 70.6327 62.6439 70.5577 62.6513 70.4828C62.6587 70.4079 62.6944 70.3386 62.7511 70.2891C62.7791 70.2648 62.8118 70.2463 62.8471 70.2348C62.8824 70.2233 62.9197 70.219 62.9567 70.2222C62.9937 70.2254 63.0297 70.236 63.0625 70.2533C63.0954 70.2706 63.1244 70.2944 63.1479 70.3232C63.2783 70.4822 76.425 86.131 82.9502 86.131C85.592 86.131 91.9187 81.0605 101.755 71.0613L102.429 70.38C102.713 70.0961 102.996 69.8122 103.28 69.4828C103.861 68.8201 104.494 68.2049 105.173 67.6431C106.182 66.9108 107.261 66.2794 108.393 65.758C108.96 65.4627 109.584 65.1561 110.145 64.8325C111.471 64.0716 113.365 62.8451 114.533 61.0508C114.978 60.4629 115.217 59.7445 115.213 59.0067C115.111 57.2522 111.812 55.7759 110.196 55.7759H110.117C109.17 55.8043 106.466 57.1386 104.073 58.314C101.681 59.4894 99.4133 60.5852 98.3645 60.7499C97.5878 61.3972 90.0082 67.6034 84.0443 71.1976C83.9902 71.2295 83.9271 71.2429 83.8647 71.2357C83.8024 71.2285 83.744 71.2012 83.6985 71.1579C79.2085 66.8596 75.1211 62.3341 75.0814 62.2887C75.0548 62.2623 75.0338 62.2309 75.0194 62.1963C75.005 62.1617 74.9976 62.1246 74.9976 62.0871C74.9976 62.0496 75.005 62.0125 75.0194 61.9779C75.0338 61.9433 75.0548 61.9119 75.0814 61.8855C75.1078 61.8589 75.1391 61.8378 75.1737 61.8234C75.2082 61.809 75.2452 61.8015 75.2827 61.8015C75.3201 61.8015 75.3571 61.809 75.3917 61.8234C75.4262 61.8378 75.4576 61.8589 75.4839 61.8855C75.5236 61.9253 79.4977 66.3372 83.9139 70.573C90.1103 66.8084 97.9676 60.307 98.047 60.2389C98.0899 60.202 98.1436 60.1801 98.2001 60.1764C99.1015 60.0912 101.488 58.9159 103.801 57.7803C106.477 56.4629 109.011 55.2194 110.077 55.1854H110.173C112.021 55.1854 115.627 56.7525 115.757 58.95C115.765 59.8093 115.495 60.648 114.986 61.3404C113.75 63.2369 111.778 64.5088 110.406 65.3151C109.839 65.6444 109.221 65.9567 108.626 66.252C107.528 66.7601 106.482 67.3724 105.502 68.0803C104.845 68.6226 104.233 69.2169 103.671 69.8576C103.382 70.1699 103.104 70.4822 102.803 70.7718L102.14 71.4475C92.0718 81.7135 85.7904 86.6989 82.9502 86.6989Z" fill="#231F20"/>
<path d="M54.7858 79.5957L44.7798 111.149L71.2262 112.716L82.502 82.8663L54.7858 79.5957Z" fill="#231F20"/>
<path d="M71.227 113L44.7523 111.433C44.7097 111.431 44.6681 111.419 44.6307 111.399C44.5933 111.378 44.5612 111.349 44.5369 111.314C44.5126 111.277 44.4964 111.236 44.4896 111.193C44.4827 111.15 44.4853 111.106 44.4972 111.064L54.5032 79.5106C54.5236 79.4473 54.5653 79.393 54.621 79.3568C54.6768 79.3206 54.7433 79.3047 54.8093 79.3119L82.5256 82.5825C82.5686 82.5876 82.6099 82.6026 82.6463 82.6262C82.6826 82.6498 82.7131 82.6815 82.7353 82.7187C82.7548 82.7575 82.7649 82.8003 82.7649 82.8436C82.7649 82.887 82.7548 82.9298 82.7353 82.9686L71.4595 112.818C71.4406 112.867 71.409 112.909 71.3681 112.941C71.3272 112.973 71.2785 112.994 71.227 113ZM45.1492 110.888L71.0343 112.421L82.106 83.1048L54.9794 79.9024L45.1492 110.888Z" fill="#231F20"/>
<path d="M6.43406 70.2155C6.43406 70.2155 -2.47779 95.9771 2.09152 101.519C6.66082 107.061 47.1043 101.638 47.1043 101.638C47.1043 101.638 56.1012 102.603 57.7112 100.673C59.3212 98.7424 62.3202 89.1123 60.2226 89.1123C58.125 89.1123 51.5999 91.5198 51.5999 91.5198C51.5999 91.5198 51.6339 87.0454 51.5999 87.159C51.5659 87.2726 47.1043 91.0428 47.1043 91.0428L15.9242 90.1173L20.2383 72.5152" fill="white"/>
<path d="M16.2356 104.296C9.29095 104.296 3.48578 103.654 1.87575 101.701C-2.74458 96.1021 5.79878 71.1809 6.16727 70.1248C6.17875 70.0895 6.1972 70.0568 6.2215 70.0287C6.2458 70.0006 6.27547 69.9777 6.30876 69.9613C6.34205 69.9449 6.37829 69.9353 6.41533 69.9332C6.45237 69.931 6.48946 69.9363 6.52442 69.9488C6.59477 69.9733 6.65264 70.0246 6.68553 70.0915C6.71842 70.1585 6.72368 70.2357 6.70017 70.3065C6.60946 70.562 -2.10397 95.9829 2.31227 101.337C3.57081 102.865 8.75805 104.46 26.2926 103.37C36.8145 102.717 46.9622 101.354 47.0643 101.354H47.1323C49.5927 101.616 56.2539 101.979 57.4954 100.491C58.856 98.8617 61.3107 91.3439 60.5114 89.6234C60.4207 89.4247 60.313 89.3963 60.2223 89.3963C58.1984 89.3963 51.7583 91.764 51.7186 91.7868C51.6758 91.8036 51.6294 91.8093 51.5838 91.8034C51.5382 91.7974 51.4949 91.78 51.4578 91.7527C51.4193 91.7278 51.388 91.6932 51.3671 91.6523C51.3462 91.6114 51.3364 91.5657 51.3388 91.5199C51.3388 90.3843 51.3388 88.6808 51.3388 87.7951C50.7719 88.289 49.638 89.2657 47.2967 91.2587C47.271 91.2828 47.2406 91.3012 47.2074 91.3129C47.1743 91.3247 47.139 91.3294 47.1039 91.3268L15.9238 90.4013C15.882 90.4015 15.8407 90.3919 15.8032 90.3731C15.7658 90.3544 15.7333 90.3271 15.7084 90.2934C15.6833 90.2586 15.6658 90.2188 15.657 90.1768C15.6482 90.1347 15.6483 90.0913 15.6574 90.0493L19.9716 72.4471C19.9802 72.4104 19.996 72.3758 20.0182 72.3453C20.0403 72.3148 20.0683 72.289 20.1005 72.2694C20.1327 72.2499 20.1684 72.2369 20.2057 72.2314C20.2429 72.2258 20.2809 72.2277 20.3174 72.237C20.3533 72.2457 20.3871 72.2614 20.4169 72.2833C20.4467 72.3051 20.4718 72.3327 20.4908 72.3645C20.5098 72.3962 20.5223 72.4314 20.5276 72.468C20.5329 72.5046 20.5308 72.5419 20.5215 72.5777L16.2923 89.8619L47.0132 90.7704C48.6233 89.4076 51.146 87.2556 51.3785 87.0115C51.4088 86.9674 51.451 86.9328 51.5002 86.9117C51.5493 86.8906 51.6034 86.8838 51.6562 86.8922C51.7696 86.8922 51.832 86.9206 51.8717 87.2556C51.917 87.7156 51.9113 88.7433 51.8717 91.1111C53.3173 90.5887 58.3571 88.8398 60.2109 88.8398C60.3864 88.8431 60.5568 88.899 60.7003 89.0002C60.8438 89.1014 60.9537 89.2433 61.0159 89.4076C61.9684 91.4518 59.3152 99.2364 57.9149 100.877C56.2709 102.842 48.1811 102.058 47.0926 101.945C45.749 102.104 29.0535 104.296 16.2356 104.296Z" fill="#231F20"/>
<path d="M61.9007 77.5914C61.8353 77.5914 61.772 77.5688 61.7214 77.5275C61.6708 77.4861 61.636 77.4284 61.6229 77.3643L57.0877 53.698C57.0803 53.6618 57.0801 53.6245 57.0873 53.5882C57.0944 53.552 57.1087 53.5175 57.1293 53.4869C57.1499 53.4562 57.1764 53.43 57.2072 53.4097C57.238 53.3894 57.2725 53.3754 57.3088 53.3686C57.3824 53.3554 57.4583 53.3718 57.5199 53.4143C57.5815 53.4569 57.6238 53.5221 57.6376 53.5957L62.2011 77.2564C62.2144 77.3302 62.198 77.4062 62.1555 77.4679C62.113 77.5296 62.0479 77.572 61.9744 77.5858L61.9007 77.5914Z" fill="#231F20"/>
<path d="M21.2699 70.261H21.1849C21.1498 70.2501 21.1172 70.2322 21.089 70.2085C21.0608 70.1848 21.0376 70.1558 21.0207 70.123C21.0038 70.0903 20.9936 70.0545 20.9906 70.0177C20.9877 69.981 20.9921 69.944 21.0035 69.909L23.5263 61.9937C23.5488 61.9184 23.6003 61.8552 23.6694 61.8179C23.7385 61.7806 23.8196 61.7724 23.8947 61.795C23.9699 61.8176 24.0331 61.8691 24.0703 61.9384C24.1075 62.0076 24.1157 62.0888 24.0932 62.164L21.5704 70.0793C21.5471 70.1384 21.5051 70.1882 21.4508 70.2211C21.3965 70.2539 21.333 70.268 21.2699 70.261Z" fill="#231F20"/>
<path d="M100.264 66.9676L134.851 29.0662L135.39 29.4296L101.71 67.9443L100.264 66.9676Z" fill="#231F20"/>
<path d="M101.709 68.2283C101.654 68.2279 101.6 68.21 101.556 68.1772L100.104 67.2062C100.07 67.183 100.041 67.1528 100.02 67.1175C99.9983 67.0823 99.9846 67.0428 99.9796 67.0018C99.9746 66.9609 99.9787 66.9193 99.9914 66.8801C100.004 66.8409 100.025 66.8049 100.053 66.7747L134.635 28.8733C134.681 28.8234 134.744 28.792 134.812 28.7847C134.879 28.7774 134.947 28.7947 135.003 28.8335L135.57 29.1912C135.604 29.2138 135.632 29.2431 135.654 29.2774C135.675 29.3116 135.689 29.35 135.695 29.39C135.7 29.4305 135.696 29.4715 135.684 29.5105C135.673 29.5496 135.653 29.5858 135.627 29.6171L101.947 68.1318C101.917 68.1648 101.88 68.1907 101.839 68.2074C101.798 68.2241 101.753 68.2312 101.709 68.2283ZM100.694 66.9167L101.663 67.5696L134.964 29.4865L134.896 29.4411L100.694 66.9167Z" fill="#231F20"/>
<path d="M97.5811 60.9944C99.8487 58.9843 102.269 55.8046 103.403 54.5894C103.62 54.329 103.883 54.1113 104.18 53.9478C104.558 53.7994 104.966 53.743 105.37 53.7832C107.833 53.8629 110.27 54.3049 112.604 55.0948C113.349 55.2809 114.019 55.6935 114.52 56.2759C114.659 56.4518 114.731 56.6709 114.724 56.8948C114.69 57.2979 114.294 57.5534 113.919 57.7067C112.715 58.1379 111.439 58.3307 110.161 58.2746C108.335 58.2746 107.74 57.8317 105.926 57.6386C106.153 57.6386 106.436 59.5976 105.869 60.7729C105.247 61.8815 104.402 62.8483 103.386 63.612" fill="white"/>
<path d="M103.386 63.8788C103.346 63.8784 103.306 63.8697 103.269 63.8531C103.232 63.8364 103.198 63.8123 103.171 63.7823C103.119 63.7282 103.089 63.6559 103.089 63.5807C103.089 63.5054 103.119 63.4331 103.171 63.3791L103.245 63.3166C104.204 62.5901 105.001 61.6716 105.586 60.6196C105.93 59.7358 105.984 58.7651 105.739 57.8486C105.687 57.8129 105.648 57.7605 105.628 57.6999C105.609 57.6394 105.611 57.5741 105.633 57.5145C105.655 57.4549 105.697 57.4046 105.751 57.3715C105.805 57.3384 105.869 57.3244 105.932 57.3319C106.556 57.4012 107.175 57.5112 107.786 57.6613C108.552 57.8623 109.341 57.9634 110.133 57.9622C111.375 58.0105 112.615 57.8177 113.784 57.3944C114.01 57.3035 114.39 57.1048 114.418 56.8266C114.412 56.6713 114.357 56.522 114.26 56.4007C113.794 55.8668 113.174 55.4917 112.485 55.3276C110.178 54.5415 107.767 54.1032 105.331 54.0273C104.974 53.9884 104.612 54.0351 104.276 54.1636C104.013 54.3092 103.779 54.5016 103.585 54.7314C103.233 55.1061 102.751 55.6739 102.196 56.3326C100.816 58.0346 99.328 59.6449 97.7399 61.1533C97.7136 61.1799 97.6822 61.201 97.6477 61.2154C97.6131 61.2299 97.5761 61.2373 97.5387 61.2373C97.5012 61.2373 97.4642 61.2299 97.4296 61.2154C97.3951 61.201 97.3637 61.1799 97.3374 61.1533C97.2851 61.0993 97.2559 61.027 97.2559 60.9517C97.2559 60.8765 97.2851 60.8042 97.3374 60.7502C98.9066 59.2609 100.378 57.6715 101.742 55.9919C102.309 55.3219 102.785 54.7484 103.148 54.368C103.397 54.0346 103.731 53.7751 104.116 53.6171C104.5 53.4591 104.92 53.4086 105.331 53.4708C107.821 53.5513 110.285 53.999 112.644 54.7995C113.447 55.0018 114.166 55.4505 114.702 56.0828C114.88 56.3147 114.971 56.6024 114.957 56.8947C114.929 57.1957 114.736 57.6272 113.982 57.9395C112.74 58.3761 111.425 58.5688 110.11 58.5073C109.276 58.5084 108.445 58.4015 107.638 58.1893C107.241 58.0985 106.839 58.0076 106.334 57.9338C106.533 58.9095 106.442 59.9219 106.074 60.8467C105.453 61.9644 104.61 62.9424 103.596 63.7198L103.522 63.7823C103.488 63.8271 103.44 63.8607 103.386 63.8788Z" fill="#231F20"/>
</svg>
