<svg width="185" height="126" viewBox="0 0 185 126" fill="none" xmlns="http://www.w3.org/2000/svg">
<path d="M168.398 0.289429H20.1533V89.6772H168.398V0.289429Z" fill="white"/>
<path d="M168.398 89.9668H20.1535C20.0769 89.9668 20.0034 89.9363 19.9492 89.882C19.895 89.8277 19.8645 89.7541 19.8645 89.6773V0.289468C19.8645 0.212697 19.895 0.139069 19.9492 0.0847831C20.0034 0.0304973 20.0769 0 20.1535 0H168.398C168.475 0 168.548 0.0304973 168.602 0.0847831C168.657 0.139069 168.687 0.212697 168.687 0.289468V89.6773C168.687 89.7541 168.657 89.8277 168.602 89.882C168.548 89.9363 168.475 89.9668 168.398 89.9668ZM20.4252 89.3879H168.109V0.578937H20.4425L20.4252 89.3879Z" fill="#231F20"/>
<path d="M152.727 17.8662H139.832V30.7823H152.727V17.8662Z" fill="white"/>
<path d="M152.728 31.0714H139.832C139.755 31.0714 139.682 31.0409 139.628 30.9866C139.573 30.9323 139.543 30.8587 139.543 30.7819V17.8427C139.543 17.7659 139.573 17.6923 139.628 17.638C139.682 17.5837 139.755 17.5532 139.832 17.5532H152.728C152.804 17.5547 152.876 17.5857 152.93 17.6396C152.984 17.6936 153.015 17.7664 153.017 17.8427V30.7819C153.017 30.8587 152.986 30.9323 152.932 30.9866C152.878 31.0409 152.804 31.0714 152.728 31.0714ZM140.121 30.4925H152.439V18.1553H140.121V30.4925Z" fill="#D1D3D4"/>
<path d="M150.375 20.9285H142.179C142.103 20.927 142.03 20.896 141.976 20.8421C141.922 20.7881 141.891 20.7153 141.89 20.639C141.89 20.5623 141.92 20.4887 141.975 20.4344C142.029 20.3801 142.102 20.3496 142.179 20.3496H150.375C150.452 20.3496 150.525 20.3801 150.58 20.4344C150.634 20.4887 150.664 20.5623 150.664 20.639C150.664 20.7158 150.634 20.7894 150.58 20.8437C150.525 20.898 150.452 20.9285 150.375 20.9285Z" fill="#D1D3D4"/>
<path d="M150.375 23.337H142.179C142.102 23.337 142.029 23.3065 141.975 23.2523C141.92 23.198 141.89 23.1244 141.89 23.0476C141.891 22.9713 141.922 22.8986 141.976 22.8446C142.03 22.7906 142.103 22.7597 142.179 22.7582H150.375C150.452 22.7582 150.525 22.7887 150.58 22.843C150.634 22.8972 150.664 22.9708 150.664 23.0476C150.664 23.1244 150.634 23.198 150.58 23.2523C150.525 23.3065 150.452 23.337 150.375 23.337Z" fill="#D1D3D4"/>
<path d="M150.375 25.7511H142.179C142.102 25.7511 142.029 25.7206 141.975 25.6663C141.92 25.612 141.89 25.5384 141.89 25.4617C141.891 25.3854 141.922 25.3126 141.976 25.2587C142.03 25.2047 142.103 25.1737 142.179 25.1722H150.375C150.452 25.1722 150.525 25.2027 150.58 25.257C150.634 25.3113 150.664 25.3849 150.664 25.4617C150.664 25.5384 150.634 25.612 150.58 25.6663C150.525 25.7206 150.452 25.7511 150.375 25.7511Z" fill="#D1D3D4"/>
<path d="M147.185 28.1652H142.208C142.131 28.1652 142.058 28.1347 142.004 28.0804C141.949 28.0261 141.919 27.9525 141.919 27.8757C141.92 27.7994 141.951 27.7267 142.005 27.6727C142.059 27.6188 142.132 27.5878 142.208 27.5863H147.185C147.261 27.5878 147.334 27.6188 147.387 27.6727C147.441 27.7267 147.472 27.7994 147.474 27.8757C147.474 27.9525 147.443 28.0261 147.389 28.0804C147.335 28.1347 147.261 28.1652 147.185 28.1652Z" fill="#D1D3D4"/>
<path d="M39.0128 19.2844H26.1172V32.2004H39.0128V19.2844Z" fill="white"/>
<path d="M39.014 32.49H26.1184C26.0417 32.49 25.9682 32.4595 25.914 32.4052C25.8598 32.3509 25.8293 32.2773 25.8293 32.2005V19.2845C25.8293 19.2077 25.8598 19.1341 25.914 19.0798C25.9682 19.0255 26.0417 18.995 26.1184 18.995H39.014C39.0906 18.995 39.1641 19.0255 39.2183 19.0798C39.2725 19.1341 39.303 19.2077 39.303 19.2845V32.2005C39.3015 32.2768 39.2706 32.3496 39.2167 32.4036C39.1628 32.4575 39.0902 32.4885 39.014 32.49ZM26.4074 31.9111H38.725V19.5797H26.4074V31.9111Z" fill="#D1D3D4"/>
<path d="M36.6606 22.3414H28.4643C28.3877 22.3414 28.3141 22.3109 28.2599 22.2566C28.2057 22.2024 28.1753 22.1287 28.1753 22.0519C28.1753 21.9752 28.2057 21.9015 28.2599 21.8472C28.3141 21.793 28.3877 21.7625 28.4643 21.7625H36.6606C36.7373 21.7625 36.8108 21.793 36.865 21.8472C36.9192 21.9015 36.9496 21.9752 36.9496 22.0519C36.9496 22.1287 36.9192 22.2024 36.865 22.2566C36.8108 22.3109 36.7373 22.3414 36.6606 22.3414Z" fill="#D1D3D4"/>
<path d="M36.6606 24.7552H28.4643C28.3877 24.7552 28.3141 24.7247 28.2599 24.6705C28.2057 24.6162 28.1753 24.5425 28.1753 24.4658C28.1753 24.389 28.2057 24.3153 28.2599 24.2611C28.3141 24.2068 28.3877 24.1763 28.4643 24.1763H36.6606C36.7373 24.1763 36.8108 24.2068 36.865 24.2611C36.9192 24.3153 36.9496 24.389 36.9496 24.4658C36.9496 24.5425 36.9192 24.6162 36.865 24.6705C36.8108 24.7247 36.7373 24.7552 36.6606 24.7552Z" fill="#D1D3D4"/>
<path d="M36.6606 27.1696H28.4643C28.3877 27.1696 28.3141 27.1391 28.2599 27.0848C28.2057 27.0305 28.1753 26.9568 28.1753 26.8801C28.1753 26.8033 28.2057 26.7297 28.2599 26.6754C28.3141 26.6211 28.3877 26.5906 28.4643 26.5906H36.6606C36.7373 26.5906 36.8108 26.6211 36.865 26.6754C36.9192 26.7297 36.9496 26.8033 36.9496 26.8801C36.9496 26.9568 36.9192 27.0305 36.865 27.0848C36.8108 27.1391 36.7373 27.1696 36.6606 27.1696Z" fill="#D1D3D4"/>
<path d="M33.441 29.5836H28.4643C28.3877 29.5836 28.3141 29.5531 28.2599 29.4988C28.2057 29.4445 28.1753 29.3709 28.1753 29.2941C28.1753 29.2174 28.2057 29.1437 28.2599 29.0894C28.3141 29.0351 28.3877 29.0046 28.4643 29.0046H33.441C33.5177 29.0046 33.5912 29.0351 33.6454 29.0894C33.6996 29.1437 33.73 29.2174 33.73 29.2941C33.7286 29.3704 33.6976 29.4432 33.6438 29.4972C33.5899 29.5512 33.5172 29.5821 33.441 29.5836Z" fill="#D1D3D4"/>
<path d="M52.8229 40.433H39.9272V53.3491H52.8229V40.433Z" fill="#D1D3D4"/>
<path d="M50.4697 43.8951H42.2734C42.1967 43.8951 42.1232 43.8646 42.069 43.8104C42.0148 43.7561 41.9844 43.6824 41.9844 43.6057C41.9859 43.5293 42.0168 43.4566 42.0707 43.4026C42.1245 43.3486 42.1972 43.3176 42.2734 43.3162H50.4697C50.5463 43.3162 50.6198 43.3467 50.674 43.401C50.7282 43.4552 50.7587 43.5289 50.7587 43.6057C50.7587 43.6824 50.7282 43.7561 50.674 43.8104C50.6198 43.8646 50.5463 43.8951 50.4697 43.8951Z" fill="white"/>
<path d="M50.4697 47.3108H42.2734C42.1967 47.3108 42.1232 47.2803 42.069 47.226C42.0148 47.1717 41.9844 47.0981 41.9844 47.0214C41.9859 46.9451 42.0168 46.8723 42.0707 46.8183C42.1245 46.7644 42.1972 46.7334 42.2734 46.7319H50.4697C50.5463 46.7319 50.6198 46.7624 50.674 46.8167C50.7282 46.871 50.7587 46.9446 50.7587 47.0214C50.7587 47.0981 50.7282 47.1717 50.674 47.226C50.6198 47.2803 50.5463 47.3108 50.4697 47.3108Z" fill="white"/>
<path d="M47.2501 50.7322H42.2734C42.1967 50.7322 42.1232 50.7017 42.069 50.6474C42.0148 50.5931 41.9844 50.5195 41.9844 50.4427C41.9859 50.3665 42.0168 50.2937 42.0707 50.2397C42.1245 50.1858 42.1972 50.1548 42.2734 50.1533H47.2501C47.3263 50.1548 47.399 50.1858 47.4528 50.2397C47.5067 50.2937 47.5376 50.3665 47.5391 50.4427C47.5391 50.5195 47.5087 50.5931 47.4545 50.6474C47.4003 50.7017 47.3268 50.7322 47.2501 50.7322Z" fill="white"/>
<path d="M55.6843 84.0094C55.6076 84.0094 55.5341 83.9789 55.4799 83.9246C55.4257 83.8703 55.3953 83.7967 55.3953 83.7199V3.01035C55.3967 2.93405 55.4277 2.86128 55.4815 2.80731C55.5354 2.75334 55.6081 2.72237 55.6843 2.72089C55.7609 2.72089 55.8344 2.75138 55.8886 2.80567C55.9428 2.85996 55.9733 2.93358 55.9733 3.01035V83.7199C55.9733 83.7967 55.9428 83.8703 55.8886 83.9246C55.8344 83.9789 55.7609 84.0094 55.6843 84.0094Z" fill="#D1D3D4"/>
<path d="M94.279 84.0094C94.2024 84.0094 94.1288 83.9789 94.0746 83.9246C94.0204 83.8703 93.99 83.7967 93.99 83.7199V3.01035C93.99 2.93358 94.0204 2.85996 94.0746 2.80567C94.1288 2.75138 94.2024 2.72089 94.279 2.72089C94.3552 2.72237 94.4279 2.75334 94.4818 2.80731C94.5356 2.86128 94.5666 2.93405 94.5681 3.01035V83.7199C94.5681 83.7967 94.5376 83.8703 94.4834 83.9246C94.4292 83.9789 94.3557 84.0094 94.279 84.0094Z" fill="#D1D3D4"/>
<path d="M132.866 84.0094C132.79 84.0094 132.716 83.9789 132.662 83.9246C132.608 83.8703 132.577 83.7967 132.577 83.7199V3.01035C132.579 2.93405 132.61 2.86128 132.664 2.80731C132.718 2.75334 132.79 2.72237 132.866 2.72089C132.943 2.72089 133.017 2.75138 133.071 2.80567C133.125 2.85996 133.155 2.93358 133.155 3.01035V83.7199C133.155 83.7967 133.125 83.8703 133.071 83.9246C133.017 83.9789 132.943 84.0094 132.866 84.0094Z" fill="#D1D3D4"/>
<path d="M139.958 104.481C139.958 104.481 133.346 101.123 129.993 102.802C126.641 104.481 124.664 104.481 124.791 105.697C124.918 106.912 126.467 106.918 126.467 106.918C126.467 106.918 124.485 107.816 125.704 108.655C126.414 109.16 127.275 109.405 128.143 109.35C128.143 109.35 124.941 110.421 126.467 111.335C127.993 112.25 131.242 111.984 132.357 112.192C133.473 112.401 143.374 115.608 143.374 115.608L139.958 104.481Z" fill="white"/>
<path d="M143.398 115.909C143.368 115.915 143.336 115.915 143.306 115.909C143.207 115.88 133.41 112.708 132.323 112.505C131.831 112.442 131.335 112.407 130.838 112.401C129.329 112.349 127.456 112.285 126.335 111.613C125.838 111.312 125.757 110.977 125.786 110.751C125.838 110.27 126.416 109.859 126.982 109.593C126.473 109.469 125.99 109.251 125.56 108.95C125.398 108.864 125.262 108.734 125.17 108.574C125.078 108.414 125.033 108.232 125.04 108.047C125.08 107.857 125.157 107.677 125.267 107.517C125.378 107.357 125.518 107.22 125.682 107.115C125.381 107.029 125.111 106.858 124.906 106.621C124.701 106.385 124.569 106.094 124.526 105.784C124.404 104.782 125.306 104.446 126.797 103.89C127.837 103.498 128.854 103.048 129.844 102.542C133.283 100.805 139.791 104.082 140.063 104.22C140.131 104.258 140.183 104.32 140.207 104.394L143.647 115.533C143.663 115.583 143.665 115.636 143.653 115.687C143.641 115.739 143.615 115.785 143.577 115.822C143.529 115.87 143.466 115.901 143.398 115.909ZM128.167 109.072C128.232 109.072 128.296 109.094 128.346 109.135C128.397 109.177 128.431 109.234 128.445 109.298C128.461 109.368 128.451 109.442 128.416 109.506C128.38 109.569 128.323 109.617 128.254 109.639C127.375 109.935 126.404 110.467 126.37 110.797C126.37 110.913 126.555 111.046 126.641 111.098C127.63 111.677 129.531 111.758 130.867 111.81C131.391 111.81 131.914 111.847 132.433 111.92C133.416 112.106 140.866 114.497 142.953 115.168L139.716 104.684C138.855 104.267 133.075 101.581 130.121 103.063C129.106 103.562 128.064 104.005 127 104.388C125.514 104.938 125.04 105.164 125.104 105.668C125.219 106.617 126.439 106.635 126.491 106.635C126.556 106.636 126.619 106.659 126.669 106.7C126.72 106.741 126.755 106.798 126.769 106.862C126.783 106.925 126.775 106.992 126.747 107.05C126.718 107.109 126.671 107.156 126.612 107.185C126.214 107.364 125.647 107.764 125.624 108.053C125.624 108.169 125.705 108.296 125.896 108.429C126.548 108.889 127.336 109.117 128.133 109.078L128.167 109.072Z" fill="#231F20"/>
<path d="M132.63 114.091L128.977 99.2413L115.874 102.09L118.752 117.443L132.63 114.091Z" fill="white"/>
<path d="M118.752 117.732C118.697 117.735 118.642 117.719 118.596 117.686C118.562 117.666 118.533 117.638 118.511 117.605C118.488 117.572 118.474 117.535 118.469 117.495L115.579 102.142C115.565 102.067 115.581 101.991 115.623 101.928C115.666 101.865 115.73 101.821 115.804 101.806L128.902 98.9575C128.976 98.9418 129.053 98.9554 129.116 98.9954C129.18 99.0354 129.225 99.0986 129.243 99.1718L132.896 114.021C132.907 114.058 132.91 114.097 132.905 114.135C132.9 114.172 132.888 114.209 132.868 114.241C132.827 114.306 132.762 114.352 132.688 114.369L118.816 117.727L118.752 117.732ZM116.215 102.315L118.978 117.09L132.272 113.877L128.758 99.5886L116.215 102.315Z" fill="#D1D3D4"/>
<path d="M132.457 103.624C132.457 103.624 125.023 104.278 125.763 105.673C126.503 107.068 131.237 106.767 131.237 106.767C131.237 106.767 131.318 109.853 133.827 109.442" fill="white"/>
<path d="M133.386 109.772C132.883 109.784 132.393 109.613 132.005 109.292C131.403 108.703 131.035 107.915 130.97 107.074C129.849 107.121 126.225 107.167 125.508 105.812C125.451 105.713 125.421 105.6 125.421 105.485C125.421 105.37 125.451 105.258 125.508 105.158C126.161 103.942 131.392 103.421 132.444 103.334C132.521 103.327 132.597 103.351 132.656 103.401C132.715 103.45 132.752 103.521 132.759 103.598C132.766 103.674 132.742 103.751 132.693 103.81C132.644 103.869 132.573 103.906 132.496 103.913C130.034 104.133 126.398 104.747 126.028 105.436C126.016 105.451 126.009 105.471 126.009 105.491C126.009 105.511 126.016 105.53 126.028 105.546C126.502 106.443 129.467 106.6 131.23 106.484C131.309 106.481 131.385 106.507 131.444 106.559C131.473 106.586 131.496 106.618 131.512 106.654C131.528 106.69 131.536 106.728 131.537 106.767C131.537 106.767 131.583 108.192 132.386 108.852C132.583 109.005 132.811 109.112 133.054 109.166C133.296 109.22 133.548 109.219 133.791 109.164C133.829 109.158 133.868 109.16 133.905 109.169C133.942 109.178 133.978 109.194 134.009 109.216C134.04 109.239 134.066 109.267 134.087 109.3C134.107 109.333 134.12 109.369 134.126 109.407C134.132 109.445 134.131 109.484 134.122 109.522C134.113 109.559 134.097 109.595 134.074 109.626C134.052 109.657 134.023 109.683 133.991 109.703C133.958 109.724 133.921 109.737 133.883 109.743C133.719 109.764 133.553 109.774 133.386 109.772Z" fill="#231F20"/>
<path d="M179.593 87.4541C179.593 87.4541 188.46 111.694 182.13 114.149C175.801 116.603 151.386 108.701 151.386 108.701L153.738 97.0586L179.593 87.4541Z" fill="white"/>
<path d="M178.68 114.913C169.744 114.913 152.161 109.257 151.3 108.979C151.233 108.956 151.177 108.911 151.141 108.85C151.104 108.79 151.091 108.718 151.103 108.649L153.456 97.0065C153.467 96.9584 153.489 96.9136 153.521 96.8763C153.554 96.8389 153.595 96.8101 153.641 96.7923L179.495 87.182C179.566 87.153 179.645 87.153 179.715 87.182C179.784 87.2145 179.838 87.2726 179.865 87.3441C180.235 88.3457 188.755 111.885 182.235 114.415C181.088 114.787 179.885 114.956 178.68 114.913ZM151.722 108.504C154.3 109.321 176.195 116.14 182.021 113.883C184.461 112.933 184.784 108.093 182.958 99.9475C182.003 95.8443 180.822 91.7971 179.42 87.8246L153.987 97.2786L151.722 108.504Z" fill="#231F20"/>
<path d="M171.241 64.3429C171.241 64.3429 175.455 66.6586 182.646 91.8598L169.669 96.5781L171.241 64.3429Z" fill="#FF5C64"/>
<path d="M120.613 47.0848H107.717V60.001H120.613V47.0848Z" fill="white"/>
<path d="M120.595 60.2904H107.717C107.64 60.2904 107.567 60.2599 107.513 60.2056C107.458 60.1513 107.428 60.0777 107.428 60.0009V47.0849C107.428 47.0081 107.458 46.9345 107.513 46.8802C107.567 46.8259 107.64 46.7954 107.717 46.7954H120.595C120.672 46.7954 120.745 46.8259 120.8 46.8802C120.854 46.9345 120.884 47.0081 120.884 47.0849V60.0009C120.884 60.0777 120.854 60.1513 120.8 60.2056C120.745 60.2599 120.672 60.2904 120.595 60.2904ZM107.989 59.7115H120.306V47.3686H108.006L107.989 59.7115Z" fill="#D1D3D4"/>
<path d="M118.283 50.1416H110.064C109.988 50.1401 109.915 50.1092 109.861 50.0552C109.807 50.0012 109.776 49.9285 109.775 49.8522C109.775 49.7754 109.805 49.7018 109.86 49.6475C109.914 49.5932 109.987 49.5627 110.064 49.5627H118.283C118.36 49.5627 118.433 49.5932 118.488 49.6475C118.542 49.7018 118.572 49.7754 118.572 49.8522C118.571 49.9285 118.54 50.0012 118.486 50.0552C118.432 50.1092 118.36 50.1401 118.283 50.1416Z" fill="#D1D3D4"/>
<path d="M118.283 52.5791H110.064C109.988 52.5776 109.915 52.5466 109.861 52.4927C109.807 52.4387 109.776 52.3659 109.775 52.2896C109.775 52.2128 109.805 52.1392 109.86 52.0849C109.914 52.0306 109.987 52.0001 110.064 52.0001H118.283C118.36 52.0001 118.433 52.0306 118.488 52.0849C118.542 52.1392 118.572 52.2128 118.572 52.2896C118.571 52.3659 118.54 52.4387 118.486 52.4927C118.432 52.5466 118.36 52.5776 118.283 52.5791Z" fill="#D1D3D4"/>
<path d="M118.283 54.97H110.064C109.988 54.9685 109.915 54.9375 109.861 54.8836C109.807 54.8296 109.776 54.7568 109.775 54.6805C109.775 54.6038 109.805 54.5302 109.86 54.4759C109.914 54.4216 109.987 54.3911 110.064 54.3911H118.283C118.36 54.3911 118.433 54.4216 118.488 54.4759C118.542 54.5302 118.572 54.6038 118.572 54.6805C118.571 54.7568 118.54 54.8296 118.486 54.8836C118.432 54.9375 118.36 54.9685 118.283 54.97Z" fill="#D1D3D4"/>
<path d="M115.041 57.384H110.064C109.988 57.3826 109.915 57.3516 109.861 57.2976C109.807 57.2437 109.776 57.1709 109.775 57.0946C109.775 57.0178 109.805 56.9442 109.86 56.8899C109.914 56.8357 109.987 56.8052 110.064 56.8052H115.041C115.117 56.8052 115.191 56.8357 115.245 56.8899C115.299 56.9442 115.33 57.0178 115.33 57.0946C115.328 57.1709 115.297 57.2437 115.243 57.2976C115.189 57.3516 115.117 57.3826 115.041 57.384Z" fill="#D1D3D4"/>
<path d="M138.786 85.7174C138.786 85.7174 127.139 95.0325 121.174 93.3189C115.208 91.6052 110.769 69.9704 106.723 61.9984C102.336 53.3144 105.677 50.026 107.301 48.9203C108.457 48.1445 109.451 53.9512 110.538 55.2596C110.908 53.5633 110.289 52.1218 111.729 53.1233C112.752 53.8354 113.295 61.1127 113.295 61.1127C113.295 61.1127 127.116 78.6255 127.746 78.6892L132.948 74.8971" fill="white"/>
<path d="M122.815 93.8168C122.241 93.8227 121.669 93.7486 121.115 93.5968C117.035 92.439 113.844 82.817 110.763 73.5366C109.272 69.0441 107.873 64.8005 106.515 62.1316C102.266 53.7428 105.098 50.1071 107.168 48.6829C107.249 48.6213 107.344 48.5806 107.445 48.5645C107.546 48.5483 107.649 48.5572 107.746 48.5902C108.393 48.8045 108.856 50.0607 109.543 52.0986C109.827 52.9381 110.121 53.7891 110.399 54.4144C110.399 54.2001 110.428 53.9917 110.434 53.8065C110.434 53.187 110.474 52.7412 110.821 52.5675C111.168 52.3939 111.549 52.6312 111.931 52.8975C112.988 53.6328 113.503 59.5958 113.613 61.0027C118.774 67.5447 126.566 77.2534 127.791 78.336L132.803 74.6656C132.865 74.6216 132.943 74.6037 133.018 74.6155C133.093 74.6274 133.161 74.6682 133.207 74.7293C133.23 74.76 133.246 74.7949 133.255 74.832C133.264 74.869 133.266 74.9075 133.26 74.9451C133.254 74.9828 133.241 75.0189 133.221 75.0514C133.201 75.0839 133.175 75.1121 133.144 75.1345L127.971 78.9208C127.914 78.9625 127.844 78.983 127.774 78.9787C127.133 78.915 119.439 69.3278 113.104 61.2921C113.066 61.2461 113.044 61.1894 113.04 61.13C112.821 58.1717 112.225 53.8007 111.601 53.3607C111.197 53.0828 111.075 53.077 111.064 53.0828C111.032 53.3266 111.014 53.5722 111.012 53.818C111.005 54.3238 110.951 54.8278 110.85 55.3233C110.838 55.3764 110.812 55.4251 110.774 55.464C110.737 55.5029 110.689 55.5304 110.636 55.5433C110.583 55.5555 110.528 55.5528 110.477 55.5354C110.426 55.518 110.381 55.4866 110.347 55.4449C109.873 54.8659 109.451 53.6154 109 52.2839C108.549 50.9523 107.983 49.2792 107.561 49.1402C107.561 49.1402 107.561 49.1402 107.503 49.1402C105.59 50.4544 102.983 53.8586 107.035 61.8769C108.405 64.5863 109.821 68.8241 111.318 73.3572C114.208 82.0702 117.491 91.9526 121.283 93.041C127.005 94.691 138.496 85.5843 138.624 85.5149C138.684 85.4747 138.757 85.4587 138.828 85.47C138.9 85.4813 138.965 85.519 139.01 85.5758C139.055 85.6326 139.077 85.7042 139.072 85.7766C139.067 85.8489 139.035 85.9167 138.982 85.9664C138.514 86.2964 129.04 93.8168 122.815 93.8168Z" fill="#231F20"/>
<path d="M148.264 44.9602C148.264 44.9602 145.01 49.7249 145.652 50.7496C146.293 51.7744 148.49 51.1318 148.49 51.1318" fill="white"/>
<path d="M147.115 51.6064C146.794 51.641 146.469 51.5939 146.171 51.4694C145.873 51.3449 145.611 51.1471 145.409 50.8943C144.716 49.8059 147.242 45.9501 148.028 44.798C148.049 44.7663 148.077 44.7391 148.109 44.7181C148.141 44.6971 148.177 44.6826 148.215 44.6756C148.252 44.6686 148.291 44.6692 148.328 44.6773C148.366 44.6854 148.401 44.7008 148.433 44.7228C148.494 44.767 148.536 44.8332 148.55 44.9075C148.564 44.9818 148.549 45.0587 148.508 45.1222C146.993 47.3396 145.566 50.0606 145.895 50.5817C146.329 51.259 147.86 50.9985 148.409 50.8422C148.486 50.8207 148.568 50.8306 148.637 50.8697C148.707 50.9088 148.758 50.9738 148.779 51.0506C148.801 51.1274 148.791 51.2096 148.752 51.279C148.713 51.3485 148.648 51.3996 148.571 51.4211C148.095 51.5436 147.606 51.6059 147.115 51.6064Z" fill="#231F20"/>
<path d="M149.045 38.6037C146.998 40.2247 147.53 43.7331 147.507 46.0083C147.484 49.2079 147.532 52.4075 147.652 55.6071C147.727 57.6391 152.969 57.7665 153.906 57.176L152.964 65.1769L164.05 61.1243L163.848 51.8613C163.848 51.8613 160.38 51.8613 158.397 47.6641C156.414 43.4668 156.605 37.1448 156.605 37.1448C156.605 37.1448 151.05 37.0174 149.045 38.6037Z" fill="white"/>
<path d="M152.965 65.4661C152.9 65.4652 152.837 65.4428 152.786 65.4024C152.747 65.372 152.716 65.3321 152.697 65.2865C152.677 65.2409 152.67 65.1911 152.676 65.1419L153.572 57.6157C152.364 57.9109 149.849 57.8183 148.462 57.0888C148.162 56.9706 147.901 56.7709 147.708 56.5121C147.515 56.2534 147.398 55.9459 147.369 55.6241C147.248 52.44 147.202 49.2037 147.225 46.0138C147.225 45.6317 147.225 45.2148 147.225 44.7806C147.156 42.5691 147.075 39.8192 148.895 38.4123C150.953 36.7797 156.41 36.8897 156.629 36.8897C156.707 36.8928 156.779 36.926 156.832 36.9823C156.885 37.0386 156.914 37.1134 156.913 37.1908C156.913 37.2545 156.751 43.5244 158.647 47.5769C160.531 51.5311 163.808 51.6295 163.849 51.6295C163.924 51.6309 163.996 51.6611 164.05 51.7138C164.103 51.7665 164.135 51.8379 164.138 51.9132L164.34 61.1761C164.34 61.2364 164.322 61.2954 164.288 61.345C164.254 61.3947 164.206 61.4328 164.149 61.454L153.063 65.5066C153.028 65.4992 152.995 65.4854 152.965 65.4661ZM153.913 56.8862C153.968 56.8845 154.023 56.9008 154.069 56.9325C154.114 56.9621 154.151 57.0037 154.174 57.0527C154.198 57.1018 154.207 57.1563 154.202 57.2104L153.306 64.7366L163.756 60.9098L163.566 52.1216C162.67 52.0232 159.866 51.4153 158.138 47.7853C156.369 44.0686 156.3 38.7481 156.311 37.4281C155.155 37.4281 150.878 37.5266 149.231 38.8234C147.641 40.0855 147.722 42.6733 147.786 44.7517C147.786 45.1917 147.786 45.6201 147.786 46.008C147.786 49.1864 147.786 52.411 147.93 55.5952C147.93 55.9715 148.208 56.2957 148.716 56.5678C150.202 57.3494 153.132 57.3088 153.739 56.9267C153.789 56.8945 153.848 56.8802 153.907 56.8862H153.913Z" fill="#231F20"/>
<path d="M175.235 125.71L175.247 109.454L138.433 109.257L134.647 125.71H175.235Z" fill="#231F20"/>
<path d="M175.235 126H134.647C134.604 125.999 134.561 125.988 134.523 125.969C134.484 125.95 134.45 125.923 134.423 125.889C134.396 125.856 134.377 125.816 134.366 125.775C134.356 125.733 134.355 125.689 134.364 125.646L138.15 109.187C138.165 109.124 138.202 109.068 138.253 109.028C138.305 108.988 138.368 108.967 138.433 108.967L175.247 109.164C175.323 109.166 175.396 109.197 175.45 109.251C175.503 109.305 175.534 109.377 175.536 109.454V125.71C175.536 125.749 175.528 125.788 175.513 125.824C175.498 125.86 175.475 125.892 175.447 125.919C175.419 125.946 175.386 125.967 175.349 125.981C175.313 125.995 175.274 126.001 175.235 126ZM135.011 125.421H174.929V109.743L138.635 109.546L135.011 125.421Z" fill="#231F20"/>
<path d="M146.855 63.1908C152.087 58.6693 169.011 57.8994 171.242 64.3487C173.473 70.7981 176.785 110.907 176.785 110.907C164.41 115.116 136.162 110.982 136.162 110.982L140.127 91.6224C140.127 91.6224 141.214 68.0713 146.855 63.1908Z" fill="#FF5C64"/>
<path d="M153.907 57.1757C153.907 57.1757 156.601 57.0888 157.895 55.2421C157.895 55.2421 157.728 58.4667 153.537 59.8098L153.907 57.1757Z" fill="#231F20"/>
<path d="M153.543 60.105C153.476 60.105 153.411 60.0826 153.358 60.0413C153.319 60.0094 153.29 59.9682 153.271 59.9216C153.253 59.8751 153.247 59.8246 153.254 59.775L153.624 57.1409C153.634 57.0737 153.668 57.0123 153.718 56.967C153.769 56.9216 153.833 56.8951 153.901 56.8919C153.93 56.8919 156.468 56.7877 157.664 55.0857C157.699 55.0333 157.75 54.9941 157.81 54.9742C157.87 54.9542 157.934 54.9548 157.994 54.9757C158.053 54.9966 158.104 55.036 158.139 55.0881C158.175 55.1402 158.192 55.2022 158.19 55.2651C158.19 55.4041 157.959 58.704 153.63 60.0934C153.602 60.1029 153.572 60.1069 153.543 60.105ZM154.167 57.4535L153.895 59.3871C154.665 59.1441 155.374 58.7374 155.972 58.1949C156.571 57.6523 157.045 56.9867 157.364 56.2435C156.427 56.933 155.319 57.3498 154.161 57.4477L154.167 57.4535Z" fill="#231F20"/>
<path d="M149.441 44.5659C149.689 44.5524 149.863 44.029 149.829 43.3969C149.795 42.7648 149.566 42.2633 149.317 42.2767C149.068 42.2902 148.894 42.8136 148.929 43.4457C148.963 44.0779 149.192 44.5794 149.441 44.5659Z" fill="#231F20"/>
<path d="M146.854 63.1909L128.098 75.2328L135.259 94.6213L149.473 88.8667L146.854 63.1909Z" fill="#FF5C64"/>
<path d="M139.67 92.9078C139.619 92.9079 139.568 92.8947 139.524 92.8693C139.479 92.8439 139.442 92.8073 139.416 92.7631C139.378 92.697 139.367 92.6185 139.387 92.5448C139.406 92.4711 139.454 92.4081 139.52 92.3694C139.612 92.3173 148.288 87.24 152.415 82.5274C152.44 82.4985 152.47 82.4747 152.503 82.4576C152.537 82.4404 152.574 82.4302 152.611 82.4275C152.649 82.4248 152.687 82.4297 152.723 82.4419C152.759 82.4541 152.792 82.4733 152.82 82.4985C152.877 82.5497 152.912 82.6213 152.918 82.6981C152.923 82.7749 152.898 82.8507 152.849 82.9095C148.664 87.7205 139.901 92.8441 139.814 92.8962C139.768 92.9108 139.718 92.9147 139.67 92.9078Z" fill="#231F20"/>
<path d="M175.895 101.117C175.823 101.119 175.752 101.093 175.699 101.044C175.645 100.996 175.612 100.929 175.606 100.856C175.028 94.1813 172.935 76.489 172.912 76.3095C172.906 76.2332 172.928 76.1572 172.975 76.097C173.023 76.0367 173.091 75.9968 173.167 75.9853C173.243 75.9771 173.32 75.9992 173.38 76.0467C173.441 76.0943 173.48 76.1637 173.49 76.2401C173.49 76.4195 175.583 94.1234 176.184 100.804C176.189 100.881 176.164 100.956 176.114 101.015C176.064 101.073 175.994 101.11 175.918 101.117H175.895Z" fill="#231F20"/>
<path d="M147.553 52.4225C147.553 52.4225 151.727 52.2662 151.727 52.4225C151.256 53.3884 150.426 54.1306 149.415 54.4893C149.035 54.588 148.633 54.535 148.292 54.3416C147.951 54.1481 147.699 53.8295 147.588 53.453L147.553 52.4225Z" fill="#231F20"/>
<path d="M148.965 54.8311C148.587 54.8156 148.223 54.6816 147.925 54.4478C147.628 54.214 147.411 53.8924 147.306 53.5284C147.303 53.5034 147.303 53.4782 147.306 53.4532L147.277 52.4342C147.275 52.3579 147.303 52.2838 147.355 52.2277C147.407 52.1715 147.478 52.1377 147.554 52.1332C151.71 51.9769 151.832 52.0927 151.936 52.1911C151.994 52.2496 152.027 52.3285 152.028 52.4111C151.801 52.9629 151.457 53.4588 151.02 53.8646C150.583 54.2704 150.063 54.5764 149.496 54.7616C149.323 54.8069 149.144 54.8302 148.965 54.8311ZM147.872 53.3895C147.912 53.5408 147.982 53.6824 148.078 53.8059C148.174 53.9294 148.294 54.0321 148.43 54.1078C148.567 54.1836 148.718 54.2308 148.873 54.2466C149.029 54.2625 149.186 54.2466 149.335 54.2C150.14 53.9148 150.826 53.3662 151.283 52.6427C150.635 52.6427 149.213 52.6427 147.855 52.7006L147.872 53.3895Z" fill="#231F20"/>
<path d="M170.582 34.0876C174.305 37.9491 175.536 43.5648 175.981 48.9142C176.426 54.2636 176.27 59.7461 177.883 64.8697C179.31 69.4259 182.143 73.9243 181.201 78.6079C180.623 81.3636 178.79 83.7372 176.501 85.364C174.154 86.9204 171.534 88.0184 168.779 88.6003C165.265 89.4629 159.611 90.505 156.456 88.0214C155.345 87.0898 154.483 85.8961 153.947 84.5477C152.259 80.6689 152.265 76.1995 153.294 72.0948C154.565 67.0349 157.837 62.9824 159.346 58.0788C159.727 56.8283 160.039 55.4793 159.698 54.2173C159.357 52.9552 158.311 51.8378 157.49 50.7436C155.01 47.3395 154.808 43.4375 155.588 39.466C153.456 39.3212 147.831 39.9754 148.467 36.1602C148.675 34.9213 149.623 33.9429 150.583 33.1556C151.115 32.7294 151.677 32.3425 152.265 31.9977C157.912 28.6051 165.958 29.294 170.582 34.0876Z" fill="white"/>
<path d="M162.069 89.8627C159.965 89.8627 157.826 89.4806 156.288 88.2706C155.135 87.3112 154.244 86.0742 153.699 84.6754C152.127 81.0628 151.89 76.5703 153.028 72.0372C153.71 69.3046 154.988 66.8268 156.225 64.4474C157.368 62.3897 158.323 60.2332 159.08 58.0038C159.542 56.8281 159.664 55.5463 159.433 54.3044C159.095 53.3365 158.566 52.4466 157.878 51.6876C157.67 51.4271 157.468 51.1666 157.271 50.9003C155.086 47.9014 154.427 44.2425 155.254 39.721H154.393C152.468 39.721 149.826 39.6805 148.687 38.32C148.444 38.0114 148.273 37.6519 148.187 37.268C148.101 36.8842 148.102 36.4859 148.19 36.1027C148.433 34.6611 149.578 33.5959 150.416 32.9243C150.965 32.4842 151.544 32.0837 152.15 31.7259C158.057 28.2175 166.259 29.167 170.826 33.8969C173.982 37.1737 175.721 41.9383 176.305 48.9029C176.421 50.275 176.496 51.676 176.571 53.0308C176.785 56.9559 177.005 61.0143 178.19 64.7947C178.577 66.0163 179.068 67.2552 179.548 68.4594C180.866 71.7593 182.224 75.1751 181.519 78.6776C180.835 81.5123 179.099 83.9798 176.664 85.5785C174.658 87.0027 172.172 88.0448 168.843 88.8611C166.632 89.458 164.358 89.7941 162.069 89.8627ZM160.057 30.1744C157.364 30.1531 154.715 30.8569 152.387 32.2122C151.811 32.5587 151.261 32.9456 150.739 33.3701C149.526 34.3485 148.89 35.2458 148.728 36.1953C148.655 36.4936 148.65 36.8045 148.713 37.1051C148.776 37.4056 148.906 37.6882 149.092 37.9321C150.063 39.09 152.653 39.09 154.358 39.1305C154.832 39.1305 155.248 39.1305 155.583 39.1305C155.625 39.1327 155.666 39.1442 155.703 39.1642C155.74 39.1843 155.772 39.2123 155.797 39.2463C155.821 39.2792 155.838 39.3167 155.847 39.3566C155.856 39.3965 155.857 39.4378 155.849 39.4779C154.965 43.982 155.566 47.583 157.705 50.5298C157.895 50.7903 158.092 51.045 158.283 51.2997C159.022 52.1185 159.586 53.0799 159.942 54.1249C160.208 55.4729 160.083 56.869 159.583 58.1485C158.819 60.4103 157.852 62.598 156.693 64.6847C155.479 67.041 154.213 69.4841 153.549 72.153C152.439 76.5645 152.664 80.9239 154.184 84.4149C154.695 85.7233 155.526 86.882 156.601 87.7843C159.982 90.4185 166.531 88.8206 168.681 88.2938C171.935 87.4948 174.357 86.4817 176.305 85.098C178.602 83.5588 180.238 81.2116 180.889 78.5213C181.559 75.1866 180.23 71.8578 178.947 68.6331C178.467 67.4231 177.964 66.1668 177.577 64.9279C176.369 61.078 176.143 56.9849 175.93 53.025C175.854 51.6703 175.779 50.275 175.664 48.9087C175.086 42.0889 173.404 37.4342 170.346 34.2616C168.986 32.9332 167.376 31.888 165.61 31.1864C163.844 30.4849 161.957 30.1409 160.057 30.1744Z" fill="#231F20"/>
<path d="M154.351 46.8937C154.453 46.0938 154.775 45.338 155.282 44.7111C155.593 44.1769 155.983 43.6928 156.438 43.2754C156.672 43.0695 156.95 42.9181 157.249 42.832C157.549 42.746 157.864 42.7273 158.172 42.7775C158.438 42.8492 158.686 42.9765 158.899 43.1512C159.112 43.3258 159.286 43.5438 159.409 43.7906C159.652 44.2884 159.78 44.8344 159.785 45.3885C159.819 46.5904 159.537 47.7801 158.968 48.8388C158.399 49.8975 157.563 50.7879 156.542 51.421L156.721 51.23" fill="white"/>
<path d="M156.542 51.7162C156.485 51.7165 156.429 51.6999 156.382 51.6685C156.334 51.6371 156.297 51.5922 156.274 51.5396C156.252 51.487 156.246 51.4289 156.257 51.3728C156.267 51.3166 156.294 51.2649 156.334 51.2241L156.513 51.0388C156.542 51.0067 156.578 50.982 156.618 50.9669C156.658 50.9518 156.702 50.9467 156.744 50.952C157.624 50.3234 158.336 49.4888 158.818 48.5209C159.301 47.5531 159.54 46.4816 159.513 45.4001C159.512 44.8904 159.395 44.3877 159.172 43.9296C159.069 43.7186 158.923 43.5321 158.743 43.3823C158.562 43.2326 158.352 43.1231 158.126 43.0612C157.861 43.021 157.591 43.0396 157.334 43.1156C157.078 43.1917 156.841 43.3233 156.64 43.5012C156.203 43.902 155.825 44.3641 155.519 44.8732C155.049 45.4591 154.746 46.1611 154.641 46.9053C154.64 46.9435 154.631 46.9813 154.616 47.0162C154.6 47.0511 154.578 47.0825 154.549 47.1085C154.521 47.1344 154.488 47.1544 154.452 47.1673C154.416 47.1801 154.378 47.1855 154.34 47.1832C154.302 47.1817 154.265 47.1727 154.23 47.1568C154.196 47.1408 154.165 47.1182 154.139 47.0903C154.113 47.0623 154.093 47.0295 154.08 46.9938C154.067 46.9581 154.061 46.9201 154.062 46.8821C154.169 46.0348 154.507 45.2333 155.039 44.5664C155.375 44.0093 155.792 43.5058 156.276 43.0728C156.541 42.8331 156.856 42.6566 157.198 42.5563C157.541 42.4561 157.901 42.4347 158.253 42.4938C158.561 42.5703 158.849 42.7137 159.095 42.9138C159.342 43.1138 159.542 43.3658 159.681 43.6517C159.949 44.1913 160.09 44.7856 160.091 45.3885C160.122 46.644 159.825 47.8859 159.229 48.9908C158.632 50.0958 157.758 51.0253 156.692 51.6872C156.646 51.7108 156.594 51.7208 156.542 51.7162Z" fill="#231F20"/>
<path d="M83.2145 47.1951H70.6831V59.7465H83.2145V47.1951Z" fill="white"/>
<path d="M83.2148 60.0356H70.6833C70.6066 60.0356 70.5331 60.0051 70.4789 59.9509C70.4247 59.8966 70.3943 59.8229 70.3943 59.7462V47.1949C70.3943 47.1181 70.4247 47.0445 70.4789 46.9902C70.5331 46.9359 70.6066 46.9054 70.6833 46.9054H83.2148C83.2914 46.9054 83.3649 46.9359 83.4191 46.9902C83.4733 47.0445 83.5038 47.1181 83.5038 47.1949V59.7462C83.5038 59.8229 83.4733 59.8966 83.4191 59.9509C83.3649 60.0051 83.2914 60.0356 83.2148 60.0356ZM70.9723 59.4567H82.9258V47.4843H70.9723V59.4567Z" fill="#D1D3D4"/>
<path d="M80.9321 50.1707H72.967C72.8903 50.1707 72.8168 50.1402 72.7626 50.0859C72.7084 50.0316 72.678 49.958 72.678 49.8812C72.678 49.8045 72.7084 49.7309 72.7626 49.6766C72.8168 49.6223 72.8903 49.5918 72.967 49.5918H80.9321C81.0088 49.5918 81.0823 49.6223 81.1365 49.6766C81.1907 49.7309 81.2211 49.8045 81.2211 49.8812C81.2211 49.958 81.1907 50.0316 81.1365 50.0859C81.0823 50.1402 81.0088 50.1707 80.9321 50.1707Z" fill="#D1D3D4"/>
<path d="M80.9321 52.515H72.967C72.8903 52.515 72.8168 52.4845 72.7626 52.4302C72.7084 52.3759 72.678 52.3023 72.678 52.2255C72.678 52.1487 72.7084 52.0751 72.7626 52.0208C72.8168 51.9665 72.8903 51.936 72.967 51.936H80.9321C81.0088 51.936 81.0823 51.9665 81.1365 52.0208C81.1907 52.0751 81.2211 52.1487 81.2211 52.2255C81.2211 52.3023 81.1907 52.3759 81.1365 52.4302C81.0823 52.4845 81.0088 52.515 80.9321 52.515Z" fill="#D1D3D4"/>
<path d="M80.9321 54.8948H72.967C72.8903 54.8948 72.8168 54.8643 72.7626 54.81C72.7084 54.7557 72.678 54.6821 72.678 54.6053C72.678 54.5286 72.7084 54.455 72.7626 54.4007C72.8168 54.3464 72.8903 54.3159 72.967 54.3159H80.9321C81.0088 54.3159 81.0823 54.3464 81.1365 54.4007C81.1907 54.455 81.2211 54.5286 81.2211 54.6053C81.2211 54.6821 81.1907 54.7557 81.1365 54.81C81.0823 54.8643 81.0088 54.8948 80.9321 54.8948Z" fill="#D1D3D4"/>
<path d="M77.8224 57.2106H72.967C72.8903 57.2106 72.8168 57.1801 72.7626 57.1258C72.7084 57.0715 72.678 56.9979 72.678 56.9211C72.678 56.8443 72.7084 56.7707 72.7626 56.7164C72.8168 56.6621 72.8903 56.6316 72.967 56.6316H77.8224C77.899 56.6316 77.9725 56.6621 78.0267 56.7164C78.0809 56.7707 78.1114 56.8443 78.1114 56.9211C78.1114 56.9979 78.0809 57.0715 78.0267 57.1258C77.9725 57.1801 77.899 57.2106 77.8224 57.2106Z" fill="#D1D3D4"/>
<path d="M89.5499 66.7803H76.6543V79.6964H89.5499V66.7803Z" fill="white"/>
<path d="M89.5497 79.9856H76.6657C76.5891 79.9856 76.5156 79.9551 76.4614 79.9008C76.4072 79.8465 76.3767 79.7729 76.3767 79.6961V66.7801C76.3767 66.7033 76.4072 66.6297 76.4614 66.5754C76.5156 66.5211 76.5891 66.4906 76.6657 66.4906H89.5613C89.6379 66.4906 89.7114 66.5211 89.7656 66.5754C89.8198 66.6297 89.8503 66.7033 89.8503 66.7801V79.6961C89.8503 79.7351 89.8425 79.7738 89.8272 79.8097C89.812 79.8456 89.7897 79.878 89.7616 79.905C89.7335 79.9321 89.7003 79.9531 89.6639 79.967C89.6275 79.9808 89.5886 79.9872 89.5497 79.9856ZM76.9432 79.4067H89.2607V67.0522H76.9432V79.4067Z" fill="#D1D3D4"/>
<path d="M87.2027 69.8372H78.9775C78.9008 69.8372 78.8273 69.8067 78.7731 69.7524C78.7189 69.6981 78.6885 69.6244 78.6885 69.5477C78.6885 69.4709 78.7189 69.3973 78.7731 69.343C78.8273 69.2887 78.9008 69.2582 78.9775 69.2582H87.1796C87.2562 69.2582 87.3297 69.2887 87.3839 69.343C87.4381 69.3973 87.4686 69.4709 87.4686 69.5477C87.4686 69.6244 87.4381 69.6981 87.3839 69.7524C87.3297 69.8067 87.2562 69.8372 87.1796 69.8372H87.2027Z" fill="#D1D3D4"/>
<path d="M87.2027 72.2631H78.9775C78.9008 72.2631 78.8273 72.2326 78.7731 72.1783C78.7189 72.124 78.6885 72.0504 78.6885 71.9736C78.6885 71.8969 78.7189 71.8233 78.7731 71.769C78.8273 71.7147 78.9008 71.6842 78.9775 71.6842H87.1796C87.2562 71.6842 87.3297 71.7147 87.3839 71.769C87.4381 71.8233 87.4686 71.8969 87.4686 71.9736C87.4686 72.0504 87.4381 72.124 87.3839 72.1783C87.3297 72.2326 87.2562 72.2631 87.1796 72.2631H87.2027Z" fill="#D1D3D4"/>
<path d="M87.2027 74.6658H78.9775C78.9008 74.6658 78.8273 74.6353 78.7731 74.581C78.7189 74.5267 78.6885 74.4531 78.6885 74.3763C78.6885 74.2995 78.7189 74.2259 78.7731 74.1716C78.8273 74.1173 78.9008 74.0868 78.9775 74.0868H87.1796C87.2562 74.0868 87.3297 74.1173 87.3839 74.1716C87.4381 74.2259 87.4686 74.2995 87.4686 74.3763C87.4686 74.4531 87.4381 74.5267 87.3839 74.581C87.3297 74.6353 87.2562 74.6658 87.1796 74.6658H87.2027Z" fill="#D1D3D4"/>
<path d="M83.9774 77.0798H78.9775C78.9008 77.0798 78.8273 77.0493 78.7731 76.995C78.7189 76.9408 78.6885 76.8671 78.6885 76.7903C78.6885 76.7136 78.7189 76.6399 78.7731 76.5856C78.8273 76.5313 78.9008 76.5009 78.9775 76.5009H83.9543C84.0309 76.5009 84.1044 76.5313 84.1586 76.5856C84.2128 76.6399 84.2433 76.7136 84.2433 76.7903C84.2433 76.8671 84.2128 76.9408 84.1586 76.995C84.1044 77.0493 84.0309 77.0798 83.9543 77.0798H83.9774Z" fill="#D1D3D4"/>
<path d="M52.175 95.4202C52.175 95.4202 64.4637 102.865 68.0937 102.674C71.7237 102.483 75.29 62.305 75.4692 60.8519C75.6022 59.8214 77.6021 55.9599 78.053 54.941C78.6047 53.5913 78.8534 52.1366 78.7813 50.68C78.6426 49.2269 76.0473 48.1269 75.3825 48.2601C73.3363 48.6653 72.3248 51.7742 71.0878 53.4705C70.7179 53.0942 70.7121 51.0621 70.5098 50.5758C67.8972 53.3258 68.637 57.2451 68.8394 60.6435C68.9434 62.3108 61.5852 83.8009 61.5852 83.8009L58.1691 81.8268" fill="white"/>
<path d="M67.9554 102.987C64.1174 102.987 52.5223 95.9878 52.0252 95.6868C51.9593 95.6469 51.9119 95.5823 51.8934 95.5074C51.875 95.4325 51.8871 95.3533 51.9269 95.2873C51.9668 95.2213 52.0312 95.1738 52.106 95.1554C52.1808 95.1369 52.2598 95.149 52.3258 95.1889C52.4471 95.2642 64.5971 102.605 68.0768 102.402C68.7878 102.368 71.4004 99.3515 75.0478 62.2068C75.1229 61.4484 75.1691 60.9679 75.1865 60.8347C75.279 60.0821 76.1922 58.1543 77.2038 56.0759C77.4581 55.5433 77.672 55.0975 77.7818 54.8427C78.316 53.5392 78.5568 52.1338 78.487 50.7265C78.3612 50.1891 78.0289 49.7231 77.5622 49.4297C76.9518 48.9405 76.2129 48.6388 75.435 48.5613C74.1056 48.8218 73.227 50.3907 72.3715 51.9133C72.0546 52.5133 71.7014 53.0933 71.3137 53.6501C71.2889 53.6846 71.257 53.7133 71.2201 53.7343C71.1832 53.7553 71.1422 53.7681 71.0999 53.7717C71.0583 53.7736 71.0169 53.7669 70.9781 53.752C70.9393 53.737 70.904 53.7142 70.8744 53.6849C70.6143 53.4186 70.5219 52.8049 70.4062 51.8323C70.4062 51.6239 70.3542 51.4096 70.3253 51.2186C68.5335 53.4707 68.7705 56.429 68.9959 59.289C69.0306 59.7521 69.071 60.2037 69.0941 60.6553C69.1982 62.3342 62.5799 81.7228 61.8226 83.9286C61.8072 83.9683 61.7836 84.0042 61.7533 84.0341C61.7229 84.0639 61.6867 84.087 61.6468 84.1018C61.6069 84.1166 61.5643 84.1227 61.5219 84.1198C61.4795 84.1169 61.4382 84.105 61.4007 84.0849L58.0135 82.1049C57.9479 82.0662 57.9001 82.0032 57.8806 81.9295C57.8612 81.8558 57.8715 81.7774 57.9094 81.7112C57.9491 81.6451 58.0131 81.5972 58.0876 81.5777C58.1622 81.5582 58.2414 81.5688 58.3083 81.607L61.3949 83.4249C64.3428 74.7756 68.5739 61.8421 68.5277 60.6842C68.5007 60.2365 68.466 59.7849 68.4236 59.3295C68.1867 56.3075 67.915 52.8859 70.2733 50.3965C70.3063 50.3636 70.3464 50.3387 70.3905 50.3237C70.4345 50.3086 70.4814 50.3038 70.5276 50.3097C70.5735 50.3178 70.6169 50.3368 70.654 50.3649C70.6912 50.3931 70.7212 50.4297 70.7415 50.4718C70.8799 50.8873 70.9616 51.3196 70.9843 51.757C71.019 52.0581 71.0768 52.527 71.1519 52.8686C71.3947 52.4923 71.6317 52.0696 71.8744 51.6296C72.7472 50.0723 73.7357 48.3065 75.3426 47.9939C75.8859 47.8839 77.0766 48.3413 77.9321 48.9665C78.2322 49.1543 78.4899 49.4027 78.689 49.6957C78.888 49.9887 79.0239 50.3201 79.0881 50.6686C79.1691 52.1768 78.9124 53.6841 78.3367 55.0801C78.2211 55.3406 78.0014 55.7864 77.7587 56.3248C77.0535 57.7722 75.8801 60.1863 75.7934 60.9042C75.7934 61.0374 75.7298 61.5121 75.6547 62.2647C71.6779 102.79 69.019 102.935 68.1404 102.981L67.9554 102.987Z" fill="#231F20"/>
<path d="M15.2574 125.71L16.3094 91.2173L3.73173 93.9093L3.19995 125.71H15.2574Z" fill="white"/>
<path d="M15.2566 126H3.19917C3.16126 126 3.12368 125.993 3.08884 125.978C3.054 125.963 3.02266 125.941 2.99686 125.913C2.94153 125.858 2.91035 125.783 2.91016 125.705L3.44193 93.9036C3.44294 93.8387 3.46572 93.776 3.5066 93.7256C3.54749 93.6752 3.60411 93.64 3.66736 93.6257L16.2508 90.9337C16.2935 90.9249 16.3375 90.9261 16.3796 90.9371C16.4217 90.9482 16.4607 90.9688 16.4936 90.9974C16.528 91.0237 16.5554 91.058 16.5735 91.0973C16.5917 91.1367 16.6 91.1799 16.5976 91.2231L15.5456 125.716C15.5427 125.791 15.5111 125.863 15.4574 125.916C15.4037 125.968 15.3319 125.998 15.2566 126ZM3.49395 125.421H14.9792L16.0081 91.5763L4.01417 94.1468L3.49395 125.421Z" fill="#231F20"/>
<path d="M11.9278 66.2245C11.9278 66.2245 5.74879 71.8229 4.15346 77.2243C2.55813 82.6258 0.13623 95.4203 0.13623 95.4203L20.9449 97.6492L11.9278 66.2245Z" fill="#FF5C64"/>
<path d="M34.9045 46.4656C34.3384 46.4711 33.7826 46.3136 33.3033 46.0118C32.824 45.7099 32.4415 45.2765 32.2012 44.7631C31.9609 44.2496 31.8729 43.6778 31.9479 43.1158C32.0228 42.5537 32.2574 42.0251 32.6238 41.5928C32.9902 41.1605 33.4729 40.8428 34.0145 40.6775C34.556 40.5121 35.1336 40.5062 35.6784 40.6603C36.2232 40.8145 36.7124 41.1222 37.0875 41.5468C37.4627 41.9715 37.7081 42.4952 37.7946 43.0556C37.8593 43.4749 37.8332 43.9032 37.718 44.3115C37.6029 44.7197 37.4014 45.0984 37.1273 45.4219C36.8532 45.7453 36.5128 46.0059 36.1293 46.186C35.7458 46.366 35.3281 46.4614 34.9045 46.4656ZM34.9045 41.1277C34.7833 41.1191 34.6616 41.1191 34.5403 41.1277C34.0757 41.1985 33.6424 41.4057 33.2953 41.7231C32.9483 42.0406 32.703 42.454 32.5906 42.9111C32.4782 43.3682 32.5037 43.8484 32.6638 44.291C32.824 44.7335 33.1116 45.1186 33.4903 45.3974C33.869 45.6762 34.3218 45.8362 34.7913 45.8572C35.2608 45.8782 35.726 45.7593 36.1281 45.5154C36.5301 45.2715 36.8508 44.9137 37.0497 44.4871C37.2486 44.0606 37.3168 43.5846 37.2455 43.1193C37.154 42.5645 36.8692 42.0601 36.4417 41.6955C36.0143 41.3309 35.4717 41.1298 34.9103 41.1277H34.9045Z" fill="#231F20"/>
<path d="M17.7545 57.8592C16.558 57.9923 15.35 57.9692 13.9512 58.0618C12.6564 58.1545 10.9397 57.9287 10.7142 56.6492C10.5235 55.555 11.7027 54.4493 11.2518 53.4303C11.1026 53.1624 10.9068 52.9232 10.6738 52.724C6.69701 48.8046 5.17682 41.8458 7.74901 36.8206C8.86515 34.6592 10.6328 32.905 12.8009 31.807C16.9262 29.8018 21.5595 29.0896 26.0953 29.7634C29.5635 30.2207 33.9564 32.2528 34.1356 36.3343C34.205 37.8048 33.2917 39.3911 31.8235 39.6806C31.7426 44.0921 29.945 47.3746 27.5982 50.9293C26.0303 53.3579 23.8854 55.3591 21.3556 56.7534C20.2406 57.3581 19.0163 57.734 17.7545 57.8592Z" fill="white"/>
<path d="M13.4303 58.3684C11.6963 58.3684 10.6154 57.7894 10.4304 56.6952C10.3796 56.1175 10.4938 55.5372 10.7599 55.0221C10.9853 54.4432 11.1818 53.98 10.9853 53.54C10.8677 53.322 10.7132 53.1262 10.5287 52.9611L10.4767 52.909C6.26869 48.7638 4.95659 41.6255 7.49987 36.6987C8.64004 34.4817 10.4507 32.6823 12.6731 31.5578C16.8511 29.5361 21.538 28.8142 26.1294 29.4852C30.1351 30.0004 34.2506 32.3162 34.424 36.3224C34.4876 37.7814 33.6552 39.4661 32.1119 39.9061C31.9674 44.4797 30.0137 47.8085 27.8461 51.0911C26.2472 53.5606 24.0629 55.5953 21.4879 57.0136C20.3292 57.6416 19.0585 58.0351 17.7481 58.1715C17.043 58.2468 16.3378 58.2757 15.5921 58.2989C15.0661 58.2989 14.517 58.3394 13.939 58.3741C13.7829 58.3684 13.6037 58.3684 13.4303 58.3684ZM22.7596 29.8268C19.3554 29.792 15.9903 30.5553 12.9332 32.0557C10.824 33.1322 9.10399 34.8428 8.01431 36.9477C5.58085 41.6892 6.85827 48.5264 10.9044 52.5095L10.9564 52.5616C11.1954 52.7709 11.3916 53.0245 11.5344 53.3084C11.6319 53.6277 11.6627 53.9636 11.6249 54.2953C11.5871 54.627 11.4816 54.9473 11.3148 55.2363C11.0948 55.6547 10.991 56.1245 11.0142 56.5968C11.2339 57.8531 13.3263 57.8126 13.9506 57.7547C14.5748 57.6968 15.1066 57.691 15.621 57.6736C16.3609 57.6736 17.0545 57.6215 17.7366 57.5463C18.9735 57.4294 20.1744 57.0652 21.2683 56.4752C23.7537 55.1012 25.8607 53.1321 27.4011 50.7438C29.9906 46.8244 31.505 43.756 31.5801 39.6513C31.5792 39.585 31.602 39.5205 31.6444 39.4695C31.6868 39.4186 31.746 39.3845 31.8113 39.3734C33.1523 39.1013 33.9211 37.5787 33.8633 36.3282C33.6841 32.1425 28.8808 30.3999 26.0716 30.0236C24.9729 29.8876 23.8666 29.8238 22.7596 29.8326V29.8268Z" fill="#231F20"/>
<path d="M33.9622 45.7533C33.9622 45.7533 37.8059 50.3327 37.2453 51.4385C36.6846 52.5442 34.3552 52.1216 34.3552 52.1216" fill="white"/>
<path d="M35.3198 52.492C34.9807 52.4941 34.6421 52.465 34.3082 52.4051C34.2703 52.3983 34.2341 52.384 34.2016 52.3631C34.1692 52.3423 34.1411 52.3152 34.1191 52.2835C34.0747 52.2194 34.0575 52.1403 34.0713 52.0635C34.0851 51.9868 34.1287 51.9186 34.1927 51.8741C34.2566 51.8296 34.3356 51.8124 34.4123 51.8262C34.9903 51.9304 36.6088 52.0462 36.9845 51.2936C37.2793 50.7146 35.5279 48.0574 33.7418 45.9269C33.7122 45.8989 33.6889 45.8649 33.6733 45.8272C33.6578 45.7896 33.6503 45.749 33.6515 45.7082C33.6527 45.6675 33.6624 45.6274 33.6801 45.5907C33.6978 45.554 33.7231 45.5214 33.7542 45.4952C33.7854 45.4689 33.8217 45.4495 33.8608 45.4383C33.9 45.4271 33.941 45.4243 33.9813 45.43C34.0216 45.4358 34.0603 45.4501 34.0947 45.4718C34.1291 45.4936 34.1586 45.5224 34.1811 45.5564C35.1117 46.6621 38.1 50.3731 37.5047 51.5599C37.1174 52.3299 36.1001 52.492 35.3198 52.492Z" fill="#231F20"/>
<path d="M32.5111 39.2635C34.7885 40.7282 34.5978 44.3987 34.8232 46.7376C35.1739 50.0375 35.4513 53.3413 35.6556 56.649C35.7827 58.7447 30.3898 59.4105 29.3667 58.9011L31.1875 67.0525L19.3496 64.0015L19.0317 57.1353C19.0317 57.1353 22.7079 56.7358 24.3264 52.2433C25.9448 47.7507 24.5807 38.5399 24.5807 38.5399C24.5807 38.5399 30.2858 37.8567 32.5111 39.2635Z" fill="white"/>
<path d="M31.1868 67.3533H31.1175L19.2796 64.3023C19.2197 64.2866 19.1662 64.2524 19.1268 64.2046C19.0874 64.1568 19.064 64.0978 19.0599 64.036L18.742 57.164C18.7386 57.0909 18.7629 57.0192 18.8101 56.9634C18.8573 56.9075 18.9238 56.8716 18.9964 56.8629C19.1409 56.8629 22.5165 56.4171 24.054 52.162C25.6263 47.7852 24.3084 38.6901 24.2968 38.5975C24.2901 38.5597 24.2918 38.5209 24.3018 38.4839C24.3118 38.4469 24.3298 38.4125 24.3546 38.3833C24.3772 38.3523 24.4056 38.3261 24.4384 38.3062C24.4711 38.2863 24.5075 38.2731 24.5454 38.2675C24.7823 38.2675 30.3834 37.5785 32.6377 39.0432C34.6549 40.3401 34.8515 43.1768 35.0075 45.4579C35.0075 45.9094 35.0653 46.3378 35.1058 46.7315C35.4584 50.0141 35.7416 53.3546 35.9439 56.6545C35.946 56.9871 35.8557 57.3137 35.6832 57.5979C35.5107 57.8821 35.2628 58.1127 34.9671 58.264C33.6145 59.1613 31.0134 59.5087 29.7649 59.3234L31.4585 67.0059C31.4689 67.0544 31.467 67.1048 31.4528 67.1523C31.4387 67.1999 31.4128 67.2431 31.3776 67.278C31.3248 67.3247 31.2572 67.3513 31.1868 67.3533ZM19.6264 63.787L30.7995 66.6817L29.1059 58.9934C29.095 58.9402 29.099 58.8851 29.1173 58.834C29.1357 58.783 29.1678 58.738 29.21 58.7039C29.254 58.6725 29.3055 58.6532 29.3593 58.6482C29.4131 58.6431 29.4673 58.6523 29.5163 58.675C30.1868 59.0108 33.2157 58.7503 34.6723 57.7892C34.8786 57.6893 35.0541 57.5354 35.1803 57.3438C35.3064 57.1523 35.3786 56.9301 35.389 56.7008C35.1867 53.4067 34.9093 50.0778 34.5567 46.8068C34.5104 46.4073 34.4815 45.9673 34.4526 45.51C34.3024 43.3563 34.1174 40.6816 32.3486 39.5411C30.5163 38.3833 26.0829 38.7075 24.9037 38.8232C25.1292 40.4732 26.0598 48.2599 24.5916 52.3646C23.1697 56.3187 20.2333 57.2219 19.3258 57.4071L19.6264 63.787Z" fill="#231F20"/>
<path d="M35.3196 54.2174C35.3196 54.2174 32.9555 56.0815 31.2734 53.598L35.3196 54.2174Z" fill="white"/>
<path d="M33.43 55.1784C33.2926 55.1801 33.1554 55.1704 33.0196 55.1494C32.6116 55.0728 32.2249 54.909 31.8858 54.6692C31.5467 54.4295 31.2631 54.1193 31.0543 53.7599C31.0119 53.6968 30.9961 53.6195 31.0101 53.5448C31.0242 53.47 31.0671 53.4038 31.1295 53.3605C31.1612 53.3388 31.197 53.3237 31.2346 53.3161C31.2723 53.3084 31.3111 53.3084 31.3488 53.3159C31.3864 53.3235 31.4222 53.3385 31.4541 53.36C31.4859 53.3816 31.5131 53.4093 31.5341 53.4415C31.6999 53.7346 31.9257 53.9892 32.1967 54.1888C32.4676 54.3883 32.7776 54.5282 33.1063 54.5994C33.8323 54.6619 34.5561 54.456 35.1409 54.0205C35.2023 53.9742 35.279 53.9532 35.3553 53.9619C35.4316 53.9705 35.5017 54.008 35.5513 54.0668C35.5982 54.1284 35.6191 54.2061 35.6094 54.283C35.5996 54.3599 35.5601 54.4299 35.4993 54.4779C34.8942 54.9118 34.1738 55.1557 33.43 55.1784Z" fill="#231F20"/>
<path d="M20.7205 49.5915H20.6858C20.6479 49.5873 20.6113 49.5754 20.5781 49.5566C20.5449 49.5379 20.5159 49.5126 20.4927 49.4824C20.4695 49.4521 20.4526 49.4174 20.4431 49.3805C20.4335 49.3435 20.4316 49.305 20.4372 49.2673C20.6511 47.5305 20.9806 47.4841 21.1193 47.4552C21.391 47.3857 31.9283 44.3984 37.4599 42.8236C37.4978 42.813 37.5375 42.8099 37.5767 42.8147C37.6158 42.8194 37.6536 42.8318 37.688 42.8511C37.7223 42.8705 37.7525 42.8964 37.7769 42.9274C37.8012 42.9585 37.8192 42.994 37.8298 43.0321C37.8405 43.0701 37.8435 43.1098 37.8388 43.149C37.8341 43.1882 37.8217 43.2261 37.8024 43.2605C37.7831 43.2949 37.7572 43.3251 37.7262 43.3495C37.6952 43.3739 37.6597 43.3919 37.6217 43.4026C36.0206 43.8542 22.4083 47.7215 21.3158 48.0341C21.1552 48.4664 21.0522 48.918 21.0095 49.3773C20.9916 49.4399 20.9536 49.4949 20.9014 49.5336C20.8491 49.5724 20.7855 49.5927 20.7205 49.5915Z" fill="#231F20"/>
<path d="M27.899 48.5902C27.7201 47.779 27.3199 47.0334 26.7429 46.4366C26.36 45.9179 25.8999 45.461 25.3788 45.0819C25.1173 44.8934 24.8173 44.7655 24.5004 44.7074C24.1835 44.6493 23.8577 44.6626 23.5465 44.7461C23.2841 44.8482 23.0459 45.0039 22.8469 45.2033C22.6478 45.4026 22.4924 45.6412 22.3904 45.904C22.1933 46.4403 22.1183 47.0139 22.1708 47.5829C22.2591 48.8284 22.673 50.0286 23.3711 51.0631C24.0691 52.0976 25.0267 52.9299 26.1476 53.4764L25.9395 53.297" fill="white"/>
<path d="M26.1073 53.7774C26.0654 53.7861 26.0221 53.7861 25.9801 53.7774C24.816 53.2046 23.8217 52.3369 23.0957 51.2604C22.3698 50.184 21.9374 48.9361 21.8415 47.6406C21.7869 47.0279 21.8698 46.4107 22.0843 45.8343C22.1989 45.5244 22.3783 45.2427 22.6106 45.008C22.8429 44.7734 23.1227 44.5912 23.4311 44.4738C23.7842 44.3731 24.1555 44.3542 24.517 44.4183C24.8785 44.4825 25.2207 44.6282 25.5177 44.8443C26.0636 45.2402 26.5485 45.7142 26.957 46.2512C27.5784 46.8922 28.0087 47.6942 28.1997 48.5669C28.2097 48.6437 28.1888 48.7213 28.1416 48.7826C28.0945 48.844 28.0249 48.884 27.9483 48.894C27.8716 48.904 27.7942 48.8831 27.7329 48.8358C27.6717 48.7886 27.6317 48.719 27.6217 48.6422C27.4357 47.8847 27.0505 47.191 26.5061 46.6333C26.1461 46.1353 25.7136 45.6943 25.2229 45.3249C24.9983 45.1591 24.7395 45.0456 24.4656 44.9925C24.1916 44.9394 23.9093 44.9481 23.6392 45.018C23.4121 45.1065 23.2062 45.242 23.0349 45.4156C22.8636 45.5891 22.7307 45.7969 22.645 46.0254C22.459 46.52 22.3897 47.051 22.4427 47.5769C22.5243 48.6969 22.8797 49.7795 23.4774 50.7295C24.0751 51.6795 24.8969 52.4677 25.8703 53.0248C25.9129 53.0164 25.9569 53.0178 25.9989 53.0288C26.041 53.0399 26.08 53.0602 26.1131 53.0884L26.3154 53.2679C26.3678 53.3137 26.4023 53.3766 26.4129 53.4455C26.4235 53.5144 26.4094 53.5847 26.3732 53.6442C26.3438 53.6872 26.304 53.722 26.2574 53.7453C26.2109 53.7686 26.1593 53.7796 26.1073 53.7774Z" fill="#231F20"/>
<path d="M33.2652 44.6592C33.518 44.6157 33.6328 44.0544 33.5215 43.4055C33.4103 42.7566 33.1151 42.2658 32.8623 42.3093C32.6095 42.3528 32.4947 42.9141 32.606 43.563C32.7172 44.2119 33.0124 44.7027 33.2652 44.6592Z" fill="#231F20"/>
<path d="M17.2979 66.3114L17.8412 62.5657L32.4362 61.7378L34.6326 66.9482C28.9269 68.5296 22.8726 68.3072 17.2979 66.3114Z" fill="white"/>
<path d="M27.095 68.2508C23.7264 68.2543 20.3813 67.6907 17.1993 66.5834C17.1364 66.5613 17.083 66.5182 17.0483 66.4612C17.0135 66.4042 16.9995 66.3369 17.0086 66.2708L17.5577 62.525C17.5659 62.4579 17.5978 62.396 17.6476 62.3503C17.6974 62.3047 17.7619 62.2784 17.8293 62.2761L32.4243 61.4482C32.4828 61.4449 32.5409 61.4598 32.5906 61.4909C32.6403 61.522 32.6792 61.5678 32.7018 61.6219L34.8982 66.8324C34.9153 66.8686 34.9241 66.9081 34.9241 66.9482C34.9241 66.9882 34.9153 67.0277 34.8982 67.064C34.883 67.1005 34.8602 67.1333 34.8313 67.1602C34.8024 67.1872 34.7681 67.2077 34.7306 67.2203C32.2499 67.9384 29.677 68.2857 27.095 68.2508ZM17.6155 66.1145C22.9771 67.9496 28.7573 68.175 34.2451 66.7629L32.2509 62.0329L18.0952 62.8435L17.6155 66.1145Z" fill="#231F20"/>
<path d="M49.7122 125.71L48.77 116.546L11.1987 117.269L11.0542 125.71H49.7122Z" fill="#231F20"/>
<path d="M49.7131 126H11.0551C11.0164 126 10.9779 125.993 10.9421 125.978C10.9063 125.963 10.8739 125.941 10.847 125.913C10.7953 125.856 10.7665 125.782 10.7661 125.704L10.9106 117.264C10.9106 117.188 10.9405 117.116 10.9936 117.063C11.0467 117.01 11.1187 116.98 11.1938 116.98L48.7651 116.256C48.8374 116.254 48.9076 116.28 48.9613 116.329C49.0151 116.377 49.0483 116.445 49.0541 116.517L50.0021 125.681C50.0073 125.721 50.0038 125.761 49.9918 125.799C49.9799 125.837 49.9597 125.872 49.9327 125.901C49.9053 125.933 49.8715 125.958 49.8336 125.974C49.7957 125.991 49.7546 126 49.7131 126ZM11.3499 125.421H49.3952L48.5108 116.841L11.4829 117.553L11.3499 125.421Z" fill="#231F20"/>
<path d="M46.9963 71.4408C46.9963 71.4408 45.0888 65.0088 25.6095 63.7988C20.3611 63.4688 15.315 64.5398 11.8932 66.2245C11.5232 69.2524 10.5406 102.564 9.74292 118.427C23.421 119.379 37.157 119.087 50.7823 117.553C50.7823 117.553 45.6379 74.7639 46.9963 71.4408Z" fill="#FF5C64"/>
<path d="M44.5739 68.7141C44.5739 68.7141 57.1978 79.546 61.4405 82.1975C61.4405 82.1975 59.1804 87.4079 53.0823 99.5077C44.3369 93.6257 31.499 84.027 31.499 84.027L44.5739 68.7141Z" fill="#FF5C64"/>
<path d="M9.8411 113.946C9.8031 113.943 9.76606 113.933 9.7321 113.916C9.69814 113.898 9.66793 113.875 9.64322 113.845C9.61851 113.816 9.59978 113.783 9.58811 113.746C9.57644 113.71 9.57205 113.672 9.57521 113.634C10.0376 107.607 10.922 77.5719 10.9335 77.2651C10.938 77.1898 10.971 77.1191 11.0258 77.0674C11.0806 77.0158 11.153 76.9871 11.2283 76.9872C11.2663 76.9879 11.3037 76.9962 11.3385 77.0114C11.3733 77.0267 11.4047 77.0486 11.431 77.076C11.4573 77.1035 11.4779 77.1358 11.4918 77.1712C11.5056 77.2066 11.5123 77.2444 11.5115 77.2824C11.5115 77.5893 10.6156 107.642 10.1532 113.68C10.1503 113.718 10.1399 113.755 10.1226 113.789C10.1053 113.823 10.0815 113.854 10.0525 113.878C10.0235 113.903 9.98986 113.922 9.95358 113.933C9.9173 113.945 9.87907 113.95 9.8411 113.946Z" fill="#231F20"/>
<path d="M53.089 99.797C53.0298 99.7988 52.9713 99.7826 52.9214 99.7507L35.2398 87.6335C35.1865 87.5869 35.1521 87.5224 35.1432 87.4521C35.1342 87.3818 35.1513 87.3107 35.1912 87.2522C35.2311 87.1937 35.291 87.1519 35.3596 87.1347C35.4282 87.1174 35.5008 87.126 35.5635 87.1588L53.2509 99.2701C53.3125 99.3155 53.3546 99.3826 53.3685 99.4579C53.3825 99.5332 53.3673 99.611 53.326 99.6754C53.2988 99.7129 53.2632 99.7434 53.222 99.7645C53.1808 99.7856 53.1353 99.7968 53.089 99.797Z" fill="#231F20"/>
<path d="M29.3954 58.9473C29.3954 58.9473 24.9967 58.0036 23.8696 56.782C24.2396 57.9422 25.021 58.9267 26.0661 59.5494C27.2656 60.2824 28.5559 60.8547 29.9041 61.2515L29.3954 58.9473Z" fill="#231F20"/>
<path d="M29.9043 61.512H29.8465C28.4719 61.1068 27.1564 60.5229 25.9333 59.7752C24.8281 59.1127 24.0051 58.0658 23.6213 56.8343C23.6026 56.7719 23.6069 56.7048 23.6335 56.6453C23.66 56.5858 23.7069 56.5378 23.7658 56.5101C23.8216 56.4792 23.8863 56.4681 23.9492 56.4786C24.0122 56.4891 24.0697 56.5206 24.1126 56.568C24.9854 57.5116 28.2858 58.3858 29.4881 58.6463C29.5421 58.6576 29.5917 58.6844 29.6307 58.7235C29.6698 58.7626 29.6965 58.8122 29.7078 58.8663L30.2164 61.182C30.2253 61.2306 30.2226 61.2805 30.2086 61.3278C30.1945 61.3751 30.1695 61.4184 30.1355 61.4541C30.1029 61.4791 30.0656 61.4971 30.0259 61.507C29.9861 61.517 29.9447 61.5187 29.9043 61.512ZM24.5692 57.6042C24.9758 58.2852 25.541 58.8573 26.2166 59.2716C27.2571 59.9013 28.364 60.4139 29.517 60.7999L29.1529 59.1616C27.5705 58.8199 26.0325 58.2974 24.5692 57.6042Z" fill="#231F20"/>
<path d="M167.346 12.3546H21.2058C21.1296 12.3531 21.0569 12.3222 21.003 12.2682C20.9492 12.2142 20.9182 12.1414 20.9167 12.0651C20.9167 11.9883 20.9472 11.9147 21.0014 11.8604C21.0556 11.8061 21.1291 11.7756 21.2058 11.7756H167.346C167.423 11.7756 167.497 11.8061 167.551 11.8604C167.605 11.9147 167.635 11.9883 167.635 12.0651C167.635 12.1419 167.605 12.2155 167.551 12.2698C167.497 12.3241 167.423 12.3546 167.346 12.3546Z" fill="#D1D3D4"/>
<path d="M86.8276 7.65906H63.2733C63.12 7.65906 62.973 7.59806 62.8646 7.48949C62.7562 7.38091 62.6953 7.23366 62.6953 7.08011C62.6953 6.92656 62.7562 6.7793 62.8646 6.67073C62.973 6.56216 63.12 6.50116 63.2733 6.50116H86.8276C86.9809 6.50116 87.1279 6.56216 87.2363 6.67073C87.3447 6.7793 87.4056 6.92656 87.4056 7.08011C87.4056 7.23366 87.3447 7.38091 87.2363 7.48949C87.1279 7.59806 86.9809 7.65906 86.8276 7.65906Z" fill="#D1D3D4"/>
<path d="M50.7883 7.65906H27.234C27.0807 7.65906 26.9337 7.59806 26.8253 7.48949C26.7169 7.38091 26.656 7.23366 26.656 7.08011C26.656 6.92656 26.7169 6.7793 26.8253 6.67073C26.9337 6.56216 27.0807 6.50116 27.234 6.50116H50.7883C50.9416 6.50116 51.0886 6.56216 51.197 6.67073C51.3054 6.7793 51.3663 6.92656 51.3663 7.08011C51.3663 7.23366 51.3054 7.38091 51.197 7.48949C51.0886 7.59806 50.9416 7.65906 50.7883 7.65906Z" fill="#D1D3D4"/>
<path d="M125.393 7.65906H101.839C101.686 7.65906 101.539 7.59806 101.43 7.48949C101.322 7.38091 101.261 7.23366 101.261 7.08011C101.261 6.92656 101.322 6.7793 101.43 6.67073C101.539 6.56216 101.686 6.50116 101.839 6.50116H125.393C125.547 6.50116 125.694 6.56216 125.802 6.67073C125.91 6.7793 125.971 6.92656 125.971 7.08011C125.971 7.23366 125.91 7.38091 125.802 7.48949C125.694 7.59806 125.547 7.65906 125.393 7.65906Z" fill="#D1D3D4"/>
<path d="M162.56 7.65906H139.006C138.852 7.65906 138.705 7.59806 138.597 7.48949C138.488 7.38091 138.427 7.23366 138.427 7.08011C138.427 6.92656 138.488 6.7793 138.597 6.67073C138.705 6.56216 138.852 6.50116 139.006 6.50116H162.56C162.713 6.50116 162.86 6.56216 162.968 6.67073C163.077 6.7793 163.138 6.92656 163.138 7.08011C163.138 7.23366 163.077 7.38091 162.968 7.48949C162.86 7.59806 162.713 7.65906 162.56 7.65906Z" fill="#D1D3D4"/>
<path d="M73.7298 25.6007H60.8342V38.5167H73.7298V25.6007Z" fill="white"/>
<path d="M73.7298 38.8063H60.8342C60.7575 38.8063 60.684 38.7758 60.6298 38.7215C60.5756 38.6672 60.5452 38.5936 60.5452 38.5168V25.6006C60.5452 25.5239 60.5756 25.4502 60.6298 25.3959C60.684 25.3417 60.7575 25.3112 60.8342 25.3112H73.7298C73.8064 25.3112 73.88 25.3417 73.9342 25.3959C73.9884 25.4502 74.0188 25.5239 74.0188 25.6006V38.5168C74.0188 38.5548 74.0113 38.5925 73.9968 38.6276C73.9823 38.6627 73.961 38.6946 73.9342 38.7215C73.9073 38.7484 73.8755 38.7697 73.8404 38.7842C73.8053 38.7988 73.7677 38.8063 73.7298 38.8063ZM61.1232 38.2273H73.4408V25.8901H61.1232V38.2273Z" fill="#D1D3D4"/>
<path d="M71.3822 28.6572H63.1801C63.1035 28.6572 63.03 28.6267 62.9758 28.5724C62.9216 28.5181 62.8911 28.4445 62.8911 28.3677C62.8926 28.2914 62.9235 28.2186 62.9774 28.1647C63.0313 28.1107 63.1039 28.0797 63.1801 28.0782H71.3822C71.4584 28.0797 71.531 28.1107 71.5849 28.1647C71.6388 28.2186 71.6697 28.2914 71.6712 28.3677C71.6712 28.4445 71.6408 28.5181 71.5866 28.5724C71.5324 28.6267 71.4588 28.6572 71.3822 28.6572Z" fill="#D1D3D4"/>
<path d="M71.3822 31.0715H63.1801C63.1035 31.0715 63.03 31.041 62.9758 30.9867C62.9216 30.9325 62.8911 30.8588 62.8911 30.782C62.8926 30.7057 62.9235 30.633 62.9774 30.579C63.0313 30.525 63.1039 30.494 63.1801 30.4926H71.3822C71.4584 30.494 71.531 30.525 71.5849 30.579C71.6388 30.633 71.6697 30.7057 71.6712 30.782C71.6712 30.8588 71.6408 30.9325 71.5866 30.9867C71.5324 31.041 71.4588 31.0715 71.3822 31.0715Z" fill="#D1D3D4"/>
<path d="M71.3822 33.4744H63.1801C63.1035 33.4744 63.03 33.4439 62.9758 33.3896C62.9216 33.3353 62.8911 33.2617 62.8911 33.1849C62.8926 33.1086 62.9235 33.0359 62.9774 32.9819C63.0313 32.928 63.1039 32.897 63.1801 32.8955H71.3822C71.4584 32.897 71.531 32.928 71.5849 32.9819C71.6388 33.0359 71.6697 33.1086 71.6712 33.1849C71.6712 33.2617 71.6408 33.3353 71.5866 33.3896C71.5324 33.4439 71.4588 33.4744 71.3822 33.4744Z" fill="#D1D3D4"/>
<path d="M68.1569 35.8999H63.1801C63.1035 35.8999 63.03 35.8694 62.9758 35.8151C62.9216 35.7608 62.8911 35.6872 62.8911 35.6104C62.8926 35.5341 62.9235 35.4613 62.9774 35.4074C63.0313 35.3534 63.1039 35.3224 63.1801 35.3209H68.1569C68.2331 35.3224 68.3058 35.3534 68.3596 35.4074C68.4135 35.4613 68.4444 35.5341 68.4459 35.6104C68.4459 35.6484 68.4385 35.6861 68.4239 35.7212C68.4094 35.7563 68.3881 35.7882 68.3613 35.8151C68.3344 35.842 68.3026 35.8633 68.2675 35.8779C68.2324 35.8924 68.1949 35.8999 68.1569 35.8999Z" fill="#D1D3D4"/>
<path d="M90.4232 17.0438H77.5276V29.96H90.4232V17.0438Z" fill="#D1D3D4"/>
<path d="M88.0761 20.6448H79.8798C79.8032 20.6448 79.7297 20.6143 79.6755 20.56C79.6213 20.5057 79.5908 20.4321 79.5908 20.3553C79.5908 20.2785 79.6213 20.2049 79.6755 20.1506C79.7297 20.0963 79.8032 20.0658 79.8798 20.0658H88.0761C88.1528 20.0658 88.2263 20.0963 88.2805 20.1506C88.3347 20.2049 88.3651 20.2785 88.3651 20.3553C88.3651 20.4321 88.3347 20.5057 88.2805 20.56C88.2263 20.6143 88.1528 20.6448 88.0761 20.6448Z" fill="white"/>
<path d="M88.0761 23.0533H79.8798C79.8032 23.0533 79.7297 23.0228 79.6755 22.9686C79.6213 22.9143 79.5908 22.8406 79.5908 22.7639C79.5908 22.6871 79.6213 22.6134 79.6755 22.5592C79.7297 22.5049 79.8032 22.4744 79.8798 22.4744H88.0761C88.1528 22.4744 88.2263 22.5049 88.2805 22.5592C88.3347 22.6134 88.3651 22.6871 88.3651 22.7639C88.3651 22.8406 88.3347 22.9143 88.2805 22.9686C88.2263 23.0228 88.1528 23.0533 88.0761 23.0533Z" fill="white"/>
<path d="M86.0068 25.4731H79.8798C79.8032 25.4731 79.7297 25.4426 79.6755 25.3884C79.6213 25.3341 79.5908 25.2604 79.5908 25.1837C79.5908 25.1069 79.6213 25.0332 79.6755 24.979C79.7297 24.9247 79.8032 24.8942 79.8798 24.8942H86.0068C86.0835 24.8942 86.157 24.9247 86.2112 24.979C86.2654 25.0332 86.2958 25.1069 86.2958 25.1837C86.2958 25.2604 86.2654 25.3341 86.2112 25.3884C86.157 25.4426 86.0835 25.4731 86.0068 25.4731Z" fill="white"/>
<path d="M113.613 15.5907H100.717V28.5067H113.613V15.5907Z" fill="white"/>
<path d="M113.613 28.7963H100.717C100.641 28.7963 100.567 28.7658 100.513 28.7115C100.459 28.6572 100.428 28.5836 100.428 28.5068V15.5907C100.43 15.5144 100.461 15.4417 100.515 15.3877C100.568 15.3337 100.641 15.3028 100.717 15.3013H113.613C113.689 15.3013 113.763 15.3318 113.817 15.3861C113.871 15.4403 113.902 15.514 113.902 15.5907V28.5068C113.902 28.5448 113.894 28.5825 113.88 28.6176C113.865 28.6527 113.844 28.6846 113.817 28.7115C113.79 28.7384 113.758 28.7597 113.723 28.7742C113.688 28.7888 113.651 28.7963 113.613 28.7963ZM101.006 28.2173H113.324V15.8802H101.006V28.2173Z" fill="#D1D3D4"/>
<path d="M111.267 18.6475H103.071C102.994 18.6475 102.92 18.617 102.866 18.5627C102.812 18.5084 102.781 18.4348 102.781 18.358C102.781 18.2813 102.812 18.2077 102.866 18.1534C102.92 18.0991 102.994 18.0686 103.071 18.0686H111.267C111.343 18.0686 111.417 18.0991 111.471 18.1534C111.525 18.2077 111.556 18.2813 111.556 18.358C111.556 18.4348 111.525 18.5084 111.471 18.5627C111.417 18.617 111.343 18.6475 111.267 18.6475Z" fill="#D1D3D4"/>
<path d="M111.267 21.0615H103.071C102.994 21.0615 102.92 21.031 102.866 20.9767C102.812 20.9224 102.781 20.8488 102.781 20.772C102.781 20.6953 102.812 20.6216 102.866 20.5673C102.92 20.513 102.994 20.4825 103.071 20.4825H111.267C111.343 20.4825 111.417 20.513 111.471 20.5673C111.525 20.6216 111.556 20.6953 111.556 20.772C111.556 20.8488 111.525 20.9224 111.471 20.9767C111.417 21.031 111.343 21.0615 111.267 21.0615Z" fill="#D1D3D4"/>
<path d="M111.267 23.4758H103.071C102.994 23.4758 102.92 23.4453 102.866 23.391C102.812 23.3368 102.781 23.2631 102.781 23.1863C102.781 23.1096 102.812 23.0359 102.866 22.9816C102.92 22.9274 102.994 22.8969 103.071 22.8969H111.267C111.343 22.8969 111.417 22.9274 111.471 22.9816C111.525 23.0359 111.556 23.1096 111.556 23.1863C111.556 23.2631 111.525 23.3368 111.471 23.391C111.417 23.4453 111.343 23.4758 111.267 23.4758Z" fill="#D1D3D4"/>
<path d="M108.041 25.8901H103.071C102.994 25.8901 102.92 25.8596 102.866 25.8053C102.812 25.7511 102.781 25.6774 102.781 25.6006C102.781 25.5239 102.812 25.4502 102.866 25.3959C102.92 25.3417 102.994 25.3112 103.071 25.3112H108.041C108.118 25.3112 108.192 25.3417 108.246 25.3959C108.3 25.4502 108.33 25.5239 108.33 25.6006C108.33 25.6774 108.3 25.7511 108.246 25.8053C108.192 25.8596 108.118 25.8901 108.041 25.8901Z" fill="#D1D3D4"/>
<path d="M129.572 26.7413H116.676V39.6573H129.572V26.7413Z" fill="#D1D3D4"/>
<path d="M127.22 29.7979H119.023C118.947 29.7979 118.873 29.7674 118.819 29.7131C118.765 29.6588 118.734 29.5851 118.734 29.5084C118.734 29.4316 118.765 29.358 118.819 29.3037C118.873 29.2494 118.947 29.2189 119.023 29.2189H127.22C127.296 29.2189 127.37 29.2494 127.424 29.3037C127.478 29.358 127.509 29.4316 127.509 29.5084C127.509 29.5851 127.478 29.6588 127.424 29.7131C127.37 29.7674 127.296 29.7979 127.22 29.7979Z" fill="white"/>
<path d="M127.22 32.2119H119.023C118.947 32.2119 118.873 32.1814 118.819 32.1271C118.765 32.0728 118.734 31.9992 118.734 31.9224C118.734 31.8456 118.765 31.772 118.819 31.7177C118.873 31.6634 118.947 31.6329 119.023 31.6329H127.22C127.296 31.6329 127.37 31.6634 127.424 31.7177C127.478 31.772 127.509 31.8456 127.509 31.9224C127.509 31.9992 127.478 32.0728 127.424 32.1271C127.37 32.1814 127.296 32.2119 127.22 32.2119Z" fill="white"/>
<path d="M127.22 34.6318H119.023C118.947 34.6318 118.873 34.6013 118.819 34.5471C118.765 34.4928 118.734 34.4192 118.734 34.3424C118.734 34.2656 118.765 34.192 118.819 34.1377C118.873 34.0835 118.947 34.053 119.023 34.053H127.22C127.296 34.053 127.37 34.0835 127.424 34.1377C127.478 34.192 127.509 34.2656 127.509 34.3424C127.509 34.4192 127.478 34.4928 127.424 34.5471C127.37 34.6013 127.296 34.6318 127.22 34.6318Z" fill="white"/>
<path d="M123.994 37.0405H119.023C118.947 37.0405 118.873 37.01 118.819 36.9557C118.765 36.9014 118.734 36.8278 118.734 36.751C118.734 36.6743 118.765 36.6006 118.819 36.5463C118.873 36.492 118.947 36.4615 119.023 36.4615H123.994C124.071 36.4615 124.144 36.492 124.199 36.5463C124.253 36.6006 124.283 36.6743 124.283 36.751C124.283 36.8278 124.253 36.9014 124.199 36.9557C124.144 37.01 124.071 37.0405 123.994 37.0405Z" fill="white"/>
</svg>
