<svg width="474" height="348" viewBox="0 0 474 348" fill="none" xmlns="http://www.w3.org/2000/svg">
<path d="M302.708 173.509V68.2415C302.709 65.9813 302.256 63.7439 301.375 61.6625C300.494 59.581 299.203 57.698 297.579 56.1254C295.956 54.5529 294.033 53.3229 291.924 52.5087C289.816 51.6944 287.565 51.3126 285.306 51.3858L193.042 54.1607C190.753 54.229 188.501 54.7628 186.424 55.7297C184.348 56.6966 182.49 58.0763 180.964 59.7846C179.438 61.4929 178.275 63.4941 177.548 65.6662C176.821 67.8383 176.543 70.1358 176.733 72.4186L185.869 181.819L302.708 173.509Z" fill="#231F20"/>
<path d="M185.914 182.542C185.729 182.546 185.55 182.48 185.413 182.357C185.276 182.233 185.191 182.062 185.176 181.878L176.084 72.4779C175.886 70.0993 176.175 67.7055 176.931 65.4418C177.687 63.1782 178.896 61.0919 180.484 59.3097C182.071 57.5275 184.004 56.0867 186.166 55.0747C188.327 54.0627 190.672 53.5008 193.058 53.4229L285.307 50.6628C287.66 50.5917 290.004 50.9937 292.199 51.8451C294.395 52.6964 296.397 53.9798 298.087 55.6191C299.777 57.2584 301.121 59.2203 302.039 61.3885C302.957 63.5567 303.431 65.8872 303.432 68.2418V173.509C303.432 173.695 303.363 173.874 303.237 174.011C303.111 174.148 302.938 174.232 302.753 174.247L185.943 182.542H185.914ZM285.867 52.124H285.307L193.043 54.8989C190.862 54.9771 188.72 55.4973 186.746 56.4279C184.773 57.3585 183.009 58.6802 181.561 60.3128C180.113 61.9454 179.012 63.855 178.324 65.9258C177.637 67.9966 177.376 70.1855 177.56 72.3598L186.622 181.037L302.03 172.83V68.2418C302.03 63.9671 300.331 59.8675 297.309 56.8448C294.286 53.8222 290.186 52.124 285.912 52.124H285.867Z" fill="#231F20"/>
<path d="M393.274 105.82C393.274 105.82 379.843 110.868 380.684 128.669C381.525 146.469 376.964 165.716 392.344 164.255L393.274 174.734L425.746 178.188C425.746 178.188 429.141 123.754 423.045 114.721C416.949 105.688 393.274 105.82 393.274 105.82Z" fill="white"/>
<path d="M425.776 178.911H425.702L393.23 175.458C393.06 175.441 392.9 175.366 392.779 175.245C392.658 175.124 392.582 174.964 392.566 174.793L391.71 165.052C390.348 165.219 388.966 165.1 387.652 164.704C386.339 164.307 385.122 163.642 384.079 162.749C379.651 158.676 379.843 150.071 380.02 140.108C380.02 136.374 380.153 132.507 380.02 128.713C379.577 119.252 383.134 113.363 386.205 110.072C388.127 107.962 390.47 106.278 393.083 105.127C393.171 105.113 393.26 105.113 393.348 105.127C394.337 105.127 417.51 105.23 423.754 114.411C429.997 123.592 426.706 176.033 426.587 178.277C426.58 178.376 426.553 178.474 426.508 178.562C426.462 178.651 426.399 178.73 426.322 178.793C426.161 178.9 425.966 178.942 425.776 178.911ZM393.953 174.026L425.097 177.332C425.466 170.69 427.96 123.252 422.455 115.149C416.949 107.046 395.356 106.529 393.407 106.514C392.02 107.075 380.655 112.271 381.408 128.654C381.599 132.507 381.526 136.388 381.408 140.152C381.245 149.362 381.098 158.071 385.009 161.687C386.677 163.237 389.038 163.842 392.227 163.546C392.423 163.53 392.618 163.588 392.773 163.709C392.922 163.836 393.017 164.016 393.038 164.211L393.953 174.026Z" fill="#231F20"/>
<path d="M415.606 163.162C432.945 163.162 447 147.719 447 128.668C447 109.618 432.945 94.1746 415.606 94.1746C398.268 94.1746 384.212 109.618 384.212 128.668C384.212 147.719 398.268 163.162 415.606 163.162Z" fill="white"/>
<path d="M415.607 163.9C397.895 163.9 383.475 148.093 383.475 128.669C383.475 109.245 397.895 93.4517 415.607 93.4517C433.319 93.4517 447.665 109.245 447.665 128.669C447.665 148.093 433.319 163.9 415.607 163.9ZM415.607 94.9129C398.707 94.9129 384.951 110.056 384.951 128.669C384.951 147.281 398.707 162.439 415.607 162.439C432.507 162.439 446.263 147.296 446.263 128.669C446.263 110.042 432.507 94.9129 415.607 94.9129Z" fill="#231F20"/>
<path d="M267.506 13.453C253.691 -5.92673 224.245 -1.58733 210.459 15.8441C203.197 25.0247 200.039 37.2901 191.272 45.0686C186.622 49.2161 180.763 51.7252 175.272 54.692C169.781 57.6587 164.35 61.4225 161.589 67.0164C158.829 72.6104 159.7 80.4184 164.969 83.7689C169.604 86.7208 175.98 85.4958 180.674 88.3739C174.77 89.1562 170.829 96.6099 173.545 101.938C175.847 106.47 181.25 108.329 186.179 109.554C203.566 113.982 222.12 115.547 239.315 110.41C252.156 106.588 265.263 98.0712 272.465 86.4994C279.299 75.5181 276.82 54.81 275.86 42.2199C275.167 33.054 273.705 23.6963 269.041 15.785C268.569 15.0027 268.052 14.2057 267.506 13.453Z" fill="white"/>
<path d="M216.304 114.307C206.086 114.202 195.919 112.844 186.032 110.263C180.91 108.994 175.346 107.031 172.925 102.278C172.247 100.834 171.923 99.2497 171.979 97.6557C172.036 96.0617 172.471 94.5042 173.25 93.1121C174.386 90.8668 176.293 89.1061 178.622 88.1527C176.737 87.51 174.787 87.0745 172.807 86.8539C169.929 86.6181 167.132 85.7783 164.6 84.389C158.785 80.6843 158.18 72.3154 160.955 66.6772C163.995 60.5518 170.032 56.6995 174.962 54.0427C176.202 53.3638 177.456 52.7144 178.726 52.0649C183.064 50.0674 187.135 47.5335 190.843 44.5226C195.818 40.0947 199.035 33.9989 202.15 28.1097C204.355 23.6471 206.954 19.3894 209.913 15.3867C213.867 10.4832 218.889 6.54835 224.596 3.8828C230.304 1.21725 236.545 -0.10847 242.842 0.00693803C247.785 0.0183448 252.654 1.20474 257.047 3.46823C261.441 5.73172 265.233 9.00744 268.111 13.0251C268.657 13.7926 269.189 14.6192 269.691 15.4605C274.635 23.8441 275.964 33.6889 276.613 42.2053C276.702 43.3566 276.805 44.5817 276.908 45.8658C277.927 58.8987 279.403 76.7139 273.1 86.9424C266.311 97.8795 253.765 106.927 239.536 111.178C231.985 113.341 224.159 114.395 216.304 114.307ZM241.883 1.46817C235.969 1.49213 230.135 2.82855 224.8 5.38097C219.466 7.9334 214.764 11.6382 211.035 16.228C208.124 20.1568 205.575 24.3411 203.419 28.7296C200.246 34.7369 196.954 40.936 191.788 45.5411C188.002 48.6449 183.835 51.2538 179.39 53.3047C178.135 53.9542 176.881 54.6036 175.656 55.2678C170.918 57.836 165.117 61.5112 162.283 67.2676C159.774 72.3302 160.261 79.8134 165.383 83.0901C167.739 84.403 170.343 85.2122 173.028 85.4665C175.843 85.7095 178.582 86.5071 181.087 87.8133C181.216 87.8928 181.317 88.0101 181.377 88.1491C181.437 88.2881 181.453 88.4421 181.422 88.5903C181.391 88.7385 181.316 88.8738 181.206 88.9777C181.096 89.0816 180.957 89.1491 180.807 89.1712C179.481 89.4395 178.232 89.9997 177.151 90.8109C176.069 91.6222 175.181 92.6642 174.552 93.8613C173.923 95.0584 173.569 96.3805 173.515 97.7317C173.46 99.0828 173.708 100.429 174.239 101.673C176.394 105.924 181.619 107.724 186.386 108.92C206.474 113.938 224.215 114.233 239.123 109.791C253.012 105.643 265.248 96.8168 271.86 86.1749C277.927 76.4039 276.495 58.8545 275.447 46.0429C275.344 44.7588 275.24 43.5337 275.152 42.3825C274.517 34.0284 273.218 24.3902 268.421 16.2575C267.949 15.4605 267.432 14.6782 266.945 13.9402C264.196 10.1099 260.575 6.98807 256.382 4.83238C252.188 2.67668 247.543 1.54887 242.828 1.54196L241.883 1.46817Z" fill="#231F20"/>
<path d="M285.602 70.0421C285.247 67.8134 229.13 58.2342 200.939 71.5181C190.843 110.174 196.423 185.833 196.423 185.833L296.671 185.066C296.671 185.066 297.601 143.384 285.602 70.0421Z" fill="#001A4B"/>
<path d="M223.684 72.5071C223.684 72.5071 221.928 184.018 221.913 184.8C221.898 185.582 252.097 184.8 252.909 183.486C253.721 182.173 252.909 86.3518 252.909 86.3518L227.979 81.0383" fill="#231F20"/>
<path d="M227.625 185.834C225.698 185.901 223.768 185.817 221.854 185.583C221.662 185.551 221.488 185.452 221.364 185.303C221.239 185.154 221.172 184.965 221.175 184.771C221.175 184.003 222.931 73.5998 222.946 72.478C222.946 72.3818 222.965 72.2865 223.002 72.1978C223.04 72.1091 223.094 72.0287 223.163 71.9613C223.232 71.894 223.313 71.841 223.403 71.8056C223.492 71.7701 223.588 71.7528 223.684 71.7548C223.781 71.7567 223.877 71.7777 223.965 71.8166C224.054 71.8554 224.134 71.9114 224.202 71.9813C224.269 72.0512 224.322 72.1337 224.357 72.224C224.392 72.3143 224.409 72.4106 224.407 72.5075C224.407 73.5703 222.784 175.694 222.651 184.24C226.37 184.668 249.573 184.003 252.171 183C252.658 179.192 252.259 113.141 252.052 86.9427L227.743 81.6586C227.646 81.6383 227.554 81.5991 227.472 81.5432C227.391 81.4873 227.321 81.4158 227.267 81.3329C227.212 81.25 227.175 81.1572 227.157 81.0599C227.139 80.9626 227.14 80.8626 227.16 80.7657C227.18 80.6688 227.22 80.5768 227.275 80.4951C227.331 80.4133 227.403 80.3434 227.486 80.2892C227.569 80.2351 227.661 80.1978 227.759 80.1795C227.856 80.1612 227.956 80.1623 228.053 80.1827L252.938 85.5848C253.101 85.6187 253.247 85.7077 253.352 85.8367C253.457 85.9657 253.514 86.127 253.514 86.2932C253.75 115.163 254.193 182.454 253.425 183.797C253.174 184.225 252.702 185.037 237.986 185.583C234.533 185.834 230.695 185.834 227.625 185.834Z" fill="#231F20"/>
<path d="M252.022 70.7953L252.76 89.127C252.76 89.127 250.709 97.5992 238.325 95.2376C225.942 92.876 223.728 84.5219 223.728 84.5219L223.595 50.2791C223.595 50.2791 242.295 39.1502 238.665 19.5786C238.665 19.5786 246.841 34.7222 264.922 31.5193C264.922 31.5193 266.029 49.0983 265.011 58.6479C263.992 68.1976 252.022 70.7953 252.022 70.7953Z" fill="white"/>
<path d="M242.399 96.3891C240.987 96.3784 239.579 96.2351 238.193 95.9611C225.485 93.5405 223.108 85.0683 223.005 84.7141C222.997 84.6504 222.997 84.5859 223.005 84.5222L222.872 50.2794C222.873 50.1523 222.906 50.0274 222.968 49.9164C223.029 49.8055 223.118 49.712 223.226 49.6447C223.403 49.5414 241.44 38.5453 237.986 19.7117C237.955 19.5395 237.986 19.3618 238.074 19.2104C238.162 19.059 238.301 18.9438 238.466 18.8853C238.631 18.8267 238.811 18.8287 238.975 18.8909C239.138 18.9531 239.274 19.0714 239.359 19.2246C241.873 23.5604 245.672 27.0082 250.23 29.0917C254.788 31.1752 259.881 31.7915 264.805 30.8554C264.906 30.8348 265.01 30.8373 265.11 30.8629C265.209 30.8885 265.302 30.9364 265.38 31.003C265.463 31.0656 265.531 31.1457 265.58 31.2375C265.628 31.3293 265.656 31.4307 265.661 31.5344C265.661 31.7115 266.753 49.2462 265.749 58.7958C264.805 67.6517 255.329 70.7365 252.79 71.4155L253.499 89.1273C253.506 89.1911 253.506 89.2554 253.499 89.3192C253.454 89.3782 251.639 96.3891 242.399 96.3891ZM224.466 84.4189C224.732 85.3193 227.241 92.3597 238.458 94.4999C249.366 96.5958 251.742 89.88 252.008 89.0387L251.359 70.8251C251.352 70.6499 251.407 70.478 251.515 70.3401C251.623 70.2022 251.777 70.1072 251.949 70.0723C252.052 70.0723 263.403 67.4746 264.347 58.5744C265.218 50.3532 264.51 35.9476 264.347 32.3757C259.758 33.1049 255.057 32.5711 250.749 30.8316C246.44 29.092 242.686 26.2123 239.89 22.5013C241.13 39.0028 226.902 49.0691 224.437 50.6926L224.466 84.4189Z" fill="#231F20"/>
<path d="M229.337 49.024C228.831 47.357 227.795 45.9007 226.385 44.8765C225.032 43.9786 223.534 43.3196 221.957 42.9282C221.128 42.619 220.24 42.5029 219.36 42.5888C218.748 42.7177 218.166 42.9632 217.647 43.312C216.358 44.0214 215.363 45.1675 214.843 46.5444C214.556 47.6977 214.556 48.9039 214.843 50.0572C215.052 51.3266 215.43 52.5625 215.965 53.7324C216.526 54.8898 217.312 55.9239 218.276 56.7747C219.241 57.6254 220.365 58.2757 221.584 58.6878C222.802 59.0999 224.09 59.2655 225.373 59.1749C226.656 59.0844 227.908 58.7395 229.057 58.1604" fill="white"/>
<path d="M224.791 59.9317C222.827 59.9416 220.901 59.3915 219.239 58.3459C217.576 57.3002 216.246 55.8023 215.404 54.0278C214.838 52.798 214.441 51.4971 214.223 50.1607C213.913 48.8953 213.913 47.5737 214.223 46.3084C214.786 44.7606 215.886 43.4667 217.323 42.6627C217.923 42.2665 218.595 41.9907 219.301 41.8509C220.299 41.7391 221.309 41.8604 222.253 42.2051C223.904 42.6245 225.472 43.3234 226.887 44.2715C228.414 45.3953 229.533 46.986 230.076 48.8028C230.13 48.9985 230.105 49.208 230.005 49.3851C229.906 49.5623 229.74 49.6926 229.544 49.7474C229.348 49.8022 229.139 49.777 228.962 49.6774C228.785 49.5777 228.654 49.4118 228.6 49.2161C228.145 47.7068 227.213 46.386 225.943 45.4523C224.683 44.6281 223.297 44.0149 221.84 43.6368C221.115 43.3624 220.339 43.2515 219.566 43.3121C219.039 43.4202 218.537 43.6308 218.091 43.932C216.963 44.5636 216.087 45.5644 215.611 46.7659C215.36 47.8039 215.36 48.8866 215.611 49.9245C215.804 51.1287 216.162 52.3007 216.674 53.4079C217.194 54.4745 217.92 55.4275 218.811 56.2119C219.702 56.9963 220.739 57.5966 221.863 57.9781C222.987 58.3595 224.175 58.5147 225.359 58.4345C226.543 58.3544 227.7 58.0405 228.762 57.5111C228.934 57.4395 229.127 57.4356 229.301 57.5002C229.476 57.5648 229.62 57.6931 229.704 57.8594C229.788 58.0257 229.806 58.2176 229.755 58.3967C229.703 58.5757 229.586 58.7286 229.426 58.8247C227.987 59.5457 226.401 59.9245 224.791 59.9317Z" fill="#231F20"/>
<path d="M252.687 42.0576C252.687 42.0576 259.889 51.0759 258.502 52.8618C257.114 54.6478 252.775 53.9098 252.775 53.9098" fill="white"/>
<path d="M254.768 54.81C254.062 54.8081 253.356 54.7538 252.658 54.6477C252.465 54.6116 252.295 54.5021 252.182 54.3423C252.069 54.1825 252.022 53.9849 252.053 53.7916C252.067 53.696 252.1 53.6043 252.151 53.5219C252.201 53.4394 252.267 53.3679 252.346 53.3115C252.424 53.2551 252.513 53.2149 252.607 53.1935C252.701 53.172 252.799 53.1696 252.894 53.1864C253.912 53.3635 257.027 53.5849 257.927 52.4189C258.385 51.6071 255.669 46.9725 252.112 42.5298C252.05 42.4537 252.003 42.3659 251.976 42.2717C251.948 42.1774 251.939 42.0786 251.95 41.981C251.961 41.8834 251.992 41.789 252.04 41.7033C252.088 41.6176 252.152 41.5423 252.23 41.4819C252.383 41.3612 252.577 41.3059 252.771 41.328C252.964 41.3501 253.141 41.4479 253.263 41.5999C255.536 44.4486 260.643 51.2824 259.167 53.3193C258.588 53.8749 257.894 54.2964 257.134 54.554C256.373 54.8116 255.566 54.899 254.768 54.81Z" fill="#231F20"/>
<path d="M247.285 38.5367C247.336 37.3069 246.671 36.2808 245.799 36.2449C244.928 36.209 244.18 37.1768 244.129 38.4067C244.079 39.6365 244.744 40.6627 245.616 40.6986C246.487 40.7345 247.235 39.7666 247.285 38.5367Z" fill="#231F20"/>
<path d="M258.845 38.3799C259.031 37.1632 258.483 36.0699 257.621 35.9379C256.759 35.806 255.909 36.6854 255.723 37.9021C255.537 39.1189 256.085 40.2122 256.947 40.3441C257.809 40.476 258.659 39.5966 258.845 38.3799Z" fill="#231F20"/>
<path d="M258.473 57.8803C258.473 57.8803 242.857 67.3413 240.083 52.8176L258.473 57.8803Z" fill="white"/>
<path d="M248.642 61.6443C247.29 61.6628 245.948 61.4014 244.702 60.8768C241.927 59.637 240.126 56.9802 239.358 52.9508C239.339 52.8557 239.34 52.7576 239.359 52.6626C239.379 52.5676 239.417 52.4774 239.472 52.3975C239.527 52.3177 239.598 52.2497 239.68 52.1977C239.762 52.1456 239.853 52.1106 239.949 52.0947C240.138 52.0598 240.334 52.1005 240.494 52.2081C240.654 52.3157 240.766 52.4816 240.805 52.6703C241.484 56.1979 242.989 58.5743 245.307 59.5189C250.458 61.8214 258.015 57.3049 258.089 57.2459C258.257 57.1441 258.459 57.1134 258.65 57.1604C258.841 57.2075 259.005 57.3285 259.107 57.4968C259.209 57.6651 259.24 57.867 259.193 58.058C259.146 58.249 259.025 58.4135 258.856 58.5152C255.748 60.3527 252.247 61.4252 248.642 61.6443Z" fill="#231F20"/>
<path d="M252.022 70.7954C252.022 70.7954 242.502 70.9578 238.015 68.4338C238.015 68.4338 241.882 79.2528 252.288 81.821L252.022 70.7954Z" fill="#231F20"/>
<path d="M252.288 82.5147H252.111C241.454 79.8727 237.499 69.1127 237.351 68.6552C237.295 68.5142 237.285 68.3592 237.321 68.212C237.358 68.0647 237.44 67.9328 237.556 67.8349C237.672 67.737 237.816 67.6779 237.967 67.6662C238.118 67.6545 238.27 67.6907 238.399 67.7696C242.65 70.1607 251.934 70.0278 252.023 70.0278C252.218 70.0188 252.41 70.0835 252.561 70.2092C252.711 70.3349 252.809 70.5125 252.834 70.7068L253.1 81.7472C253.102 81.8453 253.084 81.9429 253.048 82.0341C253.012 82.1254 252.958 82.2085 252.889 82.2786C252.82 82.3487 252.738 82.4043 252.648 82.4424C252.557 82.4804 252.46 82.4999 252.362 82.4999L252.288 82.5147ZM239.55 69.895C241.026 72.847 244.775 78.7509 251.609 80.8468L251.358 71.5186C247.364 71.5622 243.385 71.0151 239.55 69.895Z" fill="#231F20"/>
<path d="M376.921 79.2674C374.16 76.8025 356.257 88.1233 356.257 88.1233C357.024 81.0533 357.954 75.6807 356.257 75.5184C354.559 75.356 347.652 94.3815 347.652 94.3815C347.652 94.3815 324.745 127.827 322.9 128.757C321.055 129.687 285.601 70.0425 285.601 70.0425C265.439 92.0347 280.539 122.927 280.539 122.927C280.539 122.927 317.896 169.967 325.733 169.509C332.065 169.14 353.172 131.37 361.024 116.92C361.024 116.92 366.471 108.064 368.685 104.787C370.899 101.51 378.146 94.6471 381.378 90.7948C384.61 86.9425 379.769 81.7323 376.921 79.2674Z" fill="white"/>
<path d="M325.63 170.188C317.438 170.188 283.83 128.167 280.007 123.355C279.771 122.912 264.864 91.6509 285.114 69.585C285.185 69.5091 285.273 69.4509 285.37 69.415C285.468 69.3791 285.572 69.3665 285.675 69.3783C285.779 69.3858 285.88 69.4194 285.968 69.4762C286.056 69.533 286.128 69.611 286.177 69.703C299.387 91.8428 319.667 125.082 322.885 128.019C325.187 125.731 338.412 106.809 347.106 94.0715C354.176 74.6623 355.814 74.7952 356.39 74.8837C356.577 74.8989 356.758 74.9527 356.923 75.0416C357.089 75.1305 357.233 75.2526 357.349 75.4003C358.294 76.5664 358.013 79.4003 357.349 85.2009C357.349 85.7322 357.231 86.2783 357.157 86.8392C362.426 83.5478 374.692 76.345 377.393 78.7361C382.928 83.6659 384.522 88.0938 381.909 91.2081C380.552 92.8317 378.529 94.9424 376.389 97.1121C373.854 99.6222 371.473 102.284 369.26 105.082C367.076 108.256 361.674 117.097 361.615 117.185C350.973 136.757 332.095 169.716 325.778 170.1L325.63 170.188ZM285.498 71.179C266.797 92.5218 281.07 122.337 281.144 122.632C295.904 141.2 319.918 168.845 325.586 168.845H325.689C329.748 168.594 343.061 148.58 360.434 116.595C360.508 116.477 365.924 107.621 368.138 104.403C370.37 101.547 372.775 98.8306 375.341 96.2708C377.467 94.0568 379.474 91.9609 380.802 90.3668C383.607 87.0311 379.253 82.2932 376.374 79.7692C374.899 78.4556 364.95 83.4149 356.582 88.758C356.472 88.823 356.347 88.8572 356.22 88.8572C356.093 88.8572 355.968 88.823 355.858 88.758C355.75 88.691 355.663 88.5941 355.608 88.4789C355.553 88.3637 355.532 88.2352 355.548 88.1086C355.666 87.0606 355.785 86.0422 355.888 85.0828C356.286 81.6437 356.832 76.9649 356.242 76.3154C354.987 77.4667 351.253 86.3964 348.242 94.6619C348.245 94.716 348.245 94.7702 348.242 94.8243C344.39 100.433 325.143 128.462 323.239 129.407C322.412 129.835 321.542 130.277 302.989 100.123C295.195 87.4001 287.446 74.4557 285.498 71.179Z" fill="#231F20"/>
<path d="M360.773 99.4741C360.691 99.493 360.605 99.493 360.522 99.4741C360.36 99.4054 360.23 99.2761 360.161 99.1135C360.092 98.9509 360.09 98.7679 360.153 98.6033C362.367 93.0536 356.213 88.9798 355.962 88.8175C355.874 88.7764 355.797 88.7172 355.735 88.6439C355.672 88.5705 355.626 88.4847 355.599 88.3921C355.572 88.2996 355.565 88.2024 355.579 88.107C355.593 88.0116 355.627 87.9202 355.678 87.8389C355.73 87.7575 355.799 87.6882 355.879 87.6354C355.96 87.5826 356.051 87.5476 356.146 87.5326C356.241 87.5177 356.339 87.5232 356.431 87.5488C356.524 87.5743 356.611 87.6194 356.685 87.681C356.759 87.681 364.065 92.5222 361.408 99.1051C361.349 99.221 361.257 99.3174 361.145 99.3828C361.032 99.4482 360.903 99.4799 360.773 99.4741Z" fill="#231F20"/>
<path d="M356.921 158.646H116.262V347.321H356.921V158.646Z" fill="white"/>
<path d="M356.921 348H116.335C116.155 348 115.982 347.928 115.855 347.801C115.728 347.674 115.656 347.501 115.656 347.321V158.646C115.656 158.557 115.674 158.47 115.708 158.388C115.742 158.307 115.793 158.233 115.856 158.171C115.919 158.109 115.994 158.06 116.076 158.028C116.159 157.995 116.247 157.98 116.335 157.982H356.921C357.098 157.982 357.269 158.051 357.396 158.175C357.523 158.299 357.596 158.468 357.6 158.646V347.321C357.596 347.5 357.523 347.67 357.397 347.797C357.27 347.923 357.1 347.996 356.921 348ZM116.926 346.716H356.242V159.266H116.926V346.716Z" fill="#231F20"/>
<path d="M228.26 297.299L151.243 294.229C151.146 294.226 151.051 294.203 150.963 294.162C150.875 294.121 150.796 294.064 150.73 293.992C150.664 293.921 150.613 293.838 150.579 293.747C150.546 293.656 150.531 293.559 150.535 293.462L152.631 240.872C152.643 240.677 152.727 240.493 152.867 240.356C153.014 240.228 153.203 240.16 153.398 240.164L230.415 243.219C230.61 243.231 230.792 243.317 230.924 243.46C231.056 243.603 231.128 243.792 231.124 243.987L228.998 296.532C228.988 296.724 228.903 296.904 228.762 297.034C228.701 297.11 228.625 297.173 228.539 297.219C228.452 297.265 228.358 297.292 228.26 297.299ZM152.011 292.783L227.552 295.735L229.589 244.607L154.048 241.655L152.011 292.783Z" fill="#D1D3D4"/>
<path d="M239.669 229.08L187.227 227.825C187.033 227.821 186.848 227.741 186.711 227.604C186.579 227.458 186.505 227.269 186.504 227.072L187.729 176.416C187.731 176.32 187.752 176.224 187.791 176.135C187.83 176.046 187.886 175.966 187.956 175.899C188.025 175.832 188.108 175.779 188.198 175.744C188.288 175.708 188.385 175.691 188.482 175.693L240.923 176.948C241.02 176.952 241.116 176.975 241.204 177.015C241.292 177.056 241.371 177.113 241.437 177.185C241.503 177.256 241.554 177.34 241.587 177.431C241.621 177.522 241.636 177.618 241.632 177.715L240.422 228.371C240.414 228.565 240.335 228.749 240.2 228.888C240.051 229.012 239.863 229.08 239.669 229.08ZM188.009 226.364L238.96 227.589L240.141 178.409L189.19 177.199L188.009 226.364Z" fill="#D1D3D4"/>
<path d="M291.712 230.334L239.27 229.08C239.173 229.076 239.078 229.053 238.99 229.012C238.902 228.972 238.823 228.914 238.757 228.843C238.691 228.772 238.64 228.688 238.606 228.597C238.573 228.506 238.558 228.409 238.562 228.312L239.772 177.671C239.773 177.575 239.792 177.479 239.83 177.39C239.868 177.302 239.924 177.222 239.993 177.155C240.063 177.085 240.146 177.031 240.237 176.995C240.329 176.96 240.427 176.944 240.525 176.948L292.966 178.203C293.064 178.206 293.16 178.228 293.248 178.269C293.337 178.309 293.417 178.367 293.483 178.439C293.55 178.506 293.602 178.587 293.635 178.676C293.668 178.765 293.682 178.86 293.675 178.955L292.465 229.611C292.457 229.806 292.374 229.99 292.234 230.124C292.094 230.259 291.906 230.334 291.712 230.334ZM240.052 227.618L291.003 228.844L292.184 179.664L241.218 178.453L240.052 227.618Z" fill="#D1D3D4"/>
<path d="M231.123 220.18L200.127 219.442C199.931 219.442 199.744 219.364 199.605 219.225C199.467 219.087 199.389 218.899 199.389 218.704C199.389 218.508 199.467 218.32 199.605 218.182C199.744 218.043 199.931 217.966 200.127 217.966L231.123 218.704C231.317 218.711 231.501 218.794 231.636 218.934C231.771 219.075 231.846 219.262 231.846 219.456C231.842 219.647 231.765 219.829 231.63 219.964C231.495 220.098 231.313 220.176 231.123 220.18Z" fill="#D1D3D4"/>
<path d="M231.33 211.619L200.334 210.866C200.237 210.866 200.14 210.847 200.05 210.809C199.961 210.77 199.88 210.714 199.812 210.644C199.744 210.574 199.692 210.491 199.657 210.399C199.623 210.308 199.607 210.211 199.611 210.114C199.613 210.017 199.634 209.921 199.673 209.832C199.712 209.743 199.768 209.663 199.838 209.596C199.907 209.529 199.99 209.476 200.08 209.441C200.17 209.405 200.267 209.388 200.364 209.39L231.359 210.143C231.555 210.143 231.743 210.221 231.881 210.359C232.02 210.498 232.097 210.685 232.097 210.881C232.097 211.077 232.02 211.264 231.881 211.403C231.743 211.541 231.555 211.619 231.359 211.619H231.33Z" fill="#D1D3D4"/>
<path d="M231.536 203.044L200.541 202.306C200.444 202.304 200.348 202.283 200.259 202.244C200.171 202.205 200.09 202.149 200.023 202.079C199.956 202.009 199.903 201.927 199.868 201.837C199.833 201.746 199.816 201.65 199.818 201.553C199.832 201.361 199.917 201.181 200.056 201.048C200.195 200.914 200.378 200.837 200.57 200.83L231.566 201.568C231.762 201.579 231.946 201.665 232.08 201.808C232.215 201.95 232.29 202.139 232.289 202.335C232.282 202.528 232.198 202.711 232.058 202.843C231.917 202.976 231.73 203.048 231.536 203.044Z" fill="#D1D3D4"/>
<path d="M231.728 194.483L200.733 193.73C200.635 193.73 200.539 193.711 200.449 193.673C200.359 193.634 200.278 193.579 200.21 193.508C200.143 193.438 200.09 193.355 200.056 193.263C200.021 193.172 200.005 193.075 200.009 192.978C200.027 192.787 200.113 192.608 200.251 192.476C200.389 192.343 200.571 192.264 200.762 192.254L231.758 193.007C231.854 193.009 231.949 193.03 232.037 193.069C232.125 193.108 232.204 193.164 232.27 193.235C232.336 193.305 232.388 193.387 232.421 193.477C232.455 193.568 232.47 193.664 232.466 193.76C232.462 193.953 232.383 194.137 232.245 194.272C232.107 194.407 231.921 194.483 231.728 194.483Z" fill="#D1D3D4"/>
<path d="M231.934 185.907L200.939 185.169C200.745 185.161 200.563 185.078 200.431 184.937C200.298 184.797 200.226 184.61 200.23 184.416C200.245 184.224 200.329 184.044 200.468 183.911C200.607 183.777 200.79 183.7 200.983 183.693L231.979 184.431C232.076 184.435 232.171 184.458 232.259 184.498C232.347 184.539 232.426 184.597 232.492 184.668C232.558 184.739 232.609 184.823 232.642 184.914C232.676 185.005 232.691 185.102 232.687 185.199C232.685 185.295 232.664 185.39 232.625 185.478C232.586 185.566 232.53 185.645 232.46 185.711C232.39 185.777 232.307 185.828 232.217 185.862C232.127 185.896 232.03 185.911 231.934 185.907Z" fill="#D1D3D4"/>
<path d="M281.218 195.664L250.222 194.926C250.126 194.924 250.03 194.903 249.941 194.864C249.852 194.825 249.772 194.769 249.705 194.699C249.638 194.629 249.585 194.547 249.55 194.456C249.514 194.366 249.497 194.27 249.499 194.173C249.497 194.075 249.515 193.977 249.553 193.887C249.59 193.796 249.646 193.714 249.717 193.646C249.787 193.578 249.872 193.525 249.964 193.492C250.056 193.458 250.154 193.443 250.252 193.45L281.248 194.188C281.441 194.195 281.623 194.278 281.756 194.419C281.888 194.56 281.96 194.747 281.956 194.94C281.956 195.037 281.937 195.132 281.9 195.221C281.862 195.309 281.808 195.39 281.739 195.457C281.67 195.524 281.589 195.577 281.499 195.613C281.41 195.648 281.314 195.666 281.218 195.664Z" fill="#D1D3D4"/>
<path d="M281.424 187.102L250.429 186.35C250.333 186.348 250.238 186.327 250.15 186.288C250.062 186.249 249.982 186.192 249.916 186.122C249.85 186.052 249.799 185.97 249.765 185.879C249.732 185.789 249.716 185.693 249.72 185.597C249.722 185.5 249.743 185.404 249.782 185.316C249.821 185.227 249.877 185.147 249.947 185.079C250.017 185.012 250.099 184.959 250.19 184.924C250.28 184.889 250.376 184.872 250.473 184.874L281.469 185.626C281.664 185.626 281.852 185.704 281.991 185.843C282.129 185.981 282.207 186.169 282.207 186.364C282.207 186.56 282.129 186.748 281.991 186.886C281.852 187.025 281.664 187.102 281.469 187.102H281.424Z" fill="#D1D3D4"/>
<path d="M280.554 223.442L248.687 222.733C248.49 222.726 248.304 222.641 248.169 222.497C248.034 222.354 247.96 222.163 247.964 221.966L248.451 201.892C248.455 201.698 248.535 201.513 248.672 201.376C248.818 201.244 249.007 201.17 249.204 201.169L281.056 201.937C281.153 201.939 281.248 201.96 281.337 201.998C281.426 202.037 281.506 202.093 281.573 202.163C281.64 202.233 281.693 202.316 281.728 202.406C281.764 202.496 281.781 202.593 281.779 202.689L281.292 222.733C281.285 222.927 281.206 223.111 281.07 223.25C280.925 223.371 280.743 223.439 280.554 223.442ZM249.455 221.257L279.831 221.981L280.288 203.383L249.912 202.645L249.455 221.257Z" fill="#D1D3D4"/>
<path d="M201.972 72.1829C201.972 72.1829 160.718 121.658 155.42 138.292C150.121 154.927 189.22 207.088 189.22 207.088C189.22 207.088 201.972 223.678 208.068 220.15C214.164 216.623 208.068 198.321 208.068 198.321C208.068 198.321 218.798 204.416 216.481 199.428C214.164 194.439 200.024 190.35 200.024 190.35L182.563 138.145L196.747 120.566" fill="white"/>
<path d="M206.179 221.257C199.566 221.257 189.943 208.991 188.733 207.427C187.124 205.287 149.516 154.778 154.785 138.056C160.054 121.333 199.743 73.7912 201.426 71.7691C201.48 71.6909 201.549 71.6248 201.63 71.575C201.711 71.5253 201.801 71.493 201.895 71.4803C201.989 71.4675 202.084 71.4746 202.176 71.5011C202.267 71.5276 202.351 71.5728 202.424 71.6339C202.496 71.695 202.555 71.7707 202.597 71.8559C202.638 71.9412 202.661 72.0342 202.665 72.129C202.668 72.2238 202.651 72.3182 202.616 72.4062C202.581 72.4942 202.527 72.5738 202.459 72.6399C202.046 73.127 161.235 122.159 156.069 138.454C150.903 154.749 189.397 206.128 189.781 206.645C193.22 211.073 203.168 222.201 207.743 219.53C212.319 216.858 209.086 203.442 207.433 198.512C207.393 198.381 207.393 198.241 207.432 198.109C207.472 197.978 207.549 197.861 207.655 197.774C207.759 197.688 207.886 197.636 208.02 197.622C208.154 197.609 208.289 197.636 208.408 197.7C211.891 199.678 215.581 201.08 216.142 200.652C216.142 200.652 216.216 200.416 215.876 199.707C214.09 195.84 203.699 192.106 199.847 190.984C199.743 190.955 199.649 190.901 199.571 190.826C199.494 190.751 199.437 190.659 199.404 190.556L181.987 138.366C181.951 138.258 181.943 138.144 181.964 138.033C181.985 137.922 182.033 137.818 182.105 137.731L196.186 120.152C196.241 120.082 196.309 120.024 196.386 119.981C196.464 119.938 196.549 119.911 196.637 119.901C196.725 119.892 196.814 119.9 196.899 119.925C196.984 119.95 197.063 119.992 197.131 120.049C197.268 120.161 197.356 120.323 197.375 120.5C197.395 120.676 197.344 120.854 197.234 120.993L183.39 138.277L200.614 189.804C202.858 190.483 214.902 194.335 217.145 199.147C217.677 200.298 217.662 201.139 217.145 201.656C215.876 202.822 211.935 201.08 209.308 199.707C210.666 204.357 213.957 217.567 208.511 220.725C207.797 221.113 206.99 221.297 206.179 221.257Z" fill="#231F20"/>
<path d="M126.166 114.78C126.166 114.78 124.409 102.632 114.609 99.5919C104.808 96.5514 76.5873 97.1122 73.5911 118.78C70.5948 140.447 81.2219 155.915 90.0926 160.476L111.745 158.248L126.166 114.78Z" fill="white"/>
<path d="M90.0922 161.258C89.9802 161.28 89.8648 161.28 89.7527 161.258C81.5463 157.037 69.6941 141.775 72.8675 118.794C73.2393 115.531 74.3548 112.398 76.1281 109.634C77.9014 106.871 80.2852 104.551 83.0961 102.853C93.0885 96.5065 107.981 96.7279 114.889 98.8828C125.014 102.041 126.874 114.159 126.948 114.676C126.976 114.787 126.976 114.904 126.948 115.015L112.527 158.527C112.483 158.662 112.401 158.78 112.291 158.869C112.181 158.958 112.048 159.014 111.907 159.029L90.2546 161.258H90.0922ZM104.07 98.9714C97.4721 98.9714 89.7527 100.329 83.834 104.093C81.2358 105.673 79.0302 107.823 77.3836 110.38C75.7371 112.936 74.6925 115.834 74.3287 118.853C71.2882 140.889 82.4023 155.516 90.2398 159.693L111.14 157.612L125.353 114.72C125.103 113.244 122.962 102.912 114.357 100.3C111.009 99.3681 107.545 98.9208 104.07 98.9714Z" fill="#231F20"/>
<path d="M111.893 119.532L113.797 130.882C113.797 130.882 109.532 122.248 105.325 129.657C101.119 137.067 113.207 146.779 113.207 146.779L110.683 157.288L88.366 159.517L85.4141 181.656C85.4141 181.656 118.535 186.483 117.989 185.642C117.797 185.361 120.233 163.782 120.233 163.782C120.233 163.782 126.284 166.218 129.649 156.594C133.015 146.971 126.21 114.72 126.21 114.72L111.893 119.532Z" fill="white"/>
<path d="M117.222 186.468C114.771 186.468 107.554 185.686 85.2665 182.439C85.0755 182.41 84.9036 182.307 84.7877 182.152C84.6718 181.998 84.6211 181.804 84.6465 181.612L87.5985 159.473C87.618 159.309 87.6931 159.156 87.8112 159.041C87.9294 158.925 88.0835 158.854 88.2479 158.838L110.048 156.668L112.351 147.119C110.27 145.362 100.543 136.551 104.631 129.407C105.93 127.119 107.48 125.997 109.059 126.042C109.723 126.11 110.366 126.309 110.951 126.628C111.537 126.948 112.053 127.38 112.469 127.901L111.111 119.783C111.08 119.61 111.113 119.432 111.202 119.28C111.291 119.129 111.432 119.014 111.598 118.957L125.871 114.204C125.965 114.157 126.068 114.133 126.173 114.133C126.278 114.133 126.382 114.157 126.476 114.204C126.565 114.257 126.643 114.327 126.704 114.411C126.765 114.495 126.808 114.59 126.83 114.691C127.111 116.005 133.634 147.163 130.24 156.949C128.926 160.727 127.022 163.207 124.616 164.329C123.412 164.881 122.071 165.061 120.764 164.845C119.849 172.978 118.594 184.609 118.609 185.671C118.643 185.86 118.606 186.054 118.506 186.218C118.52 186.291 118.358 186.468 117.222 186.468ZM86.2259 181.096C97.2219 182.69 114.019 184.978 117.222 185.066C117.222 183.31 117.768 178.38 119.421 163.753C119.436 163.642 119.476 163.535 119.537 163.441C119.598 163.346 119.68 163.266 119.775 163.207C119.876 163.156 119.987 163.13 120.1 163.13C120.212 163.13 120.324 163.156 120.424 163.207C121.624 163.588 122.924 163.493 124.055 162.941C126.077 162.011 127.701 159.827 128.882 156.462C131.834 147.975 126.594 120.846 125.576 115.798L112.69 120.093L114.506 130.824C114.531 130.997 114.494 131.173 114.402 131.322C114.309 131.47 114.167 131.581 114 131.634C113.833 131.687 113.653 131.679 113.492 131.612C113.33 131.545 113.198 131.422 113.118 131.267C112.602 130.219 110.86 127.503 109.045 127.459C107.982 127.459 106.934 128.3 105.93 130.086C102.078 136.861 113.532 146.174 113.65 146.322C113.76 146.409 113.843 146.527 113.888 146.661C113.932 146.794 113.937 146.938 113.901 147.074L111.377 157.583C111.338 157.732 111.256 157.865 111.14 157.965C111.024 158.066 110.88 158.128 110.727 158.144L89.0007 160.196L86.2259 181.096Z" fill="#231F20"/>
<path d="M127.184 131.65C127.184 131.65 135.656 142.676 134.387 144.344C133.118 146.011 128.749 146.071 128.749 146.071" fill="white"/>
<path d="M128.748 146.808C128.555 146.808 128.37 146.733 128.232 146.597C128.094 146.462 128.014 146.278 128.011 146.085C128.014 145.892 128.09 145.706 128.224 145.567C128.359 145.427 128.54 145.343 128.734 145.332C130.21 145.332 133.029 144.89 133.796 143.856C134.077 142.823 130.313 136.904 126.594 132.048C126.48 131.891 126.432 131.695 126.459 131.502C126.487 131.309 126.588 131.135 126.741 131.015C126.899 130.903 127.092 130.855 127.284 130.88C127.475 130.904 127.65 131 127.774 131.148C131.789 136.388 136.306 142.956 134.962 144.742C133.619 146.528 129.25 146.764 128.763 146.764L128.748 146.808Z" fill="#231F20"/>
<path d="M122.423 130.665C123.016 130.518 123.153 129.013 122.728 127.304C122.303 125.595 121.478 124.33 120.884 124.477C120.291 124.625 120.154 126.13 120.579 127.838C121.004 129.547 121.829 130.813 122.423 130.665Z" fill="#231F20"/>
<path d="M127.568 157.081C127.339 157.085 127.111 157.06 126.889 157.007C124.631 156.461 124.586 151.723 124.631 150.292C124.633 150.182 124.661 150.074 124.712 149.976C124.763 149.879 124.836 149.795 124.926 149.731C125.011 149.66 125.111 149.611 125.219 149.588C125.327 149.564 125.439 149.568 125.546 149.598L130.594 150.808C130.784 150.857 130.948 150.979 131.05 151.147C131.152 151.315 131.185 151.517 131.14 151.709C131.117 151.804 131.076 151.894 131.018 151.973C130.961 152.053 130.888 152.12 130.804 152.171C130.72 152.221 130.627 152.255 130.53 152.269C130.433 152.284 130.334 152.279 130.239 152.255L126.107 151.251C126.107 153.332 126.608 155.413 127.243 155.576C127.399 155.618 127.562 155.629 127.722 155.606C127.882 155.583 128.035 155.527 128.173 155.443C128.785 154.912 129.21 154.198 129.383 153.406C129.404 153.311 129.444 153.221 129.5 153.141C129.556 153.061 129.627 152.993 129.709 152.941C129.792 152.889 129.883 152.854 129.979 152.837C130.076 152.821 130.174 152.823 130.269 152.845C130.456 152.894 130.618 153.013 130.72 153.178C130.821 153.343 130.856 153.541 130.815 153.731C130.564 154.904 129.905 155.95 128.955 156.683C128.541 156.946 128.059 157.085 127.568 157.081Z" fill="#231F20"/>
<path d="M166.179 264.149C166.179 264.149 174.415 271.205 180.688 267.869C186.961 264.533 188.718 261.006 188.718 261.006C188.718 261.006 190.873 270.23 193.234 267.677C193.552 267.346 193.799 266.955 193.961 266.526C194.123 266.098 194.197 265.641 194.177 265.183C194.158 264.725 194.046 264.276 193.849 263.862C193.651 263.449 193.372 263.079 193.028 262.777C193.028 262.777 197.338 269.64 197.736 265.906C198.135 262.172 195.183 258.26 195.183 258.26C195.183 258.26 207.935 267.677 207.345 261.994C206.754 256.312 195.537 249.05 187.153 249.05C178.77 249.05 163.036 253.567 163.036 253.567" fill="white"/>
<path d="M176.925 269.507C171.375 269.507 165.973 264.947 165.692 264.71C165.546 264.58 165.456 264.397 165.442 264.201C165.429 264.006 165.492 263.812 165.619 263.662C165.686 263.594 165.766 263.539 165.855 263.502C165.944 263.465 166.039 263.445 166.135 263.445C166.231 263.445 166.327 263.465 166.415 263.502C166.504 263.539 166.584 263.594 166.652 263.662C166.74 263.662 174.578 270.349 180.334 267.293C186.091 264.238 188.039 260.784 188.054 260.755C188.124 260.62 188.234 260.51 188.368 260.439C188.503 260.368 188.655 260.339 188.806 260.356C188.958 260.371 189.1 260.433 189.214 260.534C189.328 260.635 189.408 260.769 189.441 260.917C190.135 263.869 191.463 267.22 192.393 267.456C192.393 267.456 192.585 267.456 192.732 267.249C193.084 266.925 193.333 266.504 193.448 266.04C193.564 265.576 193.541 265.088 193.382 264.637C193.042 264.15 192.718 263.662 192.452 263.161C192.363 263.01 192.331 262.832 192.361 262.659C192.391 262.486 192.482 262.33 192.617 262.218C192.752 262.106 192.922 262.046 193.098 262.048C193.273 262.051 193.442 262.115 193.574 262.231C194.05 262.679 194.428 263.222 194.681 263.825C195.287 264.766 196.063 265.587 196.969 266.245C196.988 266.108 196.988 265.969 196.969 265.832C197.323 262.452 194.592 258.747 194.563 258.703C194.455 258.562 194.403 258.386 194.417 258.209C194.43 258.033 194.509 257.867 194.636 257.744C194.763 257.621 194.928 257.547 195.103 257.534C195.278 257.52 195.452 257.568 195.596 257.67C199.802 260.784 205.116 263.707 206.371 262.984C206.607 262.851 206.621 262.408 206.577 262.068C206.016 256.681 195.109 249.788 187.124 249.788C178.888 249.788 163.375 254.216 163.213 254.216C163.023 254.266 162.821 254.24 162.65 254.144C162.479 254.047 162.353 253.888 162.298 253.7C162.247 253.514 162.272 253.315 162.365 253.147C162.459 252.979 162.615 252.854 162.799 252.799C163.449 252.607 178.681 248.253 187.124 248.253C195.876 248.253 207.419 255.751 208.038 261.862C208.145 262.301 208.113 262.763 207.947 263.183C207.78 263.603 207.487 263.962 207.109 264.209C205.16 265.316 200.585 262.733 197.411 260.681C198.199 262.316 198.554 264.125 198.445 265.935C198.341 266.924 197.943 267.515 197.293 267.662C196.644 267.81 195.655 267.22 194.799 266.334C194.585 267.003 194.222 267.613 193.736 268.12C193.529 268.387 193.248 268.588 192.928 268.698C192.608 268.808 192.263 268.823 191.935 268.74C190.268 268.297 188.983 264.947 188.378 262.703C186.329 265.097 183.819 267.055 180.998 268.459C179.749 269.142 178.349 269.502 176.925 269.507Z" fill="#231F20"/>
<path d="M116.262 321.624C116.262 321.624 116.262 293.374 117.989 262.201C119.715 231.028 131.479 218.541 121.487 187.959C111.494 157.377 82.5797 161.214 68.2331 173.111C39.0529 197.302 12.1457 271.175 27.3926 323.528C27.3926 323.454 60.7351 337.565 116.262 321.624Z" fill="#001A4B"/>
<path d="M86.0483 195.929C86.0483 197.494 69.9748 273.551 80.5577 280.606C91.1405 287.662 168.763 271.603 168.763 271.603L167.98 250.423L122.107 245.33C122.107 245.33 135.051 187.767 112.321 172.432C89.5907 157.096 86.0483 195.929 86.0483 195.929Z" fill="#001A4B"/>
<path d="M92.9417 285.005C84.4843 285.005 76.145 283.145 72.7945 276.636C65.3112 262.053 85.5913 184.904 86.4621 181.627C86.4863 181.53 86.5294 181.439 86.5889 181.359C86.6484 181.278 86.723 181.211 86.8087 181.159C86.8944 181.108 86.9893 181.074 87.0881 181.059C87.1869 181.044 87.2877 181.049 87.3846 181.073C87.4815 181.098 87.5727 181.141 87.653 181.2C87.7332 181.26 87.801 181.334 87.8524 181.42C87.9038 181.506 87.9378 181.601 87.9525 181.7C87.9672 181.798 87.9623 181.899 87.9381 181.996C87.7167 182.793 66.9201 261.876 74.1524 275.957C81.2371 289.772 114.904 280.385 115.244 280.297C115.44 280.242 115.649 280.267 115.826 280.367C116.003 280.466 116.134 280.632 116.188 280.828C116.243 281.024 116.218 281.233 116.118 281.41C116.019 281.587 115.853 281.718 115.657 281.773C108.246 283.775 100.617 284.861 92.9417 285.005Z" fill="#231F20"/>
<path d="M122.062 246.068C120.129 245.995 110.476 245.478 109.605 241.98C108.808 238.792 119.272 208.032 121.413 201.966C121.475 201.78 121.609 201.627 121.785 201.539C121.961 201.452 122.164 201.438 122.35 201.501C122.536 201.564 122.689 201.698 122.776 201.873C122.864 202.049 122.877 202.252 122.815 202.438C117.988 216.46 110.535 239.486 111.007 241.626C111.45 243.412 117.752 244.43 122.077 244.578C122.273 244.578 122.46 244.655 122.599 244.794C122.737 244.932 122.815 245.12 122.815 245.316C122.815 245.511 122.737 245.699 122.599 245.838C122.46 245.976 122.273 246.054 122.077 246.054L122.062 246.068Z" fill="#231F20"/>
<path d="M17.9467 201.243C28.928 201.7 42.3743 202.335 52.3667 202.822C56.3405 203.013 60.1123 204.63 62.9911 207.376C65.8699 210.122 67.6629 213.813 68.0416 217.774L76.2924 302.717H116.262V336.236L14.5815 333.196L0.825283 219.781C0.539171 217.399 0.773738 214.982 1.51278 212.699C2.25181 210.417 3.4777 208.321 5.10573 206.559C6.73375 204.796 8.72509 203.408 10.9421 202.49C13.1592 201.572 15.5491 201.146 17.9467 201.243Z" fill="#231F20"/>
<path d="M116.262 336.974L14.5812 333.919C14.4063 333.916 14.2382 333.851 14.1079 333.734C13.9777 333.618 13.8941 333.458 13.8727 333.284L0.116521 219.899C-0.172885 217.417 0.0783582 214.902 0.852993 212.526C1.62763 210.151 2.9073 207.971 4.60411 206.137C6.30091 204.302 8.37464 202.857 10.6828 201.9C12.9911 200.943 15.4791 200.497 17.9759 200.593C29.1344 201.051 42.861 201.7 52.3959 202.158C56.5403 202.379 60.469 204.075 63.4732 206.938C66.4774 209.802 68.3593 213.644 68.7794 217.773L76.9563 302.052H116.262C116.358 302.052 116.453 302.071 116.542 302.109C116.631 302.146 116.711 302.201 116.778 302.269C116.846 302.338 116.899 302.419 116.934 302.509C116.97 302.598 116.987 302.694 116.985 302.79V336.236C116.987 336.335 116.969 336.434 116.931 336.525C116.893 336.617 116.836 336.699 116.764 336.767C116.629 336.899 116.45 336.973 116.262 336.974ZM15.2306 332.546L115.524 335.498V303.469H76.2921C76.1111 303.466 75.9373 303.397 75.804 303.275C75.6706 303.152 75.587 302.985 75.5689 302.805L67.3181 217.862C66.9428 214.08 65.2257 210.556 62.4778 207.93C59.7298 205.304 56.1325 203.749 52.3369 203.545C42.7873 203.073 29.0753 202.423 17.9169 201.966C15.6254 201.872 13.3409 202.278 11.2215 203.154C9.10206 204.03 7.19824 205.357 5.64166 207.041C4.08508 208.725 2.91288 210.728 2.20612 212.909C1.49935 215.091 1.27488 217.4 1.54823 219.677L15.2306 332.546Z" fill="#231F20"/>
<path d="M369.142 178.601C353.556 184.136 302.723 264.754 311.579 279.13C320.435 293.506 357.63 285.226 357.63 285.226L356.936 311.159L452.875 309.58C452.875 309.58 474.469 214.703 460.255 190.645C445.982 166.867 384.714 173.051 369.142 178.601Z" fill="#001A4B"/>
<path d="M455.709 201.228C444.506 201.685 430.617 202.335 420.389 202.837C416.521 203.024 412.85 204.598 410.047 207.271C407.245 209.943 405.498 213.535 405.127 217.39L396.847 302.716H356.877V336.236L458.558 333.195L472.373 219.294C472.655 216.973 472.429 214.619 471.712 212.394C470.994 210.17 469.801 208.127 468.216 206.409C466.632 204.691 464.692 203.338 462.533 202.443C460.373 201.548 458.045 201.134 455.709 201.228Z" fill="#231F20"/>
<path d="M356.877 336.974C356.689 336.973 356.509 336.899 356.375 336.768C356.303 336.7 356.246 336.617 356.208 336.525C356.17 336.434 356.151 336.335 356.154 336.236V302.717C356.152 302.62 356.169 302.525 356.204 302.435C356.24 302.346 356.293 302.264 356.36 302.196C356.427 302.127 356.508 302.072 356.597 302.035C356.685 301.998 356.781 301.979 356.877 301.979H396.182L404.389 217.331C404.794 213.301 406.626 209.548 409.555 206.75C412.483 203.952 416.315 202.292 420.359 202.069C430.248 201.597 444.403 200.918 455.679 200.46C458.121 200.364 460.556 200.799 462.814 201.735C465.071 202.671 467.099 204.086 468.757 205.882C470.414 207.679 471.662 209.814 472.413 212.139C473.165 214.465 473.403 216.926 473.111 219.353L459.295 333.255C459.274 333.428 459.19 333.588 459.06 333.705C458.93 333.822 458.762 333.887 458.587 333.889L356.906 336.945L356.877 336.974ZM357.615 303.455V335.484L457.908 332.532L471.649 219.264C471.921 217.049 471.708 214.801 471.023 212.676C470.339 210.551 469.2 208.601 467.686 206.96C466.172 205.32 464.319 204.029 462.256 203.176C460.193 202.324 457.969 201.931 455.738 202.025C444.476 202.483 430.322 203.147 420.433 203.634C416.746 203.832 413.251 205.341 410.578 207.887C407.904 210.433 406.228 213.85 405.85 217.523L397.57 302.85C397.552 303.03 397.468 303.197 397.335 303.319C397.201 303.442 397.027 303.511 396.846 303.514L357.615 303.455Z" fill="#231F20"/>
<path d="M357.629 285.964C357.532 285.953 357.438 285.923 357.353 285.876C357.267 285.828 357.192 285.764 357.132 285.687C357.071 285.61 357.027 285.522 357.001 285.428C356.975 285.333 356.968 285.235 356.98 285.138C357.585 279.795 363.976 220.667 364.035 220.076C364.057 219.881 364.155 219.701 364.309 219.578C364.462 219.455 364.659 219.398 364.854 219.419C365.05 219.441 365.229 219.539 365.352 219.693C365.476 219.847 365.533 220.043 365.511 220.239C365.437 220.829 359.061 279.957 358.441 285.315C358.415 285.507 358.317 285.681 358.165 285.802C358.014 285.923 357.822 285.981 357.629 285.964Z" fill="#231F20"/>
<path d="M384.433 140.816C384.136 139.466 384.188 138.063 384.583 136.738C384.978 135.414 385.704 134.211 386.691 133.244C387.213 132.676 387.919 132.31 388.684 132.211C389.136 132.211 389.582 132.324 389.979 132.541C390.376 132.758 390.712 133.071 390.957 133.451C391.435 134.216 391.756 135.069 391.902 135.96C392.488 138.378 392.568 140.89 392.138 143.34C391.699 145.823 390.403 148.074 388.477 149.702" fill="white"/>
<path d="M388.478 150.498C388.366 150.501 388.256 150.477 388.155 150.428C388.055 150.379 387.968 150.307 387.902 150.218C387.78 150.067 387.722 149.873 387.741 149.68C387.76 149.486 387.855 149.308 388.005 149.184C389.804 147.681 391.012 145.59 391.415 143.28C391.836 140.91 391.761 138.477 391.193 136.137C391.059 135.347 390.773 134.59 390.352 133.908C390.179 133.631 389.94 133.401 389.657 133.239C389.374 133.077 389.055 132.987 388.728 132.978C388.154 133.07 387.631 133.363 387.253 133.805C386.351 134.68 385.688 135.772 385.326 136.975C384.965 138.179 384.916 139.455 385.186 140.683C385.21 140.776 385.215 140.873 385.2 140.968C385.185 141.063 385.151 141.154 385.1 141.236C385.049 141.317 384.982 141.387 384.903 141.442C384.824 141.497 384.734 141.535 384.64 141.554C384.45 141.598 384.251 141.565 384.085 141.463C383.919 141.361 383.8 141.197 383.754 141.007C383.429 139.533 383.485 137.999 383.919 136.552C384.353 135.106 385.15 133.794 386.234 132.742C386.878 132.051 387.746 131.612 388.684 131.502C389.261 131.48 389.834 131.603 390.35 131.861C390.866 132.119 391.308 132.503 391.636 132.978C392.18 133.82 392.547 134.764 392.714 135.753C393.33 138.291 393.411 140.931 392.95 143.502C392.476 146.155 391.087 148.558 389.024 150.291C388.952 150.362 388.866 150.417 388.772 150.452C388.678 150.488 388.578 150.503 388.478 150.498Z" fill="#231F20"/>
<path d="M410.528 108.654C411.922 112.858 414.482 116.579 417.908 119.385C421.72 122.784 426.617 124.715 431.723 124.831C435.709 124.831 440.21 122.602 440.86 118.661C441.303 116.034 439.9 113.451 438.321 111.281C433.558 104.586 426.679 99.688 418.794 97.3776C416.403 96.7577 413.052 96.123 411.089 98.0713C408.668 100.566 409.613 105.732 410.528 108.654Z" fill="#231F20"/>
<path d="M431.547 125.569C426.349 125.397 421.377 123.407 417.496 119.945C413.933 117.064 411.27 113.222 409.821 108.875C409.23 107.001 407.548 100.639 410.632 97.5694C412.802 95.4144 416.256 95.9606 419.046 96.6838C427.087 99.0498 434.106 104.038 438.986 110.853C440.374 112.772 442.174 115.665 441.643 118.794C440.92 123.222 436.137 125.51 431.783 125.569H431.547ZM414.883 97.5251C414.3 97.4883 413.716 97.5672 413.164 97.7572C412.612 97.9472 412.102 98.2445 411.666 98.6321C409.688 100.61 410.19 104.994 411.223 108.447C412.605 112.504 415.107 116.086 418.44 118.779C422.107 122.05 426.813 123.916 431.724 124.049C435.37 124.049 439.562 122.041 440.152 118.499C440.477 116.551 439.724 114.381 437.746 111.68C433.069 105.138 426.342 100.344 418.632 98.0565C417.409 97.7231 416.15 97.5397 414.883 97.5104V97.5251Z" fill="#231F20"/>
<path d="M452.609 112.908C458.136 103.335 453.889 90.5365 443.123 84.3209C432.357 78.1053 419.149 80.8267 413.622 90.3994C408.096 99.9722 412.343 112.771 423.108 118.987C433.874 125.202 447.082 122.481 452.609 112.908Z" fill="white"/>
<path d="M435.281 123.075C430.87 123.045 426.544 121.86 422.735 119.635C417.487 116.672 413.507 111.888 411.547 106.189C410.629 103.548 410.285 100.741 410.54 97.9561C410.795 95.1713 411.641 92.4731 413.023 90.042C418.75 80.1381 432.432 77.2895 443.532 83.6953C454.631 90.101 459 103.37 453.288 113.215C451.866 115.625 449.945 117.703 447.654 119.309C445.363 120.916 442.754 122.013 440.004 122.528C438.452 122.869 436.87 123.052 435.281 123.075ZM430.927 81.747C427.595 81.6486 424.298 82.4339 421.368 84.0231C418.439 85.6122 415.982 87.9486 414.248 90.7947C412.975 93.049 412.2 95.5502 411.976 98.1296C411.751 100.709 412.084 103.306 412.949 105.746C414.842 111.074 418.57 115.552 423.466 118.379C428.362 121.205 434.105 122.195 439.665 121.171C442.209 120.696 444.623 119.683 446.744 118.199C448.864 116.715 450.643 114.794 451.96 112.566C457.288 103.355 453.155 90.9719 442.749 84.9794C439.163 82.875 435.085 81.7549 430.927 81.7322V81.747Z" fill="#231F20"/>
<path d="M322.944 326.273H258.192C257.996 326.273 257.809 326.195 257.67 326.057C257.532 325.919 257.454 325.731 257.454 325.535V288.03C257.454 287.835 257.532 287.647 257.67 287.509C257.809 287.37 257.996 287.292 258.192 287.292H322.944C323.139 287.292 323.327 287.37 323.465 287.509C323.604 287.647 323.682 287.835 323.682 288.03V325.535C323.682 325.731 323.604 325.919 323.465 326.057C323.327 326.195 323.139 326.273 322.944 326.273ZM258.93 324.797H322.206V288.768H258.93V324.797Z" fill="#D1D3D4"/>
<path d="M322.944 332.915H258.192C257.996 332.915 257.809 332.838 257.67 332.699C257.532 332.561 257.454 332.373 257.454 332.177V325.535C257.454 325.34 257.532 325.152 257.67 325.014C257.809 324.875 257.996 324.797 258.192 324.797H322.944C323.139 324.797 323.327 324.875 323.465 325.014C323.604 325.152 323.682 325.34 323.682 325.535V332.177C323.682 332.373 323.604 332.561 323.465 332.699C323.327 332.838 323.139 332.915 322.944 332.915ZM258.93 331.439H322.206V326.273H258.93V331.439Z" fill="#D1D3D4"/>
<path d="M276.952 318.672H266.118C265.923 318.672 265.735 318.595 265.597 318.456C265.458 318.318 265.38 318.13 265.38 317.934V294.407C265.38 294.211 265.458 294.024 265.597 293.885C265.735 293.747 265.923 293.669 266.118 293.669H276.967C277.163 293.669 277.35 293.747 277.489 293.885C277.627 294.024 277.705 294.211 277.705 294.407V317.949C277.703 318.046 277.682 318.142 277.643 318.23C277.604 318.319 277.548 318.4 277.478 318.467C277.408 318.534 277.326 318.587 277.236 318.622C277.145 318.657 277.049 318.674 276.952 318.672ZM266.842 317.196H276.214V295.145H266.842V317.196Z" fill="#D1D3D4"/>
<path d="M285.543 269.507H261.691C261.496 269.503 261.311 269.424 261.173 269.286C261.035 269.149 260.956 268.963 260.953 268.769V252.695C260.953 252.5 261.03 252.312 261.169 252.173C261.307 252.035 261.495 251.957 261.691 251.957H285.528C285.724 251.957 285.911 252.035 286.05 252.173C286.188 252.312 286.266 252.5 286.266 252.695V268.769C286.262 268.961 286.185 269.144 286.051 269.281C285.916 269.419 285.735 269.499 285.543 269.507ZM262.443 268.031H284.805V253.433H262.443V268.031Z" fill="#D1D3D4"/>
</svg>
