<svg width="155" height="128" viewBox="0 0 155 128" fill="none" xmlns="http://www.w3.org/2000/svg">
<path d="M39.6664 127.169C51.1653 127.169 60.487 125.915 60.487 124.368C60.487 122.821 51.1653 121.566 39.6664 121.566C28.1674 121.566 18.8457 122.821 18.8457 124.368C18.8457 125.915 28.1674 127.169 39.6664 127.169Z" fill="#E6E7E8"/>
<path d="M130.092 127.169C141.591 127.169 150.912 125.915 150.912 124.368C150.912 122.821 141.591 121.566 130.092 121.566C118.593 121.566 109.271 122.821 109.271 124.368C109.271 125.915 118.593 127.169 130.092 127.169Z" fill="#E6E7E8"/>
<path d="M38.4919 114.884C38.4919 114.884 42.1114 125.976 42.7525 125.766C43.3936 125.555 56.2774 118.083 55.8519 116.805C55.4265 115.526 46.4798 118.191 46.4798 118.191L44.4658 112.219" fill="white"/>
<path d="M42.7634 126.05C42.7043 126.051 42.6458 126.037 42.5932 126.01C41.7933 125.607 39.2914 118.157 38.2532 114.975C38.2408 114.939 38.2357 114.901 38.2381 114.864C38.2406 114.826 38.2506 114.789 38.2675 114.755C38.2844 114.721 38.3079 114.691 38.3366 114.666C38.3654 114.642 38.3987 114.623 38.4347 114.611C38.507 114.59 38.5847 114.597 38.6515 114.633C38.7182 114.668 38.7687 114.727 38.7922 114.799C40.3353 119.527 42.2244 124.737 42.8031 125.447C44.5561 124.697 55.5281 117.981 55.6019 116.867C55.4487 116.413 51.5569 116.981 46.5871 118.464C46.5164 118.483 46.4413 118.475 46.3763 118.441C46.3113 118.407 46.2611 118.351 46.2354 118.282L44.2157 112.31C44.192 112.239 44.1971 112.16 44.2299 112.093C44.2628 112.025 44.3208 111.972 44.3916 111.946C44.4639 111.924 44.5418 111.931 44.6093 111.965C44.6769 111.999 44.7289 112.057 44.7547 112.128L46.6893 117.811C54.7622 115.43 55.9933 116.225 56.1465 116.674C56.2599 117.009 56.4925 117.703 49.906 121.885C46.6609 123.936 43.2626 125.862 42.8996 125.993C42.8586 126.021 42.8122 126.04 42.7634 126.05Z" fill="#231F20"/>
<path d="M23.1576 96.3259C23.1576 96.3259 15.703 96.4338 15.4931 97.0702C15.2832 97.7066 13.0423 109.571 15.0676 108.594C17.0929 107.616 20.3891 100.911 20.3891 100.911L24.1164 100.343L23.1576 96.3259Z" fill="white"/>
<path d="M14.8463 108.929C14.6918 108.928 14.5427 108.872 14.4265 108.77C13.0366 107.531 15.0846 97.4055 15.2207 96.9793C15.2888 96.7748 15.4987 96.1497 23.1632 96.0417C23.2269 96.0444 23.2882 96.0666 23.3389 96.1052C23.3896 96.1438 23.4273 96.197 23.4469 96.2577L24.4057 100.264C24.4215 100.34 24.4073 100.419 24.366 100.485C24.3446 100.519 24.3163 100.547 24.283 100.569C24.2497 100.59 24.2123 100.604 24.1731 100.61L20.5876 101.178C20.0997 102.161 17.1496 107.935 15.1981 108.861C15.0873 108.909 14.9672 108.933 14.8463 108.929ZM15.7484 97.2066C15.4477 98.2464 13.8365 107.486 14.8066 108.344C14.8066 108.344 14.8463 108.384 14.9428 108.344C16.5313 107.594 19.226 102.662 20.1337 100.798C20.1528 100.756 20.182 100.721 20.2188 100.694C20.2555 100.667 20.2985 100.65 20.3437 100.644L23.7476 100.076L22.9136 96.5986C19.7026 96.6668 16.2249 96.8998 15.7484 97.2066Z" fill="#231F20"/>
<path d="M65.5754 8.94505L68.7638 7.11538C68.7638 7.11538 69.6601 4.24019 70.5622 3.54696C71.4642 2.85373 72.7066 3.79698 72.7066 3.79698C72.7066 3.79698 76.0028 1.04111 76.797 1.13202C77.5913 1.22294 76.5417 2.63212 75.7305 3.3424L74.0285 4.83682C74.0285 4.83682 75.5205 7.88248 74.6582 9.08143C73.7959 10.2804 66.8519 13.9852 66.8519 13.9852L65.5754 8.94505Z" fill="white"/>
<path d="M66.8408 14.2635C66.8013 14.2689 66.7612 14.2689 66.7217 14.2635C66.6829 14.2446 66.6487 14.2176 66.6213 14.1842C66.5939 14.1509 66.5739 14.112 66.5628 14.0703L65.3034 9.03587C65.2878 8.97665 65.2921 8.91394 65.3157 8.85744C65.3393 8.80095 65.3808 8.75382 65.4339 8.72335L68.5258 6.95617C68.7186 6.38795 69.5129 4.02415 70.3695 3.34228C71.2262 2.66041 72.2474 3.20023 72.6729 3.46161C73.6146 2.68314 76.0144 0.785283 76.8086 0.870516C76.9227 0.875982 77.0324 0.915785 77.1235 0.984722C77.2146 1.05366 77.2828 1.14852 77.3192 1.25691C77.5348 1.94446 76.3377 3.19454 75.9066 3.58094L74.3635 4.9333C74.7095 5.68336 75.708 8.11535 74.8741 9.27452C74.0401 10.4337 67.6861 13.8771 66.9713 14.2578C66.929 14.2708 66.8841 14.2727 66.8408 14.2635ZM65.9047 9.08701L67.0394 13.5589C69.1441 12.4225 73.7848 9.80297 74.4145 8.91086C75.0443 8.01875 74.1536 5.76291 73.7621 4.9333C73.7351 4.87675 73.7272 4.81295 73.7394 4.75148C73.7517 4.69001 73.7836 4.63418 73.8302 4.59237L75.5322 3.10363C76.298 2.42744 76.837 1.57511 76.7803 1.39896C76.3434 1.35919 74.4145 2.7286 72.8771 4.01278C72.827 4.05242 72.7651 4.07398 72.7012 4.07398C72.6374 4.07398 72.5754 4.05242 72.5254 4.01278C72.5254 4.01278 71.4304 3.20023 70.727 3.75708C70.0235 4.31394 69.2803 6.41636 69.025 7.16642C69.0018 7.23479 68.9557 7.29302 68.8945 7.3312L65.9047 9.08701Z" fill="#231F20"/>
<path d="M26.958 27.6621C29.4542 29.06 65.4564 8.00739 65.4564 8.00739L70.8176 13.5646L34.3672 40.0096L26.958 27.6621Z" fill="#FF5C64"/>
<path d="M39.0879 27.3099C39.0879 27.3099 17.6715 27.3099 12.1515 31.7136C8.06111 34.9752 7.28955 57.7153 7.28955 57.7153L48.182 54.5219C48.182 54.5219 50.5307 30.5487 39.0879 27.3099Z" fill="#FF5C64"/>
<path d="M42.1963 40.5891C42.1271 40.5891 42.0607 40.5616 42.0117 40.5126C41.9628 40.4635 41.9353 40.3971 41.9353 40.3277V29.1736C41.9353 29.1042 41.9628 29.0377 42.0117 28.9887C42.0607 28.9397 42.1271 28.9122 42.1963 28.9122C42.2655 28.9122 42.3319 28.9397 42.3808 28.9887C42.4298 29.0377 42.4573 29.1042 42.4573 29.1736V40.3277C42.4573 40.3971 42.4298 40.4635 42.3808 40.5126C42.3319 40.5616 42.2655 40.5891 42.1963 40.5891Z" fill="#231F20"/>
<path d="M88.5636 87.4049C88.2119 87.1265 75.5152 85.8253 74.7266 86.0696C73.9381 86.314 70.7554 96.826 70.8178 97.7238C70.9199 99.5194 77.932 92.3257 77.932 92.3257L88.5636 94.4622" fill="white"/>
<path d="M71.0448 98.2864C70.9887 98.2982 70.9307 98.2982 70.8746 98.2864C70.7707 98.247 70.6819 98.1759 70.6208 98.083C70.5597 97.9902 70.5294 97.8804 70.5342 97.7693C70.4945 97.0988 73.5467 86.1719 74.6473 85.8367C75.4755 85.581 88.2629 86.8367 88.7395 87.2231C88.7979 87.27 88.8355 87.3381 88.844 87.4126C88.8525 87.4871 88.8313 87.562 88.7849 87.6209C88.7422 87.6752 88.6812 87.7122 88.6134 87.7247C88.5455 87.7373 88.4753 87.7246 88.4161 87.6891C87.5254 87.3538 75.5266 86.1946 74.8004 86.3822C74.1197 86.9049 71.0334 96.8658 71.0902 97.7466C71.6575 97.9227 74.982 94.968 77.7165 92.1666C77.7495 92.132 77.7908 92.1065 77.8365 92.0926C77.8822 92.0787 77.9308 92.0768 77.9774 92.0871L88.6033 94.2066C88.6774 94.2217 88.7426 94.2652 88.785 94.3279C88.8274 94.3905 88.8436 94.4673 88.8303 94.5418C88.8228 94.5784 88.8083 94.6131 88.7874 94.644C88.7666 94.675 88.7398 94.7015 88.7087 94.7221C88.6777 94.7426 88.6428 94.7569 88.6063 94.764C88.5697 94.7711 88.5321 94.7709 88.4955 94.7634L78.0171 92.6724C76.2358 94.4623 72.3439 98.2864 71.0448 98.2864Z" fill="#231F20"/>
<path d="M135.6 112.714C135.6 113.083 139.055 124.186 140.065 124.362C141.075 124.538 155.303 120.044 154.129 119.248C152.955 118.453 146.516 119.038 146.516 119.038L143.083 109.804" fill="white"/>
<path d="M140.07 124.646H140.014C138.675 124.407 135.322 112.844 135.316 112.713C135.31 112.638 135.334 112.563 135.383 112.506C135.432 112.448 135.502 112.413 135.577 112.407C135.653 112.401 135.727 112.425 135.785 112.474C135.842 112.523 135.878 112.593 135.884 112.668C136.043 113.674 139.288 123.629 140.144 124.072C140.524 124.123 143.503 123.322 147.185 122.1C151.156 120.776 153.34 119.828 153.834 119.401C152.773 118.952 148.966 119.095 146.544 119.31C146.482 119.317 146.42 119.302 146.368 119.269C146.315 119.236 146.275 119.187 146.254 119.129L142.85 109.906C142.832 109.871 142.822 109.832 142.82 109.792C142.818 109.752 142.824 109.712 142.838 109.675C142.853 109.637 142.875 109.603 142.903 109.575C142.932 109.547 142.966 109.525 143.003 109.511C143.04 109.497 143.08 109.491 143.12 109.494C143.16 109.496 143.199 109.507 143.234 109.525C143.27 109.544 143.301 109.57 143.326 109.601C143.35 109.632 143.368 109.669 143.378 109.708L146.731 118.725C147.996 118.623 153.181 118.242 154.316 119.004C154.399 119.054 154.461 119.134 154.49 119.227C154.519 119.32 154.514 119.42 154.475 119.509C153.89 120.913 141.279 124.646 140.07 124.646Z" fill="#231F20"/>
<path d="M120.629 59.6359C120.629 59.6359 115.023 101.747 109.282 100.463C103.541 99.1784 80.5701 94.286 80.5701 94.286L82.6465 85.1944C82.6465 85.1944 98.991 86.9332 101.169 87.0923C103.348 87.2514 101.816 57.7209 101.816 57.7209L120.629 59.6359Z" fill="#231F20"/>
<path d="M109.532 100.775C109.423 100.775 109.315 100.764 109.208 100.741C103.535 99.4797 80.7287 94.6101 80.5018 94.5646C80.4274 94.548 80.3624 94.5032 80.3203 94.4396C80.2793 94.3756 80.265 94.2981 80.2806 94.2237L82.3569 85.1321C82.374 85.0651 82.4141 85.0063 82.47 84.9658C82.526 84.9253 82.5944 84.9057 82.6633 84.9105C82.8278 84.9105 99.0305 86.655 101.181 86.8084C102.315 86.2402 102.242 71.5858 101.527 57.7325C101.523 57.6924 101.529 57.652 101.544 57.6146C101.559 57.5771 101.582 57.5436 101.612 57.5166C101.641 57.4875 101.677 57.4653 101.716 57.4516C101.756 57.4378 101.797 57.4329 101.839 57.4371L120.657 59.3576C120.696 59.3607 120.733 59.3719 120.767 59.3905C120.802 59.4091 120.832 59.4347 120.855 59.4656C120.878 59.495 120.895 59.5288 120.905 59.5649C120.915 59.6011 120.917 59.6388 120.912 59.6758C120.713 61.1873 115.931 96.667 110.553 100.429C110.256 100.646 109.899 100.767 109.532 100.775ZM80.8989 94.0703C83.5483 94.6385 103.995 98.9967 109.333 100.19C109.49 100.216 109.652 100.209 109.806 100.169C109.96 100.129 110.105 100.057 110.229 99.957C115.154 96.5079 119.834 63.3579 120.311 59.8861L102.105 58.0337C102.31 62.0624 103.405 85.4049 101.578 87.1948C101.521 87.2545 101.452 87.3012 101.376 87.3316C101.299 87.362 101.217 87.3754 101.135 87.3709C99.1269 87.2232 84.9269 85.7174 82.8562 85.4958L80.8989 94.0703Z" fill="#231F20"/>
<path d="M115.522 62.9373L135.243 118.81L146.328 112.856L129.337 59.636L115.522 62.9373Z" fill="#231F20"/>
<path d="M135.237 119.094C135.203 119.101 135.169 119.101 135.135 119.094C135.096 119.08 135.06 119.058 135.031 119.028C135.001 118.999 134.979 118.963 134.965 118.924L115.25 63.0508C115.235 63.0139 115.227 62.9743 115.227 62.9343C115.227 62.8943 115.235 62.8547 115.25 62.8179C115.292 62.7483 115.359 62.6975 115.437 62.6758L129.246 59.3744C129.316 59.3569 129.39 59.3672 129.452 59.4033C129.515 59.4393 129.561 59.4982 129.581 59.5676L146.6 112.787C146.62 112.85 146.617 112.918 146.592 112.979C146.568 113.041 146.522 113.091 146.464 113.122L135.373 119.077C135.33 119.095 135.283 119.101 135.237 119.094ZM115.891 63.1417L135.39 118.407L145.982 112.725L129.144 59.9711L115.891 63.1417Z" fill="#231F20"/>
<path d="M131.731 37.4016L138.635 35.1288C138.318 34.6628 134.834 23.9461 130.693 21.9062C127.079 19.5083 120.402 19.9629 112.845 20.4914C110.421 20.611 108.03 21.1094 105.759 21.9687C97.2493 25.3781 96.0239 36.6004 96.0239 36.6004L103.881 39.345C103.881 39.345 102.611 54.6131 101.413 62.5966C101.413 62.5966 110.99 66.2332 132.395 62.6818C132.4 62.642 131.771 39.6575 131.731 37.4016Z" fill="#FF5C64"/>
<path d="M122.762 24.8041L115.097 42.3223L113.219 25.4234L122.762 24.8041Z" fill="#231F20"/>
<path d="M115.097 42.6065H115.057C114.996 42.5969 114.939 42.5672 114.896 42.522C114.853 42.4768 114.826 42.4186 114.819 42.3565L112.941 25.4519C112.935 25.3765 112.958 25.3017 113.003 25.2417C113.028 25.2121 113.058 25.1877 113.092 25.1702C113.126 25.1526 113.164 25.1421 113.202 25.1394L122.756 24.52C122.804 24.518 122.852 24.5278 122.895 24.5486C122.939 24.5694 122.977 24.6006 123.005 24.6394C123.034 24.6794 123.051 24.726 123.056 24.7748C123.061 24.8236 123.053 24.8729 123.034 24.9178L115.381 42.436C115.356 42.4901 115.316 42.5354 115.265 42.5659C115.215 42.5964 115.156 42.6105 115.097 42.6065ZM113.537 25.7076L115.239 41.2655L122.319 25.1394L113.537 25.7076Z" fill="#231F20"/>
<path d="M126.767 2.76274C125.816 1.6802 124.57 0.900005 123.182 0.51834C121.794 0.136676 120.324 0.170231 118.955 0.61487C116.527 1.39901 114.314 2.75706 111.881 3.53552C109.447 4.31399 106.576 4.41627 104.562 2.84798C104.575 3.43412 104.712 4.01082 104.965 4.53944C105.218 5.06806 105.581 5.53639 106.03 5.91303C106.479 6.28968 107.002 6.56595 107.566 6.72332C108.13 6.88069 108.721 6.91554 109.299 6.82552C109.209 7.39374 108.437 7.47898 107.887 7.35965C107.336 7.24032 106.633 7.10395 106.293 7.55853C106.203 7.70989 106.15 7.88003 106.137 8.05555C106.124 8.23107 106.152 8.40716 106.219 8.56996C106.633 9.93937 107.881 10.8428 109.055 11.6724C110.757 12.8487 112.459 13.093 114.195 13.9056C116.033 14.7749 117.406 15.9796 119.517 16.275C121.436 16.5338 123.382 16.0547 124.963 14.934C125.956 14.2294 127.976 13.2691 127.578 11.7577C127.386 11.0417 128.645 9.67799 128.713 8.62678C128.812 7.56767 128.69 6.49958 128.355 5.49016C128.02 4.48074 127.479 3.55199 126.767 2.76274Z" fill="white"/>
<path d="M120.487 16.6159C120.142 16.617 119.797 16.5923 119.455 16.5421C118.096 16.29 116.802 15.7684 115.648 15.0079C115.143 14.7124 114.615 14.4397 114.048 14.1442C113.424 13.8592 112.784 13.6107 112.131 13.3998C110.977 13.0533 109.879 12.5444 108.868 11.8883C107.558 10.9792 106.35 10.0473 105.924 8.63813C105.843 8.43246 105.811 8.21047 105.832 7.99026C105.853 7.77005 105.925 7.55787 106.043 7.371C106.207 7.18524 106.418 7.04824 106.654 6.97506C106.891 6.90188 107.142 6.89536 107.382 6.9562C106.822 6.77184 106.302 6.4826 105.85 6.10387C105.358 5.70939 104.961 5.20862 104.689 4.63894C104.417 4.06926 104.277 3.44539 104.279 2.81387C104.279 2.76145 104.294 2.71017 104.322 2.66594C104.35 2.62171 104.39 2.58633 104.438 2.56386C104.485 2.54231 104.538 2.5341 104.59 2.54011C104.642 2.54611 104.691 2.5661 104.733 2.59795C107.121 4.45603 110.468 3.6662 111.796 3.24004C112.998 2.84694 114.174 2.38012 115.319 1.84222C116.472 1.2817 117.658 0.792125 118.87 0.376211C120.291 -0.0868777 121.815 -0.123255 123.256 0.271569C124.697 0.666392 125.99 1.47513 126.977 2.59795C127.714 3.41374 128.274 4.37374 128.622 5.41731C128.969 6.46088 129.097 7.56533 128.997 8.66086C128.886 9.26712 128.659 9.84605 128.328 10.3655C128.061 10.8542 127.76 11.411 127.834 11.6781C128.22 13.1441 126.733 14.1044 125.65 14.8033C125.457 14.9283 125.27 15.0476 125.111 15.1613C123.754 16.1084 122.141 16.616 120.487 16.6159ZM107.053 7.52442C106.955 7.51331 106.855 7.52553 106.763 7.56008C106.67 7.59463 106.587 7.65055 106.52 7.72329C106.462 7.84115 106.43 7.96982 106.425 8.10099C106.42 8.23215 106.443 8.36287 106.491 8.48471C106.86 9.71775 107.989 10.5814 109.215 11.4338C110.182 12.0608 111.235 12.545 112.34 12.8714C113.011 13.0947 113.67 13.3526 114.315 13.6441C114.882 13.9169 115.449 14.2124 115.954 14.5249C117.045 15.2503 118.27 15.7488 119.557 15.9909C121.404 16.2319 123.274 15.7718 124.799 14.701C124.963 14.5817 125.156 14.4567 125.366 14.326C126.359 13.6839 127.59 12.8884 127.306 11.8258C127.182 11.3372 127.488 10.7633 127.874 10.1212C128.148 9.65078 128.336 9.13507 128.43 8.59835C128.522 7.58295 128.403 6.55945 128.081 5.59229C127.759 4.62513 127.24 3.73525 126.558 2.97866C125.643 1.93825 124.445 1.18859 123.11 0.822082C121.775 0.455569 120.363 0.488223 119.046 0.91602C117.854 1.32393 116.689 1.80596 115.557 2.3593C114.392 2.92122 113.195 3.41452 111.972 3.83667C109.237 4.71173 106.69 4.55831 104.88 3.43892C105.034 4.33353 105.508 5.14141 106.213 5.7118C106.622 6.07344 107.106 6.33796 107.631 6.48556C108.155 6.63316 108.706 6.66002 109.243 6.56413C109.287 6.55559 109.333 6.55784 109.377 6.57069C109.42 6.58354 109.46 6.60662 109.493 6.63799C109.528 6.66834 109.554 6.7075 109.569 6.75144C109.584 6.79538 109.587 6.84252 109.578 6.88801C109.558 7.00364 109.515 7.11391 109.45 7.21177C109.386 7.30963 109.302 7.39289 109.203 7.45623C108.784 7.69185 108.29 7.75696 107.825 7.63806C107.572 7.57579 107.313 7.53774 107.053 7.52442Z" fill="#231F20"/>
<path d="M114.598 20.0253L113.225 25.4234C113.225 25.4234 114.751 28.9464 118.393 28.2645C122.035 27.5827 122.762 24.8552 122.767 24.8552L123.38 19.0423L123.76 15.4682C123.856 15.1011 123.9 14.7224 123.891 14.3431C123.664 13.5305 122.648 13.0873 122.353 12.2464C121.763 10.5618 121.842 8.71455 122.574 7.08691C121.054 8.31427 119.307 9.56436 117.355 9.43367C117.749 9.02013 118.104 8.57125 118.416 8.09267L114.598 9.4564C114.102 9.61991 113.593 9.74156 113.077 9.82006C112.51 9.92802 112.731 9.57004 112.3 10.2633C111.234 11.9679 111.086 14.9113 111.302 16.8717C111.608 19.656 114.598 20.0253 114.598 20.0253Z" fill="white"/>
<path d="M117.457 28.6169C114.343 28.6169 112.976 25.5655 112.964 25.5371C112.942 25.4767 112.942 25.4101 112.964 25.3496L114.263 20.2356C113.452 20.0368 111.302 19.2867 111.035 16.8263C110.814 14.8319 110.962 11.8544 112.079 10.0361L112.108 9.98494C112.374 9.55877 112.459 9.41671 112.777 9.46785C112.865 9.48907 112.956 9.48907 113.044 9.46785C113.544 9.39147 114.038 9.27364 114.519 9.11556L118.337 7.74615C118.393 7.72678 118.454 7.72569 118.511 7.74303C118.568 7.76037 118.618 7.79526 118.655 7.84275C118.688 7.89118 118.706 7.94865 118.706 8.00753C118.706 8.0664 118.688 8.12388 118.655 8.17231C118.45 8.48353 118.228 8.78324 117.991 9.0701C119.613 8.92236 121.1 7.83138 122.382 6.79722C122.432 6.75758 122.494 6.73602 122.558 6.73602C122.622 6.73602 122.683 6.75758 122.734 6.79722C122.786 6.83488 122.823 6.88975 122.838 6.95213C122.854 7.01451 122.847 7.08039 122.819 7.13815C122.118 8.70207 122.043 10.4753 122.609 12.093C122.771 12.4651 123.015 12.7953 123.324 13.059C123.699 13.3743 123.986 13.7814 124.158 14.2409C124.2 14.545 124.179 14.8547 124.095 15.1501C124.095 15.2637 124.055 15.366 124.044 15.4455L123.051 24.8325C123.051 24.8325 122.314 27.7702 118.456 28.5203C118.127 28.5847 117.793 28.617 117.457 28.6169ZM113.52 25.3951C113.781 25.9235 115.222 28.5657 118.337 27.9634C121.769 27.2986 122.484 24.7587 122.49 24.7303L123.477 15.3887C123.477 15.2921 123.511 15.1728 123.533 15.0421C123.593 14.8316 123.618 14.6128 123.607 14.3943C123.459 14.03 123.221 13.7094 122.915 13.4624C122.552 13.1513 122.264 12.7631 122.07 12.326C121.574 10.9002 121.533 9.35569 121.951 7.90525C120.6 8.92236 119.052 9.81447 117.327 9.70083C117.273 9.69753 117.221 9.67857 117.178 9.64628C117.135 9.61399 117.102 9.56976 117.083 9.51899C117.063 9.4685 117.058 9.41352 117.068 9.36029C117.078 9.30706 117.103 9.25771 117.14 9.21784C117.316 9.03601 117.486 8.84849 117.645 8.64962L114.689 9.70651C114.194 9.87445 113.685 9.99805 113.169 10.0759C113.022 10.0991 112.873 10.0991 112.726 10.0759L112.573 10.3202L112.544 10.3656C111.569 11.9567 111.359 14.7409 111.58 16.7979C111.858 19.3492 114.519 19.7356 114.632 19.747C114.672 19.7528 114.711 19.7669 114.745 19.7884C114.779 19.8099 114.808 19.8384 114.831 19.872C114.854 19.9046 114.869 19.9419 114.876 19.9812C114.883 20.0205 114.881 20.0608 114.87 20.0993L113.52 25.3951Z" fill="#231F20"/>
<path d="M113.872 22.8664C114.486 23.0163 115.127 23.0139 115.74 22.8594C116.353 22.7049 116.919 22.4031 117.389 21.98C119.046 20.5197 118.983 19.2298 118.983 19.2298C117.678 20.0488 116.108 20.3337 114.598 20.0253L113.872 22.8664Z" fill="#231F20"/>
<path d="M114.813 23.2698C114.478 23.2748 114.144 23.2327 113.821 23.1448C113.751 23.1236 113.692 23.0764 113.656 23.013C113.62 22.9495 113.61 22.8746 113.628 22.8039L114.348 19.9628C114.357 19.9265 114.374 19.8925 114.396 19.8626C114.419 19.8327 114.447 19.8075 114.479 19.7885C114.511 19.7695 114.547 19.7571 114.583 19.7519C114.62 19.7467 114.658 19.7488 114.694 19.7582C116.128 20.0354 117.614 19.7593 118.853 18.9854C118.894 18.9567 118.942 18.9396 118.992 18.9361C119.042 18.9326 119.092 18.9427 119.137 18.9655C119.182 18.9882 119.22 19.0227 119.247 19.0652C119.273 19.1077 119.288 19.1567 119.29 19.207C119.29 19.2638 119.341 20.6503 117.588 22.1845C116.828 22.8769 115.84 23.2635 114.813 23.2698ZM114.246 22.6618C114.778 22.7449 115.322 22.7084 115.838 22.5551C116.354 22.4018 116.829 22.1355 117.23 21.7754C117.875 21.2534 118.361 20.5603 118.631 19.7752C117.464 20.3852 116.13 20.5985 114.83 20.3832L114.246 22.6618Z" fill="#231F20"/>
<path d="M116.856 11.536C116.856 11.536 114.745 14.1953 115.154 14.7237C115.562 15.2522 116.856 15.0249 116.856 15.0249" fill="white"/>
<path d="M116.249 15.3603C116.009 15.3833 115.767 15.3551 115.54 15.2778C115.312 15.2004 115.103 15.0755 114.927 14.9114C114.479 14.3431 115.607 12.6385 116.629 11.3713C116.651 11.3417 116.68 11.317 116.712 11.2986C116.745 11.2802 116.781 11.2685 116.818 11.2643C116.855 11.26 116.892 11.2633 116.928 11.2739C116.964 11.2845 116.997 11.3021 117.026 11.3259C117.084 11.3727 117.122 11.4409 117.13 11.5154C117.139 11.5899 117.118 11.6648 117.071 11.7236C116.09 12.9624 115.295 14.2977 115.369 14.5647C115.585 14.8432 116.413 14.8091 116.77 14.7466C116.845 14.7349 116.921 14.7528 116.982 14.7963C117.044 14.8397 117.086 14.9055 117.1 14.9795C117.106 15.0165 117.105 15.0544 117.097 15.091C117.089 15.1276 117.073 15.1622 117.052 15.1929C117.03 15.2235 117.003 15.2496 116.971 15.2695C116.939 15.2895 116.904 15.3029 116.867 15.3091C116.662 15.34 116.456 15.3571 116.249 15.3603Z" fill="#231F20"/>
<path d="M119.137 12.1814C119.394 12.1803 119.601 11.8843 119.599 11.5203C119.598 11.1563 119.388 10.8621 119.131 10.8632C118.874 10.8642 118.667 11.1602 118.669 11.5242C118.67 11.8883 118.88 12.1825 119.137 12.1814Z" fill="#231F20"/>
<path d="M115.179 11.3252C115.284 10.9769 115.171 10.6339 114.925 10.5591C114.679 10.4844 114.394 10.7061 114.288 11.0545C114.183 11.4028 114.296 11.7458 114.542 11.8206C114.788 11.8953 115.073 11.6736 115.179 11.3252Z" fill="#231F20"/>
<path d="M116.453 17.4682C115.044 17.406 113.685 16.9298 112.544 16.0988C112.512 16.0771 112.485 16.049 112.464 16.0163C112.443 15.9835 112.43 15.9469 112.423 15.9086C112.417 15.8703 112.419 15.8312 112.429 15.7936C112.438 15.756 112.455 15.7208 112.479 15.6901C112.503 15.6594 112.532 15.6338 112.566 15.6151C112.6 15.5963 112.638 15.5847 112.676 15.5809C112.715 15.5772 112.754 15.5814 112.79 15.5932C112.827 15.6051 112.861 15.6244 112.89 15.65C113.021 15.7522 116.119 18.1046 118.796 16.1159C118.826 16.0888 118.86 16.0683 118.898 16.0555C118.936 16.0428 118.976 16.0382 119.016 16.042C119.055 16.0458 119.094 16.0579 119.128 16.0776C119.163 16.0972 119.193 16.124 119.217 16.1562C119.24 16.1883 119.257 16.225 119.266 16.2641C119.274 16.3031 119.274 16.3434 119.266 16.3825C119.258 16.4216 119.242 16.4585 119.219 16.4909C119.195 16.5233 119.165 16.5504 119.131 16.5705C118.361 17.1557 117.42 17.4712 116.453 17.4682Z" fill="#231F20"/>
<path d="M122.325 13.8544C122.54 13.643 122.796 13.4769 123.076 13.3657C123.357 13.2544 123.657 13.2004 123.958 13.2066C124.261 13.2203 124.554 13.3208 124.801 13.496C125.048 13.6713 125.24 13.914 125.354 14.1953C125.434 14.5274 125.427 14.8743 125.336 15.2034C125.245 15.5324 125.071 15.8328 124.832 16.0761C124.49 16.4676 124.07 16.7831 123.599 17.0023C123.128 17.2215 122.617 17.3396 122.098 17.3489" fill="white"/>
<path d="M122.098 17.6445C122.023 17.6445 121.951 17.6146 121.897 17.5613C121.844 17.508 121.814 17.4357 121.814 17.3604C121.814 17.3234 121.82 17.2865 121.834 17.2521C121.847 17.2177 121.868 17.1863 121.894 17.1598C121.92 17.1334 121.95 17.1124 121.985 17.098C122.019 17.0837 122.055 17.0763 122.092 17.0763C122.572 17.0695 123.045 16.9613 123.48 16.7585C123.915 16.5558 124.303 16.2633 124.617 15.9001C124.823 15.6938 124.973 15.4388 125.055 15.1587C125.136 14.8786 125.145 14.5824 125.082 14.2977C124.988 14.0706 124.832 13.8751 124.631 13.7342C124.43 13.5932 124.193 13.5128 123.947 13.5022C123.684 13.4957 123.422 13.5428 123.177 13.6404C122.933 13.7381 122.71 13.8843 122.523 14.0704C122.469 14.1228 122.397 14.1521 122.322 14.1521C122.247 14.1521 122.175 14.1228 122.121 14.0704C122.094 14.044 122.073 14.0126 122.059 13.978C122.044 13.9433 122.037 13.9062 122.037 13.8687C122.037 13.8312 122.044 13.7941 122.059 13.7594C122.073 13.7248 122.094 13.6934 122.121 13.667C122.366 13.4304 122.656 13.2455 122.973 13.1235C123.291 13.0015 123.63 12.9447 123.97 12.9567C124.327 12.9756 124.671 13.0964 124.962 13.3048C125.252 13.5132 125.477 13.8006 125.61 14.1329C125.71 14.5121 125.71 14.9108 125.611 15.2902C125.511 15.6695 125.315 16.0167 125.042 16.2978C124.674 16.72 124.22 17.06 123.712 17.2959C123.204 17.5317 122.652 17.6582 122.092 17.6672L122.098 17.6445Z" fill="#231F20"/>
<path d="M47.3701 69.6196C47.3701 69.6196 53.8092 96.0987 49.5599 97.9397C45.3107 99.7807 21.1315 103.321 21.1315 103.321L20.0366 95.6839C20.0366 95.6839 38.639 91.604 39.6545 90.6778C40.67 89.7516 33.414 67.2501 33.2438 67.0683C33.0736 66.8864 47.3701 69.6196 47.3701 69.6196Z" fill="#231F20"/>
<path d="M21.132 103.605C21.0726 103.603 21.0152 103.584 20.9674 103.548C20.9371 103.526 20.9114 103.498 20.8919 103.466C20.8724 103.434 20.8595 103.398 20.854 103.361L19.7534 95.7237C19.7432 95.6525 19.7603 95.58 19.8014 95.5209C19.8424 95.4619 19.9044 95.4206 19.9746 95.4055C27.1399 93.8372 38.7643 91.1041 39.4621 90.4677C40.0294 89.2346 33.63 68.5287 33.006 67.2161C32.9794 67.1724 32.9654 67.1223 32.9654 67.0712C32.9654 67.0201 32.9794 66.9699 33.006 66.9263C33.1365 66.6763 33.1705 66.6081 47.4329 69.3412C47.4863 69.3509 47.5356 69.3759 47.5749 69.4133C47.6142 69.4506 47.6418 69.4986 47.6542 69.5515C48.3236 72.2846 54.0309 96.3147 49.6852 98.2011C45.4473 100.042 22.1758 103.457 21.1887 103.599L21.132 103.605ZM20.3547 95.9055L21.3759 102.986C24.0877 102.582 45.5267 99.3717 49.4469 97.667C50.366 97.2693 51.6254 94.8543 49.7817 83.1263C48.8115 76.9838 47.3989 70.955 47.1379 69.8526C42.3441 68.9378 35.4625 67.6479 33.6811 67.3809C34.9179 70.6084 40.0975 87.5129 40.0351 90.2802C40.0457 90.3875 40.034 90.496 40.0008 90.5986C39.9676 90.7013 39.9136 90.796 39.8422 90.8768C38.838 91.8087 23.1743 95.2862 20.3547 95.9055Z" fill="#231F20"/>
<path d="M17.6709 68.7103L37.8051 116.344L46.4794 114.668L33.3006 64.3862L17.6709 68.7103Z" fill="#231F20"/>
<path d="M37.8053 116.623C37.7501 116.622 37.6962 116.606 37.6499 116.576C37.6037 116.546 37.567 116.503 37.5443 116.452L17.4101 68.8128C17.395 68.7752 17.3879 68.735 17.3893 68.6945C17.3907 68.6541 17.4006 68.6144 17.4182 68.578C17.4358 68.5416 17.4609 68.5093 17.4917 68.4832C17.5226 68.4571 17.5585 68.4377 17.5973 68.4264L33.2213 64.1079C33.2562 64.0927 33.2939 64.0849 33.3319 64.0849C33.37 64.0849 33.4077 64.0927 33.4426 64.1079C33.5059 64.1463 33.5525 64.2072 33.5731 64.2784L46.7349 114.6C46.7464 114.637 46.7493 114.676 46.7434 114.715C46.7375 114.753 46.723 114.79 46.7009 114.822C46.6807 114.855 46.6535 114.885 46.6212 114.907C46.589 114.93 46.5523 114.945 46.5136 114.952L37.862 116.623H37.8053ZM18.0625 68.8923L37.9755 116.015L46.1279 114.441L33.0795 64.7329L18.0625 68.8923Z" fill="#231F20"/>
<path d="M24.7857 6.25737C23.336 5.23428 21.5968 4.70421 19.8239 4.74512C18.051 4.78604 16.338 5.39578 14.937 6.48466C13.8723 7.31892 13.0638 8.43679 12.6042 9.71012C12.1447 10.9835 12.0526 12.3607 12.3387 13.684C12.7033 14.9834 13.4686 16.1341 14.5251 16.9719C15.5816 17.8097 16.8754 18.2917 18.2218 18.3491C20.8258 18.4798 23.5659 16.2467 24.9502 14.2011C26.6238 11.7294 27.7471 8.30297 24.7857 6.25737Z" fill="white"/>
<path d="M18.4428 18.639H18.2045C16.7985 18.583 15.4464 18.082 14.3425 17.2081C13.2385 16.3342 12.4396 15.1322 12.0604 13.775C11.7669 12.3978 11.8643 10.9658 12.3415 9.64115C12.8188 8.31652 13.6569 7.15223 14.7609 6.28017C16.2109 5.14488 17.9882 4.50892 19.8282 4.46694C21.6682 4.42496 23.4725 4.97921 24.9727 6.04719C28.5808 8.51896 26.3115 12.684 25.1769 14.3432C23.7756 16.4513 21.0865 18.639 18.4428 18.639ZM19.9575 5.00167C18.1965 5.00459 16.4886 5.60553 15.1126 6.70633C14.094 7.50998 13.32 8.58282 12.8779 9.80375C12.4358 11.0247 12.3433 12.3451 12.6107 13.6159C12.9561 14.8586 13.6868 15.9592 14.6973 16.7589C15.7079 17.5586 16.9459 18.016 18.2329 18.0651C20.6156 18.173 23.3047 16.1331 24.7174 14.0421C25.7556 12.5022 27.8263 8.6951 24.6266 6.49609C23.2549 5.54335 21.6268 5.03015 19.9575 5.02439V5.00167Z" fill="#231F20"/>
<path d="M19.5491 10.587C18.6101 11.4129 17.8981 12.4659 17.481 13.6456C17.0639 14.8254 16.9555 16.0925 17.1663 17.3262C17.2447 18.0101 17.5622 18.6442 18.0627 19.1161C19.0668 19.9343 20.5873 19.457 21.6652 18.741C23.4061 17.5197 24.841 15.9113 25.8577 14.0418C26.6122 12.7236 27.7525 9.75176 25.7102 9.01875C23.6678 8.28575 21.0468 9.2915 19.5491 10.587Z" fill="#231F20"/>
<path d="M19.3444 19.8264C18.8145 19.8397 18.2966 19.6668 17.8807 19.3377C17.3212 18.8258 16.9681 18.1264 16.8879 17.3717C16.6661 16.0894 16.7771 14.7716 17.2102 13.5447C17.6434 12.3178 18.3841 11.223 19.3614 10.3655C20.9215 9.01881 23.7128 7.99602 25.8062 8.74607C26.0773 8.83362 26.3252 8.98127 26.5314 9.17802C26.7377 9.37478 26.897 9.61558 26.9975 9.88251C27.5649 11.4963 26.26 13.8941 26.1012 14.1612C25.0665 16.0708 23.6019 17.7128 21.8236 18.957C21.0957 19.4753 20.2362 19.7767 19.3444 19.8264ZM24.2574 9.06995C22.5941 9.12568 20.997 9.73556 19.7188 10.803C18.8201 11.5978 18.1397 12.61 17.7424 13.743C17.3452 14.8759 17.2443 16.092 17.4495 17.2751C17.514 17.8922 17.7955 18.4662 18.2438 18.8945C19.1345 19.6161 20.5131 19.1616 21.5172 18.5024C23.2228 17.308 24.6271 15.7322 25.619 13.8998C26.1239 13.0134 26.8784 11.2178 26.4699 10.1041C26.4015 9.91143 26.2888 9.73752 26.141 9.5964C25.9932 9.45527 25.8144 9.35086 25.619 9.29156C25.1815 9.1387 24.7207 9.0637 24.2574 9.06995Z" fill="#231F20"/>
<path d="M30.0441 26.7132C29.597 27.1472 29.1253 27.555 28.6315 27.9349C27.6535 28.5085 26.5463 28.8244 25.4133 28.8532C24.2803 28.8821 23.1585 28.6228 22.1527 28.0997C17.3589 25.6279 17.4723 20.0139 18.4651 15.4454C18.8679 13.5873 20.2238 9.71202 22.7257 11.6497C21.9939 11.0814 24.995 9.20062 25.4545 9.02447C28.6429 7.72324 32.0298 9.59269 33.8962 12.1895C35.0002 13.6741 35.9363 15.2768 36.6875 16.9682C37.425 18.832 36.6194 21.389 35.5528 22.9743C34.7288 24.2028 33.5878 25.1847 32.251 25.8154C31.6326 26.1052 30.8384 26.1791 30.2654 26.537L30.0441 26.7132Z" fill="white"/>
<path d="M25.2963 29.1168C24.1598 29.1181 23.0394 28.8473 22.0285 28.3269C18.0573 26.2814 16.7638 21.9231 18.1878 15.3658C18.3807 14.4794 19.1352 11.536 20.8088 10.9223C21.0711 10.8313 21.35 10.7984 21.6262 10.8259C21.9024 10.8533 22.1694 10.9405 22.4087 11.0814C22.8682 10.1041 25.1829 8.80856 25.3474 8.74037C28.791 7.33687 32.3141 9.44497 34.1295 12.002C35.2549 13.501 36.2065 15.1233 36.9661 16.8375C37.7433 18.7922 36.9207 21.4572 35.8315 23.088C34.9847 24.3604 33.808 25.378 32.4275 26.0313C32.1307 26.1616 31.8232 26.2662 31.5085 26.3439C31.1492 26.4306 30.8023 26.5624 30.476 26.7359C30.4022 26.7871 30.3285 26.8382 30.2604 26.895C30.0614 27.0441 29.872 27.2054 29.6931 27.378C29.4218 27.661 29.1213 27.9143 28.7967 28.1338C27.7438 28.781 26.5317 29.1214 25.2963 29.1168ZM21.4215 11.3826C21.2783 11.3817 21.1361 11.4068 21.0017 11.4565C19.8671 11.8656 19.0898 13.8828 18.7324 15.4852C17.3708 21.7356 18.5622 25.912 22.2725 27.8212C23.2346 28.3225 24.3077 28.5719 25.3919 28.5461C26.4761 28.5202 27.5361 28.2201 28.4733 27.6735C28.7627 27.4742 29.0324 27.2478 29.2789 26.9973C29.4586 26.8113 29.648 26.6349 29.8462 26.4689C29.9314 26.4013 30.0205 26.3387 30.1129 26.2814C30.4811 26.0698 30.8788 25.9147 31.2929 25.8211C31.5783 25.7497 31.8572 25.6546 32.1269 25.537C33.4183 24.9285 34.5204 23.9798 35.3152 22.7925C36.325 21.264 37.0966 18.8149 36.3988 17.0478C35.6726 15.3868 34.763 13.8125 33.687 12.3543C31.985 9.97341 28.7343 8.00169 25.58 9.29155C25.0127 9.51884 22.8852 10.9962 22.9136 11.4224C22.9426 11.4448 22.967 11.4727 22.9853 11.5045C23.0036 11.5363 23.0154 11.5714 23.0202 11.6078C23.0249 11.6442 23.0224 11.6812 23.0129 11.7167C23.0034 11.7521 22.987 11.7853 22.9646 11.8145C22.9423 11.8436 22.9144 11.868 22.8827 11.8863C22.8509 11.9046 22.8158 11.9165 22.7795 11.9212C22.7431 11.926 22.7062 11.9235 22.6708 11.914C22.6354 11.9044 22.6022 11.888 22.5732 11.8656C22.2512 11.5879 21.8459 11.4259 21.4215 11.4053V11.3826Z" fill="#231F20"/>
<path d="M33.6125 15.9456C33.6125 15.9456 35.4903 20.0424 35.0364 23.3324C34.9319 24.2444 34.5645 25.1061 33.9792 25.8124C33.3939 26.5187 32.6159 27.0391 31.7403 27.31L32.2339 32.9922C32.2339 32.9922 32.5175 35.9015 28.915 35.7651C27.8697 35.7244 26.8521 35.417 25.9585 34.8721C25.065 34.3272 24.3252 33.5627 23.8092 32.6513L22.51 22.2301C22.51 22.2301 26.3451 19.5538 25.6643 15.8262C25.6643 15.8262 30.6624 17.7525 33.6125 15.9456Z" fill="white"/>
<path d="M29.1481 36.0549H28.8928C27.7987 36.0141 26.7336 35.6922 25.7997 35.12C24.8657 34.5478 24.0945 33.7446 23.56 32.7876C23.5576 32.7573 23.5576 32.7269 23.56 32.6967L22.2495 22.2641C22.2412 22.2128 22.2481 22.1602 22.2693 22.1128C22.2905 22.0654 22.325 22.0251 22.3686 21.9971C22.4027 21.9971 26.0392 19.3776 25.4038 15.8773C25.3962 15.8274 25.4011 15.7764 25.4179 15.7288C25.4347 15.6813 25.463 15.6386 25.5002 15.6046C25.54 15.5739 25.5867 15.5537 25.6363 15.5457C25.6858 15.5378 25.7366 15.5424 25.7839 15.5591C25.8349 15.5591 30.6912 17.3945 33.4824 15.7012C33.5183 15.6858 33.5569 15.678 33.5959 15.678C33.6349 15.678 33.6735 15.6858 33.7093 15.7012C33.748 15.7125 33.7837 15.732 33.8141 15.7585C33.8445 15.785 33.8687 15.8178 33.8852 15.8546C33.9646 16.0251 35.7971 20.0651 35.3375 23.3892C35.2242 24.3156 34.8582 25.1928 34.2797 25.9246C33.7013 26.6563 32.9327 27.2143 32.0584 27.5372L32.535 33.0035C32.559 33.3925 32.5062 33.7824 32.3796 34.151C32.2531 34.5195 32.0553 34.8595 31.7975 35.1514C31.4434 35.4791 31.0247 35.7288 30.5684 35.8844C30.112 36.04 29.6282 36.0981 29.1481 36.0549ZM24.0876 32.5717C24.5795 33.4277 25.2807 34.1444 26.1253 34.6543C26.9698 35.1642 27.93 35.4507 28.9155 35.4867C29.3512 35.5449 29.7943 35.508 30.2144 35.3785C30.6345 35.2491 31.0216 35.0301 31.3493 34.7366C31.754 34.2647 31.9577 33.6526 31.9166 33.0319L31.423 27.3497C31.4182 27.2822 31.4371 27.2151 31.4765 27.1601C31.5159 27.1051 31.5732 27.0656 31.6386 27.0486C32.4626 26.7948 33.194 26.304 33.7417 25.6372C34.2894 24.9704 34.6293 24.157 34.7192 23.2983C35.0936 20.622 33.8455 17.332 33.4427 16.3603C30.9011 17.6672 27.2419 16.6728 25.9768 16.2637C26.2718 19.5139 23.4579 21.8607 22.7771 22.3778L24.0876 32.5717Z" fill="#231F20"/>
<path d="M24.417 21.3208C24.417 21.3208 22.3122 17.5251 20.5535 20.1843C18.7948 22.8436 21.9151 25.2983 23.6511 24.9347" fill="white"/>
<path d="M23.265 25.2643C22.6778 25.2236 22.1077 25.0488 21.5983 24.7533C21.089 24.4578 20.6538 24.0495 20.3263 23.5597C19.9572 23.0435 19.7588 22.4245 19.7588 21.7896C19.7588 21.1548 19.9572 20.5358 20.3263 20.0196C20.4883 19.7046 20.7317 19.4389 21.031 19.25C21.3303 19.0612 21.6747 18.9561 22.0283 18.9457C23.4636 19.0025 24.6323 21.0822 24.6833 21.1731C24.7012 21.2059 24.7125 21.242 24.7164 21.2792C24.7204 21.3164 24.717 21.354 24.7065 21.3898C24.696 21.4257 24.6785 21.4592 24.655 21.4883C24.6316 21.5174 24.6027 21.5416 24.5699 21.5595C24.5371 21.5774 24.5011 21.5887 24.464 21.5927C24.4269 21.5966 24.3893 21.5933 24.3535 21.5827C24.3177 21.5722 24.2843 21.5546 24.2552 21.5312C24.2261 21.5077 24.202 21.4787 24.1841 21.4459C23.8948 20.9231 22.9303 19.548 22.0056 19.5139C21.7522 19.5339 21.5084 19.62 21.2984 19.7635C21.0884 19.907 20.9195 20.1031 20.8085 20.3321C20.5019 20.7539 20.3367 21.2622 20.3367 21.784C20.3367 22.3057 20.5019 22.814 20.8085 23.2358C21.4837 24.2131 22.7318 24.8495 23.6054 24.6563C23.6807 24.6397 23.7594 24.6538 23.8243 24.6953C23.8892 24.7369 23.9349 24.8026 23.9515 24.8779C23.968 24.9533 23.954 25.0321 23.9125 25.0971C23.871 25.1621 23.8055 25.208 23.7302 25.2245C23.5773 25.2562 23.4211 25.2696 23.265 25.2643Z" fill="#231F20"/>
<path d="M31.7694 23.8266C31.5051 23.8257 31.2413 23.8029 30.9808 23.7584C30.9435 23.752 30.9079 23.7384 30.8759 23.7183C30.8439 23.6981 30.8162 23.6719 30.7943 23.641C30.7725 23.6102 30.7569 23.5753 30.7485 23.5384C30.7401 23.5015 30.739 23.4633 30.7454 23.426C30.7517 23.3887 30.7653 23.353 30.7854 23.3209C30.8055 23.2889 30.8317 23.2611 30.8625 23.2392C30.8934 23.2173 30.9282 23.2017 30.965 23.1933C31.0019 23.1849 31.04 23.1838 31.0772 23.1902C31.6051 23.2954 32.1513 23.2581 32.6601 23.0822C32.6601 22.7526 31.8148 21.531 30.7993 20.4002C30.7728 20.3743 30.7519 20.3433 30.7375 20.3092C30.7232 20.275 30.7158 20.2384 30.7158 20.2013C30.7158 20.1643 30.7232 20.1276 30.7375 20.0935C30.7519 20.0593 30.7728 20.0284 30.7993 20.0024C30.8256 19.9758 30.857 19.9547 30.8916 19.9402C30.9261 19.9258 30.9632 19.9184 31.0007 19.9184C31.0381 19.9184 31.0752 19.9258 31.1097 19.9402C31.1443 19.9547 31.1757 19.9758 31.2021 20.0024C31.6956 20.5707 33.3011 22.406 33.1933 23.1674C33.1862 23.2401 33.1626 23.3101 33.1242 23.3722C33.0859 23.4342 33.0338 23.4867 32.9721 23.5254C32.6049 23.7308 32.1898 23.8348 31.7694 23.8266Z" fill="#231F20"/>
<path d="M30.5665 25.7076C30.3767 25.7088 30.187 25.6955 29.9992 25.6678C28.98 25.5185 28.0523 24.9962 27.3952 24.2018C27.3584 24.1362 27.3491 24.0587 27.3694 23.9863C27.3896 23.9139 27.4376 23.8524 27.503 23.8154C27.5688 23.7801 27.6456 23.7716 27.7175 23.7917C27.7894 23.8118 27.8508 23.859 27.8888 23.9234C28.4803 24.5777 29.2844 25.0005 30.158 25.1166C31.2927 25.2473 32.3592 24.7927 33.3974 23.7813C33.4231 23.7518 33.4545 23.7278 33.4898 23.711C33.5252 23.6943 33.5635 23.685 33.6026 23.6837C33.6417 23.6825 33.6806 23.6894 33.7169 23.7039C33.7532 23.7185 33.7861 23.7404 33.8135 23.7682C33.8409 23.7961 33.8623 23.8294 33.8763 23.8659C33.8903 23.9025 33.8967 23.9415 33.8949 23.9806C33.8931 24.0197 33.8833 24.0581 33.866 24.0932C33.8487 24.1283 33.8244 24.1595 33.7946 24.1847C32.9611 25.0988 31.8009 25.6462 30.5665 25.7076Z" fill="#231F20"/>
<path d="M31.7405 27.3099C31.7405 27.3099 28.7394 27.9576 26.958 27.6622C26.958 27.6622 29.2273 31.9806 32.132 31.7022L31.7405 27.3099Z" fill="#231F20"/>
<path d="M31.8661 31.9978C28.9727 31.9978 26.7999 27.9748 26.7091 27.7987C26.6816 27.7533 26.667 27.7012 26.667 27.6481C26.667 27.595 26.6816 27.5429 26.7091 27.4975C26.7411 27.4554 26.7837 27.4226 26.8326 27.4026C26.8815 27.3826 26.9349 27.3762 26.9871 27.3839C28.6891 27.6623 31.6335 27.0373 31.6618 27.0316C31.702 27.0227 31.7436 27.0227 31.7837 27.0315C31.8239 27.0403 31.8617 27.0578 31.8944 27.0827C31.9263 27.1059 31.953 27.1356 31.9725 27.1699C31.9921 27.2042 32.0041 27.2423 32.0079 27.2816L32.3993 31.6739C32.4033 31.7113 32.3997 31.749 32.389 31.785C32.3783 31.821 32.3605 31.8544 32.3368 31.8835C32.313 31.9126 32.2838 31.9366 32.2507 31.9543C32.2176 31.972 32.1814 31.9829 32.144 31.9864L31.8661 31.9978ZM27.492 28.0203C28.1444 29.0544 29.8407 31.4296 31.8264 31.4296L31.486 27.6509C30.1718 27.9169 28.8324 28.0369 27.492 28.0089V28.0203Z" fill="#231F20"/>
<path d="M29.0833 20.5711C29.3284 20.5362 29.4776 20.1602 29.4166 19.7315C29.3556 19.3028 29.1075 18.9835 28.8624 19.0185C28.6174 19.0535 28.4682 19.4294 28.5292 19.8581C28.5902 20.2869 28.8383 20.6061 29.0833 20.5711Z" fill="#231F20"/>
<path d="M33.1751 19.9819C33.4201 19.9469 33.5694 19.571 33.5084 19.1423C33.4474 18.7135 33.1993 18.3943 32.9542 18.4293C32.7091 18.4643 32.5599 18.8402 32.6209 19.2689C32.6819 19.6977 32.93 20.0169 33.1751 19.9819Z" fill="#231F20"/>
<path d="M128.662 37.2197L82.2325 12.8885C81.7907 12.6566 81.2928 12.5537 80.7954 12.5917C80.2981 12.6296 79.8214 12.8068 79.4198 13.103C79.0182 13.3992 78.7078 13.8026 78.524 14.267C78.3402 14.7314 78.2904 15.2382 78.3804 15.7296L80.1901 25.9575L2.41054 39.7653C2.19729 39.803 1.99357 39.8825 1.81106 39.9992C1.62855 40.1159 1.47085 40.2676 1.34698 40.4455C1.22312 40.6234 1.13555 40.8241 1.08927 41.0359C1.043 41.2478 1.03894 41.4668 1.07733 41.6802L8.07239 81.1545C8.14847 81.5847 8.39201 81.9671 8.74946 82.2175C9.10692 82.4679 9.54903 82.5658 9.97859 82.4898L87.7639 68.665L89.5736 78.893C89.6616 79.3822 89.8844 79.8369 90.2169 80.2059C90.5493 80.5749 90.9782 80.8434 91.455 80.9812C91.9318 81.1189 92.4376 81.1203 92.9151 80.9853C93.3927 80.8502 93.8231 80.5841 94.1576 80.2169L129.4 41.3677C129.671 41.0656 129.87 40.7056 129.981 40.3149C130.093 39.9242 130.113 39.5132 130.042 39.1132C129.971 38.7132 129.81 38.3348 129.571 38.0066C129.332 37.6785 129.021 37.4093 128.662 37.2197Z" fill="white"/>
<path d="M9.689 82.8023C9.29487 82.7999 8.91088 82.677 8.58841 82.45C8.38014 82.3058 8.20264 82.1215 8.06627 81.9078C7.9299 81.6942 7.8374 81.4555 7.79416 81.2056L0.782075 41.7256C0.737999 41.4756 0.743547 41.2194 0.798397 40.9715C0.853248 40.7237 0.956326 40.4891 1.10174 40.2812C1.24716 40.0733 1.43207 39.8961 1.64588 39.7598C1.8597 39.6235 2.09825 39.5307 2.34788 39.4868L79.8609 25.7075L78.1022 15.7579C78.0084 15.2163 78.0677 14.6592 78.2733 14.1496C78.4789 13.6399 78.8226 13.1979 79.2657 12.8735C79.7087 12.5491 80.2335 12.3552 80.7807 12.3137C81.328 12.2721 81.8759 12.3846 82.3627 12.6384L128.798 36.9753C129.196 37.1839 129.542 37.4813 129.808 37.8446C130.073 38.208 130.252 38.6276 130.331 39.0711C130.409 39.5146 130.385 39.9702 130.26 40.4028C130.135 40.8355 129.912 41.2336 129.609 41.5665L94.3899 80.4158C94.0193 80.8219 93.5426 81.1161 93.0138 81.265C92.4849 81.414 91.925 81.4117 91.3974 81.2586C90.8697 81.1055 90.3954 80.8076 90.0279 80.3986C89.6605 79.9896 89.4146 79.4858 89.3181 78.9441L87.5537 68.9945L10.0294 82.7682C9.91734 82.7908 9.80331 82.8022 9.689 82.8023ZM80.9898 12.86C80.4872 12.864 79.9987 13.0271 79.5942 13.3259C79.2324 13.5855 78.9521 13.9432 78.7862 14.3569C78.6204 14.7706 78.576 15.2232 78.6581 15.6613L80.4736 25.8893C80.4852 25.9637 80.4674 26.0398 80.424 26.1013C80.3805 26.1628 80.3149 26.205 80.241 26.2189L2.48404 40.0437C2.12821 40.1111 1.8127 40.315 1.60469 40.6119C1.39058 40.9004 1.29884 41.2618 1.3494 41.6176L8.34446 81.092C8.40808 81.4489 8.61044 81.766 8.90716 81.9737C9.20389 82.1814 9.57074 82.2628 9.92728 82.2L87.7069 68.3752C87.7804 68.3634 87.8556 68.3804 87.9169 68.4228C87.9782 68.4651 88.0208 68.5295 88.036 68.6025L89.8457 78.8304C89.9224 79.2688 90.1204 79.6768 90.4174 80.0079C90.7143 80.339 91.0981 80.5799 91.5251 80.7031C91.9521 80.8263 92.405 80.8268 92.8323 80.7047C93.2596 80.5826 93.644 80.3427 93.9418 80.0123L129.184 41.1631C129.427 40.8937 129.605 40.5722 129.705 40.2231C129.805 39.8741 129.824 39.5067 129.761 39.1492C129.697 38.7916 129.553 38.4534 129.339 38.1603C129.125 37.8672 128.847 37.6271 128.526 37.4583L82.0961 13.1384C81.7557 12.9562 81.3758 12.8606 80.9898 12.86Z" fill="#231F20"/>
<path d="M80.0485 22.5937C79.4244 22.3834 78.789 22.1959 78.1536 22.0254C77.7593 21.886 77.3318 21.8702 76.9282 21.98C76.3609 22.2016 76.0716 22.8778 75.8673 23.4744C75.5667 24.3892 75.2546 25.3666 75.5156 26.3155C75.8957 27.6679 77.3367 28.4122 78.6869 28.7816C79.3481 28.9914 80.0472 29.0535 80.7349 28.9634C84.7459 28.2361 82.7149 23.4915 80.0485 22.5937Z" fill="white"/>
<path d="M80.1726 29.2873C79.6441 29.2746 79.1196 29.1925 78.6125 29.043C77.5516 28.7589 75.7021 28.0315 75.2426 26.3837C74.9476 25.3382 75.3107 24.2642 75.6 23.3948C75.8212 22.73 76.1219 21.9913 76.8254 21.7243C77.2832 21.5903 77.7715 21.6042 78.221 21.764C78.8677 21.9231 79.5145 22.1163 80.1385 22.3323C81.9029 22.9005 83.3893 25.0768 83.2588 26.8439C83.2078 27.5826 82.8106 28.8725 80.7853 29.2418C80.5826 29.2737 80.3777 29.2889 80.1726 29.2873ZM77.37 22.2016C77.2503 22.1996 77.1313 22.2188 77.0183 22.2584C76.5417 22.4345 76.3091 23.0312 76.1276 23.5767C75.7985 24.5483 75.5603 25.4177 75.7759 26.2303C76.1616 27.6054 77.8069 28.2418 78.7486 28.5032C79.3692 28.7013 80.0252 28.7633 80.6718 28.685C81.9143 28.4634 82.6064 27.8099 82.6801 26.8042C82.7936 25.2984 81.4604 23.3948 79.9457 22.8721C79.3329 22.6675 78.7032 22.4857 78.0735 22.3039C77.8443 22.2399 77.6079 22.2056 77.37 22.2016Z" fill="#231F20"/>
<path d="M9.62695 43.3962C9.77782 43.396 9.92685 43.363 10.0638 43.2996C11.5105 42.6689 11.3062 39.9925 11.431 38.6856C11.4991 37.9526 11.4821 37.0662 10.8637 36.6855C9.4681 35.8388 7.52787 36.2082 6.26275 37.1401C4.99762 38.072 4.71964 39.8334 4.86147 41.3449C4.91253 41.9472 4.95791 43.2826 5.50254 43.6576C6.22871 44.169 7.08536 42.7598 7.06834 42.1347V42.6405C7.06011 42.8735 7.09275 43.1062 7.16478 43.328C7.20024 43.4403 7.2628 43.5421 7.34691 43.6243C7.43103 43.7066 7.5341 43.7668 7.647 43.7996C8.01009 43.8735 8.33913 43.5553 8.48664 43.2314C8.59106 42.8778 8.71608 42.5306 8.86107 42.1916C8.75114 42.3465 8.70353 42.5372 8.72771 42.7257C8.75189 42.9142 8.8461 43.0866 8.99155 43.2087C9.17272 43.3481 9.39924 43.415 9.62695 43.3962Z" fill="white"/>
<path d="M7.76024 44.0951C7.70365 44.1006 7.64664 44.1006 7.59005 44.0951C7.42971 44.0539 7.28228 43.9729 7.16133 43.8598C7.04039 43.7466 6.9498 43.6047 6.89791 43.4473C6.89791 43.4473 6.89791 43.4075 6.89791 43.3848C6.75093 43.6121 6.55759 43.8058 6.33059 43.953C6.17633 44.048 5.99655 44.093 5.8158 44.0818C5.63506 44.0706 5.46218 44.0038 5.32076 43.8905C4.72508 43.4757 4.63431 42.3336 4.57757 41.5778V41.3733C4.44709 39.947 4.57757 38.0151 6.09799 36.9127C7.32908 35.9979 9.39413 35.4638 11.011 36.4411C11.7996 36.9184 11.7939 37.9639 11.7258 38.714C11.7258 38.9526 11.6918 39.2311 11.6748 39.5322C11.618 40.9869 11.5329 42.9757 10.1884 43.5666C10.0099 43.6462 9.81647 43.6869 9.62106 43.6859C9.32212 43.6978 9.02865 43.6032 8.79277 43.4189L8.72469 43.3223C8.65146 43.5281 8.52244 43.7094 8.35209 43.8459C8.18174 43.9824 7.9768 44.0687 7.76024 44.0951ZM7.34042 42.129V42.629C7.33383 42.8328 7.36066 43.0363 7.41985 43.2314C7.43926 43.2986 7.47471 43.3601 7.52313 43.4106C7.57156 43.4611 7.63152 43.499 7.69784 43.5211C7.89073 43.5609 8.11198 43.3393 8.2141 43.1007C8.26878 42.9676 8.31428 42.8309 8.35025 42.6915L8.43535 42.4074C8.46612 42.2548 8.53436 42.1122 8.63391 41.9926C8.68065 41.9425 8.7439 41.9111 8.812 41.904C8.88009 41.8969 8.94844 41.9148 9.00442 41.9543C9.06041 41.9937 9.10026 42.0521 9.11662 42.1187C9.13298 42.1853 9.12475 42.2555 9.09345 42.3165C9.05263 42.391 9.01845 42.469 8.99133 42.5495C8.98567 42.5776 8.98567 42.6066 8.99133 42.6347C9.00149 42.7663 9.06256 42.8886 9.16152 42.9757C9.28757 43.0777 9.4483 43.1266 9.60971 43.112C9.72264 43.1097 9.83419 43.0866 9.93875 43.0438C10.9599 42.595 11.0337 40.8107 11.0734 39.5038C11.0734 39.1913 11.0734 38.9015 11.1188 38.6572C11.2096 37.7139 11.0677 37.1684 10.6819 36.9525C9.34874 36.1456 7.51629 36.5604 6.393 37.39C5.11653 38.339 4.98604 40.0607 5.09951 41.3676V41.5778C5.14489 42.1063 5.22999 43.2086 5.60442 43.47C5.65682 43.5067 5.71921 43.5263 5.78313 43.5263C5.84705 43.5263 5.90943 43.5067 5.96183 43.47C6.17129 43.3194 6.34744 43.1271 6.47923 42.9052C6.61102 42.6832 6.69562 42.4364 6.72772 42.1801C6.72618 42.1057 6.75383 42.0337 6.80476 41.9795C6.85568 41.9253 6.92579 41.8933 7.00003 41.8904C7.07541 41.8902 7.14798 41.919 7.20284 41.9708C7.2577 42.0226 7.29069 42.0934 7.29504 42.1688L7.34042 42.129Z" fill="#231F20"/>
<path d="M137.506 35.316C137.506 35.316 140.99 52.0842 136.865 53.1752C131.266 54.6867 108.005 48.9704 108.005 48.9704C108.005 48.9704 101.935 50.4648 100.874 48.8624C99.8134 47.26 100.874 45.0212 101.408 44.8849C101.941 44.7485 106.513 44.4303 106.513 44.4303C106.513 44.4303 102.792 41.6858 103.96 41.4755C105.129 41.2653 109.288 42.6461 109.288 42.6461C109.288 42.6461 132.071 44.3507 131.861 43.1688C131.651 41.9869 130.596 37.5435 130.596 37.5435" fill="white"/>
<path d="M134.273 53.7094C126.415 53.7094 109.475 49.6125 108.028 49.2603C107.132 49.4762 101.788 50.6865 100.653 49.0216C100.361 48.524 100.192 47.964 100.16 47.3879C100.127 46.8118 100.232 46.2362 100.466 45.7089C100.557 45.4816 100.903 44.7315 101.368 44.6349C101.833 44.5383 104.437 44.3394 105.765 44.2315C104.658 43.3735 103.342 42.2029 103.495 41.6006C103.521 41.4989 103.579 41.4079 103.659 41.3406C103.739 41.2733 103.839 41.2331 103.944 41.2256C105.124 41.0097 108.806 42.2086 109.373 42.3961C117.361 42.9644 130.199 43.6917 131.589 43.1235C131.339 41.8052 130.369 37.6799 130.358 37.6344C130.341 37.5591 130.354 37.4799 130.395 37.4144C130.436 37.3489 130.501 37.3023 130.576 37.285C130.652 37.2676 130.731 37.281 130.796 37.322C130.862 37.363 130.908 37.4284 130.925 37.5037C130.971 37.6856 131.981 41.9813 132.19 43.1462C132.202 43.204 132.199 43.2636 132.182 43.32C132.165 43.3764 132.135 43.4279 132.094 43.4701C131.175 44.4986 114.428 43.3394 109.316 42.9587H109.248C108.113 42.578 105.016 41.6404 104.085 41.7881C104.227 42.1745 105.39 43.2485 106.735 44.2429C106.781 44.2773 106.816 44.325 106.836 44.3797C106.855 44.4344 106.857 44.4936 106.843 44.5497C106.825 44.6052 106.791 44.6542 106.746 44.6906C106.7 44.727 106.645 44.7492 106.587 44.7543C105.322 44.8508 101.935 45.1236 101.51 45.2031C101.229 45.4569 101.031 45.7896 100.942 46.1578C100.785 46.573 100.723 47.0183 100.76 47.4608C100.798 47.9033 100.934 48.3318 101.158 48.7148C101.856 49.7603 105.697 49.283 107.966 48.7148C108.011 48.7035 108.057 48.7035 108.102 48.7148C108.335 48.7716 131.322 54.397 136.82 52.9253C139.991 52.0843 138.21 39.9869 137.257 35.3956C137.242 35.3203 137.257 35.242 137.3 35.1781C137.342 35.1142 137.408 35.0698 137.484 35.0547C137.559 35.0396 137.637 35.0551 137.701 35.0977C137.765 35.1404 137.809 35.2066 137.824 35.282C138.187 37.0264 141.228 52.3287 136.979 53.4651C136.09 53.6592 135.181 53.7413 134.273 53.7094Z" fill="#231F20"/>
<path d="M130.619 37.8561C130.555 37.8552 130.494 37.8328 130.445 37.7926C130.395 37.7524 130.361 37.6967 130.347 37.6345L127.777 26.7417C127.767 26.7055 127.766 26.6678 127.771 26.6309C127.777 26.5939 127.79 26.5585 127.809 26.5267C127.829 26.4948 127.855 26.4673 127.885 26.4457C127.916 26.4241 127.95 26.4088 127.987 26.4008C128.059 26.3852 128.136 26.3984 128.199 26.4375C128.262 26.4767 128.308 26.5388 128.327 26.611L130.897 37.5038C130.914 37.5769 130.902 37.6538 130.862 37.7177C130.823 37.7815 130.76 37.8272 130.687 37.8448L130.619 37.8561Z" fill="#231F20"/>
<path d="M71.419 8.73474C71.3767 8.73431 71.335 8.72378 71.2975 8.70402C71.26 8.68426 71.2278 8.65583 71.2034 8.6211C71.184 8.59275 71.1704 8.56085 71.1633 8.52723C71.1562 8.4936 71.1559 8.4589 71.1622 8.42513C71.1685 8.39135 71.1814 8.35915 71.2002 8.33038C71.2189 8.3016 71.2432 8.27682 71.2715 8.25744C71.474 8.12233 71.6345 7.93299 71.7348 7.71097C71.8351 7.48896 71.8712 7.2432 71.8388 7.00168C71.6642 6.6412 71.5383 6.25903 71.4644 5.86524C71.4555 5.80626 71.4671 5.74601 71.4971 5.6945C71.5272 5.643 71.5739 5.60333 71.6296 5.5821C71.6852 5.56086 71.7465 5.55933 71.8031 5.57776C71.8597 5.59619 71.9084 5.63347 71.941 5.68341C72.1495 6.03155 72.2865 6.41793 72.3438 6.81985C72.4105 6.96574 72.5191 7.0884 72.6558 7.17214C72.7002 7.19226 72.7495 7.1992 72.7977 7.19215C72.846 7.1851 72.8912 7.16436 72.9281 7.13237C73.4443 6.82553 72.9281 5.00155 72.4402 3.8708C72.4261 3.83988 72.4182 3.80646 72.4172 3.77248C72.4161 3.73849 72.4218 3.70464 72.434 3.67289C72.4461 3.64115 72.4645 3.61215 72.4879 3.58759C72.5114 3.56303 72.5395 3.54341 72.5707 3.52987C72.634 3.5026 72.7055 3.50098 72.77 3.52535C72.8345 3.54972 72.8871 3.59818 72.9167 3.66056C73.155 4.20037 74.2897 6.92213 73.1947 7.57558C73.087 7.65207 72.961 7.69866 72.8295 7.71064C72.6979 7.72261 72.5656 7.69954 72.4459 7.64376C72.3993 7.62503 72.3554 7.60019 72.3154 7.5699C72.2132 8.02021 71.9407 8.41331 71.5552 8.66655C71.5168 8.70128 71.4698 8.72486 71.419 8.73474Z" fill="#231F20"/>
<path d="M42.1967 98.5933C42.1395 98.5937 42.0838 98.5749 42.0385 98.5399C41.9933 98.5049 41.9611 98.4556 41.9471 98.4001L36.8866 79.4613C36.8746 79.4254 36.8705 79.3874 36.8746 79.3498C36.8787 79.3123 36.8908 79.276 36.9102 79.2436C36.9296 79.2112 36.9558 79.1834 36.987 79.1621C37.0182 79.1408 37.0536 79.1266 37.0908 79.1203C37.1578 79.1031 37.2289 79.1131 37.2884 79.1482C37.348 79.1834 37.3912 79.2408 37.4085 79.3078L42.469 98.2466C42.4865 98.3129 42.4772 98.3834 42.4433 98.4429C42.4093 98.5025 42.3534 98.5462 42.2875 98.5648L42.1967 98.5933Z" fill="white"/>
</svg>
