<svg width="444" height="371" viewBox="0 0 444 371" fill="none" xmlns="http://www.w3.org/2000/svg">
<path d="M218.41 269.691L398.667 269.901C401.235 269.769 403.685 268.776 405.632 267.079C407.578 265.382 408.91 263.077 409.416 260.53L442.946 81.6374C443.242 80.5231 443.277 79.3546 443.05 78.2239C442.824 77.0932 442.34 76.0311 441.638 75.1212C440.937 74.2112 440.036 73.4782 439.006 72.9798C437.976 72.4814 436.847 72.2312 435.705 72.2488L255.448 72.0382C252.881 72.1707 250.43 73.1639 248.484 74.861C246.537 76.558 245.206 78.8621 244.699 81.4093L211.169 260.302C210.874 261.417 210.838 262.585 211.065 263.716C211.292 264.846 211.775 265.908 212.477 266.818C213.179 267.728 214.08 268.461 215.109 268.96C216.139 269.458 217.269 269.708 218.41 269.691Z" fill="white"/>
<path d="M398.615 270.779L218.358 270.568C217.144 270.591 215.941 270.339 214.835 269.832C213.73 269.325 212.75 268.575 211.968 267.637C211.141 266.6 210.555 265.388 210.255 264.091C209.954 262.793 209.946 261.445 210.232 260.144L243.849 81.2335C244.403 78.4925 245.844 76.0154 247.944 74.192C250.043 72.3686 252.683 71.3022 255.448 71.1605L435.705 71.3711C436.905 71.3592 438.094 71.614 439.186 72.1174C440.278 72.6208 441.247 73.3605 442.026 74.2842C442.852 75.3255 443.437 76.5407 443.737 77.8405C444.038 79.1403 444.046 80.4916 443.762 81.7951L410.267 260.706C409.71 263.455 408.261 265.938 406.151 267.763C404.041 269.587 401.389 270.648 398.615 270.779ZM218.358 268.813L398.615 269.024C400.982 268.898 403.24 267.98 405.032 266.413C406.824 264.846 408.049 262.721 408.513 260.372L442.026 81.4792C442.265 80.4304 442.269 79.3408 442.038 78.2901C441.807 77.2395 441.346 76.2544 440.689 75.4073C440.064 74.6753 439.287 74.0914 438.414 73.6971C437.541 73.3028 436.592 73.1078 435.636 73.126L255.378 72.9154C253.012 73.0407 250.754 73.9593 248.962 75.526C247.169 77.0927 245.945 79.2183 245.481 81.567L212.02 260.46C211.782 261.509 211.778 262.598 212.009 263.649C212.241 264.699 212.701 265.684 213.357 266.532C213.982 267.264 214.759 267.848 215.632 268.242C216.505 268.636 217.454 268.831 218.41 268.813H218.358Z" fill="#231F20"/>
<path d="M439.804 99.3264L241.557 99.0807C241.327 99.0807 241.106 98.9882 240.943 98.8237C240.78 98.6591 240.689 98.436 240.689 98.2032C240.693 97.9719 240.786 97.7514 240.948 97.5878C241.11 97.4242 241.328 97.3303 241.557 97.3258L439.821 97.5715C440.051 97.5715 440.272 97.6639 440.435 97.8285C440.598 97.993 440.689 98.2162 440.689 98.4489C440.685 98.6832 440.589 98.9064 440.424 99.0705C440.258 99.2345 440.036 99.3264 439.804 99.3264Z" fill="#231F20"/>
<path d="M426.501 88.0184C428.402 85.9803 428.597 83.0454 426.936 81.4631C425.276 79.8808 422.388 80.2504 420.487 82.2885C418.586 84.3267 418.391 87.2616 420.052 88.8438C421.713 90.4261 424.6 90.0565 426.501 88.0184Z" fill="#D1D3D4"/>
<path d="M410.713 87.9965C412.614 85.9583 412.808 83.0235 411.148 81.4412C409.487 79.8589 406.599 80.2285 404.698 82.2666C402.797 84.3047 402.602 87.2397 404.263 88.8219C405.924 90.4042 408.812 90.0346 410.713 87.9965Z" fill="#D1D3D4"/>
<path d="M394.925 87.9743C396.826 85.9362 397.021 83.0013 395.36 81.419C393.699 79.8368 390.812 80.2063 388.911 82.2445C387.009 84.2826 386.815 87.2175 388.475 88.7998C390.136 90.382 393.024 90.0125 394.925 87.9743Z" fill="#D1D3D4"/>
<path d="M346.054 113.12L329.02 203.97L401.255 204.058L418.289 113.207L346.054 113.12Z" fill="white"/>
<path d="M346.036 113.12H418.288L401.271 203.97H329.019L346.036 113.12ZM346.036 111.365C345.627 111.357 345.229 111.496 344.912 111.756C344.594 112.016 344.377 112.381 344.3 112.786L327.283 203.637C327.234 203.893 327.242 204.158 327.307 204.411C327.372 204.664 327.492 204.899 327.658 205.099C327.825 205.299 328.033 205.46 328.269 205.568C328.504 205.676 328.761 205.73 329.019 205.725H401.254C401.665 205.732 402.065 205.591 402.383 205.327C402.701 205.064 402.916 204.695 402.99 204.286L420.007 113.436C420.054 113.183 420.046 112.924 419.983 112.675C419.92 112.426 419.804 112.195 419.643 111.997C419.479 111.798 419.275 111.639 419.044 111.53C418.813 111.421 418.561 111.364 418.306 111.365H346.071H346.036Z" fill="#231F20"/>
<path d="M397.418 136.951C397.277 138.133 397.395 139.331 397.765 140.461C398.095 141.12 398.49 141.743 398.946 142.321C400.377 144.533 401.204 147.088 401.342 149.727C401.534 151.513 401.295 153.319 400.647 154.991C400.126 156.22 399.293 157.308 398.807 158.501C398.228 159.952 398.136 161.555 398.546 163.064C398.946 164.485 399.744 166.03 399.015 167.293C398.728 167.706 398.336 168.033 397.881 168.24C397.426 168.447 396.924 168.526 396.428 168.469C395.437 168.342 394.464 168.1 393.528 167.749C388.232 166.205 381.564 166.942 376.008 166.556L355.171 165.082C352.34 164.871 348.833 164.152 348.086 161.379C347.461 159.045 349.718 155.149 350.621 152.956C352.012 149.174 353.836 145.569 356.056 142.216C357.338 140.684 358.429 138.998 359.303 137.197C359.694 136.004 360.024 134.791 360.293 133.564C361.485 130.035 363.546 126.87 366.284 124.369C368.051 122.523 370.082 120.956 372.309 119.718C379.862 115.752 392.417 118.437 395.855 126.878C397.095 130.081 397.629 133.519 397.418 136.951Z" fill="white"/>
<path d="M396.601 169.399H396.376C395.539 169.329 394.716 169.146 393.927 168.855L393.285 168.662C389.521 167.807 385.662 167.459 381.807 167.627C379.741 167.627 377.813 167.627 375.938 167.487L355.101 166.012C350.5 165.697 347.93 164.258 347.235 161.66C346.645 159.484 348.016 156.536 349.11 154.167C349.371 153.605 349.614 153.096 349.805 152.658C351.218 148.808 353.071 145.139 355.327 141.725C355.605 141.321 355.9 140.935 356.195 140.549C357.112 139.441 357.878 138.214 358.47 136.899C358.724 136.195 358.927 135.474 359.077 134.74C359.182 134.267 359.303 133.81 359.425 133.336C360.651 129.658 362.798 126.363 365.658 123.772C367.478 121.849 369.581 120.221 371.892 118.946C374.327 117.802 376.964 117.161 379.648 117.062C382.332 116.962 385.008 117.406 387.52 118.367C389.519 119.016 391.361 120.08 392.928 121.492C394.495 122.903 395.752 124.63 396.619 126.563C397.886 129.887 398.42 133.45 398.182 137.004V137.162C398.024 137.888 398.038 138.641 398.222 139.361C398.406 140.08 398.755 140.746 399.241 141.304L399.553 141.76C401.086 144.103 401.974 146.817 402.123 149.622C402.331 151.57 402.063 153.541 401.342 155.36C401.066 155.965 400.753 156.551 400.404 157.115C400.065 157.679 399.764 158.266 399.501 158.87C399.008 160.134 398.935 161.526 399.293 162.836C399.293 163.117 399.467 163.398 399.553 163.678C399.866 164.311 400.037 165.005 400.055 165.711C400.073 166.418 399.937 167.12 399.658 167.767C399.326 168.278 398.872 168.696 398.337 168.981C397.803 169.267 397.206 169.41 396.601 169.399ZM380.279 118.859C377.682 118.835 375.117 119.436 372.795 120.614C370.64 121.802 368.679 123.317 366.978 125.106C364.339 127.476 362.358 130.5 361.231 133.881C361.092 134.319 361.005 134.758 360.901 135.197C360.723 136.013 360.491 136.816 360.206 137.601C359.562 139.072 358.715 140.443 357.688 141.672L356.838 142.813C354.68 146.109 352.897 149.641 351.524 153.342C351.333 153.816 351.073 154.342 350.812 154.939C349.874 156.922 348.607 159.66 349.076 161.186C349.545 162.713 351.663 163.942 355.344 164.205L376.181 165.679C378.004 165.802 379.914 165.819 381.929 165.819C385.953 165.646 389.983 166.018 393.91 166.925L394.587 167.136C395.239 167.367 395.915 167.52 396.601 167.592C396.928 167.635 397.26 167.591 397.564 167.465C397.869 167.339 398.135 167.134 398.338 166.872C398.72 166.223 398.338 165.275 398.077 164.275C397.973 163.959 397.869 163.643 397.782 163.345C397.322 161.644 397.426 159.839 398.077 158.203C398.364 157.518 398.701 156.855 399.084 156.22C399.397 155.676 399.692 155.167 399.935 154.641C400.525 153.082 400.739 151.404 400.56 149.745C400.446 147.245 399.673 144.821 398.32 142.725L398.008 142.304C397.629 141.811 397.309 141.275 397.053 140.707C396.639 139.526 396.491 138.267 396.619 137.022L397.522 136.899H396.636C396.867 133.609 396.381 130.308 395.212 127.229C394.44 125.526 393.322 124.005 391.931 122.766C390.54 121.526 388.907 120.596 387.138 120.034C384.939 119.237 382.615 118.845 380.279 118.876V118.859Z" fill="#231F20"/>
<path d="M333.934 177.735L329.02 204.058H401.272L406.186 177.823C400.23 170.61 390.229 168.118 381.425 167.293C377.952 166.977 374.827 166.89 372.1 166.89H371.458C368.905 166.89 365.953 166.89 362.776 167.258H362.62C353.469 168.013 342.581 170.54 333.934 177.735Z" fill="#001A4B"/>
<path d="M361.456 172.294L363.661 196.863L364.321 204.023H365.953L369.287 196.845L380.661 172.417C376.354 170.89 366.335 170.89 361.456 172.294Z" fill="#231F20"/>
<path d="M380.695 172.33C379.512 174.008 377.949 175.377 376.137 176.323C374.325 177.269 372.316 177.765 370.277 177.77C368.428 177.898 366.585 177.442 365.004 176.464C363.424 175.486 362.184 174.035 361.456 172.312L366.387 150.92H383.752L380.695 172.33Z" fill="white"/>
<path d="M370.295 178.665C368.26 178.784 366.238 178.265 364.507 177.178C362.775 176.091 361.419 174.489 360.623 172.593C360.571 172.433 360.571 172.261 360.623 172.101L365.554 150.727C365.601 150.529 365.712 150.352 365.869 150.225C366.026 150.098 366.221 150.027 366.423 150.025H383.787C383.916 150.023 384.044 150.051 384.161 150.106C384.278 150.16 384.382 150.241 384.464 150.341C384.549 150.438 384.612 150.552 384.648 150.677C384.684 150.801 384.692 150.932 384.672 151.06L381.599 172.452C381.585 172.577 381.543 172.697 381.477 172.803C380.215 174.615 378.541 176.094 376.594 177.114C374.648 178.134 372.487 178.666 370.295 178.665ZM362.394 172.242C363.1 173.72 364.228 174.951 365.634 175.774C367.04 176.597 368.657 176.974 370.278 176.857C372.133 176.851 373.962 176.409 375.62 175.565C377.277 174.721 378.718 173.499 379.828 171.996L382.71 151.85H367.083L362.394 172.242Z" fill="#231F20"/>
<path d="M382.05 160.098C380.35 162.107 378.257 163.738 375.904 164.889C372.101 166.872 366.527 169.083 362.481 168.399L364.86 159.361C367.917 159.731 371.006 159.731 374.063 159.361C376.875 159.245 379.655 158.706 382.311 157.764C382.78 157.659 382.745 159.238 382.05 160.098Z" fill="#231F20"/>
<path d="M364.043 169.416C363.462 169.416 362.881 169.369 362.307 169.276C362.187 169.258 362.072 169.214 361.97 169.147C361.868 169.081 361.782 168.993 361.716 168.89C361.648 168.788 361.604 168.672 361.586 168.551C361.568 168.429 361.577 168.305 361.612 168.188L363.991 159.15C364.045 158.944 364.172 158.765 364.348 158.648C364.525 158.532 364.738 158.485 364.946 158.518C367.933 158.894 370.954 158.894 373.941 158.518C376.675 158.411 379.378 157.897 381.963 156.992C382.175 156.904 382.41 156.891 382.631 156.955C382.851 157.019 383.044 157.155 383.178 157.343C383.398 157.877 383.468 158.462 383.383 159.034C383.297 159.606 383.058 160.144 382.692 160.589C380.924 162.7 378.735 164.411 376.268 165.608C373.455 167.135 368.367 169.416 364.043 169.416ZM363.574 167.661C367.759 167.819 373.229 165.292 375.504 164.152C377.758 163.076 379.759 161.527 381.373 159.606C381.48 159.442 381.567 159.265 381.633 159.08C379.186 159.81 376.662 160.245 374.114 160.379C371.229 160.7 368.318 160.7 365.432 160.379L363.574 167.661Z" fill="#231F20"/>
<path d="M389.569 204.953H389.291C389.178 204.917 389.074 204.859 388.984 204.782C388.894 204.705 388.82 204.611 388.767 204.504C388.714 204.398 388.682 204.282 388.673 204.163C388.665 204.044 388.68 203.925 388.718 203.812L395.663 181.771C395.7 181.656 395.759 181.549 395.836 181.457C395.913 181.364 396.008 181.288 396.114 181.233C396.221 181.177 396.337 181.144 396.456 181.134C396.575 181.124 396.695 181.137 396.809 181.174C396.923 181.211 397.029 181.27 397.121 181.348C397.212 181.427 397.287 181.522 397.342 181.63C397.397 181.737 397.43 181.855 397.44 181.975C397.45 182.096 397.436 182.217 397.4 182.332L390.454 204.374C390.388 204.554 390.265 204.707 390.106 204.811C389.947 204.915 389.758 204.965 389.569 204.953Z" fill="#231F20"/>
<path d="M340.706 204.865C340.469 204.851 340.248 204.744 340.088 204.567C339.929 204.39 339.845 204.157 339.855 203.917L341.175 181.858C341.239 181.67 341.362 181.508 341.526 181.397C341.69 181.286 341.885 181.233 342.082 181.245C342.279 181.257 342.467 181.334 342.616 181.463C342.766 181.593 342.87 181.769 342.911 181.964L341.591 204.023C341.578 204.251 341.479 204.465 341.314 204.622C341.15 204.778 340.932 204.865 340.706 204.865Z" fill="#231F20"/>
<path d="M365.051 146.006C365.416 140.987 359.685 139.741 358.887 145.655C358.525 147.523 358.712 149.457 359.425 151.218C359.57 151.567 359.787 151.881 360.06 152.139C360.334 152.397 360.658 152.594 361.012 152.717C361.367 152.839 361.742 152.885 362.115 152.85C362.488 152.816 362.849 152.702 363.176 152.517" fill="white"/>
<path d="M361.89 153.78C361.566 153.787 361.244 153.739 360.935 153.64C360.435 153.484 359.973 153.224 359.578 152.876C359.183 152.529 358.865 152.101 358.643 151.622C357.841 149.7 357.612 147.584 357.983 145.532C358.469 142.023 360.571 140.636 362.446 140.829C363.595 141.067 364.604 141.753 365.255 142.739C365.905 143.725 366.144 144.931 365.919 146.094C365.851 146.282 365.725 146.443 365.558 146.551C365.392 146.66 365.195 146.71 364.997 146.694C364.8 146.678 364.613 146.597 364.466 146.463C364.319 146.329 364.219 146.15 364.182 145.954C364.321 143.936 363.331 142.76 362.272 142.654C361.213 142.549 360.119 143.304 359.789 145.796C359.451 147.477 359.608 149.222 360.241 150.815C360.361 151.071 360.53 151.301 360.739 151.491C360.947 151.681 361.191 151.827 361.456 151.92C361.673 151.986 361.901 152.004 362.126 151.974C362.35 151.944 362.566 151.866 362.758 151.745C362.969 151.63 363.215 151.602 363.445 151.668C363.675 151.733 363.871 151.887 363.991 152.096C364.103 152.308 364.127 152.556 364.058 152.786C363.99 153.016 363.835 153.209 363.627 153.324C363.097 153.627 362.499 153.785 361.89 153.78Z" fill="#231F20"/>
<path d="M387.52 146.041C389.03 141.022 395.229 139.794 393.823 145.708C393.402 147.742 392.502 149.644 391.201 151.253C389.899 152.692 388.127 153.377 386.947 152.552" fill="white"/>
<path d="M388.197 153.816C387.578 153.834 386.969 153.649 386.461 153.289C386.268 153.152 386.136 152.943 386.095 152.707C386.055 152.472 386.108 152.23 386.244 152.035C386.38 151.839 386.587 151.706 386.82 151.665C387.053 151.624 387.292 151.678 387.486 151.815C388.197 152.307 389.517 151.815 390.559 150.639C391.759 149.145 392.587 147.382 392.973 145.498C393.112 144.901 393.476 142.988 392.434 142.69C391.392 142.391 389.187 143.673 388.388 146.305C388.353 146.42 388.296 146.527 388.219 146.62C388.143 146.713 388.049 146.789 387.944 146.846C387.731 146.959 387.481 146.982 387.251 146.91C387.021 146.838 386.828 146.677 386.716 146.461C386.604 146.245 386.581 145.994 386.652 145.761C387.729 142.251 390.785 140.373 392.868 140.952C393.528 141.128 395.612 142.023 394.605 145.919C394.157 148.101 393.185 150.138 391.774 151.85C391.339 152.404 390.798 152.863 390.184 153.201C389.569 153.539 388.894 153.748 388.197 153.816Z" fill="#231F20"/>
<path d="M365.225 134.986L362.498 149.534C361.196 156.553 365.572 162.169 372.274 162.186H373.681C377.143 162.008 380.447 160.672 383.075 158.388C385.703 156.103 387.505 153.001 388.197 149.569C388.857 146.059 391.253 140.584 388.718 137.952C384.672 133.74 380.748 130.932 378.508 125.229C373.368 126.317 365.225 127.756 365.225 134.986Z" fill="white"/>
<path d="M373.698 163.081H372.274C370.681 163.117 369.1 162.791 367.648 162.125C366.196 161.46 364.911 160.473 363.888 159.238C362.805 157.863 362.042 156.26 361.654 154.547C361.266 152.834 361.264 151.055 361.648 149.341L364.356 134.898C364.356 127.247 372.448 125.562 377.779 124.456L378.352 124.333C378.556 124.289 378.77 124.32 378.954 124.419C379.138 124.519 379.282 124.681 379.359 124.877C381.001 128.661 383.506 131.999 386.669 134.617C387.555 135.477 388.406 136.372 389.378 137.302C391.705 139.706 390.594 143.83 389.708 147.147C389.465 148.059 389.239 148.902 389.1 149.709C388.368 153.351 386.456 156.642 383.667 159.063C380.878 161.485 377.371 162.898 373.698 163.081ZM377.97 126.229C372.917 127.299 366.128 128.791 366.128 135.003C366.137 135.061 366.137 135.12 366.128 135.179L363.401 149.709C363.069 151.161 363.064 152.671 363.386 154.125C363.707 155.58 364.347 156.943 365.259 158.115C366.12 159.144 367.199 159.965 368.417 160.515C369.634 161.064 370.959 161.33 372.292 161.291H373.716C376.968 161.118 380.07 159.857 382.535 157.706C385 155.555 386.686 152.637 387.329 149.411C387.485 148.603 387.729 147.656 387.989 146.708C388.788 143.69 389.725 140.268 388.093 138.601C387.19 137.653 386.357 136.846 385.437 135.968C382.289 133.31 379.743 130.001 377.97 126.264V126.229Z" fill="#231F20"/>
<path d="M374.948 151.64C374.304 151.637 373.66 151.596 373.021 151.517C372.893 151.52 372.766 151.495 372.649 151.443C372.532 151.392 372.428 151.316 372.343 151.22C372.257 151.124 372.194 151.011 372.156 150.888C372.118 150.764 372.107 150.635 372.123 150.507C372.14 150.379 372.183 150.256 372.251 150.147C372.319 150.038 372.409 149.944 372.516 149.874C372.622 149.803 372.743 149.756 372.869 149.737C372.995 149.718 373.124 149.726 373.246 149.762C374.291 149.87 375.344 149.87 376.389 149.762C376.715 146.953 376.55 144.108 375.903 141.356C375.863 141.119 375.917 140.875 376.053 140.678C376.19 140.481 376.398 140.346 376.632 140.303C376.866 140.267 377.105 140.323 377.3 140.461C377.494 140.598 377.628 140.805 377.674 141.04C378.004 142.918 379.029 149.2 377.778 150.92C377.664 151.089 377.514 151.231 377.341 151.337C377.167 151.443 376.973 151.51 376.771 151.534C376.167 151.61 375.557 151.645 374.948 151.64Z" fill="#231F20"/>
<path d="M327.092 132.003H252.913C252.775 132.021 252.636 132.01 252.503 131.97C252.37 131.929 252.247 131.861 252.143 131.768C252.039 131.676 251.955 131.562 251.898 131.435C251.84 131.307 251.811 131.169 251.811 131.029C251.811 130.888 251.84 130.75 251.898 130.622C251.955 130.495 252.039 130.381 252.143 130.289C252.247 130.197 252.37 130.128 252.503 130.088C252.636 130.047 252.775 130.036 252.913 130.055L327.092 130.142C327.326 130.174 327.54 130.29 327.695 130.469C327.85 130.648 327.935 130.878 327.935 131.116C327.935 131.354 327.85 131.584 327.695 131.763C327.54 131.942 327.326 132.059 327.092 132.09V132.003Z" fill="#D1D3D4"/>
<path d="M324.574 145.375H250.412C250.275 145.393 250.135 145.382 250.002 145.342C249.869 145.301 249.747 145.233 249.642 145.141C249.538 145.048 249.454 144.935 249.397 144.807C249.34 144.679 249.31 144.541 249.31 144.401C249.31 144.261 249.34 144.122 249.397 143.995C249.454 143.867 249.538 143.753 249.642 143.661C249.747 143.569 249.869 143.5 250.002 143.46C250.135 143.419 250.275 143.408 250.412 143.427L324.592 143.515C324.825 143.546 325.039 143.662 325.194 143.842C325.349 144.021 325.434 144.251 325.434 144.489C325.434 144.726 325.349 144.956 325.194 145.135C325.039 145.315 324.825 145.431 324.592 145.462L324.574 145.375Z" fill="#D1D3D4"/>
<path d="M322.075 158.747L247.895 158.659C247.64 158.655 247.397 158.549 247.219 158.365C247.04 158.182 246.94 157.934 246.94 157.677C246.94 157.421 247.041 157.175 247.22 156.994C247.399 156.813 247.642 156.711 247.895 156.711L322.075 156.799C322.212 156.78 322.352 156.792 322.485 156.832C322.617 156.872 322.74 156.941 322.844 157.033C322.949 157.126 323.032 157.239 323.09 157.367C323.147 157.494 323.177 157.633 323.177 157.773C323.177 157.913 323.147 158.052 323.09 158.179C323.032 158.307 322.949 158.421 322.844 158.513C322.74 158.605 322.617 158.674 322.485 158.714C322.352 158.754 322.212 158.766 322.075 158.747Z" fill="#D1D3D4"/>
<path d="M319.574 172.119L245.395 172.014C245.269 172.016 245.143 171.993 245.027 171.945C244.91 171.897 244.803 171.826 244.714 171.736C244.625 171.646 244.555 171.539 244.508 171.42C244.461 171.302 244.437 171.176 244.44 171.048C244.437 170.92 244.46 170.793 244.507 170.674C244.554 170.554 244.624 170.446 244.713 170.354C244.802 170.263 244.908 170.19 245.025 170.141C245.142 170.091 245.268 170.066 245.395 170.066L319.574 170.153C319.832 170.153 320.08 170.257 320.262 170.441C320.444 170.625 320.547 170.875 320.547 171.136C320.542 171.395 320.439 171.643 320.257 171.826C320.076 172.009 319.831 172.114 319.574 172.119Z" fill="#D1D3D4"/>
<path d="M317.004 185.561H264.703C264.47 185.529 264.256 185.413 264.101 185.234C263.946 185.055 263.861 184.825 263.861 184.587C263.861 184.349 263.946 184.119 264.101 183.94C264.256 183.761 264.47 183.645 264.703 183.613H317.004C317.237 183.645 317.451 183.761 317.606 183.94C317.761 184.119 317.847 184.349 317.847 184.587C317.847 184.825 317.761 185.055 317.606 185.234C317.451 185.413 317.237 185.529 317.004 185.561Z" fill="#D1D3D4"/>
<path d="M392.069 257.371L230.061 257.178C229.919 257.181 229.777 257.151 229.648 257.09C229.518 257.029 229.405 256.939 229.315 256.827C229.222 256.717 229.156 256.587 229.12 256.448C229.084 256.308 229.079 256.162 229.106 256.02L236.469 216.763C236.512 216.543 236.629 216.345 236.8 216.201C236.97 216.057 237.184 215.977 237.406 215.974L399.414 216.167C399.556 216.165 399.697 216.196 399.827 216.257C399.956 216.317 400.07 216.406 400.161 216.518C400.25 216.63 400.314 216.759 400.35 216.899C400.386 217.038 400.393 217.183 400.369 217.325L393.007 256.582C392.963 256.802 392.846 257 392.676 257.144C392.505 257.287 392.291 257.368 392.069 257.371ZM231.225 255.23L391.27 255.423L398.216 218.114L238.153 217.921L231.225 255.23Z" fill="#D1D3D4"/>
<path d="M396.515 230.399L235.028 230.206C234.891 230.224 234.751 230.213 234.618 230.173C234.485 230.132 234.363 230.064 234.258 229.971C234.154 229.879 234.07 229.765 234.013 229.638C233.956 229.51 233.926 229.372 233.926 229.232C233.926 229.092 233.956 228.953 234.013 228.825C234.07 228.698 234.154 228.584 234.258 228.492C234.363 228.4 234.485 228.331 234.618 228.291C234.751 228.25 234.891 228.239 235.028 228.258L396.515 228.451C396.748 228.482 396.962 228.599 397.117 228.778C397.272 228.957 397.357 229.187 397.357 229.425C397.357 229.663 397.272 229.892 397.117 230.072C396.962 230.251 396.748 230.367 396.515 230.399Z" fill="#D1D3D4"/>
<path d="M348.26 257.319H348.086C347.836 257.268 347.616 257.12 347.473 256.906C347.33 256.693 347.276 256.432 347.322 256.178L354.667 216.921C354.718 216.669 354.864 216.446 355.075 216.302C355.286 216.158 355.545 216.103 355.796 216.149C356.047 216.2 356.268 216.348 356.414 216.56C356.56 216.773 356.618 217.035 356.577 217.29L349.215 256.547C349.167 256.766 349.046 256.963 348.872 257.103C348.699 257.244 348.482 257.32 348.26 257.319Z" fill="#D1D3D4"/>
<path d="M266.527 257.213H266.353C266.1 257.166 265.876 257.02 265.729 256.806C265.583 256.592 265.526 256.329 265.572 256.073L272.934 216.798C272.942 216.659 272.979 216.522 273.044 216.398C273.108 216.274 273.198 216.165 273.307 216.079C273.417 215.993 273.543 215.931 273.678 215.899C273.813 215.866 273.953 215.863 274.089 215.889C274.225 215.916 274.354 215.971 274.467 216.052C274.58 216.133 274.675 216.238 274.745 216.359C274.815 216.48 274.858 216.615 274.872 216.754C274.886 216.893 274.871 217.034 274.827 217.167L267.482 256.424C267.438 256.647 267.318 256.847 267.144 256.991C266.97 257.135 266.752 257.214 266.527 257.213Z" fill="#D1D3D4"/>
<path d="M130.305 198.425L310.562 198.635C313.129 198.51 315.581 197.521 317.528 195.827C319.475 194.132 320.807 191.828 321.311 189.282L354.841 10.3889C355.813 5.12421 352.566 1.00023 347.6 1.00023L167.343 0.789642C164.786 0.911536 162.341 1.89002 160.395 3.57084C158.449 5.25167 157.112 7.53925 156.594 10.073L123.064 189.071C122.092 194.213 125.339 198.425 130.305 198.425Z" fill="white"/>
<path d="M310.562 199.601L130.305 199.39C129.092 199.418 127.888 199.171 126.782 198.667C125.676 198.163 124.696 197.415 123.915 196.477C123.087 195.436 122.502 194.221 122.201 192.921C121.901 191.621 121.893 190.269 122.178 188.966L155.743 10.073C156.292 7.32924 157.731 4.84888 159.832 3.02445C161.933 1.20003 164.576 0.135738 167.342 0L347.6 0.210591C348.807 0.172291 350.008 0.407756 351.114 0.899701C352.219 1.39165 353.202 2.12758 353.99 3.0535C354.816 4.09478 355.401 5.30999 355.701 6.60978C356.002 7.90956 356.01 9.26089 355.726 10.5644L322.213 189.44C321.679 192.208 320.24 194.715 318.127 196.557C316.014 198.4 313.35 199.472 310.562 199.601ZM130.305 197.635L310.562 197.846C312.95 197.721 315.226 196.787 317.025 195.196C318.823 193.604 320.039 191.447 320.477 189.071L353.99 10.2134C354.228 9.16738 354.231 8.08074 354 7.03315C353.769 5.98555 353.308 5.00355 352.653 4.15908C352.034 3.41937 351.259 2.8301 350.384 2.43512C349.509 2.04014 348.557 1.84962 347.6 1.87773L167.342 1.66714C164.977 1.79544 162.721 2.71506 160.929 4.28129C159.137 5.84751 157.911 7.97141 157.445 10.3187L123.915 189.212C123.68 190.258 123.679 191.344 123.91 192.391C124.141 193.438 124.599 194.42 125.252 195.266C125.871 196.005 126.647 196.593 127.521 196.988C128.396 197.383 129.347 197.574 130.305 197.547V197.635Z" fill="#231F20"/>
<path d="M351.732 28.0607L153.486 27.8326C153.256 27.8326 153.035 27.7401 152.872 27.5756C152.709 27.411 152.618 27.1879 152.618 26.9551C152.618 26.7224 152.709 26.4992 152.872 26.3347C153.035 26.1701 153.256 26.0777 153.486 26.0777L351.732 26.3058C351.961 26.3103 352.18 26.4042 352.341 26.5678C352.503 26.7314 352.596 26.952 352.601 27.1833C352.601 27.416 352.509 27.6392 352.346 27.8037C352.184 27.9683 351.963 28.0607 351.732 28.0607Z" fill="#231F20"/>
<path d="M338.4 16.7731C340.301 14.7349 340.496 11.8 338.835 10.2177C337.174 8.63547 334.287 9.00506 332.386 11.0432C330.484 13.0813 330.29 16.0162 331.951 17.5985C333.611 19.1807 336.499 18.8112 338.4 16.7731Z" fill="#D1D3D4"/>
<path d="M322.612 16.7514C324.513 14.7133 324.708 11.7783 323.047 10.1961C321.386 8.61381 318.499 8.98339 316.597 11.0215C314.696 13.0597 314.502 15.9946 316.162 17.5768C317.823 19.1591 320.711 18.7895 322.612 16.7514Z" fill="#D1D3D4"/>
<path d="M306.823 16.7292C308.724 14.6911 308.919 11.7562 307.258 10.1739C305.597 8.59165 302.71 8.96123 300.809 10.9994C298.907 13.0375 298.713 15.9724 300.373 17.5547C302.034 19.1369 304.922 18.7674 306.823 16.7292Z" fill="#D1D3D4"/>
<path d="M257.948 41.8716L240.914 132.722L313.166 132.792L330.183 41.9594L257.948 41.8716Z" fill="white"/>
<path d="M257.966 41.8716H330.201L313.184 132.722L240.932 132.634L257.966 41.8716ZM257.966 40.1167C257.557 40.1092 257.159 40.2476 256.841 40.5076C256.524 40.7676 256.307 41.1326 256.229 41.5381L239.213 132.388C239.166 132.641 239.174 132.9 239.237 133.149C239.3 133.398 239.416 133.629 239.577 133.827C239.741 134.026 239.945 134.185 240.176 134.294C240.407 134.403 240.659 134.46 240.914 134.459L313.167 134.547C313.575 134.554 313.973 134.416 314.291 134.156C314.609 133.896 314.825 133.531 314.903 133.126L331.92 42.2752C331.967 42.023 331.959 41.7634 331.896 41.5148C331.833 41.2661 331.716 41.0345 331.555 40.8362C331.394 40.6349 331.19 40.4722 330.959 40.36C330.728 40.2477 330.475 40.1886 330.218 40.1869H257.983L257.966 40.1167Z" fill="#231F20"/>
<path d="M245.811 106.469L240.897 132.704L313.149 132.792L318.081 106.591C312.125 99.3613 302.123 96.8869 293.319 96.0621C289.847 95.7462 286.721 95.6584 283.995 95.6584H283.352C280.8 95.6584 277.848 95.6585 274.67 96.027H274.514C265.398 96.8167 254.493 99.2911 245.811 106.469Z" fill="#001A4B"/>
<path d="M273.35 101.046L275.573 125.615L276.216 132.775H277.848L281.182 125.597L292.555 101.169C286.239 99.7115 279.684 99.6695 273.35 101.046Z" fill="#231F20"/>
<path d="M292.59 101.081C291.406 102.758 289.843 104.125 288.031 105.068C286.219 106.012 284.21 106.504 282.171 106.504C280.322 106.635 278.478 106.179 276.897 105.201C275.316 104.223 274.076 102.77 273.35 101.046L278.299 79.6715H295.663L292.59 101.081Z" fill="white"/>
<path d="M282.276 107.416C280.242 107.528 278.224 107.006 276.494 105.92C274.764 104.834 273.406 103.236 272.604 101.344C272.561 101.183 272.561 101.014 272.604 100.853L277.536 79.4609C277.586 79.2614 277.7 79.0842 277.86 78.9572C278.02 78.8302 278.218 78.7604 278.421 78.759H295.785C295.913 78.7576 296.039 78.7835 296.156 78.8349C296.272 78.8863 296.377 78.9621 296.463 79.0573C296.546 79.1587 296.608 79.2766 296.644 79.4036C296.68 79.5305 296.689 79.6636 296.671 79.7943L293.598 101.169C293.583 101.294 293.542 101.413 293.476 101.52C292.219 103.344 290.544 104.833 288.593 105.86C286.643 106.887 284.475 107.421 282.276 107.416ZM274.375 100.976C275.078 102.458 276.206 103.692 277.612 104.518C279.017 105.344 280.637 105.724 282.259 105.609C284.116 105.611 285.948 105.172 287.607 104.328C289.266 103.483 290.705 102.257 291.809 100.748L294.709 80.6016H279.081L274.375 100.976Z" fill="#231F20"/>
<path d="M293.945 88.85C292.248 90.8579 290.154 92.484 287.798 93.6233C283.995 95.6063 278.421 97.835 274.375 97.1331L276.754 88.0779C279.81 88.4572 282.901 88.4572 285.957 88.0779C288.769 87.9612 291.549 87.423 294.205 86.4809C294.674 86.4107 294.656 87.9726 293.945 88.85Z" fill="#231F20"/>
<path d="M275.938 98.1506C275.357 98.1559 274.776 98.1148 274.202 98.0278C273.962 97.9832 273.75 97.8443 273.611 97.6417C273.548 97.5377 273.507 97.422 273.489 97.3014C273.471 97.1808 273.477 97.0579 273.507 96.9398L275.886 87.9021C275.94 87.6913 276.069 87.508 276.248 87.388C276.428 87.2681 276.646 87.2199 276.858 87.2528C279.846 87.6207 282.866 87.6207 285.853 87.2528C288.58 87.1354 291.276 86.6212 293.858 85.7261C294.068 85.6337 294.303 85.6164 294.524 85.6771C294.745 85.7377 294.938 85.8726 295.073 86.0595C295.292 86.5971 295.363 87.1846 295.277 87.7595C295.191 88.3343 294.953 88.8749 294.587 89.3236C292.823 91.4387 290.632 93.1496 288.162 94.3425C284.403 96.4786 280.235 97.777 275.938 98.1506ZM275.469 96.3958C279.654 96.5888 285.141 94.0267 287.416 92.886C289.662 91.8048 291.656 90.2559 293.268 88.3408C293.388 88.1911 293.477 88.0178 293.528 87.8319C291.078 88.5477 288.556 88.9775 286.009 89.113C283.123 89.4242 280.213 89.4242 277.327 89.113L275.469 96.3958Z" fill="#231F20"/>
<path d="M301.463 133.687H301.202C301.088 133.653 300.982 133.596 300.89 133.52C300.798 133.444 300.723 133.35 300.667 133.243C300.612 133.137 300.579 133.02 300.57 132.901C300.56 132.781 300.574 132.66 300.612 132.546L307.557 110.505C307.593 110.391 307.65 110.286 307.726 110.195C307.803 110.104 307.896 110.03 308.001 109.976C308.106 109.922 308.221 109.889 308.339 109.881C308.456 109.872 308.574 109.888 308.686 109.926C308.798 109.96 308.902 110.016 308.992 110.091C309.081 110.167 309.155 110.26 309.209 110.364C309.262 110.469 309.294 110.584 309.303 110.701C309.312 110.819 309.297 110.937 309.259 111.049L302.313 133.09C302.252 133.267 302.136 133.42 301.983 133.527C301.831 133.635 301.648 133.69 301.463 133.687Z" fill="#231F20"/>
<path d="M252.601 133.635C252.482 133.628 252.366 133.598 252.259 133.545C252.152 133.493 252.056 133.42 251.977 133.33C251.898 133.241 251.837 133.136 251.798 133.023C251.759 132.909 251.743 132.789 251.75 132.669L253.07 110.628C253.04 110.49 253.043 110.348 253.077 110.211C253.112 110.075 253.177 109.948 253.267 109.842C253.358 109.735 253.472 109.651 253.6 109.596C253.728 109.541 253.867 109.517 254.006 109.525C254.145 109.534 254.281 109.574 254.402 109.644C254.522 109.714 254.625 109.812 254.703 109.929C254.78 110.046 254.83 110.179 254.848 110.319C254.866 110.458 254.851 110.6 254.806 110.733L253.486 132.775C253.477 133.006 253.38 133.225 253.215 133.385C253.05 133.545 252.83 133.635 252.601 133.635Z" fill="#231F20"/>
<path d="M276.962 74.7583C277.327 69.7393 271.597 68.4934 270.781 74.4073C270.419 76.2692 270.606 78.1974 271.319 79.9527C271.464 80.3035 271.681 80.6193 271.956 80.8794C272.23 81.1396 272.556 81.3382 272.912 81.4625C273.267 81.5867 273.645 81.6337 274.02 81.6003C274.395 81.567 274.758 81.454 275.087 81.2689" fill="white"/>
<path d="M273.785 82.5321C273.462 82.5304 273.14 82.4832 272.83 82.3917C272.334 82.2271 271.875 81.9638 271.482 81.6171C271.088 81.2705 270.767 80.8477 270.538 80.3735C269.731 78.4529 269.508 76.3334 269.895 74.2841C270.382 70.7743 272.465 69.388 274.341 69.581C275.49 69.8182 276.499 70.5046 277.15 71.4906C277.8 72.4767 278.039 73.6826 277.813 74.8457C277.841 74.9834 277.837 75.1258 277.801 75.2616C277.765 75.3975 277.699 75.5231 277.607 75.6287C277.515 75.7344 277.401 75.8171 277.272 75.8706C277.143 75.9241 277.004 75.9468 276.865 75.937C276.727 75.9272 276.592 75.8851 276.472 75.814C276.352 75.7429 276.25 75.6448 276.174 75.5273C276.097 75.4098 276.049 75.276 276.032 75.1365C276.015 74.9969 276.031 74.8554 276.077 74.7228C276.233 72.7047 275.226 71.5289 274.167 71.4061C273.108 71.2832 272.031 72.0729 271.684 74.5649C271.349 76.2409 271.506 77.9792 272.135 79.5663C272.377 80.0887 272.814 80.4926 273.351 80.6894C273.571 80.7493 273.802 80.7647 274.028 80.7346C274.254 80.7044 274.473 80.6295 274.671 80.5139C274.773 80.4552 274.886 80.4177 275.003 80.4035C275.119 80.3894 275.238 80.3989 275.351 80.4316C275.464 80.4643 275.57 80.5194 275.662 80.5938C275.754 80.6682 275.83 80.7604 275.886 80.8649C275.999 81.0749 276.025 81.3211 275.961 81.5508C275.896 81.7805 275.744 81.9753 275.539 82.0933C275 82.3867 274.397 82.5376 273.785 82.5321Z" fill="#231F20"/>
<path d="M299.414 74.7758C300.942 69.7568 307.124 68.5284 305.717 74.4424C305.316 76.48 304.421 78.3854 303.113 79.9878C301.828 81.4443 300.039 82.1287 298.876 81.304" fill="white"/>
<path d="M300.022 82.5675C299.403 82.5829 298.794 82.3985 298.286 82.0411C298.175 81.9793 298.079 81.8947 298.003 81.7929C297.926 81.6911 297.872 81.5743 297.844 81.4501C297.815 81.3258 297.812 81.1968 297.836 81.0715C297.86 80.9462 297.909 80.8273 297.981 80.7224C298.053 80.6176 298.146 80.5292 298.254 80.463C298.362 80.3967 298.482 80.354 298.608 80.3377C298.733 80.3214 298.86 80.3318 298.981 80.3683C299.102 80.4048 299.214 80.4665 299.31 80.5494C300.022 81.0584 301.342 80.5494 302.383 79.3912C303.596 77.8919 304.441 76.124 304.849 74.2318C304.988 73.6527 305.37 71.7224 304.311 71.4416C303.252 71.1608 301.064 72.4243 300.282 74.9514C300.248 75.0666 300.192 75.1739 300.117 75.2671C300.041 75.3603 299.949 75.4377 299.844 75.4947C299.739 75.5517 299.624 75.5873 299.506 75.5995C299.387 75.6117 299.268 75.6001 299.154 75.5656C299.04 75.531 298.934 75.4741 298.841 75.398C298.749 75.322 298.673 75.2284 298.616 75.1224C298.56 75.0165 298.524 74.9004 298.512 74.7807C298.5 74.661 298.512 74.5401 298.546 74.4249C299.623 70.9151 302.679 69.0198 304.78 69.599C305.422 69.792 307.506 70.687 306.516 74.5653C306.049 76.7491 305.073 78.7886 303.668 80.5143C303.234 81.0922 302.685 81.5729 302.058 81.9262C301.43 82.2796 300.737 82.4979 300.022 82.5675Z" fill="#231F20"/>
<path d="M277.066 63.7376L274.34 78.268C273.02 85.2875 277.396 90.9207 284.099 90.9207H285.523C288.981 90.7385 292.282 89.4003 294.906 87.1165C297.53 84.8327 299.33 81.7326 300.022 78.3031L302.678 64.4746C302.678 64.4746 304.953 50.4355 292.017 51.8394C279.08 53.2433 277.066 63.7376 277.066 63.7376Z" fill="white"/>
<path d="M285.592 91.8329H284.168C282.574 91.87 280.991 91.5456 279.537 90.8836C278.083 90.2216 276.793 89.2387 275.764 88.0072C274.694 86.6262 273.943 85.0202 273.567 83.3074C273.192 81.5946 273.201 79.8185 273.594 78.1097L276.32 63.5617C276.32 63.4564 278.542 52.4708 291.948 50.9616C293.545 50.6455 295.193 50.7177 296.757 51.1724C298.321 51.627 299.755 52.451 300.942 53.5764C304.675 57.56 303.616 64.3689 303.582 64.6673L300.977 78.5133C300.235 82.1423 298.322 85.4195 295.537 87.8303C292.752 90.2411 289.254 91.649 285.592 91.8329ZM278.004 63.9127L275.33 78.5133C275.006 79.9661 275.004 81.4735 275.325 82.9271C275.647 84.3806 276.283 85.744 277.188 86.9192C278.054 87.9429 279.134 88.759 280.35 89.3084C281.566 89.8578 282.889 90.1267 284.22 90.0955H285.644C288.897 89.9257 292.001 88.6656 294.467 86.5141C296.932 84.3627 298.618 81.4426 299.258 78.215L301.845 64.4216C301.845 64.4216 302.8 58.2268 299.657 54.8926C298.658 53.978 297.46 53.3152 296.159 52.9583C294.858 52.6015 293.493 52.5607 292.173 52.8394C280.036 54.1204 278.091 63.4915 278.004 63.9127Z" fill="#231F20"/>
<path d="M286.843 80.3739C286.199 80.3719 285.556 80.3368 284.915 80.2686C284.681 80.2337 284.47 80.1076 284.328 79.9173C284.185 79.727 284.121 79.4877 284.151 79.2507C284.182 79.0146 284.302 78.7999 284.487 78.6523C284.672 78.5048 284.907 78.4361 285.141 78.461C286.185 78.5837 287.24 78.5837 288.284 78.461C288.701 77.6187 288.475 73.8106 287.798 70.0551C287.757 69.8179 287.811 69.5741 287.948 69.3769C288.084 69.1797 288.293 69.045 288.527 69.0022C288.642 68.9794 288.761 68.98 288.876 69.0039C288.991 69.0278 289.1 69.0746 289.197 69.1416C289.294 69.2085 289.377 69.2943 289.441 69.3939C289.504 69.4935 289.548 69.6049 289.569 69.7217C289.899 71.617 290.923 77.8995 289.673 79.6017C289.558 79.7724 289.409 79.9168 289.236 80.0256C289.062 80.1345 288.868 80.2053 288.666 80.2335C288.062 80.3216 287.453 80.3685 286.843 80.3739Z" fill="#231F20"/>
<path d="M238.986 60.7539H164.806C164.573 60.7222 164.359 60.606 164.204 60.4269C164.049 60.2478 163.964 60.0179 163.964 59.78C163.964 59.542 164.049 59.3122 164.204 59.133C164.359 58.9539 164.573 58.8377 164.806 58.806H238.986C239.219 58.8377 239.434 58.9539 239.588 59.133C239.743 59.3122 239.829 59.542 239.829 59.78C239.829 60.0179 239.743 60.2478 239.588 60.4269C239.434 60.606 239.219 60.7222 238.986 60.7539Z" fill="#D1D3D4"/>
<path d="M236.486 74.1269H162.306C162.048 74.1269 161.801 74.0233 161.619 73.839C161.436 73.6547 161.334 73.4048 161.334 73.1441C161.334 72.8835 161.436 72.6335 161.619 72.4492C161.801 72.2649 162.048 72.1614 162.306 72.1614L236.486 72.2667C236.739 72.2667 236.982 72.3684 237.161 72.5494C237.34 72.7304 237.441 72.9759 237.441 73.2319C237.419 73.474 237.31 73.6995 237.134 73.8648C236.957 74.0301 236.726 74.1235 236.486 74.1269Z" fill="#D1D3D4"/>
<path d="M233.968 87.4813H159.806C159.669 87.5 159.529 87.4887 159.396 87.4484C159.263 87.408 159.141 87.3394 159.036 87.2471C158.932 87.1549 158.848 87.0411 158.791 86.9135C158.734 86.786 158.704 86.6475 158.704 86.5073C158.704 86.3672 158.734 86.2287 158.791 86.1011C158.848 85.9735 158.932 85.8598 159.036 85.7676C159.141 85.6753 159.263 85.6067 159.396 85.5663C159.529 85.5259 159.669 85.5147 159.806 85.5334H233.968C234.226 85.5334 234.474 85.6369 234.656 85.8212C234.838 86.0055 234.941 86.2555 234.941 86.5161C234.941 86.6443 234.916 86.7713 234.867 86.8896C234.817 87.0078 234.746 87.115 234.655 87.2049C234.565 87.2947 234.457 87.3655 234.339 87.4129C234.221 87.4604 234.095 87.4836 233.968 87.4813Z" fill="#D1D3D4"/>
<path d="M231.468 100.853H157.289C157.055 100.822 156.841 100.706 156.686 100.526C156.531 100.347 156.446 100.117 156.446 99.8795C156.446 99.6416 156.531 99.4117 156.686 99.2326C156.841 99.0535 157.055 98.9373 157.289 98.9055L231.468 98.9933C231.606 98.9746 231.746 98.9858 231.878 99.0262C232.011 99.0666 232.134 99.1352 232.238 99.2275C232.342 99.3197 232.426 99.4334 232.483 99.561C232.541 99.6886 232.57 99.8271 232.57 99.9672C232.57 100.107 232.541 100.246 232.483 100.373C232.426 100.501 232.342 100.615 232.238 100.707C232.134 100.799 232.011 100.868 231.878 100.908C231.746 100.949 231.606 100.96 231.468 100.941V100.853Z" fill="#D1D3D4"/>
<path d="M228.967 114.225H176.666C176.433 114.194 176.219 114.078 176.064 113.898C175.909 113.719 175.824 113.489 175.824 113.251C175.824 113.014 175.909 112.784 176.064 112.605C176.219 112.425 176.433 112.309 176.666 112.278H228.967C229.221 112.278 229.463 112.379 229.643 112.56C229.822 112.741 229.922 112.987 229.922 113.243C229.922 113.5 229.822 113.748 229.644 113.931C229.465 114.115 229.222 114.221 228.967 114.225Z" fill="#D1D3D4"/>
<path d="M303.964 186.123L141.956 185.93C141.815 185.927 141.676 185.893 141.549 185.831C141.421 185.769 141.309 185.68 141.218 185.57C141.128 185.46 141.062 185.332 141.024 185.195C140.987 185.057 140.979 184.913 141.001 184.772L148.364 145.515C148.404 145.289 148.522 145.084 148.697 144.937C148.871 144.789 149.091 144.708 149.319 144.708L311.326 144.901C311.47 144.903 311.611 144.937 311.741 145C311.87 145.064 311.983 145.156 312.073 145.269C312.166 145.375 312.233 145.502 312.27 145.639C312.306 145.776 312.31 145.92 312.281 146.059L304.85 185.316C304.812 185.53 304.704 185.726 304.544 185.873C304.383 186.019 304.179 186.107 303.964 186.123ZM143.12 183.982L303.165 184.175L310.111 146.849L150.065 146.656L143.12 183.982Z" fill="#D1D3D4"/>
<path d="M308.409 159.239L146.922 159.045C146.664 159.045 146.417 158.942 146.234 158.758C146.052 158.573 145.95 158.323 145.95 158.063C145.95 157.935 145.975 157.808 146.024 157.689C146.073 157.571 146.145 157.464 146.235 157.374C146.326 157.284 146.433 157.213 146.551 157.166C146.669 157.118 146.795 157.095 146.922 157.098L308.409 157.291C308.642 157.322 308.856 157.439 309.011 157.618C309.166 157.797 309.251 158.027 309.251 158.265C309.251 158.503 309.166 158.732 309.011 158.912C308.856 159.091 308.642 159.207 308.409 159.239Z" fill="#D1D3D4"/>
<path d="M260.102 186.07H259.928C259.678 186.019 259.458 185.871 259.315 185.658C259.173 185.445 259.118 185.183 259.164 184.93L266.527 145.673C266.548 145.547 266.593 145.427 266.66 145.318C266.728 145.21 266.816 145.117 266.919 145.044C267.022 144.97 267.139 144.918 267.263 144.891C267.386 144.863 267.514 144.861 267.638 144.883C267.891 144.93 268.115 145.077 268.262 145.29C268.408 145.504 268.465 145.768 268.419 146.024L261.057 185.281C261.013 185.504 260.893 185.704 260.719 185.848C260.545 185.992 260.327 186.071 260.102 186.07Z" fill="#D1D3D4"/>
<path d="M178.421 185.965H178.247C177.997 185.914 177.777 185.766 177.634 185.553C177.491 185.339 177.437 185.078 177.483 184.824L184.828 145.568C184.903 145.342 185.056 145.151 185.26 145.031C185.463 144.911 185.703 144.87 185.934 144.915C186.165 144.96 186.372 145.089 186.517 145.276C186.662 145.464 186.734 145.698 186.721 145.936L179.376 185.193C179.328 185.413 179.207 185.609 179.033 185.75C178.859 185.89 178.643 185.966 178.421 185.965Z" fill="#D1D3D4"/>
<path d="M9.25933 370.123L6.30743 315.423L140.22 290.644C140.376 292.101 146.141 337.377 150.308 370.088L9.25933 370.123Z" fill="#231F20"/>
<path d="M150.308 371H9.25912C9.0376 371 8.82432 370.915 8.66291 370.762C8.50151 370.609 8.4042 370.399 8.39091 370.175L5.43901 315.511C5.43082 315.298 5.49801 315.089 5.62851 314.922C5.759 314.754 5.94424 314.64 6.15095 314.598L140.063 289.819C140.182 289.799 140.304 289.805 140.42 289.835C140.537 289.865 140.646 289.919 140.741 289.995C140.835 290.065 140.915 290.154 140.975 290.257C141.035 290.359 141.073 290.473 141.088 290.591C141.244 292.153 148.19 346.747 151.176 370.017C151.196 370.264 151.122 370.509 150.968 370.702C150.884 370.795 150.782 370.869 150.669 370.92C150.555 370.972 150.433 370.999 150.308 371ZM10.0752 369.245H149.336C145.863 342.115 140.341 298.716 139.473 291.714L7.21015 316.177L10.0752 369.245Z" fill="#231F20"/>
<path d="M221.797 205.128L245.447 184.28C245.447 184.28 254.129 162.45 257.602 158.291C261.074 154.131 287.121 141.268 287.416 144.146C287.711 147.024 281.495 150.92 279.758 152.359C277.136 154.518 274.41 156.518 271.719 158.571C277.171 160.853 282.623 167.153 285.037 172.61C286.158 174.971 286.648 177.587 286.456 180.199C286.264 182.81 285.397 185.325 283.943 187.492C283.134 188.705 281.939 189.603 280.557 190.036C279.862 190.226 279.127 190.192 278.452 189.941C277.777 189.689 277.196 189.232 276.789 188.632L276.442 189.071C273.664 192.856 270.346 196.203 266.596 199.004C263.54 201.075 259.737 201.303 257.237 203.865C253.59 207.568 250.708 212.639 247.582 216.746L230.184 239.963L221.797 205.128Z" fill="white"/>
<path d="M230.183 240.805H230.01C229.847 240.768 229.697 240.686 229.578 240.568C229.458 240.45 229.373 240.302 229.332 240.138L221.032 205.356C220.992 205.2 220.994 205.035 221.04 204.88C221.086 204.726 221.174 204.587 221.293 204.479L244.717 183.806C245.655 181.472 253.399 161.835 256.872 157.781C260.345 153.728 283.647 141.847 287.294 143.005C287.538 143.077 287.756 143.22 287.92 143.417C288.084 143.614 288.186 143.855 288.214 144.111C288.457 146.673 285.002 149.498 281.442 152.166L280.227 153.078C278.386 154.605 276.476 156.062 274.618 157.465L273.333 158.448C278.756 161.664 283.086 166.467 285.749 172.224C286.945 174.729 287.466 177.508 287.259 180.281C287.051 183.055 286.123 185.724 284.568 188.018C283.644 189.4 282.276 190.417 280.696 190.896C280.014 191.077 279.3 191.092 278.611 190.94C277.923 190.787 277.28 190.471 276.737 190.019C273.979 193.719 270.704 196.994 267.013 199.741C265.637 200.597 264.169 201.292 262.637 201.811C260.85 202.335 259.197 203.245 257.792 204.479C255.385 207.097 253.206 209.922 251.281 212.92C250.256 214.411 249.232 215.886 248.207 217.272L230.843 240.524C230.759 240.615 230.656 240.687 230.543 240.735C230.429 240.783 230.307 240.807 230.183 240.805ZM222.838 205.444L230.6 237.909L246.922 216.131C247.947 214.78 248.937 213.323 249.944 211.849C251.932 208.769 254.181 205.869 256.664 203.18C258.238 201.753 260.106 200.698 262.133 200.092C263.538 199.625 264.884 198.995 266.144 198.214C269.819 195.451 273.072 192.158 275.799 188.439L276.146 188C276.244 187.895 276.362 187.813 276.494 187.758C276.626 187.704 276.768 187.679 276.91 187.685C277.051 187.7 277.186 187.75 277.304 187.829C277.422 187.909 277.519 188.016 277.587 188.141C277.896 188.576 278.331 188.904 278.831 189.08C279.332 189.256 279.874 189.271 280.383 189.124C281.572 188.735 282.595 187.949 283.283 186.895C284.656 184.85 285.47 182.475 285.644 180.01C285.818 177.545 285.345 175.077 284.273 172.856C282.102 168.012 276.875 161.624 271.423 159.343C271.284 159.286 271.163 159.192 271.071 159.072C270.98 158.952 270.922 158.809 270.902 158.659C270.879 158.507 270.897 158.351 270.956 158.209C271.014 158.066 271.109 157.943 271.232 157.852L273.68 155.974C275.521 154.57 277.414 153.131 279.237 151.639C279.55 151.376 279.984 151.06 280.505 150.656C282.241 149.358 286.2 146.392 286.565 144.549C283.092 144.549 261.803 154.693 258.296 158.834C254.788 162.976 246.419 184.35 246.332 184.561C246.277 184.694 246.194 184.814 246.089 184.912L222.838 205.444Z" fill="#231F20"/>
<path d="M0.854446 349.836C0.854446 349.836 2.59086 203.198 19.8682 173.856C37.1455 144.514 84.6365 136.144 108.217 152.254C131.798 168.363 150.308 337.464 150.308 337.464C150.308 337.464 76.076 353.03 0.854446 349.836Z" fill="#001A4B"/>
<path d="M108.217 152.219C108.217 152.219 130.374 155.641 142.581 174.629C154.788 193.616 168.314 219.799 168.314 219.799L232.006 186.193L261.82 214.851C261.82 214.851 208.339 273.358 182.484 289.205C158.087 304.157 138.882 283.502 125.564 270.2C119.921 264.566 111.186 250.72 111.186 250.72L108.217 152.219Z" fill="#001A4B"/>
<path d="M111.777 93.6232C109.554 93.6272 107.403 92.8238 105.717 91.3594C104.069 89.9403 102.959 87.9877 102.576 85.8343C102.193 83.6809 102.56 81.4598 103.615 79.5494C104.67 77.639 106.348 76.1574 108.363 75.3569C110.378 74.5564 112.605 74.4867 114.665 75.1595C116.725 75.8323 118.491 77.206 119.661 79.0467C120.831 80.8874 121.334 83.0812 121.084 85.2545C120.833 87.4278 119.845 89.446 118.287 90.9656C116.73 92.4851 114.699 93.4119 112.541 93.5881L111.777 93.6232ZM111.777 76.4078H111.152C109.13 76.5756 107.256 77.5476 105.943 79.1103C105.298 79.8827 104.813 80.7772 104.515 81.7414C104.217 82.7056 104.112 83.7202 104.206 84.7259C104.306 85.9916 104.714 87.2127 105.393 88.2812C106.071 89.3496 107 90.2325 108.097 90.8514C109.194 91.4704 110.425 91.8065 111.682 91.8298C112.938 91.8532 114.18 91.5631 115.299 90.9853C116.418 90.4075 117.378 89.5598 118.095 88.5173C118.812 87.4747 119.264 86.2696 119.41 85.0085C119.556 83.7474 119.393 82.4694 118.934 81.2875C118.474 80.1056 117.734 79.0564 116.778 78.2329C115.396 77.0359 113.631 76.3872 111.812 76.4078H111.777Z" fill="#231F20"/>
<path d="M108.269 91.1309C108.269 91.1309 119.452 106.767 117.403 110.189C115.354 113.611 108.043 111.716 108.043 111.716" fill="white"/>
<path d="M112.245 113.12C110.76 113.105 109.281 112.922 107.835 112.576C107.724 112.547 107.62 112.497 107.529 112.428C107.438 112.358 107.361 112.271 107.303 112.172C107.244 112.072 107.206 111.962 107.19 111.848C107.175 111.734 107.181 111.617 107.21 111.505C107.236 111.392 107.285 111.286 107.353 111.192C107.421 111.099 107.507 111.02 107.606 110.961C107.705 110.902 107.815 110.864 107.929 110.849C108.043 110.834 108.158 110.842 108.269 110.874C110.127 111.348 115.215 112.085 116.656 109.751C117.75 107.996 112.784 98.9405 107.557 91.6402C107.426 91.4531 107.373 91.2217 107.409 90.9954C107.444 90.7692 107.566 90.566 107.748 90.4293C107.84 90.3588 107.944 90.3077 108.056 90.2791C108.167 90.2505 108.283 90.2451 108.397 90.2632C108.51 90.2812 108.619 90.3223 108.717 90.3841C108.814 90.4458 108.898 90.5269 108.964 90.6224C110.891 93.3073 120.372 106.908 118.149 110.646C116.986 112.611 114.485 113.12 112.245 113.12Z" fill="#231F20"/>
<path d="M105.161 69.9676C112.107 75.2322 110.614 86.9724 110.874 94.5359C111.245 105.217 111.36 115.91 111.221 126.615C111.221 133.389 93.8573 134.267 90.6623 132.371L95.6632 148.937L57.462 146.41L58.035 124.246C58.035 124.246 53.1904 93.8164 59.3894 79.7247C61.1979 75.6717 64.0907 72.2099 67.7416 69.7294C71.3926 67.2489 75.6565 65.8483 80.0528 65.6856C80.0528 65.6856 98.372 64.8608 105.161 69.9676Z" fill="white"/>
<path d="M95.6455 149.85L57.4443 147.323C57.2202 147.309 57.0099 147.208 56.8578 147.041C56.7056 146.875 56.6233 146.655 56.6282 146.428L57.2012 124.246C57.0102 123.158 52.3913 93.5706 58.6251 79.4087C64.8588 65.2468 79.8441 64.8782 80.1045 64.8782C80.8165 64.8782 98.7884 64.0183 105.734 69.2654C111.829 73.8808 111.794 83.0588 111.759 90.3241C111.759 91.7806 111.759 93.1845 111.759 94.448C112.124 105.1 112.246 115.91 112.107 126.562C112.036 127.624 111.673 128.645 111.06 129.51C110.446 130.375 109.606 131.05 108.634 131.459C104.171 133.986 95.9927 134.53 91.9642 133.687L96.4789 148.709C96.5186 148.846 96.5252 148.991 96.498 149.132C96.4708 149.272 96.4107 149.404 96.3227 149.516C96.2427 149.621 96.14 149.705 96.0225 149.763C95.9051 149.821 95.7761 149.85 95.6455 149.85ZM58.3125 145.638L94.4473 148.007L89.8111 132.669C89.7622 132.5 89.7641 132.319 89.8166 132.15C89.8692 131.982 89.97 131.833 90.1063 131.722C90.2499 131.624 90.4192 131.571 90.5925 131.571C90.7658 131.571 90.9351 131.624 91.0787 131.722C93.145 132.968 102.904 132.862 107.783 130.09C109.519 129.142 110.336 128.001 110.336 126.703C110.474 116.068 110.336 105.293 109.988 94.6762C109.988 93.3775 109.988 91.9561 109.988 90.482C109.988 83.4625 109.988 74.8284 104.657 70.7395C98.2154 65.8785 80.3476 66.6858 80.1045 66.7033C75.8656 66.8348 71.7491 68.1704 68.2266 70.5572C64.7041 72.944 61.9181 76.2853 60.1878 80.1984C54.1451 93.8689 58.8508 123.913 58.9029 124.211L58.3125 145.638Z" fill="#231F20"/>
<path d="M50.4295 152.218L53.0514 140.285L99.7784 141.04L103.251 151.569C103.251 151.569 80.0006 165.152 50.4295 152.218Z" fill="white"/>
<path d="M76.3545 158.641C67.3095 158.62 58.366 156.715 50.0825 153.043C49.8983 152.96 49.7479 152.815 49.6563 152.633C49.5647 152.451 49.5374 152.243 49.5789 152.043L52.2009 140.11C52.2414 139.913 52.3486 139.737 52.504 139.612C52.6594 139.487 52.8532 139.421 53.0518 139.425L99.7787 140.198C99.9554 140.196 100.128 140.251 100.272 140.355C100.415 140.46 100.522 140.607 100.577 140.777L104.05 151.306C104.121 151.496 104.121 151.706 104.051 151.896C103.981 152.086 103.845 152.244 103.668 152.341C95.1895 156.608 85.8254 158.768 76.3545 158.641ZM51.4369 151.71C59.4639 155.243 68.1407 157.016 76.8953 156.913C85.6499 156.811 94.2835 154.834 102.227 151.113L99.1536 141.935L53.7463 141.198L51.4369 151.71Z" fill="#231F20"/>
<path d="M1.39318 332.972C1.17626 332.972 0.967389 332.889 0.809241 332.739C0.651093 332.589 0.555618 332.384 0.542338 332.165C-2.4443 295.312 7.85264 217.027 8.4083 214.728C8.43566 214.613 8.48522 214.504 8.55413 214.408C8.62304 214.312 8.70996 214.231 8.80993 214.169C8.9099 214.107 9.02096 214.066 9.13677 214.047C9.25257 214.029 9.37086 214.033 9.48488 214.061C9.59889 214.089 9.7064 214.139 9.80126 214.208C9.89613 214.278 9.97649 214.366 10.0378 214.467C10.099 214.568 10.14 214.68 10.1584 214.797C10.1767 214.914 10.1721 215.034 10.1447 215.149C9.58906 217.448 -0.638431 295.277 2.31348 332.024C2.32297 332.14 2.30981 332.256 2.27475 332.366C2.23969 332.476 2.18342 332.578 2.10918 332.666C2.03494 332.754 1.94421 332.827 1.84219 332.879C1.74016 332.932 1.62887 332.963 1.51473 332.972H1.39318Z" fill="#231F20"/>
<path d="M74.3744 124.474C72.1171 138.373 74.5307 150.078 60.8477 159.414C51.4884 165.819 39.3683 167.17 28.2899 164.942C21.3443 163.538 14.1381 160.432 10.3875 154.307C5.83808 146.884 7.57449 137.092 11.3078 129.212C15.0411 121.333 20.5629 114.366 23.7232 106.223C31.4502 86.358 25.0776 63.8253 44.0913 49.7687C51.5463 44.3185 60.2427 40.8597 69.3735 39.7132C71.9955 39.3797 94.8294 42.363 94.4995 42.7667C98.8231 37.7301 108.061 40.7661 110.995 46.7152C112.174 49.4146 112.797 52.3281 112.827 55.2785C112.857 58.229 112.293 61.1547 111.169 63.8779C110.839 64.5623 104.831 72.2136 104.97 69.9498C104.588 75.9866 100.942 79.1454 96.5137 83.322C92.0858 87.4987 86.8245 90.6926 81.9973 94.3954C72.5859 101.573 75.833 110.4 74.8606 120.613C74.7391 121.929 74.5828 123.211 74.3744 124.474Z" fill="white"/>
<path d="M38.1881 166.819C34.8118 166.815 31.4442 166.474 28.1343 165.801C22.0394 164.573 13.8783 161.677 9.65881 154.781C3.84182 145.287 8.32177 133.476 10.527 128.826C12.1592 125.316 14.1561 122.052 16.0835 118.841C18.7274 114.739 21.0109 110.411 22.9077 105.907C25.2911 99.0087 26.8362 91.8431 27.5092 84.5678C29.2456 71.0903 30.982 58.3674 43.5884 49.0665C51.1567 43.5192 59.9919 39.9994 69.27 38.8355C69.4436 38.8355 89.2387 40.4149 94.1701 41.8188C95.1684 40.8421 96.3804 40.117 97.7079 39.7023C99.0354 39.2876 100.441 39.1951 101.81 39.4322C103.889 39.7074 105.875 40.4736 107.607 41.6687C109.338 42.8639 110.767 44.4543 111.777 46.3114C113.006 49.1363 113.655 52.1839 113.685 55.2696C113.715 58.3553 113.125 61.4151 111.951 64.2638C111.951 64.2638 107.992 70.0374 105.735 71.0728C105.023 76.5305 101.602 79.7419 97.6951 83.357L97.1047 83.9185C94.0748 86.6451 90.8604 89.1548 87.485 91.4294C85.7485 92.6227 84.1337 93.7985 82.5188 95.0445C75.8162 100.151 75.8683 106.17 75.9378 113.137C75.9956 115.643 75.9261 118.15 75.7294 120.648C75.6079 122 75.4342 123.316 75.2259 124.562C74.7397 127.527 74.4792 130.405 74.2187 133.178C73.2463 143.567 72.4823 152.482 61.3345 160.098C54.4495 164.609 46.3924 166.949 38.1881 166.819ZM69.9992 40.5553H69.4783C60.4939 41.6815 51.9357 45.0797 44.5955 50.4353C32.5969 59.2097 30.9646 71.6519 29.2282 84.7433C28.5532 92.1937 26.9727 99.5317 24.5225 106.592C22.59 111.191 20.2661 115.613 17.5769 119.806C15.5858 122.993 13.7545 126.278 12.0898 129.651C10.0235 134.02 5.76923 145.164 11.1348 153.903C15.0243 160.274 22.7166 162.976 28.4989 164.134C40.2892 166.503 51.9232 164.538 60.3969 158.747C70.8154 151.639 71.5967 143.058 72.5518 133.108C72.8122 130.3 73.0901 127.405 73.5763 124.333C73.7846 123.123 73.9409 121.842 74.0624 120.525C74.26 118.092 74.3296 115.649 74.2708 113.208C74.2708 106.065 74.1493 99.3439 81.529 93.6932C83.2655 92.4473 84.863 91.2539 86.5473 90.0431C89.8617 87.8176 93.0181 85.3606 95.9934 82.6901L96.5838 82.1285C100.63 78.3204 103.825 75.3196 104.172 69.8443C104.194 69.6148 104.301 69.4021 104.472 69.2491C104.642 69.0961 104.864 69.014 105.092 69.0195C105.257 69.0295 105.415 69.0908 105.544 69.195C107.323 67.4478 108.939 65.5386 110.371 63.4917C111.43 60.8878 111.962 58.0956 111.935 55.2804C111.909 52.4651 111.323 49.6838 110.215 47.101C109.33 45.4931 108.082 44.1183 106.574 43.0879C105.066 42.0574 103.339 41.4003 101.533 41.1695C100.368 40.9555 99.1698 41.0411 98.047 41.4183C96.9242 41.7955 95.9135 42.4523 95.1078 43.328C94.9694 43.4921 94.776 43.5988 94.5646 43.628C94.3532 43.6571 94.1386 43.6066 93.9618 43.486C86.0291 42.0957 78.0311 41.1176 69.9992 40.5553Z" fill="#231F20"/>
<path d="M110.632 118.683C110.632 118.683 102.644 124.123 97.9212 115.752L110.632 118.683Z" fill="white"/>
<path d="M105.022 121.297C104.374 121.305 103.727 121.234 103.095 121.087C101.822 120.738 100.637 120.122 99.6164 119.278C98.596 118.434 97.7635 117.382 97.1734 116.191C97.1164 116.09 97.0796 115.98 97.0648 115.865C97.0501 115.751 97.0579 115.634 97.0877 115.522C97.1176 115.411 97.1689 115.306 97.2387 115.215C97.3085 115.123 97.3955 115.046 97.4947 114.989C97.5939 114.931 97.7033 114.894 97.8168 114.879C97.9302 114.864 98.0455 114.872 98.156 114.902C98.2664 114.932 98.3699 114.984 98.4605 115.055C98.5512 115.125 98.6271 115.213 98.6841 115.313C99.1542 116.293 99.8244 117.161 100.65 117.859C101.477 118.558 102.44 119.072 103.477 119.367C105.794 119.727 108.162 119.228 110.144 117.963C110.237 117.897 110.343 117.851 110.454 117.826C110.565 117.802 110.679 117.8 110.791 117.822C110.903 117.843 111.009 117.887 111.104 117.95C111.199 118.014 111.28 118.096 111.343 118.191C111.408 118.287 111.455 118.394 111.479 118.508C111.503 118.622 111.505 118.739 111.484 118.853C111.463 118.968 111.42 119.076 111.357 119.174C111.294 119.271 111.212 119.355 111.117 119.42C109.287 120.582 107.183 121.23 105.022 121.297Z" fill="#231F20"/>
<path d="M65.2232 100.309H65.0496C64.9378 100.286 64.8317 100.241 64.7371 100.176C64.6426 100.112 64.5616 100.029 64.4987 99.9332C64.4358 99.837 64.3923 99.7293 64.3706 99.6161C64.3489 99.503 64.3495 99.3866 64.3724 99.2737C65.4489 93.8686 66.4734 93.6932 66.9249 93.6405C67.7931 93.4826 102.087 86.3577 120.111 82.6023C120.342 82.5557 120.581 82.6035 120.776 82.7352C120.971 82.8668 121.107 83.0715 121.153 83.3042C121.199 83.5369 121.152 83.7786 121.022 83.9761C120.891 84.1735 120.689 84.3106 120.459 84.3572C118.375 84.7783 70.8492 94.6934 67.3764 95.3603C66.7507 96.7269 66.3126 98.1734 66.074 99.6598C66.0212 99.8467 65.9097 100.011 65.7562 100.128C65.6026 100.245 65.4156 100.309 65.2232 100.309Z" fill="#231F20"/>
<path d="M88.2836 98.8354C87.8722 96.1736 86.7427 93.678 85.0192 91.6228C83.9042 89.8697 82.5411 88.2911 80.9734 86.9373C80.1833 86.2694 79.2561 85.7876 78.2591 85.5266C77.262 85.2655 76.22 85.2319 75.2084 85.4281C74.3326 85.6937 73.5223 86.1439 72.831 86.7488C72.1396 87.3537 71.5829 88.0998 71.1973 88.9378C70.4484 90.5882 70.0746 92.3871 70.1034 94.2025C70.0938 98.228 71.1336 102.185 73.118 105.675C75.1024 109.166 77.9615 112.066 81.4075 114.085L80.8518 113.611" fill="white"/>
<path d="M81.4069 115.033C81.2562 115.031 81.1077 114.995 80.9728 114.927C77.4088 112.821 74.4508 109.811 72.392 106.194C70.3331 102.577 69.2448 98.48 69.2346 94.3075C69.1935 92.3328 69.6035 90.3751 70.4328 88.5866C70.865 87.6331 71.4974 86.786 72.286 86.1042C73.0746 85.4224 74.0005 84.9221 74.9995 84.6381C76.1455 84.4093 77.328 84.4485 78.4566 84.7527C79.5852 85.0569 80.6301 85.6179 81.5111 86.393C83.1497 87.7932 84.5668 89.4384 85.7132 91.2716C87.5663 93.437 88.7708 96.0909 89.1861 98.9229C89.1929 99.0381 89.1772 99.1536 89.1399 99.2627C89.1026 99.3718 89.0444 99.4724 88.9686 99.5587C88.8928 99.6451 88.8009 99.7155 88.6982 99.766C88.5955 99.8165 88.484 99.8461 88.3699 99.853C88.2559 99.8599 88.1417 99.844 88.0337 99.8063C87.9258 99.7686 87.8262 99.7098 87.7408 99.6332C87.6553 99.5566 87.5856 99.4638 87.5357 99.3599C87.4857 99.2561 87.4565 99.1434 87.4496 99.0282C87.0264 96.5368 85.9535 94.2046 84.3414 92.2719C83.2806 90.592 81.9818 89.0784 80.4866 87.7794C79.7995 87.1898 78.9909 86.7627 78.1198 86.5289C77.2487 86.2951 76.337 86.2607 75.451 86.4281C74.6926 86.6518 73.9904 87.0369 73.3914 87.5575C72.7924 88.0781 72.3106 88.7222 71.9782 89.4465C71.2823 91.0122 70.9383 92.7143 70.971 94.4304C70.9773 98.0644 71.8655 101.641 73.5578 104.848C75.2501 108.054 77.6948 110.792 80.6776 112.822C80.8096 112.804 80.9437 112.818 81.07 112.86C81.1963 112.903 81.3114 112.974 81.4069 113.067L82.0147 113.681C82.165 113.828 82.257 114.025 82.273 114.235C82.289 114.445 82.228 114.654 82.1015 114.822C82.007 114.905 81.8962 114.966 81.7765 115.003C81.6568 115.039 81.5308 115.049 81.4069 115.033Z" fill="#231F20"/>
<path d="M105.172 86.7753C105.993 86.6954 106.496 84.9257 106.295 82.8226C106.095 80.7195 105.267 79.0793 104.446 79.1592C103.625 79.2391 103.122 81.0088 103.323 83.1119C103.523 85.215 104.351 86.8552 105.172 86.7753Z" fill="#231F20"/>
<path d="M148.572 289.099C148.451 289.125 148.327 289.125 148.207 289.099C107.002 269.533 86.4253 196.986 86.217 196.266C86.1579 196.04 86.1884 195.8 86.3019 195.597C86.4154 195.394 86.603 195.244 86.8247 195.178C86.9342 195.146 87.0488 195.137 87.1619 195.151C87.2749 195.165 87.3841 195.201 87.4829 195.259C87.5816 195.316 87.668 195.393 87.7369 195.484C87.8058 195.576 87.8558 195.681 87.8839 195.792C88.0923 196.512 108.46 268.287 148.954 287.503C149.131 287.589 149.274 287.734 149.358 287.914C149.443 288.093 149.465 288.296 149.421 288.49C149.377 288.684 149.268 288.857 149.114 288.98C148.96 289.104 148.768 289.17 148.572 289.17V289.099Z" fill="#231F20"/>
<path d="M349.719 350.433H238.935L260.154 238.471H370.938L349.719 350.433Z" fill="white"/>
<path d="M349.718 351.31H238.865C238.737 351.308 238.61 351.279 238.493 351.225C238.377 351.17 238.273 351.092 238.188 350.994C238.11 350.894 238.054 350.778 238.024 350.654C237.994 350.529 237.991 350.4 238.014 350.275L259.233 238.296C259.27 238.096 259.376 237.916 259.532 237.787C259.687 237.659 259.883 237.59 260.084 237.594H370.867C370.996 237.592 371.124 237.62 371.241 237.674C371.358 237.729 371.462 237.809 371.545 237.91C371.624 238.009 371.68 238.126 371.71 238.25C371.74 238.374 371.743 238.504 371.718 238.629L350.569 350.521C350.551 350.736 350.454 350.937 350.296 351.084C350.139 351.23 349.932 351.311 349.718 351.31ZM239.976 349.555H349.006L369.843 239.349H260.866L239.976 349.555Z" fill="#231F20"/>
<path d="M349.718 261.478H275.156C274.901 261.473 274.658 261.368 274.48 261.184C274.301 261 274.201 260.753 274.201 260.495C274.201 260.239 274.302 259.994 274.481 259.813C274.66 259.632 274.903 259.53 275.156 259.53H349.718C349.845 259.528 349.971 259.551 350.089 259.598C350.206 259.646 350.314 259.717 350.404 259.806C350.495 259.896 350.567 260.003 350.616 260.122C350.665 260.24 350.69 260.367 350.69 260.495C350.69 260.624 350.665 260.752 350.616 260.871C350.567 260.99 350.496 261.099 350.405 261.19C350.315 261.281 350.208 261.354 350.09 261.403C349.972 261.452 349.845 261.478 349.718 261.478Z" fill="#D1D3D4"/>
<path d="M346.402 279.009H271.857C271.73 279.011 271.604 278.988 271.486 278.941C271.369 278.893 271.261 278.822 271.171 278.733C271.08 278.643 271.008 278.535 270.959 278.417C270.91 278.299 270.885 278.172 270.885 278.044C270.885 277.783 270.987 277.533 271.17 277.349C271.352 277.165 271.599 277.061 271.857 277.061H346.419C346.674 277.066 346.917 277.171 347.095 277.355C347.274 277.539 347.374 277.786 347.374 278.044C347.374 278.172 347.349 278.299 347.3 278.417C347.251 278.535 347.179 278.643 347.088 278.733C346.998 278.822 346.89 278.893 346.772 278.941C346.654 278.988 346.528 279.011 346.402 279.009Z" fill="#D1D3D4"/>
<path d="M343.05 296.558H268.506C268.272 296.526 268.058 296.41 267.903 296.231C267.748 296.052 267.663 295.822 267.663 295.584C267.663 295.346 267.748 295.116 267.903 294.937C268.058 294.758 268.272 294.642 268.506 294.61H343.05C343.187 294.592 343.327 294.603 343.46 294.643C343.593 294.684 343.715 294.752 343.82 294.844C343.924 294.937 344.008 295.05 344.065 295.178C344.122 295.306 344.152 295.444 344.152 295.584C344.152 295.724 344.122 295.863 344.065 295.99C344.008 296.118 343.924 296.232 343.82 296.324C343.715 296.416 343.593 296.485 343.46 296.525C343.327 296.566 343.187 296.577 343.05 296.558Z" fill="#D1D3D4"/>
<path d="M339.751 314.107H265.19C265.052 314.126 264.912 314.114 264.78 314.074C264.647 314.034 264.524 313.965 264.42 313.873C264.315 313.78 264.232 313.667 264.175 313.539C264.117 313.412 264.088 313.273 264.088 313.133C264.088 312.993 264.117 312.854 264.175 312.727C264.232 312.599 264.315 312.485 264.42 312.393C264.524 312.301 264.647 312.232 264.78 312.192C264.912 312.151 265.052 312.14 265.19 312.159H339.751C339.985 312.191 340.199 312.307 340.354 312.486C340.509 312.665 340.594 312.895 340.594 313.133C340.594 313.371 340.509 313.601 340.354 313.78C340.199 313.959 339.985 314.075 339.751 314.107Z" fill="#D1D3D4"/>
<path d="M314.278 331.655H261.855C261.622 331.623 261.408 331.507 261.253 331.328C261.098 331.149 261.013 330.919 261.013 330.681C261.013 330.443 261.098 330.213 261.253 330.034C261.408 329.855 261.622 329.739 261.855 329.707H314.278C314.511 329.739 314.725 329.855 314.88 330.034C315.035 330.213 315.121 330.443 315.121 330.681C315.121 330.919 315.035 331.149 314.88 331.328C314.725 331.507 314.511 331.623 314.278 331.655Z" fill="#D1D3D4"/>
</svg>
